<svg xmlns="http://www.w3.org/2000/svg" xmlns:xlink="http://www.w3.org/1999/xlink" width="125" height="125" viewBox="0 0 125 125">
  <defs>
    <clipPath id="clip-path">
      <rect id="Rectángulo_378073" data-name="Rectángulo 378073" width="62.227" height="62.271" fill="#12263f"/>
    </clipPath>
  </defs>
  <g id="Grupo_1072981" data-name="Grupo 1072981" transform="translate(-1104.668 -5996)">
    <g id="Grupo_1072869" data-name="Grupo 1072869" transform="translate(719 1)">
      <rect id="Rectángulo_377974" data-name="Rectángulo 377974" width="125" height="125" transform="translate(385.668 5995)" fill="none"/>
      <path id="Trazado_610930" data-name="Trazado 610930" d="M-10.279,8.447,92.441.268l13.473,113.306L-7.668,125Z" transform="translate(398.947 5995)" fill="#fff"/>
      <path id="Trazado_610931" data-name="Trazado 610931" d="M-22852-5608.555l-26.621,26.192-.854-1.708-2.277.712-1.709-.712-4.7-1.565,31.316-31.174v1.993h1.85v2.42Z" transform="translate(23362.668 11700)" fill="#ffa346"/>
      <path id="Trazado_610932" data-name="Trazado 610932" d="M-22852-5608.555l-26.621,26.192-.854-1.708-2.277.712-1.709-.712-4.7-1.565,31.316-31.174v1.993h1.85v2.42Z" transform="translate(23273.826 11611.811)" fill="#ffa346"/>
    </g>
    <path id="Intersección_6" data-name="Intersección 6" d="M23221.221,11791.125l1.383,11.624-12.1,11.9-14.367,1.445Z" transform="translate(-21999.613 -5703.732)" fill="#ffe3c7"/>
    <path id="Intersección_5" data-name="Intersección 5" d="M23116.354,11732.74l-2.279.711-1.707-.711-.773-.258-.115-5.1,20.711-20.613,9.867-.786,1.77,2.278-26.621,26.19Z" transform="translate(-22003 -5704)" fill="#ffe3c7"/>
    <rect id="Rectángulo_377981" data-name="Rectángulo 377981" width="73" height="73" transform="translate(1130.668 6023)" fill="#fff"/>
    <g id="Grupo_1073052" data-name="Grupo 1073052" transform="translate(1136.054 6027.365)">
      <g id="Grupo_1073051" data-name="Grupo 1073051" transform="translate(-2 -2)" clip-path="url(#clip-path)">
        <path id="Trazado_613371" data-name="Trazado 613371" d="M54.575,26.271c-1.556,0-3.113.044-4.667-.015-1.1-.042-.7.791-.8,1.28-.15.689.442.478.767.482,1.653.02,3.306.017,4.959.006.672,0,1.193.2,1.176.955-.017.727-.57.853-1.172.852-1.783,0-3.566.026-5.348-.013a.834.834,0,0,0-.98.773,22.874,22.874,0,0,1-4.128,8.7c-.439.576-.39.893.122,1.347.75.666,1.444,1.4,2.137,2.124.307.322.525.437.959.134a1.483,1.483,0,0,1,2.027.273q4.209,4.179,8.393,8.383c.45.451.58.961.075,1.444-.482.462-.956.255-1.364-.146-.832-.818-1.67-1.631-2.469-2.481-.347-.368-.569-.381-.923-.011q-1.446,1.509-2.956,2.956c-.359.345-.371.56,0,.922q2.88,2.825,5.708,5.7c.326.331.518.334.844-.007.962-1.008,1.94-2,2.958-2.953.42-.392.414-.655-.011-.982a1.6,1.6,0,0,1-.269-.279.865.865,0,0,1-.015-1.232.9.9,0,0,1,1.237-.1c1.706,1.078,1.849,2.366.424,3.8-1.121,1.125-2.237,2.256-3.373,3.365a1.691,1.691,0,0,1-2.773-.014q-5.89-5.868-11.762-11.753a1.648,1.648,0,0,1-.362-2.335c.232-.327.128-.5-.107-.725-.834-.816-1.67-1.631-2.471-2.479-.334-.354-.566-.269-.9-.017a24.1,24.1,0,0,1-9.8,4.486c-.545.114-.729.319-.715.886.041,1.652.009,3.306.017,4.959,0,.689-.17,1.288-.974,1.274-.753-.014-.905-.612-.906-1.248,0-1.459.015-2.918-.012-4.375-.008-.441.281-1.055-.661-1.053-.864,0-1.08.278-1.064,1.116.053,2.754.021,5.51.018,8.265a4.191,4.191,0,0,1-.053.87.833.833,0,0,1-.9.721.865.865,0,0,1-.873-.76,3.564,3.564,0,0,1-.029-.775c0-2.852-.051-5.706.025-8.556.028-1.047-.621-.813-1.178-.889-.846-.117-.559.525-.565.9-.026,1.523-.018,3.047-.008,4.57,0,.657-.172,1.215-.922,1.221s-.917-.565-.913-1.217c.009-1.588-.045-3.179.022-4.764.034-.8-.226-1.083-1.01-1.284C10.615,46.418,4.7,41.319,1.6,33.233A24.5,24.5,0,0,1,18.706.778c8.055-1.962,15.32-.187,21.767,5,.1.081.2.166.3.249.528.437,1.043.952.478,1.626s-1.124.227-1.655-.223a22.78,22.78,0,1,0,7.186,22.551,22.261,22.261,0,0,0-3.856-18.967,3.82,3.82,0,0,1-.517-.809.817.817,0,0,1,.333-1.021.8.8,0,0,1,1.066.056,3.121,3.121,0,0,1,.448.509A23.641,23.641,0,0,1,48.83,20.125c.1.58.316.751.873.742,1.685-.027,3.371,0,5.056-.012.646,0,1.221.13,1.249.892.029.783-.572.944-1.2.95-1.621.016-3.242.032-4.862,0-.623-.014-.792.217-.729.794.054.5-.115,1.112.75.981a3.934,3.934,0,0,1,.583,0c2.755,0,5.51,0,8.265,0,.668,0,1.508-.138,1.521.873.012.988-.79.929-1.485.929H54.575m-8.6,23.676c.3-.28.472-.425.629-.581q1.165-1.158,2.325-2.322c1.023-1.022.992-.991,0-2.017-.452-.467-.686-.343-1.058.048-.888.933-1.823,1.82-2.716,2.748-.191.2-.671.35-.393.739a17.182,17.182,0,0,0,1.215,1.384M48.466,52.5a5.041,5.041,0,0,0,.47-.339c1.079-1.072,2.166-2.136,3.224-3.228.566-.584-.2-.736-.414-1.041s-.471-.647-.915-.187c-.966,1-1.969,1.967-2.942,2.962-.181.185-.568.346-.333.7.266.4.6.754.909,1.134m-2.774-7.69a.669.669,0,0,0-.289-.7c-.745-.758-1.533-1.477-2.235-2.273-.467-.531-.744-.286-1.04.108-.256.342-1,.543-.287,1.174.744.663,1.406,1.418,2.135,2.1.2.187.339.667.751.391a9.974,9.974,0,0,0,.965-.8" transform="translate(0 0.001)" fill="#12263f"/>
        <path id="Trazado_613372" data-name="Trazado 613372" d="M60.857,39.563a20.966,20.966,0,0,1-33.1,17.275c-.16-.11-.32-.221-.469-.346-.419-.352-.617-.778-.265-1.271a.878.878,0,0,1,1.359-.18,21.748,21.748,0,0,0,3.772,2.184A19.139,19.139,0,1,0,21,36.933a18.6,18.6,0,0,0,4.23,15.133c.083.1.166.2.251.3.393.448.516.932.033,1.367-.514.462-1.007.3-1.43-.187a20.155,20.155,0,0,1-4.11-7.2A20.982,20.982,0,1,1,60.243,34.641a18.163,18.163,0,0,1,.614,4.922" transform="translate(-15.272 -15.122)" fill="#12263f"/>
        <path id="Trazado_613373" data-name="Trazado 613373" d="M70.349,60.519H58.294c-.259,0-.519,0-.778-.006-.62-.017-1.15-.26-1.128-.931a.916.916,0,0,1,1.154-.886c.86.12,1-.272.985-1.038-.044-2.754-.021-5.509-.015-8.263,0-1.436.423-1.866,1.845-1.878,1.49-.013,2.982-.036,4.472.01.734.023,1.08-.151,1-.962a15.861,15.861,0,0,1-.006-2.137,1.4,1.4,0,0,1,1.587-1.535c1.912-.016,3.824-.011,5.736,0,1.291.005,1.769.45,1.785,1.745.026,2.139.048,4.279-.011,6.416-.023.845.194,1.131,1.07,1.086,1.487-.075,2.981-.034,4.471-.016,1.3.016,1.755.486,1.763,1.768.008,1.361.023,2.723-.007,4.083-.012.541.152.784.712.719a2.085,2.085,0,0,1,.677.025.854.854,0,0,1,.73.9.784.784,0,0,1-.676.828,6.131,6.131,0,0,1-1.062.076q-6.125.007-12.249,0M73.1,51.777c0-2.1-.018-4.205.011-6.307.008-.591-.178-.789-.773-.772-1.325.038-2.652.032-3.978,0-.54-.012-.731.159-.729.716q.028,6.307,0,12.615c0,.515.181.67.676.661,1.326-.024,2.653-.036,3.978.005.623.019.839-.159.827-.807-.038-2.037-.014-4.075-.014-6.113M60.354,53.909c0,1.329.019,2.658-.009,3.986-.012.555.113.823.746.8q1.991-.065,3.986,0c.628.02.754-.237.749-.8q-.034-3.889,0-7.778c0-.56-.116-.822-.747-.8q-1.991.064-3.986,0c-.63-.02-.761.242-.748.8.029,1.263.009,2.528.009,3.792m17.491.055c-.84,0-1.521.03-2.2-.009-.563-.032-.727.2-.713.732.029,1.1.032,2.2,0,3.3-.017.561.2.728.737.707.9-.034,1.811-.009,2.717-.009,2.017,0,2.037,0,2.008-2.029-.012-.863.382-1.979-.179-2.522s-1.667-.1-2.371-.169" transform="translate(-45.421 -34.541)" fill="#12263f"/>
        <path id="Trazado_613374" data-name="Trazado 613374" d="M86.4,148.243l-2.233,6c-.124.333-.249.666-.369,1-.162.453-.4.831-.945.834-.6,0-.824-.414-.994-.9q-.815-2.335-1.642-4.665c-.053-.152-.11-.3-.184-.5-.551.242-.66.785-.881,1.209a1.521,1.521,0,0,1-1.547.923c-1.327-.041-2.657-.014-3.986-.011-.643,0-1.225-.15-1.228-.915,0-.748.551-.948,1.206-.946,1.1,0,2.2-.024,3.305.011a.935.935,0,0,0,.991-.576c.409-.808.881-1.583,1.312-2.38.213-.394.484-.719.961-.7.531.02.776.416.934.864.464,1.31.916,2.624,1.383,3.933.093.262.107.575.471.8.809-2.161,1.615-4.29,2.4-6.426.186-.505.35-1.015.993-1.034.7-.02.88.53,1.082,1.058.5,1.3,1.031,2.583,1.507,3.888a.747.747,0,0,0,.849.574c1.1-.03,2.2-.006,3.305-.01.64,0,1.224.142,1.251.9.029.838-.593.967-1.269.965-1.394,0-2.787-.015-4.181,0a1.22,1.22,0,0,1-1.316-.9c-.332-.933-.722-1.846-1.176-2.99" transform="translate(-58.313 -116.601)" fill="#12263f"/>
      </g>
    </g>
  </g>
</svg>
