<svg xmlns="http://www.w3.org/2000/svg" xmlns:xlink="http://www.w3.org/1999/xlink" width="400" height="984" viewBox="0 0 400 984">
  <defs>
    <clipPath id="clip-path">
      <rect id="Rectángulo_378839" data-name="Rectángulo 378839" width="55.836" height="66.908" fill="#12263f"/>
    </clipPath>
    <clipPath id="clip-path-2">
      <rect id="Rectángulo_378838" data-name="Rectángulo 378838" width="67.742" height="64.202" fill="#12263f"/>
    </clipPath>
    <clipPath id="clip-path-3">
      <rect id="Rectángulo_378837" data-name="Rectángulo 378837" width="67" height="67" transform="translate(-0.022 -0.025)" fill="#12263f"/>
    </clipPath>
    <clipPath id="clip-path-4">
      <rect id="Rectángulo_378836" data-name="Rectángulo 378836" width="75.067" height="71.61" fill="#12263f"/>
    </clipPath>
    <clipPath id="clip-path-5">
      <rect id="Rectángulo_378835" data-name="Rectángulo 378835" width="62.666" height="62.676" fill="#12263f"/>
    </clipPath>
    <clipPath id="clip-path-6">
      <rect id="Rectángulo_378834" data-name="Rectángulo 378834" width="63.606" height="75.303" fill="#12263f" stroke="#12263f" stroke-width="1"/>
    </clipPath>
  </defs>
  <g id="Grupo_1073813" data-name="Grupo 1073813" transform="translate(-11954.934 8821.961)">
    <rect id="Rectángulo_378841" data-name="Rectángulo 378841" width="400" height="984" transform="translate(11954.934 -8821.961)" fill="#fff"/>
    <rect id="Rectángulo_378818" data-name="Rectángulo 378818" width="173" height="155" rx="30" transform="translate(11961.934 -8704.961)" fill="#fffac1"/>
    <path id="Trazado_616007" data-name="Trazado 616007" d="M7.594,10.836H5.727V15H3.383V3.625H7.609a4.778,4.778,0,0,1,3.109.9,3.1,3.1,0,0,1,1.094,2.539A3.5,3.5,0,0,1,11.309,9a3.437,3.437,0,0,1-1.527,1.238l2.461,4.648V15H9.727Zm-1.867-1.9H7.617a1.936,1.936,0,0,0,1.367-.449A1.606,1.606,0,0,0,9.469,7.25a1.719,1.719,0,0,0-.457-1.266,1.9,1.9,0,0,0-1.4-.461H5.727Zm11.609,6.219a4.15,4.15,0,0,1-3.027-1.141,4.054,4.054,0,0,1-1.168-3.039v-.219a5.106,5.106,0,0,1,.492-2.277,3.612,3.612,0,0,1,1.395-1.547,3.914,3.914,0,0,1,2.059-.543,3.508,3.508,0,0,1,2.73,1.094,4.444,4.444,0,0,1,1,3.1v.922H15.43a2.1,2.1,0,0,0,.66,1.328,2,2,0,0,0,1.395.5,2.437,2.437,0,0,0,2.039-.945l1.109,1.242a3.389,3.389,0,0,1-1.375,1.121A4.511,4.511,0,0,1,17.336,15.156Zm-.258-6.945a1.411,1.411,0,0,0-1.09.455,2.357,2.357,0,0,0-.535,1.3h3.141V9.788a1.681,1.681,0,0,0-.406-1.165A1.456,1.456,0,0,0,17.078,8.211Zm8.531,5.125a1.481,1.481,0,0,0,1.016-.344,1.2,1.2,0,0,0,.406-.914h2.117a2.9,2.9,0,0,1-.469,1.574,3.093,3.093,0,0,1-1.262,1.109,3.949,3.949,0,0,1-1.77.395A3.67,3.67,0,0,1,22.789,14a4.56,4.56,0,0,1-1.047-3.184v-.148a4.508,4.508,0,0,1,1.039-3.117,3.627,3.627,0,0,1,2.852-1.164,3.555,3.555,0,0,1,2.543.9,3.2,3.2,0,0,1,.973,2.4H27.031a1.551,1.551,0,0,0-.406-1.072,1.51,1.51,0,0,0-2.223.163,3.333,3.333,0,0,0-.4,1.866v.235a3.375,3.375,0,0,0,.4,1.878A1.377,1.377,0,0,0,25.609,13.336ZM30.086,10.7a5.013,5.013,0,0,1,.484-2.242A3.546,3.546,0,0,1,31.965,6.93a4.069,4.069,0,0,1,2.113-.539,3.849,3.849,0,0,1,2.793,1.047,4.2,4.2,0,0,1,1.207,2.844l.016.578a4.418,4.418,0,0,1-1.086,3.121,3.775,3.775,0,0,1-2.914,1.176,3.793,3.793,0,0,1-2.918-1.172,4.5,4.5,0,0,1-1.09-3.187Zm2.258.16A3.16,3.16,0,0,0,32.8,12.7a1.628,1.628,0,0,0,2.578.008,3.457,3.457,0,0,0,.461-2.015,3.128,3.128,0,0,0-.461-1.831,1.5,1.5,0,0,0-1.3-.649,1.474,1.474,0,0,0-1.281.646A3.516,3.516,0,0,0,32.344,10.856Zm9.219-4.309.07.977a2.951,2.951,0,0,1,2.43-1.133,2.453,2.453,0,0,1,2,.789,3.682,3.682,0,0,1,.672,2.359V15H44.477V9.594a1.465,1.465,0,0,0-.312-1.043,1.4,1.4,0,0,0-1.039-.324,1.553,1.553,0,0,0-1.43.813V15H39.438V6.547ZM48.094,10.7a5.013,5.013,0,0,1,.484-2.242A3.546,3.546,0,0,1,49.973,6.93a4.069,4.069,0,0,1,2.113-.539,3.849,3.849,0,0,1,2.793,1.047,4.2,4.2,0,0,1,1.207,2.844l.016.578a4.418,4.418,0,0,1-1.086,3.121,4.209,4.209,0,0,1-5.832,0,4.5,4.5,0,0,1-1.09-3.187Zm2.258.16A3.16,3.16,0,0,0,50.8,12.7a1.628,1.628,0,0,0,2.578.008,3.457,3.457,0,0,0,.461-2.015,3.128,3.128,0,0,0-.461-1.831,1.5,1.5,0,0,0-1.3-.649,1.474,1.474,0,0,0-1.281.646A3.516,3.516,0,0,0,50.352,10.856Zm10.656,2.48a1.481,1.481,0,0,0,1.016-.344,1.2,1.2,0,0,0,.406-.914h2.117a2.9,2.9,0,0,1-.469,1.574,3.093,3.093,0,0,1-1.262,1.109,3.949,3.949,0,0,1-1.77.395A3.67,3.67,0,0,1,58.188,14a4.56,4.56,0,0,1-1.047-3.184v-.148A4.508,4.508,0,0,1,58.18,7.555a3.627,3.627,0,0,1,2.852-1.164,3.555,3.555,0,0,1,2.543.9,3.2,3.2,0,0,1,.973,2.4H62.43a1.551,1.551,0,0,0-.406-1.072,1.51,1.51,0,0,0-2.223.163,3.333,3.333,0,0,0-.4,1.866v.235a3.375,3.375,0,0,0,.4,1.878A1.377,1.377,0,0,0,61.008,13.336ZM68.219,15H65.953V6.547h2.266ZM65.82,4.359a1.112,1.112,0,0,1,.34-.836,1.465,1.465,0,0,1,1.848,0,1.105,1.105,0,0,1,.344.836A1.108,1.108,0,0,1,68,5.2a1.448,1.448,0,0,1-1.836,0A1.108,1.108,0,0,1,65.82,4.359ZM72.2,6.547l.07.945a2.971,2.971,0,0,1,2.43-1.1A2.255,2.255,0,0,1,76.938,7.68a2.9,2.9,0,0,1,2.539-1.289,2.521,2.521,0,0,1,2.047.8A3.681,3.681,0,0,1,82.2,9.6V15H79.93V9.609a1.61,1.61,0,0,0-.281-1.051,1.246,1.246,0,0,0-.992-.332A1.409,1.409,0,0,0,77.25,9.2l.008,5.8H75V9.617a1.59,1.59,0,0,0-.289-1.062,1.259,1.259,0,0,0-.984-.328,1.463,1.463,0,0,0-1.391.8V15H70.078V6.547ZM86.313,15H84.047V6.547h2.266Zm-2.4-10.641a1.112,1.112,0,0,1,.34-.836,1.465,1.465,0,0,1,1.848,0,1.105,1.105,0,0,1,.344.836A1.108,1.108,0,0,1,86.1,5.2a1.448,1.448,0,0,1-1.836,0A1.108,1.108,0,0,1,83.914,4.359Zm8.148,10.8a4.15,4.15,0,0,1-3.027-1.141,4.054,4.054,0,0,1-1.168-3.039v-.219a5.106,5.106,0,0,1,.492-2.277,3.612,3.612,0,0,1,1.395-1.547,3.914,3.914,0,0,1,2.059-.543,3.508,3.508,0,0,1,2.73,1.094,4.444,4.444,0,0,1,1,3.1v.922H90.156a2.1,2.1,0,0,0,.66,1.328,2,2,0,0,0,1.395.5,2.437,2.437,0,0,0,2.039-.945l1.109,1.242a3.389,3.389,0,0,1-1.375,1.121A4.511,4.511,0,0,1,92.063,15.156ZM91.8,8.211a1.411,1.411,0,0,0-1.09.455,2.357,2.357,0,0,0-.535,1.3H93.32V9.788a1.681,1.681,0,0,0-.406-1.165A1.456,1.456,0,0,0,91.8,8.211ZM98.9,6.547l.07.977a2.951,2.951,0,0,1,2.43-1.133,2.453,2.453,0,0,1,2,.789,3.682,3.682,0,0,1,.672,2.359V15h-2.258V9.594a1.465,1.465,0,0,0-.312-1.043,1.4,1.4,0,0,0-1.039-.324,1.553,1.553,0,0,0-1.43.813V15H96.773V6.547Zm9.586-2.078V6.547h1.445V8.2h-1.445v4.219a1.007,1.007,0,0,0,.18.672.9.9,0,0,0,.688.2,3.6,3.6,0,0,0,.664-.055v1.711a4.648,4.648,0,0,1-1.367.2,2.156,2.156,0,0,1-2.422-2.4V8.2h-1.234V6.547h1.234V4.469ZM110.6,10.7a5.013,5.013,0,0,1,.484-2.242A3.546,3.546,0,0,1,112.48,6.93a4.069,4.069,0,0,1,2.113-.539,3.849,3.849,0,0,1,2.793,1.047,4.2,4.2,0,0,1,1.207,2.844l.016.578a4.418,4.418,0,0,1-1.086,3.121,4.209,4.209,0,0,1-5.832,0A4.5,4.5,0,0,1,110.6,10.8Zm2.258.16a3.16,3.16,0,0,0,.453,1.843,1.628,1.628,0,0,0,2.578.008,3.457,3.457,0,0,0,.461-2.015,3.128,3.128,0,0,0-.461-1.831,1.5,1.5,0,0,0-1.3-.649,1.474,1.474,0,0,0-1.281.646A3.516,3.516,0,0,0,112.859,10.856ZM14.352,34.711a5.094,5.094,0,0,1,.887-3.148,2.877,2.877,0,0,1,2.426-1.172,2.589,2.589,0,0,1,2.039.922V27h2.266V39H19.93l-.109-.9a2.657,2.657,0,0,1-2.172,1.055,2.869,2.869,0,0,1-2.395-1.176A5.258,5.258,0,0,1,14.352,34.711Zm2.258.168a3.337,3.337,0,0,0,.414,1.823,1.349,1.349,0,0,0,1.2.634,1.511,1.511,0,0,0,1.477-.884V33.111a1.489,1.489,0,0,0-1.461-.884Q16.609,32.227,16.609,34.879Zm11,4.277a4.15,4.15,0,0,1-3.027-1.141,4.054,4.054,0,0,1-1.168-3.039v-.219a5.106,5.106,0,0,1,.492-2.277A3.612,3.612,0,0,1,25.3,30.934a3.914,3.914,0,0,1,2.059-.543,3.508,3.508,0,0,1,2.73,1.094,4.444,4.444,0,0,1,1,3.1v.922H25.7a2.1,2.1,0,0,0,.66,1.328,2,2,0,0,0,1.395.5,2.437,2.437,0,0,0,2.039-.945l1.109,1.242a3.389,3.389,0,0,1-1.375,1.121A4.511,4.511,0,0,1,27.609,39.156Zm-.258-6.945a1.411,1.411,0,0,0-1.09.455,2.357,2.357,0,0,0-.535,1.3h3.141v-.181a1.681,1.681,0,0,0-.406-1.165A1.456,1.456,0,0,0,27.352,32.211ZM34.75,39H32.484V27H34.75ZM48.2,34.852a5.07,5.07,0,0,1-.887,3.129,2.843,2.843,0,0,1-2.395,1.176,2.633,2.633,0,0,1-2.07-.891V42.25H40.594v-11.7h2.094l.078.828a2.654,2.654,0,0,1,2.141-.984,2.862,2.862,0,0,1,2.43,1.156,5.207,5.207,0,0,1,.867,3.188Zm-2.258-.164a3.327,3.327,0,0,0-.418-1.82,1.361,1.361,0,0,0-1.215-.641,1.478,1.478,0,0,0-1.461.813V36.5a1.5,1.5,0,0,0,1.477.836Q45.945,37.336,45.945,34.688Zm8.406-2.023a6.134,6.134,0,0,0-.812-.062,1.654,1.654,0,0,0-1.68.867V39H49.6V30.547h2.133l.063,1.008a2.092,2.092,0,0,1,1.883-1.164,2.366,2.366,0,0,1,.7.1ZM54.8,34.7a5.013,5.013,0,0,1,.484-2.242,3.546,3.546,0,0,1,1.395-1.523,4.069,4.069,0,0,1,2.113-.539,3.849,3.849,0,0,1,2.793,1.047A4.2,4.2,0,0,1,62.8,34.281l.016.578a4.418,4.418,0,0,1-1.086,3.121,4.209,4.209,0,0,1-5.832,0A4.5,4.5,0,0,1,54.8,34.8Zm2.258.16a3.16,3.16,0,0,0,.453,1.843,1.628,1.628,0,0,0,2.578.008,3.457,3.457,0,0,0,.461-2.015,3.128,3.128,0,0,0-.461-1.831,1.5,1.5,0,0,0-1.3-.649,1.474,1.474,0,0,0-1.281.646A3.516,3.516,0,0,0,57.063,34.856Zm14.758,0a5.119,5.119,0,0,1-.867,3.168,2.872,2.872,0,0,1-2.422,1.137,2.639,2.639,0,0,1-2.2-1.055l-.1.9H64.2V27h2.258v4.3a2.571,2.571,0,0,1,2.055-.914,2.9,2.9,0,0,1,2.426,1.137,5.126,5.126,0,0,1,.879,3.2Zm-2.258-.164a3.363,3.363,0,0,0-.406-1.871,1.374,1.374,0,0,0-1.211-.59,1.489,1.489,0,0,0-1.484.883v3.336a1.509,1.509,0,0,0,1.5.891A1.394,1.394,0,0,0,69.4,36.258,5.562,5.562,0,0,0,69.563,34.688ZM75.594,39H73.328V27h2.266Zm5.75.156a4.15,4.15,0,0,1-3.027-1.141,4.054,4.054,0,0,1-1.168-3.039v-.219a5.106,5.106,0,0,1,.492-2.277,3.612,3.612,0,0,1,1.395-1.547,3.914,3.914,0,0,1,2.059-.543,3.508,3.508,0,0,1,2.73,1.094,4.444,4.444,0,0,1,1,3.1v.922H79.438a2.1,2.1,0,0,0,.66,1.328,2,2,0,0,0,1.395.5,2.437,2.437,0,0,0,2.039-.945l1.109,1.242a3.389,3.389,0,0,1-1.375,1.121A4.511,4.511,0,0,1,81.344,39.156Zm-.258-6.945a1.411,1.411,0,0,0-1.09.455,2.357,2.357,0,0,0-.535,1.3H82.6v-.181a1.681,1.681,0,0,0-.406-1.165A1.456,1.456,0,0,0,81.086,32.211Zm7.133-1.664.07.945a2.971,2.971,0,0,1,2.43-1.1,2.255,2.255,0,0,1,2.242,1.289A2.9,2.9,0,0,1,95.5,30.391a2.521,2.521,0,0,1,2.047.8,3.681,3.681,0,0,1,.672,2.41V39H95.953V33.609a1.61,1.61,0,0,0-.281-1.051,1.246,1.246,0,0,0-.992-.332,1.409,1.409,0,0,0-1.406.969l.008,5.8H91.023V33.617a1.59,1.59,0,0,0-.289-1.062,1.259,1.259,0,0,0-.984-.328,1.463,1.463,0,0,0-1.391.8V39H86.1V30.547ZM104.852,39a2.507,2.507,0,0,1-.227-.758,2.732,2.732,0,0,1-2.133.914,3,3,0,0,1-2.059-.719,2.312,2.312,0,0,1-.816-1.812,2.389,2.389,0,0,1,1-2.062,4.915,4.915,0,0,1,2.879-.727h1.039v-.484a1.393,1.393,0,0,0-.3-.937,1.183,1.183,0,0,0-.949-.352,1.345,1.345,0,0,0-.895.273.929.929,0,0,0-.324.75H99.8a2.268,2.268,0,0,1,.453-1.359,3,3,0,0,1,1.281-.98,4.669,4.669,0,0,1,1.859-.355,3.689,3.689,0,0,1,2.48.785,2.747,2.747,0,0,1,.918,2.207v3.664a4.041,4.041,0,0,0,.336,1.82V39Zm-1.867-1.57a1.945,1.945,0,0,0,.922-.223,1.462,1.462,0,0,0,.625-.6V35.156h-.844q-1.7,0-1.8,1.172l-.008.133a.9.9,0,0,0,.3.7A1.153,1.153,0,0,0,102.984,37.43Z" transform="translate(11987.684 -8652.961)" fill="#12263f"/>
    <rect id="Rectángulo_378819" data-name="Rectángulo 378819" width="173" height="155" rx="30" transform="translate(12174.934 -8704.961)" fill="#fffac1"/>
    <path id="Trazado_616008" data-name="Trazado 616008" d="M14.129,15V3.625h3.984a5.232,5.232,0,0,1,3.141.793,2.712,2.712,0,0,1,1.07,2.324,2.57,2.57,0,0,1-.43,1.473,2.482,2.482,0,0,1-1.2.934,2.4,2.4,0,0,1,1.379.883,2.61,2.61,0,0,1,.5,1.625,3,3,0,0,1-1.047,2.484A4.713,4.713,0,0,1,18.551,15Zm2.344-4.953v3.07H18.48a1.938,1.938,0,0,0,1.293-.395,1.353,1.353,0,0,0,.465-1.09,1.428,1.428,0,0,0-1.617-1.586Zm0-1.656h1.734q1.773-.031,1.773-1.414a1.307,1.307,0,0,0-.449-1.113,2.363,2.363,0,0,0-1.418-.34H16.473Zm12.781,5.75a2.831,2.831,0,0,1-2.312,1.016,2.67,2.67,0,0,1-2.074-.781,3.335,3.335,0,0,1-.73-2.289V6.547h2.258v5.467q0,1.322,1.2,1.322a1.63,1.63,0,0,0,1.578-.8V6.547h2.266V15H29.316ZM28.246,3h2.461L28.543,5.422H26.707Zm9.477,9.664a.727.727,0,0,0-.41-.652A4.659,4.659,0,0,0,36,11.586q-3.016-.633-3.016-2.562a2.323,2.323,0,0,1,.934-1.879,3.766,3.766,0,0,1,2.441-.754,4.053,4.053,0,0,1,2.574.758,2.388,2.388,0,0,1,.965,1.969H37.637a1.092,1.092,0,0,0-.312-.8A1.322,1.322,0,0,0,36.348,8a1.351,1.351,0,0,0-.883.258.814.814,0,0,0-.312.656.7.7,0,0,0,.355.605,3.657,3.657,0,0,0,1.2.4,9.8,9.8,0,0,1,1.422.379,2.336,2.336,0,0,1,1.789,2.273,2.2,2.2,0,0,1-.992,1.871,4.28,4.28,0,0,1-2.562.715,4.47,4.47,0,0,1-1.887-.379,3.166,3.166,0,0,1-1.293-1.039,2.414,2.414,0,0,1-.469-1.426h2.141a1.179,1.179,0,0,0,.445.922,1.766,1.766,0,0,0,1.109.32,1.635,1.635,0,0,0,.98-.246A.766.766,0,0,0,37.723,12.664Zm3.3-1.969a5.053,5.053,0,0,1,.887-3.148A2.9,2.9,0,0,1,44.34,6.391,2.6,2.6,0,0,1,46.5,7.43l.148-.883h1.984v11.7H46.371V14.273a2.6,2.6,0,0,1-2.047.883,2.878,2.878,0,0,1-2.406-1.172A5.3,5.3,0,0,1,41.02,10.7Zm2.258.16A3.314,3.314,0,0,0,43.7,12.7a1.363,1.363,0,0,0,1.2.634,1.518,1.518,0,0,0,1.469-.829v-3.5a1.506,1.506,0,0,0-1.453-.8,1.38,1.38,0,0,0-1.211.634A3.661,3.661,0,0,0,43.277,10.856Zm12.2,3.285a2.831,2.831,0,0,1-2.312,1.016,2.67,2.67,0,0,1-2.074-.781,3.335,3.335,0,0,1-.73-2.289V6.547h2.258v5.467q0,1.322,1.2,1.322a1.63,1.63,0,0,0,1.578-.8V6.547H57.66V15H55.535Zm7.781,1.016a4.15,4.15,0,0,1-3.027-1.141,4.054,4.054,0,0,1-1.168-3.039v-.219a5.106,5.106,0,0,1,.492-2.277,3.612,3.612,0,0,1,1.395-1.547A3.914,3.914,0,0,1,63,6.391a3.508,3.508,0,0,1,2.73,1.094,4.444,4.444,0,0,1,1,3.1v.922H61.348a2.1,2.1,0,0,0,.66,1.328,2,2,0,0,0,1.395.5,2.437,2.437,0,0,0,2.039-.945l1.109,1.242a3.389,3.389,0,0,1-1.375,1.121A4.511,4.511,0,0,1,63.254,15.156ZM63,8.211a1.411,1.411,0,0,0-1.09.455,2.357,2.357,0,0,0-.535,1.3h3.141V9.788a1.681,1.681,0,0,0-.406-1.165A1.456,1.456,0,0,0,63,8.211Zm4.664,2.5a5.094,5.094,0,0,1,.887-3.148,2.877,2.877,0,0,1,2.426-1.172,2.589,2.589,0,0,1,2.039.922V3h2.266V15H73.238l-.109-.9a2.657,2.657,0,0,1-2.172,1.055,2.869,2.869,0,0,1-2.395-1.176A5.258,5.258,0,0,1,67.66,10.711Zm2.258.168a3.337,3.337,0,0,0,.414,1.823,1.349,1.349,0,0,0,1.2.634,1.511,1.511,0,0,0,1.477-.884V9.111a1.489,1.489,0,0,0-1.461-.884Q69.918,8.227,69.918,10.879ZM81.926,15a2.507,2.507,0,0,1-.227-.758,2.732,2.732,0,0,1-2.133.914,3,3,0,0,1-2.059-.719,2.312,2.312,0,0,1-.816-1.812,2.389,2.389,0,0,1,1-2.062,4.915,4.915,0,0,1,2.879-.727h1.039V9.352a1.393,1.393,0,0,0-.3-.937,1.183,1.183,0,0,0-.949-.352,1.345,1.345,0,0,0-.895.273.929.929,0,0,0-.324.75H76.879a2.268,2.268,0,0,1,.453-1.359,3,3,0,0,1,1.281-.98,4.669,4.669,0,0,1,1.859-.355,3.689,3.689,0,0,1,2.48.785,2.747,2.747,0,0,1,.918,2.207v3.664a4.041,4.041,0,0,0,.336,1.82V15Zm-1.867-1.57a1.945,1.945,0,0,0,.922-.223,1.462,1.462,0,0,0,.625-.6V11.156h-.844q-1.7,0-1.8,1.172l-.008.133a.9.9,0,0,0,.3.7A1.153,1.153,0,0,0,80.059,13.43Zm9.18-2.719a5.094,5.094,0,0,1,.887-3.148,2.877,2.877,0,0,1,2.426-1.172,2.589,2.589,0,0,1,2.039.922V3h2.266V15H94.816l-.109-.9a2.657,2.657,0,0,1-2.172,1.055,2.869,2.869,0,0,1-2.395-1.176A5.258,5.258,0,0,1,89.238,10.711Zm2.258.168A3.337,3.337,0,0,0,91.91,12.7a1.349,1.349,0,0,0,1.2.634,1.511,1.511,0,0,0,1.477-.884V9.111a1.489,1.489,0,0,0-1.461-.884Q91.5,8.227,91.5,10.879Zm11,4.277a4.15,4.15,0,0,1-3.027-1.141A4.054,4.054,0,0,1,98.3,10.977v-.219a5.106,5.106,0,0,1,.492-2.277,3.612,3.612,0,0,1,1.395-1.547,3.914,3.914,0,0,1,2.059-.543,3.508,3.508,0,0,1,2.73,1.094,4.444,4.444,0,0,1,1,3.1v.922H100.59a2.1,2.1,0,0,0,.66,1.328,2,2,0,0,0,1.395.5,2.437,2.437,0,0,0,2.039-.945l1.109,1.242a3.389,3.389,0,0,1-1.375,1.121A4.511,4.511,0,0,1,102.5,15.156Zm-.258-6.945a1.411,1.411,0,0,0-1.09.455,2.357,2.357,0,0,0-.535,1.3h3.141V9.788a1.681,1.681,0,0,0-.406-1.165A1.456,1.456,0,0,0,102.238,8.211ZM19.578,39H17.313V30.547h2.266Zm-2.4-10.641a1.112,1.112,0,0,1,.34-.836,1.465,1.465,0,0,1,1.848,0,1.193,1.193,0,0,1,0,1.68,1.448,1.448,0,0,1-1.836,0A1.108,1.108,0,0,1,17.18,28.359Zm6.336,2.188.07.977a2.951,2.951,0,0,1,2.43-1.133,2.453,2.453,0,0,1,2,.789,3.682,3.682,0,0,1,.672,2.359V39H26.43V33.594a1.465,1.465,0,0,0-.312-1.043,1.4,1.4,0,0,0-1.039-.324,1.553,1.553,0,0,0-1.43.813V39H21.391V30.547ZM31.016,39V32.2H29.758V30.547h1.258v-.719a2.918,2.918,0,0,1,.816-2.207,3.162,3.162,0,0,1,2.285-.785,5.278,5.278,0,0,1,1.148.156l-.023,1.75a2.878,2.878,0,0,0-.687-.07q-1.273,0-1.273,1.2v.68h1.68V32.2h-1.68V39Zm4.766-4.3a5.013,5.013,0,0,1,.484-2.242A3.546,3.546,0,0,1,37.66,30.93a4.069,4.069,0,0,1,2.113-.539,3.849,3.849,0,0,1,2.793,1.047,4.2,4.2,0,0,1,1.207,2.844l.016.578A4.418,4.418,0,0,1,42.7,37.98a4.209,4.209,0,0,1-5.832,0,4.5,4.5,0,0,1-1.09-3.187Zm2.258.16a3.16,3.16,0,0,0,.453,1.843,1.628,1.628,0,0,0,2.578.008,3.457,3.457,0,0,0,.461-2.015,3.128,3.128,0,0,0-.461-1.831,1.5,1.5,0,0,0-1.3-.649,1.474,1.474,0,0,0-1.281.646A3.516,3.516,0,0,0,38.039,34.856ZM49.93,32.664a6.134,6.134,0,0,0-.812-.062,1.654,1.654,0,0,0-1.68.867V39H45.18V30.547h2.133l.063,1.008a2.092,2.092,0,0,1,1.883-1.164,2.366,2.366,0,0,1,.7.1Zm3.2-2.117.07.945a2.971,2.971,0,0,1,2.43-1.1,2.255,2.255,0,0,1,2.242,1.289,2.9,2.9,0,0,1,2.539-1.289,2.521,2.521,0,0,1,2.047.8,3.681,3.681,0,0,1,.672,2.41V39H60.867V33.609a1.61,1.61,0,0,0-.281-1.051,1.246,1.246,0,0,0-.992-.332,1.409,1.409,0,0,0-1.406.969L58.2,39H55.938V33.617a1.59,1.59,0,0,0-.289-1.062,1.259,1.259,0,0,0-.984-.328,1.463,1.463,0,0,0-1.391.8V39H51.016V30.547ZM69.766,39a2.507,2.507,0,0,1-.227-.758,2.732,2.732,0,0,1-2.133.914,3,3,0,0,1-2.059-.719,2.312,2.312,0,0,1-.816-1.812,2.389,2.389,0,0,1,1-2.062,4.915,4.915,0,0,1,2.879-.727h1.039v-.484a1.393,1.393,0,0,0-.3-.937,1.183,1.183,0,0,0-.949-.352,1.345,1.345,0,0,0-.895.273.929.929,0,0,0-.324.75H64.719a2.268,2.268,0,0,1,.453-1.359,3,3,0,0,1,1.281-.98,4.669,4.669,0,0,1,1.859-.355,3.689,3.689,0,0,1,2.48.785,2.747,2.747,0,0,1,.918,2.207v3.664a4.041,4.041,0,0,0,.336,1.82V39ZM67.9,37.43a1.945,1.945,0,0,0,.922-.223,1.462,1.462,0,0,0,.625-.6V35.156H68.6q-1.7,0-1.8,1.172l-.008.133a.9.9,0,0,0,.3.7A1.153,1.153,0,0,0,67.9,37.43Zm9.063-.094a1.481,1.481,0,0,0,1.016-.344,1.2,1.2,0,0,0,.406-.914H80.5a2.9,2.9,0,0,1-.469,1.574,3.093,3.093,0,0,1-1.262,1.109,3.949,3.949,0,0,1-1.77.395A3.67,3.67,0,0,1,74.141,38a4.56,4.56,0,0,1-1.047-3.184v-.148a4.508,4.508,0,0,1,1.039-3.117,3.627,3.627,0,0,1,2.852-1.164,3.555,3.555,0,0,1,2.543.9,3.2,3.2,0,0,1,.973,2.4H78.383a1.551,1.551,0,0,0-.406-1.072,1.51,1.51,0,0,0-2.223.163,3.333,3.333,0,0,0-.4,1.866v.235a3.375,3.375,0,0,0,.4,1.878A1.377,1.377,0,0,0,76.961,37.336ZM84.172,39H81.906V30.547h2.266Zm-2.4-10.641a1.112,1.112,0,0,1,.34-.836,1.465,1.465,0,0,1,1.848,0,1.193,1.193,0,0,1,0,1.68,1.448,1.448,0,0,1-1.836,0A1.108,1.108,0,0,1,81.773,28.359ZM85.68,34.7a5.013,5.013,0,0,1,.484-2.242,3.546,3.546,0,0,1,1.395-1.523,4.069,4.069,0,0,1,2.113-.539,3.849,3.849,0,0,1,2.793,1.047,4.2,4.2,0,0,1,1.207,2.844l.016.578A4.418,4.418,0,0,1,92.6,37.98a4.209,4.209,0,0,1-5.832,0A4.5,4.5,0,0,1,85.68,34.8Zm2.258.16a3.16,3.16,0,0,0,.453,1.843,1.628,1.628,0,0,0,2.578.008,3.457,3.457,0,0,0,.461-2.015,3.128,3.128,0,0,0-.461-1.831,1.5,1.5,0,0,0-1.3-.649,1.474,1.474,0,0,0-1.281.646A3.516,3.516,0,0,0,87.938,34.856ZM90.117,27h2.461l-2.164,2.422H88.578Zm7.039,3.547.07.977a2.951,2.951,0,0,1,2.43-1.133,2.453,2.453,0,0,1,2,.789,3.682,3.682,0,0,1,.672,2.359V39H100.07V33.594a1.465,1.465,0,0,0-.312-1.043,1.4,1.4,0,0,0-1.039-.324,1.553,1.553,0,0,0-1.43.813V39H95.031V30.547ZM6.645,63H4.379V54.547H6.645Zm-2.4-10.641a1.112,1.112,0,0,1,.34-.836,1.277,1.277,0,0,1,.926-.328,1.28,1.28,0,0,1,.922.328,1.193,1.193,0,0,1,0,1.68,1.283,1.283,0,0,1-.918.328,1.283,1.283,0,0,1-.918-.328A1.108,1.108,0,0,1,4.246,52.359Zm6.336,2.188.07.977a2.951,2.951,0,0,1,2.43-1.133,2.453,2.453,0,0,1,2,.789,3.682,3.682,0,0,1,.672,2.359V63H13.5V57.594a1.465,1.465,0,0,0-.312-1.043,1.4,1.4,0,0,0-1.039-.324,1.553,1.553,0,0,0-1.43.813V63H8.457V54.547Zm9.586-2.078v2.078h1.445V56.2H20.168v4.219a1.007,1.007,0,0,0,.18.672.9.9,0,0,0,.688.2,3.6,3.6,0,0,0,.664-.055v1.711a4.648,4.648,0,0,1-1.367.2,2.156,2.156,0,0,1-2.422-2.4V56.2H16.676V54.547H17.91V52.469Zm6.594,10.688a4.15,4.15,0,0,1-3.027-1.141,4.054,4.054,0,0,1-1.168-3.039v-.219a5.106,5.106,0,0,1,.492-2.277,3.612,3.612,0,0,1,1.395-1.547,3.914,3.914,0,0,1,2.059-.543,3.508,3.508,0,0,1,2.73,1.094,4.444,4.444,0,0,1,1,3.1v.922H24.855a2.1,2.1,0,0,0,.66,1.328,2,2,0,0,0,1.395.5,2.437,2.437,0,0,0,2.039-.945l1.109,1.242a3.389,3.389,0,0,1-1.375,1.121A4.511,4.511,0,0,1,26.762,63.156ZM26.5,56.211a1.411,1.411,0,0,0-1.09.455,2.357,2.357,0,0,0-.535,1.3H28.02v-.181a1.681,1.681,0,0,0-.406-1.165A1.456,1.456,0,0,0,26.5,56.211Zm9.766.453a6.134,6.134,0,0,0-.812-.062,1.654,1.654,0,0,0-1.68.867V63H31.52V54.547h2.133l.063,1.008A2.092,2.092,0,0,1,35.6,54.391a2.366,2.366,0,0,1,.7.1Zm3.164-2.117.07.977a2.951,2.951,0,0,1,2.43-1.133,2.453,2.453,0,0,1,2,.789,3.682,3.682,0,0,1,.672,2.359V63H42.348V57.594a1.465,1.465,0,0,0-.312-1.043A1.4,1.4,0,0,0,41,56.227a1.553,1.553,0,0,0-1.43.813V63H37.309V54.547ZM51.215,63a2.507,2.507,0,0,1-.227-.758,2.732,2.732,0,0,1-2.133.914,3,3,0,0,1-2.059-.719,2.312,2.312,0,0,1-.816-1.812,2.389,2.389,0,0,1,1-2.062,4.915,4.915,0,0,1,2.879-.727h1.039v-.484a1.393,1.393,0,0,0-.3-.937,1.183,1.183,0,0,0-.949-.352,1.345,1.345,0,0,0-.895.273.929.929,0,0,0-.324.75H46.168a2.268,2.268,0,0,1,.453-1.359,3,3,0,0,1,1.281-.98,4.669,4.669,0,0,1,1.859-.355,3.689,3.689,0,0,1,2.48.785,2.747,2.747,0,0,1,.918,2.207v3.664a4.041,4.041,0,0,0,.336,1.82V63Zm-1.867-1.57a1.945,1.945,0,0,0,.922-.223,1.462,1.462,0,0,0,.625-.6V59.156h-.844q-1.7,0-1.8,1.172l-.008.133a.9.9,0,0,0,.3.7A1.153,1.153,0,0,0,49.348,61.43ZM62.035,59.8,63.6,54.547H66.02l-3.4,9.766-.187.445a2.577,2.577,0,0,1-2.5,1.656,3.552,3.552,0,0,1-1-.148V64.555l.344.008a1.857,1.857,0,0,0,.957-.2,1.283,1.283,0,0,0,.5-.648l.266-.7-2.961-8.477h2.43Zm12.75,3.352a4.15,4.15,0,0,1-3.027-1.141,4.054,4.054,0,0,1-1.168-3.039v-.219a5.106,5.106,0,0,1,.492-2.277,3.612,3.612,0,0,1,1.395-1.547,3.914,3.914,0,0,1,2.059-.543,3.508,3.508,0,0,1,2.73,1.094,4.444,4.444,0,0,1,1,3.1v.922H72.879a2.1,2.1,0,0,0,.66,1.328,2,2,0,0,0,1.395.5,2.437,2.437,0,0,0,2.039-.945l1.109,1.242a3.389,3.389,0,0,1-1.375,1.121A4.511,4.511,0,0,1,74.785,63.156Zm-.258-6.945a1.411,1.411,0,0,0-1.09.455,2.357,2.357,0,0,0-.535,1.3h3.141v-.181a1.681,1.681,0,0,0-.406-1.165A1.456,1.456,0,0,0,74.527,56.211Zm7.719-3.742v2.078h1.445V56.2H82.246v4.219a1.007,1.007,0,0,0,.18.672.9.9,0,0,0,.688.2,3.6,3.6,0,0,0,.664-.055v1.711a4.648,4.648,0,0,1-1.367.2,2.156,2.156,0,0,1-2.422-2.4V56.2H78.754V54.547h1.234V52.469ZM88.84,63.156a4.15,4.15,0,0,1-3.027-1.141,4.054,4.054,0,0,1-1.168-3.039v-.219a5.106,5.106,0,0,1,.492-2.277,3.612,3.612,0,0,1,1.395-1.547,3.914,3.914,0,0,1,2.059-.543,3.508,3.508,0,0,1,2.73,1.094,4.444,4.444,0,0,1,1,3.1v.922H86.934a2.1,2.1,0,0,0,.66,1.328,2,2,0,0,0,1.395.5,2.437,2.437,0,0,0,2.039-.945l1.109,1.242a3.389,3.389,0,0,1-1.375,1.121A4.511,4.511,0,0,1,88.84,63.156Zm-.258-6.945a1.411,1.411,0,0,0-1.09.455,2.357,2.357,0,0,0-.535,1.3H90.1v-.181a1.681,1.681,0,0,0-.406-1.165A1.456,1.456,0,0,0,88.582,56.211Zm9.766.453a6.134,6.134,0,0,0-.812-.062,1.654,1.654,0,0,0-1.68.867V63H93.6V54.547H95.73l.063,1.008a2.092,2.092,0,0,1,1.883-1.164,2.366,2.366,0,0,1,.7.1Zm3.164-2.117.07.977a2.951,2.951,0,0,1,2.43-1.133,2.453,2.453,0,0,1,2,.789,3.682,3.682,0,0,1,.672,2.359V63h-2.258V57.594a1.465,1.465,0,0,0-.312-1.043,1.4,1.4,0,0,0-1.039-.324,1.553,1.553,0,0,0-1.43.813V63H99.387V54.547ZM113.293,63a2.507,2.507,0,0,1-.227-.758,2.732,2.732,0,0,1-2.133.914,3,3,0,0,1-2.059-.719,2.312,2.312,0,0,1-.816-1.812,2.389,2.389,0,0,1,1-2.062,4.915,4.915,0,0,1,2.879-.727h1.039v-.484a1.393,1.393,0,0,0-.3-.937,1.183,1.183,0,0,0-.949-.352,1.345,1.345,0,0,0-.895.273.929.929,0,0,0-.324.75h-2.258a2.268,2.268,0,0,1,.453-1.359,3,3,0,0,1,1.281-.98,4.669,4.669,0,0,1,1.859-.355,3.689,3.689,0,0,1,2.48.785,2.747,2.747,0,0,1,.918,2.207v3.664a4.041,4.041,0,0,0,.336,1.82V63Zm-1.867-1.57a1.945,1.945,0,0,0,.922-.223,1.462,1.462,0,0,0,.625-.6V59.156h-.844q-1.7,0-1.8,1.172l-.008.133a.9.9,0,0,0,.3.7A1.153,1.153,0,0,0,111.426,61.43ZM33.922,87H31.656V75h2.266Zm4.242,0H35.9V78.547h2.266Zm-2.4-10.641a1.112,1.112,0,0,1,.34-.836,1.465,1.465,0,0,1,1.848,0,1.193,1.193,0,0,1,0,1.68,1.448,1.448,0,0,1-1.836,0A1.108,1.108,0,0,1,35.766,76.359Zm6.375,2.188.07.945a2.971,2.971,0,0,1,2.43-1.1,2.255,2.255,0,0,1,2.242,1.289,2.9,2.9,0,0,1,2.539-1.289,2.521,2.521,0,0,1,2.047.8,3.681,3.681,0,0,1,.672,2.41V87H49.875V81.609a1.61,1.61,0,0,0-.281-1.051,1.246,1.246,0,0,0-.992-.332A1.409,1.409,0,0,0,47.2,81.2L47.2,87H44.945V81.617a1.59,1.59,0,0,0-.289-1.062,1.259,1.259,0,0,0-.984-.328,1.463,1.463,0,0,0-1.391.8V87H40.023V78.547ZM56.258,87H53.992V78.547h2.266Zm-2.4-10.641a1.112,1.112,0,0,1,.34-.836,1.465,1.465,0,0,1,1.848,0,1.193,1.193,0,0,1,0,1.68,1.448,1.448,0,0,1-1.836,0A1.108,1.108,0,0,1,53.859,76.359Zm6.961.109v2.078h1.445V80.2H60.82v4.219a1.007,1.007,0,0,0,.18.672.9.9,0,0,0,.688.2,3.6,3.6,0,0,0,.664-.055v1.711a4.648,4.648,0,0,1-1.367.2,2.156,2.156,0,0,1-2.422-2.4V80.2H57.328V78.547h1.234V76.469ZM68.422,87a2.507,2.507,0,0,1-.227-.758,2.732,2.732,0,0,1-2.133.914A3,3,0,0,1,64,86.438a2.312,2.312,0,0,1-.816-1.812,2.389,2.389,0,0,1,1-2.062,4.915,4.915,0,0,1,2.879-.727H68.1v-.484a1.393,1.393,0,0,0-.3-.937,1.183,1.183,0,0,0-.949-.352,1.345,1.345,0,0,0-.895.273.929.929,0,0,0-.324.75H63.375a2.268,2.268,0,0,1,.453-1.359,3,3,0,0,1,1.281-.98,4.669,4.669,0,0,1,1.859-.355,3.689,3.689,0,0,1,2.48.785,2.747,2.747,0,0,1,.918,2.207v3.664a4.041,4.041,0,0,0,.336,1.82V87Zm-1.867-1.57a1.945,1.945,0,0,0,.922-.223,1.462,1.462,0,0,0,.625-.6V83.156h-.844q-1.7,0-1.8,1.172l-.008.133a.9.9,0,0,0,.3.7A1.153,1.153,0,0,0,66.555,85.43Zm5.2-2.719a5.094,5.094,0,0,1,.887-3.148,2.877,2.877,0,0,1,2.426-1.172,2.589,2.589,0,0,1,2.039.922V75h2.266V87H77.328l-.109-.9a2.657,2.657,0,0,1-2.172,1.055,2.869,2.869,0,0,1-2.395-1.176A5.258,5.258,0,0,1,71.75,82.711Zm2.258.168a3.337,3.337,0,0,0,.414,1.823,1.349,1.349,0,0,0,1.2.634,1.511,1.511,0,0,0,1.477-.884V81.111a1.489,1.489,0,0,0-1.461-.884Q74.008,80.227,74.008,82.879ZM86.016,87a2.507,2.507,0,0,1-.227-.758,2.732,2.732,0,0,1-2.133.914,3,3,0,0,1-2.059-.719,2.312,2.312,0,0,1-.816-1.812,2.389,2.389,0,0,1,1-2.062,4.915,4.915,0,0,1,2.879-.727H85.7v-.484a1.393,1.393,0,0,0-.3-.937,1.183,1.183,0,0,0-.949-.352,1.345,1.345,0,0,0-.895.273.929.929,0,0,0-.324.75H80.969a2.268,2.268,0,0,1,.453-1.359,3,3,0,0,1,1.281-.98,4.669,4.669,0,0,1,1.859-.355,3.689,3.689,0,0,1,2.48.785,2.747,2.747,0,0,1,.918,2.207v3.664a4.041,4.041,0,0,0,.336,1.82V87Zm-1.867-1.57a1.945,1.945,0,0,0,.922-.223,1.462,1.462,0,0,0,.625-.6V83.156h-.844q-1.7,0-1.8,1.172l-.008.133a.9.9,0,0,0,.3.7A1.153,1.153,0,0,0,84.148,85.43Z" transform="translate(12201.934 -8673.961)" fill="#12263f"/>
    <rect id="Rectángulo_378820" data-name="Rectángulo 378820" width="173" height="155" rx="30" transform="translate(12174.934 -8359.961)" fill="#fffac1"/>
    <path id="Trazado_616009" data-name="Trazado 616009" d="M28.754,10.07h-4.5v3.047h5.281V15H21.91V3.625H29.52v1.9H24.254V8.234h4.5Zm4.969,2.172,1.57-5.7h2.359L34.8,15H32.645L29.793,6.547h2.359ZM43.426,15a2.507,2.507,0,0,1-.227-.758,2.732,2.732,0,0,1-2.133.914,3,3,0,0,1-2.059-.719,2.312,2.312,0,0,1-.816-1.812,2.389,2.389,0,0,1,1-2.062,4.915,4.915,0,0,1,2.879-.727h1.039V9.352a1.393,1.393,0,0,0-.3-.937,1.183,1.183,0,0,0-.949-.352,1.345,1.345,0,0,0-.895.273.929.929,0,0,0-.324.75H38.379a2.268,2.268,0,0,1,.453-1.359,3,3,0,0,1,1.281-.98,4.669,4.669,0,0,1,1.859-.355,3.689,3.689,0,0,1,2.48.785,2.747,2.747,0,0,1,.918,2.207v3.664a4.041,4.041,0,0,0,.336,1.82V15Zm-1.867-1.57a1.945,1.945,0,0,0,.922-.223,1.462,1.462,0,0,0,.625-.6V11.156h-.844q-1.7,0-1.8,1.172l-.008.133a.9.9,0,0,0,.3.7A1.153,1.153,0,0,0,41.559,13.43ZM49.488,15H47.223V3h2.266Zm6.922-.859A2.831,2.831,0,0,1,54.1,15.156a2.67,2.67,0,0,1-2.074-.781,3.335,3.335,0,0,1-.73-2.289V6.547h2.258v5.467q0,1.322,1.2,1.322a1.63,1.63,0,0,0,1.578-.8V6.547H58.6V15H56.473ZM65.2,15a2.507,2.507,0,0,1-.227-.758,2.732,2.732,0,0,1-2.133.914,3,3,0,0,1-2.059-.719,2.312,2.312,0,0,1-.816-1.812,2.389,2.389,0,0,1,1-2.062,4.915,4.915,0,0,1,2.879-.727h1.039V9.352a1.393,1.393,0,0,0-.3-.937,1.183,1.183,0,0,0-.949-.352,1.345,1.345,0,0,0-.895.273.929.929,0,0,0-.324.75H60.152a2.268,2.268,0,0,1,.453-1.359,3,3,0,0,1,1.281-.98,4.669,4.669,0,0,1,1.859-.355,3.689,3.689,0,0,1,2.48.785,2.747,2.747,0,0,1,.918,2.207v3.664a4.041,4.041,0,0,0,.336,1.82V15Zm-1.867-1.57a1.945,1.945,0,0,0,.922-.223,1.462,1.462,0,0,0,.625-.6V11.156h-.844q-1.7,0-1.8,1.172l-.008.133a.9.9,0,0,0,.3.7A1.153,1.153,0,0,0,63.332,13.43Zm9.063-.094a1.481,1.481,0,0,0,1.016-.344,1.2,1.2,0,0,0,.406-.914h2.117a2.9,2.9,0,0,1-.469,1.574A3.093,3.093,0,0,1,74.2,14.762a3.949,3.949,0,0,1-1.77.395A3.67,3.67,0,0,1,69.574,14a4.56,4.56,0,0,1-1.047-3.184v-.148a4.508,4.508,0,0,1,1.039-3.117,3.627,3.627,0,0,1,2.852-1.164,3.555,3.555,0,0,1,2.543.9,3.2,3.2,0,0,1,.973,2.4H73.816a1.551,1.551,0,0,0-.406-1.072,1.51,1.51,0,0,0-2.223.163,3.333,3.333,0,0,0-.4,1.866v.235a3.375,3.375,0,0,0,.4,1.878A1.377,1.377,0,0,0,72.395,13.336ZM79.605,15H77.34V6.547h2.266Zm-2.4-10.641a1.112,1.112,0,0,1,.34-.836,1.465,1.465,0,0,1,1.848,0,1.105,1.105,0,0,1,.344.836,1.108,1.108,0,0,1-.348.844,1.448,1.448,0,0,1-1.836,0A1.108,1.108,0,0,1,77.207,4.359ZM81.113,10.7A5.013,5.013,0,0,1,81.6,8.453,3.546,3.546,0,0,1,82.992,6.93a4.069,4.069,0,0,1,2.113-.539A3.849,3.849,0,0,1,87.9,7.438a4.2,4.2,0,0,1,1.207,2.844l.016.578a4.418,4.418,0,0,1-1.086,3.121,4.209,4.209,0,0,1-5.832,0,4.5,4.5,0,0,1-1.09-3.187Zm2.258.16a3.16,3.16,0,0,0,.453,1.843,1.628,1.628,0,0,0,2.578.008,3.457,3.457,0,0,0,.461-2.015A3.128,3.128,0,0,0,86.4,8.86a1.5,1.5,0,0,0-1.3-.649,1.474,1.474,0,0,0-1.281.646A3.516,3.516,0,0,0,83.371,10.856ZM85.551,3h2.461L85.848,5.422H84.012ZM92.59,6.547l.07.977a2.951,2.951,0,0,1,2.43-1.133,2.453,2.453,0,0,1,2,.789,3.682,3.682,0,0,1,.672,2.359V15H95.5V9.594a1.465,1.465,0,0,0-.312-1.043,1.4,1.4,0,0,0-1.039-.324,1.553,1.553,0,0,0-1.43.813V15H90.465V6.547Z" transform="translate(12201.934 -8293.961)" fill="#12263f"/>
    <rect id="Rectángulo_378821" data-name="Rectángulo 378821" width="173" height="155" rx="30" transform="translate(11961.934 -8359.961)" fill="#fffac1"/>
    <path id="Trazado_616010" data-name="Trazado 616010" d="M18.531,10.352h-4.5V15H11.688V3.625h7.406v1.9H14.031V8.461h4.5Zm1.258.344a5.013,5.013,0,0,1,.484-2.242A3.546,3.546,0,0,1,21.668,6.93a4.069,4.069,0,0,1,2.113-.539,3.849,3.849,0,0,1,2.793,1.047,4.2,4.2,0,0,1,1.207,2.844l.016.578a4.418,4.418,0,0,1-1.086,3.121A3.775,3.775,0,0,1,23.8,15.156a3.793,3.793,0,0,1-2.918-1.172,4.5,4.5,0,0,1-1.09-3.187Zm2.258.16A3.16,3.16,0,0,0,22.5,12.7a1.628,1.628,0,0,0,2.578.008,3.457,3.457,0,0,0,.461-2.015,3.128,3.128,0,0,0-.461-1.831,1.5,1.5,0,0,0-1.3-.649,1.474,1.474,0,0,0-1.281.646A3.516,3.516,0,0,0,22.047,10.856ZM33.938,8.664a6.134,6.134,0,0,0-.812-.062,1.654,1.654,0,0,0-1.68.867V15H29.188V6.547H31.32l.063,1.008a2.092,2.092,0,0,1,1.883-1.164,2.366,2.366,0,0,1,.7.1Zm3.2-2.117.07.945a2.971,2.971,0,0,1,2.43-1.1A2.255,2.255,0,0,1,41.883,7.68a2.9,2.9,0,0,1,2.539-1.289,2.521,2.521,0,0,1,2.047.8,3.681,3.681,0,0,1,.672,2.41V15H44.875V9.609a1.61,1.61,0,0,0-.281-1.051,1.246,1.246,0,0,0-.992-.332A1.409,1.409,0,0,0,42.2,9.2L42.2,15H39.945V9.617a1.59,1.59,0,0,0-.289-1.062,1.259,1.259,0,0,0-.984-.328,1.463,1.463,0,0,0-1.391.8V15H35.023V6.547ZM53.773,15a2.507,2.507,0,0,1-.227-.758,2.732,2.732,0,0,1-2.133.914,3,3,0,0,1-2.059-.719,2.312,2.312,0,0,1-.816-1.812,2.389,2.389,0,0,1,1-2.062,4.915,4.915,0,0,1,2.879-.727h1.039V9.352a1.393,1.393,0,0,0-.3-.937,1.183,1.183,0,0,0-.949-.352,1.345,1.345,0,0,0-.895.273.929.929,0,0,0-.324.75H48.727a2.268,2.268,0,0,1,.453-1.359,3,3,0,0,1,1.281-.98,4.669,4.669,0,0,1,1.859-.355,3.689,3.689,0,0,1,2.48.785,2.747,2.747,0,0,1,.918,2.207v3.664a4.041,4.041,0,0,0,.336,1.82V15Zm-1.867-1.57a1.945,1.945,0,0,0,.922-.223,1.462,1.462,0,0,0,.625-.6V11.156h-.844q-1.7,0-1.8,1.172l-.008.133a.9.9,0,0,0,.3.7A1.153,1.153,0,0,0,51.906,13.43Zm9.063-.094a1.481,1.481,0,0,0,1.016-.344,1.2,1.2,0,0,0,.406-.914h2.117a2.9,2.9,0,0,1-.469,1.574,3.093,3.093,0,0,1-1.262,1.109,3.949,3.949,0,0,1-1.77.395A3.67,3.67,0,0,1,58.148,14,4.56,4.56,0,0,1,57.1,10.82v-.148a4.508,4.508,0,0,1,1.039-3.117,3.627,3.627,0,0,1,2.852-1.164,3.555,3.555,0,0,1,2.543.9,3.2,3.2,0,0,1,.973,2.4H62.391a1.551,1.551,0,0,0-.406-1.072,1.51,1.51,0,0,0-2.223.163,3.333,3.333,0,0,0-.4,1.866v.235a3.375,3.375,0,0,0,.4,1.878A1.377,1.377,0,0,0,60.969,13.336ZM68.18,15H65.914V6.547H68.18Zm-2.4-10.641a1.112,1.112,0,0,1,.34-.836,1.465,1.465,0,0,1,1.848,0,1.105,1.105,0,0,1,.344.836,1.108,1.108,0,0,1-.348.844,1.448,1.448,0,0,1-1.836,0A1.108,1.108,0,0,1,65.781,4.359ZM69.688,10.7a5.013,5.013,0,0,1,.484-2.242A3.546,3.546,0,0,1,71.566,6.93a4.069,4.069,0,0,1,2.113-.539,3.849,3.849,0,0,1,2.793,1.047,4.2,4.2,0,0,1,1.207,2.844l.016.578a4.418,4.418,0,0,1-1.086,3.121,4.209,4.209,0,0,1-5.832,0,4.5,4.5,0,0,1-1.09-3.187Zm2.258.16A3.16,3.16,0,0,0,72.4,12.7a1.628,1.628,0,0,0,2.578.008,3.457,3.457,0,0,0,.461-2.015,3.128,3.128,0,0,0-.461-1.831,1.5,1.5,0,0,0-1.3-.649,1.474,1.474,0,0,0-1.281.646A3.516,3.516,0,0,0,71.945,10.856ZM74.125,3h2.461L74.422,5.422H72.586Zm7.039,3.547.07.977a2.951,2.951,0,0,1,2.43-1.133,2.453,2.453,0,0,1,2,.789,3.682,3.682,0,0,1,.672,2.359V15H84.078V9.594a1.465,1.465,0,0,0-.312-1.043,1.4,1.4,0,0,0-1.039-.324,1.553,1.553,0,0,0-1.43.813V15H79.039V6.547ZM91.68,10.711a5.094,5.094,0,0,1,.887-3.148,2.877,2.877,0,0,1,2.426-1.172,2.589,2.589,0,0,1,2.039.922V3H99.3V15H97.258l-.109-.9a2.657,2.657,0,0,1-2.172,1.055,2.869,2.869,0,0,1-2.395-1.176A5.258,5.258,0,0,1,91.68,10.711Zm2.258.168a3.337,3.337,0,0,0,.414,1.823,1.349,1.349,0,0,0,1.2.634,1.511,1.511,0,0,0,1.477-.884V9.111a1.489,1.489,0,0,0-1.461-.884Q93.938,8.227,93.938,10.879Zm11,4.277a4.15,4.15,0,0,1-3.027-1.141,4.054,4.054,0,0,1-1.168-3.039v-.219a5.106,5.106,0,0,1,.492-2.277,3.612,3.612,0,0,1,1.395-1.547,3.914,3.914,0,0,1,2.059-.543,3.508,3.508,0,0,1,2.73,1.094,4.444,4.444,0,0,1,1,3.1v.922h-5.383a2.1,2.1,0,0,0,.66,1.328,2,2,0,0,0,1.395.5,2.437,2.437,0,0,0,2.039-.945l1.109,1.242a3.389,3.389,0,0,1-1.375,1.121A4.511,4.511,0,0,1,104.938,15.156Zm-.258-6.945a1.411,1.411,0,0,0-1.09.455,2.357,2.357,0,0,0-.535,1.3H106.2V9.788a1.681,1.681,0,0,0-.406-1.165A1.456,1.456,0,0,0,104.68,8.211ZM32.105,39a2.507,2.507,0,0,1-.227-.758,2.732,2.732,0,0,1-2.133.914,3,3,0,0,1-2.059-.719,2.312,2.312,0,0,1-.816-1.812,2.389,2.389,0,0,1,1-2.062,4.915,4.915,0,0,1,2.879-.727h1.039v-.484a1.393,1.393,0,0,0-.3-.937,1.183,1.183,0,0,0-.949-.352,1.345,1.345,0,0,0-.895.273.929.929,0,0,0-.324.75H27.059a2.268,2.268,0,0,1,.453-1.359,3,3,0,0,1,1.281-.98,4.669,4.669,0,0,1,1.859-.355,3.689,3.689,0,0,1,2.48.785,2.747,2.747,0,0,1,.918,2.207v3.664a4.041,4.041,0,0,0,.336,1.82V39Zm-1.867-1.57a1.945,1.945,0,0,0,.922-.223,1.462,1.462,0,0,0,.625-.6V35.156h-.844q-1.7,0-1.8,1.172l-.008.133a.9.9,0,0,0,.3.7A1.153,1.153,0,0,0,30.238,37.43Zm9.063-.094a1.481,1.481,0,0,0,1.016-.344,1.2,1.2,0,0,0,.406-.914H42.84a2.9,2.9,0,0,1-.469,1.574,3.093,3.093,0,0,1-1.262,1.109,3.949,3.949,0,0,1-1.77.395A3.67,3.67,0,0,1,36.48,38a4.56,4.56,0,0,1-1.047-3.184v-.148a4.508,4.508,0,0,1,1.039-3.117,3.627,3.627,0,0,1,2.852-1.164,3.555,3.555,0,0,1,2.543.9,3.2,3.2,0,0,1,.973,2.4H40.723a1.551,1.551,0,0,0-.406-1.072,1.51,1.51,0,0,0-2.223.163,3.333,3.333,0,0,0-.4,1.866v.235a3.375,3.375,0,0,0,.4,1.878A1.377,1.377,0,0,0,39.3,37.336Zm7.531-8.867v2.078h1.445V32.2H46.832v4.219a1.007,1.007,0,0,0,.18.672.9.9,0,0,0,.688.2,3.6,3.6,0,0,0,.664-.055v1.711a4.648,4.648,0,0,1-1.367.2,2.156,2.156,0,0,1-2.422-2.4V32.2H43.34V30.547h1.234V28.469ZM51.918,39H49.652V30.547h2.266Zm-2.4-10.641a1.112,1.112,0,0,1,.34-.836,1.465,1.465,0,0,1,1.848,0,1.193,1.193,0,0,1,0,1.68,1.448,1.448,0,0,1-1.836,0A1.108,1.108,0,0,1,49.52,28.359Zm6.961.109v2.078h1.445V32.2H56.48v4.219a1.007,1.007,0,0,0,.18.672.9.9,0,0,0,.688.2,3.6,3.6,0,0,0,.664-.055v1.711a4.648,4.648,0,0,1-1.367.2,2.156,2.156,0,0,1-2.422-2.4V32.2H52.988V30.547h1.234V28.469Zm7.766,9.672a2.831,2.831,0,0,1-2.312,1.016,2.67,2.67,0,0,1-2.074-.781,3.335,3.335,0,0,1-.73-2.289V30.547h2.258v5.467q0,1.322,1.2,1.322a1.63,1.63,0,0,0,1.578-.8V30.547h2.266V39H64.309Zm3.539-3.43a5.094,5.094,0,0,1,.887-3.148A2.877,2.877,0,0,1,71.1,30.391a2.589,2.589,0,0,1,2.039.922V27H75.4V39H73.363l-.109-.9a2.657,2.657,0,0,1-2.172,1.055,2.869,2.869,0,0,1-2.395-1.176A5.258,5.258,0,0,1,67.785,34.711Zm2.258.168a3.337,3.337,0,0,0,.414,1.823,1.349,1.349,0,0,0,1.2.634,1.511,1.511,0,0,0,1.477-.884V33.111a1.489,1.489,0,0,0-1.461-.884Q70.043,32.227,70.043,34.879Zm11,4.277a4.15,4.15,0,0,1-3.027-1.141,4.054,4.054,0,0,1-1.168-3.039v-.219a5.106,5.106,0,0,1,.492-2.277,3.612,3.612,0,0,1,1.395-1.547,3.914,3.914,0,0,1,2.059-.543,3.508,3.508,0,0,1,2.73,1.094,4.444,4.444,0,0,1,1,3.1v.922H79.137a2.1,2.1,0,0,0,.66,1.328,2,2,0,0,0,1.395.5,2.437,2.437,0,0,0,2.039-.945l1.109,1.242a3.389,3.389,0,0,1-1.375,1.121A4.511,4.511,0,0,1,81.043,39.156Zm-.258-6.945a1.411,1.411,0,0,0-1.09.455,2.357,2.357,0,0,0-.535,1.3H82.3v-.181a1.681,1.681,0,0,0-.406-1.165A1.456,1.456,0,0,0,80.785,32.211Zm9.594,4.453a.727.727,0,0,0-.41-.652,4.659,4.659,0,0,0-1.316-.426q-3.016-.633-3.016-2.562a2.323,2.323,0,0,1,.934-1.879,3.766,3.766,0,0,1,2.441-.754,4.053,4.053,0,0,1,2.574.758,2.388,2.388,0,0,1,.965,1.969H90.293a1.092,1.092,0,0,0-.312-.8A1.322,1.322,0,0,0,89,32a1.351,1.351,0,0,0-.883.258.814.814,0,0,0-.312.656.7.7,0,0,0,.355.605,3.657,3.657,0,0,0,1.2.4,9.8,9.8,0,0,1,1.422.379,2.336,2.336,0,0,1,1.789,2.273,2.2,2.2,0,0,1-.992,1.871,4.28,4.28,0,0,1-2.562.715,4.47,4.47,0,0,1-1.887-.379,3.166,3.166,0,0,1-1.293-1.039,2.414,2.414,0,0,1-.469-1.426h2.141a1.179,1.179,0,0,0,.445.922,1.766,1.766,0,0,0,1.109.32,1.635,1.635,0,0,0,.98-.246A.766.766,0,0,0,90.379,36.664Z" transform="translate(11988.934 -8303.961)" fill="#12263f"/>
    <rect id="Rectángulo_378822" data-name="Rectángulo 378822" width="173" height="155" rx="30" transform="translate(11961.934 -8014.961)" fill="#fffac1"/>
    <path id="Trazado_616011" data-name="Trazado 616011" d="M41.418,11.211A4.025,4.025,0,0,1,40.063,14.1a4.76,4.76,0,0,1-3.223,1.055A4.281,4.281,0,0,1,33.4,13.684a6.038,6.038,0,0,1-1.254-4.043v-.7a6.819,6.819,0,0,1,.578-2.891,4.332,4.332,0,0,1,1.652-1.918,5.164,5.164,0,0,1,5.668.387,4.326,4.326,0,0,1,1.391,2.961H39.09a2.376,2.376,0,0,0-.613-1.6,2.271,2.271,0,0,0-1.605-.5,1.991,1.991,0,0,0-1.754.84,4.707,4.707,0,0,0-.6,2.605V9.7a5.038,5.038,0,0,0,.559,2.7,1.954,1.954,0,0,0,1.762.852,2.314,2.314,0,0,0,1.621-.5,2.241,2.241,0,0,0,.613-1.535Zm1.039-.516a5.013,5.013,0,0,1,.484-2.242A3.546,3.546,0,0,1,44.336,6.93a4.069,4.069,0,0,1,2.113-.539,3.849,3.849,0,0,1,2.793,1.047,4.2,4.2,0,0,1,1.207,2.844l.016.578a4.418,4.418,0,0,1-1.086,3.121,4.209,4.209,0,0,1-5.832,0,4.5,4.5,0,0,1-1.09-3.187Zm2.258.16a3.16,3.16,0,0,0,.453,1.843,1.628,1.628,0,0,0,2.578.008,3.457,3.457,0,0,0,.461-2.015,3.128,3.128,0,0,0-.461-1.831,1.5,1.5,0,0,0-1.3-.649,1.474,1.474,0,0,0-1.281.646A3.516,3.516,0,0,0,44.715,10.856Zm9.258-4.309.07.945a2.971,2.971,0,0,1,2.43-1.1A2.255,2.255,0,0,1,58.715,7.68a2.9,2.9,0,0,1,2.539-1.289,2.521,2.521,0,0,1,2.047.8,3.681,3.681,0,0,1,.672,2.41V15H61.707V9.609a1.61,1.61,0,0,0-.281-1.051,1.246,1.246,0,0,0-.992-.332,1.409,1.409,0,0,0-1.406.969l.008,5.8H56.777V9.617a1.59,1.59,0,0,0-.289-1.062,1.259,1.259,0,0,0-.984-.328,1.463,1.463,0,0,0-1.391.8V15H51.855V6.547Zm19.344,4.3a5.07,5.07,0,0,1-.887,3.129,2.843,2.843,0,0,1-2.395,1.176,2.633,2.633,0,0,1-2.07-.891V18.25H65.707V6.547H67.8l.078.828a2.654,2.654,0,0,1,2.141-.984,2.862,2.862,0,0,1,2.43,1.156,5.207,5.207,0,0,1,.867,3.188Zm-2.258-.164a3.327,3.327,0,0,0-.418-1.82,1.361,1.361,0,0,0-1.215-.641,1.478,1.478,0,0,0-1.461.813V12.5a1.5,1.5,0,0,0,1.477.836Q71.059,13.336,71.059,10.688Zm8.406-2.023a6.134,6.134,0,0,0-.812-.062,1.654,1.654,0,0,0-1.68.867V15H74.715V6.547h2.133l.063,1.008a2.092,2.092,0,0,1,1.883-1.164,2.366,2.366,0,0,1,.7.1ZM85.215,15a2.507,2.507,0,0,1-.227-.758,2.732,2.732,0,0,1-2.133.914,3,3,0,0,1-2.059-.719,2.312,2.312,0,0,1-.816-1.812,2.389,2.389,0,0,1,1-2.062,4.915,4.915,0,0,1,2.879-.727h1.039V9.352a1.393,1.393,0,0,0-.3-.937,1.183,1.183,0,0,0-.949-.352,1.345,1.345,0,0,0-.895.273.929.929,0,0,0-.324.75H80.168a2.268,2.268,0,0,1,.453-1.359,3,3,0,0,1,1.281-.98,4.669,4.669,0,0,1,1.859-.355,3.689,3.689,0,0,1,2.48.785,2.747,2.747,0,0,1,.918,2.207v3.664a4.041,4.041,0,0,0,.336,1.82V15Zm-1.867-1.57a1.945,1.945,0,0,0,.922-.223,1.462,1.462,0,0,0,.625-.6V11.156h-.844q-1.7,0-1.8,1.172l-.008.133a.9.9,0,0,0,.3.7A1.153,1.153,0,0,0,83.348,13.43Z" transform="translate(11988.934 -7947.961)" fill="#12263f"/>
    <rect id="Rectángulo_378823" data-name="Rectángulo 378823" width="173" height="155" rx="30" transform="translate(12174.934 -8014.961)" fill="#fffac1"/>
    <path id="Trazado_616012" data-name="Trazado 616012" d="M28.754,10.07h-4.5v3.047h5.281V15H21.91V3.625H29.52v1.9H24.254V8.234h4.5Zm4.969,2.172,1.57-5.7h2.359L34.8,15H32.645L29.793,6.547h2.359ZM43.426,15a2.507,2.507,0,0,1-.227-.758,2.732,2.732,0,0,1-2.133.914,3,3,0,0,1-2.059-.719,2.312,2.312,0,0,1-.816-1.812,2.389,2.389,0,0,1,1-2.062,4.915,4.915,0,0,1,2.879-.727h1.039V9.352a1.393,1.393,0,0,0-.3-.937,1.183,1.183,0,0,0-.949-.352,1.345,1.345,0,0,0-.895.273.929.929,0,0,0-.324.75H38.379a2.268,2.268,0,0,1,.453-1.359,3,3,0,0,1,1.281-.98,4.669,4.669,0,0,1,1.859-.355,3.689,3.689,0,0,1,2.48.785,2.747,2.747,0,0,1,.918,2.207v3.664a4.041,4.041,0,0,0,.336,1.82V15Zm-1.867-1.57a1.945,1.945,0,0,0,.922-.223,1.462,1.462,0,0,0,.625-.6V11.156h-.844q-1.7,0-1.8,1.172l-.008.133a.9.9,0,0,0,.3.7A1.153,1.153,0,0,0,41.559,13.43ZM49.488,15H47.223V3h2.266Zm6.922-.859A2.831,2.831,0,0,1,54.1,15.156a2.67,2.67,0,0,1-2.074-.781,3.335,3.335,0,0,1-.73-2.289V6.547h2.258v5.467q0,1.322,1.2,1.322a1.63,1.63,0,0,0,1.578-.8V6.547H58.6V15H56.473ZM65.2,15a2.507,2.507,0,0,1-.227-.758,2.732,2.732,0,0,1-2.133.914,3,3,0,0,1-2.059-.719,2.312,2.312,0,0,1-.816-1.812,2.389,2.389,0,0,1,1-2.062,4.915,4.915,0,0,1,2.879-.727h1.039V9.352a1.393,1.393,0,0,0-.3-.937,1.183,1.183,0,0,0-.949-.352,1.345,1.345,0,0,0-.895.273.929.929,0,0,0-.324.75H60.152a2.268,2.268,0,0,1,.453-1.359,3,3,0,0,1,1.281-.98,4.669,4.669,0,0,1,1.859-.355,3.689,3.689,0,0,1,2.48.785,2.747,2.747,0,0,1,.918,2.207v3.664a4.041,4.041,0,0,0,.336,1.82V15Zm-1.867-1.57a1.945,1.945,0,0,0,.922-.223,1.462,1.462,0,0,0,.625-.6V11.156h-.844q-1.7,0-1.8,1.172l-.008.133a.9.9,0,0,0,.3.7A1.153,1.153,0,0,0,63.332,13.43Zm9.063-.094a1.481,1.481,0,0,0,1.016-.344,1.2,1.2,0,0,0,.406-.914h2.117a2.9,2.9,0,0,1-.469,1.574A3.093,3.093,0,0,1,74.2,14.762a3.949,3.949,0,0,1-1.77.395A3.67,3.67,0,0,1,69.574,14a4.56,4.56,0,0,1-1.047-3.184v-.148a4.508,4.508,0,0,1,1.039-3.117,3.627,3.627,0,0,1,2.852-1.164,3.555,3.555,0,0,1,2.543.9,3.2,3.2,0,0,1,.973,2.4H73.816a1.551,1.551,0,0,0-.406-1.072,1.51,1.51,0,0,0-2.223.163,3.333,3.333,0,0,0-.4,1.866v.235a3.375,3.375,0,0,0,.4,1.878A1.377,1.377,0,0,0,72.395,13.336ZM79.605,15H77.34V6.547h2.266Zm-2.4-10.641a1.112,1.112,0,0,1,.34-.836,1.465,1.465,0,0,1,1.848,0,1.105,1.105,0,0,1,.344.836,1.108,1.108,0,0,1-.348.844,1.448,1.448,0,0,1-1.836,0A1.108,1.108,0,0,1,77.207,4.359ZM81.113,10.7A5.013,5.013,0,0,1,81.6,8.453,3.546,3.546,0,0,1,82.992,6.93a4.069,4.069,0,0,1,2.113-.539A3.849,3.849,0,0,1,87.9,7.438a4.2,4.2,0,0,1,1.207,2.844l.016.578a4.418,4.418,0,0,1-1.086,3.121,4.209,4.209,0,0,1-5.832,0,4.5,4.5,0,0,1-1.09-3.187Zm2.258.16a3.16,3.16,0,0,0,.453,1.843,1.628,1.628,0,0,0,2.578.008,3.457,3.457,0,0,0,.461-2.015A3.128,3.128,0,0,0,86.4,8.86a1.5,1.5,0,0,0-1.3-.649,1.474,1.474,0,0,0-1.281.646A3.516,3.516,0,0,0,83.371,10.856ZM85.551,3h2.461L85.848,5.422H84.012ZM92.59,6.547l.07.977a2.951,2.951,0,0,1,2.43-1.133,2.453,2.453,0,0,1,2,.789,3.682,3.682,0,0,1,.672,2.359V15H95.5V9.594a1.465,1.465,0,0,0-.312-1.043,1.4,1.4,0,0,0-1.039-.324,1.553,1.553,0,0,0-1.43.813V15H90.465V6.547Zm-64.719,28.3a5.07,5.07,0,0,1-.887,3.129,2.843,2.843,0,0,1-2.395,1.176,2.633,2.633,0,0,1-2.07-.891V42.25H20.262v-11.7h2.094l.078.828a2.654,2.654,0,0,1,2.141-.984A2.862,2.862,0,0,1,27,31.547a5.207,5.207,0,0,1,.867,3.188Zm-2.258-.164a3.327,3.327,0,0,0-.418-1.82,1.361,1.361,0,0,0-1.215-.641,1.478,1.478,0,0,0-1.461.813V36.5A1.5,1.5,0,0,0,24,37.336Q25.613,37.336,25.613,34.688Zm3.3.008a5.013,5.013,0,0,1,.484-2.242A3.546,3.546,0,0,1,30.8,30.93a4.069,4.069,0,0,1,2.113-.539A3.849,3.849,0,0,1,35.7,31.438a4.2,4.2,0,0,1,1.207,2.844l.016.578A4.418,4.418,0,0,1,35.84,37.98a3.775,3.775,0,0,1-2.914,1.176,3.793,3.793,0,0,1-2.918-1.172,4.5,4.5,0,0,1-1.09-3.187Zm2.258.16a3.16,3.16,0,0,0,.453,1.843,1.628,1.628,0,0,0,2.578.008,3.457,3.457,0,0,0,.461-2.015,3.128,3.128,0,0,0-.461-1.831,1.5,1.5,0,0,0-1.3-.649,1.474,1.474,0,0,0-1.281.646A3.516,3.516,0,0,0,31.176,34.856Zm11.719,1.808a.727.727,0,0,0-.41-.652,4.659,4.659,0,0,0-1.316-.426q-3.016-.633-3.016-2.562a2.323,2.323,0,0,1,.934-1.879,3.766,3.766,0,0,1,2.441-.754,4.053,4.053,0,0,1,2.574.758,2.388,2.388,0,0,1,.965,1.969H42.809a1.092,1.092,0,0,0-.312-.8A1.322,1.322,0,0,0,41.52,32a1.351,1.351,0,0,0-.883.258.814.814,0,0,0-.312.656.7.7,0,0,0,.355.605,3.657,3.657,0,0,0,1.2.4A9.8,9.8,0,0,1,43.3,34.3,2.336,2.336,0,0,1,45.09,36.57a2.205,2.205,0,0,1-.992,1.871,4.28,4.28,0,0,1-2.562.715,4.47,4.47,0,0,1-1.887-.379,3.166,3.166,0,0,1-1.293-1.039,2.414,2.414,0,0,1-.469-1.426h2.141a1.179,1.179,0,0,0,.445.922,1.766,1.766,0,0,0,1.109.32,1.635,1.635,0,0,0,.98-.246A.766.766,0,0,0,42.895,36.664Zm7.164.672a1.481,1.481,0,0,0,1.016-.344,1.2,1.2,0,0,0,.406-.914H53.6a2.9,2.9,0,0,1-.469,1.574,3.093,3.093,0,0,1-1.262,1.109,3.949,3.949,0,0,1-1.77.395A3.67,3.67,0,0,1,47.238,38a4.56,4.56,0,0,1-1.047-3.184v-.148a4.508,4.508,0,0,1,1.039-3.117,3.627,3.627,0,0,1,2.852-1.164,3.555,3.555,0,0,1,2.543.9,3.2,3.2,0,0,1,.973,2.4H51.48a1.551,1.551,0,0,0-.406-1.072,1.51,1.51,0,0,0-2.223.163,3.333,3.333,0,0,0-.4,1.866v.235a3.375,3.375,0,0,0,.4,1.878A1.377,1.377,0,0,0,50.059,37.336ZM54.535,34.7a5.013,5.013,0,0,1,.484-2.242,3.546,3.546,0,0,1,1.395-1.523,4.069,4.069,0,0,1,2.113-.539,3.849,3.849,0,0,1,2.793,1.047,4.2,4.2,0,0,1,1.207,2.844l.016.578a4.418,4.418,0,0,1-1.086,3.121,4.209,4.209,0,0,1-5.832,0,4.5,4.5,0,0,1-1.09-3.187Zm2.258.16a3.16,3.16,0,0,0,.453,1.843,1.628,1.628,0,0,0,2.578.008,3.457,3.457,0,0,0,.461-2.015,3.128,3.128,0,0,0-.461-1.831,1.5,1.5,0,0,0-1.3-.649,1.474,1.474,0,0,0-1.281.646A3.516,3.516,0,0,0,56.793,34.856Zm9.258-4.309.07.945a2.971,2.971,0,0,1,2.43-1.1,2.255,2.255,0,0,1,2.242,1.289,2.9,2.9,0,0,1,2.539-1.289,2.521,2.521,0,0,1,2.047.8,3.681,3.681,0,0,1,.672,2.41V39H73.785V33.609a1.61,1.61,0,0,0-.281-1.051,1.246,1.246,0,0,0-.992-.332,1.409,1.409,0,0,0-1.406.969l.008,5.8H68.855V33.617a1.59,1.59,0,0,0-.289-1.062,1.259,1.259,0,0,0-.984-.328,1.463,1.463,0,0,0-1.391.8V39H63.934V30.547Zm19.344,4.3a5.07,5.07,0,0,1-.887,3.129,2.843,2.843,0,0,1-2.395,1.176,2.633,2.633,0,0,1-2.07-.891V42.25H77.785v-11.7h2.094l.078.828a2.654,2.654,0,0,1,2.141-.984,2.862,2.862,0,0,1,2.43,1.156,5.207,5.207,0,0,1,.867,3.188Zm-2.258-.164a3.327,3.327,0,0,0-.418-1.82,1.361,1.361,0,0,0-1.215-.641,1.478,1.478,0,0,0-1.461.813V36.5a1.5,1.5,0,0,0,1.477.836Q83.137,37.336,83.137,34.688Zm8.406-2.023a6.134,6.134,0,0,0-.812-.062,1.654,1.654,0,0,0-1.68.867V39H86.793V30.547h2.133l.063,1.008a2.092,2.092,0,0,1,1.883-1.164,2.366,2.366,0,0,1,.7.1ZM97.293,39a2.507,2.507,0,0,1-.227-.758,2.732,2.732,0,0,1-2.133.914,3,3,0,0,1-2.059-.719,2.312,2.312,0,0,1-.816-1.812,2.389,2.389,0,0,1,1-2.062,4.915,4.915,0,0,1,2.879-.727h1.039v-.484a1.393,1.393,0,0,0-.3-.937,1.183,1.183,0,0,0-.949-.352,1.345,1.345,0,0,0-.895.273.929.929,0,0,0-.324.75H92.246a2.268,2.268,0,0,1,.453-1.359,3,3,0,0,1,1.281-.98,4.669,4.669,0,0,1,1.859-.355,3.689,3.689,0,0,1,2.48.785,2.747,2.747,0,0,1,.918,2.207v3.664a4.041,4.041,0,0,0,.336,1.82V39Zm-1.867-1.57a1.945,1.945,0,0,0,.922-.223,1.462,1.462,0,0,0,.625-.6V35.156h-.844q-1.7,0-1.8,1.172l-.008.133a.9.9,0,0,0,.3.7A1.153,1.153,0,0,0,95.426,37.43ZM31.2,61.336a1.481,1.481,0,0,0,1.016-.344,1.2,1.2,0,0,0,.406-.914h2.117a2.9,2.9,0,0,1-.469,1.574A3.093,3.093,0,0,1,33,62.762a3.949,3.949,0,0,1-1.77.395A3.67,3.67,0,0,1,28.375,62a4.56,4.56,0,0,1-1.047-3.184v-.148a4.508,4.508,0,0,1,1.039-3.117,3.627,3.627,0,0,1,2.852-1.164,3.555,3.555,0,0,1,2.543.9,3.2,3.2,0,0,1,.973,2.4H32.617a1.551,1.551,0,0,0-.406-1.072,1.51,1.51,0,0,0-2.223.163,3.333,3.333,0,0,0-.4,1.866v.235a3.375,3.375,0,0,0,.4,1.878A1.377,1.377,0,0,0,31.2,61.336ZM35.672,58.7a5.013,5.013,0,0,1,.484-2.242,3.546,3.546,0,0,1,1.395-1.523,4.069,4.069,0,0,1,2.113-.539,3.849,3.849,0,0,1,2.793,1.047,4.2,4.2,0,0,1,1.207,2.844l.016.578a4.418,4.418,0,0,1-1.086,3.121,4.209,4.209,0,0,1-5.832,0,4.5,4.5,0,0,1-1.09-3.187Zm2.258.16a3.16,3.16,0,0,0,.453,1.843,1.628,1.628,0,0,0,2.578.008,3.457,3.457,0,0,0,.461-2.015,3.128,3.128,0,0,0-.461-1.831,1.5,1.5,0,0,0-1.3-.649,1.474,1.474,0,0,0-1.281.646A3.516,3.516,0,0,0,37.93,58.856Zm9.258-4.309.07.945a2.971,2.971,0,0,1,2.43-1.1A2.255,2.255,0,0,1,51.93,55.68a2.9,2.9,0,0,1,2.539-1.289,2.521,2.521,0,0,1,2.047.8,3.681,3.681,0,0,1,.672,2.41V63H54.922V57.609a1.61,1.61,0,0,0-.281-1.051,1.246,1.246,0,0,0-.992-.332,1.409,1.409,0,0,0-1.406.969L52.25,63H49.992V57.617a1.59,1.59,0,0,0-.289-1.062,1.259,1.259,0,0,0-.984-.328,1.463,1.463,0,0,0-1.391.8V63H45.07V54.547Zm19.344,4.3a5.07,5.07,0,0,1-.887,3.129,2.843,2.843,0,0,1-2.395,1.176,2.633,2.633,0,0,1-2.07-.891V66.25H58.922v-11.7h2.094l.078.828a2.654,2.654,0,0,1,2.141-.984,2.862,2.862,0,0,1,2.43,1.156,5.207,5.207,0,0,1,.867,3.188Zm-2.258-.164a3.327,3.327,0,0,0-.418-1.82,1.361,1.361,0,0,0-1.215-.641,1.478,1.478,0,0,0-1.461.813V60.5a1.5,1.5,0,0,0,1.477.836Q64.273,61.336,64.273,58.688ZM70.313,63H68.047V51h2.266Zm5.75.156a4.15,4.15,0,0,1-3.027-1.141,4.054,4.054,0,0,1-1.168-3.039v-.219a5.106,5.106,0,0,1,.492-2.277,3.612,3.612,0,0,1,1.395-1.547,3.914,3.914,0,0,1,2.059-.543,3.508,3.508,0,0,1,2.73,1.094,4.444,4.444,0,0,1,1,3.1v.922H74.156a2.1,2.1,0,0,0,.66,1.328,2,2,0,0,0,1.395.5,2.437,2.437,0,0,0,2.039-.945l1.109,1.242a3.389,3.389,0,0,1-1.375,1.121A4.511,4.511,0,0,1,76.063,63.156ZM75.8,56.211a1.411,1.411,0,0,0-1.09.455,2.357,2.357,0,0,0-.535,1.3H77.32v-.181a1.681,1.681,0,0,0-.406-1.165A1.456,1.456,0,0,0,75.8,56.211Zm7.406-1.664v8.914a3.024,3.024,0,0,1-.742,2.176,2.821,2.821,0,0,1-2.141.777,4.591,4.591,0,0,1-1.117-.133V64.492a4.238,4.238,0,0,0,.711.07q1.023,0,1.023-1.086v-8.93Zm-2.445-2.187a1.112,1.112,0,0,1,.34-.836,1.47,1.47,0,0,1,1.852,0,1.2,1.2,0,0,1-.008,1.68,1.448,1.448,0,0,1-1.836,0A1.108,1.108,0,0,1,80.766,52.359ZM89.875,63a2.507,2.507,0,0,1-.227-.758,2.732,2.732,0,0,1-2.133.914,3,3,0,0,1-2.059-.719,2.312,2.312,0,0,1-.816-1.812,2.389,2.389,0,0,1,1-2.062,4.915,4.915,0,0,1,2.879-.727h1.039v-.484a1.393,1.393,0,0,0-.3-.937,1.183,1.183,0,0,0-.949-.352,1.345,1.345,0,0,0-.895.273.929.929,0,0,0-.324.75H84.828a2.268,2.268,0,0,1,.453-1.359,3,3,0,0,1,1.281-.98,4.669,4.669,0,0,1,1.859-.355,3.689,3.689,0,0,1,2.48.785,2.747,2.747,0,0,1,.918,2.207v3.664a4.041,4.041,0,0,0,.336,1.82V63Zm-1.867-1.57a1.945,1.945,0,0,0,.922-.223,1.462,1.462,0,0,0,.625-.6V59.156h-.844q-1.7,0-1.8,1.172l-.008.133a.9.9,0,0,0,.3.7A1.153,1.153,0,0,0,88.008,61.43Z" transform="translate(12201.934 -7973.961)" fill="#12263f"/>
    <circle id="Elipse_6028" data-name="Elipse 6028" cx="61" cy="61" r="61" transform="translate(11987.934 -8808.961)" fill="#ffed33"/>
    <circle id="Elipse_6029" data-name="Elipse 6029" cx="61" cy="61" r="61" transform="translate(12200.934 -8808.961)" fill="#ffed33"/>
    <circle id="Elipse_6030" data-name="Elipse 6030" cx="61" cy="61" r="61" transform="translate(12200.934 -8463.961)" fill="#ffed33"/>
    <circle id="Elipse_6031" data-name="Elipse 6031" cx="61" cy="61" r="61" transform="translate(11987.934 -8463.961)" fill="#ffed33"/>
    <circle id="Elipse_6032" data-name="Elipse 6032" cx="61" cy="61" r="61" transform="translate(11987.934 -8118.96)" fill="#ffed33"/>
    <circle id="Elipse_6033" data-name="Elipse 6033" cx="61" cy="61" r="61" transform="translate(12200.934 -8118.96)" fill="#ffed33"/>
    <g id="Grupo_1073274" data-name="Grupo 1073274" transform="translate(11581.934 -11665.961)">
      <rect id="Rectángulo_378751" data-name="Rectángulo 378751" width="35" height="11" transform="translate(548 2913)" fill="#ffed33"/>
      <path id="Polígono_23" data-name="Polígono 23" d="M16,0,32,28H0Z" transform="translate(600 2902) rotate(90)" fill="#ffed33"/>
    </g>
    <g id="Grupo_1073288" data-name="Grupo 1073288" transform="translate(11581.934 -10975.961)">
      <rect id="Rectángulo_378751-2" data-name="Rectángulo 378751" width="35" height="11" transform="translate(548 2913)" fill="#ffed33"/>
      <path id="Polígono_23-2" data-name="Polígono 23" d="M16,0,32,28H0Z" transform="translate(600 2902) rotate(90)" fill="#ffed33"/>
    </g>
    <g id="Grupo_1073282" data-name="Grupo 1073282" transform="translate(12729.934 -5489.96) rotate(180)">
      <rect id="Rectángulo_378751-3" data-name="Rectángulo 378751" width="35" height="11" transform="translate(548 2913)" fill="#ffed33"/>
      <path id="Polígono_23-3" data-name="Polígono 23" d="M16,0,32,28H0Z" transform="translate(600 2902) rotate(90)" fill="#ffed33"/>
    </g>
    <g id="Grupo_1073279" data-name="Grupo 1073279" transform="translate(15179.934 -9078.961) rotate(90)">
      <rect id="Rectángulo_378751-4" data-name="Rectángulo 378751" width="35" height="11" transform="translate(548 2913)" fill="#ffed33"/>
      <path id="Polígono_23-4" data-name="Polígono 23" d="M16,0,32,28H0Z" transform="translate(600 2902) rotate(90)" fill="#ffed33"/>
    </g>
    <g id="Grupo_1073287" data-name="Grupo 1073287" transform="translate(14968.934 -8734.961) rotate(90)">
      <rect id="Rectángulo_378751-5" data-name="Rectángulo 378751" width="35" height="11" transform="translate(548 2913)" fill="#ffed33"/>
      <path id="Polígono_23-5" data-name="Polígono 23" d="M16,0,32,28H0Z" transform="translate(600 2902) rotate(90)" fill="#ffed33"/>
    </g>
    <g id="Grupo_1073306" data-name="Grupo 1073306" transform="translate(12021.016 -8781.414)">
      <g id="Grupo_1073303" data-name="Grupo 1073303" clip-path="url(#clip-path)">
        <path id="Trazado_615349" data-name="Trazado 615349" d="M27.948,66.9c-1.394,0-2.788-.016-4.182.005a1.252,1.252,0,0,1-1.434-1.4c-.021-1.115-.028-2.231,0-3.346.015-.579-.087-.875-.783-.887-1.209-.022-1.411-.291-1.42-1.547-.01-1.394-.051-2.79.017-4.181.036-.741-.254-.994-.913-1.224a27.561,27.561,0,0,1-17.8-17.779C-3.443,22.457,4.55,6.317,18.7,1.544A27.868,27.868,0,1,1,37.153,54.136c-1.091.384-1.577.8-1.446,2.01s.005,2.437.036,3.656c.025.986-.359,1.56-1.395,1.489-.659-.045-.844.22-.82.842.04,1.044.022,2.091.007,3.136-.018,1.267-.372,1.623-1.614,1.631-1.324.009-2.649,0-3.973,0M2.278,27.849A25.654,25.654,0,1,0,28.046,2.223,25.692,25.692,0,0,0,2.278,27.849M27.865,59.095h2.71c3.138,0,3.127,0,2.963-3.182-.027-.534-.121-.725-.726-.615a26.549,26.549,0,0,1-9.734,0c-.557-.1-.771.006-.751.588.027.8.042,1.6,0,2.4-.039.66.236.834.851.822,1.563-.031,3.127-.01,4.69-.01m.114,2.209c-.9,0-1.81.016-2.714-.006-.486-.012-.773.173-.655.659.212.88-.534,1.905.408,2.664.044.035.136.011.205.011q2.714,0,5.428,0c.342,0,.556-.054.624-.49.395-2.523.144-2.841-2.356-2.841h-.939" transform="translate(0 0)" fill="#12263f"/>
        <path id="Trazado_615350" data-name="Trazado 615350" d="M44.876,67.889A23.441,23.441,0,1,1,68.362,44.678,23.462,23.462,0,0,1,44.876,67.889m.047-2.227a21.183,21.183,0,1,0-21.143-21.22,21.146,21.146,0,0,0,21.143,21.22" transform="translate(-16.994 -16.614)" fill="#12263f"/>
        <path id="Trazado_615351" data-name="Trazado 615351" d="M51.3,75.247a11.361,11.361,0,0,1,1-2.307c.607-1.361.25-2.257-1.119-2.727-3.415-1.171-2.941-.456-2.977-4.133-.009-.975.026-1.952-.008-2.926a1.382,1.382,0,0,1,1.129-1.522c.632-.187,1.254-.41,1.878-.622a1.7,1.7,0,0,0,1.123-2.63c-1.326-2.832-1.326-2.832.837-5.095.144-.151.294-.3.444-.442,2.327-2.267,2.327-2.267,5.251-.91a1.7,1.7,0,0,0,2.569-1.1c1.236-3.523.452-3.035,4.286-3.067.94-.008,1.882.023,2.821-.008A1.363,1.363,0,0,1,70,48.81c.206.627.41,1.255.622,1.879a1.789,1.789,0,0,0,2.707,1.2c2.827-1.3,2.827-1.3,5.082.883q.225.218.443.443c2.234,2.317,2.234,2.317.9,5.178a1.764,1.764,0,0,0,1.079,2.6c3.467,1.28,3.02.348,3.05,4.3.006.871-.036,1.744.011,2.612a1.489,1.489,0,0,1-1.251,1.749c-.538.131-1.057.34-1.585.515-1.5.5-1.9,1.421-1.228,2.844,1.235,2.628,1.236,2.629-.74,4.761-.237.255-.48.505-.732.745-2.264,2.154-2.265,2.154-5.084.825A1.779,1.779,0,0,0,70.64,80.5c-1.183,3.269-.38,3.021-4.244,3.015-.871,0-1.743-.026-2.612.006a1.528,1.528,0,0,1-1.756-1.263c-.152-.6-.394-1.186-.594-1.778a1.689,1.689,0,0,0-2.608-1.142c-2.838,1.344-2.851,1.358-5.155-.888-.7-.678-1.3-1.453-1.936-2.187a1.629,1.629,0,0,1-.436-1.019M78.347,56.124a3.466,3.466,0,0,0-.328-.469c-.576-.6-1.181-1.181-1.744-1.8a.986.986,0,0,0-1.456-.207,3.7,3.7,0,0,1-4.517.165.879.879,0,0,0-.284-.128A1.51,1.51,0,0,1,68.881,52.6c-.326-.829-.249-2.045-1-2.416s-1.838-.115-2.776-.133a.668.668,0,0,1-.1,0c-.769-.14-1.065.227-1.294.947-.266.839-.239,1.962-1.074,2.414-1.485.8-3.042,1.886-4.8.518-1.007-.785-1.761-.426-2.575.4-1.593,1.607-1.675,1.6-.681,3.536a2.567,2.567,0,0,1,.05,2.652,5.839,5.839,0,0,0-.49,1.15,1.738,1.738,0,0,1-1.225,1.162c-2.5.893-2.464.9-2.515,3.619-.016.868.211,1.3,1.09,1.541.815.223,1.895.235,2.328,1.023.835,1.521,1.874,3.123.5,4.9-.711.919-.459,1.6.331,2.387,1.7,1.688,1.661,1.729,3.806.721a3.914,3.914,0,0,1,4.9,2.093c.693,2.11.693,2.11,2.84,2.11,1.852,0,1.852,0,2.432-1.808A3.865,3.865,0,0,1,73.9,77.158c1.787.86,1.787.86,3.145-.5,1.375-1.373,1.375-1.373.547-3.123a3.881,3.881,0,0,1,2.292-5.34c2.1-.733,1.734-.125,1.771-2.373.008-.453-.034-.909.009-1.358.06-.628-.159-.99-.8-1.1a3.975,3.975,0,0,1-3.528-3.14,2.527,2.527,0,0,1,.027-2.071c.354-.636.637-1.312.983-2.038" transform="translate(-38.109 -37.766)" fill="#12263f"/>
        <path id="Trazado_615352" data-name="Trazado 615352" d="M95.591,105.211a10.023,10.023,0,1,1,10.065-9.965,9.955,9.955,0,0,1-10.065,9.965m7.825-10.055a7.789,7.789,0,1,0-7.785,7.885,7.814,7.814,0,0,0,7.785-7.885" transform="translate(-67.696 -67.353)" fill="#12263f"/>
        <path id="Trazado_615353" data-name="Trazado 615353" d="M128.123,109.859c0-.8.061-1.6-.017-2.393-.089-.9.4-.948,1.063-.9.594.039,1.253-.187,1.2.873-.081,1.7-.057,3.4-.008,5.1.027.941-.591.755-1.112.742-.5-.013-1.181.251-1.137-.712.042-.9.009-1.8.008-2.707" transform="translate(-101.305 -84.267)" fill="#12263f"/>
        <path id="Trazado_615354" data-name="Trazado 615354" d="M129.14,151.133c-1.069.29-1.014-.385-1.072-1.148-.075-.984.347-1.089,1.194-1.13,1.042-.05,1.03.459,1.09,1.237.077,1.009-.36,1.205-1.211,1.041" transform="translate(-101.276 -117.72)" fill="#12263f"/>
      </g>
    </g>
    <g id="Grupo_1073307" data-name="Grupo 1073307" transform="translate(12228.063 -8780.063)">
      <g id="Grupo_1073301" data-name="Grupo 1073301" clip-path="url(#clip-path-2)">
        <path id="Trazado_615339" data-name="Trazado 615339" d="M30.626,64.2c-7.265,0-14.53.013-21.8-.005A8.4,8.4,0,0,1,.352,58.169,8.214,8.214,0,0,1,0,55.67Q0,36.414.008,17.158A8.369,8.369,0,0,1,8.6,8.631c6.524-.013,13.049-.022,19.573.017.9.005,1.18-.256,1.092-1.124a18.255,18.255,0,0,1-.012-2.115A5.079,5.079,0,0,1,34.618.019C36.733-.018,38.85.011,40.966.011q10.474,0,20.949,0c3.94,0,6.018,2.193,5.813,6.089-.036.686-.258,1.215-1.018,1.2s-.974-.562-.946-1.246a9.334,9.334,0,0,0-.006-.952A3.046,3.046,0,0,0,62.55,2.028q-14.019-.017-28.038,0a2.982,2.982,0,0,0-3.228,3.231q-.018,10.9,0,21.8a3.026,3.026,0,0,0,3.186,3.3c1.057.039,2.116,0,3.174.01,1.447.007,1.674.229,1.682,1.641.006,1.058,0,2.116,0,3.174,0,.421-.046.861.416,1.114a1.137,1.137,0,0,0,1.273-.215c2.551-1.7,5.114-3.38,7.649-5.1a3.448,3.448,0,0,1,2.065-.625c3.773.026,7.547.015,11.321.01,2.536,0,3.71-1.163,3.712-3.673q.009-7.777,0-15.553c0-.317,0-.635.018-.952a.854.854,0,0,1,.807-.836.907.907,0,0,1,1.06.674,3.119,3.119,0,0,1,.07.942q.005,7.988,0,15.976c-.005,3.29-2.047,5.371-5.327,5.355-.835,0-1.052.223-1.048,1.054q.049,11.162.013,22.324a8.357,8.357,0,0,1-6.216,8.215,10.789,10.789,0,0,1-2.933.309q-10.792,0-21.584,0m-.051-2.011q10.9,0,21.8,0c4.394,0,7.01-2.632,7.022-7.057.007-2.857,0-5.713,0-8.57q0-6.613-.008-13.225c0-.326.182-.829-.225-.937a3.068,3.068,0,0,0-1.561-.01c-.457.131-.228.676-.229,1.03-.013,7.3-.09,14.6.029,21.9a4.746,4.746,0,0,1-4.942,4.934c-11.744-.071-23.488-.03-35.232-.031a5.791,5.791,0,0,1-.845-.023.957.957,0,0,1-.908-.992.889.889,0,0,1,.845-.924,10.167,10.167,0,0,1,1.265-.057q17.4,0,34.809-.005c2.142,0,3.031-.894,3.035-3.011.006-2.539,0-5.078,0-7.618,0-4.761-.018-9.522.018-14.283.006-.779-.181-1.066-.992-1.008a21.4,21.4,0,0,1-2.96,0,3.412,3.412,0,0,0-2.25.683c-2.416,1.647-4.843,3.28-7.3,4.859A2.933,2.933,0,0,1,37.258,35.4c-.056-1.005.461-2.378-.235-2.914-.65-.5-1.958-.14-2.976-.174A4.95,4.95,0,0,1,29.4,28.271a27.133,27.133,0,0,1-.129-4.749c0-.74-.136-1.049-.975-1.044-6.277.035-12.555.007-18.833.026a3.241,3.241,0,0,0-3.526,3.575q-.01,14.653,0,29.307a2.51,2.51,0,0,0,2.784,2.83c1.2.024,2.4,0,3.6.016.642.007,1.16.3,1.157.969,0,.712-.514,1.024-1.218,1.019-1.34-.008-2.682.038-4.02-.017a4.3,4.3,0,0,1-4.221-4.39Q4,40.737,4.014,25.66A4.7,4.7,0,0,1,4.192,24.2,5.232,5.232,0,0,1,9.5,20.5c6.207-.013,12.414-.028,18.621.02.961.007,1.171-.275,1.149-1.182q-.092-3.806,0-7.617c.02-.886-.242-1.121-1.12-1.116-6.348.036-12.7.016-19.044.024a8.4,8.4,0,0,0-2.616.294c-2.878.935-4.529,3.34-4.531,6.65-.006,12.52.039,25.04-.025,37.56a6.751,6.751,0,0,0,7.054,7.091c7.192-.126,14.388-.036,21.583-.036" transform="translate(0 0)" fill="#12263f"/>
        <path id="Trazado_615340" data-name="Trazado 615340" d="M199.995,76.485c-1.794-.094-3.6.141-5.384-.127a2.859,2.859,0,0,1-2.425-2.565,2.936,2.936,0,0,1,1.729-2.993,1.075,1.075,0,0,1,.488-.173c1.379.158,1.579-.627,1.418-1.725a1.576,1.576,0,0,1,0-.422c.142-1.129.019-1.874-1.454-2.065a2.7,2.7,0,0,1-2.175-3.146,2.938,2.938,0,0,1,2.988-2.579q3.278-.031,6.556,0a2.777,2.777,0,0,1,2.891,2.951c.016,2.009.024,4.018-.007,6.027-.009.6.132.85.782.946a2.917,2.917,0,0,1-.022,5.746c-1.785.268-3.59.033-5.384.125m-.025-2.037q2.38,0,4.761,0c.684,0,1.111-.364,1.1-1.011a.944.944,0,0,0-1.082-.917c-.141,0-.282,0-.423,0-1.44-.023-1.619-.205-1.622-1.671,0-2.222,0-4.443,0-6.665,0-1.258-.284-1.532-1.562-1.544-.917-.008-1.834,0-2.75,0-1.058,0-2.117-.021-3.173.025a.921.921,0,0,0-1,.994c.018.656.439.923,1.044.948.423.018.846.023,1.269.011.937-.028,1.347.428,1.334,1.352-.018,1.375-.011,2.751,0,4.126.011,1.772.369,2.6-2.389,2.429-.676-.041-1.246.163-1.251.942-.006.84.595,1,1.312.993,1.481-.018,2.962-.005,4.443-.008" transform="translate(-151.502 -47.834)" fill="#12263f"/>
        <path id="Trazado_615341" data-name="Trazado 615341" d="M218.3,18.578a4.366,4.366,0,0,1-4.452,4.383,4.405,4.405,0,0,1,.041-8.81,4.362,4.362,0,0,1,4.411,4.427m-6.771-.031a2.39,2.39,0,0,0,2.382,2.425,2.5,2.5,0,0,0,2.45-2.4,2.428,2.428,0,0,0-2.427-2.4,2.326,2.326,0,0,0-2.406,2.373" transform="translate(-165.172 -11.156)" fill="#12263f"/>
        <path id="Trazado_615342" data-name="Trazado 615342" d="M65.227,223.671c-3.138,0-6.276-.008-9.414.006-.744,0-1.434-.12-1.4-1.011.029-.785.669-.965,1.381-.964q9.572.013,19.145,0c.708,0,1.328.172,1.341.992.013.843-.614.981-1.322.979-3.244-.011-6.487,0-9.731,0" transform="translate(-42.898 -174.789)" fill="#12263f"/>
        <path id="Trazado_615343" data-name="Trazado 615343" d="M65.421,197.292q4.548,0,9.1,0a8.069,8.069,0,0,1,.949.039.945.945,0,0,1,.17,1.828,3.547,3.547,0,0,1-1.04.108q-9.254.009-18.508,0c-.212,0-.424.01-.634-.008-.648-.058-1.1-.39-1.065-1.063.032-.616.472-.9,1.091-.9,1.445,0,2.891-.005,4.336-.006q2.8,0,5.606,0" transform="translate(-42.878 -155.544)" fill="#12263f"/>
        <path id="Trazado_615344" data-name="Trazado 615344" d="M84.872,174.575c-2.4,0-4.791-.008-7.186.005-.742,0-1.447-.147-1.427-1.009.02-.838.711-.987,1.461-.984q7.186.024,14.371,0c.745,0,1.416.128,1.411,1.016-.005.916-.73.975-1.445.973-2.4-.007-4.791,0-7.186,0" transform="translate(-60.122 -136.066)" fill="#12263f"/>
        <path id="Trazado_615345" data-name="Trazado 615345" d="M18.965,61.283a3.4,3.4,0,0,1,3.361-3.374,3.439,3.439,0,0,1-.03,6.879,3.386,3.386,0,0,1-3.331-3.505m3.412,1.466a1.394,1.394,0,1,0-.1-2.787A1.431,1.431,0,0,0,20.9,61.4a1.454,1.454,0,0,0,1.476,1.349" transform="translate(-14.952 -45.655)" fill="#12263f"/>
        <path id="Trazado_615346" data-name="Trazado 615346" d="M61.907,61.329a3.448,3.448,0,0,1-3.4,3.46,3.439,3.439,0,1,1,3.4-3.46m-1.991.031a1.38,1.38,0,0,0-1.4-1.394,1.393,1.393,0,1,0,1.4,1.394" transform="translate(-43.434 -45.657)" fill="#12263f"/>
        <path id="Trazado_615347" data-name="Trazado 615347" d="M98.243,61.311a3.436,3.436,0,1,1-3.51-3.4,3.549,3.549,0,0,1,3.51,3.4m-3.469-1.348a1.394,1.394,0,1,0,1.413,1.364,1.339,1.339,0,0,0-1.413-1.364" transform="translate(-72.035 -45.656)" fill="#12263f"/>
        <path id="Trazado_615348" data-name="Trazado 615348" d="M61.957,248.316c-2.045,0-4.091-.013-6.136.007-.765.007-1.409-.2-1.4-1.048.01-.809.672-.961,1.372-.96q6.241.01,12.483,0c.738,0,1.427.136,1.386,1.037-.04.873-.726.979-1.465.971-2.08-.021-4.161-.007-6.241-.007" transform="translate(-42.906 -194.193)" fill="#12263f"/>
      </g>
    </g>
    <g id="Grupo_1073308" data-name="Grupo 1073308" transform="translate(12232.956 -8440.936)">
      <g id="Grupo_1073299" data-name="Grupo 1073299" clip-path="url(#clip-path-3)">
        <path id="Trazado_615329" data-name="Trazado 615329" d="M.036,36.262C.036,27.554.09,18.845,0,10.138a4.268,4.268,0,0,1,4.6-4.59c2.835.144,5.684.023,8.527.037.591,0,1.016,0,1.031-.814.013-.733.605-.987,1.3-.984,1.475.007,2.951-.018,4.426.009a1.25,1.25,0,0,0,1.277-.718,5.963,5.963,0,0,1,10.44,0,1.266,1.266,0,0,0,1.283.715c1.4-.033,2.807.009,4.21-.016.926-.017,1.562.273,1.588,1.3.017.668.508.484.857.486,2.951.012,5.9,0,8.852.009,2.767.006,4.348,1.582,4.35,4.341,0,6.477.027,12.954-.023,19.431-.008,1.069.272,1.152,1.2.88q3.718-1.087,7.486-2A4.124,4.124,0,0,1,66.526,31.2a5.3,5.3,0,0,1,.1,3.985,4.317,4.317,0,0,1-2.983,2.43c-1.458.379-2.917.757-4.366,1.172-.252.072-.837-.017-.515.626a24.362,24.362,0,0,1,1.852,7.5,5.993,5.993,0,0,0,1.766,3.373c.882.9,1.763,1.8,2.654,2.687a1.218,1.218,0,0,1-.008,1.963Q59.258,60.686,53.5,66.451a1.153,1.153,0,0,1-1.867.062c-.313-.329-.551-.3-.916-.076a4.154,4.154,0,0,1-2.275.535Q26.417,66.965,4.4,66.967A4,4,0,0,1,.038,62.6q-.01-13.17,0-26.34m26.8,3.984-.166-.274h-.643c-.757,0-1.317-.335-1.292-1.119s.614-1.069,1.362-1.05c.539.014,1.079,0,1.619,0,1.451,0,1.443,0,1.5-1.378a3.766,3.766,0,0,1,.161-.952c.172-.555.032-.766-.578-.741-.97.039-1.944.037-2.914-.009a1.069,1.069,0,0,1-1.154-1.157,1.012,1.012,0,0,1,1.174-.992c.467.013.94-.04,1.4.006A16.992,16.992,0,0,0,36.979,30.7c.318-.164.661-.279.993-.415a8.82,8.82,0,0,1,5.186-.456,24.109,24.109,0,0,1,2.422.507c.847.261.964-.084.96-.818-.024-3.67-.011-7.341-.011-11.012q0-2.969,0-5.937c0-.449.027-.861-.639-.854-2.195.022-4.39.007-6.585.01-.287,0-.6-.026-.606.41-.018,1.262-.854,1.381-1.851,1.376-4.1-.019-8.2-.008-12.307-.008-2.951,0-5.9-.006-8.852,0-.74,0-1.481-.1-1.52-.983-.036-.814-.453-.813-1.039-.808-1.871.017-3.745.062-5.613-.016-.983-.041-1.254.239-1.252,1.238q.05,23.319,0,46.637c0,.989.287,1.165,1.2,1.163q18.514-.046,37.029-.022c.342,0,.684-.029,1.381-.06-.9-.844-1.574-1.468-2.237-2.107a10.567,10.567,0,0,1-2.288-2.98,1.159,1.159,0,0,0-1.258-.711c-4.426.016-8.852.006-13.279,0-.252,0-.5.005-.756,0-.734-.025-1.32-.336-1.324-1.115,0-.8.561-1.063,1.326-1.056,2.447.022,4.894.009,7.341.01h4.857a4.1,4.1,0,0,1-1.3-2.269c-.033-.215-.174-.282-.359-.334A8.637,8.637,0,0,0,34,49.5c-2.661.065-5.325.034-7.988.015-1.039-.007-1.572-.719-1.176-1.5a1.34,1.34,0,0,1,1.368-.664q2.915,0,5.83,0c1.594,0,1.594,0,1.743-1.684-.387-.059-.735.207-1.144.092-2.314-.65-4.643-1.247-6.952-1.912-1.193-.343-1.378-1.176-.495-2.087.518-.535,1.1-1.013,1.647-1.517m11.294-3.558a5.04,5.04,0,0,0,.347,1c2.23,3.891,3.07,8.159,3.513,12.555a9.635,9.635,0,0,0,2.377,5.893c1.608,1.7,3.3,3.318,4.928,4.992.367.376.584.342.946-.023q4.749-4.787,9.535-9.537c.276-.275.454-.5.122-.894a8,8,0,0,1-1.549-4.183,20.807,20.807,0,0,0-1.532-6.138c-.268-.558-.489-.814-1.194-.614-2.76.786-5.539,1.5-8.318,2.218-.593.153-.587.4-.386.906a16.7,16.7,0,0,0,2.5,4.384c.513.633.95,1.309.187,1.965-.817.7-1.365.03-1.86-.574a21.105,21.105,0,0,1-3.632-7.28,29.014,29.014,0,0,0-2.2-5.6A1.912,1.912,0,0,0,39.663,34.7c-.981.226-1.393.935-1.535,1.991M2.2,36.236q0,13.064,0,26.129c0,1.853.593,2.437,2.469,2.437q21.756,0,43.512,0a5.194,5.194,0,0,0,.966-.062c.211-.04.452-.228.206-.447-.664-.591-1.069-1.435-2.241-1.432-13.784.044-27.568.029-41.352.027-1.488,0-1.643-.147-1.643-1.587q0-25.049,0-50.1c0-1.371.268-1.64,1.639-1.644,2.483-.008,4.967-.024,7.45.011.692.01.938-.18.925-.9-.012-.67-.152-.946-.893-.935-2.771.041-5.542.016-8.313.016-2.272,0-2.725.446-2.725,2.682q0,12.9,0,25.8m24.2-24.9c3.054,0,6.107-.019,9.161.014.731.008,1.025-.181.982-.958a29.7,29.7,0,0,1,0-3.339c.047-.822-.176-1.154-1.058-1.107-1.325.07-2.658.006-3.987.02a1.339,1.339,0,0,1-1.433-1.027,3.773,3.773,0,0,0-3.691-2.754,3.734,3.734,0,0,0-3.631,2.688,1.453,1.453,0,0,1-1.606,1.1c-1.329-.028-2.659.017-3.987-.015-.636-.015-.906.177-.881.856.045,1.184.052,2.372,0,3.556-.034.75.217.992.971.983,3.053-.035,6.107-.014,9.161-.014M62.393,30.2l-3.529.936q-6.968,1.853-13.937,3.7c-.6.158-.917.32-.538,1.071a20.433,20.433,0,0,1,1.236,3.209c.246.8.584.93,1.391.707,5.324-1.472,10.662-2.892,16-4.3a2.089,2.089,0,0,0,1.788-2,3.364,3.364,0,0,0-1.564-3.1,6.864,6.864,0,0,0-.852-.23m-11.81-10.15c0-3.382.006-6.764,0-10.145,0-1.513-.643-2.145-2.169-2.149-2.95-.009-5.9.021-8.85-.019-.738-.01-.881.259-.891.931-.01.711.214.917.915.905,2.374-.038,4.749-.016,7.123-.014,1.778,0,1.99.209,1.99,1.977,0,6.116.02,12.232-.021,18.348-.006.88.2,1.412,1.119,1.4,1.026-.01.781-.811.783-1.414.008-3.274,0-6.548,0-9.822M62.9,53.947c-.318-.335-.62-.666-.937-.984-.389-.389-.572.046-.763.236-3.129,3.114-6.234,6.251-9.38,9.347-.532.524-.319.783.08,1.2.422.436.7.566,1.2.056,3.072-3.119,6.179-6.2,9.273-9.3.151-.151.295-.309.524-.551M38.029,41.792c-.275-.607-.58-1.332-.929-2.036-.4-.812-.67-2.026-1.314-2.291-.692-.284-1.754.332-2.654.554-.035.008-.071.01-.106.016-.465.087-.676.287-.521.818.38,1.3.714,2.621,1.057,3.935.11.423.307.573.766.434,1.06-.321,2.134-.595,3.205-.879.24-.064.518-.062.5-.552m7.139-9.313c-2.16-.441-4.1-1.084-6.1-.274-2.193.884-4.389,1.758-6.577,2.654a2.716,2.716,0,0,0-.695.488.52.52,0,0,0-.2.663c.127.2.4.088.6.034,1.107-.3,2.207-.618,3.318-.892a1.75,1.75,0,0,0,1.164-.821,3.833,3.833,0,0,1,4.783-1.615c1.319.633,2.354.21,3.706-.236M39.154,45.886c-.114-.5.046-1.287-.5-1.477a1.526,1.526,0,0,0-1.573.671c-.306.39-.728.7-1,1.106a1.173,1.173,0,0,0,.98,1.767,3.15,3.15,0,0,0,2.087-2.067m-8.645-6.071L27.936,42.22a20.056,20.056,0,0,0,3.449.818l-.876-3.224m9.046,9.157c-.55.876-.634,1.452.216,1.973a4.4,4.4,0,0,0-.216-1.973" transform="translate(-0.001 0)" fill="#12263f"/>
        <path id="Trazado_615330" data-name="Trazado 615330" d="M56.047,78.538c0,1.149.019,2.3-.006,3.447a1.969,1.969,0,0,1-2.052,2.144q-3.607.077-7.216,0a1.959,1.959,0,0,1-2.1-2.109q-.063-3.553,0-7.108a1.988,1.988,0,0,1,2.167-2.141q3.5-.034,7,0a2.014,2.014,0,0,1,2.2,2.212c.021,1.185,0,2.37,0,3.554m-2.17-.1c0-.933-.016-1.865.006-2.8.012-.483-.124-.718-.66-.712q-2.851.032-5.7,0c-.506,0-.7.179-.694.687q.026,2.851,0,5.7c0,.531.244.669.723.665,1.865-.013,3.73-.02,5.595,0,.562.007.759-.2.74-.753-.032-.931-.009-1.864-.009-2.8" transform="translate(-35.003 -57.043)" fill="#12263f"/>
        <path id="Trazado_615331" data-name="Trazado 615331" d="M50.406,221.545c-1.152,0-2.3.014-3.455,0a2.03,2.03,0,0,1-2.28-2.16q-.061-3.563,0-7.126a1.985,1.985,0,0,1,2.129-2.1q3.563-.059,7.127,0a1.987,1.987,0,0,1,2.105,2.107q.042,3.563,0,7.127a2.023,2.023,0,0,1-2.174,2.15c-.036,0-.072,0-.108,0H50.406m-.1-2.168c.9,0,1.8-.031,2.692.011.62.029.909-.118.892-.819-.042-1.83-.026-3.662-.007-5.493.005-.528-.133-.78-.722-.771q-2.8.042-5.6,0c-.581-.008-.741.237-.736.77.017,1.831.031,3.662-.006,5.493-.014.7.286.848.9.82.86-.04,1.723-.01,2.585-.01" transform="translate(-34.999 -164.748)" fill="#12263f"/>
        <path id="Trazado_615332" data-name="Trazado 615332" d="M56.056,147.127c0,1.149.02,2.3-.005,3.447a2,2,0,0,1-2.153,2.15q-3.555.029-7.11,0a1.943,1.943,0,0,1-2.091-1.989c-.055-2.44-.051-4.884-.007-7.324a1.907,1.907,0,0,1,1.94-2.043q3.712-.115,7.43-.006a1.979,1.979,0,0,1,1.991,2.212c.02,1.185,0,2.37,0,3.555m-9.214-.039c0,.9.014,1.8-.006,2.693-.011.5.087.8.7.791,1.9-.03,3.806-.019,5.71,0,.449,0,.648-.139.645-.614q-.023-2.909,0-5.818c0-.455-.171-.645-.631-.642-1.9.011-3.807.019-5.71,0-.6-.008-.722.289-.712.8.019.933.005,1.867.006,2.8" transform="translate(-35.012 -110.789)" fill="#12263f"/>
        <path id="Trazado_615333" data-name="Trazado 615333" d="M123.549,84.21q-3.885,0-7.77,0a1.273,1.273,0,0,1-1.3-.763.959.959,0,0,1,.252-1.084,1.185,1.185,0,0,1,.989-.321q7.878,0,15.756,0c.751,0,1.3.237,1.277,1.087s-.609,1.075-1.323,1.078c-2.626.009-5.252,0-7.878,0" transform="translate(-89.69 -64.323)" fill="#12263f"/>
        <path id="Trazado_615334" data-name="Trazado 615334" d="M123.714,108.27c-2.591,0-5.182-.013-7.772.008-.787.006-1.435-.2-1.418-1.074.016-.839.668-1.1,1.441-1.1q7.719,0,15.437,0c.8,0,1.478.209,1.448,1.177-.03.948-.738,1-1.471.993-2.555-.01-5.11,0-7.664,0" transform="translate(-89.79 -83.187)" fill="#12263f"/>
        <path id="Trazado_615335" data-name="Trazado 615335" d="M118.8,19.149a1.231,1.231,0,0,1-1.293,1.317,1.278,1.278,0,1,1-.007-2.557,1.218,1.218,0,0,1,1.3,1.24" transform="translate(-91.122 -14.041)" fill="#12263f"/>
        <path id="Trazado_615336" data-name="Trazado 615336" d="M59.93,92.565c-.722-.027-2.689-2.015-2.708-2.654a1.043,1.043,0,0,1,.646-1.021.888.888,0,0,1,1.165.244c.652.842,1.054.471,1.505-.181a6.6,6.6,0,0,1,.982-1.133A.95.95,0,0,1,62.8,87.8a.9.9,0,0,1,.332,1.232,20.273,20.273,0,0,1-2.695,3.332c-.135.136-.389.154-.511.2" transform="translate(-44.863 -68.652)" fill="#12263f"/>
        <path id="Trazado_615337" data-name="Trazado 615337" d="M63.136,226.107a1.284,1.284,0,0,1-.312.83c-.691.868-1.381,1.737-2.1,2.585a1.118,1.118,0,0,1-1.846.087c-.486-.475-.974-.95-1.436-1.449a1.008,1.008,0,0,1-.014-1.53.971.971,0,0,1,1.52.034c.62.743.995.506,1.432-.148a7.027,7.027,0,0,1,.963-1.15.969.969,0,0,1,1.191-.162,1.079,1.079,0,0,1,.6.9" transform="translate(-44.758 -176.461)" fill="#12263f"/>
        <path id="Trazado_615338" data-name="Trazado 615338" d="M59.887,161.173c-.774.03-1.082-.514-1.49-.9a12.346,12.346,0,0,1-.978-.993,1.024,1.024,0,0,1-.021-1.461.961.961,0,0,1,1.519-.046c.748.888,1.128.378,1.59-.247a7.473,7.473,0,0,1,1-1.109.858.858,0,0,1,1.178.021c.375.286.632.713.4,1.119a17.376,17.376,0,0,1-2.79,3.508c-.1.106-.336.086-.413.1" transform="translate(-44.769 -122.464)" fill="#12263f"/>
      </g>
    </g>
    <g id="Grupo_1073309" data-name="Grupo 1073309" transform="translate(12010.9 -8443.266)">
      <g id="Grupo_1073297" data-name="Grupo 1073297" clip-path="url(#clip-path-4)">
        <path id="Trazado_615326" data-name="Trazado 615326" d="M36.865,200.2a44.2,44.2,0,0,1-8.183-1.1c-3.294-.608-6.59-1.1-9.871.074-.807.287-1.777.373-1.179,1.752.288.663-.326,1.344-.9,1.784a15.905,15.905,0,0,1-6.742,2.578c-1.084.222-1.982-.6-2.519-2.076-1.45-3.973-2.861-7.96-4.277-11.945-.983-2.767-1.968-5.534-2.91-8.316-.625-1.845-.25-2.669,1.493-3.5a23.213,23.213,0,0,1,4.5-1.688c1.86-.448,2.9-.034,3.763,1.644.289.563.614.335.952.253a42.361,42.361,0,0,0,6.176-2.245c3.417-1.421,6.858-2.742,10.664-2.44a64.706,64.706,0,0,1,8.664,1.578,26.873,26.873,0,0,1,4.221,1A4.772,4.772,0,0,1,44,182.12c.028.9.311.9,1.053.758q11.539-2.215,23.093-4.352a8.838,8.838,0,0,1,2.814-.1,4.368,4.368,0,0,1,3.877,3.273,4.172,4.172,0,0,1-1.313,4.569,12.72,12.72,0,0,1-4.254,2.445c-8.339,3.3-16.668,6.627-25.017,9.9a21.177,21.177,0,0,1-7.394,1.588m.09-2.341a14.07,14.07,0,0,0,5.5-1.076q13.928-5.521,27.855-11.04c2.049-.813,2.8-1.947,2.321-3.477-.429-1.383-1.649-1.889-3.727-1.5q-11.784,2.188-23.564,4.4a7.105,7.105,0,0,0-3.764,1.424,3.955,3.955,0,0,1-3.345.8c-3.4-.593-6.783-1.237-10.169-1.886-1.018-.2-1.483-1.059-1.015-1.8.446-.7,1.138-.594,1.8-.472q4.565.841,9.125,1.706a2.876,2.876,0,0,0,3.626-2.1,2.78,2.78,0,0,0-2.46-3.369c-3.268-.636-6.537-1.277-9.818-1.837-1.527-.261-3.067-.9-4.638-.353-4.367,1.511-8.713,3.079-13.077,4.6-.556.193-.613.439-.433.942q2.509,7.024,4.981,14.061c.194.553.407.711,1.005.472,4.166-1.667,8.412-1.512,12.72-.6a35.641,35.641,0,0,0,7.072,1.107M7.24,179.947c-1.324.468-2.718.984-4.128,1.449-.624.206-.755.463-.5,1.112.653,1.675,1.2,3.39,1.8,5.086,1.707,4.83,3.426,9.656,5.119,14.491.239.684.464,1.055,1.3.689a35.224,35.224,0,0,1,3.534-1.26c.664-.209.832-.5.586-1.182q-3.552-9.88-7.049-19.78c-.107-.3-.156-.623-.665-.6" transform="translate(0 -133.709)" fill="#12263f"/>
        <path id="Trazado_615327" data-name="Trazado 615327" d="M100.611,7.973c0,1.884.02,3.768-.006,5.652-.017,1.293-.417,1.581-1.7,1.3a7.765,7.765,0,0,0-3.7-.321,5.577,5.577,0,0,0,2.457,10.88c2.968-.64,2.968-.64,2.968,2.4,0,3.179.006,6.359,0,9.538-.005,2.027-.649,2.651-2.7,2.656-1.178,0-2.356.024-3.532-.008a2.032,2.032,0,0,1-2.156-2.138c-.042-1.137-.058-2.279.006-3.414a.957.957,0,0,0-.9-1.133c-.717-.124-1.344-1.133-2.19-.156-.717.829-1.528,1.58-2.325,2.335a2.03,2.03,0,0,1-3.2.015q-1.406-1.34-2.746-2.748a1.977,1.977,0,0,1-.025-3.1q1.164-1.248,2.414-2.414c.411-.383.569-.772.213-1.215-.486-.606-.147-1.854-1.438-1.836-1.138.016-2.277.026-3.415-.005a2.06,2.06,0,0,1-2.22-2.311q-.03-1.884,0-3.768c.022-1.57.725-2.274,2.329-2.313,1.1-.027,2.2-.038,3.3.018a.885.885,0,0,0,1.037-.855c.105-.726,1.162-1.339.222-2.2-.838-.768-1.635-1.585-2.413-2.415a2,2,0,0,1,0-3.111q1.373-1.455,2.831-2.829a1.98,1.98,0,0,1,3.029.009c.8.749,1.6,1.515,2.328,2.332.473.528.861.491,1.519.3a1.987,1.987,0,0,0,1.662-2.533A11.953,11.953,0,0,1,92.238,2.1,2.053,2.053,0,0,1,94.351.027C95.645-.017,96.942,0,98.237.018a2.1,2.1,0,0,1,2.364,2.3c.04,1.883.009,3.768.01,5.652m-2.42,24.808c0-1.334-.034-2.67.013-4,.028-.8-.237-.972-1.028-.876a7.918,7.918,0,0,1-8.214-10.562c1.293-3.367,4.181-5.28,8.114-5.234.966.011,1.19-.276,1.163-1.175-.058-1.961-.018-3.925-.018-5.887,0-2.822,0-2.8-2.819-2.7-.7.025-.854.285-.837.912.035,1.255-.011,2.512.016,3.768a1.344,1.344,0,0,1-1.148,1.518A10.146,10.146,0,0,0,90.41,9.807a1.4,1.4,0,0,1-1.985-.278c-.9-.932-1.837-1.826-2.73-2.763-.337-.354-.546-.392-.95-.044-2.27,1.96-2.281,1.947-.187,4.049.083.083.169.164.252.247,2.031,2.04,2.11,1.855.785,4.115a3.266,3.266,0,0,0-.189.431c-1.085,2.672-1.085,2.672-3.945,2.67-2.876,0-2.852,0-2.712,2.9.031.649.275.788.849.776,1.295-.027,2.591.008,3.886-.012a1.242,1.242,0,0,1,1.37,1.021,12.072,12.072,0,0,0,1.331,3.25,1.368,1.368,0,0,1-.316,1.888c-.821.787-1.575,1.65-2.43,2.4-.687.6-.712.995-.026,1.65,1.8,1.723,1.773,1.756,3.537-.024,2.122-2.142,2.122-2.142,4.959-.992,2.656,1.077,2.656,1.077,2.656,3.961,0,2.835,0,2.815,2.82,2.681.616-.029.825-.229.814-.826-.025-1.374-.008-2.748-.006-4.122" transform="translate(-58.394 0)" fill="#12263f"/>
        <path id="Trazado_615328" data-name="Trazado 615328" d="M187.235,19.852c0-4.434.008-8.869-.006-13.3a7.113,7.113,0,0,1,.549-2.862,5.4,5.4,0,0,1,10.281.366c.294.988.652,1.154,1.651,1.091,3.553-.222,6.892,2.9,7.369,6.74a8.319,8.319,0,0,1-1.3,5.951c-.413.6-.281.878.153,1.362a9.931,9.931,0,0,1-.265,13.634,7.386,7.386,0,0,1-6.738,2.261c-.963-.175-.817.551-1,.944a5.409,5.409,0,0,1-10.261-.233,7.379,7.379,0,0,1-.442-2.647c.016-4.434.007-8.869.007-13.3m2.375-.083H189.6q0,6.359,0,12.719a7.1,7.1,0,0,0,.181,1.865c.477,1.772,1.468,2.767,2.873,2.8a3.552,3.552,0,0,0,3.322-2.692c.572-2-.4-3.479-1.719-4.825-.508-.518-1.063-1.132-.493-1.839.59-.732,1.379-.389,2,.047a5.6,5.6,0,0,1,2.382,3.526c.27,1.371,1.144,1.543,2.214,1.456a5.672,5.672,0,0,0,3.213-1.315,7.666,7.666,0,0,0,.454-10.943.734.734,0,0,0-1.093-.1,10.173,10.173,0,0,1-5.832,1.51c-1.407-.056-2.143-.554-2.119-1.37.025-.87.695-1.189,2.222-1.057.039,0,.078.011.117.014a6.971,6.971,0,0,0,5.5-1.923,6.036,6.036,0,0,0,1.8-6.023A5.178,5.178,0,0,0,200.607,7.6c-1.52-.378-2.179-.053-2.735,1.4a7.574,7.574,0,0,1-2.48,3.363c-.661.508-1.5,1.064-2.208.32-.771-.809-.009-1.5.567-2.1.353-.368.734-.711,1.066-1.1a5.324,5.324,0,0,0,1.274-2.859,3.357,3.357,0,0,0-4-3.89,3.534,3.534,0,0,0-2.467,3.612c-.04,4.475-.013,8.95-.013,13.425" transform="translate(-143.108 -0.086)" fill="#12263f"/>
      </g>
    </g>
    <g id="Grupo_1073310" data-name="Grupo 1073310" transform="translate(12017.601 -8090.298)">
      <g id="Grupo_1073295" data-name="Grupo 1073295" clip-path="url(#clip-path-5)">
        <path id="Trazado_615322" data-name="Trazado 615322" d="M77.633,13.148c0,2.415.006,4.83,0,7.245,0,1.249-.387,1.643-1.639,1.648-3.329.012-6.657.019-9.986-.007a1.679,1.679,0,0,0-1.472.708c-1.96,2.408-4.375,4-7.627,3.869a1.345,1.345,0,0,0-1.063.565q-5.672,5.677-11.35,11.347c-1.145,1.144-1.583,1.14-2.749-.026Q30.6,27.358,19.453,16.216c-1.113-1.113-1.118-1.588-.026-2.68Q25.794,7.166,32.166.8c1.069-1.068,1.529-1.067,2.6,0S36.913,2.9,37.941,4a1.037,1.037,0,0,0,1.278.283,55.883,55.883,0,0,1,6.362-2.185,9.821,9.821,0,0,1,6.027.646,73.942,73.942,0,0,1,7.986,4.118,8.845,8.845,0,0,0,3.01,1.1c.434.073.66.009.725-.49a1.152,1.152,0,0,1,1.32-1.025c.849,0,1.7-.02,2.545.005.48.014.68-.116.714-.647.089-1.382.437-1.671,1.829-1.673q2.986,0,5.972,0c1.55,0,1.92.362,1.922,1.876q0,3.573,0,7.147m-14.345,2.3c0-1.435-.017-2.87.009-4.305.01-.539-.176-.743-.722-.774a9.118,9.118,0,0,1-4.05-1.31c-2.455-1.415-4.951-2.752-7.53-3.928a7.637,7.637,0,0,0-5.335-.56C44.1,5.013,42.6,5.663,41.063,6.2c-.453.16-.594.32-.19.716,1.3,1.278,2.589,2.576,3.878,3.869a2.152,2.152,0,0,0,.952.466q3.769,1.185,7.533,2.387c1.086.347,1.531.973,1.253,1.728s-.941.95-1.981.62q-5.161-1.636-10.324-3.268a2.375,2.375,0,0,0-2.875,1.038,2.436,2.436,0,0,0,.535,3.022,4.8,4.8,0,0,0,1.888.985q4.339,1.482,8.687,2.941a2.292,2.292,0,0,1,1.111.74,6.86,6.86,0,0,0,10.856.085,3.224,3.224,0,0,0,.924-2.462c-.087-1.2-.021-2.412-.021-3.619M40.7,10.112c-.759-.721-1.431-1.291-2.019-1.939a.923.923,0,0,0-1.393-.212C35.3,9.128,33,9.6,31.021,8.518c-2.046-1.119-3.077-.307-4.2,1.1a1.655,1.655,0,0,1-.278.275c-.351.269-.334.517-.108.906a7.646,7.646,0,0,1,.034,8.076.724.724,0,0,0,.16,1.064q5.724,5.693,11.414,11.419a.78.78,0,0,0,1.157.127c2.02-1.19,4.32-1.678,6.355-.6s3.089.351,4.207-1.1a2.234,2.234,0,0,1,.344-.347.484.484,0,0,0,.114-.748,7.752,7.752,0,0,1-1.147-5.239c.051-.493-.122-.677-.584-.809a26.635,26.635,0,0,1-2.676-.92c-.6-.242-.8-.1-1.038.5a6.958,6.958,0,1,1-8.461-9.23c.334-.108.689-.116.9-.49A5.132,5.132,0,0,1,40.7,10.112m29.656,2.92c0,1.89.039,3.781-.019,5.669-.023.758.225.943.937.9,1.04-.059,2.086-.046,3.127,0,.6.025.785-.172.781-.769q-.033-5.719,0-11.438c0-.616-.22-.779-.8-.759q-1.66.056-3.323,0c-.563-.019-.723.181-.715.727.027,1.89.011,3.78.01,5.67M33.769,19.309a4.671,4.671,0,0,0,3.291,4.733,4.529,4.529,0,0,0,5.134-2.065c.636-1.085.577-1.244-.629-1.667-.368-.129-.74-.248-1.106-.383a5.459,5.459,0,0,1-3.777-3.882c-.156-.635-.462-.387-.765-.19a4.425,4.425,0,0,0-2.148,3.455m31.942-5.1c0,1.532.055,3.066-.021,4.593-.045.914.492.823,1.042.783.506-.037,1.2.311,1.178-.742-.051-3.062-.046-6.126,0-9.189.015-1.027-.661-.723-1.185-.764-.59-.046-1.071-.048-1.031.821.068,1.5.019,3,.019,4.5m-40.569.961a5.312,5.312,0,0,0-.309-2.058c-.343-1.062-.423-1.073-1.189-.315q-.38.377-.757.756c-1.311,1.317-1.324,1.331.006,2.625.47.457.956,1.419,1.459,1.208.676-.283.619-1.329.785-2.079.027-.124,0-.258,0-.138M40.271,33.691c.888.845,1.72,1.61,2.518,2.409.3.3.481.175.711-.059.637-.651,1.261-1.316,1.935-1.927.528-.479.259-.645-.218-.834a5.378,5.378,0,0,0-4.946.411M33.465,6.5l.006.052a14.537,14.537,0,0,0,1.442-.23c1.438-.374,1.453-.451.425-1.478l-.623-.621c-1.255-1.257-1.275-1.277-2.5.009-.475.5-1.5,1.02-1.255,1.539.32.669,1.389.69,2.213.729.1,0,.2,0,.293,0M52.2,27.156l1.373-1.177-2.092-1.1a4.428,4.428,0,0,0,.719,2.275" transform="translate(-14.968 0)" fill="#12263f"/>
        <path id="Trazado_615323" data-name="Trazado 615323" d="M0,207.2c0-2.414-.006-4.827,0-7.241,0-1.232.4-1.624,1.651-1.627,3.327-.007,6.654-.015,9.981.009a1.524,1.524,0,0,0,1.4-.639A9.287,9.287,0,0,1,27.7,197a2.634,2.634,0,0,0,1.273.673q3.966,1.369,7.95,2.684a5.749,5.749,0,0,1,3.716,3.085c.248.558.571.4.939.293,2.694-.75,5.393-1.481,8.078-2.261s5-.09,6.232,1.9c1.747,2.811.421,6.253-3.027,7.547-4.415,1.657-8.874,3.2-13.313,4.793-1.989.715-3.967,1.463-5.961,2.164a10.249,10.249,0,0,1-7.8-.348,80.285,80.285,0,0,1-7.8-4.046,7.915,7.915,0,0,0-2.822-1.041c-.437-.065-.8-.1-.888.546-.1.744-.716.951-1.384.964-.815.016-1.631.02-2.446,0-.449-.011-.7.046-.727.612-.08,1.394-.362,1.631-1.738,1.638q-3.131.016-6.262,0C.349,216.189.006,215.83,0,214.438Q0,210.818,0,207.2m30.261,8.81a6.526,6.526,0,0,0,2.372-.412q9.227-3.317,18.454-6.634a5.423,5.423,0,0,0,2.364-1.306,2.234,2.234,0,0,0,.66-2.222c-.433-1.528-1.644-2.158-3.389-1.685-2.95.8-5.887,1.645-8.842,2.426a1.5,1.5,0,0,0-1.148,1,4.664,4.664,0,0,1-5.712,2.889c-3.647-1.082-7.261-2.273-10.882-3.438-.874-.281-1.273-.943-.995-1.61a1.264,1.264,0,0,1,1.776-.705c1.175.381,2.356.744,3.535,1.118,2.355.747,4.7,1.515,7.069,2.233a2.318,2.318,0,0,0,2.835-1.138,2.442,2.442,0,0,0-.63-3,4.331,4.331,0,0,0-1.537-.831q-4.434-1.5-8.873-2.995a2.408,2.408,0,0,1-1.2-.774,6.873,6.873,0,0,0-11.277.42,2.423,2.423,0,0,0-.5,1.532c.022,2.641.047,5.284-.013,7.924-.019.823.211,1.179,1.033,1.235a9.06,9.06,0,0,1,3.931,1.361c2.4,1.387,4.838,2.684,7.36,3.83a8.615,8.615,0,0,0,3.615.783M7.275,207.318c0-1.922-.021-3.845.012-5.767.01-.6-.182-.8-.777-.776-1.106.039-2.216.033-3.323,0-.548-.015-.738.18-.735.73q.024,5.767,0,11.533c0,.554.194.741.743.724,1.107-.033,2.216-.041,3.323,0,.611.024.778-.2.769-.782-.03-1.889-.011-3.779-.011-5.669m4.649-1.223c0-1.5-.051-3,.019-4.5.042-.891-.474-.843-1.044-.808-.525.032-1.192-.262-1.175.767.049,3.03.055,6.063,0,9.093-.021,1.1.7.737,1.236.8.646.077,1.023-.039.985-.859-.069-1.5-.02-3-.02-4.5" transform="translate(0 -155.806)" fill="#12263f"/>
        <path id="Trazado_615324" data-name="Trazado 615324" d="M214.539,78.55a1.125,1.125,0,0,1-1.18,1.167,1.172,1.172,0,0,1-1.215-1.245,1.154,1.154,0,0,1,1.193-1.171,1.171,1.171,0,0,1,1.2,1.249" transform="translate(-170.604 -62.164)" fill="#12263f"/>
        <path id="Trazado_615325" data-name="Trazado 615325" d="M98.1,241.281a1.181,1.181,0,0,1-1.274,1.178,1.2,1.2,0,0,1,.041-2.4,1.181,1.181,0,0,1,1.233,1.224" transform="translate(-76.973 -193.051)" fill="#12263f"/>
      </g>
    </g>
    <g id="Grupo_1073311" data-name="Grupo 1073311" transform="translate(12229.631 -8096.612)">
      <g id="Grupo_1073293" data-name="Grupo 1073293" clip-path="url(#clip-path-6)">
        <path id="Trazado_615316" data-name="Trazado 615316" d="M77.09,77.89c1.229.419,2.424.793,3.593,1.233a22.6,22.6,0,0,1,7.8,4.938,3.446,3.446,0,0,0,2.436.966c2.184.117,2.232.217,2.233,2.4,0,.349.026.7,0,1.048-.059.668.135.966.889,1.1,2.349.41,3.235,1.556,3.243,3.973.008,2.009.018,4.018-.006,6.027a3.246,3.246,0,0,1-2.986,3.506c-1,.12-1.173.545-1.153,1.429.053,2.357-.02,4.717.033,7.075.027,1.177-.446,1.58-1.574,1.411a41.773,41.773,0,0,0-19.48,1.9,1.844,1.844,0,0,1-1.249-.022,41.637,41.637,0,0,0-19.353-1.887c-1.174.176-1.695-.206-1.665-1.459.058-2.444-.006-4.892.03-7.337.01-.7-.2-.96-.927-1.072a3.518,3.518,0,0,1-3.283-3.851c-.024-1.921-.02-3.844,0-5.765.022-2.242,1.057-3.582,3.232-3.906.934-.139.973-.565.976-1.286.016-3.076.03-3.087,3.063-3.331a1.711,1.711,0,0,0,1.151-.5A24.658,24.658,0,0,1,65.6,78.068a2.233,2.233,0,0,0,.431-.249c-4.047-2.227-6.545-5.5-7.044-10.084a12.155,12.155,0,0,1,3.17-9.782,12.636,12.636,0,0,1,18.613-.139c4.423,4.6,5.588,14.632-3.68,20.076M70.7,100.816c0-3.713-.013-7.426.011-11.139,0-.689-.113-1.087-.883-1.325a42.964,42.964,0,0,0-17.2-1.732c-.754.077-1.235.319-1.108,1.2.106.735-.347,1.609,1.025,1.789,2.092.273,3.1,1.579,3.139,3.684.033,1.965.023,3.931,0,5.9-.021,2.369-.97,3.531-3.3,3.937-.662.115-.878.359-.868,1,.029,1.834.008,3.669.009,5.5,0,1.643.009,1.7,1.651,1.51a41.716,41.716,0,0,1,16.427,1.631c.92.267,1.119.09,1.11-.824-.037-3.713-.015-7.426-.015-11.139m1.636.015c0,3.713.023,7.426-.017,11.139-.01.919.2,1.089,1.1.814a41.034,41.034,0,0,1,4.57-1.094,38.9,38.9,0,0,1,12.247-.5c.924.123,1.337-.067,1.286-1.136-.092-1.918-.056-3.844-.011-5.764.018-.739-.149-1.055-.962-1.172a3.458,3.458,0,0,1-3.25-3.738q-.046-3.014,0-6.028c.032-2.083,1.091-3.479,3.121-3.718,1.437-.169.969-1.075,1.087-1.848.144-.941-.423-1.085-1.13-1.158a42.913,42.913,0,0,0-17.071,1.7,1.185,1.185,0,0,0-.99,1.375c.039,3.712.017,7.426.018,11.138M60.544,66.441a10.974,10.974,0,0,0,21.947-.011,10.974,10.974,0,1,0-21.947.011M56.465,84.69a47.146,47.146,0,0,1,14.589,2.344,1.957,1.957,0,0,0,1.268-.132,39.571,39.571,0,0,1,7.634-1.713c2.14-.228,4.286-.4,6.49-.6-7.906-7.329-21.766-7.459-29.98.1M95.676,96.451c0-1.091.033-2.183-.009-3.273a1.849,1.849,0,0,0-1.973-1.964c-.872-.035-1.746-.029-2.618,0a1.886,1.886,0,0,0-2.108,1.985c-.062,2.093-.059,4.19,0,6.283a1.9,1.9,0,0,0,2.062,2.04c.872.031,1.746.031,2.618,0a1.884,1.884,0,0,0,2.025-2.056c.034-1,.007-2.007.005-3.011M54,96.386c0-1.09.017-2.181,0-3.271a1.746,1.746,0,0,0-1.87-1.9c-.958-.039-1.92-.041-2.878,0A1.7,1.7,0,0,0,47.41,93c-.036,2.224-.031,4.449,0,6.673a1.714,1.714,0,0,0,1.8,1.832c.956.058,1.919.047,2.877.009A1.8,1.8,0,0,0,54,99.526c.027-1.046.006-2.093,0-3.14" transform="translate(-33.681 -39.693)" fill="#12263f" stroke="#12263f" stroke-width="1"/>
        <path id="Trazado_615317" data-name="Trazado 615317" d="M12.453,26.743c-1.614,0-3.229.027-4.843-.007-1.985-.042-3.037-.949-3.187-2.886A6.525,6.525,0,0,0,2.877,20.2,11.911,11.911,0,0,1,1.22,7.188,11.647,11.647,0,0,1,12.067.006,11.672,11.672,0,0,1,23.421,6.787a11.767,11.767,0,0,1-1.263,13.147,8.064,8.064,0,0,0-1.8,4.24A2.6,2.6,0,0,1,17.687,26.7c-1.742.073-3.489.017-5.234.017v.024m-.125-1.624c1.616,0,3.232-.009,4.848,0,.85.007,1.538-.285,1.568-1.2.067-2.09,1.114-3.667,2.319-5.275a10.181,10.181,0,0,0,1.72-9.057,10.674,10.674,0,0,0-8.755-7.83A10.424,10.424,0,0,0,3.23,6.894,10.41,10.41,0,0,0,3.9,18.807,8.455,8.455,0,0,1,6.074,23.73c.041,1.028.672,1.418,1.668,1.4,1.528-.031,3.057-.008,4.586-.008" transform="translate(0 0)" fill="#12263f" stroke="#12263f" stroke-width="1"/>
        <path id="Trazado_615318" data-name="Trazado 615318" d="M30.835,108.206c-1.567,0-3.134-.01-4.7.006-.614.006-1.233-.066-1.249-.8s.575-.853,1.2-.85q4.7.017,9.4,0c.633,0,1.193.119,1.172.87-.019.67-.546.784-1.128.778-1.567-.016-3.134-.006-4.7-.005" transform="translate(-18.362 -78.628)" fill="#12263f" stroke="#12263f" stroke-width="1"/>
        <path id="Trazado_615319" data-name="Trazado 615319" d="M30.749,117.556c1.528,0,3.057-.005,4.585,0,.6,0,1.369-.1,1.327.809-.039.846-.768.8-1.39.8-3.013,0-6.026-.006-9.038,0-.656,0-1.344-.063-1.344-.864,0-.764.692-.75,1.276-.748,1.528.005,3.056,0,4.585,0" transform="translate(-18.364 -86.738)" fill="#12263f" stroke="#12263f" stroke-width="1"/>
        <path id="Trazado_615320" data-name="Trazado 615320" d="M36.4,129.694q-1.373,0-2.746,0c-.57,0-1.092-.144-1.133-.809s.473-.9,1.04-.9c1.918-.019,3.836-.015,5.754,0,.523,0,.988.226,1.007.808.021.657-.456.89-1.045.9-.959.011-1.918,0-2.877,0" transform="translate(-23.997 -94.425)" fill="#12263f" stroke="#12263f" stroke-width="1"/>
        <path id="Trazado_615321" data-name="Trazado 615321" d="M17.132,24.2c-.011-2.4,2.936-5.926,5.472-6.432.451-.09.921-.115,1.117.395a.8.8,0,0,1-.54,1.143,6.449,6.449,0,0,0-4.476,5.3.776.776,0,0,1-.949.69c-.557-.1-.643-.51-.624-1.1" transform="translate(-12.64 -13.075)" fill="#12263f" stroke="#12263f" stroke-width="1"/>
      </g>
    </g>
  </g>
</svg>
