<svg xmlns="http://www.w3.org/2000/svg" xmlns:xlink="http://www.w3.org/1999/xlink" width="120.828" height="120.83" viewBox="0 0 120.828 120.83">
  <defs>
    <clipPath id="clip-path">
      <rect id="Rectángulo_378691" data-name="Rectángulo 378691" width="69.279" height="68.614" fill="#12263f"/>
    </clipPath>
  </defs>
  <g id="Grupo_1073143" data-name="Grupo 1073143" transform="translate(-292.865 -9557)">
    <g id="Grupo_1072889" data-name="Grupo 1072889" transform="translate(292.865 9557)">
      <g id="Grupo_1072868" data-name="Grupo 1072868">
        <rect id="Rectángulo_377974" data-name="Rectángulo 377974" width="120.595" height="120.595" fill="none"/>
        <path id="Trazado_610930" data-name="Trazado 610930" d="M-10.279,8.174,89.014.268l13.023,109.525L-7.755,120.838Z" transform="translate(13.179 -0.009)" fill="#ffed33"/>
        <path id="Trazado_610931" data-name="Trazado 610931" d="M-22853.207-5608.83l-25.732,25.318-.826-1.652-2.2.688-1.652-.688-4.539-1.514,30.268-30.133v1.926h1.791v2.339Z" transform="translate(22974.035 5702.058)" fill="#ffa346"/>
        <path id="Trazado_610932" data-name="Trazado 610932" d="M-22853.207-5608.83l-25.732,25.318-.826-1.652-2.2.688-1.652-.688-4.539-1.514,30.268-30.133v1.926h1.791v2.339Z" transform="translate(22888.156 5616.811)" fill="#ffa346"/>
      </g>
      <path id="Intersección_4" data-name="Intersección 4" d="M24.244,0l1.338,11.236L13.887,22.741,0,24.138Z" transform="translate(88.794 88.344)" fill="#fbdb0a"/>
      <path id="Intersección_3" data-name="Intersección 3" d="M4.713,25.868l-2.2.687L.859,25.868l-.747-.249L0,20.685,20.021.76,29.558,0l1.711,2.2L5.537,27.519Z" transform="translate(3.683 5.78)" fill="#fbdb0a"/>
      <rect id="Rectángulo_377980" data-name="Rectángulo 377980" width="70.661" height="70.661" transform="translate(25.438 26.38)" fill="#ffed33"/>
      <g id="Grupo_1073151" data-name="Grupo 1073151" transform="translate(23.721 23.756)">
        <g id="Grupo_1073150" data-name="Grupo 1073150" clip-path="url(#clip-path)">
          <path id="Trazado_615228" data-name="Trazado 615228" d="M32.315,124.292c0,2.366-.007,4.731.007,7.1,0,.843-.108,1.662-1.139,1.679-1.115.018-1.208-.844-1.206-1.726.01-4.46-.009-8.919.009-13.379a8.312,8.312,0,0,0-4.438-7.739c-3.152-1.819-6.28-3.683-9.422-5.52-1.463-.855-2.849-.641-3.575.533-.756,1.224-.28,2.584,1.236,3.471,1.838,1.075,3.686,2.133,5.53,3.2.2.116.407.226.6.352a1.129,1.129,0,0,1,.475,1.681,1.1,1.1,0,0,1-1.626.337c-2.314-1.336-4.653-2.632-6.921-4.041a3.744,3.744,0,0,1-1.905-3.744,12.091,12.091,0,0,0-.688-4.985C8.485,98.67,7.738,95.828,6.943,93a2.413,2.413,0,0,0-2.868-1.9,2.346,2.346,0,0,0-1.567,3.117q2.421,9.08,4.839,18.16A4.886,4.886,0,0,0,8.906,114.9c2.392,2.093,4.743,4.233,7.144,6.316a6.273,6.273,0,0,1,2.308,5.1c-.033,1.745-.015,3.49,0,5.235.006.835-.232,1.53-1.181,1.523s-1.168-.712-1.161-1.542c.014-1.706-.034-3.414.015-5.119a4.251,4.251,0,0,0-1.619-3.551c-2.029-1.741-3.953-3.61-6.025-5.3a10.166,10.166,0,0,1-3.624-5.744C3.358,106.075,1.748,100.38.2,94.671a4.486,4.486,0,0,1,1.533-4.893,1.492,1.492,0,0,0,.587-1.16,4.742,4.742,0,0,1,4.167-4.574,4.864,4.864,0,0,1,5.06,3.612q1.91,6.692,3.78,13.395A1.709,1.709,0,0,0,16.3,102.2a128.163,128.163,0,0,1,11.986,7.1,9.623,9.623,0,0,1,4.019,8.018c.058,2.325.011,4.653.013,6.98M6.843,86.352A2.417,2.417,0,0,0,5,87.52c-.371.644-.509,1.1.52,1.307a4.664,4.664,0,0,1,3.739,3.691q1.217,4.589,2.475,9.167c.08.291.006.874.682.636.521-.184.747-.426.575-1.022-1.264-4.376-2.491-8.761-3.759-13.136a2.536,2.536,0,0,0-2.394-1.811" transform="translate(0 -64.462)" fill="#12263f"/>
          <path id="Trazado_615229" data-name="Trazado 615229" d="M158.7,124.175c.116-2.749-.232-5.511.157-8.248a9.917,9.917,0,0,1,5.019-7.44c3.7-2.175,7.324-4.5,11.177-6.416.471-.235.516-.626.63-1.027q1.872-6.583,3.742-13.166a4.886,4.886,0,0,1,5.008-3.83,4.735,4.735,0,0,1,4.264,4.717,1.409,1.409,0,0,0,.6,1.033,4.484,4.484,0,0,1,1.529,4.793q-2.493,9.3-4.954,18.611a6.68,6.68,0,0,1-2.137,3.38c-2.392,2.094-4.742,4.236-7.147,6.314a4.253,4.253,0,0,0-1.6,3.557c.053,1.7,0,3.412.015,5.119.005.839-.246,1.526-1.194,1.509s-1.155-.729-1.149-1.556q.022-2.676,0-5.352a6.046,6.046,0,0,1,2.158-4.815c2.1-1.844,4.11-3.786,6.279-5.538a8.344,8.344,0,0,0,2.95-4.688c1.44-5.7,2.993-11.369,4.5-17.052a2.311,2.311,0,0,0-1.545-2.935,2.348,2.348,0,0,0-2.859,1.574c-1.083,3.872-2.089,7.766-3.148,11.645a3.007,3.007,0,0,0,.06,1.254,4.6,4.6,0,0,1-2.412,4.982q-3.074,1.763-6.133,3.55c-.721.423-1.441.579-1.914-.243s.013-1.368.742-1.783c1.952-1.111,3.893-2.241,5.835-3.371,1.539-.9,2.041-2.191,1.347-3.444s-2.108-1.485-3.636-.591q-4.814,2.816-9.621,5.644a8.092,8.092,0,0,0-4.225,7.386c-.012,4.383,0,8.765,0,13.148q0,.407,0,.814c0,.813-.342,1.4-1.212,1.374-.8-.021-1.12-.588-1.12-1.348q0-2.792,0-5.585,0-.989,0-1.978m25.517-37.789a2.508,2.508,0,0,0-2.456,1.895c-1.219,4.225-2.4,8.459-3.617,12.686-.167.581-.424,1.147.45,1.35s.678-.61.776-.956c.84-2.969,1.6-5.96,2.408-8.938a4.764,4.764,0,0,1,3.474-3.549c1.2-.343,1.324-.875.413-1.789a2.331,2.331,0,0,0-1.449-.7" transform="translate(-121.739 -64.473)" fill="#12263f"/>
          <path id="Trazado_615230" data-name="Trazado 615230" d="M83.908,40.643c1.4,0,2.791-.025,4.186.011.6.016.863-.183,1.046-.785.719-2.366,1.522-4.707,2.279-7.062.592-1.841,1.312-2.572,2.564-2.555,1.218.017,1.931.738,2.494,2.5.732,2.282,1.515,4.548,2.19,6.847a1.229,1.229,0,0,0,1.438,1.071c2.557-.061,5.116-.026,7.674-.02,1.465,0,2.365.537,2.681,1.57.353,1.152-.035,2.087-1.243,2.966-2.1,1.526-4.188,3.066-6.309,4.561a1.076,1.076,0,0,0-.48,1.442c.843,2.448,1.63,4.915,2.438,7.375.463,1.41.224,2.476-.7,3.148s-1.93.569-3.192-.343c-2.008-1.453-4.04-2.876-6-4.391a1.344,1.344,0,0,0-1.984-.033c-1.986,1.546-4.054,2.985-6.1,4.455-1.245.895-2.267.97-3.191.271s-1.117-1.714-.638-3.165c.811-2.459,1.6-4.924,2.438-7.375a1.02,1.02,0,0,0-.453-1.354c-2.15-1.521-4.27-3.083-6.4-4.635-1.176-.857-1.6-1.867-1.179-2.975a2.4,2.4,0,0,1,2.6-1.524c1.279.026,2.558.006,3.837.006m18.525,18.877.2-.143c-.662-2.084-1.309-4.174-1.988-6.252-1.227-3.753-1.231-3.745,2-6.065,1.778-1.276,3.54-2.574,5.309-3.863-2.62-.219-5.162-.219-7.7-.219-2.664,0-3-.255-3.808-2.758-.778-2.41-1.579-4.812-2.456-7.477-.19.452-.287.644-.353.847-.765,2.354-1.518,4.712-2.288,7.065-.625,1.909-1.206,2.321-3.214,2.322-2.444,0-4.887-.007-7.331.011-.259,0-.607-.187-.823.236q2.744,1.986,5.469,3.957c3.06,2.209,3.059,2.237,1.861,5.831-.7,2.112-1.363,4.239-2.042,6.36a49.062,49.062,0,0,0,5.153-3.429c3.625-2.672,3.382-2.732,7.06-.01,1.638,1.212,3.3,2.392,4.95,3.586" transform="translate(-59.315 -23.21)" fill="#12263f"/>
          <path id="Trazado_615231" data-name="Trazado 615231" d="M143.826,2.282a8.924,8.924,0,0,1,.011-1.268A1.079,1.079,0,0,1,145.026,0a1.045,1.045,0,0,1,1.078,1,20.822,20.822,0,0,1,.023,2.423,1.155,1.155,0,1,1-2.31.009c-.026-.383,0-.769,0-1.154h.014" transform="translate(-110.332 0)" fill="#12263f"/>
          <path id="Trazado_615232" data-name="Trazado 615232" d="M65.864,49.821c-.069.843-.535,1.322-1.3,1.125a7,7,0,0,1-2.693-1.536,1.109,1.109,0,0,1,.8-1.847A6,6,0,0,1,65.736,49.3c.115.114.093.365.128.522" transform="translate(-47.232 -36.481)" fill="#12263f"/>
          <path id="Trazado_615233" data-name="Trazado 615233" d="M217.678,49.683a.991.991,0,0,1,.52-.9c.661-.4,1.316-.815,2.006-1.16a1.11,1.11,0,0,1,1.6.459,1.072,1.072,0,0,1-.414,1.515,14.951,14.951,0,0,1-2.11,1.207,1.1,1.1,0,0,1-1.6-1.119" transform="translate(-167.011 -36.409)" fill="#12263f"/>
          <path id="Trazado_615234" data-name="Trazado 615234" d="M98.6,16.92a1,1,0,0,1-.922-.533c-.4-.658-.817-1.314-1.157-2A1.1,1.1,0,0,1,97,12.794a1.078,1.078,0,0,1,1.509.433,15.994,15.994,0,0,1,1.156,2A1.106,1.106,0,0,1,98.6,16.92" transform="translate(-73.933 -9.698)" fill="#12263f"/>
          <path id="Trazado_615235" data-name="Trazado 615235" d="M187.664,16.933c-.9-.008-1.442-.649-1.181-1.41a8.575,8.575,0,0,1,1.431-2.5,1,1,0,0,1,1.266-.256.978.978,0,0,1,.66,1.11,6.894,6.894,0,0,1-1.64,2.874c-.128.145-.422.144-.537.179" transform="translate(-143.028 -9.706)" fill="#12263f"/>
        </g>
      </g>
    </g>
  </g>
</svg>
