<svg xmlns="http://www.w3.org/2000/svg" xmlns:xlink="http://www.w3.org/1999/xlink" width="148" height="148" viewBox="0 0 148 148">
  <defs>
    <clipPath id="clip-path">
      <rect id="Rectángulo_378928" data-name="Rectángulo 378928" width="78.378" height="76.058" fill="#12263f"/>
    </clipPath>
  </defs>
  <g id="Grupo_1073247" data-name="Grupo 1073247" transform="translate(-292.865 -9557)">
    <g id="Grupo_1072889" data-name="Grupo 1072889" transform="translate(292.865 9557)">
      <g id="Grupo_1072868" data-name="Grupo 1072868">
        <rect id="Rectángulo_377974" data-name="Rectángulo 377974" width="147.714" height="147.714" fill="none"/>
        <path id="Trazado_610930" data-name="Trazado 610930" d="M-10.279,9.952,111.342.268l15.952,134.154L-7.187,147.951Z" transform="translate(13.831 0.049)" fill="#ffed33"/>
        <path id="Trazado_610931" data-name="Trazado 610931" d="M-22845.346-5607.035l-31.521,31.011-1.01-2.023-2.7.843-2.023-.843-5.561-1.854,37.076-36.91v2.359h2.191v2.865Z" transform="translate(22993.346 5721.227)" fill="#ffa346"/>
        <path id="Trazado_610932" data-name="Trazado 610932" d="M-22845.346-5607.035l-31.521,31.011-1.01-2.023-2.7.843-2.023-.843-5.561-1.854,37.076-36.91v2.359h2.191v2.865Z" transform="translate(22888.156 5616.811)" fill="#ffa346"/>
      </g>
      <path id="Intersección_4" data-name="Intersección 4" d="M29.7,0l1.639,13.763L17.01,27.855,0,29.566Z" transform="translate(108.761 108.21)" fill="#fbdb0a"/>
      <path id="Intersección_3" data-name="Intersección 3" d="M5.772,31.685l-2.7.842-2.022-.842-.915-.305L0,25.336,24.523.931,36.2,0l2.1,2.7L6.782,33.708Z" transform="translate(4.512 7.08)" fill="#fbdb0a"/>
      <rect id="Rectángulo_377980" data-name="Rectángulo 377980" width="86.551" height="86.551" transform="translate(31.158 32.312)" fill="#ffed33"/>
      <g id="Grupo_1073420" data-name="Grupo 1073420" transform="translate(34.811 35.971)">
        <g id="Grupo_1073419" data-name="Grupo 1073419" clip-path="url(#clip-path)">
          <path id="Trazado_615510" data-name="Trazado 615510" d="M57.031,60.073q0,5.123,0,10.247c0,.449,0,.9,0,1.346-.021,1.84-.677,2.518-2.521,2.523-4.407.013-8.813,0-13.22,0H23.418a10.5,10.5,0,0,1-1.1-.023,1.141,1.141,0,0,1-.04-2.274,7.668,7.668,0,0,1,1.22-.047c9.955,0,19.911-.021,29.866.025,1.144.005,1.437-.326,1.407-1.431-.076-2.772-.006-5.548-.046-8.322-.006-.4.377-1.061-.332-1.194a1.894,1.894,0,0,0-1.745,1.437c-.011,1.55,0,3.1,0,4.651,0,2.145-.631,2.783-2.767,2.783q-20.931,0-41.862-.006c-.789,0-1.443-.058-1.349,1.1.06.747.27.972,1,.963,2.774-.034,5.549-.014,8.323-.012a5.873,5.873,0,0,1,.977.03c.655.112,1.184.419,1.158,1.179-.026.741-.521,1.059-1.207,1.124-.2.019-.408.012-.612.012-3.1,0-6.2.008-9.3,0-1.88-.006-2.6-.723-2.61-2.567a4.89,4.89,0,0,1,0-.734c.121-.842-.194-1.2-1.07-1.1a5.906,5.906,0,0,1-1.465-.024A1.971,1.971,0,0,1,.018,67.82c-.034-.364-.012-.734-.012-1.1q0-31.825,0-63.65C.007.482.485,0,3.069,0H49.582c2.571,0,3.111.486,3.032,3.077-.033,1.1.285,1.374,1.357,1.344,2.591-.071,3.059.452,3.06,3.046q0,8.079,0,16.157c0,.62-.066,1.2.715,1.478a1.55,1.55,0,0,1,.8,1.17,6.027,6.027,0,0,0,4.414,4.471c.79.224,1.432.617,1.5,1.55a1.593,1.593,0,0,1-1.251,1.728c-.837.271-.273.694-.12,1.007a19.185,19.185,0,0,1,1.555,12.965,15.97,15.97,0,0,1-2.249,5.511,1.153,1.153,0,0,0,.274,1.819A15.567,15.567,0,0,1,64.054,56.7a1.842,1.842,0,0,0,1.862.821,1.758,1.758,0,0,1,1.489.718q1.678,1.7,3.373,3.375c.6.586.9,1.245.237,1.908-.692.692-1.322.278-1.89-.3-.885-.9-1.815-1.764-2.674-2.691-.461-.5-.774-.564-1.257-.024-.894,1-2.49,1.869-2.61,2.927-.127,1.118,1.605,1.957,2.529,2.909,2.159,2.225,4.389,4.381,6.555,6.6.5.511.814.632,1.339.032a27.647,27.647,0,0,1,2.333-2.337c.543-.488.458-.811-.036-1.256-.7-.627-1.342-1.311-1.994-1.986a1.072,1.072,0,0,1-.094-1.627,1.1,1.1,0,0,1,1.723.032c.967.936,1.938,1.871,2.85,2.859a1.89,1.89,0,0,1-.016,2.754c-1.286,1.365-2.616,2.691-3.975,3.984a1.9,1.9,0,0,1-2.849.031c-3.549-3.49-7.056-7.021-10.566-10.55-.221-.223-.5-.571-.47-.831.228-2.1-1.635-2.777-2.883-3.976M37.321,26.3c-.73,0-1.461.018-2.19-.005a1.138,1.138,0,1,1,.043-2.276,6.5,6.5,0,0,1,.734,0c2.926.25,5.86-.365,8.816.464,1.491.419,3.248.069,4.845.4.776.161.808-.119.8-.7-.015-1.877,0-3.753-.008-5.63,0-.807.137-1.55,1.122-1.541.952.009,1.161.723,1.159,1.541-.007,1.958.069,3.92-.031,5.873a1.582,1.582,0,0,0,1.261,1.845c.6.2.881.263.879-.521q-.026-9.118,0-18.236c0-.92-.552-.777-1.123-.817-.691-.048-1.043.093-1.01.912.064,1.548.007,3.1.023,4.65.009.862-.158,1.62-1.2,1.6-1.005-.015-1.083-.781-1.08-1.573.01-2.815-.051-5.631.029-8.444.033-1.176-.2-1.585-1.51-1.581Q26.3,2.339,3.721,2.264c-1.185,0-1.479.3-1.477,1.481q.057,31.148,0,62.3c0,1.221.367,1.462,1.512,1.459q22.581-.057,45.162-.025c.2,0,.409-.017.612,0,.639.058.863-.235.845-.861-.032-1.1-.052-2.2.007-3.3.043-.8-.216-.963-.983-.825a18.693,18.693,0,0,1-8.126-.269,16.378,16.378,0,0,0-4.3-.7c-8.894.044-17.787.022-26.681.021a9.862,9.862,0,0,1-1.1-.026.947.947,0,0,1-.894-.985,1,1,0,0,1,.826-1.172,5.729,5.729,0,0,1,1.1-.04q11.566,0,23.132-.009c.413,0,.866.137,1.164-.067-1.8-2.427-4.035-3.878-7.169-3.237a.76.76,0,0,1-.243-.013c-.684-.09-1.178-.4-1.155-1.161a1.093,1.093,0,0,1,1.2-1.115c.763-.029,1.527-.007,2.449-.007A17.6,17.6,0,0,1,28.55,51.49c-.27-.861-.768-1.051-1.616-1.046-5.548.037-11.1.02-16.645.017a5.065,5.065,0,0,1-1.1-.054A1.145,1.145,0,0,1,9.1,48.192a4.856,4.856,0,0,1,1.208-.106q7.588-.01,15.177,0c1.864,0,1.778.008,1.6-1.855-.11-1.138-.5-1.421-1.634-1.4-5.058.075-10.117.034-15.176.029a5.416,5.416,0,0,1-1.214-.078.982.982,0,0,1-.763-1.1.932.932,0,0,1,.847-1.021,9.567,9.567,0,0,1,1.221-.049q7.16,0,14.32,0c2.224,0,2.164-.009,2.5-2.215.149-.968-.1-1.139-1.018-1.132-5.263.042-10.526.021-15.788.02-.326,0-.653.008-.979-.012A1.038,1.038,0,0,1,8.3,38.08a1.016,1.016,0,0,1,1.085-1.071c.326-.016.652-.01.979-.01q8.323,0,16.645-.009c.382,0,.92.208,1.115-.249a28.842,28.842,0,0,1,2.727-4.856c-6.977,0-13.707,0-20.436,0a6.806,6.806,0,0,1-1.219-.048,1.017,1.017,0,0,1-.9-1.127.973.973,0,0,1,.946-1.067c.4-.039.815-.035,1.222-.035q10.709,0,21.418-.006c.477,0,.993.136,1.407-.238,1.241-1.119,2.656-1.991,4.032-3.065m8.751,4.99a11.963,11.963,0,0,0-3.967.633,12.387,12.387,0,1,0,15.962,8.969c-.146-.624-.311-1.025-1.1-.927a1.494,1.494,0,0,1-1.669-1.29,6.128,6.128,0,0,0-4.587-4.606c-.711-.183-1.417-.653-1.365-1.382.08-1.124-.67-1.105-1.324-1.229a18.111,18.111,0,0,0-1.948-.169m7.8-2.415a16.677,16.677,0,0,0-11.8-1.6,16.913,16.913,0,0,0-12.432,20.4c1.889,8.587,10.912,14.321,19.7,12.522a16.848,16.848,0,0,0,11.9-23.617c-.189-.405-.23-1.108-.787-1.079-.461.024-.694.629-.99,1.015-.4.521-.146.994.059,1.488a14.33,14.33,0,0,1,.488,10.035,14.674,14.674,0,1,1-9.26-18.228,2.428,2.428,0,0,0,3.12-.934m3.02,7.568A8,8,0,0,1,60.922,32.4a7.97,7.97,0,0,1-4.054-4.016,7.52,7.52,0,0,1-3.976,4.023,8.041,8.041,0,0,1,4,4.029m4.772,24.579c.465-.549.928-1.047,1.335-1.587s-.216-.685-.44-.937c-.537-.6-1.123-1.166-1.71-1.722-.174-.165-.288-.466-.688-.233-1.342.781-1.468,1.586-.361,2.7.286.286.567.577.858.858.258.248.526.485,1.007.925" transform="translate(0 -0.001)" fill="#12263f"/>
          <path id="Trazado_615511" data-name="Trazado 615511" d="M253.778,93.9a1.165,1.165,0,0,1-1.143-1.306c.007-.663-.171-.966-.89-.914a1.134,1.134,0,1,1,.025-2.248c.753.072.856-.313.865-.939a1.106,1.106,0,0,1,1.189-1.244,1.119,1.119,0,0,1,1.158,1.28c-.006.674.19.958.894.9a1.064,1.064,0,0,1,1.264,1.144,1.033,1.033,0,0,1-1.19,1.094c-.743-.044-.987.2-.976.957a1.159,1.159,0,0,1-1.2,1.271" transform="translate(-189.151 -65.885)" fill="#12263f"/>
          <path id="Trazado_615512" data-name="Trazado 615512" d="M45.828,100.35c-3.427,0-6.854-.005-10.282,0-.841,0-1.63-.087-1.622-1.167s.818-1.137,1.646-1.136q10.282.009,20.563.007c1.169,0,1.718.479,1.562,1.336-.164.9-.851.961-1.587.959q-5.141-.011-10.282,0" transform="translate(-25.618 -74.046)" fill="#12263f"/>
          <path id="Trazado_615513" data-name="Trazado 615513" d="M72.562,39.307c3.217,0,6.434.007,9.651,0,.863,0,1.628.174,1.605,1.2-.022.967-.811,1.107-1.589,1.107q-9.773.007-19.546,0c-.827,0-1.645-.153-1.6-1.213.038-.958.781-1.1,1.586-1.1,3.3.011,6.6,0,9.9,0" transform="translate(-46.126 -29.68)" fill="#12263f"/>
          <path id="Trazado_615514" data-name="Trazado 615514" d="M99.95,77.506c-3.18,0-6.361-.006-9.541,0-.817,0-1.671,0-1.676-1.09-.006-1.144.869-1.184,1.739-1.183q9.6.011,19.2,0c.758,0,1.551-.01,1.662,1,.107.975-.483,1.273-1.359,1.271-3.343-.01-6.687,0-10.03,0" transform="translate(-67.009 -56.817)" fill="#12263f"/>
          <path id="Trazado_615515" data-name="Trazado 615515" d="M41.9,219.31c2.12,0,4.241.006,6.361,0,.847,0,1.628.129,1.609,1.193-.017,1-.793,1.114-1.571,1.115q-6.422.008-12.844,0c-.777,0-1.54-.11-1.536-1.135,0-1.083.779-1.177,1.62-1.173,2.12.011,4.241,0,6.361,0" transform="translate(-25.615 -165.615)" fill="#12263f"/>
          <path id="Trazado_615516" data-name="Trazado 615516" d="M39.711,77.521c-1.5,0-3.009-.007-4.513,0-.758,0-1.286-.259-1.3-1.1s.5-1.161,1.253-1.163c3.049-.009,6.1,0,9.148,0,.767,0,1.317.382,1.324,1.127.007.828-.575,1.159-1.4,1.142-1.5-.03-3.008-.008-4.513-.009" transform="translate(-25.601 -56.833)" fill="#12263f"/>
          <path id="Trazado_615517" data-name="Trazado 615517" d="M163.172,184.317c2.119,0,4.239.015,6.358-.008.873-.01,1.639.195,1.643,1.185,0,.931-.76,1.152-1.564,1.153q-6.481,0-12.962,0c-.8,0-1.54-.221-1.511-1.192.028-.942.729-1.146,1.555-1.14,2.16.016,4.32.005,6.481.005" transform="translate(-117.154 -139.185)" fill="#12263f"/>
          <path id="Trazado_615518" data-name="Trazado 615518" d="M163.126,169.282c-2.118,0-4.236-.012-6.354.006-.851.008-1.635-.113-1.637-1.16,0-.986.761-1.11,1.558-1.109q6.476.008,12.952,0c.828,0,1.556.219,1.531,1.153-.024.909-.736,1.131-1.574,1.121-2.158-.027-4.318-.009-6.476-.009" transform="translate(-117.154 -126.128)" fill="#12263f"/>
          <path id="Trazado_615519" data-name="Trazado 615519" d="M167.729,149.365c1.666,0,3.332.011,5,0,.8-.007,1.415.281,1.455,1.12.046.944-.653,1.237-1.464,1.24q-5.059.02-10.118,0c-.793,0-1.526-.241-1.518-1.193s.708-1.169,1.526-1.166c1.707.006,3.414,0,5.12,0" transform="translate(-121.645 -112.793)" fill="#12263f"/>
          <path id="Trazado_615520" data-name="Trazado 615520" d="M173.627,204.191c-1.1,0-2.191.007-3.287,0-.759-.007-1.254-.35-1.258-1.159a1.046,1.046,0,0,1,1.183-1.1c2.272-.022,4.544-.014,6.816,0a1.077,1.077,0,0,1,1.214,1.089,1.125,1.125,0,0,1-1.26,1.18h-3.408" transform="translate(-127.687 -152.478)" fill="#12263f"/>
        </g>
      </g>
    </g>
  </g>
</svg>
