<svg xmlns="http://www.w3.org/2000/svg" xmlns:xlink="http://www.w3.org/1999/xlink" width="120" height="120" viewBox="0 0 120 120">
  <defs>
    <clipPath id="clip-path">
      <rect id="Rectángulo_378919" data-name="Rectángulo 378919" width="64.903" height="64.842" fill="#12263f"/>
    </clipPath>
  </defs>
  <g id="Grupo_1073197" data-name="Grupo 1073197" transform="translate(-292.865 -9557)">
    <g id="Grupo_1072889" data-name="Grupo 1072889" transform="translate(292.865 9557)">
      <g id="Grupo_1072868" data-name="Grupo 1072868">
        <rect id="Rectángulo_377974" data-name="Rectángulo 377974" width="119.714" height="119.714" fill="none"/>
        <path id="Trazado_610930" data-name="Trazado 610930" d="M-10.279,8.116,86.589.268,99.294,108.987-7.817,119.951Z" transform="translate(13.831 0.049)" fill="#ffed33"/>
        <path id="Trazado_610931" data-name="Trazado 610931" d="M-22845.346-5607.035l-31.521,31.011-1.01-2.023-2.7.843-2.023-.843-5.561-1.854,37.076-36.91v2.359h2.191v2.865Z" transform="translate(22965.346 5693.227)" fill="#ffa346"/>
        <path id="Trazado_610932" data-name="Trazado 610932" d="M-22845.346-5607.035l-31.521,31.011-1.01-2.023-2.7.843-2.023-.843-5.561-1.854,37.076-36.91v2.359h2.191v2.865Z" transform="translate(22888.156 5616.811)" fill="#ffa346"/>
      </g>
      <path id="Intersección_4" data-name="Intersección 4" d="M29.7,0l1.639,13.763L17.01,27.855,0,29.566Z" transform="translate(80.761 80.21)" fill="#fbdb0a"/>
      <path id="Intersección_3" data-name="Intersección 3" d="M5.772,31.685l-2.7.842-2.022-.842-.915-.305L0,25.336,24.523.931,36.2,0l2.1,2.7L6.782,33.708Z" transform="translate(4.512 7.08)" fill="#fbdb0a"/>
      <rect id="Rectángulo_377980" data-name="Rectángulo 377980" width="58.551" height="86.551" transform="translate(31.158 17.589)" fill="#ffed33"/>
      <g id="Grupo_1073402" data-name="Grupo 1073402" transform="translate(27.548 27.579)">
        <g id="Grupo_1073401" data-name="Grupo 1073401" clip-path="url(#clip-path)">
          <path id="Trazado_615479" data-name="Trazado 615479" d="M23.954,48.927a2.1,2.1,0,0,0-.34.184c-2.177,2.259-1.9,1.9-4.294.291-.112-.075-.22-.156-.331-.233-1.036-.711-1.034-.711-1.276.493-.06.3-.159.587-.2.887-.422,2.849-.847,2.222-2.881,2.276-.676.018-1.352,0-2.028,0-1.529,0-1.671-.125-1.982-1.663-.16-.793-.33-1.584-.5-2.375-.012-.054-.071-.1-.17-.226-.826.563-1.675,1.1-2.479,1.7a1.351,1.351,0,0,1-2.047-.148c-.883-.931-1.8-1.836-2.719-2.729A1.282,1.282,0,0,1,2.535,45.5c.493-.685.946-1.4,1.442-2.082.322-.444.358-.674-.3-.775-.9-.139-1.779-.382-2.67-.566a1.129,1.129,0,0,1-1-1.2C0,39.522,0,38.17,0,36.818a1.2,1.2,0,0,1,1.1-1.244c.759-.162,1.52-.319,2.286-.437.864-.133.935-.471.408-1.127-.485-.6-.893-1.271-1.333-1.911a1.215,1.215,0,0,1,.174-1.725q1.476-1.462,2.942-2.935A1.174,1.174,0,0,1,7.227,27.3c.755.511,1.513,1.02,2.252,1.554.424.306.63.274.717-.285.1-.665.276-1.319.408-1.98.161-.8.261-1.625,1.321-1.787.436-.066.25-.5.279-.76a20.279,20.279,0,0,1,6.658-13.264A19.447,19.447,0,0,1,32.814,5.526a4.977,4.977,0,0,0,3.5-1.133c2.451-1.953,2.487-1.907,4.374.65.4.543.8,1.087,1.216,1.621a1.1,1.1,0,0,0,1.154.469,1,1,0,0,0,.809-.923c.186-1.234.394-2.465.568-3.7.157-1.115.559-1.428,1.706-1.266,1.905.269,3.808.557,5.716.8a1.1,1.1,0,0,1,1.113,1.363c-.139,1.241-.286,2.482-.459,3.718-.08.568-.1,1.085.475,1.417s1.026.04,1.473-.3c.917-.692,1.833-1.385,2.762-2.06.913-.663,1.347-.614,2.044.294,1.173,1.527,2.307,3.084,3.47,4.618a1.2,1.2,0,0,1-.249,1.914c-.973.73-1.94,1.467-2.915,2.194a1.187,1.187,0,0,0-.618,1.276c.137.581.557.772,1.115.847,1.237.167,2.464.4,3.7.57a1.154,1.154,0,0,1,1.117,1.475q-.389,2.909-.814,5.813c-.145,1-.558,1.334-1.6,1.219-1.173-.13-2.343-.306-3.505-.511a1.235,1.235,0,0,0-1.421.485,1.124,1.124,0,0,0,.194,1.393c.709.946,1.429,1.885,2.123,2.842.679.936.636,1.379-.244,2.054-1.555,1.192-3.138,2.348-4.7,3.53a1.148,1.148,0,0,1-1.829-.256c-.691-.917-1.378-1.838-2.069-2.754-.371-.493-.746-1.023-1.481-.807-.66.194-.776.77-.854,1.362-.14,1.07-.3,2.139-.452,3.207-.172,1.175-.523,1.458-1.683,1.308-1.84-.237-3.681-.477-5.516-.752-1.236-.185-1.475-.536-1.321-1.776.146-1.172.307-2.342.454-3.514a1.125,1.125,0,0,0-.468-1.246,1.2,1.2,0,0,0-1.409.2c-.943.713-1.885,1.429-2.839,2.127-.918.67-1.371.623-2.044-.255q-1.756-2.292-3.466-4.621a1.206,1.206,0,0,1,.283-1.983c.938-.72,1.883-1.432,2.84-2.126a1.226,1.226,0,0,0,.6-1.38c-.153-.593-.648-.718-1.171-.793-1.2-.172-2.4-.357-3.607-.525-.757-.105-1.2-.5-1.1-1.287.262-2.11.526-4.221.862-6.32.128-.8.756-1.049,1.54-.928,1.167.181,2.337.344,3.506.515a1.265,1.265,0,0,0,1.431-.488c.377-.589.028-1.016-.275-1.469-.84-1.258-2-2.3-2.558-3.744-.146-.377-.441-.243-.685-.224-7.328.57-12.739,4.081-15.782,10.788a17.919,17.919,0,0,0,6.441,22.533,8.106,8.106,0,0,1,3.912,7.5c-.045,1.08-.022,2.164,0,3.245a1.938,1.938,0,0,0,1.964,2.132q4.458.1,8.92,0a1.971,1.971,0,0,0,1.987-2.131c.047-1.283.02-2.569.018-3.854a7.453,7.453,0,0,1,3.408-6.532c.446-.305.889-.615,1.316-.946,1.023-.793,1.605-.645,2.255.526.216.389-.075.486-.257.628-.691.541-1.381,1.088-2.107,1.578A5.51,5.51,0,0,0,41.2,47.962c-.011,1.217-.023,2.435,0,3.651a4.1,4.1,0,0,1-1.572,3.462,1.355,1.355,0,0,0-.558,1.2c.027,1.555.02,3.11.007,4.665-.027,3.114-1.745,4.83-4.84,4.845-1.217.006-2.435.026-3.651-.006a4.278,4.278,0,0,1-4.419-4.515c-.014-1.69-.007-3.381,0-5.071a1,1,0,0,0-.387-.963,4.48,4.48,0,0,1-1.826-3.966c0-.735,0-1.47,0-2.342M31.37,15.453c-.673-.347-.778.173-.857.764-.124.937-.238,1.877-.417,2.8-.09.465.074.609.485.658.7.085,1.4.2,2.106.283a3.371,3.371,0,0,1,3.123,2.466,3.25,3.25,0,0,1-1.362,3.544c-.609.482-1.231.95-1.867,1.4-.36.252-.4.474-.123.821.585.743,1.171,1.489,1.7,2.275.375.561.691.688,1.24.2a17.9,17.9,0,0,1,1.861-1.4,3.221,3.221,0,0,1,3.708-.068,3.293,3.293,0,0,1,1.369,3.466c-.127.731-.212,1.47-.323,2.2-.061.4.042.626.5.676.973.105,1.941.25,2.908.4.522.081.809-.008.852-.635a21.789,21.789,0,0,1,.356-2.4,3.121,3.121,0,0,1,2.46-2.654A3.087,3.087,0,0,1,52.4,31.465c.516.624,1.007,1.273,1.463,1.942.285.419.51.531.948.173.757-.621,1.542-1.213,2.353-1.76.5-.339.467-.617.125-1.042a23.38,23.38,0,0,1-1.563-2.12,3.216,3.216,0,0,1,1.687-4.806,4.873,4.873,0,0,1,2.311-.035c2.31.335,2.308.345,2.6-1.94.255-1.986.26-2.031-1.722-2.25-1.719-.19-3.24-.651-3.746-2.52-.52-1.922.586-3.1,2.043-4.116,1.658-1.155,1.634-1.19.461-2.769-.343-.461-.713-.9-1.026-1.384-.265-.406-.5-.452-.881-.138-.627.513-1.287.987-1.945,1.461a3.135,3.135,0,0,1-3.612.27A3.162,3.162,0,0,1,50.29,7.184c.084-1.026.8-2.348.195-2.981-.577-.6-1.962-.438-2.991-.611-.1-.017-.2-.035-.3-.059-.492-.117-.741.033-.793.58-.072.772-.2,1.54-.342,2.3a3.191,3.191,0,0,1-2.43,2.8A3.153,3.153,0,0,1,40.158,7.94c-.5-.634-.985-1.288-1.457-1.946-.244-.34-.451-.41-.812-.12-.789.635-1.6,1.248-2.431,1.824-.439.3-.483.546-.15.965a21.577,21.577,0,0,1,1.669,2.291A3.032,3.032,0,0,1,36.87,14.4,3.127,3.127,0,0,1,33.7,15.763c-.738-.089-1.473-.2-2.332-.311M12.418,29.446a2.656,2.656,0,0,1-2.108,1.931,2.827,2.827,0,0,1-2.04-.73c-1.732-1.207-1.716-1.185-3.175.311a.693.693,0,0,0-.051,1.1,14.193,14.193,0,0,1,1.231,1.854,2.085,2.085,0,0,1-1.223,3.029c-.414.136-.855.186-1.28.291-1.932.474-1.49.1-1.593,1.892-.045.789.16,1.187.992,1.231a9.375,9.375,0,0,1,1.388.279,2.182,2.182,0,0,1,1.529,3.521c-.359.571-.768,1.111-1.147,1.671-.144.213-.292.379-.066.7,1.136,1.606,1.668,1.729,3.238.654.2-.134.386-.274.586-.4A2.158,2.158,0,0,1,12.174,48.1a9.108,9.108,0,0,1,.364,1.677c.059.783.41,1,1.169.977,1.576-.047,1.578-.006,1.91-1.562.056-.264.1-.532.156-.8.435-2.017,1.99-2.651,3.7-1.511,2.007,1.335,1.985,1.313,3.733-.422a.938.938,0,0,0,.185-1.3,9.268,9.268,0,0,0-2.823-2.705c-.656-.534-.924-.477-1.419.219A6.431,6.431,0,0,1,8.02,36.4a6.505,6.505,0,0,1,4.525-3.867c.247-.069.684.08.537-.471-.233-.87-.444-1.746-.664-2.62m2.091,13.66a4.026,4.026,0,0,0,3.213-2.141.8.8,0,0,0-.1-1.138,17.849,17.849,0,0,1-3.272-4.71.845.845,0,0,0-1.045-.535,4.374,4.374,0,0,0-3.579,4.683c.176,2.142,2.009,3.8,4.781,3.841m18.1,17.281c-1.213,0-2.425.017-3.638-.008-.529-.011-.7.194-.706.711a2.236,2.236,0,0,0,2.377,2.5q1.97.022,3.941,0a2.235,2.235,0,0,0,2.358-2.518c-.008-.527-.17-.708-.7-.7-1.212.028-2.425.009-3.637.009M32.6,58.244c1.214,0,2.43-.038,3.641.014.751.032.773-.419.672-.9-.1-.452.478-1.269-.59-1.27-2.462,0-4.923.013-7.385-.008-.959-.008-.621.684-.649,1.144s-.191,1.056.669,1.026c1.213-.042,2.428-.011,3.642-.01" transform="translate(0 -0.96)" fill="#12263f"/>
          <path id="Trazado_615480" data-name="Trazado 615480" d="M86.111,73.7c.191-5.322,2.173-9.5,6.331-12.548.332-.243.755-.806,1.081-.007.229.561,1.246.989.165,1.8A12.379,12.379,0,0,0,88.51,75.351a12.18,12.18,0,0,0,7.28,9.693c2.26,1.054,4.286,2.292,5.475,4.58a9.413,9.413,0,0,1,1.025,3.471c.039.4.017.827-.534.7s-1.489.508-1.607-.464c-.383-3.135-2.21-4.937-4.982-6.2-5.822-2.645-8.647-7.372-9.056-13.437" transform="translate(-68.642 -48.411)" fill="#12263f"/>
          <path id="Trazado_615481" data-name="Trazado 615481" d="M23.721,34.691A7.79,7.79,0,0,1,22.6,36.168c-.306.253-.625-.243-.9-.44-2.016-1.42-3.99-2.9-6.039-4.27-.863-.577-.332-.951-.008-1.424s.517-.974,1.274-.4c2.017,1.53,4.107,2.964,6.164,4.442.233.168.516.3.634.614" transform="translate(-12.106 -23.42)" fill="#12263f"/>
          <path id="Trazado_615482" data-name="Trazado 615482" d="M62.278.017c.428-.1.445.237.506.477.635,2.472,1.248,4.949,1.9,7.418.118.45.055.625-.424.783-1.5.493-1.471.519-1.85-.974-.5-1.985-1.03-3.966-1.555-5.946C60.517.512,60.925.008,62.278.017" transform="translate(-48.419 0)" fill="#12263f"/>
          <path id="Trazado_615483" data-name="Trazado 615483" d="M6.031,83.914c-.11-.6.132-.7.47-.786,2.458-.6,4.92-1.176,7.362-1.831.752-.2.843.249.848.7.006.475.793,1.153-.349,1.419-2.3.535-4.59,1.1-6.862,1.74-.883.248-1.305.091-1.357-.851a1.158,1.158,0,0,0-.112-.393" transform="translate(-4.786 -64.765)" fill="#12263f"/>
          <path id="Trazado_615484" data-name="Trazado 615484" d="M261.241,231.393a12.665,12.665,0,0,1-1.134,1.306c-.378.34-.587-.163-.807-.343-1.754-1.431-3.456-2.927-5.238-4.32-.873-.682-.1-.989.192-1.4s.546-.9,1.228-.3c1.717,1.524,3.515,2.956,5.274,4.431.174.146.413.248.485.622" transform="translate(-202.2 -180.195)" fill="#12263f"/>
          <path id="Trazado_615485" data-name="Trazado 615485" d="M229.737,243.455c0-1.01.03-2.021-.009-3.03-.033-.859.563-.68,1.029-.663s1.141-.274,1.129.667c-.026,2.087-.018,4.175,0,6.263.006.886-.648.6-1.079.6s-1.089.283-1.07-.607c.023-1.077.005-2.155.005-3.232" transform="translate(-183.123 -191.099)" fill="#12263f"/>
          <path id="Trazado_615486" data-name="Trazado 615486" d="M265.338,199.519c-1.044,0-2.089-.019-3.132.006-.946.022-.638-.674-.653-1.138-.014-.447-.233-1.05.642-1.037,2.088.033,4.177.037,6.264,0,.781-.015.708.475.642.925-.069.466.41,1.255-.631,1.248s-2.088,0-3.132,0" transform="translate(-208.464 -157.312)" fill="#12263f"/>
          <path id="Trazado_615487" data-name="Trazado 615487" d="M157.167,236.162c0,.1,0,.2,0,.3,0,1.258-.649,1.818-1.77,1.254-.9-.454-.224-1.518-.364-2.3-.053-.294-.227-.814.366-.87a12.8,12.8,0,0,1,1.417-.007c.333.006.347.253.347.5,0,.371,0,.743,0,1.115" transform="translate(-123.493 -186.952)" fill="#12263f"/>
          <path id="Trazado_615488" data-name="Trazado 615488" d="M185.91,58.843a8.62,8.62,0,0,1,17.239.025,8.62,8.62,0,1,1-17.239-.025m15.049.048a6.452,6.452,0,1,0-6.457,6.451,6.542,6.542,0,0,0,6.457-6.451" transform="translate(-148.195 -40.09)" fill="#12263f"/>
        </g>
      </g>
    </g>
  </g>
</svg>
