<svg xmlns="http://www.w3.org/2000/svg" xmlns:xlink="http://www.w3.org/1999/xlink" width="125" height="125" viewBox="0 0 125 125">
  <defs>
    <clipPath id="clip-path">
      <rect id="Rectángulo_379170" data-name="Rectángulo 379170" width="72.653" height="72.685" fill="#12263f"/>
    </clipPath>
  </defs>
  <g id="Grupo_1073793" data-name="Grupo 1073793" transform="translate(-386.496 -952.5)">
    <g id="Grupo_1072978" data-name="Grupo 1072978" transform="translate(0.828 -5042.5)">
      <rect id="Rectángulo_377974" data-name="Rectángulo 377974" width="125" height="125" transform="translate(385.668 5995)" fill="none"/>
      <path id="Trazado_610930" data-name="Trazado 610930" d="M-10.279,8.447,92.441.268l13.473,113.306L-7.668,125Z" transform="translate(398.947 5995)" fill="#fff"/>
      <path id="Trazado_610931" data-name="Trazado 610931" d="M-22852-5608.555l-26.621,26.192-.854-1.708-2.277.712-1.709-.712-4.7-1.565,31.316-31.174v1.993h1.85v2.42Z" transform="translate(23362.668 11700)" fill="#ffa346"/>
      <path id="Trazado_610932" data-name="Trazado 610932" d="M-22852-5608.555l-26.621,26.192-.854-1.708-2.277.712-1.709-.712-4.7-1.565,31.316-31.174v1.993h1.85v2.42Z" transform="translate(23273.826 11611.811)" fill="#ffa346"/>
    </g>
    <path id="Intersección_7" data-name="Intersección 7" d="M23221.221,11791.125l1.383,11.624-12.1,11.9-14.367,1.445Z" transform="translate(-22717.785 -10747.232)" fill="#ffe3c7"/>
    <path id="Intersección_8" data-name="Intersección 8" d="M23116.354,11732.74l-2.279.711-1.707-.711-.773-.258-.115-5.1,20.711-20.613,9.867-.786,1.77,2.278-26.621,26.19Z" transform="translate(-22721.172 -10747.5)" fill="#ffe3c7"/>
    <rect id="Rectángulo_378032" data-name="Rectángulo 378032" width="73" height="73" transform="translate(412.496 979.5)" fill="#fff"/>
    <g id="Grupo_1073803" data-name="Grupo 1073803" transform="translate(409.248 978.657)">
      <g id="Grupo_1073802" data-name="Grupo 1073802" clip-path="url(#clip-path)">
        <path id="Trazado_615954" data-name="Trazado 615954" d="M13.7,140.464a7.889,7.889,0,0,0,3.554-4.407c1.348-4.789,2.744-9.563,4.122-14.343.356-1.235.79-1.514,2.067-1.327,3.989.583,6.589,4.331,5.987,8.609-.289,2.055-.522,4.119-.835,6.17-.133.87.14,1.079,1,1.071,4.309-.044,8.618-.022,12.928-.019,2.4,0,4.109.988,4.795,2.883a4.338,4.338,0,0,1-1.451,5.175c-.4.335-.309.535-.105.926a4.417,4.417,0,0,1-.988,5.825c-.4.379-.362.58-.127,1.02a4.4,4.4,0,0,1-.955,5.739c-.431.4-.411.62-.154,1.106a4.508,4.508,0,0,1-4.121,6.813c-6.2.023-12.4.041-18.6-.013-2.02-.017-3.855-.98-5.783-1.476-.756-.194-1.47-.639-1.534.726-.027.577-.645.77-1.226.769q-5.444,0-10.887,0A1.224,1.224,0,0,1,0,164.314q0-12.191,0-24.382a1.262,1.262,0,0,1,1.447-1.452c3.553.009,7.107-.006,10.66.008,1.21,0,1.413.266,1.595,1.975m16.469,22.969c3.06,0,6.121.008,9.182,0a2.324,2.324,0,0,0,2.6-2.225c.024-1.363-1.03-2.285-2.647-2.3-1.247-.01-2.494-.013-3.741,0-.805.009-1.5-.2-1.509-1.125s.66-1.162,1.475-1.157c1.7.012,3.4.021,5.1,0a2.267,2.267,0,1,0,0-4.518c-1.322-.023-2.645-.014-3.967,0-.816.007-1.487-.235-1.472-1.161s.707-1.128,1.512-1.122c1.662.014,3.325.017,4.987,0a2.273,2.273,0,1,0,.038-4.52c-1.284-.02-2.57-.017-3.854,0-.795.01-1.515-.159-1.548-1.086-.035-1,.7-1.2,1.547-1.2q2.55.021,5.1,0a2.2,2.2,0,0,0,2.209-1.453c.624-1.573-.5-3.058-2.358-3.065-5.025-.017-10.051,0-15.076-.009-1.4,0-1.784-.443-1.612-1.781q.521-4.04,1.033-8.081a5.38,5.38,0,0,0-2.653-5.563c-.683-.333-1.031-.342-1.273.536-1.2,4.357-2.473,8.7-3.728,13.039a9.059,9.059,0,0,1-5.225,6.024c-.482.214-.688.412-.687.955q.028,8.558.008,17.116c0,.4.01.763.5.873,3.033.679,5.9,2.072,9.142,1.857,2.295-.152,4.608-.029,6.913-.03M11.344,152.087c0-3.435-.02-6.871.015-10.306.007-.739-.112-1.064-.962-1.043-2.415.059-4.832.046-7.248,0-.7-.012-.889.188-.886.886q.038,10.476,0,20.952c0,.728.239.876.906.866,2.416-.035,4.832-.042,7.248,0,.741.014.952-.2.944-.944-.037-3.473-.017-6.946-.017-10.419" transform="translate(0 -93.04)" fill="#12263f"/>
        <path id="Trazado_615955" data-name="Trazado 615955" d="M178.164,31.7c-1.285,0-2.57-.018-3.855,0a2.267,2.267,0,1,0-.017,4.519,15.915,15.915,0,0,1,4.933.466,9.121,9.121,0,0,1,6.219,8.358,9,9,0,0,1-5.86,8.706c-.729.266-1.032.576-.957,1.359s.009,1.586.017,2.379c.009.921-.414,1.421-1.357,1.424-1.36,0-2.721,0-4.082,0a1.221,1.221,0,0,1-1.374-1.406c.007-.794-.035-1.59.012-2.38.036-.612-.2-.786-.78-.759-.867.04-1.739.031-2.607,0a3.4,3.4,0,1,1,.031-6.8c2.494-.035,4.988,0,7.483-.012,1.623-.007,2.675-.923,2.659-2.286s-1.057-2.25-2.707-2.234a11.712,11.712,0,0,1-5.747-.926,8.711,8.711,0,0,1-5.084-8.53,8.584,8.584,0,0,1,5.779-8.054,1.249,1.249,0,0,0,.974-1.465c-.057-.79-.015-1.586-.01-2.38a1.187,1.187,0,0,1,1.323-1.338c1.361-.007,2.721,0,4.082,0a1.222,1.222,0,0,1,1.4,1.376c0,.718.049,1.44-.012,2.153-.066.767.146,1.1.978,1.024A19.239,19.239,0,0,1,182.1,24.9a3.395,3.395,0,0,1,.03,6.788c-1.321.05-2.645.01-3.968.01Zm-5.433,18.145c-1.322,0-2.644.007-3.966,0-.772-.006-1.406.239-1.425,1.092-.021.925.639,1.179,1.458,1.173,1.322-.01,2.644,0,3.966,0a1.189,1.189,0,0,1,1.34,1.321c.008.831,0,1.662.009,2.493,0,.244-.091.527.222.693a1.353,1.353,0,0,0,2.033-1.153c0-.567.042-1.137-.009-1.7-.1-1.109.383-1.639,1.472-1.869a6.67,6.67,0,0,0,5.26-6.172A6.815,6.815,0,0,0,178.851,39a11.676,11.676,0,0,0-4.465-.495,4.547,4.547,0,1,1,.015-9.076q3.626-.02,7.253,0c.813,0,1.493-.226,1.482-1.15s-.71-1.127-1.514-1.118c-1.284.015-2.569,0-3.853,0a1.221,1.221,0,0,1-1.4-1.38c0-.68-.052-1.365.012-2.039.082-.856-.161-1.169-1.092-1.154-.893.015-1.336.162-1.2,1.163.082.593-.024,1.21.024,1.81a1.517,1.517,0,0,1-1.419,1.8,6.679,6.679,0,0,0-5.321,6.24,6.8,6.8,0,0,0,4.411,6.718,13.16,13.16,0,0,0,4.586.447,4.535,4.535,0,1,1-.017,9.07c-1.208.029-2.418,0-3.626.008" transform="translate(-127.6 -15.735)" fill="#12263f"/>
        <path id="Trazado_615956" data-name="Trazado 615956" d="M149.924,25.133c.835,10.162-7.121,21.383-18.827,24.162a11.086,11.086,0,0,1-1.451.242,1.081,1.081,0,0,1-1.345-.9,1.117,1.117,0,0,1,1.048-1.352,21.062,21.062,0,0,0,3.691-1.055,22.673,22.673,0,1,0-30.474-24.819,25.452,25.452,0,0,0-.263,3.272c-.034.817-.264,1.483-1.186,1.457s-1.136-.722-1.1-1.529c.5-10.223,5.249-17.827,14.49-22.174C129.159-4.458,145.9,3.9,149.634,19.718a25.238,25.238,0,0,1,.29,5.415" transform="translate(-77.331 0)" fill="#12263f"/>
        <path id="Trazado_615957" data-name="Trazado 615957" d="M63.553,55.373a1.146,1.146,0,0,1,1.1,1.323c-.051.708.133,1.025.912.956s1.354.314,1.336,1.157A1.077,1.077,0,0,1,65.6,59.9c-.711-.049-1.022.139-.955.915a1.087,1.087,0,0,1-1.159,1.335,1.076,1.076,0,0,1-1.085-1.3c.051-.713-.142-1.02-.916-.954s-1.352-.316-1.335-1.159a1.064,1.064,0,0,1,1.3-1.082c.854.086,1-.3.958-1.031a1.114,1.114,0,0,1,1.147-1.251" transform="translate(-46.507 -42.813)" fill="#12263f"/>
        <path id="Trazado_615958" data-name="Trazado 615958" d="M248.559,247.267a1.116,1.116,0,0,1-1.154-1.246c.037-.728-.094-1.122-.954-1.035a1.067,1.067,0,0,1-1.3-1.079c-.02-.843.546-1.228,1.331-1.162.767.064.975-.23.92-.95a1.076,1.076,0,0,1,1.08-1.3c.843-.022,1.229.545,1.165,1.329-.063.764.226.977.948.922a1.137,1.137,0,1,1-.026,2.245c-.767-.064-.976.23-.92.95a1.149,1.149,0,0,1-1.089,1.33" transform="translate(-189.545 -185.944)" fill="#12263f"/>
      </g>
    </g>
  </g>
</svg>
