<svg xmlns="http://www.w3.org/2000/svg" xmlns:xlink="http://www.w3.org/1999/xlink" width="1328" height="622.422" viewBox="0 0 1328 622.422">
  <defs>
    <linearGradient id="linear-gradient" x1="0.5" x2="0.5" y2="1" gradientUnits="objectBoundingBox">
      <stop offset="0" stop-color="#fffde6"/>
      <stop offset="1" stop-color="#fff"/>
    </linearGradient>
    <clipPath id="clip-path">
      <path id="Trazado_611582" data-name="Trazado 611582" d="M0,0H1328V617.889H0Z" transform="translate(136.332 8241.578)" fill="#fffde6"/>
    </clipPath>
    <clipPath id="clip-path-2">
      <rect id="Rect치ngulo_377960" data-name="Rect치ngulo 377960" width="956.679" height="963.108" fill="#fff"/>
    </clipPath>
  </defs>
  <g id="Grupo_1073096" data-name="Grupo 1073096" transform="translate(-136.332 -8241.578)">
    <g id="Grupo_1072201" data-name="Grupo 1072201" transform="translate(0.332 -755)">
      <path id="Trazado_609286" data-name="Trazado 609286" d="M0,0H1328V606.468H0Z" transform="translate(136 9008)" fill="#fffde6"/>
      <path id="Trazado_609287" data-name="Trazado 609287" d="M0,0H1328V97H0Z" transform="translate(1464 9105) rotate(180)" fill="url(#linear-gradient)"/>
      <rect id="Rect치ngulo_377725" data-name="Rect치ngulo 377725" width="1328" height="97" transform="translate(136 9522)" fill="url(#linear-gradient)"/>
    </g>
    <g id="Enmascarar_grupo_154388" data-name="Enmascarar grupo 154388" clip-path="url(#clip-path)">
      <g id="Grupo_1072943" data-name="Grupo 1072943" transform="translate(382.15 8155)">
        <g id="Grupo_1072830" data-name="Grupo 1072830" transform="translate(330.033 102.933)" clip-path="url(#clip-path-2)">
          <path id="Trazado_610553" data-name="Trazado 610553" d="M189.127,55.583a.16.16,0,0,0,.128-.156.1.1,0,0,0-.128-.1.16.16,0,0,0-.136.148.112.112,0,0,0,.136.109" transform="translate(193.623 -22.15)" fill="#fff"/>
          <path id="Trazado_610554" data-name="Trazado 610554" d="M195.2,54.761a.326.326,0,0,0,.264-.3.216.216,0,0,0-.264-.211.327.327,0,0,0-.265.3.216.216,0,0,0,.265.211" transform="translate(235.343 -29.491)" fill="#fff"/>
          <path id="Trazado_610555" data-name="Trazado 610555" d="M201.283,53.941a.494.494,0,0,0,.4-.46.322.322,0,0,0-.4-.312.493.493,0,0,0-.4.452.324.324,0,0,0,.4.32" transform="translate(277.057 -36.834)" fill="#fff"/>
          <path id="Trazado_610556" data-name="Trazado 610556" d="M207.126,52.634a.326.326,0,0,0,.265-.3.216.216,0,0,0-.265-.211.326.326,0,0,0-.264.3.216.216,0,0,0,.264.211" transform="translate(319.009 -43.948)" fill="#fff"/>
          <path id="Trazado_610557" data-name="Trazado 610557" d="M212.975,51.328a.158.158,0,0,0,.128-.148.1.1,0,0,0-.128-.109.167.167,0,0,0-.136.148.108.108,0,0,0,.136.109" transform="translate(360.954 -51.071)" fill="#fff"/>
          <path id="Trazado_610558" data-name="Trazado 610558" d="M171.234,64.735a.16.16,0,0,0,.128-.156.1.1,0,0,0-.128-.1.159.159,0,0,0-.128.148.105.105,0,0,0,.128.109" transform="translate(68.132 40.054)" fill="#fff"/>
          <path id="Trazado_610559" data-name="Trazado 610559" d="M177.547,64.4a.645.645,0,0,0,.529-.608.425.425,0,0,0-.529-.421.646.646,0,0,0-.529.608.428.428,0,0,0,.529.421" transform="translate(109.614 32.484)" fill="#fff"/>
          <path id="Trazado_610560" data-name="Trazado 610560" d="M184.091,64.553a1.464,1.464,0,0,0,1.194-1.364.969.969,0,0,0-1.194-.959A1.472,1.472,0,0,0,182.9,63.6a.964.964,0,0,0,1.194.951" transform="translate(150.864 24.681)" fill="#fff"/>
          <path id="Trazado_610561" data-name="Trazado 610561" d="M190.636,64.7a2.269,2.269,0,0,0,1.852-2.129,1.494,1.494,0,0,0-1.852-1.481,2.276,2.276,0,0,0-1.86,2.129,1.5,1.5,0,0,0,1.86,1.481" transform="translate(192.114 16.881)" fill="#fff"/>
          <path id="Trazado_610562" data-name="Trazado 610562" d="M197.061,64.611a2.923,2.923,0,0,0,2.389-2.737,1.931,1.931,0,0,0-2.389-1.9,2.921,2.921,0,0,0-2.389,2.729,1.933,1.933,0,0,0,2.389,1.91" transform="translate(233.484 9.201)" fill="#fff"/>
          <path id="Trazado_610563" data-name="Trazado 610563" d="M203.135,63.791a3.08,3.08,0,0,0,2.517-2.885,2.03,2.03,0,0,0-2.517-2.012,3.081,3.081,0,0,0-2.517,2.885,2.036,2.036,0,0,0,2.517,2.012" transform="translate(275.204 1.858)" fill="#fff"/>
          <path id="Trazado_610564" data-name="Trazado 610564" d="M208.985,62.484a2.922,2.922,0,0,0,2.389-2.737,1.931,1.931,0,0,0-2.389-1.9,2.922,2.922,0,0,0-2.389,2.737,1.931,1.931,0,0,0,2.389,1.9" transform="translate(317.149 -5.255)" fill="#fff"/>
          <path id="Trazado_610565" data-name="Trazado 610565" d="M214.6,60.692a2.428,2.428,0,0,0,1.988-2.277,1.609,1.609,0,0,0-1.988-1.591,2.435,2.435,0,0,0-1.988,2.277,1.609,1.609,0,0,0,1.988,1.59" transform="translate(359.333 -12.142)" fill="#fff"/>
          <path id="Trazado_610566" data-name="Trazado 610566" d="M219.976,58.416A1.624,1.624,0,0,0,221.3,56.9a1.073,1.073,0,0,0-1.323-1.06,1.631,1.631,0,0,0-1.323,1.52,1.073,1.073,0,0,0,1.323,1.06" transform="translate(401.748 -18.801)" fill="#fff"/>
          <path id="Trazado_610567" data-name="Trazado 610567" d="M225.361,56.132a.811.811,0,0,0,.665-.756.536.536,0,0,0-.665-.53.811.811,0,0,0-.665.756.536.536,0,0,0,.665.53" transform="translate(444.149 -25.46)" fill="#fff"/>
          <path id="Trazado_610568" data-name="Trazado 610568" d="M230.853,54.1a.16.16,0,0,0,.128-.156.1.1,0,0,0-.128-.1.158.158,0,0,0-.128.148.105.105,0,0,0,.128.109" transform="translate(486.452 -32.23)" fill="#fff"/>
          <path id="Trazado_610569" data-name="Trazado 610569" d="M165.392,72a.327.327,0,0,0,.264-.3.216.216,0,0,0-.264-.211.327.327,0,0,0-.265.3.216.216,0,0,0,.265.21" transform="translate(26.18 87.692)" fill="#fff"/>
          <path id="Trazado_610570" data-name="Trazado 610570" d="M172.28,72.886a1.624,1.624,0,0,0,1.323-1.52,1.073,1.073,0,0,0-1.323-1.06,1.631,1.631,0,0,0-1.323,1.52,1.073,1.073,0,0,0,1.323,1.06" transform="translate(67.086 79.549)" fill="#fff"/>
          <path id="Trazado_610571" data-name="Trazado 610571" d="M179.406,74.25a3.247,3.247,0,0,0,2.654-3.041,2.14,2.14,0,0,0-2.654-2.113,3.239,3.239,0,0,0-2.653,3.033,2.141,2.141,0,0,0,2.653,2.121" transform="translate(107.754 71.183)" fill="#fff"/>
          <path id="Trazado_610572" data-name="Trazado 610572" d="M186.295,75.132a4.545,4.545,0,0,0,3.712-4.257,3,3,0,0,0-3.712-2.963,4.545,4.545,0,0,0-3.712,4.257,3,3,0,0,0,3.712,2.963" transform="translate(148.661 63.035)" fill="#fff"/>
          <path id="Trazado_610573" data-name="Trazado 610573" d="M192.951,75.527a5.516,5.516,0,0,0,4.505-5.161,3.638,3.638,0,0,0-4.505-3.6,5.508,5.508,0,0,0-4.505,5.162,3.639,3.639,0,0,0,4.505,3.6" transform="translate(189.799 55.124)" fill="#fff"/>
          <path id="Trazado_610574" data-name="Trazado 610574" d="M199.377,75.438a6.161,6.161,0,0,0,5.034-5.77,4.075,4.075,0,0,0-5.034-4.031,6.169,6.169,0,0,0-5.035,5.777,4.066,4.066,0,0,0,5.035,4.023" transform="translate(231.168 47.439)" fill="#fff"/>
          <path id="Trazado_610575" data-name="Trazado 610575" d="M205.57,74.861a6.487,6.487,0,0,0,5.3-6.074,4.283,4.283,0,0,0-5.3-4.242,6.5,6.5,0,0,0-5.3,6.082,4.282,4.282,0,0,0,5.3,4.234" transform="translate(272.77 39.978)" fill="#fff"/>
          <path id="Trazado_610576" data-name="Trazado 610576" d="M211.42,73.549a6.329,6.329,0,0,0,5.171-5.926A4.173,4.173,0,0,0,211.42,63.5a6.32,6.32,0,0,0-5.171,5.918,4.178,4.178,0,0,0,5.171,4.132" transform="translate(314.714 32.869)" fill="#fff"/>
          <path id="Trazado_610577" data-name="Trazado 610577" d="M216.919,71.514A5.676,5.676,0,0,0,221.56,66.2a3.749,3.749,0,0,0-4.642-3.7,5.676,5.676,0,0,0-4.642,5.317,3.749,3.749,0,0,0,4.642,3.7" transform="translate(357.01 26.094)" fill="#fff"/>
          <path id="Trazado_610578" data-name="Trazado 610578" d="M222.067,68.751a4.545,4.545,0,0,0,3.712-4.257,3,3,0,0,0-3.712-2.963,4.545,4.545,0,0,0-3.712,4.257,3,3,0,0,0,3.712,2.963" transform="translate(399.657 19.665)" fill="#fff"/>
          <path id="Trazado_610579" data-name="Trazado 610579" d="M227.1,65.741a3.247,3.247,0,0,0,2.653-3.041,2.14,2.14,0,0,0-2.653-2.113,3.239,3.239,0,0,0-2.653,3.033,2.142,2.142,0,0,0,2.653,2.121" transform="translate(442.409 13.349)" fill="#fff"/>
          <path id="Trazado_610580" data-name="Trazado 610580" d="M232.018,62.494a1.79,1.79,0,0,0,1.459-1.669,1.181,1.181,0,0,0-1.459-1.169,1.792,1.792,0,0,0-1.459,1.676,1.179,1.179,0,0,0,1.459,1.162" transform="translate(485.287 7.147)" fill="#fff"/>
          <path id="Trazado_610581" data-name="Trazado 610581" d="M237.054,59.483a.493.493,0,0,0,.4-.452.324.324,0,0,0-.4-.32.493.493,0,0,0-.4.452.324.324,0,0,0,.4.32" transform="translate(528.046 0.833)" fill="#fff"/>
          <path id="Trazado_610582" data-name="Trazado 610582" d="M159.549,79.271a.494.494,0,0,0,.4-.46.322.322,0,0,0-.4-.312.493.493,0,0,0-.4.452.324.324,0,0,0,.4.32" transform="translate(-15.772 135.328)" fill="#fff"/>
          <path id="Trazado_610583" data-name="Trazado 610583" d="M166.788,80.882a2.269,2.269,0,0,0,1.852-2.129,1.494,1.494,0,0,0-1.852-1.481,2.276,2.276,0,0,0-1.86,2.128,1.5,1.5,0,0,0,1.86,1.482" transform="translate(24.784 126.84)" fill="#fff"/>
          <path id="Trazado_610584" data-name="Trazado 610584" d="M174.251,82.98a4.37,4.37,0,0,0,3.575-4.1,2.887,2.887,0,0,0-3.575-2.861,4.386,4.386,0,0,0-3.575,4.1,2.89,2.89,0,0,0,3.575,2.861" transform="translate(65.115 118.13)" fill="#fff"/>
          <path id="Trazado_610585" data-name="Trazado 610585" d="M181.49,84.59a6.161,6.161,0,0,0,5.034-5.77,4.075,4.075,0,0,0-5.034-4.031,6.169,6.169,0,0,0-5.034,5.777,4.066,4.066,0,0,0,5.034,4.023" transform="translate(105.67 109.644)" fill="#fff"/>
          <path id="Trazado_610586" data-name="Trazado 610586" d="M188.617,85.954a7.792,7.792,0,0,0,6.365-7.29c0-3.415-2.854-5.692-6.365-5.084a7.793,7.793,0,0,0-6.365,7.29c0,3.415,2.854,5.692,6.365,5.083" transform="translate(146.338 101.278)" fill="#fff"/>
          <path id="Trazado_610587" data-name="Trazado 610587" d="M195.505,86.839a9.09,9.09,0,0,0,7.423-8.506c0-3.984-3.327-6.643-7.423-5.933a9.1,9.1,0,0,0-7.423,8.506c0,3.992,3.327,6.643,7.423,5.933" transform="translate(187.245 93.135)" fill="#fff"/>
          <path id="Trazado_610588" data-name="Trazado 610588" d="M202.043,86.988a9.886,9.886,0,0,0,8.081-9.263c0-4.343-3.615-7.235-8.081-6.464a9.886,9.886,0,0,0-8.081,9.263c0,4.343,3.615,7.235,8.081,6.464" transform="translate(228.502 85.337)" fill="#fff"/>
          <path id="Trazado_610589" data-name="Trazado 610589" d="M208.243,86.41a10.227,10.227,0,0,0,8.353-9.567c0-4.491-3.744-7.477-8.353-6.674a10.227,10.227,0,0,0-8.353,9.567c0,4.483,3.744,7.477,8.353,6.674" transform="translate(270.096 77.876)" fill="#fff"/>
          <path id="Trazado_610590" data-name="Trazado 610590" d="M213.967,84.861a9.886,9.886,0,0,0,8.08-9.262c0-4.343-3.615-7.235-8.08-6.464a9.886,9.886,0,0,0-8.081,9.263c0,4.343,3.616,7.235,8.081,6.464" transform="translate(312.167 70.88)" fill="#fff"/>
          <path id="Trazado_610591" data-name="Trazado 610591" d="M219.466,82.826a9.249,9.249,0,0,0,7.552-8.654c0-4.062-3.383-6.76-7.552-6.043a9.242,9.242,0,0,0-7.552,8.662c0,4.054,3.375,6.76,7.552,6.035" transform="translate(354.463 64.105)" fill="#fff"/>
          <path id="Trazado_610592" data-name="Trazado 610592" d="M224.5,79.816a7.953,7.953,0,0,0,6.493-7.446c0-3.485-2.91-5.809-6.493-5.185a7.951,7.951,0,0,0-6.493,7.438c0,3.493,2.91,5.816,6.493,5.193" transform="translate(397.222 57.789)" fill="#fff"/>
          <path id="Trazado_610593" data-name="Trazado 610593" d="M229.3,76.325a6.336,6.336,0,0,0,5.171-5.926,4.182,4.182,0,0,0-5.171-4.132,6.336,6.336,0,0,0-5.171,5.926,4.182,4.182,0,0,0,5.171,4.132" transform="translate(440.205 51.698)" fill="#fff"/>
          <path id="Trazado_610594" data-name="Trazado 610594" d="M233.871,72.344a4.37,4.37,0,0,0,3.575-4.1,2.89,2.89,0,0,0-3.575-2.861,4.377,4.377,0,0,0-3.576,4.1,2.887,2.887,0,0,0,3.576,2.861" transform="translate(483.435 45.84)" fill="#fff"/>
          <path id="Trazado_610595" data-name="Trazado 610595" d="M238.443,68.362a2.428,2.428,0,0,0,1.988-2.277,1.609,1.609,0,0,0-1.988-1.591,2.428,2.428,0,0,0-1.988,2.277,1.609,1.609,0,0,0,1.988,1.59" transform="translate(526.656 39.99)" fill="#fff"/>
          <path id="Trazado_610596" data-name="Trazado 610596" d="M243.128,64.624a.653.653,0,0,0,.529-.608.428.428,0,0,0-.529-.421.638.638,0,0,0-.529.608.425.425,0,0,0,.529.421" transform="translate(569.766 34.013)" fill="#fff"/>
          <path id="Trazado_610597" data-name="Trazado 610597" d="M153.468,86.053a.326.326,0,0,0,.264-.3.216.216,0,0,0-.264-.21.32.32,0,0,0-.265.3.216.216,0,0,0,.265.211" transform="translate(-57.485 183.194)" fill="#fff"/>
          <path id="Trazado_610598" data-name="Trazado 610598" d="M160.826,87.908a2.269,2.269,0,0,0,1.852-2.129,1.5,1.5,0,0,0-1.852-1.481,2.277,2.277,0,0,0-1.86,2.128,1.5,1.5,0,0,0,1.86,1.482" transform="translate(-17.049 174.594)" fill="#fff"/>
          <path id="Trazado_610599" data-name="Trazado 610599" d="M168.521,90.49a4.7,4.7,0,0,0,3.84-4.405,3.1,3.1,0,0,0-3.84-3.072,4.7,4.7,0,0,0-3.84,4.405,3.1,3.1,0,0,0,3.84,3.072" transform="translate(23.051 165.65)" fill="#fff"/>
          <path id="Trazado_610600" data-name="Trazado 610600" d="M176.223,93.074a7.132,7.132,0,0,0,5.828-6.682,4.708,4.708,0,0,0-5.828-4.662,7.139,7.139,0,0,0-5.828,6.682,4.708,4.708,0,0,0,5.828,4.663" transform="translate(63.143 156.712)" fill="#fff"/>
          <path id="Trazado_610601" data-name="Trazado 610601" d="M183.813,95.412A9.4,9.4,0,0,0,191.5,86.6c0-4.124-3.439-6.877-7.688-6.144a9.423,9.423,0,0,0-7.688,8.81c0,4.132,3.447,6.877,7.688,6.144" transform="translate(103.348 147.887)" fill="#fff"/>
          <path id="Trazado_610602" data-name="Trazado 610602" d="M191.164,97.261c5.123-.889,9.275-5.653,9.275-10.635s-4.153-8.3-9.275-7.407-9.275,5.645-9.275,10.627,4.152,8.3,9.275,7.415" transform="translate(143.791 139.293)" fill="#fff"/>
          <path id="Trazado_610603" data-name="Trazado 610603" d="M198.172,98.388c5.78-1.006,10.47-6.378,10.47-12s-4.69-9.372-10.47-8.366-10.47,6.378-10.47,12,4.69,9.372,10.47,8.366" transform="translate(184.579 131.032)" fill="#fff"/>
          <path id="Trazado_610604" data-name="Trazado 610604" d="M204.828,98.785c6.221-1.076,11.263-6.861,11.263-12.911s-5.042-10.081-11.263-9.005-11.263,6.861-11.263,12.919,5.042,10.081,11.263,9" transform="translate(225.717 123.111)" fill="#fff"/>
          <path id="Trazado_610605" data-name="Trazado 610605" d="M211.022,98.207c6.365-1.107,11.528-7.017,11.528-13.215s-5.163-10.315-11.528-9.216S199.494,82.8,199.494,88.991s5.163,10.323,11.528,9.216" transform="translate(267.318 115.659)" fill="#fff"/>
          <path id="Trazado_610606" data-name="Trazado 610606" d="M216.752,96.658c6.221-1.084,11.263-6.861,11.263-12.911s-5.042-10.081-11.263-9.005S205.489,81.6,205.489,87.653s5.042,10.081,11.263,9.005" transform="translate(309.382 108.655)" fill="#fff"/>
          <path id="Trazado_610607" data-name="Trazado 610607" d="M222.139,94.375c5.852-1.014,10.6-6.456,10.6-12.155s-4.746-9.481-10.6-8.467S211.533,80.209,211.533,85.9s4.754,9.489,10.606,8.475" transform="translate(351.79 102.002)" fill="#fff"/>
          <path id="Trazado_610608" data-name="Trazado 610608" d="M226.936,90.881c5.123-.889,9.275-5.653,9.275-10.635s-4.153-8.3-9.275-7.407c-5.122.881-9.275,5.645-9.275,10.627s4.153,8.3,9.275,7.415" transform="translate(394.787 95.914)" fill="#fff"/>
          <path id="Trazado_610609" data-name="Trazado 610609" d="M231.62,87.147a9.567,9.567,0,0,0,7.816-8.958c0-4.2-3.5-7-7.816-6.253A9.568,9.568,0,0,0,223.8,80.9c0,4.195,3.5,6.994,7.816,6.245" transform="translate(437.89 89.941)" fill="#fff"/>
          <path id="Trazado_610610" data-name="Trazado 610610" d="M235.961,82.68a7.3,7.3,0,0,0,5.964-6.838c0-3.2-2.67-5.333-5.964-4.764A7.3,7.3,0,0,0,230,77.916c0,3.2,2.669,5.333,5.964,4.764" transform="translate(481.344 84.312)" fill="#fff"/>
          <path id="Trazado_610611" data-name="Trazado 610611" d="M240.183,77.97a4.87,4.87,0,0,0,3.976-4.553,3.214,3.214,0,0,0-3.976-3.181,4.87,4.87,0,0,0-3.976,4.553,3.214,3.214,0,0,0,3.976,3.181" transform="translate(524.916 78.792)" fill="#fff"/>
          <path id="Trazado_610612" data-name="Trazado 610612" d="M244.405,73.26a2.428,2.428,0,0,0,1.988-2.277,1.609,1.609,0,0,0-1.988-1.591,2.435,2.435,0,0,0-1.988,2.277,1.609,1.609,0,0,0,1.988,1.591" transform="translate(568.489 73.28)" fill="#fff"/>
          <path id="Trazado_610613" data-name="Trazado 610613" d="M248.978,69.28a.494.494,0,0,0,.4-.46.323.323,0,0,0-.4-.312.493.493,0,0,0-.4.452.324.324,0,0,0,.4.32" transform="translate(611.711 67.422)" fill="#fff"/>
          <path id="Trazado_610614" data-name="Trazado 610614" d="M147.394,92.837a.176.176,0,0,0,.136-.148.111.111,0,0,0-.136-.109.167.167,0,0,0-.136.148.108.108,0,0,0,.136.109" transform="translate(-99.199 231.057)" fill="#fff"/>
          <path id="Trazado_610615" data-name="Trazado 610615" d="M154.394,93.962a1.624,1.624,0,0,0,1.323-1.52,1.073,1.073,0,0,0-1.323-1.06,1.631,1.631,0,0,0-1.323,1.52,1.073,1.073,0,0,0,1.323,1.06" transform="translate(-58.412 222.798)" fill="#fff"/>
          <path id="Trazado_610616" data-name="Trazado 610616" d="M162.327,97.031a4.377,4.377,0,0,0,3.575-4.1,2.887,2.887,0,0,0-3.575-2.861,4.377,4.377,0,0,0-3.575,4.1,2.887,2.887,0,0,0,3.575,2.862" transform="translate(-18.551 213.632)" fill="#fff"/>
          <path id="Trazado_610617" data-name="Trazado 610617" d="M170.261,100.1a7.139,7.139,0,0,0,5.828-6.682,4.708,4.708,0,0,0-5.828-4.662,7.139,7.139,0,0,0-5.828,6.682,4.708,4.708,0,0,0,5.828,4.662" transform="translate(21.31 204.459)" fill="#fff"/>
          <path id="Trazado_610618" data-name="Trazado 610618" d="M178.195,103.166a9.886,9.886,0,0,0,8.081-9.263c0-4.343-3.615-7.235-8.081-6.464a9.893,9.893,0,0,0-8.081,9.263c0,4.343,3.616,7.235,8.081,6.464" transform="translate(61.172 195.295)" fill="#fff"/>
          <path id="Trazado_610619" data-name="Trazado 610619" d="M186.016,105.991c5.636-.975,10.2-6.214,10.2-11.7s-4.569-9.13-10.2-8.155-10.205,6.214-10.205,11.7,4.569,9.13,10.205,8.155" transform="translate(101.145 186.241)" fill="#fff"/>
          <path id="Trazado_610620" data-name="Trazado 610620" d="M193.606,108.331c6.662-1.154,12.057-7.345,12.057-13.824s-5.4-10.791-12.057-9.637-12.065,7.345-12.065,13.824,5.4,10.791,12.065,9.637" transform="translate(141.35 177.413)" fill="#fff"/>
          <path id="Trazado_610621" data-name="Trazado 610621" d="M200.957,110.185c7.536-1.31,13.652-8.311,13.652-15.648s-6.117-12.21-13.652-10.908-13.652,8.311-13.652,15.648,6.109,12.217,13.652,10.908" transform="translate(181.793 168.815)" fill="#fff"/>
          <path id="Trazado_610622" data-name="Trazado 610622" d="M207.726,110.821c8.048-1.4,14.574-8.88,14.574-16.709s-6.526-13.044-14.574-11.648-14.574,8.881-14.574,16.709,6.525,13.044,14.574,11.648" transform="translate(222.819 160.788)" fill="#fff"/>
          <path id="Trazado_610623" data-name="Trazado 610623" d="M214.039,110.485c8.273-1.435,14.975-9.122,14.975-17.161s-6.7-13.4-14.975-11.968-14.975,9.114-14.975,17.161,6.7,13.4,14.975,11.968" transform="translate(264.301 153.218)" fill="#fff"/>
          <path id="Trazado_610624" data-name="Trazado 610624" d="M219.769,108.937c8.129-1.411,14.71-8.958,14.71-16.857s-6.582-13.169-14.71-11.758-14.71,8.959-14.71,16.857,6.582,13.169,14.71,11.758" transform="translate(306.365 146.213)" fill="#fff"/>
          <path id="Trazado_610625" data-name="Trazado 610625" d="M224.918,106.174c7.608-1.318,13.78-8.4,13.78-15.8s-6.173-12.334-13.78-11.017-13.781,8.4-13.781,15.8,6.165,12.334,13.781,11.017" transform="translate(349.011 139.783)" fill="#fff"/>
          <path id="Trazado_610626" data-name="Trazado 610626" d="M229.49,102.193c6.734-1.169,12.193-7.423,12.193-13.972s-5.459-10.916-12.193-9.746S217.3,85.9,217.3,92.447s5.459,10.916,12.193,9.746" transform="translate(392.233 133.925)" fill="#fff"/>
          <path id="Trazado_610627" data-name="Trazado 610627" d="M233.83,97.726c5.708-.99,10.341-6.292,10.341-11.851s-4.634-9.247-10.341-8.257-10.341,6.292-10.341,11.851,4.634,9.247,10.341,8.257" transform="translate(435.68 128.295)" fill="#fff"/>
          <path id="Trazado_610628" data-name="Trazado 610628" d="M237.933,92.774a10.061,10.061,0,0,0,8.217-9.418c0-4.413-3.68-7.352-8.217-6.565a10.061,10.061,0,0,0-8.217,9.419c0,4.413,3.68,7.352,8.217,6.565" transform="translate(479.372 122.893)" fill="#fff"/>
          <path id="Trazado_610629" data-name="Trazado 610629" d="M241.923,87.578a7.3,7.3,0,0,0,5.964-6.838c0-3.2-2.67-5.333-5.964-4.764a7.3,7.3,0,0,0-5.964,6.838c0,3.2,2.67,5.333,5.964,4.764" transform="translate(523.176 117.602)" fill="#fff"/>
          <path id="Trazado_610630" data-name="Trazado 610630" d="M245.914,82.383a4.544,4.544,0,0,0,3.712-4.249,3,3,0,0,0-3.712-2.971A4.545,4.545,0,0,0,242.2,79.42a3,3,0,0,0,3.712,2.963" transform="translate(566.981 112.319)" fill="#fff"/>
          <path id="Trazado_610631" data-name="Trazado 610631" d="M249.9,77.189a1.79,1.79,0,0,0,1.459-1.669,1.181,1.181,0,0,0-1.459-1.169,1.782,1.782,0,0,0-1.459,1.668,1.178,1.178,0,0,0,1.459,1.169" transform="translate(610.785 107.026)" fill="#fff"/>
          <path id="Trazado_610632" data-name="Trazado 610632" d="M254.7,73.693a.16.16,0,0,0,.128-.156.1.1,0,0,0-.128-.1.159.159,0,0,0-.128.148.1.1,0,0,0,.128.109" transform="translate(653.782 100.94)" fill="#fff"/>
          <path id="Trazado_610633" data-name="Trazado 610633" d="M147.745,99.526a.645.645,0,0,0,.521-.608.421.421,0,0,0-.521-.421.646.646,0,0,0-.537.608.431.431,0,0,0,.537.421" transform="translate(-99.55 271.235)" fill="#fff"/>
          <path id="Trazado_610634" data-name="Trazado 610634" d="M155.558,102.351a3.247,3.247,0,0,0,2.654-3.041,2.14,2.14,0,0,0-2.654-2.113,3.239,3.239,0,0,0-2.653,3.033,2.141,2.141,0,0,0,2.653,2.121" transform="translate(-59.576 262.18)" fill="#fff"/>
          <path id="Trazado_610635" data-name="Trazado 610635" d="M163.6,105.661a6.161,6.161,0,0,0,5.034-5.77,4.066,4.066,0,0,0-5.034-4.023,6.16,6.16,0,0,0-5.034,5.77,4.066,4.066,0,0,0,5.034,4.023" transform="translate(-19.828 252.898)" fill="#fff"/>
          <path id="Trazado_610636" data-name="Trazado 610636" d="M171.889,109.463a9.408,9.408,0,0,0,7.688-8.81c0-4.132-3.439-6.877-7.688-6.144a9.415,9.415,0,0,0-7.688,8.81c0,4.132,3.439,6.877,7.688,6.144" transform="translate(19.683 243.388)" fill="#fff"/>
          <path id="Trazado_610637" data-name="Trazado 610637" d="M180.054,113.016c5.636-.975,10.205-6.214,10.205-11.7s-4.569-9.13-10.205-8.155-10.205,6.214-10.205,11.7,4.57,9.13,10.205,8.155" transform="translate(59.312 233.988)" fill="#fff"/>
          <path id="Trazado_610638" data-name="Trazado 610638" d="M188.219,116.571c7.031-1.216,12.722-7.75,12.722-14.58S195.25,90.6,188.219,91.824,175.5,99.567,175.5,106.4s5.7,11.383,12.722,10.167" transform="translate(98.941 224.593)" fill="#fff"/>
          <path id="Trazado_610639" data-name="Trazado 610639" d="M196.153,119.637c8.273-1.435,14.975-9.122,14.975-17.161s-6.7-13.4-14.975-11.968-14.975,9.114-14.975,17.161,6.7,13.4,14.975,11.968" transform="translate(138.803 215.422)" fill="#fff"/>
          <path id="Trazado_610640" data-name="Trazado 610640" d="M203.743,121.978c9.3-1.614,16.835-10.245,16.835-19.289s-7.536-15.063-16.835-13.449-16.835,10.245-16.835,19.289,7.536,15.063,16.835,13.449" transform="translate(179.007 206.594)" fill="#fff"/>
          <path id="Trazado_610641" data-name="Trazado 610641" d="M210.743,123.1c9.957-1.723,18.021-10.978,18.021-20.654S220.7,86.318,210.743,88.041,192.722,99.019,192.722,108.7s8.064,16.132,18.021,14.4" transform="translate(219.802 198.335)" fill="#fff"/>
          <path id="Trazado_610642" data-name="Trazado 610642" d="M217.168,123.011c10.245-1.778,18.55-11.3,18.55-21.262s-8.305-16.607-18.55-14.829-18.55,11.3-18.55,21.262,8.305,16.607,18.55,14.829" transform="translate(261.171 190.653)" fill="#fff"/>
          <path id="Trazado_610643" data-name="Trazado 610643" d="M222.786,121.22c10.029-1.739,18.158-11.056,18.158-20.81s-8.129-16.249-18.158-14.51-18.157,11.056-18.157,20.81,8.129,16.249,18.157,14.51" transform="translate(303.348 183.767)" fill="#fff"/>
          <path id="Trazado_610644" data-name="Trazado 610644" d="M227.7,117.967c9.371-1.622,16.963-10.331,16.963-19.445s-7.592-15.18-16.963-13.551S210.74,95.3,210.74,104.409s7.591,15.18,16.963,13.559" transform="translate(346.226 177.57)" fill="#fff"/>
          <path id="Trazado_610645" data-name="Trazado 610645" d="M232.044,113.5c8.345-1.45,15.111-9.2,15.111-17.317s-6.766-13.52-15.111-12.069-15.111,9.2-15.111,17.317,6.766,13.52,15.111,12.069" transform="translate(389.679 171.94)" fill="#fff"/>
          <path id="Trazado_610646" data-name="Trazado 610646" d="M236.033,108.3c7.1-1.232,12.859-7.828,12.859-14.736s-5.756-11.5-12.859-10.268-12.858,7.828-12.858,14.728,5.756,11.508,12.858,10.276" transform="translate(433.477 166.65)" fill="#fff"/>
          <path id="Trazado_610647" data-name="Trazado 610647" d="M239.792,102.624c5.708-.99,10.341-6.292,10.341-11.851s-4.634-9.247-10.341-8.257-10.341,6.292-10.341,11.851,4.633,9.247,10.341,8.257" transform="translate(477.513 161.586)" fill="#fff"/>
          <path id="Trazado_610648" data-name="Trazado 610648" d="M243.544,96.944a9.567,9.567,0,0,0,7.816-8.959c0-4.2-3.5-7-7.816-6.253a9.568,9.568,0,0,0-7.816,8.966c0,4.195,3.5,6.994,7.816,6.245" transform="translate(521.555 156.53)" fill="#fff"/>
          <path id="Trazado_610649" data-name="Trazado 610649" d="M247.191,91.021a6.335,6.335,0,0,0,5.171-5.926,4.181,4.181,0,0,0-5.171-4.132,6.335,6.335,0,0,0-5.171,5.926,4.181,4.181,0,0,0,5.171,4.132" transform="translate(565.704 151.584)" fill="#fff"/>
          <path id="Trazado_610650" data-name="Trazado 610650" d="M251.062,85.578a3.4,3.4,0,0,0,2.782-3.189,2.242,2.242,0,0,0-2.782-2.222,3.4,3.4,0,0,0-2.782,3.189,2.249,2.249,0,0,0,2.782,2.222" transform="translate(609.627 146.407)" fill="#fff"/>
          <path id="Trazado_610651" data-name="Trazado 610651" d="M255.171,80.624a.813.813,0,0,0,.665-.764.535.535,0,0,0-.665-.522.8.8,0,0,0-.665.756.536.536,0,0,0,.665.53" transform="translate(653.312 141.007)" fill="#fff"/>
          <path id="Trazado_610652" data-name="Trazado 610652" d="M148.32,106.706a1.465,1.465,0,0,0,1.186-1.365.969.969,0,0,0-1.186-.959,1.472,1.472,0,0,0-1.194,1.372.964.964,0,0,0,1.194.951" transform="translate(-100.125 311.186)" fill="#fff"/>
          <path id="Trazado_610653" data-name="Trazado 610653" d="M156.485,110.26A4.545,4.545,0,0,0,160.2,106a3,3,0,0,0-3.712-2.963,4.545,4.545,0,0,0-3.712,4.257,3,3,0,0,0,3.712,2.963" transform="translate(-60.503 301.793)" fill="#fff"/>
          <path id="Trazado_610654" data-name="Trazado 610654" d="M164.769,114.056a7.792,7.792,0,0,0,6.365-7.29c0-3.415-2.854-5.692-6.365-5.084a7.792,7.792,0,0,0-6.365,7.29c0,3.415,2.854,5.692,6.365,5.083" transform="translate(-20.992 292.281)" fill="#fff"/>
          <path id="Trazado_610655" data-name="Trazado 610655" d="M173.278,118.344c5.122-.889,9.275-5.653,9.275-10.635s-4.153-8.3-9.275-7.415S164,105.947,164,110.929s4.152,8.3,9.275,7.415" transform="translate(18.293 282.536)" fill="#fff"/>
          <path id="Trazado_610656" data-name="Trazado 610656" d="M181.675,122.382c6.662-1.154,12.057-7.345,12.057-13.824s-5.4-10.791-12.057-9.637-12.057,7.344-12.057,13.824,5.4,10.791,12.057,9.637" transform="translate(57.691 272.915)" fill="#fff"/>
          <path id="Trazado_610657" data-name="Trazado 610657" d="M190.191,126.663c8.273-1.435,14.975-9.122,14.975-17.161s-6.7-13.4-14.975-11.968-14.975,9.114-14.975,17.161,6.7,13.4,14.975,11.968" transform="translate(96.97 263.176)" fill="#fff"/>
          <path id="Trazado_610658" data-name="Trazado 610658" d="M198.475,130.464c9.732-1.692,17.628-10.736,17.628-20.2s-7.9-15.773-17.628-14.089-17.628,10.736-17.628,20.2,7.9,15.781,17.628,14.089" transform="translate(136.48 253.66)" fill="#fff"/>
          <path id="Trazado_610659" data-name="Trazado 610659" d="M206.409,133.533c10.975-1.9,19.881-12.109,19.881-22.782s-8.907-17.792-19.881-15.89-19.881,12.109-19.881,22.782,8.9,17.792,19.881,15.89" transform="translate(176.341 244.487)" fill="#fff"/>
          <path id="Trazado_610660" data-name="Trazado 610660" d="M213.88,135.63c11.929-2.074,21.6-13.153,21.6-24.763s-9.676-19.328-21.6-17.262-21.6,13.161-21.6,24.763,9.676,19.336,21.6,17.262" transform="translate(216.665 235.778)" fill="#fff"/>
          <path id="Trazado_610661" data-name="Trazado 610661" d="M220.3,135.537c12.225-2.121,22.133-13.481,22.133-25.363S232.53,90.363,220.3,92.483s-22.134,13.481-22.134,25.371,9.908,19.8,22.134,17.683" transform="translate(258.035 228.089)" fill="#fff"/>
          <path id="Trazado_610662" data-name="Trazado 610662" d="M225.8,133.5c11.929-2.074,21.6-13.153,21.6-24.755s-9.676-19.336-21.6-17.262-21.6,13.153-21.6,24.755,9.676,19.336,21.6,17.262" transform="translate(300.331 221.326)" fill="#fff"/>
          <path id="Trazado_610663" data-name="Trazado 610663" d="M230.369,129.522c11.055-1.918,20.009-12.186,20.009-22.938s-8.954-17.909-20.009-15.991-20.009,12.186-20.009,22.938,8.954,17.909,20.009,15.991" transform="translate(343.559 215.462)" fill="#fff"/>
          <path id="Trazado_610664" data-name="Trazado 610664" d="M234.36,124.326c9.8-1.7,17.757-10.814,17.757-20.357s-7.953-15.89-17.757-14.19S216.6,100.593,216.6,110.136s7.952,15.89,17.757,14.19" transform="translate(387.364 210.172)" fill="#fff"/>
          <path id="Trazado_610665" data-name="Trazado 610665" d="M238.005,118.4c8.345-1.45,15.111-9.2,15.111-17.317s-6.766-13.52-15.111-12.069-15.111,9.2-15.111,17.317,6.766,13.52,15.111,12.069" transform="translate(431.505 205.231)" fill="#fff"/>
          <path id="Trazado_610666" data-name="Trazado 610666" d="M241.533,112.231c6.806-1.177,12.329-7.508,12.329-14.128s-5.523-11.025-12.329-9.847-12.33,7.508-12.33,14.128,5.523,11.025,12.33,9.847" transform="translate(475.772 200.397)" fill="#fff"/>
          <path id="Trazado_610667" data-name="Trazado 610667" d="M244.941,105.823c5.195-.9,9.411-5.731,9.411-10.783s-4.217-8.421-9.411-7.524-9.411,5.731-9.411,10.791,4.217,8.42,9.411,7.516" transform="translate(520.159 195.679)" fill="#fff"/>
          <path id="Trazado_610668" data-name="Trazado 610668" d="M248.467,99.653a8.119,8.119,0,0,0,6.63-7.594c0-3.563-2.974-5.933-6.63-5.294a8.1,8.1,0,0,0-6.629,7.594c0,3.555,2.966,5.925,6.629,5.294" transform="translate(564.426 190.848)" fill="#fff"/>
          <path id="Trazado_610669" data-name="Trazado 610669" d="M251.995,93.487a4.7,4.7,0,0,0,3.84-4.405,3.1,3.1,0,0,0-3.84-3.072,4.7,4.7,0,0,0-3.848,4.405,3.109,3.109,0,0,0,3.848,3.072" transform="translate(608.694 186.02)" fill="#fff"/>
          <path id="Trazado_610670" data-name="Trazado 610670" d="M255.866,88.05a1.791,1.791,0,0,0,1.459-1.668,1.181,1.181,0,0,0-1.459-1.17,1.792,1.792,0,0,0-1.459,1.676,1.179,1.179,0,0,0,1.459,1.162" transform="translate(652.618 180.846)" fill="#fff"/>
          <path id="Trazado_610671" data-name="Trazado 610671" d="M141.425,111.786a.168.168,0,0,0,.136-.156.107.107,0,0,0-.136-.1.159.159,0,0,0-.128.148.105.105,0,0,0,.128.109" transform="translate(-141.024 359.85)" fill="#fff"/>
          <path id="Trazado_610672" data-name="Trazado 610672" d="M148.9,113.883a2.285,2.285,0,0,0,1.86-2.128,1.5,1.5,0,0,0-1.86-1.481,2.26,2.26,0,0,0-1.852,2.129,1.491,1.491,0,0,0,1.852,1.481" transform="translate(-100.7 351.141)" fill="#fff"/>
          <path id="Trazado_610673" data-name="Trazado 610673" d="M157.179,117.68a5.516,5.516,0,0,0,4.505-5.161,3.638,3.638,0,0,0-4.505-3.6,5.508,5.508,0,0,0-4.505,5.161,3.639,3.639,0,0,0,4.505,3.6" transform="translate(-61.197 341.629)" fill="#fff"/>
          <path id="Trazado_610674" data-name="Trazado 610674" d="M165.7,121.966a9.09,9.09,0,0,0,7.423-8.506c0-3.984-3.327-6.643-7.423-5.933a9.1,9.1,0,0,0-7.423,8.506c0,3.992,3.327,6.643,7.423,5.933" transform="translate(-21.918 331.886)" fill="#fff"/>
          <path id="Trazado_610675" data-name="Trazado 610675" d="M174.324,126.49c5.78-1.006,10.47-6.378,10.47-12s-4.69-9.372-10.47-8.366-10.47,6.378-10.47,12,4.69,9.372,10.47,8.366" transform="translate(17.248 322.036)" fill="#fff"/>
          <path id="Trazado_610676" data-name="Trazado 610676" d="M183.071,131.261c7.544-1.31,13.652-8.311,13.652-15.648s-6.109-12.21-13.652-10.908-13.652,8.319-13.652,15.648,6.117,12.218,13.652,10.908" transform="translate(56.295 312.064)" fill="#fff"/>
          <path id="Trazado_610677" data-name="Trazado 610677" d="M191.819,136.029c9.3-1.614,16.835-10.245,16.835-19.289s-7.536-15.063-16.835-13.45-16.835,10.245-16.835,19.289,7.536,15.063,16.835,13.449" transform="translate(95.342 302.096)" fill="#fff"/>
          <path id="Trazado_610678" data-name="Trazado 610678" d="M200.447,140.559c10.975-1.9,19.881-12.108,19.881-22.782s-8.907-17.792-19.881-15.89-19.881,12.108-19.881,22.782,8.9,17.792,19.881,15.89" transform="translate(134.508 292.241)" fill="#fff"/>
          <path id="Trazado_610679" data-name="Trazado 610679" d="M208.844,144.6c12.514-2.175,22.663-13.8,22.663-25.971s-10.149-20.287-22.663-18.112-22.663,13.8-22.663,25.971,10.149,20.287,22.663,18.112" transform="translate(173.906 282.612)" fill="#fff"/>
          <path id="Trazado_610680" data-name="Trazado 610680" d="M216.777,147.665c13.764-2.386,24.915-15.173,24.915-28.56S230.542,96.814,216.777,99.2s-24.915,15.173-24.915,28.552,11.151,22.3,24.915,19.913" transform="translate(213.767 273.448)" fill="#fff"/>
          <path id="Trazado_610681" data-name="Trazado 610681" d="M223.553,148.305c14.277-2.479,25.845-15.734,25.845-29.62S237.831,95.56,223.553,98.031s-25.845,15.742-25.845,29.62,11.576,23.133,25.845,20.654" transform="translate(254.786 265.416)" fill="#fff"/>
          <path id="Trazado_610682" data-name="Trazado 610682" d="M228.821,145.781c13.837-2.4,25.052-15.251,25.052-28.708s-11.215-22.416-25.052-20.014-25.052,15.251-25.052,28.708,11.215,22.416,25.052,20.014" transform="translate(297.313 258.873)" fill="#fff"/>
          <path id="Trazado_610683" data-name="Trazado 610683" d="M232.923,140.828c12.658-2.2,22.927-13.964,22.927-26.275s-10.269-20.521-22.927-18.322S210,110.195,210,122.506s10.261,20.521,22.927,18.322" transform="translate(341.006 253.471)" fill="#fff"/>
          <path id="Trazado_610684" data-name="Trazado 610684" d="M236.451,134.662c11.127-1.926,20.146-12.264,20.146-23.086s-9.019-18.026-20.146-16.1-20.146,12.272-20.146,23.086,9.019,18.034,20.146,16.1" transform="translate(385.273 248.644)" fill="#fff"/>
          <path id="Trazado_610685" data-name="Trazado 610685" d="M239.626,127.763c9.371-1.622,16.963-10.331,16.963-19.445S249,93.138,239.626,94.767,222.663,105.1,222.663,114.2s7.591,15.18,16.963,13.559" transform="translate(429.884 244.151)" fill="#fff"/>
          <path id="Trazado_610686" data-name="Trazado 610686" d="M242.922,121.113c7.688-1.333,13.917-8.475,13.917-15.952s-6.229-12.451-13.917-11.118-13.917,8.475-13.917,15.952,6.229,12.452,13.917,11.118" transform="translate(474.383 239.551)" fill="#fff"/>
          <path id="Trazado_610687" data-name="Trazado 610687" d="M246.1,114.212c5.932-1.029,10.734-6.534,10.734-12.3s-4.8-9.606-10.734-8.576-10.734,6.534-10.734,12.3,4.8,9.606,10.734,8.576" transform="translate(519.001 235.06)" fill="#fff"/>
          <path id="Trazado_610688" data-name="Trazado 610688" d="M249.394,107.561a9.409,9.409,0,0,0,7.688-8.81c0-4.132-3.447-6.877-7.688-6.144a9.415,9.415,0,0,0-7.688,8.81c0,4.132,3.439,6.877,7.688,6.144" transform="translate(563.5 230.461)" fill="#fff"/>
          <path id="Trazado_610689" data-name="Trazado 610689" d="M252.8,101.147a5.842,5.842,0,0,0,4.77-5.466,3.851,3.851,0,0,0-4.77-3.813,5.827,5.827,0,0,0-4.77,5.466,3.851,3.851,0,0,0,4.77,3.813" transform="translate(607.887 225.741)" fill="#fff"/>
          <path id="Trazado_610690" data-name="Trazado 610690" d="M256.442,95.224a2.6,2.6,0,0,0,2.116-2.433,1.709,1.709,0,0,0-2.116-1.692,2.6,2.6,0,0,0-2.117,2.433,1.709,1.709,0,0,0,2.117,1.692" transform="translate(652.042 220.795)" fill="#fff"/>
          <path id="Trazado_610691" data-name="Trazado 610691" d="M260.663,90.516a.168.168,0,0,0,.136-.156.107.107,0,0,0-.136-.1.159.159,0,0,0-.128.148.1.1,0,0,0,.128.109" transform="translate(695.615 215.282)" fill="#fff"/>
          <path id="Trazado_610692" data-name="Trazado 610692" d="M141.545,117.99a.326.326,0,0,0,.264-.3.215.215,0,0,0-.264-.21.326.326,0,0,0-.265.3.216.216,0,0,0,.265.21" transform="translate(-141.144 400.263)" fill="#fff"/>
          <path id="Trazado_610693" data-name="Trazado 610693" d="M149.366,120.815a2.923,2.923,0,0,0,2.381-2.737,1.928,1.928,0,0,0-2.381-1.9,2.921,2.921,0,0,0-2.389,2.729,1.932,1.932,0,0,0,2.389,1.91" transform="translate(-101.17 391.208)" fill="#fff"/>
          <path id="Trazado_610694" data-name="Trazado 610694" d="M157.642,124.611a6.161,6.161,0,0,0,5.034-5.77,4.066,4.066,0,0,0-5.034-4.023,6.154,6.154,0,0,0-5.034,5.77,4.066,4.066,0,0,0,5.034,4.023" transform="translate(-61.66 381.697)" fill="#fff"/>
          <path id="Trazado_610695" data-name="Trazado 610695" d="M166.271,129.14a9.886,9.886,0,0,0,8.081-9.263c0-4.343-3.615-7.235-8.081-6.463a9.9,9.9,0,0,0-8.081,9.263c0,4.343,3.616,7.235,8.081,6.464" transform="translate(-22.494 371.835)" fill="#fff"/>
          <path id="Trazado_610696" data-name="Trazado 610696" d="M175.018,133.913c6.221-1.084,11.263-6.861,11.263-12.911s-5.043-10.081-11.263-9.005-11.263,6.861-11.263,12.911,5.042,10.081,11.263,9.005" transform="translate(16.553 361.869)" fill="#fff"/>
          <path id="Trazado_610697" data-name="Trazado 610697" d="M183.878,138.923c8.048-1.4,14.582-8.88,14.582-16.708s-6.534-13.044-14.582-11.648S169.3,119.439,169.3,127.274s6.525,13.044,14.574,11.648" transform="translate(55.488 351.792)" fill="#fff"/>
          <path id="Trazado_610698" data-name="Trazado 610698" d="M192.857,144.18c9.957-1.731,18.021-10.978,18.021-20.654s-8.065-16.132-18.021-14.409-18.021,10.978-18.021,20.662,8.065,16.132,18.021,14.4" transform="translate(94.304 341.591)" fill="#fff"/>
          <path id="Trazado_610699" data-name="Trazado 610699" d="M201.956,149.681c11.928-2.074,21.6-13.153,21.6-24.763s-9.676-19.328-21.6-17.262-21.6,13.161-21.6,24.762,9.676,19.328,21.6,17.262" transform="translate(133 331.28)" fill="#fff"/>
          <path id="Trazado_610700" data-name="Trazado 610700" d="M210.816,154.689c13.756-2.386,24.915-15.173,24.915-28.56s-11.159-22.291-24.915-19.905S185.9,121.4,185.9,134.777s11.151,22.3,24.916,19.913" transform="translate(171.935 321.195)" fill="#fff"/>
          <path id="Trazado_610701" data-name="Trazado 610701" d="M219.444,159.219c15.44-2.682,27.962-17.028,27.962-32.053s-12.522-25.02-27.962-22.345-27.962,17.028-27.962,32.053S204,161.9,219.444,159.219" transform="translate(211.101 311.34)" fill="#fff"/>
          <path id="Trazado_610702" data-name="Trazado 610702" d="M226.8,161.07c16.322-2.83,29.557-17.995,29.557-33.869s-13.235-26.455-29.557-23.617-29.557,17.995-29.557,33.869S210.48,163.9,226.8,161.07" transform="translate(251.537 302.745)" fill="#fff"/>
          <path id="Trazado_610703" data-name="Trazado 610703" d="M231.6,157.579c15.592-2.706,28.226-17.192,28.226-32.357S247.191,99.96,231.6,102.666s-28.226,17.192-28.226,32.357,12.634,25.262,28.226,22.556" transform="translate(294.535 296.654)" fill="#fff"/>
          <path id="Trazado_610704" data-name="Trazado 610704" d="M234.9,150.922c13.909-2.409,25.18-15.336,25.18-28.856S248.8,99.526,234.9,101.943s-25.18,15.329-25.18,28.856,11.271,22.533,25.18,20.124" transform="translate(339.034 292.053)" fill="#fff"/>
          <path id="Trazado_610705" data-name="Trazado 610705" d="M237.84,143.543c12-2.082,21.733-13.239,21.733-24.911s-9.732-19.453-21.733-17.371-21.733,13.239-21.733,24.911,9.732,19.453,21.733,17.371" transform="translate(383.884 287.791)" fill="#fff"/>
          <path id="Trazado_610706" data-name="Trazado 610706" d="M240.784,136.159c10.1-1.754,18.286-11.142,18.286-20.966s-8.185-16.365-18.286-14.611S222.5,111.716,222.5,121.54s8.185,16.373,18.286,14.619" transform="translate(428.726 283.535)" fill="#fff"/>
          <path id="Trazado_610707" data-name="Trazado 610707" d="M243.736,128.773c8.2-1.419,14.847-9.036,14.847-17.013S251.936,98.475,243.736,99.9s-14.846,9.037-14.846,17.013,6.646,13.278,14.846,11.859" transform="translate(473.569 279.272)" fill="#fff"/>
          <path id="Trazado_610708" data-name="Trazado 610708" d="M246.793,121.635c6.365-1.107,11.527-7.025,11.527-13.216S253.158,98.1,246.793,99.2s-11.528,7.025-11.528,13.216,5.163,10.323,11.528,9.216" transform="translate(518.307 274.894)" fill="#fff"/>
          <path id="Trazado_610709" data-name="Trazado 610709" d="M249.976,114.737a10.219,10.219,0,0,0,8.345-9.567c0-4.491-3.735-7.477-8.345-6.674a10.227,10.227,0,0,0-8.353,9.567c0,4.483,3.744,7.477,8.353,6.674" transform="translate(562.918 270.408)" fill="#fff"/>
          <path id="Trazado_610710" data-name="Trazado 610710" d="M253.265,108.086a6.487,6.487,0,0,0,5.3-6.074,4.283,4.283,0,0,0-5.3-4.241,6.489,6.489,0,0,0-5.3,6.082,4.282,4.282,0,0,0,5.3,4.234" transform="translate(607.424 265.802)" fill="#fff"/>
          <path id="Trazado_610711" data-name="Trazado 610711" d="M256.792,101.915a3.088,3.088,0,0,0,2.517-2.885,2.033,2.033,0,0,0-2.517-2.012,3.073,3.073,0,0,0-2.517,2.885,2.033,2.033,0,0,0,2.517,2.012" transform="translate(651.691 260.979)" fill="#fff"/>
          <path id="Trazado_610712" data-name="Trazado 610712" d="M260.9,96.963a.493.493,0,0,0,.4-.452.324.324,0,0,0-.4-.32.493.493,0,0,0-.4.452.324.324,0,0,0,.4.32" transform="translate(695.377 255.577)" fill="#fff"/>
          <path id="Trazado_610713" data-name="Trazado 610713" d="M141.664,124.195a.5.5,0,0,0,.4-.46.323.323,0,0,0-.4-.312.493.493,0,0,0-.4.452.324.324,0,0,0,.4.32" transform="translate(-141.263 440.667)" fill="#fff"/>
          <path id="Trazado_610714" data-name="Trazado 610714" d="M149.485,127.02A3.08,3.08,0,0,0,152,124.135a2.03,2.03,0,0,0-2.517-2.012,3.089,3.089,0,0,0-2.525,2.885,2.043,2.043,0,0,0,2.525,2.012" transform="translate(-101.29 431.613)" fill="#fff"/>
          <path id="Trazado_610715" data-name="Trazado 610715" d="M157.874,131.065a6.487,6.487,0,0,0,5.3-6.074,4.283,4.283,0,0,0-5.3-4.242,6.5,6.5,0,0,0-5.3,6.081,4.282,4.282,0,0,0,5.3,4.234" transform="translate(-61.892 421.985)" fill="#fff"/>
          <path id="Trazado_610716" data-name="Trazado 610716" d="M166.509,135.588a10.227,10.227,0,0,0,8.353-9.567c0-4.483-3.744-7.477-8.353-6.674a10.228,10.228,0,0,0-8.353,9.567c0,4.483,3.744,7.477,8.353,6.674" transform="translate(-22.732 412.129)" fill="#fff"/>
          <path id="Trazado_610717" data-name="Trazado 610717" d="M175.25,140.36c6.365-1.107,11.528-7.025,11.528-13.215s-5.163-10.315-11.528-9.216-11.528,7.025-11.528,13.216,5.163,10.323,11.528,9.216" transform="translate(16.322 402.164)" fill="#fff"/>
          <path id="Trazado_610718" data-name="Trazado 610718" d="M184.229,145.612c8.273-1.435,14.975-9.122,14.975-17.161s-6.7-13.4-14.975-11.968-14.975,9.114-14.975,17.161,6.7,13.4,14.975,11.968" transform="translate(55.137 391.969)" fill="#fff"/>
          <path id="Trazado_610719" data-name="Trazado 610719" d="M193.32,151.113c10.245-1.778,18.55-11.3,18.55-21.262s-8.305-16.607-18.55-14.829-18.55,11.3-18.55,21.262,8.3,16.607,18.55,14.83" transform="translate(93.841 381.657)" fill="#fff"/>
          <path id="Trazado_610720" data-name="Trazado 610720" d="M202.419,156.614c12.225-2.121,22.134-13.481,22.134-25.363s-9.909-19.812-22.134-17.691-22.134,13.481-22.134,25.371,9.908,19.8,22.134,17.683" transform="translate(132.537 371.345)" fill="#fff"/>
          <path id="Trazado_610721" data-name="Trazado 610721" d="M211.629,162.356c14.269-2.48,25.845-15.734,25.845-29.62s-11.576-23.125-25.845-20.654-25.845,15.742-25.845,29.62,11.568,23.133,25.845,20.654" transform="translate(171.121 360.918)" fill="#fff"/>
          <path id="Trazado_610722" data-name="Trazado 610722" d="M220.84,168.1c16.322-2.83,29.557-17.995,29.557-33.869s-13.235-26.455-29.557-23.617-29.557,18-29.557,33.869,13.235,26.447,29.557,23.616" transform="translate(209.705 350.493)" fill="#fff"/>
          <path id="Trazado_610723" data-name="Trazado 610723" d="M229.118,171.9c17.789-3.088,32.2-19.609,32.2-36.91s-14.414-28.817-32.2-25.737-32.2,19.617-32.2,36.91,14.414,28.825,32.2,25.737" transform="translate(249.222 340.985)" fill="#fff"/>
          <path id="Trazado_610724" data-name="Trazado 610724" d="M233,166.453c16.466-2.861,29.822-18.159,29.822-34.173S249.462,105.591,233,108.453s-29.821,18.151-29.821,34.173S216.53,169.314,233,166.453" transform="translate(293.139 335.809)" fill="#fff"/>
          <path id="Trazado_610725" data-name="Trazado 610725" d="M235.709,158.589c14.422-2.5,26.11-15.9,26.11-29.924S250.131,105.3,235.709,107.8s-26.11,15.9-26.11,29.924,11.688,23.367,26.11,20.864" transform="translate(338.22 331.775)" fill="#fff"/>
          <path id="Trazado_610726" data-name="Trazado 610726" d="M238.422,150.718c12.37-2.144,22.4-13.637,22.4-25.667s-10.029-20.046-22.4-17.9-22.4,13.637-22.4,25.675,10.029,20.038,22.4,17.894" transform="translate(383.301 327.748)" fill="#fff"/>
          <path id="Trazado_610727" data-name="Trazado 610727" d="M241.254,143.09c10.389-1.8,18.823-11.461,18.823-21.566s-8.434-16.841-18.823-15.04-18.823,11.461-18.823,21.566,8.434,16.841,18.823,15.04" transform="translate(428.256 323.602)" fill="#fff"/>
          <path id="Trazado_610728" data-name="Trazado 610728" d="M244.08,135.464c8.417-1.458,15.239-9.278,15.239-17.465S252.5,104.355,244.08,105.82s-15.24,9.278-15.24,17.465,6.822,13.637,15.24,12.179" transform="translate(473.225 319.455)" fill="#fff"/>
          <path id="Trazado_610729" data-name="Trazado 610729" d="M247.024,128.084c6.517-1.131,11.792-7.181,11.792-13.52s-5.275-10.557-11.792-9.426-11.792,7.189-11.792,13.52,5.275,10.557,11.792,9.426" transform="translate(518.075 315.187)" fill="#fff"/>
          <path id="Trazado_610730" data-name="Trazado 610730" d="M250.208,121.184c4.754-.826,8.61-5.247,8.61-9.871s-3.856-7.711-8.61-6.885-8.618,5.247-8.618,9.871,3.856,7.711,8.618,6.884" transform="translate(562.686 310.703)" fill="#fff"/>
          <path id="Trazado_610731" data-name="Trazado 610731" d="M253.384,114.289a6.654,6.654,0,0,0,5.435-6.23,4.4,4.4,0,0,0-5.435-4.343,6.662,6.662,0,0,0-5.435,6.23,4.39,4.39,0,0,0,5.435,4.343" transform="translate(607.305 306.215)" fill="#fff"/>
          <path id="Trazado_610732" data-name="Trazado 610732" d="M256.912,108.119a3.247,3.247,0,0,0,2.653-3.041,2.14,2.14,0,0,0-2.653-2.113A3.239,3.239,0,0,0,254.258,106a2.141,2.141,0,0,0,2.654,2.121" transform="translate(651.572 301.384)" fill="#fff"/>
          <path id="Trazado_610733" data-name="Trazado 610733" d="M260.9,102.924a.493.493,0,0,0,.4-.452.324.324,0,0,0-.4-.32.493.493,0,0,0-.4.452.324.324,0,0,0,.4.32" transform="translate(695.377 296.093)" fill="#fff"/>
          <path id="Trazado_610734" data-name="Trazado 610734" d="M141.545,129.914a.326.326,0,0,0,.264-.3.216.216,0,0,0-.264-.211.327.327,0,0,0-.265.3.216.216,0,0,0,.265.21" transform="translate(-141.144 481.308)" fill="#fff"/>
          <path id="Trazado_610735" data-name="Trazado 610735" d="M149.366,132.739A2.923,2.923,0,0,0,151.747,130a1.928,1.928,0,0,0-2.381-1.9,2.921,2.921,0,0,0-2.389,2.729,1.933,1.933,0,0,0,2.389,1.91" transform="translate(-101.17 472.253)" fill="#fff"/>
          <path id="Trazado_610736" data-name="Trazado 610736" d="M157.762,136.783a6.336,6.336,0,0,0,5.171-5.926,4.182,4.182,0,0,0-5.171-4.132,6.335,6.335,0,0,0-5.171,5.926,4.182,4.182,0,0,0,5.171,4.132" transform="translate(-61.78 462.619)" fill="#fff"/>
          <path id="Trazado_610737" data-name="Trazado 610737" d="M166.271,141.064a9.886,9.886,0,0,0,8.081-9.263c0-4.343-3.615-7.236-8.081-6.464a9.893,9.893,0,0,0-8.081,9.263c0,4.343,3.616,7.235,8.081,6.464" transform="translate(-22.494 452.88)" fill="#fff"/>
          <path id="Trazado_610738" data-name="Trazado 610738" d="M175.018,145.837c6.221-1.076,11.263-6.861,11.263-12.912s-5.043-10.081-11.263-9.005-11.263,6.861-11.263,12.919,5.042,10.081,11.263,9" transform="translate(16.553 442.914)" fill="#fff"/>
          <path id="Trazado_610739" data-name="Trazado 610739" d="M184,151.09c8.129-1.411,14.71-8.958,14.71-16.857s-6.582-13.169-14.71-11.758-14.71,8.959-14.71,16.857S175.869,152.5,184,151.09" transform="translate(55.369 432.719)" fill="#fff"/>
          <path id="Trazado_610740" data-name="Trazado 610740" d="M192.976,156.347c10.029-1.739,18.158-11.056,18.158-20.81s-8.129-16.249-18.158-14.51-18.157,11.056-18.157,20.81,8.129,16.249,18.157,14.51" transform="translate(94.184 422.518)" fill="#fff"/>
          <path id="Trazado_610741" data-name="Trazado 610741" d="M201.956,161.6c11.928-2.074,21.6-13.153,21.6-24.755s-9.676-19.336-21.6-17.262-21.6,13.153-21.6,24.755,9.676,19.336,21.6,17.262" transform="translate(133 412.323)" fill="#fff"/>
          <path id="Trazado_610742" data-name="Trazado 610742" d="M210.935,166.858c13.836-2.4,25.052-15.251,25.052-28.708s-11.215-22.416-25.052-20.015-25.052,15.251-25.052,28.708,11.215,22.416,25.052,20.014" transform="translate(171.815 402.129)" fill="#fff"/>
          <path id="Trazado_610743" data-name="Trazado 610743" d="M219.675,171.63c15.592-2.706,28.226-17.192,28.226-32.357s-12.634-25.262-28.226-22.556-28.226,17.192-28.226,32.357,12.634,25.261,28.226,22.556" transform="translate(210.87 392.156)" fill="#fff"/>
          <path id="Trazado_610744" data-name="Trazado 610744" d="M227.033,173.479c16.466-2.853,29.822-18.159,29.822-34.173s-13.355-26.688-29.822-23.827-29.821,18.151-29.821,34.173,13.356,26.688,29.821,23.827" transform="translate(251.306 383.563)" fill="#fff"/>
          <path id="Trazado_610745" data-name="Trazado 610745" d="M231.718,169.744c15.665-2.721,28.363-17.27,28.363-32.5s-12.7-25.378-28.363-22.665-28.362,17.27-28.362,32.5,12.7,25.386,28.362,22.665" transform="translate(294.416 377.583)" fill="#fff"/>
          <path id="Trazado_610746" data-name="Trazado 610746" d="M235.014,163.088c13.981-2.425,25.316-15.414,25.316-29.012S249,111.427,235.014,113.851,209.7,129.266,209.7,142.863s11.335,22.65,25.316,20.225" transform="translate(338.915 372.988)" fill="#fff"/>
          <path id="Trazado_610747" data-name="Trazado 610747" d="M237.959,155.708c12.081-2.1,21.869-13.317,21.869-25.059s-9.788-19.57-21.869-17.48-21.869,13.317-21.869,25.067,9.788,19.57,21.869,17.473" transform="translate(383.764 368.72)" fill="#fff"/>
          <path id="Trazado_610748" data-name="Trazado 610748" d="M240.784,148.081c10.1-1.754,18.286-11.134,18.286-20.958s-8.185-16.373-18.286-14.619S222.5,123.639,222.5,133.47c0,9.816,8.185,16.365,18.286,14.611" transform="translate(428.726 364.573)" fill="#fff"/>
          <path id="Trazado_610749" data-name="Trazado 610749" d="M243.848,140.939c8.273-1.435,14.975-9.122,14.975-17.161s-6.7-13.4-14.975-11.968-14.975,9.114-14.975,17.161,6.7,13.4,14.975,11.968" transform="translate(473.457 360.207)" fill="#fff"/>
          <path id="Trazado_610750" data-name="Trazado 610750" d="M246.793,133.559c6.365-1.107,11.527-7.017,11.527-13.216s-5.163-10.315-11.527-9.216-11.528,7.025-11.528,13.216,5.163,10.323,11.528,9.216" transform="translate(518.307 355.939)" fill="#fff"/>
          <path id="Trazado_610751" data-name="Trazado 610751" d="M249.976,126.662a10.22,10.22,0,0,0,8.345-9.567c0-4.491-3.735-7.477-8.345-6.674a10.228,10.228,0,0,0-8.353,9.567c0,4.483,3.744,7.477,8.353,6.674" transform="translate(562.918 351.453)" fill="#fff"/>
          <path id="Trazado_610752" data-name="Trazado 610752" d="M253.265,120.01a6.487,6.487,0,0,0,5.3-6.074,4.283,4.283,0,0,0-5.3-4.241,6.5,6.5,0,0,0-5.3,6.081,4.282,4.282,0,0,0,5.3,4.234" transform="translate(607.424 346.847)" fill="#fff"/>
          <path id="Trazado_610753" data-name="Trazado 610753" d="M256.792,113.838a3.088,3.088,0,0,0,2.517-2.885,2.033,2.033,0,0,0-2.517-2.012,3.073,3.073,0,0,0-2.517,2.885,2.033,2.033,0,0,0,2.517,2.012" transform="translate(651.691 342.017)" fill="#fff"/>
          <path id="Trazado_610754" data-name="Trazado 610754" d="M260.9,108.886a.494.494,0,0,0,.4-.46.322.322,0,0,0-.4-.312.493.493,0,0,0-.4.452.324.324,0,0,0,.4.32" transform="translate(695.377 336.615)" fill="#fff"/>
          <path id="Trazado_610755" data-name="Trazado 610755" d="M141.425,135.634a.167.167,0,0,0,.136-.156.107.107,0,0,0-.136-.1.153.153,0,0,0-.128.148.105.105,0,0,0,.128.109" transform="translate(-141.024 521.94)" fill="#fff"/>
          <path id="Trazado_610756" data-name="Trazado 610756" d="M149.015,137.972A2.429,2.429,0,0,0,151,135.7a1.605,1.605,0,0,0-1.98-1.59,2.42,2.42,0,0,0-1.988,2.277,1.606,1.606,0,0,0,1.988,1.591" transform="translate(-100.82 513.114)" fill="#fff"/>
          <path id="Trazado_610757" data-name="Trazado 610757" d="M157.3,141.769a5.676,5.676,0,0,0,4.642-5.317,3.749,3.749,0,0,0-4.642-3.7,5.676,5.676,0,0,0-4.642,5.318,3.749,3.749,0,0,0,4.642,3.7" transform="translate(-61.317 503.603)" fill="#fff"/>
          <path id="Trazado_610758" data-name="Trazado 610758" d="M165.807,146.056a9.25,9.25,0,0,0,7.552-8.662c0-4.054-3.383-6.76-7.552-6.035a9.242,9.242,0,0,0-7.551,8.662c0,4.054,3.375,6.76,7.551,6.035" transform="translate(-22.031 493.857)" fill="#fff"/>
          <path id="Trazado_610759" data-name="Trazado 610759" d="M174.443,150.579c5.852-1.013,10.606-6.456,10.606-12.155s-4.754-9.481-10.606-8.467-10.606,6.456-10.606,12.147,4.754,9.489,10.606,8.475" transform="translate(17.129 484.009)" fill="#fff"/>
          <path id="Trazado_610760" data-name="Trazado 610760" d="M183.184,155.352c7.616-1.318,13.78-8.4,13.78-15.8s-6.165-12.334-13.78-11.017-13.781,8.4-13.781,15.8,6.165,12.334,13.781,11.017" transform="translate(56.183 474.036)" fill="#fff"/>
          <path id="Trazado_610761" data-name="Trazado 610761" d="M191.931,160.119c9.372-1.622,16.963-10.331,16.963-19.445s-7.592-15.18-16.963-13.551-16.963,10.331-16.963,19.437,7.592,15.18,16.963,13.559" transform="translate(95.23 464.068)" fill="#fff"/>
          <path id="Trazado_610762" data-name="Trazado 610762" d="M200.559,164.649c11.055-1.918,20.009-12.186,20.009-22.938s-8.954-17.909-20.009-15.991-20.009,12.186-20.009,22.938,8.955,17.909,20.009,15.991" transform="translate(134.396 454.213)" fill="#fff"/>
          <path id="Trazado_610763" data-name="Trazado 610763" d="M209.076,168.93c12.658-2.2,22.927-13.964,22.927-26.275s-10.269-20.521-22.927-18.322-22.927,13.964-22.927,26.275,10.261,20.521,22.927,18.323" transform="translate(173.675 444.474)" fill="#fff"/>
          <path id="Trazado_610764" data-name="Trazado 610764" d="M217.009,172c13.909-2.409,25.18-15.337,25.18-28.856s-11.271-22.541-25.18-20.123-25.18,15.328-25.18,28.856S203.1,174.408,217.009,172" transform="translate(213.536 435.308)" fill="#fff"/>
          <path id="Trazado_610765" data-name="Trazado 610765" d="M223.785,172.64c14.422-2.5,26.11-15.9,26.11-29.924s-11.688-23.367-26.11-20.864-26.11,15.9-26.11,29.924,11.688,23.367,26.11,20.864" transform="translate(254.555 427.276)" fill="#fff"/>
          <path id="Trazado_610766" data-name="Trazado 610766" d="M229.052,170.113c13.981-2.425,25.316-15.414,25.316-29.012s-11.335-22.65-25.316-20.225-25.316,15.414-25.316,29.012,11.335,22.65,25.316,20.225" transform="translate(297.082 420.735)" fill="#fff"/>
          <path id="Trazado_610767" data-name="Trazado 610767" d="M233.043,164.92c12.738-2.206,23.063-14.042,23.063-26.431s-10.325-20.638-23.063-18.424-23.064,14.042-23.064,26.431,10.325,20.63,23.064,18.424" transform="translate(340.886 415.45)" fill="#fff"/>
          <path id="Trazado_610768" data-name="Trazado 610768" d="M236.563,158.753c11.2-1.941,20.274-12.35,20.274-23.242s-9.075-18.143-20.274-16.2-20.274,12.35-20.274,23.242,9.075,18.143,20.274,16.2" transform="translate(385.161 410.615)" fill="#fff"/>
          <path id="Trazado_610769" data-name="Trazado 610769" d="M239.745,151.854c9.444-1.637,17.1-10.409,17.1-19.594s-7.655-15.3-17.1-13.66-17.1,10.409-17.1,19.593,7.656,15.3,17.1,13.66" transform="translate(429.765 406.132)" fill="#fff"/>
          <path id="Trazado_610770" data-name="Trazado 610770" d="M242.922,144.96c7.688-1.333,13.917-8.475,13.917-15.952s-6.229-12.451-13.917-11.118-13.917,8.475-13.917,15.952,6.229,12.452,13.917,11.118" transform="translate(474.383 401.634)" fill="#fff"/>
          <path id="Trazado_610771" data-name="Trazado 610771" d="M246.1,138.06c5.932-1.029,10.734-6.534,10.734-12.3s-4.8-9.606-10.734-8.576-10.734,6.534-10.734,12.3,4.8,9.606,10.734,8.576" transform="translate(519.001 397.15)" fill="#fff"/>
          <path id="Trazado_610772" data-name="Trazado 610772" d="M249.394,131.408a9.409,9.409,0,0,0,7.688-8.81c0-4.125-3.447-6.877-7.688-6.144a9.415,9.415,0,0,0-7.688,8.81c0,4.132,3.439,6.877,7.688,6.144" transform="translate(563.5 392.544)" fill="#fff"/>
          <path id="Trazado_610773" data-name="Trazado 610773" d="M252.8,125a5.841,5.841,0,0,0,4.77-5.466,3.851,3.851,0,0,0-4.77-3.813,5.827,5.827,0,0,0-4.77,5.465A3.851,3.851,0,0,0,252.8,125" transform="translate(607.887 387.831)" fill="#fff"/>
          <path id="Trazado_610774" data-name="Trazado 610774" d="M256.442,119.072a2.6,2.6,0,0,0,2.116-2.433,1.709,1.709,0,0,0-2.116-1.692,2.6,2.6,0,0,0-2.117,2.433,1.709,1.709,0,0,0,2.117,1.692" transform="translate(652.042 382.885)" fill="#fff"/>
          <path id="Trazado_610775" data-name="Trazado 610775" d="M260.782,114.6a.327.327,0,0,0,.264-.3.216.216,0,0,0-.264-.211.326.326,0,0,0-.264.3.215.215,0,0,0,.264.211" transform="translate(695.496 377.256)" fill="#fff"/>
          <path id="Trazado_610776" data-name="Trazado 610776" d="M148.44,142.721a1.625,1.625,0,0,0,1.315-1.52,1.069,1.069,0,0,0-1.315-1.06,1.639,1.639,0,0,0-1.331,1.52,1.079,1.079,0,0,0,1.331,1.061" transform="translate(-100.244 554.203)" fill="#fff"/>
          <path id="Trazado_610777" data-name="Trazado 610777" d="M156.485,146.031a4.545,4.545,0,0,0,3.712-4.257,3,3,0,0,0-3.712-2.963,4.545,4.545,0,0,0-3.712,4.257,3,3,0,0,0,3.712,2.963" transform="translate(-60.503 544.921)" fill="#fff"/>
          <path id="Trazado_610778" data-name="Trazado 610778" d="M164.881,150.071a7.953,7.953,0,0,0,6.493-7.446c0-3.485-2.91-5.809-6.493-5.185a7.951,7.951,0,0,0-6.493,7.438c0,3.493,2.91,5.816,6.493,5.193" transform="translate(-21.105 535.298)" fill="#fff"/>
          <path id="Trazado_610779" data-name="Trazado 610779" d="M173.278,154.108c5.122-.889,9.275-5.653,9.275-10.635s-4.153-8.3-9.275-7.407S164,141.711,164,146.694s4.152,8.3,9.275,7.415" transform="translate(18.293 525.67)" fill="#fff"/>
          <path id="Trazado_610780" data-name="Trazado 610780" d="M181.794,158.4c6.734-1.169,12.193-7.422,12.193-13.972s-5.459-10.916-12.193-9.746S169.6,142.1,169.6,148.651s5.459,10.915,12.193,9.746" transform="translate(57.572 515.932)" fill="#fff"/>
          <path id="Trazado_610781" data-name="Trazado 610781" d="M190.31,162.678c8.345-1.45,15.111-9.2,15.111-17.317s-6.766-13.52-15.111-12.069-15.111,9.2-15.111,17.317,6.766,13.52,15.111,12.069" transform="translate(96.851 506.193)" fill="#fff"/>
          <path id="Trazado_610782" data-name="Trazado 610782" d="M198.588,166.479c9.8-1.7,17.757-10.814,17.757-20.357s-7.952-15.89-17.757-14.19-17.757,10.814-17.757,20.357,7.953,15.89,17.757,14.19" transform="translate(136.368 496.677)" fill="#fff"/>
          <path id="Trazado_610783" data-name="Trazado 610783" d="M206.641,169.789c11.127-1.933,20.145-12.264,20.145-23.086s-9.019-18.026-20.145-16.1-20.146,12.272-20.146,23.086,9.019,18.034,20.146,16.1" transform="translate(176.11 487.394)" fill="#fff"/>
          <path id="Trazado_610784" data-name="Trazado 610784" d="M213.992,171.645c12-2.082,21.733-13.231,21.733-24.911s-9.732-19.453-21.733-17.371-21.733,13.239-21.733,24.911,9.732,19.453,21.733,17.371" transform="translate(216.553 478.795)" fill="#fff"/>
          <path id="Trazado_610785" data-name="Trazado 610785" d="M220.536,171.794c12.369-2.144,22.4-13.637,22.4-25.667s-10.029-20.045-22.4-17.9-22.4,13.636-22.4,25.667,10.029,20.046,22.4,17.9" transform="translate(257.803 470.997)" fill="#fff"/>
          <path id="Trazado_610786" data-name="Trazado 610786" d="M226.035,169.759c12.081-2.1,21.869-13.317,21.869-25.059s-9.788-19.57-21.869-17.48-21.869,13.317-21.869,25.067,9.788,19.57,21.869,17.473" transform="translate(300.099 464.222)" fill="#fff"/>
          <path id="Trazado_610787" data-name="Trazado 610787" d="M230.608,165.778c11.2-1.942,20.274-12.35,20.274-23.242s-9.074-18.143-20.274-16.2-20.282,12.35-20.282,23.242,9.083,18.143,20.282,16.2" transform="translate(343.321 458.363)" fill="#fff"/>
          <path id="Trazado_610788" data-name="Trazado 610788" d="M234.479,160.341c9.884-1.715,17.893-10.892,17.893-20.506s-8.008-16.015-17.893-14.3-17.893,10.9-17.893,20.506,8.009,16.015,17.893,14.3" transform="translate(387.245 453.188)" fill="#fff"/>
          <path id="Trazado_610789" data-name="Trazado 610789" d="M238.118,154.413c8.417-1.458,15.239-9.278,15.239-17.465s-6.822-13.644-15.239-12.179-15.24,9.278-15.24,17.465,6.822,13.637,15.24,12.179" transform="translate(431.393 448.248)" fill="#fff"/>
          <path id="Trazado_610790" data-name="Trazado 610790" d="M241.533,148c6.806-1.177,12.329-7.508,12.329-14.128s-5.523-11.033-12.329-9.847-12.33,7.508-12.33,14.128,5.523,11.025,12.33,9.847" transform="translate(475.772 443.53)" fill="#fff"/>
          <path id="Trazado_610791" data-name="Trazado 610791" d="M245.053,141.838c5.267-.912,9.54-5.809,9.54-10.939s-4.273-8.538-9.54-7.625-9.54,5.816-9.54,10.939,4.273,8.537,9.54,7.625" transform="translate(520.047 438.696)" fill="#fff"/>
          <path id="Trazado_610792" data-name="Trazado 610792" d="M248.467,135.425a8.119,8.119,0,0,0,6.63-7.594c0-3.563-2.974-5.933-6.63-5.294a8.1,8.1,0,0,0-6.629,7.594c0,3.555,2.966,5.925,6.629,5.294" transform="translate(564.426 433.983)" fill="#fff"/>
          <path id="Trazado_610793" data-name="Trazado 610793" d="M252.107,129.5a4.87,4.87,0,0,0,3.976-4.553,3.214,3.214,0,0,0-3.976-3.181,4.87,4.87,0,0,0-3.976,4.553,3.211,3.211,0,0,0,3.976,3.181" transform="translate(608.582 429.037)" fill="#fff"/>
          <path id="Trazado_610794" data-name="Trazado 610794" d="M255.866,123.821a1.791,1.791,0,0,0,1.459-1.669,1.181,1.181,0,0,0-1.459-1.169,1.792,1.792,0,0,0-1.459,1.676,1.18,1.18,0,0,0,1.459,1.162" transform="translate(652.618 423.974)" fill="#fff"/>
          <path id="Trazado_610795" data-name="Trazado 610795" d="M147.864,147.463a.811.811,0,0,0,.657-.756.533.533,0,0,0-.657-.53.812.812,0,0,0-.674.756.543.543,0,0,0,.674.53" transform="translate(-99.669 595.298)" fill="#fff"/>
          <path id="Trazado_610796" data-name="Trazado 610796" d="M155.558,150.047a3.247,3.247,0,0,0,2.654-3.041,2.14,2.14,0,0,0-2.654-2.113,3.239,3.239,0,0,0-2.653,3.033,2.141,2.141,0,0,0,2.653,2.121" transform="translate(-59.576 586.359)" fill="#fff"/>
          <path id="Trazado_610797" data-name="Trazado 610797" d="M163.724,153.6a6.329,6.329,0,0,0,5.171-5.926,4.173,4.173,0,0,0-5.171-4.124,6.32,6.32,0,0,0-5.171,5.918,4.178,4.178,0,0,0,5.171,4.132" transform="translate(-19.947 576.959)" fill="#fff"/>
          <path id="Trazado_610798" data-name="Trazado 610798" d="M172,157.4a9.567,9.567,0,0,0,7.816-8.959c0-4.2-3.5-7-7.816-6.253a9.568,9.568,0,0,0-7.816,8.966c0,4.195,3.5,6.994,7.816,6.245" transform="translate(19.57 567.443)" fill="#fff"/>
          <path id="Trazado_610799" data-name="Trazado 610799" d="M180.173,160.955c5.708-.99,10.341-6.292,10.341-11.843s-4.634-9.255-10.341-8.265-10.341,6.292-10.341,11.851,4.634,9.247,10.341,8.257" transform="translate(59.193 558.05)" fill="#fff"/>
          <path id="Trazado_610800" data-name="Trazado 610800" d="M188.339,164.508c7.1-1.232,12.859-7.828,12.859-14.736s-5.756-11.5-12.859-10.269-12.859,7.828-12.859,14.728,5.756,11.508,12.859,10.276" transform="translate(98.822 548.656)" fill="#fff"/>
          <path id="Trazado_610801" data-name="Trazado 610801" d="M196.272,167.576c8.345-1.45,15.111-9.2,15.111-17.317s-6.766-13.52-15.111-12.069-15.111,9.2-15.111,17.309,6.766,13.527,15.111,12.077" transform="translate(138.683 539.484)" fill="#fff"/>
          <path id="Trazado_610802" data-name="Trazado 610802" d="M203.855,169.916c9.371-1.622,16.963-10.331,16.963-19.445s-7.591-15.18-16.963-13.551-16.963,10.331-16.963,19.438,7.592,15.188,16.963,13.558" transform="translate(178.895 530.656)" fill="#fff"/>
          <path id="Trazado_610803" data-name="Trazado 610803" d="M210.975,171.285c10.1-1.754,18.286-11.134,18.286-20.958s-8.185-16.373-18.286-14.619-18.286,11.142-18.286,20.966,8.185,16.365,18.286,14.611" transform="translate(219.57 522.286)" fill="#fff"/>
          <path id="Trazado_610804" data-name="Trazado 610804" d="M217.407,171.191c10.389-1.8,18.823-11.461,18.823-21.566s-8.434-16.841-18.823-15.04-18.823,11.461-18.823,21.566,8.433,16.841,18.823,15.04" transform="translate(260.933 514.599)" fill="#fff"/>
          <path id="Trazado_610805" data-name="Trazado 610805" d="M222.9,169.159c10.1-1.754,18.294-11.134,18.294-20.966S233,131.828,222.9,133.582s-18.286,11.134-18.286,20.966c0,9.816,8.185,16.365,18.286,14.611" transform="translate(303.236 507.829)" fill="#fff"/>
          <path id="Trazado_610806" data-name="Trazado 610806" d="M227.822,165.9c9.443-1.637,17.1-10.409,17.1-19.593s-7.656-15.3-17.1-13.66-17.1,10.409-17.1,19.593,7.656,15.3,17.1,13.66" transform="translate(346.107 501.626)" fill="#fff"/>
          <path id="Trazado_610807" data-name="Trazado 610807" d="M232.156,161.438c8.417-1.458,15.24-9.278,15.24-17.465s-6.822-13.644-15.24-12.179-15.239,9.278-15.239,17.465,6.822,13.637,15.239,12.179" transform="translate(389.567 495.995)" fill="#fff"/>
          <path id="Trazado_610808" data-name="Trazado 610808" d="M236.146,156.243c7.175-1.247,12.987-7.906,12.987-14.884s-5.812-11.625-12.987-10.378-12.987,7.906-12.987,14.884,5.812,11.625,12.987,10.377" transform="translate(433.364 490.711)" fill="#fff"/>
          <path id="Trazado_610809" data-name="Trazado 610809" d="M239.9,150.563c5.78-1.006,10.47-6.378,10.47-12s-4.69-9.372-10.47-8.366-10.47,6.378-10.47,12,4.69,9.372,10.47,8.366" transform="translate(477.4 485.648)" fill="#fff"/>
          <path id="Trazado_610810" data-name="Trazado 610810" d="M243.663,144.883a9.734,9.734,0,0,0,7.952-9.114c0-4.273-3.559-7.118-7.952-6.354a9.735,9.735,0,0,0-7.952,9.114c0,4.273,3.559,7.119,7.952,6.354" transform="translate(521.436 480.591)" fill="#fff"/>
          <path id="Trazado_610811" data-name="Trazado 610811" d="M247.3,138.959a6.487,6.487,0,0,0,5.3-6.074,4.283,4.283,0,0,0-5.3-4.241,6.5,6.5,0,0,0-5.3,6.082,4.282,4.282,0,0,0,5.3,4.234" transform="translate(565.591 475.639)" fill="#fff"/>
          <path id="Trazado_610812" data-name="Trazado 610812" d="M251.062,133.274a3.4,3.4,0,0,0,2.782-3.189,2.242,2.242,0,0,0-2.782-2.222,3.4,3.4,0,0,0-2.782,3.189,2.249,2.249,0,0,0,2.782,2.222" transform="translate(609.627 470.587)" fill="#fff"/>
          <path id="Trazado_610813" data-name="Trazado 610813" d="M255.171,128.32a.811.811,0,0,0,.665-.756.536.536,0,0,0-.665-.53.8.8,0,0,0-.665.756.536.536,0,0,0,.665.53" transform="translate(653.312 465.187)" fill="#fff"/>
          <path id="Trazado_610814" data-name="Trazado 610814" d="M147.394,152.456a.177.177,0,0,0,.136-.156.11.11,0,0,0-.136-.1.167.167,0,0,0-.136.148.112.112,0,0,0,.136.109" transform="translate(-99.199 636.275)" fill="#fff"/>
          <path id="Trazado_610815" data-name="Trazado 610815" d="M154.513,153.825a1.791,1.791,0,0,0,1.459-1.669,1.181,1.181,0,0,0-1.459-1.17,1.792,1.792,0,0,0-1.459,1.676,1.18,1.18,0,0,0,1.459,1.162" transform="translate(-58.531 627.905)" fill="#fff"/>
          <path id="Trazado_610816" data-name="Trazado 610816" d="M162.327,156.65a4.37,4.37,0,0,0,3.575-4.1,2.887,2.887,0,0,0-3.575-2.861,4.377,4.377,0,0,0-3.575,4.1,2.887,2.887,0,0,0,3.575,2.862" transform="translate(-18.551 618.85)" fill="#fff"/>
          <path id="Trazado_610817" data-name="Trazado 610817" d="M170.38,159.96a7.3,7.3,0,0,0,5.964-6.838,4.822,4.822,0,0,0-5.964-4.764,7.3,7.3,0,0,0-5.964,6.838c0,3.2,2.669,5.333,5.964,4.764" transform="translate(21.191 609.568)" fill="#fff"/>
          <path id="Trazado_610818" data-name="Trazado 610818" d="M178.314,163.028a10.061,10.061,0,0,0,8.217-9.419c0-4.413-3.68-7.352-8.217-6.565a10.061,10.061,0,0,0-8.217,9.419c0,4.413,3.68,7.352,8.217,6.565" transform="translate(61.052 600.395)" fill="#fff"/>
          <path id="Trazado_610819" data-name="Trazado 610819" d="M186.128,165.853c5.708-.99,10.341-6.292,10.341-11.851s-4.633-9.247-10.341-8.257-10.333,6.292-10.333,11.851,4.626,9.247,10.333,8.257" transform="translate(101.033 591.34)" fill="#fff"/>
          <path id="Trazado_610820" data-name="Trazado 610820" d="M193.837,168.435c6.806-1.177,12.321-7.508,12.321-14.128s-5.515-11.025-12.321-9.847-12.329,7.508-12.329,14.128,5.523,11.025,12.329,9.847" transform="translate(141.118 582.404)" fill="#fff"/>
          <path id="Trazado_610821" data-name="Trazado 610821" d="M201.189,170.291c7.688-1.333,13.917-8.475,13.917-15.952s-6.229-12.451-13.917-11.118-13.917,8.475-13.917,15.952,6.229,12.451,13.917,11.118" transform="translate(181.561 573.804)" fill="#fff"/>
          <path id="Trazado_610822" data-name="Trazado 610822" d="M207.965,170.927c8.2-1.419,14.846-9.037,14.846-17.013s-6.646-13.286-14.846-11.859-14.847,9.037-14.847,17.013,6.646,13.278,14.847,11.859" transform="translate(222.58 565.777)" fill="#fff"/>
          <path id="Trazado_610823" data-name="Trazado 610823" d="M214.271,170.591c8.417-1.458,15.239-9.278,15.239-17.465s-6.822-13.644-15.239-12.178-15.24,9.278-15.24,17.465,6.822,13.636,15.24,12.179" transform="translate(264.069 558.206)" fill="#fff"/>
          <path id="Trazado_610824" data-name="Trazado 610824" d="M220,169.04c8.273-1.435,14.975-9.122,14.975-17.161s-6.7-13.4-14.975-11.968-14.975,9.115-14.975,17.161,6.7,13.4,14.975,11.968" transform="translate(306.133 551.204)" fill="#fff"/>
          <path id="Trazado_610825" data-name="Trazado 610825" d="M225.037,166.037c7.688-1.333,13.916-8.475,13.916-15.952s-6.229-12.451-13.916-11.118-13.917,8.475-13.917,15.952,6.229,12.452,13.917,11.118" transform="translate(348.892 544.89)" fill="#fff"/>
          <path id="Trazado_610826" data-name="Trazado 610826" d="M229.609,162.056c6.806-1.185,12.322-7.508,12.322-14.128s-5.515-11.032-12.322-9.847-12.329,7.509-12.329,14.128,5.523,11.025,12.329,9.847" transform="translate(392.114 539.032)" fill="#fff"/>
          <path id="Trazado_610827" data-name="Trazado 610827" d="M233.943,157.588c5.78-1.006,10.47-6.378,10.47-12s-4.69-9.372-10.47-8.366-10.47,6.378-10.47,12,4.69,9.372,10.47,8.366" transform="translate(435.568 533.402)" fill="#fff"/>
          <path id="Trazado_610828" data-name="Trazado 610828" d="M238.052,152.636a10.227,10.227,0,0,0,8.353-9.567c0-4.491-3.744-7.477-8.353-6.674a10.227,10.227,0,0,0-8.353,9.566c0,4.483,3.744,7.477,8.353,6.674" transform="translate(479.253 528)" fill="#fff"/>
          <path id="Trazado_610829" data-name="Trazado 610829" d="M242.036,147.441a7.458,7.458,0,0,0,6.092-6.986,4.923,4.923,0,0,0-6.092-4.873,7.459,7.459,0,0,0-6.093,6.986,4.923,4.923,0,0,0,6.093,4.873" transform="translate(523.064 522.709)" fill="#fff"/>
          <path id="Trazado_610830" data-name="Trazado 610830" d="M246.033,142.246a4.7,4.7,0,0,0,3.84-4.405,3.1,3.1,0,0,0-3.84-3.072,4.7,4.7,0,0,0-3.848,4.405,3.109,3.109,0,0,0,3.848,3.072" transform="translate(566.861 517.425)" fill="#fff"/>
          <path id="Trazado_610831" data-name="Trazado 610831" d="M250.016,137.05a1.95,1.95,0,0,0,1.587-1.824,1.288,1.288,0,0,0-1.587-1.271,1.942,1.942,0,0,0-1.587,1.824,1.278,1.278,0,0,0,1.587,1.271" transform="translate(610.673 512.134)" fill="#fff"/>
          <path id="Trazado_610832" data-name="Trazado 610832" d="M254.7,133.313a.161.161,0,0,0,.128-.156.1.1,0,0,0-.128-.1.159.159,0,0,0-.128.148.106.106,0,0,0,.128.109" transform="translate(653.782 506.164)" fill="#fff"/>
          <path id="Trazado_610833" data-name="Trazado 610833" d="M153.587,157.839a.493.493,0,0,0,.4-.452.324.324,0,0,0-.4-.32.493.493,0,0,0-.4.452.323.323,0,0,0,.4.32" transform="translate(-57.605 669.345)" fill="#fff"/>
          <path id="Trazado_610834" data-name="Trazado 610834" d="M160.938,159.692a2.428,2.428,0,0,0,1.988-2.277,1.609,1.609,0,0,0-1.988-1.59,2.428,2.428,0,0,0-1.988,2.277,1.609,1.609,0,0,0,1.988,1.591" transform="translate(-17.161 660.74)" fill="#fff"/>
          <path id="Trazado_610835" data-name="Trazado 610835" d="M168.64,162.276a4.87,4.87,0,0,0,3.976-4.553,3.214,3.214,0,0,0-3.976-3.181,4.871,4.871,0,0,0-3.976,4.561,3.209,3.209,0,0,0,3.976,3.173" transform="translate(22.931 651.802)" fill="#fff"/>
          <path id="Trazado_610836" data-name="Trazado 610836" d="M176.342,164.858a7.3,7.3,0,0,0,5.965-6.838c0-3.2-2.67-5.333-5.965-4.764a7.3,7.3,0,0,0-5.964,6.838c0,3.2,2.669,5.333,5.964,4.764" transform="translate(63.024 642.858)" fill="#fff"/>
          <path id="Trazado_610837" data-name="Trazado 610837" d="M183.925,167.2a9.567,9.567,0,0,0,7.816-8.959c0-4.2-3.5-7-7.816-6.253a9.569,9.569,0,0,0-7.816,8.967c0,4.195,3.5,6.994,7.816,6.245" transform="translate(103.236 634.031)" fill="#fff"/>
          <path id="Trazado_610838" data-name="Trazado 610838" d="M191.284,169.052c5.195-.9,9.411-5.731,9.411-10.783s-4.216-8.421-9.411-7.524-9.411,5.731-9.411,10.791,4.217,8.42,9.411,7.516" transform="translate(143.672 625.433)" fill="#fff"/>
          <path id="Trazado_610839" data-name="Trazado 610839" d="M198.4,170.416c5.932-1.029,10.734-6.542,10.734-12.3s-4.8-9.605-10.734-8.576-10.734,6.534-10.734,12.3,4.8,9.606,10.734,8.577" transform="translate(184.347 617.067)" fill="#fff"/>
          <path id="Trazado_610840" data-name="Trazado 610840" d="M205.06,170.814c6.365-1.107,11.528-7.017,11.528-13.215s-5.163-10.315-11.528-9.216-11.528,7.025-11.528,13.216,5.163,10.323,11.528,9.216" transform="translate(225.485 609.154)" fill="#fff"/>
          <path id="Trazado_610841" data-name="Trazado 610841" d="M211.253,170.236c6.517-1.131,11.792-7.181,11.792-13.52s-5.275-10.557-11.792-9.426-11.792,7.188-11.792,13.52,5.275,10.557,11.792,9.426" transform="translate(267.086 601.693)" fill="#fff"/>
          <path id="Trazado_610842" data-name="Trazado 610842" d="M216.984,168.687c6.365-1.107,11.528-7.025,11.528-13.215s-5.163-10.315-11.528-9.216-11.528,7.025-11.528,13.216,5.163,10.323,11.528,9.216" transform="translate(309.15 594.697)" fill="#fff"/>
          <path id="Trazado_610843" data-name="Trazado 610843" d="M222.251,166.162c5.932-1.029,10.734-6.534,10.734-12.3s-4.8-9.606-10.734-8.577-10.734,6.534-10.734,12.3,4.8,9.606,10.734,8.577" transform="translate(351.678 588.154)" fill="#fff"/>
          <path id="Trazado_610844" data-name="Trazado 610844" d="M227.167,162.914c5.267-.912,9.54-5.809,9.54-10.939s-4.273-8.538-9.54-7.625-9.539,5.817-9.539,10.939,4.273,8.537,9.539,7.625" transform="translate(394.556 581.945)" fill="#fff"/>
          <path id="Trazado_610845" data-name="Trazado 610845" d="M231.739,158.934a9.734,9.734,0,0,0,7.952-9.114c0-4.273-3.559-7.118-7.952-6.355a9.735,9.735,0,0,0-7.952,9.115c0,4.273,3.559,7.118,7.952,6.354" transform="translate(437.771 576.093)" fill="#fff"/>
          <path id="Trazado_610846" data-name="Trazado 610846" d="M236.074,154.466a7.458,7.458,0,0,0,6.092-6.986,4.923,4.923,0,0,0-6.092-4.873,7.458,7.458,0,0,0-6.093,6.986,4.923,4.923,0,0,0,6.093,4.873" transform="translate(481.231 570.463)" fill="#fff"/>
          <path id="Trazado_610847" data-name="Trazado 610847" d="M240.3,149.757a5.03,5.03,0,0,0,4.1-4.709,3.315,3.315,0,0,0-4.1-3.282,5.023,5.023,0,0,0-4.1,4.709,3.318,3.318,0,0,0,4.1,3.282" transform="translate(524.804 564.943)" fill="#fff"/>
          <path id="Trazado_610848" data-name="Trazado 610848" d="M244.525,145.047a2.6,2.6,0,0,0,2.116-2.433,1.709,1.709,0,0,0-2.116-1.692,2.6,2.6,0,0,0-2.125,2.433,1.716,1.716,0,0,0,2.125,1.692" transform="translate(568.37 559.432)" fill="#fff"/>
          <path id="Trazado_610849" data-name="Trazado 610849" d="M248.978,140.823a.493.493,0,0,0,.4-.452.324.324,0,0,0-.4-.32.493.493,0,0,0-.4.452.324.324,0,0,0,.4.32" transform="translate(611.711 553.684)" fill="#fff"/>
          <path id="Trazado_610850" data-name="Trazado 610850" d="M159.661,162.982a.653.653,0,0,0,.529-.608.424.424,0,0,0-.529-.421.646.646,0,0,0-.529.608.428.428,0,0,0,.529.421" transform="translate(-15.884 702.525)" fill="#fff"/>
          <path id="Trazado_610851" data-name="Trazado 610851" d="M166.9,164.591a2.428,2.428,0,0,0,1.988-2.277,1.609,1.609,0,0,0-1.988-1.59A2.428,2.428,0,0,0,164.912,163a1.609,1.609,0,0,0,1.988,1.59" transform="translate(24.671 694.038)" fill="#fff"/>
          <path id="Trazado_610852" data-name="Trazado 610852" d="M174.371,166.688a4.545,4.545,0,0,0,3.712-4.257,3,3,0,0,0-3.712-2.963,4.545,4.545,0,0,0-3.712,4.257,3,3,0,0,0,3.712,2.963" transform="translate(64.995 685.322)" fill="#fff"/>
          <path id="Trazado_610853" data-name="Trazado 610853" d="M181.61,168.3a6.328,6.328,0,0,0,5.171-5.926,4.173,4.173,0,0,0-5.171-4.124,6.32,6.32,0,0,0-5.171,5.918,4.178,4.178,0,0,0,5.171,4.132" transform="translate(105.551 676.845)" fill="#fff"/>
          <path id="Trazado_610854" data-name="Trazado 610854" d="M188.849,169.908a8.119,8.119,0,0,0,6.63-7.594c0-3.563-2.974-5.933-6.63-5.294a8.1,8.1,0,0,0-6.63,7.594c0,3.555,2.966,5.925,6.63,5.294" transform="translate(146.107 668.356)" fill="#fff"/>
          <path id="Trazado_610855" data-name="Trazado 610855" d="M195.737,170.79a9.409,9.409,0,0,0,7.688-8.81c0-4.132-3.447-6.877-7.688-6.144a9.415,9.415,0,0,0-7.688,8.811c0,4.132,3.439,6.885,7.688,6.144" transform="translate(187.013 660.215)" fill="#fff"/>
          <path id="Trazado_610856" data-name="Trazado 610856" d="M202.281,170.941a10.227,10.227,0,0,0,8.353-9.567c0-4.491-3.744-7.477-8.353-6.674a10.227,10.227,0,0,0-8.353,9.567c0,4.483,3.744,7.477,8.353,6.674" transform="translate(228.264 652.415)" fill="#fff"/>
          <path id="Trazado_610857" data-name="Trazado 610857" d="M208.475,170.362c4.762-.826,8.618-5.247,8.618-9.871s-3.856-7.711-8.618-6.884-8.618,5.247-8.618,9.871,3.856,7.711,8.618,6.885" transform="translate(269.865 644.956)" fill="#fff"/>
          <path id="Trazado_610858" data-name="Trazado 610858" d="M214.205,168.814a10.227,10.227,0,0,0,8.353-9.567c0-4.491-3.744-7.477-8.353-6.674a10.227,10.227,0,0,0-8.353,9.567c0,4.483,3.744,7.477,8.353,6.674" transform="translate(311.929 637.958)" fill="#fff"/>
          <path id="Trazado_610859" data-name="Trazado 610859" d="M219.585,166.536a9.409,9.409,0,0,0,7.688-8.81c0-4.132-3.447-6.877-7.688-6.144a9.415,9.415,0,0,0-7.688,8.81c0,4.132,3.439,6.877,7.688,6.144" transform="translate(354.344 631.294)" fill="#fff"/>
          <path id="Trazado_610860" data-name="Trazado 610860" d="M224.621,163.527a8.119,8.119,0,0,0,6.63-7.594c0-3.563-2.974-5.933-6.63-5.294a8.1,8.1,0,0,0-6.63,7.594c0,3.555,2.966,5.926,6.63,5.294" transform="translate(397.103 624.986)" fill="#fff"/>
          <path id="Trazado_610861" data-name="Trazado 610861" d="M229.417,160.036a6.487,6.487,0,0,0,5.3-6.074,4.283,4.283,0,0,0-5.3-4.241,6.5,6.5,0,0,0-5.3,6.081,4.282,4.282,0,0,0,5.3,4.234" transform="translate(440.093 618.895)" fill="#fff"/>
          <path id="Trazado_610862" data-name="Trazado 610862" d="M234.1,156.3a4.7,4.7,0,0,0,3.84-4.405,3.1,3.1,0,0,0-3.84-3.072,4.7,4.7,0,0,0-3.84,4.405,3.1,3.1,0,0,0,3.84,3.072" transform="translate(483.203 612.92)" fill="#fff"/>
          <path id="Trazado_610863" data-name="Trazado 610863" d="M238.556,152.072a2.6,2.6,0,0,0,2.116-2.432,1.709,1.709,0,0,0-2.116-1.692,2.6,2.6,0,0,0-2.117,2.433,1.709,1.709,0,0,0,2.117,1.692" transform="translate(526.544 607.179)" fill="#fff"/>
          <path id="Trazado_610864" data-name="Trazado 610864" d="M243.128,148.091a.653.653,0,0,0,.529-.608.428.428,0,0,0-.529-.421.638.638,0,0,0-.529.608.425.425,0,0,0,.529.421" transform="translate(569.766 601.321)" fill="#fff"/>
          <path id="Trazado_610865" data-name="Trazado 610865" d="M165.511,167.636a.493.493,0,0,0,.4-.452.324.324,0,0,0-.4-.32.493.493,0,0,0-.4.452.324.324,0,0,0,.4.32" transform="translate(26.061 735.927)" fill="#fff"/>
          <path id="Trazado_610866" data-name="Trazado 610866" d="M172.4,168.52a1.791,1.791,0,0,0,1.459-1.669,1.181,1.181,0,0,0-1.459-1.169,1.792,1.792,0,0,0-1.459,1.676,1.179,1.179,0,0,0,1.459,1.162" transform="translate(66.967 727.783)" fill="#fff"/>
          <path id="Trazado_610867" data-name="Trazado 610867" d="M179.519,169.884A3.4,3.4,0,0,0,182.3,166.7a2.242,2.242,0,0,0-2.782-2.222,3.4,3.4,0,0,0-2.782,3.189,2.249,2.249,0,0,0,2.782,2.222" transform="translate(107.642 719.418)" fill="#fff"/>
          <path id="Trazado_610868" data-name="Trazado 610868" d="M186.414,170.767a4.7,4.7,0,0,0,3.84-4.405,3.1,3.1,0,0,0-3.84-3.072,4.7,4.7,0,0,0-3.848,4.4,3.109,3.109,0,0,0,3.848,3.072" transform="translate(148.542 711.276)" fill="#fff"/>
          <path id="Trazado_610869" data-name="Trazado 610869" d="M193.183,171.4a5.841,5.841,0,0,0,4.77-5.465,3.851,3.851,0,0,0-4.77-3.813,5.828,5.828,0,0,0-4.77,5.466,3.851,3.851,0,0,0,4.77,3.813" transform="translate(189.567 703.249)" fill="#fff"/>
          <path id="Trazado_610870" data-name="Trazado 610870" d="M199.608,171.31a6.487,6.487,0,0,0,5.3-6.074,4.278,4.278,0,0,0-5.3-4.234,6.487,6.487,0,0,0-5.3,6.074,4.282,4.282,0,0,0,5.3,4.234" transform="translate(230.937 695.561)" fill="#fff"/>
          <path id="Trazado_610871" data-name="Trazado 610871" d="M205.689,170.492a6.655,6.655,0,0,0,5.435-6.23,4.4,4.4,0,0,0-5.435-4.343,6.662,6.662,0,0,0-5.436,6.23,4.39,4.39,0,0,0,5.436,4.343" transform="translate(272.65 688.215)" fill="#fff"/>
          <path id="Trazado_610872" data-name="Trazado 610872" d="M211.532,169.188a6.487,6.487,0,0,0,5.3-6.074,4.283,4.283,0,0,0-5.3-4.242,6.5,6.5,0,0,0-5.3,6.082,4.282,4.282,0,0,0,5.3,4.234" transform="translate(314.602 681.099)" fill="#fff"/>
          <path id="Trazado_610873" data-name="Trazado 610873" d="M217.031,167.149a5.841,5.841,0,0,0,4.77-5.466,3.851,3.851,0,0,0-4.77-3.813,5.827,5.827,0,0,0-4.77,5.465,3.851,3.851,0,0,0,4.77,3.813" transform="translate(356.898 674.336)" fill="#fff"/>
          <path id="Trazado_610874" data-name="Trazado 610874" d="M222.3,164.628a4.871,4.871,0,0,0,3.976-4.561,3.213,3.213,0,0,0-3.976-3.173,4.87,4.87,0,0,0-3.976,4.553,3.214,3.214,0,0,0,3.976,3.181" transform="translate(399.425 667.788)" fill="#fff"/>
          <path id="Trazado_610875" data-name="Trazado 610875" d="M227.214,161.376A3.4,3.4,0,0,0,230,158.187a2.242,2.242,0,0,0-2.782-2.222,3.4,3.4,0,0,0-2.782,3.189,2.245,2.245,0,0,0,2.782,2.222" transform="translate(442.297 661.591)" fill="#fff"/>
          <path id="Trazado_610876" data-name="Trazado 610876" d="M232.13,158.126a1.942,1.942,0,0,0,1.587-1.824,1.285,1.285,0,0,0-1.587-1.271,1.942,1.942,0,0,0-1.587,1.825,1.278,1.278,0,0,0,1.587,1.271" transform="translate(485.175 655.384)" fill="#fff"/>
          <path id="Trazado_610877" data-name="Trazado 610877" d="M237.054,154.874a.493.493,0,0,0,.4-.452.324.324,0,0,0-.4-.32.493.493,0,0,0-.4.452.324.324,0,0,0,.4.32" transform="translate(528.046 649.186)" fill="#fff"/>
          <path id="Trazado_610878" data-name="Trazado 610878" d="M171.234,172.05a.159.159,0,0,0,.128-.148.1.1,0,0,0-.128-.109.159.159,0,0,0-.128.148.1.1,0,0,0,.128.109" transform="translate(68.132 769.452)" fill="#fff"/>
          <path id="Trazado_610879" data-name="Trazado 610879" d="M177.666,171.955a.811.811,0,0,0,.665-.756.536.536,0,0,0-.665-.53.8.8,0,0,0-.665.756.536.536,0,0,0,.665.53" transform="translate(109.495 761.765)" fill="#fff"/>
          <path id="Trazado_610880" data-name="Trazado 610880" d="M184.323,172.355a1.791,1.791,0,0,0,1.459-1.669,1.181,1.181,0,0,0-1.459-1.169,1.784,1.784,0,0,0-1.459,1.676,1.176,1.176,0,0,0,1.459,1.162" transform="translate(150.632 753.849)" fill="#fff"/>
          <path id="Trazado_610881" data-name="Trazado 610881" d="M190.86,172.5a2.6,2.6,0,0,0,2.116-2.433,1.709,1.709,0,0,0-2.116-1.692,2.6,2.6,0,0,0-2.116,2.433,1.709,1.709,0,0,0,2.116,1.692" transform="translate(191.89 746.052)" fill="#fff"/>
          <path id="Trazado_610882" data-name="Trazado 610882" d="M197.173,172.169a3.088,3.088,0,0,0,2.517-2.885,2.033,2.033,0,0,0-2.517-2.012,3.081,3.081,0,0,0-2.517,2.885,2.037,2.037,0,0,0,2.517,2.012" transform="translate(233.372 738.481)" fill="#fff"/>
          <path id="Trazado_610883" data-name="Trazado 610883" d="M203.255,171.348a3.247,3.247,0,0,0,2.653-3.041,2.14,2.14,0,0,0-2.653-2.113,3.239,3.239,0,0,0-2.654,3.033,2.141,2.141,0,0,0,2.654,2.121" transform="translate(275.085 731.138)" fill="#fff"/>
          <path id="Trazado_610884" data-name="Trazado 610884" d="M209.1,170.042a3.079,3.079,0,0,0,2.517-2.885,2.03,2.03,0,0,0-2.517-2.012,3.088,3.088,0,0,0-2.517,2.885,2.036,2.036,0,0,0,2.517,2.011" transform="translate(317.037 724.024)" fill="#fff"/>
          <path id="Trazado_610885" data-name="Trazado 610885" d="M214.715,168.25a2.6,2.6,0,0,0,2.116-2.433,1.709,1.709,0,0,0-2.116-1.692,2.6,2.6,0,0,0-2.124,2.433,1.716,1.716,0,0,0,2.124,1.692" transform="translate(359.213 717.138)" fill="#fff"/>
          <path id="Trazado_610886" data-name="Trazado 610886" d="M220.1,165.974a1.79,1.79,0,0,0,1.459-1.668,1.181,1.181,0,0,0-1.459-1.169,1.783,1.783,0,0,0-1.459,1.676,1.176,1.176,0,0,0,1.459,1.162" transform="translate(401.629 710.479)" fill="#fff"/>
          <path id="Trazado_610887" data-name="Trazado 610887" d="M225.361,163.447a.811.811,0,0,0,.665-.756.536.536,0,0,0-.665-.53.8.8,0,0,0-.665.756.536.536,0,0,0,.665.53" transform="translate(444.149 703.938)" fill="#fff"/>
          <path id="Trazado_610888" data-name="Trazado 610888" d="M230.853,161.414a.16.16,0,0,0,.128-.156.1.1,0,0,0-.128-.1.158.158,0,0,0-.128.148.1.1,0,0,0,.128.109" transform="translate(486.452 697.161)" fill="#fff"/>
          <path id="Trazado_610889" data-name="Trazado 610889" d="M189.127,174.821a.16.16,0,0,0,.128-.156.1.1,0,0,0-.128-.1.16.16,0,0,0-.136.148.112.112,0,0,0,.136.109" transform="translate(193.623 788.286)" fill="#fff"/>
          <path id="Trazado_610890" data-name="Trazado 610890" d="M195.321,174.242a.494.494,0,0,0,.4-.46.322.322,0,0,0-.4-.312.493.493,0,0,0-.4.452.324.324,0,0,0,.4.32" transform="translate(235.224 780.833)" fill="#fff"/>
          <path id="Trazado_610891" data-name="Trazado 610891" d="M201.283,173.179a.494.494,0,0,0,.4-.46.322.322,0,0,0-.4-.312.493.493,0,0,0-.4.452.324.324,0,0,0,.4.32" transform="translate(277.057 773.601)" fill="#fff"/>
          <path id="Trazado_610892" data-name="Trazado 610892" d="M207.245,172.114a.493.493,0,0,0,.4-.452.324.324,0,0,0-.4-.32.493.493,0,0,0-.4.452.324.324,0,0,0,.4.32" transform="translate(318.889 766.37)" fill="#fff"/>
          <path id="Trazado_610893" data-name="Trazado 610893" d="M213.088,170.808a.327.327,0,0,0,.265-.3.216.216,0,0,0-.265-.21.32.32,0,0,0-.265.3.216.216,0,0,0,.265.211" transform="translate(360.841 759.256)" fill="#fff"/>
        </g>
      </g>
    </g>
  </g>
</svg>
