<svg xmlns="http://www.w3.org/2000/svg" xmlns:xlink="http://www.w3.org/1999/xlink" width="1328" height="884.358" viewBox="0 0 1328 884.358">
  <defs>
    <linearGradient id="linear-gradient" x1="0.5" x2="0.5" y2="1" gradientUnits="objectBoundingBox">
      <stop offset="0" stop-color="#fffde6"/>
      <stop offset="1" stop-color="#fff"/>
    </linearGradient>
    <clipPath id="clip-path">
      <path id="Trazado_611582" data-name="Trazado 611582" d="M0,0H1328V590.128H0Z" fill="#fffde6"/>
    </clipPath>
    <clipPath id="clip-path-2">
      <rect id="Rect치ngulo_377960" data-name="Rect치ngulo 377960" width="956.679" height="919.837" fill="#fff"/>
    </clipPath>
  </defs>
  <g id="Grupo_1073809" data-name="Grupo 1073809" transform="translate(-136 -6304.122)">
    <g id="Grupo_1072201" data-name="Grupo 1072201" transform="translate(136 6304.122)">
      <path id="Trazado_609286" data-name="Trazado 609286" d="M0,0H1328V879.826H0Z" fill="#fffde6"/>
      <path id="Trazado_609287" data-name="Trazado 609287" d="M0,0H1328V97H0Z" transform="translate(1328 97) rotate(180)" fill="url(#linear-gradient)"/>
      <rect id="Rect치ngulo_377725" data-name="Rect치ngulo 377725" width="1328" height="97" transform="translate(0 787.357)" fill="url(#linear-gradient)"/>
    </g>
    <g id="Enmascarar_grupo_154388" data-name="Enmascarar grupo 154388" transform="translate(136 6598.351)" clip-path="url(#clip-path)">
      <g id="Grupo_1072943" data-name="Grupo 1072943" transform="translate(575.851 15.62)">
        <g id="Grupo_1072830" data-name="Grupo 1072830" transform="translate(0 0)" clip-path="url(#clip-path-2)">
          <path id="Trazado_610553" data-name="Trazado 610553" d="M189.127,55.571a.155.155,0,0,0,.128-.149.1.1,0,0,0-.128-.1.155.155,0,0,0-.136.141.111.111,0,0,0,.136.1" transform="translate(193.623 -23.641)" fill="#fff"/>
          <path id="Trazado_610554" data-name="Trazado 610554" d="M195.2,54.737a.317.317,0,0,0,.264-.29.213.213,0,0,0-.264-.2.317.317,0,0,0-.265.29.213.213,0,0,0,.265.2" transform="translate(235.343 -30.603)" fill="#fff"/>
          <path id="Trazado_610555" data-name="Trazado 610555" d="M201.283,53.906a.479.479,0,0,0,.4-.439.319.319,0,0,0-.4-.3.479.479,0,0,0-.4.432.32.32,0,0,0,.4.305" transform="translate(277.057 -37.568)" fill="#fff"/>
          <path id="Trazado_610556" data-name="Trazado 610556" d="M207.126,52.61a.317.317,0,0,0,.265-.29.213.213,0,0,0-.265-.2.317.317,0,0,0-.264.29.213.213,0,0,0,.264.2" transform="translate(319.009 -44.315)" fill="#fff"/>
          <path id="Trazado_610557" data-name="Trazado 610557" d="M212.975,51.316a.154.154,0,0,0,.128-.141.1.1,0,0,0-.128-.1.162.162,0,0,0-.136.141.107.107,0,0,0,.136.1" transform="translate(360.954 -51.071)" fill="#fff"/>
          <path id="Trazado_610558" data-name="Trazado 610558" d="M171.234,64.723a.155.155,0,0,0,.128-.149.1.1,0,0,0-.128-.1.154.154,0,0,0-.128.142.1.1,0,0,0,.128.1" transform="translate(68.132 35.358)" fill="#fff"/>
          <path id="Trazado_610559" data-name="Trazado 610559" d="M177.547,64.353a.625.625,0,0,0,.529-.581.42.42,0,0,0-.529-.4.627.627,0,0,0-.529.581.423.423,0,0,0,.529.4" transform="translate(109.614 28.178)" fill="#fff"/>
          <path id="Trazado_610560" data-name="Trazado 610560" d="M184.091,64.448a1.421,1.421,0,0,0,1.194-1.3.958.958,0,0,0-1.194-.916A1.428,1.428,0,0,0,182.9,63.54a.953.953,0,0,0,1.194.908" transform="translate(150.864 20.777)" fill="#fff"/>
          <path id="Trazado_610561" data-name="Trazado 610561" d="M190.636,64.541a2.2,2.2,0,0,0,1.852-2.033,1.477,1.477,0,0,0-1.852-1.415,2.209,2.209,0,0,0-1.86,2.033,1.483,1.483,0,0,0,1.86,1.415" transform="translate(192.114 13.379)" fill="#fff"/>
          <path id="Trazado_610562" data-name="Trazado 610562" d="M197.061,64.4a2.836,2.836,0,0,0,2.389-2.614,1.91,1.91,0,0,0-2.389-1.817,2.835,2.835,0,0,0-2.389,2.606,1.911,1.911,0,0,0,2.389,1.824" transform="translate(233.484 6.095)" fill="#fff"/>
          <path id="Trazado_610563" data-name="Trazado 610563" d="M203.135,63.569a2.988,2.988,0,0,0,2.517-2.755,2.007,2.007,0,0,0-2.517-1.921,2.989,2.989,0,0,0-2.517,2.755,2.014,2.014,0,0,0,2.517,1.921" transform="translate(275.204 -0.87)" fill="#fff"/>
          <path id="Trazado_610564" data-name="Trazado 610564" d="M208.985,62.274a2.836,2.836,0,0,0,2.389-2.614,1.91,1.91,0,0,0-2.389-1.817,2.836,2.836,0,0,0-2.389,2.614,1.91,1.91,0,0,0,2.389,1.817" transform="translate(317.149 -7.617)" fill="#fff"/>
          <path id="Trazado_610565" data-name="Trazado 610565" d="M214.6,60.517a2.356,2.356,0,0,0,1.988-2.174,1.591,1.591,0,0,0-1.988-1.519A2.363,2.363,0,0,0,212.608,59a1.591,1.591,0,0,0,1.988,1.519" transform="translate(359.333 -14.148)" fill="#fff"/>
          <path id="Trazado_610566" data-name="Trazado 610566" d="M219.976,58.3a1.576,1.576,0,0,0,1.323-1.452,1.06,1.06,0,0,0-1.323-1.013,1.582,1.582,0,0,0-1.323,1.452,1.061,1.061,0,0,0,1.323,1.013" transform="translate(401.748 -20.464)" fill="#fff"/>
          <path id="Trazado_610567" data-name="Trazado 610567" d="M225.361,56.074a.788.788,0,0,0,.665-.722.53.53,0,0,0-.665-.506.787.787,0,0,0-.665.722.53.53,0,0,0,.665.506" transform="translate(444.149 -26.779)" fill="#fff"/>
          <path id="Trazado_610568" data-name="Trazado 610568" d="M230.853,54.088a.155.155,0,0,0,.128-.149.1.1,0,0,0-.128-.1.154.154,0,0,0-.128.142.1.1,0,0,0,.128.1" transform="translate(486.452 -33.201)" fill="#fff"/>
          <path id="Trazado_610569" data-name="Trazado 610569" d="M165.392,71.978a.317.317,0,0,0,.264-.29.213.213,0,0,0-.264-.2.317.317,0,0,0-.265.29.213.213,0,0,0,.265.2" transform="translate(26.18 80.541)" fill="#fff"/>
          <path id="Trazado_610570" data-name="Trazado 610570" d="M172.28,72.769a1.576,1.576,0,0,0,1.323-1.452A1.06,1.06,0,0,0,172.28,70.3a1.582,1.582,0,0,0-1.323,1.452,1.06,1.06,0,0,0,1.323,1.013" transform="translate(67.086 72.817)" fill="#fff"/>
          <path id="Trazado_610571" data-name="Trazado 610571" d="M179.406,74.017a3.151,3.151,0,0,0,2.654-2.9,2.117,2.117,0,0,0-2.654-2.018,3.143,3.143,0,0,0-2.653,2.9,2.117,2.117,0,0,0,2.653,2.025" transform="translate(107.754 64.883)" fill="#fff"/>
          <path id="Trazado_610572" data-name="Trazado 610572" d="M186.295,74.8a4.41,4.41,0,0,0,3.712-4.066,2.967,2.967,0,0,0-3.712-2.83,4.41,4.41,0,0,0-3.712,4.066,2.964,2.964,0,0,0,3.712,2.83" transform="translate(148.661 57.154)" fill="#fff"/>
          <path id="Trazado_610573" data-name="Trazado 610573" d="M192.951,75.13a5.352,5.352,0,0,0,4.505-4.93c0-2.316-2.02-3.857-4.505-3.44a5.344,5.344,0,0,0-4.505,4.93c0,2.316,2.012,3.85,4.505,3.44" transform="translate(189.799 49.651)" fill="#fff"/>
          <path id="Trazado_610574" data-name="Trazado 610574" d="M199.377,74.994a5.978,5.978,0,0,0,5.034-5.51c0-2.584-2.253-4.3-5.034-3.85a5.985,5.985,0,0,0-5.035,5.518c0,2.584,2.253,4.3,5.035,3.842" transform="translate(231.168 42.362)" fill="#fff"/>
          <path id="Trazado_610575" data-name="Trazado 610575" d="M205.57,74.394a6.3,6.3,0,0,0,5.3-5.8c0-2.725-2.373-4.535-5.3-4.051a6.3,6.3,0,0,0-5.3,5.808c0,2.718,2.373,4.527,5.3,4.043" transform="translate(272.77 35.286)" fill="#fff"/>
          <path id="Trazado_610576" data-name="Trazado 610576" d="M211.42,73.094a6.141,6.141,0,0,0,5.171-5.659c0-2.651-2.317-4.416-5.171-3.939a6.133,6.133,0,0,0-5.171,5.652c0,2.651,2.317,4.423,5.171,3.947" transform="translate(314.714 28.543)" fill="#fff"/>
          <path id="Trazado_610577" data-name="Trazado 610577" d="M216.919,71.1a5.507,5.507,0,0,0,4.642-5.078c0-2.375-2.076-3.962-4.642-3.537a5.507,5.507,0,0,0-4.642,5.078c0,2.375,2.076,3.962,4.642,3.537" transform="translate(357.01 22.117)" fill="#fff"/>
          <path id="Trazado_610578" data-name="Trazado 610578" d="M222.067,68.424a4.41,4.41,0,0,0,3.712-4.066,2.967,2.967,0,0,0-3.712-2.83,4.41,4.41,0,0,0-3.712,4.066,2.964,2.964,0,0,0,3.712,2.83" transform="translate(399.657 16.019)" fill="#fff"/>
          <path id="Trazado_610579" data-name="Trazado 610579" d="M227.1,65.508a3.151,3.151,0,0,0,2.653-2.9,2.116,2.116,0,0,0-2.653-2.018,3.143,3.143,0,0,0-2.653,2.9,2.118,2.118,0,0,0,2.653,2.025" transform="translate(442.409 10.029)" fill="#fff"/>
          <path id="Trazado_610580" data-name="Trazado 610580" d="M232.018,62.365a1.737,1.737,0,0,0,1.459-1.594,1.167,1.167,0,0,0-1.459-1.117,1.738,1.738,0,0,0-1.459,1.6,1.166,1.166,0,0,0,1.459,1.11" transform="translate(485.287 4.147)" fill="#fff"/>
          <path id="Trazado_610581" data-name="Trazado 610581" d="M237.054,59.448a.479.479,0,0,0,.4-.432.32.32,0,0,0-.4-.305.479.479,0,0,0-.4.432.32.32,0,0,0,.4.305" transform="translate(528.046 -1.842)" fill="#fff"/>
          <path id="Trazado_610582" data-name="Trazado 610582" d="M159.549,79.236a.479.479,0,0,0,.4-.439.319.319,0,0,0-.4-.3.479.479,0,0,0-.4.432.32.32,0,0,0,.4.305" transform="translate(-15.772 125.722)" fill="#fff"/>
          <path id="Trazado_610583" data-name="Trazado 610583" d="M166.788,80.719a2.2,2.2,0,0,0,1.852-2.033,1.477,1.477,0,0,0-1.852-1.415,2.209,2.209,0,0,0-1.86,2.033,1.484,1.484,0,0,0,1.86,1.415" transform="translate(24.784 117.671)" fill="#fff"/>
          <path id="Trazado_610584" data-name="Trazado 610584" d="M174.251,82.665a4.24,4.24,0,0,0,3.575-3.917,2.854,2.854,0,0,0-3.575-2.733,4.255,4.255,0,0,0-3.575,3.917,2.857,2.857,0,0,0,3.575,2.733" transform="translate(65.115 109.41)" fill="#fff"/>
          <path id="Trazado_610585" data-name="Trazado 610585" d="M181.49,84.146a5.978,5.978,0,0,0,5.034-5.51c0-2.584-2.253-4.3-5.034-3.85a5.985,5.985,0,0,0-5.034,5.518c0,2.584,2.253,4.3,5.034,3.843" transform="translate(105.67 101.361)" fill="#fff"/>
          <path id="Trazado_610586" data-name="Trazado 610586" d="M188.617,85.394c3.511-.581,6.365-3.7,6.365-6.962s-2.854-5.436-6.365-4.855-6.365,3.7-6.365,6.962,2.854,5.436,6.365,4.855" transform="translate(146.338 93.426)" fill="#fff"/>
          <path id="Trazado_610587" data-name="Trazado 610587" d="M195.505,86.185c4.1-.678,7.423-4.319,7.423-8.124s-3.327-6.344-7.423-5.667-7.423,4.319-7.423,8.124,3.327,6.344,7.423,5.667" transform="translate(187.245 85.703)" fill="#fff"/>
          <path id="Trazado_610588" data-name="Trazado 610588" d="M202.043,86.276c4.465-.737,8.081-4.7,8.081-8.846s-3.615-6.91-8.081-6.173-8.081,4.7-8.081,8.846,3.615,6.91,8.081,6.173" transform="translate(228.502 78.307)" fill="#fff"/>
          <path id="Trazado_610589" data-name="Trazado 610589" d="M208.243,85.675c4.609-.767,8.353-4.855,8.353-9.137s-3.744-7.141-8.353-6.374-8.353,4.855-8.353,9.137,3.744,7.141,8.353,6.374" transform="translate(270.096 71.23)" fill="#fff"/>
          <path id="Trazado_610590" data-name="Trazado 610590" d="M213.967,84.149c4.465-.737,8.08-4.7,8.08-8.846s-3.615-6.91-8.08-6.173-8.081,4.7-8.081,8.846,3.616,6.91,8.081,6.173" transform="translate(312.167 64.595)" fill="#fff"/>
          <path id="Trazado_610591" data-name="Trazado 610591" d="M219.466,82.16c4.169-.692,7.552-4.393,7.552-8.266s-3.383-6.456-7.552-5.771-7.552,4.394-7.552,8.273,3.375,6.456,7.552,5.764" transform="translate(354.463 58.169)" fill="#fff"/>
          <path id="Trazado_610592" data-name="Trazado 610592" d="M224.5,79.244c3.583-.6,6.493-3.775,6.493-7.111s-2.91-5.548-6.493-4.952-6.493,3.775-6.493,7.1,2.91,5.555,6.493,4.959" transform="translate(397.222 52.179)" fill="#fff"/>
          <path id="Trazado_610593" data-name="Trazado 610593" d="M229.3,75.869a6.147,6.147,0,0,0,5.171-5.659c0-2.651-2.317-4.416-5.171-3.947a6.147,6.147,0,0,0-5.171,5.659c0,2.651,2.317,4.416,5.171,3.947" transform="translate(440.205 46.402)" fill="#fff"/>
          <path id="Trazado_610594" data-name="Trazado 610594" d="M233.871,72.029a4.24,4.24,0,0,0,3.575-3.917,2.858,2.858,0,0,0-3.575-2.733,4.247,4.247,0,0,0-3.576,3.917,2.855,2.855,0,0,0,3.576,2.733" transform="translate(483.435 40.845)" fill="#fff"/>
          <path id="Trazado_610595" data-name="Trazado 610595" d="M238.443,68.187a2.356,2.356,0,0,0,1.988-2.174,1.591,1.591,0,0,0-1.988-1.519,2.356,2.356,0,0,0-1.988,2.174,1.59,1.59,0,0,0,1.988,1.519" transform="translate(526.656 35.297)" fill="#fff"/>
          <path id="Trazado_610596" data-name="Trazado 610596" d="M243.128,64.578a.633.633,0,0,0,.529-.581.423.423,0,0,0-.529-.4.619.619,0,0,0-.529.581.42.42,0,0,0,.529.4" transform="translate(569.766 29.628)" fill="#fff"/>
          <path id="Trazado_610597" data-name="Trazado 610597" d="M153.468,86.029a.317.317,0,0,0,.264-.29.213.213,0,0,0-.264-.2.31.31,0,0,0-.265.29.213.213,0,0,0,.265.2" transform="translate(-57.485 171.12)" fill="#fff"/>
          <path id="Trazado_610598" data-name="Trazado 610598" d="M160.826,87.745a2.2,2.2,0,0,0,1.852-2.033,1.48,1.48,0,0,0-1.852-1.415,2.209,2.209,0,0,0-1.86,2.033,1.484,1.484,0,0,0,1.86,1.415" transform="translate(-17.049 162.964)" fill="#fff"/>
          <path id="Trazado_610599" data-name="Trazado 610599" d="M168.521,90.151a4.557,4.557,0,0,0,3.84-4.207,3.067,3.067,0,0,0-3.84-2.934,4.557,4.557,0,0,0-3.84,4.207,3.067,3.067,0,0,0,3.84,2.934" transform="translate(23.051 154.481)" fill="#fff"/>
          <path id="Trazado_610600" data-name="Trazado 610600" d="M176.223,92.56a6.92,6.92,0,0,0,5.828-6.382c0-2.994-2.605-4.989-5.828-4.453s-5.828,3.4-5.828,6.382S173,93.1,176.223,92.56" transform="translate(63.143 146.003)" fill="#fff"/>
          <path id="Trazado_610601" data-name="Trazado 610601" d="M183.813,94.735c4.249-.7,7.688-4.468,7.688-8.415s-3.439-6.568-7.688-5.868-7.688,4.475-7.688,8.415,3.447,6.568,7.688,5.868" transform="translate(103.348 137.633)" fill="#fff"/>
          <path id="Trazado_610602" data-name="Trazado 610602" d="M191.164,96.444c5.123-.849,9.275-5.4,9.275-10.157s-4.153-7.923-9.275-7.074-9.275,5.391-9.275,10.15,4.152,7.931,9.275,7.082" transform="translate(143.791 129.482)" fill="#fff"/>
          <path id="Trazado_610603" data-name="Trazado 610603" d="M198.172,97.466c5.78-.961,10.47-6.091,10.47-11.46s-4.69-8.951-10.47-7.99-10.47,6.091-10.47,11.46,4.69,8.951,10.47,7.99" transform="translate(184.579 121.647)" fill="#fff"/>
          <path id="Trazado_610604" data-name="Trazado 610604" d="M204.828,97.793c6.221-1.028,11.263-6.553,11.263-12.331s-5.042-9.628-11.263-8.6S193.565,83.414,193.565,89.2s5.042,9.628,11.263,8.593" transform="translate(225.717 114.134)" fill="#fff"/>
          <path id="Trazado_610605" data-name="Trazado 610605" d="M211.022,97.191c6.365-1.057,11.528-6.7,11.528-12.622s-5.163-9.852-11.528-8.8-11.528,6.709-11.528,12.622,5.163,9.859,11.528,8.8" transform="translate(267.318 107.066)" fill="#fff"/>
          <path id="Trazado_610606" data-name="Trazado 610606" d="M216.752,95.666c6.221-1.035,11.263-6.553,11.263-12.331s-5.042-9.628-11.263-8.6-11.263,6.553-11.263,12.331,5.042,9.628,11.263,8.6" transform="translate(309.382 100.423)" fill="#fff"/>
          <path id="Trazado_610607" data-name="Trazado 610607" d="M222.139,93.442c5.852-.968,10.6-6.166,10.6-11.609s-4.746-9.055-10.6-8.087-10.606,6.166-10.606,11.6,4.754,9.062,10.606,8.094" transform="translate(351.79 94.113)" fill="#fff"/>
          <path id="Trazado_610608" data-name="Trazado 610608" d="M226.936,90.064c5.123-.849,9.275-5.4,9.275-10.157s-4.153-7.93-9.275-7.074-9.275,5.391-9.275,10.15,4.153,7.93,9.275,7.082" transform="translate(394.787 88.339)" fill="#fff"/>
          <path id="Trazado_610609" data-name="Trazado 610609" d="M231.62,86.458c4.321-.715,7.816-4.55,7.816-8.556s-3.5-6.687-7.816-5.972-7.816,4.55-7.816,8.563,3.5,6.679,7.816,5.965" transform="translate(437.89 82.674)" fill="#fff"/>
          <path id="Trazado_610610" data-name="Trazado 610610" d="M235.961,82.154c3.295-.544,5.964-3.47,5.964-6.531s-2.67-5.093-5.964-4.55S230,74.544,230,77.6s2.669,5.093,5.964,4.55" transform="translate(481.344 77.334)" fill="#fff"/>
          <path id="Trazado_610611" data-name="Trazado 610611" d="M240.183,77.62a4.725,4.725,0,0,0,3.976-4.349,3.178,3.178,0,0,0-3.976-3.038,4.726,4.726,0,0,0-3.976,4.349,3.178,3.178,0,0,0,3.976,3.038" transform="translate(524.916 72.099)" fill="#fff"/>
          <path id="Trazado_610612" data-name="Trazado 610612" d="M244.405,73.085a2.356,2.356,0,0,0,1.988-2.174,1.591,1.591,0,0,0-1.988-1.519,2.363,2.363,0,0,0-1.988,2.174,1.591,1.591,0,0,0,1.988,1.519" transform="translate(568.489 66.872)" fill="#fff"/>
          <path id="Trazado_610613" data-name="Trazado 610613" d="M248.978,69.245a.48.48,0,0,0,.4-.439.319.319,0,0,0-.4-.3.479.479,0,0,0-.4.432.32.32,0,0,0,.4.305" transform="translate(611.711 61.315)" fill="#fff"/>
          <path id="Trazado_610614" data-name="Trazado 610614" d="M147.394,92.825a.172.172,0,0,0,.136-.141.11.11,0,0,0-.136-.1.162.162,0,0,0-.136.141.107.107,0,0,0,.136.1" transform="translate(-99.199 216.517)" fill="#fff"/>
          <path id="Trazado_610615" data-name="Trazado 610615" d="M154.394,93.845a1.576,1.576,0,0,0,1.323-1.452,1.061,1.061,0,0,0-1.323-1.013,1.582,1.582,0,0,0-1.323,1.452,1.06,1.06,0,0,0,1.323,1.013" transform="translate(-58.412 208.683)" fill="#fff"/>
          <path id="Trazado_610616" data-name="Trazado 610616" d="M162.327,96.716A4.247,4.247,0,0,0,165.9,92.8a2.854,2.854,0,0,0-3.575-2.733,4.247,4.247,0,0,0-3.575,3.917,2.854,2.854,0,0,0,3.575,2.733" transform="translate(-18.551 199.99)" fill="#fff"/>
          <path id="Trazado_610617" data-name="Trazado 610617" d="M170.261,99.585c3.223-.536,5.828-3.4,5.828-6.382s-2.605-4.989-5.828-4.453-5.828,3.4-5.828,6.382,2.605,4.989,5.828,4.453" transform="translate(21.31 191.29)" fill="#fff"/>
          <path id="Trazado_610618" data-name="Trazado 610618" d="M178.195,102.454c4.465-.737,8.081-4.7,8.081-8.846s-3.615-6.91-8.081-6.173-8.081,4.706-8.081,8.846,3.616,6.91,8.081,6.173" transform="translate(61.172 182.598)" fill="#fff"/>
          <path id="Trazado_610619" data-name="Trazado 610619" d="M186.016,105.092c5.636-.931,10.2-5.935,10.2-11.17s-4.569-8.72-10.2-7.789-10.205,5.935-10.205,11.17,4.569,8.72,10.205,7.789" transform="translate(101.145 174.01)" fill="#fff"/>
          <path id="Trazado_610620" data-name="Trazado 610620" d="M193.606,107.269c6.662-1.1,12.057-7.015,12.057-13.2s-5.4-10.306-12.057-9.2-12.065,7.015-12.065,13.2,5.4,10.306,12.065,9.2" transform="translate(141.35 165.638)" fill="#fff"/>
          <path id="Trazado_610621" data-name="Trazado 610621" d="M200.957,108.983c7.536-1.251,13.652-7.938,13.652-14.945s-6.117-11.661-13.652-10.418-13.652,7.938-13.652,14.945,6.109,11.669,13.652,10.418" transform="translate(181.793 157.483)" fill="#fff"/>
          <path id="Trazado_610622" data-name="Trazado 610622" d="M207.726,109.537c8.048-1.333,14.574-8.481,14.574-15.958s-6.526-12.458-14.574-11.125-14.574,8.482-14.574,15.958,6.525,12.458,14.574,11.125" transform="translate(222.819 149.869)" fill="#fff"/>
          <path id="Trazado_610623" data-name="Trazado 610623" d="M214.039,109.166c8.273-1.37,14.975-8.712,14.975-16.39s-6.7-12.8-14.975-11.43-14.975,8.7-14.975,16.39,6.7,12.8,14.975,11.43" transform="translate(264.301 142.689)" fill="#fff"/>
          <path id="Trazado_610624" data-name="Trazado 610624" d="M219.769,107.641c8.129-1.348,14.71-8.556,14.71-16.1s-6.582-12.577-14.71-11.229-14.71,8.556-14.71,16.1,6.582,12.577,14.71,11.229" transform="translate(306.365 136.046)" fill="#fff"/>
          <path id="Trazado_610625" data-name="Trazado 610625" d="M224.918,104.96c7.608-1.258,13.78-8.02,13.78-15.087s-6.173-11.78-13.78-10.522-13.781,8.02-13.781,15.087,6.165,11.78,13.781,10.522" transform="translate(349.011 129.947)" fill="#fff"/>
          <path id="Trazado_610626" data-name="Trazado 610626" d="M229.49,101.119c6.734-1.117,12.193-7.089,12.193-13.344s-5.459-10.425-12.193-9.308S217.3,85.556,217.3,91.811s5.459,10.425,12.193,9.308" transform="translate(392.233 124.391)" fill="#fff"/>
          <path id="Trazado_610627" data-name="Trazado 610627" d="M233.83,96.815c5.708-.946,10.341-6.009,10.341-11.319s-4.634-8.832-10.341-7.886-10.341,6.009-10.341,11.319,4.634,8.832,10.341,7.886" transform="translate(435.68 119.051)" fill="#fff"/>
          <path id="Trazado_610628" data-name="Trazado 610628" d="M237.933,92.05c4.537-.752,8.217-4.781,8.217-9s-3.68-7.022-8.217-6.27-8.217,4.781-8.217,9,3.68,7.022,8.217,6.27" transform="translate(479.372 113.928)" fill="#fff"/>
          <path id="Trazado_610629" data-name="Trazado 610629" d="M241.923,87.053c3.295-.544,5.964-3.47,5.964-6.531s-2.67-5.093-5.964-4.55-5.964,3.47-5.964,6.531,2.67,5.093,5.964,4.55" transform="translate(523.176 108.909)" fill="#fff"/>
          <path id="Trazado_610630" data-name="Trazado 610630" d="M245.914,82.056A4.409,4.409,0,0,0,249.626,78a2.968,2.968,0,0,0-3.712-2.837,4.41,4.41,0,0,0-3.712,4.066,2.964,2.964,0,0,0,3.712,2.83" transform="translate(566.981 103.898)" fill="#fff"/>
          <path id="Trazado_610631" data-name="Trazado 610631" d="M249.9,77.06a1.737,1.737,0,0,0,1.459-1.594A1.167,1.167,0,0,0,249.9,74.35a1.729,1.729,0,0,0-1.459,1.594A1.164,1.164,0,0,0,249.9,77.06" transform="translate(610.785 98.878)" fill="#fff"/>
          <path id="Trazado_610632" data-name="Trazado 610632" d="M254.7,73.681a.155.155,0,0,0,.128-.149.1.1,0,0,0-.128-.1.154.154,0,0,0-.128.142.1.1,0,0,0,.128.1" transform="translate(653.782 93.105)" fill="#fff"/>
          <path id="Trazado_610633" data-name="Trazado 610633" d="M147.745,99.48a.625.625,0,0,0,.521-.581.416.416,0,0,0-.521-.4.627.627,0,0,0-.537.581.427.427,0,0,0,.537.4" transform="translate(-99.55 254.624)" fill="#fff"/>
          <path id="Trazado_610634" data-name="Trazado 610634" d="M155.558,102.118a3.151,3.151,0,0,0,2.654-2.9,2.116,2.116,0,0,0-2.654-2.018,3.143,3.143,0,0,0-2.653,2.9,2.117,2.117,0,0,0,2.653,2.025" transform="translate(-59.576 246.035)" fill="#fff"/>
          <path id="Trazado_610635" data-name="Trazado 610635" d="M163.6,105.218a5.978,5.978,0,0,0,5.034-5.51c0-2.584-2.253-4.3-5.034-3.842a5.977,5.977,0,0,0-5.034,5.51c0,2.584,2.253,4.3,5.034,3.842" transform="translate(-19.828 237.232)" fill="#fff"/>
          <path id="Trazado_610636" data-name="Trazado 610636" d="M171.889,108.786c4.249-.707,7.688-4.468,7.688-8.414s-3.439-6.568-7.688-5.868-7.688,4.475-7.688,8.415,3.439,6.568,7.688,5.868" transform="translate(19.683 228.212)" fill="#fff"/>
          <path id="Trazado_610637" data-name="Trazado 610637" d="M180.054,112.117c5.636-.931,10.205-5.935,10.205-11.17s-4.569-8.72-10.205-7.789-10.205,5.935-10.205,11.17,4.57,8.72,10.205,7.789" transform="translate(59.312 219.297)" fill="#fff"/>
          <path id="Trazado_610638" data-name="Trazado 610638" d="M188.219,115.451c7.031-1.162,12.722-7.4,12.722-13.925s-5.692-10.879-12.722-9.71S175.5,99.21,175.5,105.74s5.7,10.872,12.722,9.71" transform="translate(98.941 210.386)" fill="#fff"/>
          <path id="Trazado_610639" data-name="Trazado 610639" d="M196.153,118.318c8.273-1.37,14.975-8.712,14.975-16.39s-6.7-12.8-14.975-11.43-14.975,8.7-14.975,16.39,6.7,12.8,14.975,11.43" transform="translate(138.803 201.687)" fill="#fff"/>
          <path id="Trazado_610640" data-name="Trazado 610640" d="M203.743,120.5c9.3-1.541,16.835-9.785,16.835-18.423s-7.536-14.387-16.835-12.845-16.835,9.785-16.835,18.423,7.536,14.387,16.835,12.845" transform="translate(179.007 193.315)" fill="#fff"/>
          <path id="Trazado_610641" data-name="Trazado 610641" d="M210.743,121.515c9.957-1.646,18.021-10.485,18.021-19.726S220.7,86.383,210.743,88.028s-18.021,10.485-18.021,19.733,8.064,15.407,18.021,13.754" transform="translate(219.802 185.481)" fill="#fff"/>
          <path id="Trazado_610642" data-name="Trazado 610642" d="M217.168,121.377c10.245-1.7,18.55-10.79,18.55-20.307s-8.305-15.861-18.55-14.163-18.55,10.79-18.55,20.307,8.305,15.861,18.55,14.163" transform="translate(261.171 178.195)" fill="#fff"/>
          <path id="Trazado_610643" data-name="Trazado 610643" d="M222.786,119.62c10.029-1.661,18.158-10.559,18.158-19.875s-8.129-15.518-18.158-13.858-18.157,10.559-18.157,19.875,8.129,15.519,18.157,13.858" transform="translate(303.348 171.664)" fill="#fff"/>
          <path id="Trazado_610644" data-name="Trazado 610644" d="M227.7,116.473c9.371-1.549,16.963-9.867,16.963-18.572S237.074,83.4,227.7,84.96s-16.963,9.867-16.963,18.564,7.591,14.5,16.963,12.949" transform="translate(346.226 165.786)" fill="#fff"/>
          <path id="Trazado_610645" data-name="Trazado 610645" d="M232.044,112.169c8.345-1.385,15.111-8.787,15.111-16.539S240.389,82.719,232.044,84.1s-15.111,8.787-15.111,16.539,6.766,12.912,15.111,11.527" transform="translate(389.679 160.447)" fill="#fff"/>
          <path id="Trazado_610646" data-name="Trazado 610646" d="M236.033,107.172c7.1-1.177,12.859-7.476,12.859-14.074s-5.756-10.984-12.859-9.807-12.858,7.476-12.858,14.066,5.756,10.991,12.858,9.815" transform="translate(433.477 155.429)" fill="#fff"/>
          <path id="Trazado_610647" data-name="Trazado 610647" d="M239.792,101.713c5.708-.946,10.341-6.009,10.341-11.319s-4.634-8.832-10.341-7.886-10.341,6.009-10.341,11.319,4.633,8.832,10.341,7.886" transform="translate(477.513 150.626)" fill="#fff"/>
          <path id="Trazado_610648" data-name="Trazado 610648" d="M243.544,96.255c4.321-.715,7.816-4.55,7.816-8.556s-3.5-6.687-7.816-5.972-7.816,4.55-7.816,8.563,3.5,6.68,7.816,5.965" transform="translate(521.555 145.83)" fill="#fff"/>
          <path id="Trazado_610649" data-name="Trazado 610649" d="M247.191,90.565a6.147,6.147,0,0,0,5.171-5.659c0-2.651-2.317-4.416-5.171-3.947a6.147,6.147,0,0,0-5.171,5.659c0,2.651,2.317,4.416,5.171,3.947" transform="translate(565.704 141.14)" fill="#fff"/>
          <path id="Trazado_610650" data-name="Trazado 610650" d="M251.062,85.333a3.3,3.3,0,0,0,2.782-3.046,2.217,2.217,0,0,0-2.782-2.122,3.3,3.3,0,0,0-2.782,3.046,2.224,2.224,0,0,0,2.782,2.122" transform="translate(609.627 136.23)" fill="#fff"/>
          <path id="Trazado_610651" data-name="Trazado 610651" d="M255.171,80.566a.788.788,0,0,0,.665-.73.529.529,0,0,0-.665-.5.78.78,0,0,0-.665.722.53.53,0,0,0,.665.506" transform="translate(653.312 131.108)" fill="#fff"/>
          <path id="Trazado_610652" data-name="Trazado 610652" d="M148.32,106.6a1.421,1.421,0,0,0,1.186-1.3.958.958,0,0,0-1.186-.916,1.428,1.428,0,0,0-1.194,1.311.953.953,0,0,0,1.194.908" transform="translate(-100.125 292.516)" fill="#fff"/>
          <path id="Trazado_610653" data-name="Trazado 610653" d="M156.485,109.933a4.41,4.41,0,0,0,3.712-4.066,2.967,2.967,0,0,0-3.712-2.83,4.41,4.41,0,0,0-3.712,4.066,2.964,2.964,0,0,0,3.712,2.83" transform="translate(-60.503 283.607)" fill="#fff"/>
          <path id="Trazado_610654" data-name="Trazado 610654" d="M164.769,113.5c3.511-.581,6.365-3.7,6.365-6.962s-2.854-5.436-6.365-4.855-6.365,3.7-6.365,6.962,2.854,5.436,6.365,4.855" transform="translate(-20.992 274.586)" fill="#fff"/>
          <path id="Trazado_610655" data-name="Trazado 610655" d="M173.278,117.527c5.122-.849,9.275-5.4,9.275-10.157s-4.153-7.93-9.275-7.082S164,105.687,164,110.445s4.152,7.931,9.275,7.082" transform="translate(18.293 265.342)" fill="#fff"/>
          <path id="Trazado_610656" data-name="Trazado 610656" d="M181.675,121.32c6.662-1.1,12.057-7.015,12.057-13.2s-5.4-10.306-12.057-9.2-12.057,7.015-12.057,13.2,5.4,10.306,12.057,9.2" transform="translate(57.691 256.217)" fill="#fff"/>
          <path id="Trazado_610657" data-name="Trazado 610657" d="M190.191,125.344c8.273-1.37,14.975-8.712,14.975-16.39s-6.7-12.8-14.975-11.43-14.975,8.7-14.975,16.39,6.7,12.8,14.975,11.43" transform="translate(96.97 246.98)" fill="#fff"/>
          <path id="Trazado_610658" data-name="Trazado 610658" d="M198.475,128.912c9.732-1.616,17.628-10.254,17.628-19.294s-7.9-15.064-17.628-13.456-17.628,10.254-17.628,19.294,7.9,15.072,17.628,13.456" transform="translate(136.48 237.955)" fill="#fff"/>
          <path id="Trazado_610659" data-name="Trazado 610659" d="M206.409,131.781c10.975-1.817,19.881-11.564,19.881-21.759s-8.907-16.993-19.881-15.176-19.881,11.565-19.881,21.759,8.9,16.993,19.881,15.176" transform="translate(176.341 229.255)" fill="#fff"/>
          <path id="Trazado_610660" data-name="Trazado 610660" d="M213.88,133.727c11.929-1.981,21.6-12.562,21.6-23.65s-9.676-18.46-21.6-16.486-21.6,12.57-21.6,23.65,9.676,18.467,21.6,16.487" transform="translate(216.665 220.994)" fill="#fff"/>
          <path id="Trazado_610661" data-name="Trazado 610661" d="M220.3,133.587c12.225-2.025,22.133-12.875,22.133-24.223s-9.908-18.922-22.133-16.9-22.134,12.875-22.134,24.231,9.908,18.914,22.134,16.889" transform="translate(258.035 213.702)" fill="#fff"/>
          <path id="Trazado_610662" data-name="Trazado 610662" d="M225.8,131.6c11.929-1.981,21.6-12.562,21.6-23.643s-9.676-18.467-21.6-16.487-21.6,12.562-21.6,23.643,9.676,18.467,21.6,16.487" transform="translate(300.331 207.287)" fill="#fff"/>
          <path id="Trazado_610663" data-name="Trazado 610663" d="M230.369,127.759c11.055-1.832,20.009-11.639,20.009-21.907s-8.954-17.1-20.009-15.273-20.009,11.639-20.009,21.908,8.954,17.1,20.009,15.273" transform="translate(343.559 201.726)" fill="#fff"/>
          <path id="Trazado_610664" data-name="Trazado 610664" d="M234.36,122.762c9.8-1.623,17.757-10.328,17.757-19.443s-7.953-15.176-17.757-13.553S216.6,100.095,216.6,109.209s7.952,15.176,17.757,13.553" transform="translate(387.364 196.708)" fill="#fff"/>
          <path id="Trazado_610665" data-name="Trazado 610665" d="M238.005,117.067c8.345-1.385,15.111-8.787,15.111-16.539S246.351,87.617,238.005,89s-15.111,8.787-15.111,16.539,6.766,12.912,15.111,11.527" transform="translate(431.505 192.022)" fill="#fff"/>
          <path id="Trazado_610666" data-name="Trazado 610666" d="M241.533,111.145c6.806-1.124,12.329-7.171,12.329-13.493s-5.523-10.529-12.329-9.4S229.2,95.418,229.2,101.74s5.523,10.529,12.33,9.4" transform="translate(475.772 187.437)" fill="#fff"/>
          <path id="Trazado_610667" data-name="Trazado 610667" d="M244.941,104.994c5.195-.864,9.411-5.473,9.411-10.3s-4.217-8.042-9.411-7.186-9.411,5.473-9.411,10.306,4.217,8.042,9.411,7.178" transform="translate(520.159 182.962)" fill="#fff"/>
          <path id="Trazado_610668" data-name="Trazado 610668" d="M248.467,99.069c3.656-.6,6.63-3.857,6.63-7.253s-2.974-5.667-6.63-5.056-6.629,3.85-6.629,7.253,2.966,5.659,6.629,5.056" transform="translate(564.426 178.38)" fill="#fff"/>
          <path id="Trazado_610669" data-name="Trazado 610669" d="M251.995,93.148a4.557,4.557,0,0,0,3.84-4.207,3.068,3.068,0,0,0-3.84-2.934,4.565,4.565,0,0,0-3.848,4.207,3.074,3.074,0,0,0,3.848,2.934" transform="translate(608.694 173.801)" fill="#fff"/>
          <path id="Trazado_610670" data-name="Trazado 610670" d="M255.866,87.921a1.738,1.738,0,0,0,1.459-1.593,1.167,1.167,0,0,0-1.459-1.117,1.739,1.739,0,0,0-1.459,1.6,1.166,1.166,0,0,0,1.459,1.109" transform="translate(652.618 168.893)" fill="#fff"/>
          <path id="Trazado_610671" data-name="Trazado 610671" d="M141.425,111.774a.163.163,0,0,0,.136-.149.106.106,0,0,0-.136-.1.154.154,0,0,0-.128.141.1.1,0,0,0,.128.1" transform="translate(-141.024 338.672)" fill="#fff"/>
          <path id="Trazado_610672" data-name="Trazado 610672" d="M148.9,113.72a2.217,2.217,0,0,0,1.86-2.033,1.486,1.486,0,0,0-1.86-1.415,2.193,2.193,0,0,0-1.852,2.033,1.474,1.474,0,0,0,1.852,1.415" transform="translate(-100.7 330.411)" fill="#fff"/>
          <path id="Trazado_610673" data-name="Trazado 610673" d="M157.179,117.283a5.352,5.352,0,0,0,4.505-4.93c0-2.316-2.02-3.857-4.505-3.44a5.344,5.344,0,0,0-4.505,4.93c0,2.316,2.012,3.85,4.505,3.44" transform="translate(-61.197 321.39)" fill="#fff"/>
          <path id="Trazado_610674" data-name="Trazado 610674" d="M165.7,121.312c4.1-.678,7.423-4.319,7.423-8.124s-3.327-6.344-7.423-5.667-7.423,4.319-7.423,8.124,3.327,6.345,7.423,5.667" transform="translate(-21.918 312.149)" fill="#fff"/>
          <path id="Trazado_610675" data-name="Trazado 610675" d="M174.324,125.568c5.78-.961,10.47-6.091,10.47-11.46s-4.69-8.951-10.47-7.99-10.47,6.091-10.47,11.46,4.69,8.951,10.47,7.99" transform="translate(17.248 302.806)" fill="#fff"/>
          <path id="Trazado_610676" data-name="Trazado 610676" d="M183.071,130.059c7.544-1.251,13.652-7.938,13.652-14.945s-6.109-11.661-13.652-10.418-13.652,7.945-13.652,14.945,6.117,11.669,13.652,10.418" transform="translate(56.295 293.349)" fill="#fff"/>
          <path id="Trazado_610677" data-name="Trazado 610677" d="M191.819,134.546c9.3-1.541,16.835-9.785,16.835-18.423s-7.536-14.387-16.835-12.845-16.835,9.785-16.835,18.423,7.536,14.387,16.835,12.845" transform="translate(95.342 283.895)" fill="#fff"/>
          <path id="Trazado_610678" data-name="Trazado 610678" d="M200.447,138.807c10.975-1.817,19.881-11.564,19.881-21.759s-8.907-16.993-19.881-15.176-19.881,11.564-19.881,21.759,8.9,16.993,19.881,15.176" transform="translate(134.508 274.548)" fill="#fff"/>
          <path id="Trazado_610679" data-name="Trazado 610679" d="M208.844,142.6c12.514-2.078,22.663-13.18,22.663-24.8s-10.149-19.376-22.663-17.3-22.663,13.18-22.663,24.8,10.149,19.376,22.663,17.3" transform="translate(173.906 265.415)" fill="#fff"/>
          <path id="Trazado_610680" data-name="Trazado 610680" d="M216.777,145.47c13.764-2.279,24.915-14.491,24.915-27.277S230.542,96.9,216.777,99.182s-24.915,14.491-24.915,27.269,11.151,21.3,24.915,19.018" transform="translate(213.767 256.723)" fill="#fff"/>
          <path id="Trazado_610681" data-name="Trazado 610681" d="M223.553,146.028C237.831,143.661,249.4,131,249.4,117.739s-11.568-22.086-25.845-19.726-25.845,15.034-25.845,28.289,11.576,22.094,25.845,19.726" transform="translate(254.786 249.105)" fill="#fff"/>
          <path id="Trazado_610682" data-name="Trazado 610682" d="M228.821,143.574c13.837-2.294,25.052-14.565,25.052-27.418s-11.215-21.409-25.052-19.115-25.052,14.565-25.052,27.418,11.215,21.409,25.052,19.115" transform="translate(297.313 242.899)" fill="#fff"/>
          <path id="Trazado_610683" data-name="Trazado 610683" d="M232.923,138.809c12.658-2.1,22.927-13.337,22.927-25.095s-10.269-19.6-22.927-17.5S210,109.551,210,121.309s10.261,19.6,22.927,17.5" transform="translate(341.006 237.775)" fill="#fff"/>
          <path id="Trazado_610684" data-name="Trazado 610684" d="M236.451,132.888c11.127-1.839,20.146-11.713,20.146-22.049s-9.019-17.216-20.146-15.377-20.146,11.721-20.146,22.049,9.019,17.224,20.146,15.377" transform="translate(385.273 233.197)" fill="#fff"/>
          <path id="Trazado_610685" data-name="Trazado 610685" d="M239.626,126.269C249,124.72,256.589,116.4,256.589,107.7S249,93.2,239.626,94.756s-16.963,9.867-16.963,18.564,7.591,14.5,16.963,12.949" transform="translate(429.884 228.936)" fill="#fff"/>
          <path id="Trazado_610686" data-name="Trazado 610686" d="M242.922,119.887c7.688-1.273,13.917-8.094,13.917-15.236s-6.229-11.892-13.917-10.619-13.917,8.094-13.917,15.236,6.229,11.892,13.917,10.619" transform="translate(474.383 224.573)" fill="#fff"/>
          <path id="Trazado_610687" data-name="Trazado 610687" d="M246.1,113.267c5.932-.983,10.734-6.24,10.734-11.751s-4.8-9.174-10.734-8.191-10.734,6.24-10.734,11.751,4.8,9.174,10.734,8.191" transform="translate(519.001 220.314)" fill="#fff"/>
          <path id="Trazado_610688" data-name="Trazado 610688" d="M249.394,106.884c4.241-.7,7.688-4.468,7.688-8.415s-3.447-6.568-7.688-5.868-7.688,4.475-7.688,8.415,3.439,6.568,7.688,5.868" transform="translate(563.5 215.951)" fill="#fff"/>
          <path id="Trazado_610689" data-name="Trazado 610689" d="M252.8,100.727a5.668,5.668,0,0,0,4.77-5.22c0-2.45-2.133-4.081-4.77-3.641a5.654,5.654,0,0,0-4.77,5.22c0,2.45,2.132,4.081,4.77,3.641" transform="translate(607.887 211.474)" fill="#fff"/>
          <path id="Trazado_610690" data-name="Trazado 610690" d="M256.442,95.037a2.518,2.518,0,0,0,2.116-2.323,1.69,1.69,0,0,0-2.116-1.616,2.518,2.518,0,0,0-2.117,2.323,1.69,1.69,0,0,0,2.117,1.616" transform="translate(652.042 206.784)" fill="#fff"/>
          <path id="Trazado_610691" data-name="Trazado 610691" d="M260.663,90.5a.163.163,0,0,0,.136-.149.106.106,0,0,0-.136-.1.154.154,0,0,0-.128.142.1.1,0,0,0,.128.1" transform="translate(695.615 201.555)" fill="#fff"/>
          <path id="Trazado_610692" data-name="Trazado 610692" d="M141.545,117.966a.317.317,0,0,0,.264-.29.213.213,0,0,0-.264-.2.317.317,0,0,0-.265.29.213.213,0,0,0,.265.2" transform="translate(-141.144 377.002)" fill="#fff"/>
          <path id="Trazado_610693" data-name="Trazado 610693" d="M149.366,120.6a2.836,2.836,0,0,0,2.381-2.614,1.906,1.906,0,0,0-2.381-1.817,2.835,2.835,0,0,0-2.389,2.606,1.911,1.911,0,0,0,2.389,1.824" transform="translate(-101.17 368.414)" fill="#fff"/>
          <path id="Trazado_610694" data-name="Trazado 610694" d="M157.642,124.168a5.978,5.978,0,0,0,5.034-5.51c0-2.584-2.253-4.3-5.034-3.842a5.971,5.971,0,0,0-5.034,5.51c0,2.584,2.253,4.3,5.034,3.842" transform="translate(-61.66 359.393)" fill="#fff"/>
          <path id="Trazado_610695" data-name="Trazado 610695" d="M166.271,128.428c4.465-.737,8.081-4.7,8.081-8.847s-3.615-6.91-8.081-6.173-8.081,4.706-8.081,8.846,3.616,6.91,8.081,6.173" transform="translate(-22.494 350.039)" fill="#fff"/>
          <path id="Trazado_610696" data-name="Trazado 610696" d="M175.018,132.921c6.221-1.035,11.263-6.553,11.263-12.331s-5.043-9.628-11.263-8.6-11.263,6.553-11.263,12.331,5.042,9.628,11.263,8.6" transform="translate(16.553 340.587)" fill="#fff"/>
          <path id="Trazado_610697" data-name="Trazado 610697" d="M183.878,137.639c8.048-1.333,14.582-8.481,14.582-15.958s-6.534-12.458-14.582-11.125S169.3,119.03,169.3,126.513s6.525,12.458,14.574,11.125" transform="translate(55.488 331.029)" fill="#fff"/>
          <path id="Trazado_610698" data-name="Trazado 610698" d="M192.857,142.592c9.957-1.653,18.021-10.485,18.021-19.726s-8.065-15.407-18.021-13.761-18.021,10.485-18.021,19.733,8.065,15.407,18.021,13.754" transform="translate(94.304 321.354)" fill="#fff"/>
          <path id="Trazado_610699" data-name="Trazado 610699" d="M201.956,147.778c11.928-1.981,21.6-12.562,21.6-23.65s-9.676-18.46-21.6-16.487-21.6,12.57-21.6,23.65,9.676,18.46,21.6,16.487" transform="translate(133 311.574)" fill="#fff"/>
          <path id="Trazado_610700" data-name="Trazado 610700" d="M210.816,152.495c13.756-2.279,24.915-14.491,24.915-27.276s-11.159-21.29-24.915-19.011S185.9,120.7,185.9,133.476s11.151,21.3,24.916,19.018" transform="translate(171.935 302.009)" fill="#fff"/>
          <path id="Trazado_610701" data-name="Trazado 610701" d="M219.444,156.756c15.44-2.562,27.962-16.263,27.962-30.613s-12.522-23.9-27.962-21.342-27.962,16.263-27.962,30.612,12.522,23.9,27.962,21.342" transform="translate(211.101 292.662)" fill="#fff"/>
          <path id="Trazado_610702" data-name="Trazado 610702" d="M226.8,158.467c16.322-2.7,29.557-17.186,29.557-32.348s-13.235-25.266-29.557-22.555-29.557,17.186-29.557,32.348S210.48,161.17,226.8,158.467" transform="translate(251.537 284.51)" fill="#fff"/>
          <path id="Trazado_610703" data-name="Trazado 610703" d="M231.6,155.092c15.592-2.584,28.226-16.42,28.226-30.9s-12.634-24.127-28.226-21.543-28.226,16.419-28.226,30.9,12.634,24.127,28.226,21.543" transform="translate(294.535 278.733)" fill="#fff"/>
          <path id="Trazado_610704" data-name="Trazado 610704" d="M234.9,148.7c13.909-2.3,25.18-14.647,25.18-27.56S248.8,99.617,234.9,101.925s-25.18,14.64-25.18,27.56S220.986,151,234.9,148.7" transform="translate(339.034 274.369)" fill="#fff"/>
          <path id="Trazado_610705" data-name="Trazado 610705" d="M237.84,141.628c12-1.988,21.733-12.644,21.733-23.792s-9.732-18.579-21.733-16.591-21.733,12.644-21.733,23.792,9.732,18.579,21.733,16.591" transform="translate(383.884 270.327)" fill="#fff"/>
          <path id="Trazado_610706" data-name="Trazado 610706" d="M240.784,134.548c10.1-1.675,18.286-10.641,18.286-20.024s-8.185-15.63-18.286-13.955S222.5,111.2,222.5,120.585s8.185,15.638,18.286,13.962" transform="translate(428.726 266.29)" fill="#fff"/>
          <path id="Trazado_610707" data-name="Trazado 610707" d="M243.736,127.466c8.2-1.355,14.847-8.63,14.847-16.248s-6.646-12.689-14.847-11.326-14.846,8.631-14.846,16.248,6.646,12.681,14.846,11.326" transform="translate(473.569 262.246)" fill="#fff"/>
          <path id="Trazado_610708" data-name="Trazado 610708" d="M246.793,120.619c6.365-1.057,11.527-6.709,11.527-12.622s-5.163-9.852-11.527-8.8-11.528,6.709-11.528,12.622,5.163,9.859,11.528,8.8" transform="translate(518.307 258.095)" fill="#fff"/>
          <path id="Trazado_610709" data-name="Trazado 610709" d="M249.976,114c4.61-.767,8.345-4.855,8.345-9.137s-3.735-7.141-8.345-6.374-8.353,4.855-8.353,9.137,3.744,7.141,8.353,6.374" transform="translate(562.918 253.84)" fill="#fff"/>
          <path id="Trazado_610710" data-name="Trazado 610710" d="M253.265,107.619a6.294,6.294,0,0,0,5.3-5.8c0-2.725-2.373-4.535-5.3-4.051a6.3,6.3,0,0,0-5.3,5.808c0,2.718,2.373,4.527,5.3,4.043" transform="translate(607.424 249.471)" fill="#fff"/>
          <path id="Trazado_610711" data-name="Trazado 610711" d="M256.792,101.693a3,3,0,0,0,2.517-2.755,2.01,2.01,0,0,0-2.517-1.921,2.981,2.981,0,0,0-2.517,2.755,2.011,2.011,0,0,0,2.517,1.921" transform="translate(651.691 244.897)" fill="#fff"/>
          <path id="Trazado_610712" data-name="Trazado 610712" d="M260.9,96.928a.479.479,0,0,0,.4-.432.32.32,0,0,0-.4-.305.479.479,0,0,0-.4.432.32.32,0,0,0,.4.305" transform="translate(695.377 239.773)" fill="#fff"/>
          <path id="Trazado_610713" data-name="Trazado 610713" d="M141.664,124.16a.48.48,0,0,0,.4-.439.319.319,0,0,0-.4-.3.479.479,0,0,0-.4.432.32.32,0,0,0,.4.305" transform="translate(-141.263 415.324)" fill="#fff"/>
          <path id="Trazado_610714" data-name="Trazado 610714" d="M149.485,126.8A2.988,2.988,0,0,0,152,124.043a2.007,2.007,0,0,0-2.517-1.921,3,3,0,0,0-2.525,2.755,2.02,2.02,0,0,0,2.525,1.921" transform="translate(-101.29 406.736)" fill="#fff"/>
          <path id="Trazado_610715" data-name="Trazado 610715" d="M157.874,130.6a6.3,6.3,0,0,0,5.3-5.8c0-2.725-2.373-4.535-5.3-4.051a6.309,6.309,0,0,0-5.3,5.808c0,2.718,2.373,4.527,5.3,4.043" transform="translate(-61.892 397.605)" fill="#fff"/>
          <path id="Trazado_610716" data-name="Trazado 610716" d="M166.509,134.853c4.609-.767,8.353-4.855,8.353-9.137s-3.744-7.141-8.353-6.374-8.353,4.855-8.353,9.137,3.744,7.141,8.353,6.374" transform="translate(-22.732 388.256)" fill="#fff"/>
          <path id="Trazado_610717" data-name="Trazado 610717" d="M175.25,139.344c6.365-1.057,11.528-6.709,11.528-12.622s-5.163-9.852-11.528-8.8-11.528,6.709-11.528,12.622,5.163,9.859,11.528,8.8" transform="translate(16.322 378.805)" fill="#fff"/>
          <path id="Trazado_610718" data-name="Trazado 610718" d="M184.229,144.293c8.273-1.37,14.975-8.712,14.975-16.39s-6.7-12.8-14.975-11.43-14.975,8.7-14.975,16.39,6.7,12.8,14.975,11.43" transform="translate(55.137 369.135)" fill="#fff"/>
          <path id="Trazado_610719" data-name="Trazado 610719" d="M193.32,149.479c10.245-1.7,18.55-10.79,18.55-20.307s-8.305-15.861-18.55-14.163-18.55,10.79-18.55,20.307,8.3,15.861,18.55,14.163" transform="translate(93.841 359.355)" fill="#fff"/>
          <path id="Trazado_610720" data-name="Trazado 610720" d="M202.419,154.664c12.225-2.025,22.134-12.875,22.134-24.223s-9.909-18.921-22.134-16.9-22.134,12.875-22.134,24.231,9.908,18.914,22.134,16.889" transform="translate(132.537 349.575)" fill="#fff"/>
          <path id="Trazado_610721" data-name="Trazado 610721" d="M211.629,160.079c14.269-2.368,25.845-15.027,25.845-28.289S225.9,109.7,211.629,112.064s-25.845,15.034-25.845,28.289,11.568,22.094,25.845,19.726" transform="translate(171.121 339.685)" fill="#fff"/>
          <path id="Trazado_610722" data-name="Trazado 610722" d="M220.84,165.492c16.322-2.7,29.557-17.186,29.557-32.347s-13.235-25.266-29.557-22.556-29.557,17.187-29.557,32.348,13.235,25.258,29.557,22.555" transform="translate(209.705 329.797)" fill="#fff"/>
          <path id="Trazado_610723" data-name="Trazado 610723" d="M229.118,169.059c17.789-2.949,32.2-18.728,32.2-35.252s-14.414-27.522-32.2-24.581-32.2,18.735-32.2,35.252,14.414,27.53,32.2,24.581" transform="translate(249.222 320.779)" fill="#fff"/>
          <path id="Trazado_610724" data-name="Trazado 610724" d="M233,163.826c16.466-2.733,29.822-17.343,29.822-32.638S249.462,105.7,233,108.432s-29.821,17.335-29.821,32.638S216.53,166.559,233,163.826" transform="translate(293.139 315.869)" fill="#fff"/>
          <path id="Trazado_610725" data-name="Trazado 610725" d="M235.709,156.289c14.422-2.39,26.11-15.183,26.11-28.58s-11.688-22.317-26.11-19.927-26.11,15.183-26.11,28.58,11.688,22.317,26.11,19.927" transform="translate(338.22 312.044)" fill="#fff"/>
          <path id="Trazado_610726" data-name="Trazado 610726" d="M238.422,148.745c12.37-2.048,22.4-13.024,22.4-24.514s-10.029-19.145-22.4-17.1-22.4,13.024-22.4,24.521,10.029,19.137,22.4,17.09" transform="translate(383.301 308.224)" fill="#fff"/>
          <path id="Trazado_610727" data-name="Trazado 610727" d="M241.254,141.432c10.389-1.72,18.823-10.946,18.823-20.6s-8.434-16.084-18.823-14.364-18.823,10.946-18.823,20.6,8.434,16.084,18.823,14.364" transform="translate(428.256 304.292)" fill="#fff"/>
          <path id="Trazado_610728" data-name="Trazado 610728" d="M244.08,134.121c8.417-1.392,15.239-8.861,15.239-16.68S252.5,104.41,244.08,105.81s-15.24,8.861-15.24,16.68,6.822,13.024,15.24,11.631" transform="translate(473.225 300.359)" fill="#fff"/>
          <path id="Trazado_610729" data-name="Trazado 610729" d="M247.024,127.044c6.517-1.08,11.792-6.858,11.792-12.912s-5.275-10.083-11.792-9S235.232,112,235.232,118.042s5.275,10.083,11.792,9" transform="translate(518.075 296.311)" fill="#fff"/>
          <path id="Trazado_610730" data-name="Trazado 610730" d="M250.208,120.425c4.754-.789,8.61-5.011,8.61-9.427s-3.856-7.365-8.61-6.575-8.618,5.012-8.618,9.427,3.856,7.365,8.618,6.575" transform="translate(562.686 292.058)" fill="#fff"/>
          <path id="Trazado_610731" data-name="Trazado 610731" d="M253.384,113.811a6.457,6.457,0,0,0,5.435-5.95c0-2.785-2.437-4.639-5.435-4.148a6.464,6.464,0,0,0-5.435,5.95c0,2.793,2.437,4.647,5.435,4.148" transform="translate(607.305 287.801)" fill="#fff"/>
          <path id="Trazado_610732" data-name="Trazado 610732" d="M256.912,107.886a3.151,3.151,0,0,0,2.653-2.9,2.116,2.116,0,0,0-2.653-2.018,3.143,3.143,0,0,0-2.654,2.9,2.117,2.117,0,0,0,2.654,2.025" transform="translate(651.572 283.219)" fill="#fff"/>
          <path id="Trazado_610733" data-name="Trazado 610733" d="M260.9,102.889a.479.479,0,0,0,.4-.432.32.32,0,0,0-.4-.305.478.478,0,0,0-.4.432.32.32,0,0,0,.4.305" transform="translate(695.377 278.201)" fill="#fff"/>
          <path id="Trazado_610734" data-name="Trazado 610734" d="M141.545,129.89a.317.317,0,0,0,.264-.29.213.213,0,0,0-.264-.2.317.317,0,0,0-.265.291.213.213,0,0,0,.265.2" transform="translate(-141.144 453.87)" fill="#fff"/>
          <path id="Trazado_610735" data-name="Trazado 610735" d="M149.366,132.529a2.836,2.836,0,0,0,2.381-2.614,1.906,1.906,0,0,0-2.381-1.817,2.835,2.835,0,0,0-2.389,2.606,1.911,1.911,0,0,0,2.389,1.824" transform="translate(-101.17 445.282)" fill="#fff"/>
          <path id="Trazado_610736" data-name="Trazado 610736" d="M157.762,136.327a6.148,6.148,0,0,0,5.171-5.659c0-2.651-2.317-4.416-5.171-3.947a6.147,6.147,0,0,0-5.171,5.659c0,2.651,2.317,4.416,5.171,3.947" transform="translate(-61.78 436.144)" fill="#fff"/>
          <path id="Trazado_610737" data-name="Trazado 610737" d="M166.271,140.352c4.465-.737,8.081-4.7,8.081-8.846s-3.615-6.91-8.081-6.173-8.081,4.706-8.081,8.846,3.616,6.91,8.081,6.173" transform="translate(-22.494 426.907)" fill="#fff"/>
          <path id="Trazado_610738" data-name="Trazado 610738" d="M175.018,144.845c6.221-1.028,11.263-6.553,11.263-12.332s-5.043-9.628-11.263-8.6-11.263,6.553-11.263,12.339,5.042,9.628,11.263,8.593" transform="translate(16.553 417.455)" fill="#fff"/>
          <path id="Trazado_610739" data-name="Trazado 610739" d="M184,149.794c8.129-1.348,14.71-8.556,14.71-16.1s-6.582-12.577-14.71-11.229-14.71,8.556-14.71,16.1,6.582,12.577,14.71,11.229" transform="translate(55.369 407.785)" fill="#fff"/>
          <path id="Trazado_610740" data-name="Trazado 610740" d="M192.976,154.747c10.029-1.66,18.158-10.559,18.158-19.875s-8.129-15.519-18.158-13.858-18.157,10.559-18.157,19.875,8.129,15.519,18.157,13.858" transform="translate(94.184 398.11)" fill="#fff"/>
          <path id="Trazado_610741" data-name="Trazado 610741" d="M201.956,159.7c11.928-1.981,21.6-12.562,21.6-23.643s-9.676-18.467-21.6-16.486-21.6,12.562-21.6,23.643,9.676,18.467,21.6,16.487" transform="translate(133 388.44)" fill="#fff"/>
          <path id="Trazado_610742" data-name="Trazado 610742" d="M210.935,164.651c13.836-2.293,25.052-14.565,25.052-27.418s-11.215-21.409-25.052-19.115-25.052,14.565-25.052,27.418,11.215,21.409,25.052,19.115" transform="translate(171.815 378.772)" fill="#fff"/>
          <path id="Trazado_610743" data-name="Trazado 610743" d="M219.675,169.143c15.592-2.584,28.226-16.42,28.226-30.9s-12.634-24.127-28.226-21.543-28.226,16.42-28.226,30.9,12.634,24.126,28.226,21.543" transform="translate(210.87 369.313)" fill="#fff"/>
          <path id="Trazado_610744" data-name="Trazado 610744" d="M227.033,170.852c16.466-2.725,29.822-17.343,29.822-32.638s-13.355-25.489-29.822-22.757-29.821,17.336-29.821,32.638,13.356,25.489,29.821,22.756" transform="translate(251.306 361.162)" fill="#fff"/>
          <path id="Trazado_610745" data-name="Trazado 610745" d="M231.718,167.245c15.665-2.6,28.363-16.494,28.363-31.044s-12.7-24.238-28.363-21.647-28.362,16.494-28.362,31.044,12.7,24.246,28.362,21.647" transform="translate(294.416 355.491)" fill="#fff"/>
          <path id="Trazado_610746" data-name="Trazado 610746" d="M235.014,160.858C249,158.543,260.33,146.137,260.33,133.15S249,111.518,235.014,113.834,209.7,128.556,209.7,141.542s11.335,21.632,25.316,19.316" transform="translate(338.915 351.133)" fill="#fff"/>
          <path id="Trazado_610747" data-name="Trazado 610747" d="M237.959,153.781c12.081-2,21.869-12.719,21.869-23.933s-9.788-18.691-21.869-16.7-21.869,12.719-21.869,23.94,9.788,18.691,21.869,16.688" transform="translate(383.764 347.085)" fill="#fff"/>
          <path id="Trazado_610748" data-name="Trazado 610748" d="M240.784,146.47c10.1-1.676,18.286-10.634,18.286-20.016s-8.185-15.638-18.286-13.962S222.5,123.126,222.5,132.516s8.185,15.63,18.286,13.955" transform="translate(428.726 343.151)" fill="#fff"/>
          <path id="Trazado_610749" data-name="Trazado 610749" d="M243.848,139.62c8.273-1.37,14.975-8.712,14.975-16.39s-6.7-12.8-14.975-11.43-14.975,8.7-14.975,16.39,6.7,12.8,14.975,11.43" transform="translate(473.457 339.011)" fill="#fff"/>
          <path id="Trazado_610750" data-name="Trazado 610750" d="M246.793,132.543c6.365-1.057,11.527-6.7,11.527-12.622s-5.163-9.852-11.527-8.8-11.528,6.709-11.528,12.622,5.163,9.859,11.528,8.8" transform="translate(518.307 334.963)" fill="#fff"/>
          <path id="Trazado_610751" data-name="Trazado 610751" d="M249.976,125.926c4.61-.767,8.345-4.855,8.345-9.137s-3.735-7.141-8.345-6.374-8.353,4.855-8.353,9.137,3.744,7.141,8.353,6.374" transform="translate(562.918 330.708)" fill="#fff"/>
          <path id="Trazado_610752" data-name="Trazado 610752" d="M253.265,119.543a6.294,6.294,0,0,0,5.3-5.8c0-2.725-2.373-4.535-5.3-4.051a6.3,6.3,0,0,0-5.3,5.808c0,2.718,2.373,4.527,5.3,4.043" transform="translate(607.424 326.339)" fill="#fff"/>
          <path id="Trazado_610753" data-name="Trazado 610753" d="M256.792,113.616a3,3,0,0,0,2.517-2.755,2.01,2.01,0,0,0-2.517-1.921,2.982,2.982,0,0,0-2.517,2.755,2.011,2.011,0,0,0,2.517,1.921" transform="translate(651.691 321.758)" fill="#fff"/>
          <path id="Trazado_610754" data-name="Trazado 610754" d="M260.9,108.851a.48.48,0,0,0,.4-.439.319.319,0,0,0-.4-.3.478.478,0,0,0-.4.432.32.32,0,0,0,.4.305" transform="translate(695.377 316.635)" fill="#fff"/>
          <path id="Trazado_610755" data-name="Trazado 610755" d="M141.425,135.622a.163.163,0,0,0,.136-.149.106.106,0,0,0-.136-.1.148.148,0,0,0-.128.142.1.1,0,0,0,.128.1" transform="translate(-141.024 492.408)" fill="#fff"/>
          <path id="Trazado_610756" data-name="Trazado 610756" d="M149.015,137.8a2.356,2.356,0,0,0,1.98-2.174,1.587,1.587,0,0,0-1.98-1.519,2.348,2.348,0,0,0-1.988,2.174,1.588,1.588,0,0,0,1.988,1.519" transform="translate(-100.82 484.037)" fill="#fff"/>
          <path id="Trazado_610757" data-name="Trazado 610757" d="M157.3,141.36a5.507,5.507,0,0,0,4.642-5.079c0-2.375-2.076-3.961-4.642-3.537a5.507,5.507,0,0,0-4.642,5.079c0,2.375,2.076,3.961,4.642,3.537" transform="translate(-61.317 475.016)" fill="#fff"/>
          <path id="Trazado_610758" data-name="Trazado 610758" d="M165.807,145.391c4.169-.693,7.552-4.393,7.552-8.273s-3.383-6.456-7.552-5.764-7.551,4.393-7.551,8.273,3.375,6.456,7.551,5.764" transform="translate(-22.031 465.773)" fill="#fff"/>
          <path id="Trazado_610759" data-name="Trazado 610759" d="M174.443,149.645c5.852-.968,10.606-6.166,10.606-11.609s-4.754-9.055-10.606-8.087-10.606,6.166-10.606,11.6,4.754,9.063,10.606,8.094" transform="translate(17.129 456.432)" fill="#fff"/>
          <path id="Trazado_610760" data-name="Trazado 610760" d="M183.184,154.138c7.616-1.258,13.78-8.02,13.78-15.087s-6.165-11.78-13.78-10.522-13.781,8.02-13.781,15.087,6.165,11.78,13.781,10.522" transform="translate(56.183 446.973)" fill="#fff"/>
          <path id="Trazado_610761" data-name="Trazado 610761" d="M191.931,158.625c9.372-1.549,16.963-9.866,16.963-18.571s-7.592-14.5-16.963-12.942-16.963,9.867-16.963,18.564,7.592,14.5,16.963,12.95" transform="translate(95.23 437.519)" fill="#fff"/>
          <path id="Trazado_610762" data-name="Trazado 610762" d="M200.559,162.886c11.055-1.832,20.009-11.639,20.009-21.908s-8.954-17.1-20.009-15.273-20.009,11.639-20.009,21.908,8.955,17.1,20.009,15.273" transform="translate(134.396 428.172)" fill="#fff"/>
          <path id="Trazado_610763" data-name="Trazado 610763" d="M209.076,166.911c12.658-2.1,22.927-13.337,22.927-25.095s-10.269-19.6-22.927-17.5-22.927,13.337-22.927,25.095,10.261,19.6,22.927,17.5" transform="translate(173.675 418.935)" fill="#fff"/>
          <path id="Trazado_610764" data-name="Trazado 610764" d="M217.009,169.781c13.909-2.3,25.18-14.648,25.18-27.56S230.918,120.694,217.009,123s-25.18,14.64-25.18,27.559,11.271,21.52,25.18,19.22" transform="translate(213.536 410.241)" fill="#fff"/>
          <path id="Trazado_610765" data-name="Trazado 610765" d="M223.785,170.34c14.422-2.39,26.11-15.183,26.11-28.58s-11.688-22.317-26.11-19.927-26.11,15.183-26.11,28.58,11.688,22.317,26.11,19.927" transform="translate(254.555 402.623)" fill="#fff"/>
          <path id="Trazado_610766" data-name="Trazado 610766" d="M229.052,167.883c13.981-2.316,25.316-14.722,25.316-27.708s-11.335-21.632-25.316-19.316-25.316,14.722-25.316,27.708,11.335,21.632,25.316,19.316" transform="translate(297.082 396.419)" fill="#fff"/>
          <path id="Trazado_610767" data-name="Trazado 610767" d="M233.043,162.889c12.738-2.107,23.063-13.411,23.063-25.244s-10.325-19.711-23.063-17.6-23.064,13.411-23.064,25.244,10.325,19.7,23.064,17.6" transform="translate(340.886 391.406)" fill="#fff"/>
          <path id="Trazado_610768" data-name="Trazado 610768" d="M236.563,156.967c11.2-1.854,20.274-11.8,20.274-22.2s-9.075-17.328-20.274-15.474-20.274,11.8-20.274,22.2,9.075,17.328,20.274,15.474" transform="translate(385.161 386.821)" fill="#fff"/>
          <path id="Trazado_610769" data-name="Trazado 610769" d="M239.745,150.348c9.444-1.564,17.1-9.941,17.1-18.713s-7.655-14.61-17.1-13.046-17.1,9.941-17.1,18.713,7.656,14.61,17.1,13.046" transform="translate(429.765 382.568)" fill="#fff"/>
          <path id="Trazado_610770" data-name="Trazado 610770" d="M242.922,143.734c7.688-1.273,13.917-8.094,13.917-15.235s-6.229-11.892-13.917-10.619-13.917,8.094-13.917,15.236,6.229,11.892,13.917,10.619" transform="translate(474.383 378.303)" fill="#fff"/>
          <path id="Trazado_610771" data-name="Trazado 610771" d="M246.1,137.115c5.932-.983,10.734-6.24,10.734-11.751s-4.8-9.174-10.734-8.191-10.734,6.24-10.734,11.751,4.8,9.174,10.734,8.191" transform="translate(519.001 374.05)" fill="#fff"/>
          <path id="Trazado_610772" data-name="Trazado 610772" d="M249.394,130.731c4.241-.7,7.688-4.468,7.688-8.414s-3.447-6.568-7.688-5.868-7.688,4.475-7.688,8.415,3.439,6.568,7.688,5.868" transform="translate(563.5 369.681)" fill="#fff"/>
          <path id="Trazado_610773" data-name="Trazado 610773" d="M252.8,124.575a5.668,5.668,0,0,0,4.77-5.22c0-2.45-2.133-4.081-4.77-3.641a5.654,5.654,0,0,0-4.77,5.22c0,2.45,2.132,4.081,4.77,3.641" transform="translate(607.887 365.21)" fill="#fff"/>
          <path id="Trazado_610774" data-name="Trazado 610774" d="M256.442,118.885a2.518,2.518,0,0,0,2.116-2.323,1.69,1.69,0,0,0-2.116-1.616,2.518,2.518,0,0,0-2.117,2.323,1.69,1.69,0,0,0,2.117,1.616" transform="translate(652.042 360.52)" fill="#fff"/>
          <path id="Trazado_610775" data-name="Trazado 610775" d="M260.782,114.581a.317.317,0,0,0,.264-.29.213.213,0,0,0-.264-.2.317.317,0,0,0-.264.29.213.213,0,0,0,.264.2" transform="translate(695.496 355.181)" fill="#fff"/>
          <path id="Trazado_610776" data-name="Trazado 610776" d="M148.44,142.6a1.576,1.576,0,0,0,1.315-1.452,1.057,1.057,0,0,0-1.315-1.013,1.59,1.59,0,0,0-1.331,1.452,1.067,1.067,0,0,0,1.331,1.013" transform="translate(-100.244 523.008)" fill="#fff"/>
          <path id="Trazado_610777" data-name="Trazado 610777" d="M156.485,145.7a4.41,4.41,0,0,0,3.712-4.066,2.967,2.967,0,0,0-3.712-2.83,4.41,4.41,0,0,0-3.712,4.066,2.964,2.964,0,0,0,3.712,2.83" transform="translate(-60.503 514.204)" fill="#fff"/>
          <path id="Trazado_610778" data-name="Trazado 610778" d="M164.881,149.5c3.583-.6,6.493-3.775,6.493-7.111s-2.91-5.548-6.493-4.952-6.493,3.775-6.493,7.1,2.91,5.555,6.493,4.959" transform="translate(-21.105 505.078)" fill="#fff"/>
          <path id="Trazado_610779" data-name="Trazado 610779" d="M173.278,153.291c5.122-.849,9.275-5.4,9.275-10.157s-4.153-7.923-9.275-7.074S164,141.451,164,146.21s4.152,7.93,9.275,7.081" transform="translate(18.293 495.946)" fill="#fff"/>
          <path id="Trazado_610780" data-name="Trazado 610780" d="M181.794,157.323c6.734-1.117,12.193-7.089,12.193-13.344s-5.459-10.425-12.193-9.308S169.6,141.76,169.6,148.015s5.459,10.425,12.193,9.308" transform="translate(57.572 486.709)" fill="#fff"/>
          <path id="Trazado_610781" data-name="Trazado 610781" d="M190.31,161.347c8.345-1.385,15.111-8.787,15.111-16.539s-6.766-12.912-15.111-11.527S175.2,142.068,175.2,149.82s6.766,12.912,15.111,11.527" transform="translate(96.851 477.472)" fill="#fff"/>
          <path id="Trazado_610782" data-name="Trazado 610782" d="M198.588,164.915c9.8-1.623,17.757-10.328,17.757-19.443s-7.952-15.176-17.757-13.553-17.757,10.328-17.757,19.443,7.953,15.176,17.757,13.553" transform="translate(136.368 468.447)" fill="#fff"/>
          <path id="Trazado_610783" data-name="Trazado 610783" d="M206.641,168.014c11.127-1.847,20.145-11.713,20.145-22.049s-9.019-17.216-20.145-15.377-20.146,11.721-20.146,22.049,9.019,17.224,20.146,15.377" transform="translate(176.11 459.643)" fill="#fff"/>
          <path id="Trazado_610784" data-name="Trazado 610784" d="M213.992,169.73c12-1.988,21.733-12.637,21.733-23.792s-9.732-18.579-21.733-16.591-21.733,12.644-21.733,23.792,9.732,18.579,21.733,16.591" transform="translate(216.553 451.486)" fill="#fff"/>
          <path id="Trazado_610785" data-name="Trazado 610785" d="M220.536,169.821c12.369-2.048,22.4-13.024,22.4-24.514s-10.029-19.145-22.4-17.1-22.4,13.024-22.4,24.514,10.029,19.145,22.4,17.1" transform="translate(257.803 444.091)" fill="#fff"/>
          <path id="Trazado_610786" data-name="Trazado 610786" d="M226.035,167.832c12.081-2,21.869-12.719,21.869-23.933s-9.788-18.691-21.869-16.7-21.869,12.718-21.869,23.94,9.788,18.691,21.869,16.688" transform="translate(300.099 437.664)" fill="#fff"/>
          <path id="Trazado_610787" data-name="Trazado 610787" d="M230.608,163.992c11.2-1.854,20.274-11.8,20.274-22.2s-9.074-17.328-20.274-15.474-20.282,11.8-20.282,22.2,9.083,17.328,20.282,15.474" transform="translate(343.321 432.108)" fill="#fff"/>
          <path id="Trazado_610788" data-name="Trazado 610788" d="M234.479,158.765c9.884-1.638,17.893-10.4,17.893-19.584s-8.008-15.3-17.893-13.657-17.893,10.41-17.893,19.584,8.009,15.3,17.893,13.657" transform="translate(387.245 427.2)" fill="#fff"/>
          <path id="Trazado_610789" data-name="Trazado 610789" d="M238.118,153.07c8.417-1.393,15.239-8.861,15.239-16.68s-6.822-13.031-15.239-11.631-15.24,8.861-15.24,16.68,6.822,13.024,15.24,11.631" transform="translate(431.393 422.514)" fill="#fff"/>
          <path id="Trazado_610790" data-name="Trazado 610790" d="M241.533,146.919c6.806-1.124,12.329-7.171,12.329-13.493s-5.523-10.537-12.329-9.405-12.33,7.171-12.33,13.493,5.523,10.529,12.33,9.4" transform="translate(475.772 418.039)" fill="#fff"/>
          <path id="Trazado_610791" data-name="Trazado 610791" d="M245.053,141c5.267-.871,9.54-5.548,9.54-10.447s-4.273-8.154-9.54-7.283-9.54,5.555-9.54,10.447,4.273,8.154,9.54,7.283" transform="translate(520.047 413.454)" fill="#fff"/>
          <path id="Trazado_610792" data-name="Trazado 610792" d="M248.467,134.841c3.656-.6,6.63-3.857,6.63-7.253s-2.974-5.667-6.63-5.056-6.629,3.85-6.629,7.253,2.966,5.659,6.629,5.056" transform="translate(564.426 408.984)" fill="#fff"/>
          <path id="Trazado_610793" data-name="Trazado 610793" d="M252.107,129.151a4.726,4.726,0,0,0,3.976-4.349,3.178,3.178,0,0,0-3.976-3.038,4.726,4.726,0,0,0-3.976,4.349,3.175,3.175,0,0,0,3.976,3.038" transform="translate(608.582 404.293)" fill="#fff"/>
          <path id="Trazado_610794" data-name="Trazado 610794" d="M255.866,123.692a1.738,1.738,0,0,0,1.459-1.594,1.167,1.167,0,0,0-1.459-1.117,1.739,1.739,0,0,0-1.459,1.6,1.167,1.167,0,0,0,1.459,1.11" transform="translate(652.618 399.491)" fill="#fff"/>
          <path id="Trazado_610795" data-name="Trazado 610795" d="M147.864,147.4a.787.787,0,0,0,.657-.722.527.527,0,0,0-.657-.506.789.789,0,0,0-.674.722.537.537,0,0,0,.674.506" transform="translate(-99.669 561.985)" fill="#fff"/>
          <path id="Trazado_610796" data-name="Trazado 610796" d="M155.558,149.814a3.151,3.151,0,0,0,2.654-2.9,2.117,2.117,0,0,0-2.654-2.018,3.143,3.143,0,0,0-2.653,2.9,2.117,2.117,0,0,0,2.653,2.026" transform="translate(-59.576 553.507)" fill="#fff"/>
          <path id="Trazado_610797" data-name="Trazado 610797" d="M163.724,153.145a6.141,6.141,0,0,0,5.171-5.659c0-2.651-2.317-4.416-5.171-3.939a6.133,6.133,0,0,0-5.171,5.652c0,2.651,2.317,4.423,5.171,3.947" transform="translate(-19.947 544.592)" fill="#fff"/>
          <path id="Trazado_610798" data-name="Trazado 610798" d="M172,156.712c4.321-.715,7.816-4.55,7.816-8.556s-3.5-6.687-7.816-5.972-7.816,4.55-7.816,8.563,3.5,6.68,7.816,5.965" transform="translate(19.57 535.566)" fill="#fff"/>
          <path id="Trazado_610799" data-name="Trazado 610799" d="M180.173,160.044c5.708-.946,10.341-6.009,10.341-11.311s-4.634-8.839-10.341-7.893-10.341,6.009-10.341,11.319,4.634,8.831,10.341,7.886" transform="translate(59.193 526.657)" fill="#fff"/>
          <path id="Trazado_610800" data-name="Trazado 610800" d="M188.339,163.376c7.1-1.177,12.859-7.476,12.859-14.074s-5.756-10.984-12.859-9.807-12.859,7.476-12.859,14.067,5.756,10.991,12.859,9.815" transform="translate(98.822 517.747)" fill="#fff"/>
          <path id="Trazado_610801" data-name="Trazado 610801" d="M196.272,166.246c8.345-1.385,15.111-8.787,15.111-16.539s-6.766-12.912-15.111-11.527-15.111,8.787-15.111,16.531,6.766,12.92,15.111,11.535" transform="translate(138.683 509.047)" fill="#fff"/>
          <path id="Trazado_610802" data-name="Trazado 610802" d="M203.855,168.422c9.371-1.549,16.963-9.866,16.963-18.572s-7.591-14.5-16.963-12.942-16.963,9.867-16.963,18.564,7.592,14.506,16.963,12.949" transform="translate(178.895 500.675)" fill="#fff"/>
          <path id="Trazado_610803" data-name="Trazado 610803" d="M210.975,169.674c10.1-1.675,18.286-10.633,18.286-20.016s-8.185-15.638-18.286-13.962-18.286,10.641-18.286,20.024,8.185,15.63,18.286,13.955" transform="translate(219.57 492.736)" fill="#fff"/>
          <path id="Trazado_610804" data-name="Trazado 610804" d="M217.407,169.534c10.389-1.72,18.823-10.947,18.823-20.6s-8.434-16.084-18.823-14.364-18.823,10.946-18.823,20.6,8.433,16.084,18.823,14.364" transform="translate(260.933 485.445)" fill="#fff"/>
          <path id="Trazado_610805" data-name="Trazado 610805" d="M222.9,167.548c10.1-1.675,18.294-10.634,18.294-20.024S233,131.894,222.9,133.569s-18.286,10.634-18.286,20.024,8.185,15.63,18.286,13.955" transform="translate(303.236 479.024)" fill="#fff"/>
          <path id="Trazado_610806" data-name="Trazado 610806" d="M227.822,164.4c9.443-1.564,17.1-9.941,17.1-18.713s-7.656-14.61-17.1-13.046-17.1,9.941-17.1,18.713,7.656,14.61,17.1,13.046" transform="translate(346.107 473.141)" fill="#fff"/>
          <path id="Trazado_610807" data-name="Trazado 610807" d="M232.156,160.1c8.417-1.393,15.24-8.861,15.24-16.68s-6.822-13.031-15.24-11.631-15.239,8.861-15.239,16.68,6.822,13.024,15.239,11.632" transform="translate(389.567 467.801)" fill="#fff"/>
          <path id="Trazado_610808" data-name="Trazado 610808" d="M236.146,155.1c7.175-1.191,12.987-7.551,12.987-14.215s-5.812-11.1-12.987-9.911-12.987,7.551-12.987,14.215,5.812,11.1,12.987,9.911" transform="translate(433.364 462.789)" fill="#fff"/>
          <path id="Trazado_610809" data-name="Trazado 610809" d="M239.9,149.64c5.78-.961,10.47-6.091,10.47-11.46s-4.69-8.951-10.47-7.99-10.47,6.091-10.47,11.46,4.69,8.951,10.47,7.99" transform="translate(477.4 457.986)" fill="#fff"/>
          <path id="Trazado_610810" data-name="Trazado 610810" d="M243.663,144.182c4.393-.73,7.952-4.624,7.952-8.7s-3.559-6.8-7.952-6.069-7.952,4.624-7.952,8.7,3.559,6.8,7.952,6.069" transform="translate(521.436 453.19)" fill="#fff"/>
          <path id="Trazado_610811" data-name="Trazado 610811" d="M247.3,138.492a6.3,6.3,0,0,0,5.3-5.8c0-2.726-2.373-4.535-5.3-4.051a6.309,6.309,0,0,0-5.3,5.808c0,2.718,2.373,4.527,5.3,4.043" transform="translate(565.591 448.493)" fill="#fff"/>
          <path id="Trazado_610812" data-name="Trazado 610812" d="M251.062,133.029a3.3,3.3,0,0,0,2.782-3.046,2.217,2.217,0,0,0-2.782-2.122,3.3,3.3,0,0,0-2.782,3.046,2.224,2.224,0,0,0,2.782,2.122" transform="translate(609.627 443.702)" fill="#fff"/>
          <path id="Trazado_610813" data-name="Trazado 610813" d="M255.171,128.262a.787.787,0,0,0,.665-.722.53.53,0,0,0-.665-.506.78.78,0,0,0-.665.722.53.53,0,0,0,.665.506" transform="translate(653.312 438.58)" fill="#fff"/>
          <path id="Trazado_610814" data-name="Trazado 610814" d="M147.394,152.444a.172.172,0,0,0,.136-.149.109.109,0,0,0-.136-.1.162.162,0,0,0-.136.141.111.111,0,0,0,.136.1" transform="translate(-99.199 600.85)" fill="#fff"/>
          <path id="Trazado_610815" data-name="Trazado 610815" d="M154.513,153.7a1.738,1.738,0,0,0,1.459-1.594,1.168,1.168,0,0,0-1.459-1.117,1.739,1.739,0,0,0-1.459,1.6,1.167,1.167,0,0,0,1.459,1.11" transform="translate(-58.531 592.911)" fill="#fff"/>
          <path id="Trazado_610816" data-name="Trazado 610816" d="M162.327,156.335a4.24,4.24,0,0,0,3.575-3.917,2.854,2.854,0,0,0-3.575-2.733,4.247,4.247,0,0,0-3.575,3.917,2.854,2.854,0,0,0,3.575,2.733" transform="translate(-18.551 584.323)" fill="#fff"/>
          <path id="Trazado_610817" data-name="Trazado 610817" d="M170.38,159.434c3.295-.544,5.964-3.47,5.964-6.531s-2.67-5.093-5.964-4.55-5.964,3.47-5.964,6.531,2.669,5.093,5.964,4.55" transform="translate(21.191 575.52)" fill="#fff"/>
          <path id="Trazado_610818" data-name="Trazado 610818" d="M178.314,162.3c4.537-.752,8.217-4.781,8.217-9s-3.68-7.022-8.217-6.27-8.217,4.781-8.217,9,3.68,7.022,8.217,6.27" transform="translate(61.052 566.82)" fill="#fff"/>
          <path id="Trazado_610819" data-name="Trazado 610819" d="M186.128,164.942c5.708-.946,10.341-6.009,10.341-11.319s-4.633-8.832-10.341-7.886-10.333,6.009-10.333,11.319,4.626,8.832,10.333,7.886" transform="translate(101.033 558.232)" fill="#fff"/>
          <path id="Trazado_610820" data-name="Trazado 610820" d="M193.837,167.349c6.806-1.125,12.321-7.171,12.321-13.493s-5.515-10.529-12.321-9.405-12.329,7.171-12.329,13.493,5.523,10.529,12.329,9.405" transform="translate(141.118 549.755)" fill="#fff"/>
          <path id="Trazado_610821" data-name="Trazado 610821" d="M201.189,169.065c7.688-1.273,13.917-8.094,13.917-15.235s-6.229-11.892-13.917-10.619-13.917,8.094-13.917,15.236,6.229,11.892,13.917,10.619" transform="translate(181.561 541.599)" fill="#fff"/>
          <path id="Trazado_610822" data-name="Trazado 610822" d="M207.965,169.619c8.2-1.356,14.846-8.631,14.846-16.248s-6.646-12.689-14.846-11.326-14.847,8.631-14.847,16.248,6.646,12.681,14.847,11.326" transform="translate(222.58 533.985)" fill="#fff"/>
          <path id="Trazado_610823" data-name="Trazado 610823" d="M214.271,169.248c8.417-1.393,15.239-8.861,15.239-16.68s-6.822-13.031-15.239-11.631-15.24,8.861-15.24,16.68,6.822,13.024,15.24,11.631" transform="translate(264.069 526.805)" fill="#fff"/>
          <path id="Trazado_610824" data-name="Trazado 610824" d="M220,167.721c8.273-1.37,14.975-8.712,14.975-16.39s-6.7-12.8-14.975-11.43-14.975,8.705-14.975,16.39,6.7,12.8,14.975,11.43" transform="translate(306.133 520.164)" fill="#fff"/>
          <path id="Trazado_610825" data-name="Trazado 610825" d="M225.037,164.811c7.688-1.273,13.916-8.094,13.916-15.236s-6.229-11.892-13.916-10.619-13.917,8.094-13.917,15.236,6.229,11.892,13.917,10.619" transform="translate(348.892 514.176)" fill="#fff"/>
          <path id="Trazado_610826" data-name="Trazado 610826" d="M229.609,160.97c6.806-1.132,12.322-7.171,12.322-13.493s-5.515-10.537-12.322-9.4-12.329,7.171-12.329,13.493,5.523,10.529,12.329,9.4" transform="translate(392.114 508.619)" fill="#fff"/>
          <path id="Trazado_610827" data-name="Trazado 610827" d="M233.943,156.666c5.78-.96,10.47-6.091,10.47-11.46s-4.69-8.951-10.47-7.99-10.47,6.091-10.47,11.46,4.69,8.951,10.47,7.99" transform="translate(435.568 503.279)" fill="#fff"/>
          <path id="Trazado_610828" data-name="Trazado 610828" d="M238.052,151.9c4.609-.767,8.353-4.855,8.353-9.137s-3.744-7.141-8.353-6.374-8.353,4.855-8.353,9.137,3.744,7.141,8.353,6.374" transform="translate(479.253 498.156)" fill="#fff"/>
          <path id="Trazado_610829" data-name="Trazado 610829" d="M242.036,146.9c3.367-.558,6.092-3.545,6.092-6.672s-2.726-5.213-6.092-4.654-6.093,3.545-6.093,6.672,2.726,5.213,6.093,4.654" transform="translate(523.064 493.138)" fill="#fff"/>
          <path id="Trazado_610830" data-name="Trazado 610830" d="M246.033,141.907a4.557,4.557,0,0,0,3.84-4.207,3.067,3.067,0,0,0-3.84-2.934,4.565,4.565,0,0,0-3.848,4.207,3.074,3.074,0,0,0,3.848,2.934" transform="translate(566.861 488.126)" fill="#fff"/>
          <path id="Trazado_610831" data-name="Trazado 610831" d="M250.016,136.91a1.892,1.892,0,0,0,1.587-1.742,1.274,1.274,0,0,0-1.587-1.214,1.884,1.884,0,0,0-1.587,1.742,1.264,1.264,0,0,0,1.587,1.214" transform="translate(610.673 483.108)" fill="#fff"/>
          <path id="Trazado_610832" data-name="Trazado 610832" d="M254.7,133.3a.155.155,0,0,0,.128-.149.1.1,0,0,0-.128-.1.154.154,0,0,0-.128.142.1.1,0,0,0,.128.1" transform="translate(653.782 477.445)" fill="#fff"/>
          <path id="Trazado_610833" data-name="Trazado 610833" d="M153.587,157.8a.479.479,0,0,0,.4-.432.32.32,0,0,0-.4-.305.479.479,0,0,0-.4.432.32.32,0,0,0,.4.305" transform="translate(-57.605 632.216)" fill="#fff"/>
          <path id="Trazado_610834" data-name="Trazado 610834" d="M160.938,159.517a2.356,2.356,0,0,0,1.988-2.175,1.591,1.591,0,0,0-1.988-1.519A2.356,2.356,0,0,0,158.95,158a1.591,1.591,0,0,0,1.988,1.519" transform="translate(-17.161 624.055)" fill="#fff"/>
          <path id="Trazado_610835" data-name="Trazado 610835" d="M168.64,161.926a4.725,4.725,0,0,0,3.976-4.349,3.178,3.178,0,0,0-3.976-3.038,4.727,4.727,0,0,0-3.976,4.356,3.173,3.173,0,0,0,3.976,3.031" transform="translate(22.931 615.577)" fill="#fff"/>
          <path id="Trazado_610836" data-name="Trazado 610836" d="M176.342,164.333c3.295-.544,5.965-3.47,5.965-6.53s-2.67-5.094-5.965-4.55-5.964,3.47-5.964,6.53,2.669,5.094,5.964,4.55" transform="translate(63.024 607.094)" fill="#fff"/>
          <path id="Trazado_610837" data-name="Trazado 610837" d="M183.925,166.509c4.321-.715,7.816-4.55,7.816-8.556s-3.5-6.687-7.816-5.972-7.816,4.55-7.816,8.564,3.5,6.679,7.816,5.964" transform="translate(103.236 598.722)" fill="#fff"/>
          <path id="Trazado_610838" data-name="Trazado 610838" d="M191.284,168.223c5.195-.864,9.411-5.473,9.411-10.3s-4.216-8.042-9.411-7.186-9.411,5.473-9.411,10.306,4.217,8.042,9.411,7.178" transform="translate(143.672 590.567)" fill="#fff"/>
          <path id="Trazado_610839" data-name="Trazado 610839" d="M198.4,169.471c5.932-.983,10.734-6.248,10.734-11.751s-4.8-9.174-10.734-8.191-10.734,6.24-10.734,11.75,4.8,9.174,10.734,8.191" transform="translate(184.347 582.633)" fill="#fff"/>
          <path id="Trazado_610840" data-name="Trazado 610840" d="M205.06,169.8c6.365-1.057,11.528-6.7,11.528-12.622s-5.163-9.852-11.528-8.8S193.532,155.084,193.532,161s5.163,9.859,11.528,8.8" transform="translate(225.485 575.127)" fill="#fff"/>
          <path id="Trazado_610841" data-name="Trazado 610841" d="M211.253,169.2c6.517-1.08,11.792-6.858,11.792-12.912s-5.275-10.083-11.792-9-11.792,6.866-11.792,12.912,5.275,10.082,11.792,9" transform="translate(267.086 568.05)" fill="#fff"/>
          <path id="Trazado_610842" data-name="Trazado 610842" d="M216.984,167.671c6.365-1.057,11.528-6.709,11.528-12.622s-5.163-9.852-11.528-8.8-11.528,6.709-11.528,12.622,5.163,9.859,11.528,8.8" transform="translate(309.15 561.415)" fill="#fff"/>
          <path id="Trazado_610843" data-name="Trazado 610843" d="M222.251,165.217c5.932-.983,10.734-6.24,10.734-11.75s-4.8-9.174-10.734-8.191-10.734,6.24-10.734,11.75,4.8,9.174,10.734,8.191" transform="translate(351.678 555.209)" fill="#fff"/>
          <path id="Trazado_610844" data-name="Trazado 610844" d="M227.167,162.073c5.267-.871,9.54-5.548,9.54-10.447s-4.273-8.154-9.54-7.283-9.539,5.555-9.539,10.448,4.273,8.154,9.539,7.283" transform="translate(394.556 549.32)" fill="#fff"/>
          <path id="Trazado_610845" data-name="Trazado 610845" d="M231.739,158.234c4.393-.73,7.952-4.624,7.952-8.7s-3.559-6.8-7.952-6.069-7.952,4.624-7.952,8.705,3.559,6.8,7.952,6.069" transform="translate(437.771 543.77)" fill="#fff"/>
          <path id="Trazado_610846" data-name="Trazado 610846" d="M236.074,153.929c3.367-.558,6.092-3.544,6.092-6.672s-2.726-5.213-6.092-4.654-6.093,3.544-6.093,6.672,2.726,5.213,6.093,4.654" transform="translate(481.231 538.431)" fill="#fff"/>
          <path id="Trazado_610847" data-name="Trazado 610847" d="M240.3,149.4a4.88,4.88,0,0,0,4.1-4.5,3.277,3.277,0,0,0-4.1-3.135,4.874,4.874,0,0,0-4.1,4.5c0,2.107,1.836,3.507,4.1,3.135" transform="translate(524.804 533.195)" fill="#fff"/>
          <path id="Trazado_610848" data-name="Trazado 610848" d="M244.525,144.861a2.518,2.518,0,0,0,2.116-2.324,1.69,1.69,0,0,0-2.116-1.616,2.526,2.526,0,0,0-2.125,2.323,1.7,1.7,0,0,0,2.125,1.616" transform="translate(568.37 527.967)" fill="#fff"/>
          <path id="Trazado_610849" data-name="Trazado 610849" d="M248.978,140.788a.479.479,0,0,0,.4-.432.32.32,0,0,0-.4-.305.479.479,0,0,0-.4.432.32.32,0,0,0,.4.305" transform="translate(611.711 522.516)" fill="#fff"/>
          <path id="Trazado_610850" data-name="Trazado 610850" d="M159.661,162.935a.634.634,0,0,0,.529-.581.42.42,0,0,0-.529-.4.627.627,0,0,0-.529.581.423.423,0,0,0,.529.4" transform="translate(-15.884 663.685)" fill="#fff"/>
          <path id="Trazado_610851" data-name="Trazado 610851" d="M166.9,164.416a2.356,2.356,0,0,0,1.988-2.175,1.591,1.591,0,0,0-1.988-1.519,2.356,2.356,0,0,0-1.988,2.175,1.591,1.591,0,0,0,1.988,1.519" transform="translate(24.671 655.636)" fill="#fff"/>
          <path id="Trazado_610852" data-name="Trazado 610852" d="M174.371,166.361a4.41,4.41,0,0,0,3.712-4.066,2.967,2.967,0,0,0-3.712-2.829,4.41,4.41,0,0,0-3.712,4.066,2.963,2.963,0,0,0,3.712,2.83" transform="translate(64.995 647.37)" fill="#fff"/>
          <path id="Trazado_610853" data-name="Trazado 610853" d="M181.61,167.841a6.141,6.141,0,0,0,5.171-5.659c0-2.651-2.317-4.416-5.171-3.939a6.133,6.133,0,0,0-5.171,5.652c0,2.651,2.317,4.423,5.171,3.947" transform="translate(105.551 639.329)" fill="#fff"/>
          <path id="Trazado_610854" data-name="Trazado 610854" d="M188.849,169.324c3.655-.6,6.63-3.857,6.63-7.253s-2.974-5.667-6.63-5.056-6.63,3.85-6.63,7.253,2.966,5.659,6.63,5.056" transform="translate(146.107 631.278)" fill="#fff"/>
          <path id="Trazado_610855" data-name="Trazado 610855" d="M195.737,170.113c4.241-.7,7.688-4.468,7.688-8.414s-3.447-6.568-7.688-5.868-7.688,4.475-7.688,8.415,3.439,6.575,7.688,5.868" transform="translate(187.013 623.556)" fill="#fff"/>
          <path id="Trazado_610856" data-name="Trazado 610856" d="M202.281,170.206c4.61-.767,8.353-4.855,8.353-9.137s-3.744-7.141-8.353-6.374-8.353,4.855-8.353,9.137,3.744,7.141,8.353,6.374" transform="translate(228.264 616.159)" fill="#fff"/>
          <path id="Trazado_610857" data-name="Trazado 610857" d="M208.475,169.6c4.762-.789,8.618-5.012,8.618-9.427s-3.856-7.364-8.618-6.575-8.618,5.011-8.618,9.427,3.856,7.365,8.618,6.575" transform="translate(269.865 609.084)" fill="#fff"/>
          <path id="Trazado_610858" data-name="Trazado 610858" d="M214.205,168.079c4.609-.767,8.353-4.855,8.353-9.137s-3.744-7.141-8.353-6.374-8.353,4.855-8.353,9.137,3.744,7.141,8.353,6.374" transform="translate(311.929 602.447)" fill="#fff"/>
          <path id="Trazado_610859" data-name="Trazado 610859" d="M219.585,165.858c4.241-.7,7.688-4.468,7.688-8.415s-3.447-6.568-7.688-5.868-7.688,4.475-7.688,8.415,3.439,6.568,7.688,5.868" transform="translate(354.344 596.126)" fill="#fff"/>
          <path id="Trazado_610860" data-name="Trazado 610860" d="M224.621,162.943c3.656-.6,6.63-3.857,6.63-7.253s-2.974-5.667-6.63-5.056-6.63,3.85-6.63,7.253,2.966,5.659,6.63,5.056" transform="translate(397.103 590.143)" fill="#fff"/>
          <path id="Trazado_610861" data-name="Trazado 610861" d="M229.417,159.569a6.294,6.294,0,0,0,5.3-5.8c0-2.725-2.373-4.535-5.3-4.051a6.3,6.3,0,0,0-5.3,5.808c0,2.718,2.373,4.527,5.3,4.044" transform="translate(440.093 584.366)" fill="#fff"/>
          <path id="Trazado_610862" data-name="Trazado 610862" d="M234.1,155.957a4.558,4.558,0,0,0,3.84-4.207,3.068,3.068,0,0,0-3.84-2.934,4.557,4.557,0,0,0-3.84,4.207,3.068,3.068,0,0,0,3.84,2.934" transform="translate(483.203 578.699)" fill="#fff"/>
          <path id="Trazado_610863" data-name="Trazado 610863" d="M238.556,151.885a2.518,2.518,0,0,0,2.116-2.323,1.69,1.69,0,0,0-2.116-1.616,2.518,2.518,0,0,0-2.117,2.323,1.69,1.69,0,0,0,2.117,1.616" transform="translate(526.544 573.254)" fill="#fff"/>
          <path id="Trazado_610864" data-name="Trazado 610864" d="M243.128,148.045a.634.634,0,0,0,.529-.581.423.423,0,0,0-.529-.4.619.619,0,0,0-.529.581.42.42,0,0,0,.529.4" transform="translate(569.766 567.698)" fill="#fff"/>
          <path id="Trazado_610865" data-name="Trazado 610865" d="M165.511,167.6a.479.479,0,0,0,.4-.432.32.32,0,0,0-.4-.305.479.479,0,0,0-.4.432.32.32,0,0,0,.4.305" transform="translate(26.061 695.366)" fill="#fff"/>
          <path id="Trazado_610866" data-name="Trazado 610866" d="M172.4,168.391a1.738,1.738,0,0,0,1.459-1.594,1.167,1.167,0,0,0-1.459-1.117,1.739,1.739,0,0,0-1.459,1.6,1.166,1.166,0,0,0,1.459,1.11" transform="translate(66.967 687.643)" fill="#fff"/>
          <path id="Trazado_610867" data-name="Trazado 610867" d="M179.519,169.639a3.3,3.3,0,0,0,2.782-3.046,2.217,2.217,0,0,0-2.782-2.122,3.3,3.3,0,0,0-2.782,3.046,2.224,2.224,0,0,0,2.782,2.122" transform="translate(107.642 679.708)" fill="#fff"/>
          <path id="Trazado_610868" data-name="Trazado 610868" d="M186.414,170.428a4.557,4.557,0,0,0,3.84-4.207,3.067,3.067,0,0,0-3.84-2.934,4.565,4.565,0,0,0-3.848,4.207,3.074,3.074,0,0,0,3.848,2.934" transform="translate(148.542 671.986)" fill="#fff"/>
          <path id="Trazado_610869" data-name="Trazado 610869" d="M193.183,170.982a5.668,5.668,0,0,0,4.77-5.22c0-2.45-2.132-4.081-4.77-3.641a5.655,5.655,0,0,0-4.77,5.22c0,2.45,2.132,4.081,4.77,3.641" transform="translate(189.567 664.373)" fill="#fff"/>
          <path id="Trazado_610870" data-name="Trazado 610870" d="M199.608,170.843a6.294,6.294,0,0,0,5.3-5.8c0-2.718-2.373-4.535-5.3-4.043a6.294,6.294,0,0,0-5.3,5.8c0,2.718,2.373,4.528,5.3,4.044" transform="translate(230.937 657.081)" fill="#fff"/>
          <path id="Trazado_610871" data-name="Trazado 610871" d="M205.689,170.014a6.457,6.457,0,0,0,5.435-5.95c0-2.785-2.437-4.639-5.435-4.148a6.464,6.464,0,0,0-5.436,5.95c0,2.792,2.437,4.646,5.436,4.147" transform="translate(272.65 650.113)" fill="#fff"/>
          <path id="Trazado_610872" data-name="Trazado 610872" d="M211.532,168.721a6.294,6.294,0,0,0,5.3-5.8c0-2.726-2.373-4.535-5.3-4.051a6.3,6.3,0,0,0-5.3,5.808c0,2.718,2.373,4.527,5.3,4.043" transform="translate(314.602 643.364)" fill="#fff"/>
          <path id="Trazado_610873" data-name="Trazado 610873" d="M217.031,166.728a5.668,5.668,0,0,0,4.77-5.22c0-2.45-2.133-4.081-4.77-3.641a5.655,5.655,0,0,0-4.77,5.22c0,2.45,2.132,4.081,4.77,3.641" transform="translate(356.898 636.949)" fill="#fff"/>
          <path id="Trazado_610874" data-name="Trazado 610874" d="M222.3,164.278a4.727,4.727,0,0,0,3.976-4.356,3.177,3.177,0,0,0-3.976-3.031,4.726,4.726,0,0,0-3.976,4.349,3.178,3.178,0,0,0,3.976,3.038" transform="translate(399.425 630.739)" fill="#fff"/>
          <path id="Trazado_610875" data-name="Trazado 610875" d="M227.214,161.131A3.3,3.3,0,0,0,230,158.085a2.217,2.217,0,0,0-2.782-2.122,3.3,3.3,0,0,0-2.782,3.046,2.22,2.22,0,0,0,2.782,2.122" transform="translate(442.297 624.861)" fill="#fff"/>
          <path id="Trazado_610876" data-name="Trazado 610876" d="M232.13,157.986a1.884,1.884,0,0,0,1.587-1.742,1.271,1.271,0,0,0-1.587-1.214,1.884,1.884,0,0,0-1.587,1.743,1.264,1.264,0,0,0,1.587,1.214" transform="translate(485.175 618.974)" fill="#fff"/>
          <path id="Trazado_610877" data-name="Trazado 610877" d="M237.054,154.839a.479.479,0,0,0,.4-.432.32.32,0,0,0-.4-.305.479.479,0,0,0-.4.432.32.32,0,0,0,.4.305" transform="translate(528.046 613.096)" fill="#fff"/>
          <path id="Trazado_610878" data-name="Trazado 610878" d="M171.234,172.038a.154.154,0,0,0,.128-.142.1.1,0,0,0-.128-.1.154.154,0,0,0-.128.141.1.1,0,0,0,.128.1" transform="translate(68.132 727.163)" fill="#fff"/>
          <path id="Trazado_610879" data-name="Trazado 610879" d="M177.666,171.9a.787.787,0,0,0,.665-.722.53.53,0,0,0-.665-.506.78.78,0,0,0-.665.722.53.53,0,0,0,.665.506" transform="translate(109.495 719.873)" fill="#fff"/>
          <path id="Trazado_610880" data-name="Trazado 610880" d="M184.323,172.226a1.738,1.738,0,0,0,1.459-1.594,1.167,1.167,0,0,0-1.459-1.117,1.73,1.73,0,0,0-1.459,1.6,1.163,1.163,0,0,0,1.459,1.109" transform="translate(150.632 712.365)" fill="#fff"/>
          <path id="Trazado_610881" data-name="Trazado 610881" d="M190.86,172.317a2.517,2.517,0,0,0,2.116-2.323,1.69,1.69,0,0,0-2.116-1.616,2.518,2.518,0,0,0-2.116,2.323,1.69,1.69,0,0,0,2.116,1.616" transform="translate(191.89 704.969)" fill="#fff"/>
          <path id="Trazado_610882" data-name="Trazado 610882" d="M197.173,171.947a3,3,0,0,0,2.517-2.755,2.01,2.01,0,0,0-2.517-1.921,2.99,2.99,0,0,0-2.517,2.755,2.014,2.014,0,0,0,2.517,1.921" transform="translate(233.372 697.789)" fill="#fff"/>
          <path id="Trazado_610883" data-name="Trazado 610883" d="M203.255,171.115a3.151,3.151,0,0,0,2.653-2.9,2.116,2.116,0,0,0-2.653-2.018,3.143,3.143,0,0,0-2.654,2.9,2.117,2.117,0,0,0,2.654,2.025" transform="translate(275.085 690.824)" fill="#fff"/>
          <path id="Trazado_610884" data-name="Trazado 610884" d="M209.1,169.82a2.988,2.988,0,0,0,2.517-2.755,2.007,2.007,0,0,0-2.517-1.921,3,3,0,0,0-2.517,2.755,2.013,2.013,0,0,0,2.517,1.921" transform="translate(317.037 684.077)" fill="#fff"/>
          <path id="Trazado_610885" data-name="Trazado 610885" d="M214.715,168.063a2.518,2.518,0,0,0,2.116-2.323,1.69,1.69,0,0,0-2.116-1.616,2.526,2.526,0,0,0-2.124,2.323,1.7,1.7,0,0,0,2.124,1.616" transform="translate(359.213 677.546)" fill="#fff"/>
          <path id="Trazado_610886" data-name="Trazado 610886" d="M220.1,165.845a1.737,1.737,0,0,0,1.459-1.593,1.167,1.167,0,0,0-1.459-1.117,1.73,1.73,0,0,0-1.459,1.6,1.163,1.163,0,0,0,1.459,1.109" transform="translate(401.629 671.23)" fill="#fff"/>
          <path id="Trazado_610887" data-name="Trazado 610887" d="M225.361,163.389a.787.787,0,0,0,.665-.722.53.53,0,0,0-.665-.506.781.781,0,0,0-.665.722.53.53,0,0,0,.665.507" transform="translate(444.149 665.026)" fill="#fff"/>
          <path id="Trazado_610888" data-name="Trazado 610888" d="M230.853,161.4a.155.155,0,0,0,.128-.149.1.1,0,0,0-.128-.1.153.153,0,0,0-.128.141.1.1,0,0,0,.128.1" transform="translate(486.452 658.598)" fill="#fff"/>
          <path id="Trazado_610889" data-name="Trazado 610889" d="M189.127,174.809a.155.155,0,0,0,.128-.149.1.1,0,0,0-.128-.1.155.155,0,0,0-.136.141.111.111,0,0,0,.136.1" transform="translate(193.623 745.026)" fill="#fff"/>
          <path id="Trazado_610890" data-name="Trazado 610890" d="M195.321,174.208a.48.48,0,0,0,.4-.439.319.319,0,0,0-.4-.3.478.478,0,0,0-.4.432.32.32,0,0,0,.4.305" transform="translate(235.224 737.958)" fill="#fff"/>
          <path id="Trazado_610891" data-name="Trazado 610891" d="M201.283,173.144a.479.479,0,0,0,.4-.439.319.319,0,0,0-.4-.3.479.479,0,0,0-.4.432.32.32,0,0,0,.4.305" transform="translate(277.057 731.099)" fill="#fff"/>
          <path id="Trazado_610892" data-name="Trazado 610892" d="M207.245,172.08a.479.479,0,0,0,.4-.432.32.32,0,0,0-.4-.305.479.479,0,0,0-.4.432.32.32,0,0,0,.4.305" transform="translate(318.889 724.24)" fill="#fff"/>
          <path id="Trazado_610893" data-name="Trazado 610893" d="M213.088,170.784a.317.317,0,0,0,.265-.29.213.213,0,0,0-.265-.2.31.31,0,0,0-.265.29.213.213,0,0,0,.265.2" transform="translate(360.841 717.493)" fill="#fff"/>
        </g>
      </g>
    </g>
  </g>
</svg>
