<svg xmlns="http://www.w3.org/2000/svg" xmlns:xlink="http://www.w3.org/1999/xlink" width="148" height="148" viewBox="0 0 148 148">
  <defs>
    <clipPath id="clip-path">
      <rect id="Rectángulo_378927" data-name="Rectángulo 378927" width="88.438" height="93.995" fill="#12263f"/>
    </clipPath>
  </defs>
  <g id="Grupo_1073246" data-name="Grupo 1073246" transform="translate(-292.865 -9557)">
    <g id="Grupo_1072889" data-name="Grupo 1072889" transform="translate(292.865 9557)">
      <g id="Grupo_1072868" data-name="Grupo 1072868">
        <rect id="Rectángulo_377974" data-name="Rectángulo 377974" width="147.714" height="147.714" fill="none"/>
        <path id="Trazado_610930" data-name="Trazado 610930" d="M-10.279,9.952,111.342.268l15.952,134.154L-7.187,147.951Z" transform="translate(13.831 0.049)" fill="#ffed33"/>
        <path id="Trazado_610931" data-name="Trazado 610931" d="M-22845.346-5607.035l-31.521,31.011-1.01-2.023-2.7.843-2.023-.843-5.561-1.854,37.076-36.91v2.359h2.191v2.865Z" transform="translate(22993.346 5721.227)" fill="#ffa346"/>
        <path id="Trazado_610932" data-name="Trazado 610932" d="M-22845.346-5607.035l-31.521,31.011-1.01-2.023-2.7.843-2.023-.843-5.561-1.854,37.076-36.91v2.359h2.191v2.865Z" transform="translate(22888.156 5616.811)" fill="#ffa346"/>
      </g>
      <path id="Intersección_4" data-name="Intersección 4" d="M29.7,0l1.639,13.763L17.01,27.855,0,29.566Z" transform="translate(108.761 108.21)" fill="#fbdb0a"/>
      <path id="Intersección_3" data-name="Intersección 3" d="M5.772,31.685l-2.7.842-2.022-.842-.915-.305L0,25.336,24.523.931,36.2,0l2.1,2.7L6.782,33.708Z" transform="translate(4.512 7.08)" fill="#fbdb0a"/>
      <rect id="Rectángulo_377980" data-name="Rectángulo 377980" width="86.551" height="86.551" transform="translate(31.158 32.312)" fill="#ffed33"/>
      <g id="Grupo_1073418" data-name="Grupo 1073418" transform="translate(23.662 24.868)">
        <g id="Grupo_1073417" data-name="Grupo 1073417" clip-path="url(#clip-path)">
          <path id="Trazado_615503" data-name="Trazado 615503" d="M74.172,104.777c0,1.37.021,2.74,0,4.11a3.4,3.4,0,0,1-3.536,3.655c-1.319.055-2.644.059-3.962,0a1.272,1.272,0,0,0-1.468,1.071,21.672,21.672,0,0,1-1.9,4.59,1.368,1.368,0,0,0,.291,1.932c.972.892,1.9,1.831,2.808,2.793a3.192,3.192,0,0,1-.006,4.822q-3.058,3.168-6.226,6.227a3.214,3.214,0,0,1-4.827.028c-1-.935-1.966-1.909-2.9-2.907a1.208,1.208,0,0,0-1.68-.273,23.694,23.694,0,0,1-4.857,2.018,1.206,1.206,0,0,0-.992,1.379c.034,1.369.039,2.741,0,4.11a3.228,3.228,0,0,1-3.433,3.391q-4.4.059-8.807,0a3.246,3.246,0,0,1-3.4-3.426c-.027-1.321-.046-2.644.008-3.963a1.254,1.254,0,0,0-1.005-1.5,22.977,22.977,0,0,1-4.861-2.012,1.19,1.19,0,0,0-1.666.311c-.859.936-1.783,1.813-2.7,2.7-1.712,1.658-3.466,1.684-5.149.036q-3.039-2.977-6.02-6.014a3.291,3.291,0,0,1,.016-5.043c.913-.954,1.835-1.9,2.805-2.8a1.171,1.171,0,0,0,.253-1.664,22.2,22.2,0,0,1-1.969-4.72,1.265,1.265,0,0,0-1.456-1.077c-1.27.056-2.544.042-3.816,0-2.362-.07-3.638-1.309-3.678-3.655q-.07-4.182,0-8.366c.038-2.426,1.335-3.646,3.778-3.677,1.515-.019,3.265.424,4.481-.19,1.246-.629,1.194-2.627,1.833-3.979,1.256-2.655,1.208-2.677-.918-4.806-3.418-3.423-3.412-4.291.051-7.751,1.488-1.487,2.966-2.984,4.463-4.462,1.792-1.768,3.593-1.781,5.368-.059,1.087,1.055,2,2.584,3.3,3.039,1.353.475,2.7-1.018,4.1-1.521,2.784-1,2.875-1.053,2.741-4.011-.207-4.538,1.057-5.71,5.515-5.477,2.2.115,4.4,0,6.6.026a3.262,3.262,0,0,1,3.56,3.556c.025,1.174,0,2.348-.006,3.523a1.316,1.316,0,0,1-1.31,1.47A1.367,1.367,0,0,1,42.159,74.7c-.027-1.027-.047-2.057,0-3.082.04-.868-.253-1.231-1.169-1.216q-3.889.065-7.779,0c-.9-.014-1.23.335-1.213,1.2q.041,2.054-.011,4.11a3.239,3.239,0,0,1-2.426,3.278,37.5,37.5,0,0,0-5.4,2.246,3.267,3.267,0,0,1-4.035-.693c-.978-.958-1.965-1.91-2.9-2.912-.567-.609-1-.6-1.574-.008q-2.768,2.835-5.6,5.6c-.582.569-.614,1.017-.008,1.588.96.905,1.882,1.853,2.8,2.8a3.3,3.3,0,0,1,.748,4.258,31.949,31.949,0,0,0-2.129,5.131,3.382,3.382,0,0,1-3.473,2.6c-1.321.03-2.643.042-3.963.011-.858-.02-1.225.278-1.21,1.191q.067,3.889,0,7.779c-.017.932.363,1.184,1.219,1.153,1.319-.047,2.642-.035,3.963,0a3.3,3.3,0,0,1,3.348,2.35,39.922,39.922,0,0,0,2.3,5.535,3.193,3.193,0,0,1-.6,3.913q-1.455,1.552-3,3.015a.944.944,0,0,0-.009,1.6c1.883,1.852,3.76,3.711,5.6,5.6.582.6,1.023.583,1.582,0q1.417-1.487,2.906-2.9a3.194,3.194,0,0,1,4.145-.649,39.374,39.374,0,0,0,5.278,2.161,3.238,3.238,0,0,1,2.433,3.287c.015,1.37.04,2.74.009,4.11-.021.945.372,1.3,1.317,1.282,2.544-.041,5.088-.032,7.632,0,.87.009,1.244-.309,1.213-1.206-.046-1.319-.028-2.642-.006-3.962a3.363,3.363,0,0,1,2.535-3.522,32.851,32.851,0,0,0,5.272-2.173,3.259,3.259,0,0,1,4.035.607q1.543,1.464,3.012,3.006c.514.538.915.575,1.458.021q2.823-2.882,5.71-5.7c.617-.6.508-1.04-.061-1.577-.959-.907-1.891-1.845-2.807-2.8a3.236,3.236,0,0,1-.693-4.26,37.31,37.31,0,0,0,2.118-5.136,3.424,3.424,0,0,1,3.629-2.6c1.321-.016,2.643-.032,3.963,0,.763.021,1.055-.3,1.052-1.037q-.018-4.036,0-8.073c0-.663-.274-1-.956-1-1.908.006-3.816.013-5.724-.008-.634-.007-.868.258-.848.876.028.88.019,1.762,0,2.642-.043,2.1-.843,2.9-2.967,2.946-.978.022-1.958.027-2.936,0-.694-.019-1.01.181-1.125.961-1.323,8.99-7.2,15.314-15.9,17.189-10.693,2.3-21.73-5.52-23.486-16.25A20.07,20.07,0,0,1,35.175,84.826a17.108,17.108,0,0,1,5.975.378c.794.189,1.054.011,1.011-.806-.052-.976-.02-1.957-.006-2.935a1.38,1.38,0,0,1,1.4-1.552c.922,0,1.363.646,1.36,1.572,0,1.37.021,2.74,0,4.11-.035,2.133-1.159,3.063-3.229,2.557a18.316,18.316,0,0,0-8.7-.11,17.116,17.116,0,0,0,.9,33.445c10.361,1.884,19.455-5.171,20.328-15.771a2.348,2.348,0,0,1,2.554-2.418,19.13,19.13,0,0,1,2.64.011c1.24.133,1.833-.2,1.644-1.574a12.642,12.642,0,0,1,0-2.492,2.26,2.26,0,0,1,2.428-2.377c2.446-.045,4.893-.053,7.339,0a3.281,3.281,0,0,1,3.343,3.362c.055,1.515.011,3.033.012,4.55" transform="translate(0 -47.756)" fill="#12263f"/>
          <path id="Trazado_615504" data-name="Trazado 615504" d="M190.188,74.948c0,2.1.014,4.206,0,6.309-.015,1.939-.742,2.709-2.629,2.718q-6.383.03-12.766,0c-1.81-.009-2.594-.76-2.609-2.595q-.055-6.455,0-12.912c.017-1.732.836-2.476,2.545-2.5,1.027-.016,2.054,0,3.081,0a1.3,1.3,0,0,1,1.478,1.286c.05.962-.562,1.392-1.478,1.439-.049,0-.1,0-.146.006-2.741.186-2.741.186-2.741,2.937,0,2.837.024,5.674-.014,8.51-.011.816.229,1.109,1.076,1.1q5.208-.06,10.418,0c.822.009,1.111-.245,1.1-1.082q-.054-5.208,0-10.418c.01-.879-.358-1.1-1.141-1.048-.584.042-1.173,0-1.76,0-.917,0-1.562-.4-1.555-1.36.006-.928.58-1.392,1.534-1.377,1.076.018,2.153-.019,3.228.009a2.169,2.169,0,0,1,2.367,2.376c.038,2.2.01,4.4.011,6.6" transform="translate(-121.611 -46.594)" fill="#12263f"/>
          <path id="Trazado_615505" data-name="Trazado 615505" d="M252.853,37.832c1.954,0,3.907-.023,5.86.008a2.212,2.212,0,0,1,2.5,2.413q.079,5.859,0,11.72a2.192,2.192,0,0,1-2.5,2.4q-5.787.03-11.574,0c-1.672-.009-2.477-.836-2.486-2.549q-.029-5.714,0-11.428c.009-1.762.824-2.539,2.635-2.559,1.855-.021,3.711,0,5.567,0M247.389,46.1c0,1.513.024,3.027-.01,4.54-.017.756.264,1.022,1.025,1.014,3.027-.032,6.054-.026,9.08,0,.677.005.956-.208.95-.918q-.039-4.613,0-9.227c.006-.692-.234-.941-.931-.935-3.027.025-6.054.038-9.08-.007-.891-.014-1.062.382-1.045,1.144.034,1.464.01,2.929.011,4.393" transform="translate(-172.814 -26.719)" fill="#12263f"/>
          <path id="Trazado_615506" data-name="Trazado 615506" d="M96.235,172.544a8.86,8.86,0,0,1,17.712.509,8.86,8.86,0,0,1-17.712-.509m2.739.159a6.1,6.1,0,1,0,6.074-6.082,6.131,6.131,0,0,0-6.074,6.082" transform="translate(-67.98 -115.812)" fill="#12263f"/>
          <path id="Trazado_615507" data-name="Trazado 615507" d="M209.406,5.671c0,1.122.024,2.246-.006,3.367a2.188,2.188,0,0,1-2.326,2.416c-2.195.052-4.392.047-6.587,0a2.24,2.24,0,0,1-2.41-2.373q-.083-3.365,0-6.733A2.156,2.156,0,0,1,200.368.037q3.365-.076,6.734,0c1.527.032,2.261.842,2.3,2.415.027,1.073.005,2.147,0,3.221m-2.678.046c0-2.981,0-2.981-2.977-2.981-2.894,0-2.894,0-2.894,2.913,0,2.976,0,2.976,2.974,2.976,2.9,0,2.9,0,2.9-2.908" transform="translate(-139.896 0)" fill="#12263f"/>
          <path id="Trazado_615508" data-name="Trazado 615508" d="M254.092,123.985c-1.122,0-2.245.039-3.365-.009a2.108,2.108,0,0,1-2.279-2.286q-.061-3.364,0-6.731a2.144,2.144,0,0,1,2.288-2.3q3.364-.079,6.731,0a2.2,2.2,0,0,1,2.384,2.386c.07,2.193.073,4.391,0,6.584-.055,1.617-.868,2.313-2.54,2.36-1.072.03-2.146.006-3.219.006v-.008m.082-2.7c2.889,0,2.889,0,2.889-2.908,0-2.966,0-2.966-2.981-2.966-2.9,0-2.9,0-2.9,2.909,0,2.965,0,2.965,2.989,2.965" transform="translate(-175.486 -79.558)" fill="#12263f"/>
          <path id="Trazado_615509" data-name="Trazado 615509" d="M161.353,146.546c0-1.171-.035-2.343.009-3.511a1.991,1.991,0,0,1,2.119-2.119q3.51-.077,7.023,0a1.975,1.975,0,0,1,2.134,2.1c.049,2.34.025,4.682.014,7.023a1.983,1.983,0,0,1-2.057,2.187c-2.386.083-4.779.088-7.165,0a2.035,2.035,0,0,1-2.085-2.317c.006-1.122,0-2.244,0-3.366h.007m8.587.049c0-2.975,0-2.975-2.942-2.975h-.146c-2.787,0-2.787,0-2.787,2.839,0,3.043,0,3.043,3.016,3.043,2.859,0,2.859,0,2.859-2.907" transform="translate(-113.973 -99.518)" fill="#12263f"/>
        </g>
      </g>
    </g>
  </g>
</svg>
