<svg xmlns="http://www.w3.org/2000/svg" xmlns:xlink="http://www.w3.org/1999/xlink" width="70" height="70" viewBox="0 0 70 70">
  <defs>
    <clipPath id="clip-path">
      <rect id="Rectángulo_378647" data-name="Rectángulo 378647" width="32.873" height="52.757" fill="#670303"/>
    </clipPath>
  </defs>
  <g id="Grupo_1073090" data-name="Grupo 1073090" transform="translate(-269 -958)">
    <circle id="Elipse_5614" data-name="Elipse 5614" cx="35" cy="35" r="35" transform="translate(269 958)" fill="#fff"/>
    <g id="Grupo_1073114" data-name="Grupo 1073114" transform="translate(287.564 966.622)">
      <g id="Grupo_1073113" data-name="Grupo 1073113" clip-path="url(#clip-path)">
        <path id="Trazado_615186" data-name="Trazado 615186" d="M8.707,63.78c-.881,1.444-1.775,2.881-2.638,4.335a3.057,3.057,0,0,1-2.535,1.66A3.228,3.228,0,0,1,.49,68.261a2.806,2.806,0,0,1-.024-3.133c2.108-3.562,4.2-7.136,6.4-10.637A9.066,9.066,0,0,1,14.894,50.2c1.013-.015,2.027,0,3.04,0a9.212,9.212,0,0,1,8.289,4.542c2.086,3.316,4.1,6.68,6.114,10.04a3.228,3.228,0,0,1-.929,4.522,3.28,3.28,0,0,1-4.571-1.189c-.883-1.408-1.724-2.842-2.642-4.361a1.677,1.677,0,0,0-.345,1.45q-.014,9.981-.011,19.962a11.124,11.124,0,0,1-.139,1.972,2.972,2.972,0,0,1-3.216,2.521,3,3,0,0,1-3.039-2.587,7.82,7.82,0,0,1-.07-1.316c-.005-3.657.017-7.315-.022-10.972-.007-.617.49-1.6-.866-1.609-1.41-.012-.956,1.011-.962,1.683-.037,3.877,0,7.755-.03,11.633a2.983,2.983,0,0,1-2.624,3.144,3.134,3.134,0,0,1-3.612-2.19,6.431,6.431,0,0,1-.146-1.7Q9.1,75.633,9.107,65.52V63.95l-.4-.17" transform="translate(0 -36.917)" fill="#670303"/>
        <path id="Trazado_615187" data-name="Trazado 615187" d="M48.755,9.727a4.7,4.7,0,0,1-4.76-4.793A4.858,4.858,0,0,1,48.8,0a4.924,4.924,0,0,1,4.853,4.913,4.743,4.743,0,0,1-4.9,4.813" transform="translate(-32.355 0)" fill="#670303"/>
      </g>
    </g>
  </g>
</svg>
