<svg xmlns="http://www.w3.org/2000/svg" xmlns:xlink="http://www.w3.org/1999/xlink" width="125" height="125" viewBox="0 0 125 125">
  <defs>
    <clipPath id="clip-path">
      <rect id="Rectángulo_378074" data-name="Rectángulo 378074" width="61.154" height="61.162" fill="#12263f"/>
    </clipPath>
  </defs>
  <g id="Grupo_1072983" data-name="Grupo 1072983" transform="translate(-1104.668 -5996)">
    <g id="Grupo_1072869" data-name="Grupo 1072869" transform="translate(719 1)">
      <rect id="Rectángulo_377974" data-name="Rectángulo 377974" width="125" height="125" transform="translate(385.668 5995)" fill="none"/>
      <path id="Trazado_610930" data-name="Trazado 610930" d="M-10.279,8.447,92.441.268l13.473,113.306L-7.668,125Z" transform="translate(398.947 5995)" fill="#fff"/>
      <path id="Trazado_610931" data-name="Trazado 610931" d="M-22852-5608.555l-26.621,26.192-.854-1.708-2.277.712-1.709-.712-4.7-1.565,31.316-31.174v1.993h1.85v2.42Z" transform="translate(23362.668 11700)" fill="#ffa346"/>
      <path id="Trazado_610932" data-name="Trazado 610932" d="M-22852-5608.555l-26.621,26.192-.854-1.708-2.277.712-1.709-.712-4.7-1.565,31.316-31.174v1.993h1.85v2.42Z" transform="translate(23273.826 11611.811)" fill="#ffa346"/>
    </g>
    <path id="Intersección_6" data-name="Intersección 6" d="M23221.221,11791.125l1.383,11.624-12.1,11.9-14.367,1.445Z" transform="translate(-21999.613 -5703.732)" fill="#ffe3c7"/>
    <path id="Intersección_5" data-name="Intersección 5" d="M23116.354,11732.74l-2.279.711-1.707-.711-.773-.258-.115-5.1,20.711-20.613,9.867-.786,1.77,2.278-26.621,26.19Z" transform="translate(-22003 -5704)" fill="#ffe3c7"/>
    <rect id="Rectángulo_377981" data-name="Rectángulo 377981" width="73" height="73" transform="translate(1130.668 6023)" fill="#fff"/>
    <g id="Grupo_1073054" data-name="Grupo 1073054" transform="translate(1133.902 6027.918)">
      <g id="Grupo_1073053" data-name="Grupo 1073053" clip-path="url(#clip-path)">
        <path id="Trazado_613375" data-name="Trazado 613375" d="M188.293,22.443q-.535-3.624-1.069-7.247c-.051-.346-.076-.7-.135-1.04a3.1,3.1,0,0,0-1.343-2.6,2.869,2.869,0,0,1-.3-4.368,3.085,3.085,0,0,1,4.442-.08,3,3,0,0,1-.237,4.475,1.482,1.482,0,0,0-.646,1.7c.611,3.885,1.165,7.78,1.773,11.905,1.356-1.379,2.574-2.62,3.8-3.858.268-.271.175-.6.141-.9q-.839-7.49-1.688-14.978c-.153-1.373-.138-1.359-1.491-1.509q-7.49-.833-14.977-1.7a1.37,1.37,0,0,0-1.256.465c-1.873,1.908-3.8,3.768-5.65,5.7-.524.545-.843.5-1.26-.041-.329-.428-1.028-.664-.257-1.4,2.141-2.043,4.213-4.161,6.292-6.268a1.709,1.709,0,0,1,1.533-.551q8.531.966,17.067,1.9c1.568.174,1.695.263,1.86,1.721.654,5.783,1.28,11.568,1.945,17.349a1.828,1.828,0,0,1-.934,1.752,2.076,2.076,0,0,0-.714,2.483c.581,2.44,1.1,4.9,1.588,7.356a3.447,3.447,0,0,1-2.93,4.087,3.5,3.5,0,0,1-3.862-3.023c-.194-1.37-.413-2.736-.652-4.3-.746,1.074-1.243.691-1.844.045-.445-.478-.476-.8.041-1.131,1.636-1.034,1.477-2.491.9-4.36-.937,1.021-1.8,1.9-2.585,2.838-.579.691-.855.122-1.166-.215s-1.033-.61-.3-1.242c.458-.392.83-.888,1.3-1.265.556-.447.427-.735-.027-1.185q-5.835-5.782-11.615-11.619c-.5-.511-.772-.52-1.258,0-1.061,1.142-2.22,2.192-3.286,3.33-.641.685-.861-.007-1.166-.3s-.95-.542-.289-1.176c1.493-1.432,2.929-2.922,4.4-4.374.8-.787,1.193-.757,2.077.125q6.422,6.412,12.833,12.835a6.989,6.989,0,0,1,.623.839l.328-.183m4.936,3.371-.285-.113c-.509.562-1.015,1.127-1.528,1.686a.67.67,0,0,0-.225.592c.281,1.849.522,3.705.841,5.548A1.314,1.314,0,0,0,193.68,34.7a1.3,1.3,0,0,0,1.063-1.633c-.463-2.426-1-4.837-1.513-7.253m-5.52-15.538a.911.911,0,0,0,.948-.992.975.975,0,1,0-1.95.014c-.007.605.327.926,1,.978" transform="translate(-135.69 -0.113)" fill="#12263f"/>
        <path id="Trazado_613376" data-name="Trazado 613376" d="M106.684,139.276a16.286,16.286,0,1,1,30.6,7.742.834.834,0,0,0,.186,1.2c2.335,2.3,4.638,4.63,6.957,6.944a3.083,3.083,0,0,1,.835,3.24,3.006,3.006,0,0,1-2.525,2.194,3.211,3.211,0,0,1-2.926-1.049c-2.155-2.164-4.34-4.3-6.466-6.492-.513-.529-.836-.606-1.482-.185a16.254,16.254,0,0,1-25-11.312c-.11-.753-.121-1.521-.179-2.282M122.671,153.5a14.259,14.259,0,1,0-13.933-14.585A14.2,14.2,0,0,0,122.671,153.5m19.547,5.063a1.054,1.054,0,0,0,1.063-.707,1.13,1.13,0,0,0-.4-1.35q-2.99-3-5.986-6c-1.106-1.107-1.093-1.094-2.177.028-.334.345-.492.549-.059.973,2.222,2.176,4.411,4.387,6.61,6.587a1.177,1.177,0,0,0,.953.466" transform="translate(-86.3 -99.489)" fill="#12263f"/>
        <path id="Trazado_613377" data-name="Trazado 613377" d="M15.381.008c3.246,0,6.493-.006,9.739,0a5.121,5.121,0,0,1,5.467,5.5q.009,6.731,0,13.463a5.1,5.1,0,0,1-5.469,5.488c-1.591,0-3.183.032-4.773-.013-.668-.019-.733.237-.61.787.215.96.361,1.935.585,2.892a1.062,1.062,0,0,1-.4,1.26,1.1,1.1,0,0,1-1.325-.143c-1.986-1.432-3.99-2.839-5.968-4.281a2.46,2.46,0,0,0-1.576-.513c-1.941.032-3.883.025-5.824.009a5.046,5.046,0,0,1-5.206-5.17Q-.017,12.22.02,5.155A5.049,5.049,0,0,1,5.164.015C8.57-.014,11.975.008,15.381.008m2.347,26.1a6.811,6.811,0,0,0-.279-1.889c-.291-1.3.1-1.794,1.414-1.8,2.132-.009,4.264.009,6.4-.006a2.991,2.991,0,0,0,3.255-3.265q.012-6.921,0-13.841a2.949,2.949,0,0,0-3.185-3.224q-10.023-.013-20.046,0a2.947,2.947,0,0,0-3.2,3.212q-.013,6.921,0,13.841a2.986,2.986,0,0,0,3.242,3.277c2.1.016,4.2.019,6.3-.005a2.626,2.626,0,0,1,1.677.536c1.426,1.051,2.88,2.064,4.423,3.163" transform="translate(0 0)" fill="#12263f"/>
        <path id="Trazado_613378" data-name="Trazado 613378" d="M27.334,169.885c-.251.271-.394.437-.549.592q-2.09,2.095-4.185,4.185c-.921.916-1.3.918-2.219,0q-8.674-8.672-17.342-17.349-1.248-1.249-2.5-2.5a1.085,1.085,0,0,1-.01-1.74q5.84-5.838,11.672-11.683c.325-.327.519-.3.851,0,1.067.984,1.083.968.064,1.986-3.286,3.284-6.56,6.579-9.87,9.839-.53.522-.647.8-.049,1.4q8.845,8.772,17.622,17.614c.508.511.8.6,1.329.02,1.007-1.1,2.09-2.139,3.162-3.181.194-.189.358-.651.75-.348.444.342.833.755,1.27,1.16" transform="translate(-0.082 -114.188)" fill="#12263f"/>
        <path id="Trazado_613379" data-name="Trazado 613379" d="M47.515,174.547a.729.729,0,0,1-.3.7c-1.932,1.937-3.875,3.863-5.8,5.809-.309.312-.518.394-.816.012a4.6,4.6,0,0,0-.676-.671c-.322-.27-.287-.477,0-.764q2.951-2.921,5.873-5.872c.284-.287.459-.326.755-.019a10.02,10.02,0,0,0,.955.807" transform="translate(-32.116 -140.371)" fill="#12263f"/>
        <path id="Trazado_613380" data-name="Trazado 613380" d="M63.01,188.94c.384.468.778.882,1.094,1.35.265.393-.194.551-.384.743-1.83,1.855-3.709,3.662-5.506,5.548-.649.68-.895.138-1.25-.22s-.914-.6-.234-1.246c1.906-1.823,3.746-3.714,5.615-5.577.153-.152.321-.289.666-.6" transform="translate(-45.631 -152.839)" fill="#12263f"/>
        <path id="Trazado_613381" data-name="Trazado 613381" d="M73.825,226.232a15.517,15.517,0,0,1-1.175-1.36c-.226-.326.2-.476.375-.653.948-.98,1.938-1.921,2.88-2.907.692-.724.895.1,1.241.372s.8.555.205,1.107c-1.047.968-2.03,2.007-3.042,3.014-.111.11-.235.208-.485.426" transform="translate(-58.717 -178.792)" fill="#12263f"/>
        <path id="Trazado_613382" data-name="Trazado 613382" d="M93.615,244.562a4.693,4.693,0,0,1-.313.4c-.668.674-1.36,1.326-2.006,2.02-.334.359-.534.255-.841-.031-1.051-.977-1.061-.965-.049-1.978.38-.38.739-.785,1.145-1.135.236-.2.409-.727.793-.48a9.17,9.17,0,0,1,1.271,1.2" transform="translate(-72.526 -196.807)" fill="#12263f"/>
        <path id="Trazado_613383" data-name="Trazado 613383" d="M108.87,265.082a8.677,8.677,0,0,1-1.932,1.74c-.4.191-.882-.672-1.276-1.1-.3-.328.18-.456.322-.647a5.074,5.074,0,0,1,.737-.742c.271-.239.521-.792.83-.637a5.744,5.744,0,0,1,1.248,1.148c.037.036.035.112.071.237" transform="translate(-85.394 -213.291)" fill="#12263f"/>
        <path id="Trazado_613384" data-name="Trazado 613384" d="M140.311,144.083a12.232,12.232,0,1,1-12.3,12.115,12.2,12.2,0,0,1,12.3-12.115m-.051,22.37a10.161,10.161,0,1,0-10.154-10.165,10.093,10.093,0,0,0,10.154,10.165" transform="translate(-103.553 -116.553)" fill="#12263f"/>
        <path id="Trazado_613385" data-name="Trazado 613385" d="M25.288,34.495a29.578,29.578,0,0,0-1.785,2.4c-.519.861-.232,1.862-.174,2.793.023.37.54.206.831.206q7.449.016,14.9.008c1.305,0,2.612.041,3.915-.014.863-.037.709.519.69,1s.255,1.1-.694,1.1c-6.813-.025-13.626-.008-20.439-.021-.95,0-1.347-.4-1.35-1.345-.015-4.425,0-8.85-.014-13.276,0-1.054.76-.58,1.224-.652.484-.075.914-.085.893.689-.056,2-.019,4.009-.019,6.109.567-.233.723-.75,1.033-1.1.661-.755,1.36-.782,1.973,0,.666.849,1.3,1.721,2.026,2.683,1.007-1.5,1.967-2.942,2.931-4.378.872-1.3,1.387-1.319,2.4-.107,1.039,1.247,2.112,2.467,3.1,3.752.539.7.746.55,1.113-.137,1.136-2.131,2.379-4.206,3.49-6.35.459-.886.864-.373,1.334-.141.5.246.925.409.485,1.166-1.565,2.692-3.039,5.438-4.562,8.156q-.893,1.595-2.08.2c-1.2-1.406-2.387-2.817-3.537-4.26-.385-.484-.556-.415-.857.055-.84,1.313-1.717,2.6-2.582,3.9-.846,1.269-1.456,1.275-2.388.032-.59-.787-1.184-1.57-1.855-2.459" transform="translate(-17.123 -21.556)" fill="#12263f"/>
        <path id="Trazado_613386" data-name="Trazado 613386" d="M172.017,176.469a.866.866,0,0,1,1.069.562c.136.346.518.431.894.422.445-.01.891,0,1.336,0,1.4,0,1.672-.287,1.629-1.675-.03-.975-.356-1.325-1.316-1.365-.635-.026-1.274.013-1.908-.024a2.938,2.938,0,0,1-2.867-2.967c-.009-.318-.007-.636,0-.954a2.839,2.839,0,0,1,2.234-3.028c.748-.188.87-.529.831-1.172-.02-.323-.191-.838.194-.943a3.2,3.2,0,0,1,1.592,0c.392.1.222.617.2.939-.037.639.06,1.02.828,1.177a2.78,2.78,0,0,1,2.154,2.191c.129.484.05.795-.572.74s-1.339.194-1.664-.669c-.1-.276-.45-.329-.747-.333-.477-.007-.954-.013-1.432-.01-1.42.007-2.046.916-1.562,2.261a1.079,1.079,0,0,0,1.089.767c.7.01,1.4-.016,2.1.022a2.94,2.94,0,0,1,2.837,2.8,10.213,10.213,0,0,1-.013,1.62,2.577,2.577,0,0,1-1.944,2.451c-1.007.237-1.182.715-1.062,1.566.128.91-.532.726-1.047.74s-1.1.095-.96-.725c.159-.936-.144-1.4-1.145-1.589a2.475,2.475,0,0,1-1.637-1.5c-.518-1.062-.361-1.313.891-1.309" transform="translate(-138.204 -133.655)" fill="#12263f"/>
      </g>
    </g>
  </g>
</svg>
