<svg xmlns="http://www.w3.org/2000/svg" xmlns:xlink="http://www.w3.org/1999/xlink" width="125" height="125" viewBox="0 0 125 125">
  <defs>
    <clipPath id="clip-path">
      <rect id="Rectángulo_379152" data-name="Rectángulo 379152" width="58.392" height="79.786" fill="#12263f"/>
    </clipPath>
  </defs>
  <g id="Grupo_1072870" data-name="Grupo 1072870" transform="translate(-1104.668 -5996)">
    <g id="Grupo_1072869" data-name="Grupo 1072869" transform="translate(719 1)">
      <rect id="Rectángulo_377974" data-name="Rectángulo 377974" width="125" height="125" transform="translate(385.668 5995)" fill="none"/>
      <path id="Trazado_610930" data-name="Trazado 610930" d="M-10.279,8.447,92.441.268l13.473,113.306L-7.668,125Z" transform="translate(398.947 5995)" fill="#fff"/>
      <path id="Trazado_610931" data-name="Trazado 610931" d="M-22852-5608.555l-26.621,26.192-.854-1.708-2.277.712-1.709-.712-4.7-1.565,31.316-31.174v1.993h1.85v2.42Z" transform="translate(23362.668 11700)" fill="#ffa346"/>
      <path id="Trazado_610932" data-name="Trazado 610932" d="M-22852-5608.555l-26.621,26.192-.854-1.708-2.277.712-1.709-.712-4.7-1.565,31.316-31.174v1.993h1.85v2.42Z" transform="translate(23273.826 11611.811)" fill="#ffa346"/>
    </g>
    <path id="Intersección_6" data-name="Intersección 6" d="M23221.221,11791.125l1.383,11.624-12.1,11.9-14.367,1.445Z" transform="translate(-21999.613 -5703.732)" fill="#ffe3c7"/>
    <path id="Intersección_5" data-name="Intersección 5" d="M23116.354,11732.74l-2.279.711-1.707-.711-.773-.258-.115-5.1,20.711-20.613,9.867-.786,1.77,2.278-26.621,26.19Z" transform="translate(-22003 -5704)" fill="#ffe3c7"/>
    <rect id="Rectángulo_377981" data-name="Rectángulo 377981" width="73" height="73" transform="translate(1130.668 6023)" fill="#fff"/>
    <g id="Grupo_1073777" data-name="Grupo 1073777" transform="translate(1135.051 6016.214)">
      <g id="Grupo_1073776" data-name="Grupo 1073776" clip-path="url(#clip-path)">
        <path id="Trazado_615907" data-name="Trazado 615907" d="M.012,62.363q0-5.361,0-10.721c0-2.229,1.035-3.244,3.292-3.25,2.41-.006,4.82,0,7.23,0a2.594,2.594,0,0,1,2.508,1.32,1.154,1.154,0,0,0,1.268.7c.746-.034,1.5-.014,2.243,0a2.063,2.063,0,0,1,2.079,1.306c.233.63.612.654,1.142.657a7.908,7.908,0,0,0,7.446-5.262c.682-1.673.807-3.552,2.038-5.037.411-.5-.4-.555-.69-.679a21.6,21.6,0,1,1,13.946.835c-1.252.335-1.632.822-1.563,2.086.118,2.154.065,4.32.017,6.48-.019.83.263,1.1,1.075,1.041.91-.063,1.828-.034,2.741-.006a3.661,3.661,0,0,1,3.494,2.364,3.508,3.508,0,0,1-.771,4.027,1.2,1.2,0,0,0-.348,1.478,3.477,3.477,0,0,1-.949,3.878.979.979,0,0,0-.289,1.259,3.518,3.518,0,0,1-.919,3.993.993.993,0,0,0-.279,1.256,3.656,3.656,0,0,1-2.872,4.975c-.668.131-.839.41-.917,1.05a4.126,4.126,0,0,1-8.214-.111c-.069-.648-.263-.868-.892-.841-.829.036-1.663-.023-2.492.013a13.371,13.371,0,0,1-6.986-1.412,8.339,8.339,0,0,0-2.249-.682,1.568,1.568,0,0,0-1.848.593c-.655.944-1.772.739-2.76.752-1.085.015-2.158-.215-2.822,1.146-.416.853-2.792,1.138-3.706.692a1.048,1.048,0,0,1-.657-1.1c.1-.63.524-1.16,1.179-1.053,1.629.264,1.672-.637,1.664-1.866q-.061-10.035,0-20.07c.008-1.1-.292-1.44-1.4-1.393-2.074.087-4.155.056-6.232.01-.832-.018-1.174.2-1.17,1.1.031,7.022.042,14.045-.008,21.067-.008,1.152.568,1.18,1.384,1.118a1.265,1.265,0,0,1,1.438.933,1.026,1.026,0,0,1-.6,1.236,3.122,3.122,0,0,1-4.547-2.66c-.045-2.243-.01-4.487-.011-6.731q0-2.244,0-4.488m56-40.9a19.152,19.152,0,1,0-38.3.092,19.152,19.152,0,0,0,38.3-.092M18.926,62.7c0,2.326.021,4.653-.014,6.978-.01.666.168.987.873,1.011a11.652,11.652,0,0,1,4.608,1.388,8.121,8.121,0,0,0,3.616.764c3.863-.025,7.726-.009,11.589-.009.415,0,.831-.012,1.246,0,1.025.035,1.774-.393,1.777-1.453,0-1.092-.806-1.434-1.8-1.427-1.246.009-2.492,0-3.738,0-.623,0-1.248.015-1.868-.029a1.132,1.132,0,0,1-1.194-1.18,1.173,1.173,0,0,1,1.214-1.171c.289-.022.581-.008.872-.008,2.035,0,4.071-.014,6.106,0A1.422,1.422,0,0,0,43.832,66.2c.056-.9-.58-1.425-1.476-1.54a8.918,8.918,0,0,0-1.12-.022c-1.994,0-3.988-.01-5.982,0a1.081,1.081,0,0,1-1.229-1.109,1.144,1.144,0,0,1,1.191-1.185c.288-.027.581-.011.872-.011q3.614,0,7.228,0c.975,0,1.652-.418,1.676-1.428.024-1.028-.692-1.431-1.631-1.5-.29-.02-.581-.006-.872-.006-2.285,0-4.57-.009-6.854,0-.828,0-1.6-.173-1.6-1.136-.007-.935.7-1.216,1.562-1.176.58.027,1.163,0,1.744,0,2.409,0,4.819.006,7.228-.006.973,0,1.6-.458,1.6-1.49,0-.982-.634-1.378-1.537-1.43-.29-.017-.581-.007-.872-.007-2.991,0-5.982.007-8.973,0-1.567-.006-2.085-.527-2.091-2.092-.011-2.451,0-4.9-.009-7.353,0-.511.179-1.169-.593-1.3a1.251,1.251,0,0,0-1.466.883c-.277.735-.514,1.486-.734,2.24-1.474,5.047-4.779,7.763-10.018,8.138-.774.055-.976.313-.963,1.049.04,2.325.015,4.652.015,6.978m-2.415-.249c0-2.781-.06-5.563.029-8.341.036-1.13-.325-1.508-1.393-1.342a2.827,2.827,0,0,1-.746,0c-.709-.081-.953.218-.914.923.051.91.012,1.825.012,2.738,0,4.814.031,9.629-.025,14.442-.012,1.015.311,1.343,1.257,1.2a2.051,2.051,0,0,1,.621,0c.931.15,1.2-.225,1.18-1.16-.061-2.821-.022-5.644-.022-8.466M38.643,47.558V45.816c0-2.788,0-2.747-2.718-2.821-.85-.023-.954.315-.941,1.011.032,1.741.01,3.484.01,5.226,0,2.7,0,2.678,2.728,2.6.688-.019.964-.2.933-.918-.048-1.118-.013-2.239-.012-3.359m-1.8,27.529c-.557.41-1.631-.568-1.776.687-.1.863.928,1.708,1.822,1.678.859-.029,1.8-.854,1.717-1.653-.139-1.287-1.215-.3-1.763-.712" transform="translate(0 0)" fill="#12263f"/>
        <path id="Trazado_615908" data-name="Trazado 615908" d="M95.852,51.113c-11.669-.134-19.729-9.484-18.234-19.988a17.516,17.516,0,0,1,34.5-.856c.15.849.1,1.57-.832,1.763-1.055.218-1.3-.6-1.5-1.418-1.511-6.336-5.412-10.311-11.776-11.769a15.145,15.145,0,1,0,11.553,18.767q.184-.723.366-1.447a1.068,1.068,0,0,1,1.4-.882,1.109,1.109,0,0,1,.851,1.433,16.588,16.588,0,0,1-3.326,7.55c-3.568,4.511-8.234,6.832-13,6.848" transform="translate(-58.128 -12.142)" fill="#12263f"/>
        <path id="Trazado_615909" data-name="Trazado 615909" d="M125.119,67.259a3.456,3.456,0,0,1-2.567-1.085c-.921-.9-1.844-1.8-2.73-2.731-.41-.432-.684-.432-1.1.009-.849.91-1.738,1.785-2.641,2.642a3.6,3.6,0,1,1-5.069-5.1c.862-.9,1.726-1.8,2.645-2.637.474-.433.395-.7-.014-1.086Q112.3,55.977,111,54.629a3.6,3.6,0,0,1-.132-5.225,3.639,3.639,0,0,1,5.234.168,23.342,23.342,0,0,1,2.275,2.3c.71.9,1.183.674,1.816-.041.713-.807,1.5-1.556,2.277-2.3a3.6,3.6,0,1,1,5.1,5.088c-.883.935-1.8,1.841-2.735,2.723-.4.381-.36.626.015.986.988.949,1.981,1.9,2.9,2.91a3.585,3.585,0,0,1-2.629,6.021m1.224-3.571a1.664,1.664,0,0,0-.693-1.262c-1.086-1.084-2.181-2.159-3.253-3.257a1.621,1.621,0,0,1-.009-2.673c1.128-1.159,2.283-2.292,3.419-3.444.592-.6.847-1.284.164-1.956s-1.355-.386-1.951.208c-1.087,1.084-2.169,2.172-3.263,3.249-1.147,1.129-1.819,1.137-2.94.031-1.092-1.078-2.168-2.172-3.257-3.253-.626-.622-1.344-.95-2.051-.2-.653.693-.331,1.366.266,1.956,1.15,1.137,2.31,2.266,3.435,3.427A1.559,1.559,0,0,1,116.2,59.1c-1.123,1.165-2.275,2.3-3.423,3.44-.6.591-.929,1.258-.277,1.954.7.745,1.418.452,2.052-.18,1.058-1.054,2.107-2.117,3.17-3.166,1.288-1.272,1.827-1.272,3.11,0,1.12,1.108,2.226,2.231,3.35,3.336a1.183,1.183,0,0,0,1.47.294,1.121,1.121,0,0,0,.688-1.084" transform="translate(-82.425 -36.311)" fill="#12263f"/>
      </g>
    </g>
  </g>
</svg>
