<svg xmlns="http://www.w3.org/2000/svg" xmlns:xlink="http://www.w3.org/1999/xlink" width="70" height="70" viewBox="0 0 70 70">
  <defs>
    <clipPath id="clip-path">
      <rect id="Rectángulo_378926" data-name="Rectángulo 378926" width="49.803" height="39.781" fill="#670303"/>
    </clipPath>
  </defs>
  <g id="Grupo_1073241" data-name="Grupo 1073241" transform="translate(-269 -958)">
    <circle id="Elipse_5614" data-name="Elipse 5614" cx="35" cy="35" r="35" transform="translate(269 958)" fill="#fff"/>
    <g id="Grupo_1073416" data-name="Grupo 1073416" transform="translate(279.098 973.109)">
      <g id="Grupo_1073415" data-name="Grupo 1073415" clip-path="url(#clip-path)">
        <path id="Trazado_615500" data-name="Trazado 615500" d="M12.468,46.345c0-3.466-.008-6.78,0-10.093.007-2.19-.063-4.388.087-6.569a4.816,4.816,0,0,1,4.982-4.8c5.943-.08,11.887-.025,17.831-.031.538,0,.765.094.607.75a4.008,4.008,0,0,0,4.03,5.183c2.623.041,5.246.027,7.869,0,.68-.008.98.088.975.906a4.1,4.1,0,0,0,6.908,2.968,10.5,10.5,0,0,0,1.147-1.481,1.6,1.6,0,0,1,.412,1.3c.006,4.715.015,9.43-.006,14.145a10.179,10.179,0,0,1-.238,2.368,4.9,4.9,0,0,1-4.747,3.7c-5.977.025-11.954,0-17.931.016-.55,0-.729-.056-.581-.711a4.063,4.063,0,0,0-4.21-5.23q-3.935-.013-7.87,0c-.544,0-.824-.063-.816-.75a3.844,3.844,0,0,0-2.537-3.9,4.034,4.034,0,0,0-4.574.978,5.272,5.272,0,0,1-1.343,1.248m22.459.894a7.458,7.458,0,1,0-7.491-7.376,7.355,7.355,0,0,0,7.491,7.376M17.479,32.287c0,.629.018,1.258-.006,1.885-.02.533.2.689.716.619a5.232,5.232,0,0,0,4.123-3.712c.275-1.119.159-1.272-.973-1.276-.463,0-.926,0-1.389,0-2.473,0-2.473,0-2.471,2.483M52.316,47.314c0-.6-.031-1.2.008-1.789.047-.723-.279-.837-.9-.695A4.946,4.946,0,0,0,47.527,48.4c-.375,1.222-.236,1.4,1,1.4.431,0,.862,0,1.292,0,2.5,0,2.5,0,2.495-2.482" transform="translate(-9.978 -19.886)" fill="#670303"/>
        <path id="Trazado_615501" data-name="Trazado 615501" d="M156.368,9.031a1.842,1.842,0,0,0-1.332-.333c-3.88-.008-7.76,0-11.639-.008-1.3,0-2.066-.456-2.32-1.316a1.756,1.756,0,0,1,1.315-2.285,6.115,6.115,0,0,1,1.38-.121c3.814-.009,7.627,0,11.441-.011.278,0,.677.16.806-.164s-.282-.473-.469-.683c-.308-.346-.67-.647-.966-1a1.732,1.732,0,0,1-.018-2.5,1.719,1.719,0,0,1,2.571-.066c1.079.98,2.085,2.039,3.121,3.067.612.607,1.236,1.2,1.825,1.832a1.769,1.769,0,0,1,.1,2.593c-1.635,1.736-3.32,3.43-5.061,5.059a1.66,1.66,0,0,1-2.5.007,1.746,1.746,0,0,1-.046-2.585,5.049,5.049,0,0,1,.747-.8,11.472,11.472,0,0,1,1.041-.692" transform="translate(-112.901 0)" fill="#670303"/>
        <path id="Trazado_615502" data-name="Trazado 615502" d="M6.415,140.354c.528.448,1.092.861,1.574,1.354a1.836,1.836,0,0,1,.192,2.668,1.8,1.8,0,0,1-2.737-.054Q3,141.976.658,139.531a1.711,1.711,0,0,1-.053-2.654q2.39-2.534,4.914-4.94a1.826,1.826,0,0,1,2.607-.031,1.878,1.878,0,0,1,.007,2.613c-.315.383-.7.711-1.032,1.078-.146.16-.438.279-.331.553s.4.179.616.18c1.394.009,2.789.005,4.183.005h7.868a2.152,2.152,0,0,1,1.89.683,1.781,1.781,0,0,1,.212,1.967,1.814,1.814,0,0,1-1.79,1.021c-1.76.011-3.519,0-5.279,0H6.623l-.208.345" transform="translate(0 -105.199)" fill="#670303"/>
      </g>
    </g>
  </g>
</svg>
