<svg xmlns="http://www.w3.org/2000/svg" xmlns:xlink="http://www.w3.org/1999/xlink" width="125" height="125" viewBox="0 0 125 125">
  <defs>
    <clipPath id="clip-path">
      <rect id="Rectángulo_379151" data-name="Rectángulo 379151" width="67.661" height="68.407" fill="#12263f"/>
    </clipPath>
  </defs>
  <g id="Grupo_1072871" data-name="Grupo 1072871" transform="translate(-743.668 -5996)">
    <g id="Grupo_1072868" data-name="Grupo 1072868" transform="translate(358 1)">
      <rect id="Rectángulo_377974" data-name="Rectángulo 377974" width="125" height="125" transform="translate(385.668 5995)" fill="none"/>
      <path id="Trazado_610930" data-name="Trazado 610930" d="M-10.279,8.447,92.441.268l13.473,113.306L-7.668,125Z" transform="translate(398.947 5995)" fill="#fff"/>
      <path id="Trazado_610931" data-name="Trazado 610931" d="M-22852-5608.555l-26.621,26.192-.854-1.708-2.277.712-1.709-.712-4.7-1.565,31.316-31.174v1.993h1.85v2.42Z" transform="translate(23362.668 11700)" fill="#ffa346"/>
      <path id="Trazado_610932" data-name="Trazado 610932" d="M-22852-5608.555l-26.621,26.192-.854-1.708-2.277.712-1.709-.712-4.7-1.565,31.316-31.174v1.993h1.85v2.42Z" transform="translate(23273.826 11611.811)" fill="#ffa346"/>
    </g>
    <path id="Intersección_4" data-name="Intersección 4" d="M23221.221,11791.125l1.383,11.624-12.1,11.9-14.367,1.445Z" transform="translate(-22360.613 -5703.732)" fill="#ffe3c7"/>
    <path id="Intersección_3" data-name="Intersección 3" d="M23116.354,11732.74l-2.279.711-1.707-.711-.773-.258-.115-5.1,20.711-20.613,9.867-.786,1.77,2.278-26.621,26.19Z" transform="translate(-22364 -5704)" fill="#ffe3c7"/>
    <rect id="Rectángulo_377980" data-name="Rectángulo 377980" width="73" height="73" transform="translate(769.668 6023)" fill="#fff"/>
    <g id="Grupo_1073775" data-name="Grupo 1073775" transform="translate(769.864 6024.296)">
      <g id="Grupo_1073774" data-name="Grupo 1073774" clip-path="url(#clip-path)">
        <path id="Trazado_615902" data-name="Trazado 615902" d="M11.533,41.175c-2.025,0-3.981-.13-5.912.036a4.09,4.09,0,0,0-3.572,4.128c-.013.711-.011,1.422,0,2.133s-.265,1.214-1.009,1.24c-.714.026-1-.5-1.011-1.126a10.5,10.5,0,0,1,.51-4.618,6.1,6.1,0,0,1,5.543-3.835A14.19,14.19,0,0,1,8.1,39.125c.776.064.967-.14.736-.927a26.3,26.3,0,0,1-1.088-8.943C8.47,16.66,14.527,7.442,26.1,2.577c11.656-4.9,22.518-2.706,32.059,5.667.16.141.317.287.464.44a.957.957,0,0,1,.1,1.426.974.974,0,0,1-1.438.043c-.848-.7-1.636-1.477-2.506-2.149A27.986,27.986,0,0,0,10.883,38.17c.223.785.6.968,1.352.957,2.665-.038,5.331-.023,8-.012,2.921.011,4.4,1.807,3.78,4.626-.084.382-.043.507.3.71A3.429,3.429,0,0,1,25.64,49.6a.678.678,0,0,0-.023.911,3.352,3.352,0,0,1,0,4.072c-.381.543-.161.687.309.9a27.055,27.055,0,0,0,8.99,2.433c.755.066,1.445.259,1.4,1.093-.045.919-.766,1.008-1.578.927A29.7,29.7,0,0,1,27,58.113c-.539-.207-.686-.151-.871.421a3.4,3.4,0,0,1-3.552,2.492c-2.061.025-4.124.038-6.184-.008-.847-.019-1.11.2-.741,1.016a12.5,12.5,0,0,1,.525,1.505,3.662,3.662,0,0,1-1.949,4.549,3.623,3.623,0,0,1-4.667-1.616Q8.238,64.167,7.019,61.8a1.362,1.362,0,0,0-1.22-.821A6.109,6.109,0,0,1,.084,55.247a20.83,20.83,0,0,1-.051-2.768c.017-.587.318-1.055.973-1.046a.98.98,0,0,1,1.035,1.1c.008.782-.008,1.564.01,2.346a4.151,4.151,0,0,0,4.066,4.1,2.547,2.547,0,0,1,2.517,1.567c.822,1.612,1.713,3.189,2.6,4.768.562,1,1.345,1.317,2.187.929a1.666,1.666,0,0,0,.79-2.236c-.313-.942-.65-1.876-.956-2.821a1.929,1.929,0,0,0-.632-.93A3.331,3.331,0,0,1,11.9,55.6a.816.816,0,0,0,.007-1.089,3.219,3.219,0,0,1-.014-3.881.79.79,0,0,0,.024-1.089,3.29,3.29,0,0,1-.048-3.891c.143-.231.54-.414.225-.808a3.622,3.622,0,0,1-.565-3.662m7.2,17.83c1.31,0,2.621.017,3.931-.006a1.472,1.472,0,1,0,.01-2.934q-3.878-.038-7.756,0a1.391,1.391,0,0,0-1.575,1.468c0,.916.54,1.448,1.565,1.466,1.275.023,2.55.006,3.825.006m.1-7.889q-1.973,0-3.946,0a1.335,1.335,0,0,0-1.537,1.38,1.388,1.388,0,0,0,1.517,1.538q3.945.052,7.891,0a1.411,1.411,0,0,0,1.5-1.566,1.381,1.381,0,0,0-1.584-1.352c-1.279.01-2.559,0-3.839,0m-.068-2.087c1.279,0,2.559.012,3.838,0,1.047-.013,1.629-.515,1.662-1.387a1.412,1.412,0,0,0-1.545-1.516q-3.944-.049-7.889,0a1.347,1.347,0,0,0-1.476,1.556c.068.967.656,1.351,1.572,1.348,1.279,0,2.559,0,3.838,0m-1.077-4.956c.991,0,1.982.014,2.972,0a1.465,1.465,0,1,0,.083-2.929q-2.971-.061-5.944,0a1.33,1.33,0,0,0-1.446,1.475,1.345,1.345,0,0,0,1.468,1.453c.954.031,1.911.007,2.866.008" transform="translate(0 0.001)" fill="#12263f"/>
        <path id="Trazado_615903" data-name="Trazado 615903" d="M211.63,74.267a29.967,29.967,0,0,1-23.99,29.486c-1.039.215-2.1.318-3.149.493-.776.13-1.433-.05-1.49-.907-.051-.782.555-1.033,1.281-1.1a27.917,27.917,0,0,0,25.093-24.427,27.478,27.478,0,0,0-4.856-19.466c-.365-.53-.818-1.054-.229-1.7.471-.519,1.186-.407,1.7.3a29.71,29.71,0,0,1,5.1,11.822,41.72,41.72,0,0,1,.546,5.5" transform="translate(-143.969 -44.306)" fill="#12263f"/>
        <path id="Trazado_615904" data-name="Trazado 615904" d="M84.606,82.052a7.466,7.466,0,0,1,14.931.123,7.466,7.466,0,1,1-14.931-.123m10.953-.7c-.1.484-.175.975-.3,1.452a3.479,3.479,0,0,1-3,2.645,3.3,3.3,0,0,1-3.2-2.2,5.748,5.748,0,0,1-.369-1.544c-.031-.213-.02-.377-.361-.339a1.635,1.635,0,0,0-1.519,2.218,5.5,5.5,0,0,0,4.6,3.9,5.413,5.413,0,0,0,5.63-3.158c.847-1.873.559-2.458-1.479-2.977M87.221,79.6a13.863,13.863,0,0,1,9.726-.012,5.463,5.463,0,0,0-5-2.964A5.373,5.373,0,0,0,87.221,79.6M92.1,80.69c-.556.137-1.45-.285-1.4.878.042,1.011.665,1.868,1.386,1.861s1.31-.876,1.352-1.882c.045-1.094-.761-.752-1.336-.858" transform="translate(-66.561 -58.733)" fill="#12263f"/>
        <path id="Trazado_615905" data-name="Trazado 615905" d="M213.627,82.143a7.464,7.464,0,1,1-14.929-.06,7.464,7.464,0,0,1,14.929.06m-10.97-.8c-1.979.544-2.234.973-1.6,2.682a5.47,5.47,0,0,0,10.518-1.152.762.762,0,0,0-.441-.947,3.148,3.148,0,0,0-1.522-.548c-.312,2.528-1.533,4-3.342,4.075-1.853.076-3.012-1.241-3.617-4.11m8.391-1.71a5.458,5.458,0,0,0-9.732-.049,13.677,13.677,0,0,1,9.732.049M206.27,80.7c-1.323-.017-1.426.047-1.427.852,0,1.048.568,1.862,1.31,1.873s1.3-.806,1.362-1.844c.061-1.055-.7-.819-1.245-.881" transform="translate(-156.32 -58.732)" fill="#12263f"/>
        <path id="Trazado_615906" data-name="Trazado 615906" d="M134.908,163.414a15.827,15.827,0,0,1,10.788,4.029,5.593,5.593,0,0,1,.53.523.988.988,0,0,1-1.372,1.42,18.926,18.926,0,0,0-2.512-1.958,13.467,13.467,0,0,0-16,1.425c-.132.118-.263.238-.391.361-.489.471-1.037.708-1.571.133-.508-.548-.327-1.1.177-1.581a15.237,15.237,0,0,1,7.919-4.066,11.036,11.036,0,0,1,2.431-.285" transform="translate(-97.616 -128.553)" fill="#12263f"/>
      </g>
    </g>
  </g>
</svg>
