<svg xmlns="http://www.w3.org/2000/svg" xmlns:xlink="http://www.w3.org/1999/xlink" width="70" height="70" viewBox="0 0 70 70">
  <defs>
    <clipPath id="clip-path">
      <rect id="Rectángulo_378920" data-name="Rectángulo 378920" width="36.897" height="49.185" fill="#670303"/>
    </clipPath>
  </defs>
  <g id="Grupo_1073221" data-name="Grupo 1073221" transform="translate(-269 -958)">
    <circle id="Elipse_5614" data-name="Elipse 5614" cx="35" cy="35" r="35" transform="translate(269 958)" fill="#fff"/>
    <g id="Grupo_1073404" data-name="Grupo 1073404" transform="translate(285.552 968.407)">
      <g id="Grupo_1073403" data-name="Grupo 1073403" clip-path="url(#clip-path)">
        <path id="Trazado_615489" data-name="Trazado 615489" d="M36.893,27.626c0,4.892.013,9.784,0,14.675-.012,3.269-1.392,5.476-3.98,6.464a7,7,0,0,1-2.538.419q-11.962-.013-23.925-.007A6.137,6.137,0,0,1,.009,42.731Q-.014,27.809,0,12.887c0-4.021,2.4-6.668,6.456-6.671a4.881,4.881,0,0,0,4.771-2.451c3.7-5.519,12.013-4.818,15.262,1.1a2.126,2.126,0,0,0,2.282,1.308c2.111-.11,4.2,0,5.931,1.493a6.558,6.558,0,0,1,2.182,5.283c.012,4.892,0,9.784,0,14.675m-13.759-3.12c-1.927,0-3.854-.016-5.781.005-1.373.015-2.019.553-2.024,1.608-.005,1.077.6,1.668,1.969,1.682q5.78.058,11.561,0c1.358-.013,1.985-.622,1.967-1.686-.018-1.043-.687-1.593-2.035-1.606-1.886-.019-3.772,0-5.658,0m-.056,12.542v-.007c2.05,0,4.1.029,6.149-.013a1.611,1.611,0,0,0,.174-3.211,7.163,7.163,0,0,0-1.1-.075q-5.227-.008-10.455,0a7.688,7.688,0,0,0-.98.054,1.527,1.527,0,0,0-1.531,1.713c.045,1.083.755,1.511,1.717,1.528,2.008.035,4.018.011,6.026.011M18.392,6.062a2.946,2.946,0,0,0-3.09,3.1,3.063,3.063,0,0,0,3.144,3.214,3.127,3.127,0,0,0,3.185-3.2,3.05,3.05,0,0,0-3.239-3.106M9.241,23.814a2.28,2.28,0,0,0-2.42,2.233,2.406,2.406,0,0,0,2.322,2.512,2.435,2.435,0,0,0,2.428-2.418,2.267,2.267,0,0,0-2.331-2.327m-.1,13.933a2.3,2.3,0,0,0,2.432-2.356A2.445,2.445,0,0,0,9.244,33a2.409,2.409,0,0,0-2.426,2.413A2.285,2.285,0,0,0,9.14,37.748" transform="translate(0 0)" fill="#670303"/>
      </g>
    </g>
  </g>
</svg>
