<svg xmlns="http://www.w3.org/2000/svg" xmlns:xlink="http://www.w3.org/1999/xlink" width="70" height="70" viewBox="0 0 70 70">
  <defs>
    <clipPath id="clip-path">
      <rect id="Rectángulo_378923" data-name="Rectángulo 378923" width="51" height="39.556" fill="#670303"/>
    </clipPath>
  </defs>
  <g id="Grupo_1073238" data-name="Grupo 1073238" transform="translate(-269 -958)">
    <circle id="Elipse_5614" data-name="Elipse 5614" cx="35" cy="35" r="35" transform="translate(269 958)" fill="#fff"/>
    <g id="Grupo_1073410" data-name="Grupo 1073410" transform="translate(278.5 973.222)">
      <g id="Grupo_1073409" data-name="Grupo 1073409" clip-path="url(#clip-path)">
        <path id="Trazado_615495" data-name="Trazado 615495" d="M25.668,74.5c8.058,0,16.117.016,24.175-.022.958,0,1.2.275,1.192,1.207-.043,5.183-.011,10.366-.024,15.549a5.5,5.5,0,0,1-5.883,5.883q-19.578,0-39.157,0a5.546,5.546,0,0,1-5.9-5.894C.054,86.046.09,80.862.045,75.68c-.008-.958.29-1.2,1.22-1.195,8.134.034,16.268.02,24.4.02M26.954,88.77c1.774,0,3.549.014,5.324,0,1.177-.012,1.792-.517,1.813-1.421s-.557-1.514-1.722-1.528q-5.379-.064-10.76,0c-.921.01-1.742.324-1.746,1.49,0,.964.6,1.448,1.881,1.461,1.737.018,3.474,0,5.21,0M12.8,85.9H9.972A1.256,1.256,0,0,0,8.54,87.158,1.287,1.287,0,0,0,9.8,88.715c1.991.074,3.989.067,5.981.008a1.414,1.414,0,0,0-.162-2.822c-.941.016-1.882,0-2.823,0" transform="translate(-0.035 -57.568)" fill="#670303"/>
        <path id="Trazado_615496" data-name="Trazado 615496" d="M25.517,8.417c-8.059,0-16.119-.02-24.178.024C.288,8.446-.088,8.155.018,7.112A19.358,19.358,0,0,1,.172,4.4,5.514,5.514,0,0,1,5.648.014q19.865-.025,39.729,0a5.487,5.487,0,0,1,5.6,5.611c.057,2.79.057,2.79-2.76,2.79h-22.7" transform="translate(-0.001 0)" fill="#670303"/>
      </g>
    </g>
  </g>
</svg>
