<svg xmlns="http://www.w3.org/2000/svg" xmlns:xlink="http://www.w3.org/1999/xlink" width="125" height="125" viewBox="0 0 125 125">
  <defs>
    <clipPath id="clip-path">
      <rect id="Rectángulo_379150" data-name="Rectángulo 379150" width="69.496" height="68.814" fill="#12263f"/>
    </clipPath>
  </defs>
  <g id="Grupo_1073819" data-name="Grupo 1073819" transform="translate(-384.496 -802.5)">
    <g id="Grupo_1072861" data-name="Grupo 1072861" transform="translate(-1.172 -5192.5)">
      <rect id="Rectángulo_377974" data-name="Rectángulo 377974" width="125" height="125" transform="translate(385.668 5995)" fill="none"/>
      <path id="Trazado_610930" data-name="Trazado 610930" d="M-10.279,8.447,92.441.268l13.473,113.306L-7.668,125Z" transform="translate(398.947 5995)" fill="#fff"/>
      <path id="Trazado_610931" data-name="Trazado 610931" d="M-22852-5608.555l-26.621,26.192-.854-1.708-2.277.712-1.709-.712-4.7-1.565,31.316-31.174v1.993h1.85v2.42Z" transform="translate(23362.668 11700)" fill="#ffa346"/>
      <path id="Trazado_610932" data-name="Trazado 610932" d="M-22852-5608.555l-26.621,26.192-.854-1.708-2.277.712-1.709-.712-4.7-1.565,31.316-31.174v1.993h1.85v2.42Z" transform="translate(23273.826 11611.811)" fill="#ffa346"/>
    </g>
    <path id="Intersección_1" data-name="Intersección 1" d="M23221.221,11791.125l1.383,11.624-12.1,11.9-14.367,1.445Z" transform="translate(-22719.785 -10897.232)" fill="#ffe3c7"/>
    <rect id="Rectángulo_377979" data-name="Rectángulo 377979" width="73" height="73" transform="translate(410.496 826.5)" fill="#fff"/>
    <g id="Grupo_1073773" data-name="Grupo 1073773" transform="translate(410.496 829.686)">
      <g id="Grupo_1073772" data-name="Grupo 1073772" clip-path="url(#clip-path)">
        <path id="Trazado_615896" data-name="Trazado 615896" d="M40.54,58.7c-3.018.516-5.791.988-8.563,1.465-3.1.533-6.188,1.091-9.288,1.6-1.442.235-2.116-.217-2.382-1.669-.721-3.943-1.38-7.9-2.062-11.847q-1.391-8.059-2.777-16.118c-.823-4.8-1.661-9.607-2.431-14.421-.155-.971-.454-1.129-1.354-.8-2.884,1.043-5.791,2.026-8.7,3-.7.232-.825.548-.577,1.229Q5.719,30.227,8.986,39.35c.122.34.216.692.363,1.02a.949.949,0,0,1-.5,1.426c-.688.27-1.181-.06-1.429-.757Q6.73,39.1,6.03,37.167q-2.882-8-5.764-15.992C-.323,19.542.029,18.788,1.709,18.2c3.238-1.126,6.471-2.272,9.734-3.321.934-.3,1.064-.75.834-1.574a15.831,15.831,0,0,1-.329-1.81c-.24-1.529.274-2.235,1.8-2.5,3.346-.571,6.688-1.167,10.041-1.694.8-.126,1.11-.415,1.066-1.245-.066-1.263-.029-2.533-.013-3.8C24.863.63,25.436.032,27.076.024,31.02,0,34.965.016,38.91.016c6.55,0,13.1.015,19.651-.016a3.417,3.417,0,0,1,2.609,1.036c2.424,2.384,4.891,4.727,7.373,7.051a2.738,2.738,0,0,1,.953,2.177q-.036,21.551-.018,43.1c0,1.806-.534,2.345-2.31,2.35-1.737,0-3.48.1-5.21-.016C56.77,55.362,52,56.885,47.221,58.654c-9.137,3.384-18.329,6.62-27.5,9.909-1.593.571-2.323.2-2.9-1.414q-3.741-10.39-7.482-20.78c-.074-.2-.145-.41-.2-.618-.171-.615-.144-1.2.55-1.443.739-.262,1.142.16,1.382.826q2.694,7.488,5.4,14.972c.7,1.935,1.411,3.864,2.078,5.81.184.537.362.786.985.559q10.328-3.75,20.667-7.469c.06-.021.1-.089.35-.311m4.286-2.825c0-.051,0-.1,0-.154q-8.737,0-17.474,0c-2.02,0-2.514-.482-2.515-2.487q-.007-9.284,0-18.567a4.83,4.83,0,0,1,.055-.972.942.942,0,0,1,.99-.824.959.959,0,0,1,.992.829,4.392,4.392,0,0,1,.038.973c0,5.972.018,11.944-.017,17.916,0,.851.138,1.18,1.1,1.177q19.218-.051,38.437-.007c.785,0,1.055-.168,1.054-1.01q-.039-20.521,0-41.043c0-.768-.235-.986-.984-.968-1.917.046-3.836.031-5.754.009s-2.783-.893-2.8-2.786c-.015-1.592-.064-3.187.007-4.777C58,2.26,57.688,2.043,56.8,2.046q-14.386.046-28.773,0c-.91,0-1.136.245-1.132,1.143.035,8.324.023,16.649.016,24.973,0,.8.236,1.785-.98,1.953-.778.107-1.093-.495-1.094-1.959q0-8.958,0-17.916c0-.559.086-1.108-.818-.943-3.019.553-6.04,1.1-9.074,1.564-.921.14-.961.531-.829,1.284Q15.981,22.76,17.8,33.385c1.45,8.435,2.914,16.867,4.314,25.311.153.922.529,1.016,1.278.886q10.717-1.865,21.438-3.711M59.935,2.719c0,1.96,0,3.641,0,5.322,0,.339.132.574.488.576,1.81.009,3.621,0,5.69,0l-6.176-5.9" transform="translate(0 -0.001)" fill="#12263f"/>
        <path id="Trazado_615897" data-name="Trazado 615897" d="M162.129,136.7q-6.833,0-13.667,0a5.066,5.066,0,0,1-1.077-.065.944.944,0,0,1-.783-.92.961.961,0,0,1,.755-1.053,4.1,4.1,0,0,1,1.073-.078q13.721-.005,27.442,0a5.962,5.962,0,0,1,.758.014,1.047,1.047,0,0,1,1.054,1.033,1.018,1.018,0,0,1-1.022,1.055,6.657,6.657,0,0,1-.866.019H162.129" transform="translate(-114.763 -105.35)" fill="#12263f"/>
        <path id="Trazado_615898" data-name="Trazado 615898" d="M162.063,170.059H148.4a6.156,6.156,0,0,1-.866-.018.968.968,0,0,1-.911-1.028.92.92,0,0,1,.835-.976,6.575,6.575,0,0,1,1.08-.056q13.609,0,27.218,0c.806,0,1.9-.191,1.919,1,.021,1.285-1.1,1.069-1.948,1.07q-6.831.01-13.663,0" transform="translate(-114.781 -131.494)" fill="#12263f"/>
        <path id="Trazado_615899" data-name="Trazado 615899" d="M162.221,70.251H148.453c-.289,0-.579.012-.867-.011a.952.952,0,0,1-.958-.98.919.919,0,0,1,.9-1.022,8.565,8.565,0,0,1,.974-.026q13.66,0,27.319,0c.806,0,1.892-.2,1.863,1.036-.029,1.2-1.1,1-1.911,1q-6.776.007-13.551,0" transform="translate(-114.785 -53.392)" fill="#12263f"/>
        <path id="Trazado_615900" data-name="Trazado 615900" d="M162.061,203.424q-6.993,0-13.986,0c-.6,0-1.205,0-1.408-.713a.94.94,0,0,1,.777-1.293,3.85,3.85,0,0,1,.864-.031q13.823,0,27.647,0a4.242,4.242,0,0,1,.971.045.937.937,0,0,1,.768,1.033.917.917,0,0,1-.782.911,5.6,5.6,0,0,1-.972.045q-6.939,0-13.878,0" transform="translate(-114.77 -157.647)" fill="#12263f"/>
        <path id="Trazado_615901" data-name="Trazado 615901" d="M162.23,101.443q6.884,0,13.769,0a3.718,3.718,0,0,1,.969.057.944.944,0,0,1,.739.955.931.931,0,0,1-.822.988,6.177,6.177,0,0,1-.973.04q-13.769,0-27.538,0a5.528,5.528,0,0,1-.972-.046.9.9,0,0,1-.78-.908.946.946,0,0,1,.759-1.042,3.984,3.984,0,0,1,.971-.045q6.938,0,13.877,0" transform="translate(-114.779 -79.408)" fill="#12263f"/>
      </g>
    </g>
  </g>
</svg>
