<svg xmlns="http://www.w3.org/2000/svg" xmlns:xlink="http://www.w3.org/1999/xlink" width="70" height="70" viewBox="0 0 70 70">
  <defs>
    <clipPath id="clip-path">
      <rect id="Rectángulo_378925" data-name="Rectángulo 378925" width="43.12" height="37.605" fill="#670303"/>
    </clipPath>
  </defs>
  <g id="Grupo_1073240" data-name="Grupo 1073240" transform="translate(-269 -958)">
    <circle id="Elipse_5614" data-name="Elipse 5614" cx="35" cy="35" r="35" transform="translate(269 958)" fill="#fff"/>
    <g id="Grupo_1073414" data-name="Grupo 1073414" transform="translate(282.44 974.197)">
      <g id="Grupo_1073413" data-name="Grupo 1073413" clip-path="url(#clip-path)">
        <path id="Trazado_615498" data-name="Trazado 615498" d="M23.409,37.6q-8.321,0-16.642,0a6.5,6.5,0,0,1-6.746-6.65c-.036-9.4-.018-18.8,0-28.2A2.5,2.5,0,0,1,2.672,0,2.475,2.475,0,0,1,5.255,2.79q.009,13.616,0,27.232c0,2.034.369,2.411,2.372,2.411q16.372,0,32.743,0a2.446,2.446,0,0,1,2.554,1.579,2.648,2.648,0,0,1-.743,3.04,2.73,2.73,0,0,1-1.918.549q-8.429-.015-16.858-.006" transform="translate(0 0)" fill="#670303"/>
        <path id="Trazado_615499" data-name="Trazado 615499" d="M56.5,40.96A2.854,2.854,0,0,1,54.151,39.8c-1.188-1.2-2.411-2.376-3.534-3.638-.663-.745-1.065-.637-1.7.03-2.115,2.21-4.286,4.365-6.447,6.529a2.749,2.749,0,0,1-3.949.308,2.79,2.79,0,0,1,.18-4.044q4.52-4.564,9.083-9.085a2.777,2.777,0,0,1,4.132.086q2.042,2,4.005,4.084c.484.515.741.533,1.262-.005,2.6-2.69,5.259-5.325,7.9-7.982a3.09,3.09,0,0,1,1.721-1.04,2.593,2.593,0,0,1,2.8,1.166,2.749,2.749,0,0,1-.388,3.3Q63.894,34.885,58.524,40.2a2.349,2.349,0,0,1-2.02.756" transform="translate(-29.577 -19.595)" fill="#670303"/>
      </g>
    </g>
  </g>
</svg>
