<svg xmlns="http://www.w3.org/2000/svg" xmlns:xlink="http://www.w3.org/1999/xlink" width="70" height="70" viewBox="0 0 70 70">
  <defs>
    <clipPath id="clip-path">
      <rect id="Rectángulo_378924" data-name="Rectángulo 378924" width="41.142" height="41.07" fill="#670303"/>
    </clipPath>
  </defs>
  <g id="Grupo_1073239" data-name="Grupo 1073239" transform="translate(-269 -958)">
    <circle id="Elipse_5614" data-name="Elipse 5614" cx="35" cy="35" r="35" transform="translate(269 958)" fill="#fff"/>
    <g id="Grupo_1073412" data-name="Grupo 1073412" transform="translate(283.429 972.465)">
      <g id="Grupo_1073411" data-name="Grupo 1073411" clip-path="url(#clip-path)">
        <path id="Trazado_615497" data-name="Trazado 615497" d="M33.355,17.455a15.593,15.593,0,0,1-2.717,8.366c-.423.621-.335.935.188,1.444q4.727,4.6,9.372,9.291a2.616,2.616,0,0,1,.652,3.193,2.52,2.52,0,0,1-2.6,1.3,3.093,3.093,0,0,1-1.775-.973c-3-3.026-6.022-6.03-8.976-9.1-.644-.67-1.046-.758-1.852-.251A16.67,16.67,0,1,1,13.383.325C23.652-1.7,33.351,5.965,33.355,17.455M19.469,12.939a1.468,1.468,0,0,0,1.546-.808A1.7,1.7,0,0,0,19.645,9.6c-.868-.16-1.32-.4-1.325-1.391a1.475,1.475,0,0,0-1.57-1.554,1.475,1.475,0,0,0-1.662,1.461c-.014.975-.474,1.312-1.265,1.68-2.254,1.05-3.1,2.921-2.434,5.008a4.14,4.14,0,0,0,2.719,2.618c1.279.491,2.6.877,3.887,1.343.409.148.9.343.867.891-.032.609-.507.88-1.037.989a5.43,5.43,0,0,1-2.938-.254,6.983,6.983,0,0,0-1.772-.522,1.57,1.57,0,0,0-1.891,1.191,1.608,1.608,0,0,0,1.068,1.976,7.323,7.323,0,0,0,1.443.544c.826.186,1.4.4,1.331,1.495a1.586,1.586,0,0,0,1.652,1.622,1.605,1.605,0,0,0,1.619-1.658,1.323,1.323,0,0,1,1.033-1.386,4.011,4.011,0,0,0,2.834-3.8,3.983,3.983,0,0,0-2.512-4.009,16.1,16.1,0,0,0-2.6-.972c-.628-.173-1.248-.38-1.858-.6-.321-.118-.649-.291-.655-.709-.007-.476.372-.63.725-.76a3.992,3.992,0,0,1,1.929-.2c.747.1,1.491.226,2.236.34" transform="translate(0 0)" fill="#670303"/>
      </g>
    </g>
  </g>
</svg>
