<svg xmlns="http://www.w3.org/2000/svg" xmlns:xlink="http://www.w3.org/1999/xlink" width="125" height="125" viewBox="0 0 125 125">
  <defs>
    <clipPath id="clip-path">
      <rect id="Rectángulo_379153" data-name="Rectángulo 379153" width="73.144" height="75" fill="#12263f"/>
    </clipPath>
  </defs>
  <g id="Grupo_1073820" data-name="Grupo 1073820" transform="translate(-14005.496 10117.5)">
    <g id="Grupo_1073485" data-name="Grupo 1073485" transform="translate(13619.828 -16112.5)">
      <rect id="Rectángulo_377974" data-name="Rectángulo 377974" width="125" height="125" transform="translate(385.668 5995)" fill="none"/>
      <path id="Trazado_610930" data-name="Trazado 610930" d="M-10.279,8.447,92.441.268l13.473,113.306L-7.668,125Z" transform="translate(398.947 5995)" fill="#fff"/>
      <path id="Trazado_610931" data-name="Trazado 610931" d="M-22852-5608.555l-26.621,26.192-.854-1.708-2.277.712-1.709-.712-4.7-1.565,31.316-31.174v1.993h1.85v2.42Z" transform="translate(23362.668 11700)" fill="#ffa346"/>
      <path id="Trazado_610932" data-name="Trazado 610932" d="M-22852-5608.555l-26.621,26.192-.854-1.708-2.277.712-1.709-.712-4.7-1.565,31.316-31.174v1.993h1.85v2.42Z" transform="translate(23273.826 11611.811)" fill="#ffa346"/>
    </g>
    <path id="Intersección_9" data-name="Intersección 9" d="M23221.221,11791.125l1.383,11.624-12.1,11.9-14.367,1.445Z" transform="translate(-9098.785 -21817.232)" fill="#ffe3c7"/>
    <rect id="Rectángulo_379026" data-name="Rectángulo 379026" width="73" height="73" transform="translate(14031.496 -10090.5)" fill="#fff"/>
    <g id="Grupo_1073779" data-name="Grupo 1073779" transform="translate(14029 -10091.5)">
      <g id="Grupo_1073778" data-name="Grupo 1073778" clip-path="url(#clip-path)">
        <path id="Trazado_615910" data-name="Trazado 615910" d="M44.354,0q6.854,0,13.708,0c1.532,0,1.745.225,1.754,1.772C59.829,4,59.829,3.992,62.083,4.1c2.183.108,4.365.235,6.548.353a4.246,4.246,0,0,1,4.025,3.732,82.738,82.738,0,0,1-.006,18c-.237,2.156-1.973,3.587-4.4,3.759-3.7.263-7.41.415-11.119.318a3.063,3.063,0,0,0-2.948,1.387,17.5,17.5,0,0,1-3.493,3.443c-.311.252-.7.513-.481.945.233.46.62.04.888-.031,3.184-.839,5.807,1.571,5.579,5.157a7.533,7.533,0,0,1-6.3,7.119,1.22,1.22,0,0,0-1.031.931c-2.421,6.542-7.087,10.256-14.03,11.082-.412.049-.907-.025-.87.65.041.741.612.492.962.475a10.524,10.524,0,0,1,8.756,3.355c1.688,1.842,2.276,4.129,2.727,6.482.139.727.312,1.449.432,2.179.156.948-.213,1.538-1.229,1.55q-2.4.028-4.8,0c-.728-.009-1.212-.379-1.177-1.148.032-.7.492-1.013,1.183-1.009.937,0,1.874,0,2.812,0,.421,0,.81-.012.691-.62-.4-2.026-.7-4.068-2.1-5.746-2.1-2.528-4.9-2.963-7.943-2.8-.489.027-.528.374-.65.689a6.042,6.042,0,0,1-11.538.024c-.13-.33-.19-.62-.64-.714a8.2,8.2,0,0,0-9.169,4.907,32.837,32.837,0,0,0-.9,3.625c-.127.5.093.637.531.629.273-.005.547,0,.82,0H35.82c.351,0,.7,0,1.054.015a.966.966,0,0,1,.975.974,1.015,1.015,0,0,1-.826,1.121,3.607,3.607,0,0,1-.93.055q-12.477,0-24.955,0c-1.628,0-2-.392-1.7-1.948A40.313,40.313,0,0,1,10.5,68.379a9.815,9.815,0,0,1,9.525-6.941,7.447,7.447,0,0,0,1.169-.015c.385-.065,1.029.328,1.071-.477.044-.859-.662-.606-1.092-.652a16.147,16.147,0,0,1-5.27-1.446,15.885,15.885,0,0,1-8.48-9.363A1.6,1.6,0,0,0,6,48.237,7.536,7.536,0,0,1,.256,39.009a4.145,4.145,0,0,1,5.268-2.983c.679.186,1.057.234,1.017-.7-.071-1.637-.041-3.28-.009-4.92a1.106,1.106,0,0,0-.693-1.179,4.544,4.544,0,0,1-2.627-4.35c0-3.163-.034-6.327.007-9.49a8.2,8.2,0,0,1,8.1-8.422c2.338-.1,4.686-.046,7.026.022a1.139,1.139,0,0,0,1.325-.759,10.513,10.513,0,0,1,5.176-5.2c.689-.334,1.413-.48,1.8.364.365.8-.114,1.272-.841,1.642a8.552,8.552,0,0,0-4.993,8.2c.006,1.992-.027,3.984.01,5.975a8.652,8.652,0,0,0,8.62,8.546c3.28.038,6.561-.021,9.841.027.893.013.972-.284.9-1.085a80.627,80.627,0,0,1,.138-16.6,4.257,4.257,0,0,1,3.853-3.646c4.129-.32,8.263-.459,12.4-.442.61,0,1.114.073,1.106-.867-.007-.9-.382-.993-1.123-.991Q43.728,2.187,30.9,2.17c-.351,0-.7.007-1.054-.018a.965.965,0,0,1-.96-.984.991.991,0,0,1,.831-1.11A4.64,4.64,0,0,1,30.764,0q6.795,0,13.59,0M8.69,38.267c.164,2.421-.254,5.39.242,8.343A13.906,13.906,0,0,0,22.136,58.1q6.2.109,12.413,0A13.9,13.9,0,0,0,47.834,45.9c.318-2.806.081-5.616.184-8.421.023-.62-.277-.771-.8-.906a2.356,2.356,0,0,1-1.943-2.436c-.036-1.014-.043-2.031,0-3.044.032-.781-.262-1.142-1.056-1.2a3.759,3.759,0,0,1-2.762-1.348,1.679,1.679,0,0,0-1.508-.621c-3.435.026-6.871-.02-10.305.026A10.481,10.481,0,0,1,22.628,25.5c-.6-.493-.851-.373-1.285.144a11.493,11.493,0,0,1-4.74,3.323,16.117,16.117,0,0,1-6.691.771c-.947-.044-1.285.184-1.248,1.2.081,2.261.025,4.527.025,7.327m47.8-32.115c-3.832.141-7.7.267-11.557.432-1.672.071-2.322.778-2.5,2.479a78.187,78.187,0,0,0-.008,16.13c.182,1.76.553,2.194,2.306,2.519a2.893,2.893,0,0,1,2.708,3.218c.02.9,0,1.8.008,2.695,0,.273-.038.586.221.752.3.194.5-.1.7-.256a21.762,21.762,0,0,0,4.53-4.38,3.671,3.671,0,0,1,3.283-1.63c4.022.038,8.042-.072,12.051-.418,1.545-.133,2.114-.707,2.271-2.285a82.962,82.962,0,0,0,0-16.485,2.245,2.245,0,0,0-2.512-2.34c-3.823-.161-7.647-.288-11.506-.43M5.427,19.914c0,1.677-.023,3.354.007,5.03A2.383,2.383,0,0,0,7.884,27.5c1.792.041,3.592.075,5.378-.041a9.335,9.335,0,0,0,6.64-3.481,1.088,1.088,0,0,0,.14-1.533,8.134,8.134,0,0,1-1.252-3.368,49.162,49.162,0,0,1-.147-8.871c.032-.831-.057-1.086-.912-1.065-2.1.051-4.211-.006-6.316.024a6.036,6.036,0,0,0-5.979,5.955c-.037,1.6-.006,3.2-.009,4.8M28.285,60.38c-.9,0-1.8.057-2.686-.016-.931-.076-1.285.265-1.159,1.183.073.537.031,1.092.13,1.623A3.728,3.728,0,0,0,29,66.316c2.359-.337,4.11-3.5,3.126-5.636-.18-.389-.511-.289-.8-.293-1.012-.015-2.025-.006-3.038-.007M6.523,46.063c0-.713.01-1.334,0-1.954-.03-1.6-.423-1.978-2.019-1.852-.677.053-1.176-.145-1.318-.833-.157-.755.292-1.172.967-1.349a3.318,3.318,0,0,1,1.618-.039c.83.2.733-.3.537-.766a1.949,1.949,0,0,0-2.067-1.2A1.876,1.876,0,0,0,2.4,39.573a5.256,5.256,0,0,0,4.128,6.49m43.635-.02A5.275,5.275,0,0,0,54.3,39.619,1.926,1.926,0,0,0,52.71,38.1a2.057,2.057,0,0,0-2.089.731c-.263.326-.6.761-.379,1.152.176.316.633-.006.967.007.27.01.544-.019.811.009.785.081,1.549.294,1.465,1.277s-.8,1.038-1.64.932c-1.078-.136-1.668.448-1.684,1.53-.011.735,0,1.471,0,2.3" transform="translate(0 0)" fill="#12263f"/>
        <path id="Trazado_615911" data-name="Trazado 615911" d="M146.305,134.737c-.9.141-1.72.294-2.552.393a1.145,1.145,0,0,1-1.433-1.026c-.067-.791.5-1.149,1.276-1.184a6.676,6.676,0,0,0,4.876-2.4c.473-.538,1.043-.774,1.628-.287.625.521.488,1.153.025,1.753-1.124,1.458-1.1,1.454-.536,3.066a4.576,4.576,0,0,1-.272,3.942c-.773,1.346-2.024,1.336-2.791-.021a5.556,5.556,0,0,1-.221-4.231" transform="translate(-108.967 -99.51)" fill="#12263f"/>
        <path id="Trazado_615912" data-name="Trazado 615912" d="M68.548,134.67a5.228,5.228,0,0,1-.1,4.174,1.661,1.661,0,0,1-1.513,1.113,1.7,1.7,0,0,1-1.42-1.076A4.4,4.4,0,0,1,66,133.966c.34-.387.388-.547-.025-.881a9.036,9.036,0,0,1-1.315-1.318,1.016,1.016,0,0,1,.131-1.549.97.97,0,0,1,1.462.1,7.179,7.179,0,0,0,5.28,2.609.988.988,0,0,1,1.016,1.169,1.064,1.064,0,0,1-1.193,1.02,17.037,17.037,0,0,1-2.806-.448" transform="translate(-49.279 -99.487)" fill="#12263f"/>
        <path id="Trazado_615913" data-name="Trazado 615913" d="M104.441,188.373a5.358,5.358,0,0,1,4.839,2.844c.369.667.5,1.369-.3,1.825-.766.441-1.2-.048-1.585-.669-1.532-2.435-4.112-2.413-5.7.042-.369.57-.795,1.035-1.51.665-.795-.411-.747-1.083-.4-1.8a5.426,5.426,0,0,1,4.656-2.909" transform="translate(-76.222 -144.232)" fill="#12263f"/>
        <path id="Trazado_615914" data-name="Trazado 615914" d="M110.662,174.091c-.663,0-1.325-.005-1.988,0a1.022,1.022,0,0,1-1.136-1.069.981.981,0,0,1,1.03-1.05c1.4-.017,2.806-.022,4.208,0a1.054,1.054,0,0,1-.01,2.106c-.7.023-1.4.005-2.1.005v0" transform="translate(-82.339 -131.665)" fill="#12263f"/>
        <path id="Trazado_615915" data-name="Trazado 615915" d="M218.2,38.151c1.482,0,2.964-.014,4.447,0a3.75,3.75,0,0,1,4.083,3.615c.1.772.237,1.54.37,2.308.46,2.645-.719,4.291-3.375,4.7-1.327.205-1.328.205-.829,1.518.1.255.207.5.3.76.609,1.674.122,3.154-1.253,3.808a2.838,2.838,0,0,1-3.762-1.368c-.878-1.472-1.783-2.932-2.574-4.451a1.76,1.76,0,0,0-1.91-1.1c-1.571.094-1.764-.15-1.768-1.708,0-2.3.018-4.6-.009-6.907-.012-1.046.448-1.485,1.484-1.465,1.6.031,3.2.008,4.8.008Zm.5,2.048c0-.021,0-.042,0-.063-1.247,0-2.5.037-3.74-.015-.676-.028-.886.2-.866.859.041,1.324.028,2.65.006,3.975-.009.533.143.837.727.74,1.069-.18,1.637.4,2.114,1.265.922,1.669,1.892,3.311,2.876,4.944.256.424.4,1.238,1.1.936.749-.32.192-.938.029-1.406-.295-.844-.638-1.67-.953-2.507-.51-1.357-.138-1.951,1.317-2.108.813-.088,1.632-.131,2.438-.262a1.327,1.327,0,0,0,1.214-1.663c-.15-1.039-.385-2.067-.509-3.109a1.423,1.423,0,0,0-1.552-1.393c-1.4-.061-2.8-.128-4.2-.193" transform="translate(-162.262 -28.994)" fill="#12263f"/>
      </g>
    </g>
  </g>
</svg>
