<svg xmlns="http://www.w3.org/2000/svg" xmlns:xlink="http://www.w3.org/1999/xlink" width="70" height="70" viewBox="0 0 70 70">
  <defs>
    <clipPath id="clip-path">
      <rect id="Rectángulo_378921" data-name="Rectángulo 378921" width="46.86" height="41.65" fill="#670303"/>
    </clipPath>
  </defs>
  <g id="Grupo_1073222" data-name="Grupo 1073222" transform="translate(-269 -958)">
    <circle id="Elipse_5614" data-name="Elipse 5614" cx="35" cy="35" r="35" transform="translate(269 958)" fill="#fff"/>
    <g id="Grupo_1073406" data-name="Grupo 1073406" transform="translate(280.57 967)">
      <g id="Grupo_1073405" data-name="Grupo 1073405" clip-path="url(#clip-path)">
        <path id="Trazado_615490" data-name="Trazado 615490" d="M15.933,140.369q-6.531,0-13.062,0c-1.977,0-2.858-.886-2.863-2.867,0-1.6-.015-3.2,0-4.807.019-1.642.979-2.721,2.606-2.557A6.385,6.385,0,0,0,7.958,128.2a10.939,10.939,0,0,1,5.478-3.08,11.866,11.866,0,0,1,2.061-.287c4.319-.027,8.638-.038,12.957,0a2.424,2.424,0,0,1,2.714,2.3,2.486,2.486,0,0,1-2.725,2.819c-1.985.025-3.971,0-5.956.009-1.148,0-1.735.466-1.736,1.333s.613,1.4,1.707,1.4c2.961.012,5.922-.006,8.882.013a2.261,2.261,0,0,0,1.418-.553q4.4-3.271,8.815-6.521a3.193,3.193,0,0,1,5.272,2.819,3.043,3.043,0,0,1-1.371,2.24c-3.465,2.574-6.924,5.157-10.421,7.687a10.46,10.46,0,0,1-6.268,1.983H15.933" transform="translate(0 -98.72)" fill="#670303"/>
        <path id="Trazado_615491" data-name="Trazado 615491" d="M92.974,6.828c-.647-.125-1.29-.269-1.941-.367a3.89,3.89,0,0,0-1.143-.039c-.629.1-1.519.039-1.593.849-.06.657.8.632,1.276.823a29.157,29.157,0,0,1,4.095,1.521,4.141,4.141,0,0,1,2.282,3.931,4.288,4.288,0,0,1-2.906,4.08c-.667.248-.993.5-1.023,1.284a1.842,1.842,0,1,1-3.682-.076,1.124,1.124,0,0,0-1-1.208,11.93,11.93,0,0,1-1.78-.594,1.828,1.828,0,0,1-1.086-2.3,1.73,1.73,0,0,1,2.193-1.25c.909.22,1.795.536,2.7.788a3.538,3.538,0,0,0,1.759.034c.436-.1.961-.219,1.036-.745.081-.569-.455-.743-.858-.9-.778-.3-1.587-.509-2.374-.782-.689-.239-1.375-.493-2.045-.779a3.822,3.822,0,0,1-2.465-3.782,4.015,4.015,0,0,1,2.462-3.922c.9-.377,1.493-.759,1.515-1.881.019-.964.83-1.411,1.728-1.5a1.653,1.653,0,0,1,1.828,1.508c.045,1.163.645,1.445,1.6,1.706a1.782,1.782,0,0,1,1.052,2.869,1.671,1.671,0,0,1-1.631.737" transform="translate(-66.741 0)" fill="#670303"/>
      </g>
    </g>
  </g>
</svg>
