<svg xmlns="http://www.w3.org/2000/svg" xmlns:xlink="http://www.w3.org/1999/xlink" width="70" height="70" viewBox="0 0 70 70">
  <defs>
    <clipPath id="clip-path">
      <rect id="Rectángulo_378646" data-name="Rectángulo 378646" width="44.282" height="38.84" fill="#670303"/>
    </clipPath>
  </defs>
  <g id="Grupo_1073089" data-name="Grupo 1073089" transform="translate(-269 -958)">
    <circle id="Elipse_5614" data-name="Elipse 5614" cx="35" cy="35" r="35" transform="translate(269 958)" fill="#fff"/>
    <g id="Grupo_1073112" data-name="Grupo 1073112" transform="translate(281.859 973.58)">
      <g id="Grupo_1073111" data-name="Grupo 1073111" clip-path="url(#clip-path)">
        <path id="Trazado_615184" data-name="Trazado 615184" d="M15.034,136.885q-6.073,0-12.146,0c-2.13,0-2.883-.766-2.884-2.928,0-1.415-.009-2.831,0-4.246.013-1.625.9-2.64,2.485-2.5a5.978,5.978,0,0,0,4.967-1.774,10.4,10.4,0,0,1,5.256-2.965,12.6,12.6,0,0,1,2.146-.269q5.925-.039,11.85-.006c1.778.009,2.752.891,2.753,2.4a2.322,2.322,0,0,1-2.508,2.444c-1.909.032-3.818,0-5.727.011-1.07,0-1.633.46-1.621,1.28s.593,1.3,1.634,1.3c2.765.011,5.53,0,8.295.012a2.142,2.142,0,0,0,1.358-.472q4.193-3.126,8.407-6.224a3.016,3.016,0,0,1,4.964,2.7,2.9,2.9,0,0,1-1.31,2.109c-3.248,2.413-6.492,4.832-9.766,7.209a10,10,0,0,1-6.009,1.917q-6.073,0-12.146,0" transform="translate(0 -98.046)" fill="#670303"/>
        <path id="Trazado_615185" data-name="Trazado 615185" d="M77.658,5.851a5.557,5.557,0,0,1-1.665,4.1q-3.665,3.8-7.38,7.552c-1.543,1.56-2.68,1.514-4.194-.038-2.435-2.5-4.916-4.947-7.339-7.455a5.622,5.622,0,0,1-1.419-6.177A5.464,5.464,0,0,1,60.523.059a5.662,5.662,0,0,1,4.65,1.735c.285.274.576.542.838.837.338.381.618.376.97,0a12.823,12.823,0,0,1,1.3-1.21,5.432,5.432,0,0,1,6.172-.8,5.433,5.433,0,0,1,3.207,5.232" transform="translate(-44.353 0)" fill="#670303"/>
      </g>
    </g>
  </g>
</svg>
