<svg xmlns="http://www.w3.org/2000/svg" xmlns:xlink="http://www.w3.org/1999/xlink" width="125" height="125" viewBox="0 0 125 125">
  <defs>
    <clipPath id="clip-path">
      <rect id="Rectángulo_379156" data-name="Rectángulo 379156" width="73.313" height="67.522" fill="#12263f"/>
    </clipPath>
  </defs>
  <g id="Grupo_1073487" data-name="Grupo 1073487" transform="translate(-1104.668 -5996)">
    <g id="Grupo_1072869" data-name="Grupo 1072869" transform="translate(719 1)">
      <rect id="Rectángulo_377974" data-name="Rectángulo 377974" width="125" height="125" transform="translate(385.668 5995)" fill="none"/>
      <path id="Trazado_610930" data-name="Trazado 610930" d="M-10.279,8.447,92.441.268l13.473,113.306L-7.668,125Z" transform="translate(398.947 5995)" fill="#fff"/>
      <path id="Trazado_610931" data-name="Trazado 610931" d="M-22852-5608.555l-26.621,26.192-.854-1.708-2.277.712-1.709-.712-4.7-1.565,31.316-31.174v1.993h1.85v2.42Z" transform="translate(23362.668 11700)" fill="#ffa346"/>
      <path id="Trazado_610932" data-name="Trazado 610932" d="M-22852-5608.555l-26.621,26.192-.854-1.708-2.277.712-1.709-.712-4.7-1.565,31.316-31.174v1.993h1.85v2.42Z" transform="translate(23273.826 11611.811)" fill="#ffa346"/>
    </g>
    <path id="Intersección_6" data-name="Intersección 6" d="M23221.221,11791.125l1.383,11.624-12.1,11.9-14.367,1.445Z" transform="translate(-21999.613 -5703.732)" fill="#ffe3c7"/>
    <path id="Intersección_5" data-name="Intersección 5" d="M23116.354,11732.74l-2.279.711-1.707-.711-.773-.258-.115-5.1,20.711-20.613,9.867-.786,1.77,2.278-26.621,26.19Z" transform="translate(-22003 -5704)" fill="#ffe3c7"/>
    <rect id="Rectángulo_377981" data-name="Rectángulo 377981" width="73" height="73" transform="translate(1130.668 6023)" fill="#fff"/>
    <g id="Grupo_1073785" data-name="Grupo 1073785" transform="translate(1127.446 6023)">
      <g id="Grupo_1073784" data-name="Grupo 1073784" clip-path="url(#clip-path)">
        <path id="Trazado_615929" data-name="Trazado 615929" d="M21.6,95.389a18.724,18.724,0,0,0,13-5.668c.533-.527.538-.867.139-1.507-4.9-7.845-4.907-15.719.026-23.553a.985.985,0,0,0-.194-1.5,18.929,18.929,0,0,0-16.2-5.459c-.794.093-1.538.131-1.679-.836s.569-1.166,1.372-1.271a20.726,20.726,0,0,1,17.963,6.013c.532.517.782.43,1.259-.04A20.4,20.4,0,0,1,53.113,55.4a20.643,20.643,0,0,1,16.228,8.763c.447.6.747,1.259.02,1.8-.77.57-1.307.083-1.8-.563-4.484-5.89-10.443-8.5-17.785-7.7a18.2,18.2,0,0,0-11.222,5.633c-.436.445-.405.731-.087,1.236q7.486,11.861.009,23.748c-.42.664-.212.96.216,1.407,9.552,9.972,26.834,6.166,31.353-6.915a18.589,18.589,0,0,0,.11-12.336c-.024-.072-.045-.145-.069-.217-.237-.71-.305-1.414.55-1.72s1.25.286,1.495,1a20.333,20.333,0,0,1,1.109,8.442A20.811,20.811,0,0,1,58.218,96.617c-7.577,2.246-14.382.519-20.31-4.677-1.283-1.125-1.231-1.121-2.566.04-6.168,5.362-13.224,7.021-20.973,4.4C6.861,93.85,2.158,88.5.473,80.728A20.954,20.954,0,0,1,11.455,57.682a6.123,6.123,0,0,1,1.151-.49.976.976,0,0,1,1.254.526,1,1,0,0,1-.432,1.377c-.261.156-.542.278-.815.415a18.94,18.94,0,0,0,4.122,35.37,20.3,20.3,0,0,0,4.867.508M36.756,75.311a19.818,19.818,0,0,1-2.392-.019c-1.013-.124-1.108.4-1.108,1.193,0,.765.124,1.185,1.057,1.132,1.477-.084,2.965-.068,4.444-.005.872.038,1.3-.11,1.294-1.135-.009-.958-.307-1.284-1.246-1.181a18.877,18.877,0,0,1-2.05.015m-.137-2.12a19.3,19.3,0,0,0,1.934-.017c.388-.039,1.194.354,1.013-.546-.134-.669.152-1.746-1.13-1.73-1.176.015-2.353-.01-3.53.008-.807.012-1.269.7-1.219,1.777.041.873.718.444,1.112.491a15.585,15.585,0,0,0,1.819.019M36.6,79.714c-.645,0-1.293-.033-1.935.013-.35.025-1.014-.251-.948.4.068.673-.151,1.733.867,1.841a20.754,20.754,0,0,0,4.092.005c1.052-.1.8-1.154.9-1.821.1-.7-.584-.393-.924-.419-.679-.052-1.365-.015-2.048-.015m1.742-11.1c-.484-.875-.877-1.6-1.283-2.314-.232-.411-.494-.576-.8-.049a10.6,10.6,0,0,0-1.2,2.363Zm-.2,15.7h-3.14c.494,1.009.85,2.516,1.6,2.533.858.02,1.127-1.488,1.591-2.371.012-.024-.019-.07-.047-.162" transform="translate(0 -42.689)" fill="#12263f"/>
        <path id="Trazado_615930" data-name="Trazado 615930" d="M191.814,124.969c-.079-1.128.693-1.962,1.523-2.782,1.793-1.771,1.785-1.778-.014-3.579-1.581-1.582-1.945-3.124-1.081-4.577a3.259,3.259,0,0,1,5.027-.8,20.18,20.18,0,0,1,1.947,1.934c.449.507.758.45,1.181-.013.591-.647,1.215-1.268,1.863-1.857a3.286,3.286,0,0,1,4.715,4.571,23.2,23.2,0,0,1-1.932,1.95c-.488.443-.451.762.015,1.188a25.736,25.736,0,0,1,1.855,1.866,3.287,3.287,0,0,1-4.668,4.626c-.675-.618-1.32-1.27-1.945-1.938-.378-.4-.648-.375-1.016.02a25.851,25.851,0,0,1-2.034,2.01,3.111,3.111,0,0,1-3.622.478,3.143,3.143,0,0,1-1.814-3.1m13.824-9.161a1.194,1.194,0,0,0-.678-1.147,1.1,1.1,0,0,0-1.348.309c-.957.929-1.909,1.866-2.832,2.829a1.187,1.187,0,0,1-1.959.018c-.909-.924-1.832-1.836-2.749-2.753-.557-.557-1.171-.771-1.8-.151-.643.639-.348,1.25.185,1.791.8.814,1.622,1.613,2.43,2.423,1.111,1.113,1.116,1.441.035,2.526-.807.81-1.623,1.612-2.431,2.422-.573.574-.886,1.21-.17,1.869.654.6,1.254.3,1.795-.241q1.208-1.219,2.426-2.429c1.115-1.106,1.383-1.1,2.524.029.811.806,1.614,1.621,2.423,2.429.547.547,1.165.813,1.791.178.611-.619.4-1.239-.163-1.8q-1.258-1.251-2.507-2.509c-1.011-1.023-1.016-1.365-.032-2.364.83-.842,1.671-1.674,2.506-2.51.3-.3.585-.611.549-.923" transform="translate(-147.854 -86.643)" fill="#12263f"/>
        <path id="Trazado_615931" data-name="Trazado 615931" d="M56.712,135.881a3.683,3.683,0,0,1-2.53-1.157c-1.416-1.387-2.832-2.776-4.2-4.208a3.292,3.292,0,1,1,4.645-4.663,14.805,14.805,0,0,1,1.6,1.626c.576.736.963.544,1.5-.041.982-1.063,2.021-2.076,3.061-3.083a3.3,3.3,0,1,1,4.739,4.6,18.694,18.694,0,0,1-1.381,1.366,1.049,1.049,0,0,1-1.544.014,1,1,0,0,1,.036-1.526c.414-.448.856-.869,1.279-1.309a1.14,1.14,0,0,0,.1-1.725,1.1,1.1,0,0,0-1.711.11c-1.4,1.4-2.8,2.805-4.211,4.2-.974.962-1.294.96-2.263.011q-1.266-1.24-2.511-2.5c-.575-.587-1.22-.908-1.874-.227-.585.61-.353,1.247.209,1.8,1.3,1.288,2.574,2.6,3.887,3.877a1.839,1.839,0,0,0,2.823.016,6.784,6.784,0,0,1,.768-.679.963.963,0,0,1,1.337.19.9.9,0,0,1,.106,1.25,4.589,4.589,0,0,1-3.875,2.062" transform="translate(-37.726 -95.019)" fill="#12263f"/>
        <path id="Trazado_615932" data-name="Trazado 615932" d="M103.076,9.609a3.1,3.1,0,0,1,2.073.741,23.414,23.414,0,0,1,2.1,2.105,3.274,3.274,0,0,1-4.608,4.6,16.505,16.505,0,0,1-2.1-2.1,3.065,3.065,0,0,1-.358-3.536,3.2,3.2,0,0,1,2.894-1.805m-.227,2.2a1.079,1.079,0,0,0-.736.581.9.9,0,0,0,.018,1.071,8.276,8.276,0,0,0,2.012,1.991,1.074,1.074,0,0,0,1.636-1.027,4.752,4.752,0,0,0-2.929-2.617" transform="translate(-76.927 -7.408)" fill="#12263f"/>
        <path id="Trazado_615933" data-name="Trazado 615933" d="M187.76,17.772a3.3,3.3,0,0,1-3.1-1.82,3,3,0,0,1,.308-3.438,16.323,16.323,0,0,1,2.172-2.19,3.179,3.179,0,0,1,4.02-.051,3.128,3.128,0,0,1,1.057,3.781,7.858,7.858,0,0,1-3.482,3.494,3.312,3.312,0,0,1-.976.225m2.559-4.909a1.116,1.116,0,0,0-.549-.9,1.053,1.053,0,0,0-1.28.056c-.623.553-1.2,1.156-1.775,1.763a1.112,1.112,0,0,0,.88,1.8c.7.017,2.718-1.98,2.724-2.719" transform="translate(-142.054 -7.386)" fill="#12263f"/>
        <path id="Trazado_615934" data-name="Trazado 615934" d="M103.273,257.636a3.3,3.3,0,0,1-3.091-1.814,3.066,3.066,0,0,1,.359-3.537,17.078,17.078,0,0,1,2.1-2.1,3.2,3.2,0,0,1,4.021-.062A3.129,3.129,0,0,1,107.693,254a8.031,8.031,0,0,1-3.429,3.4,3.465,3.465,0,0,1-.99.234m-.184-2.218c.738.012,2.686-1.909,2.693-2.655a1.076,1.076,0,0,0-1.68-.953,7.1,7.1,0,0,0-1.984,2.016,1.064,1.064,0,0,0,.971,1.592" transform="translate(-76.927 -192.304)" fill="#12263f"/>
        <path id="Trazado_615935" data-name="Trazado 615935" d="M189.213,257.615a2.866,2.866,0,0,1-1.909-.653,21.135,21.135,0,0,1-2.325-2.356,3.177,3.177,0,0,1,.331-4.177,3.212,3.212,0,0,1,4.272-.339,15.593,15.593,0,0,1,2.265,2.255,3.085,3.085,0,0,1,.328,3.447,3.3,3.3,0,0,1-2.963,1.823m1.172-3.272c.026-.739-2.062-2.777-2.8-2.729a1.1,1.1,0,0,0-.882,1.672,9.927,9.927,0,0,0,2.011,1.99,1.129,1.129,0,0,0,1.668-.932" transform="translate(-142.118 -192.293)" fill="#12263f"/>
        <path id="Trazado_615936" data-name="Trazado 615936" d="M152.216,4.662a6.355,6.355,0,0,1-.126,1.894,3.357,3.357,0,0,1-3.705,2.209A3.247,3.247,0,0,1,145.7,5.654c-.029-.838-.03-1.678,0-2.516a3.257,3.257,0,0,1,6.51,0c.018.419,0,.839,0,1.523m-4.4-.327c0,.342,0,.684,0,1.026,0,.776.412,1.27,1.165,1.255s1.129-.537,1.118-1.3c-.005-.342.013-.684,0-1.026-.036-.876.252-1.962-1.111-2.1-.88-.089-1.173.494-1.171,2.15" transform="translate(-112.311 0)" fill="#12263f"/>
        <path id="Trazado_615937" data-name="Trazado 615937" d="M152.276,260.812a11.332,11.332,0,0,1-.2,2.152,3.233,3.233,0,0,1-3.576,2.21,3.191,3.191,0,0,1-2.8-3.109c-.029-.8-.026-1.6,0-2.4a3.259,3.259,0,0,1,6.519,0c.012.381,0,.762,0,1.144l.054,0m-4.441.028h-.013c0,.342-.019.685,0,1.026.048.7.4,1.16,1.136,1.158a1.064,1.064,0,0,0,1.129-1.163,22.29,22.29,0,0,0-.017-2.278,1.031,1.031,0,0,0-1.06-1,1.058,1.058,0,0,0-1.17,1,10.821,10.821,0,0,0-.009,1.252" transform="translate(-112.314 -197.679)" fill="#12263f"/>
      </g>
    </g>
  </g>
</svg>
