<svg xmlns="http://www.w3.org/2000/svg" xmlns:xlink="http://www.w3.org/1999/xlink" width="70" height="70" viewBox="0 0 70 70">
  <defs>
    <clipPath id="clip-path">
      <rect id="Rectángulo_378645" data-name="Rectángulo 378645" width="43.127" height="43.08" fill="#670303"/>
    </clipPath>
  </defs>
  <g id="Grupo_1073088" data-name="Grupo 1073088" transform="translate(-269 -958)">
    <circle id="Elipse_5614" data-name="Elipse 5614" cx="35" cy="35" r="35" transform="translate(269 958)" fill="#fff"/>
    <g id="Grupo_1073110" data-name="Grupo 1073110" transform="translate(282.437 971.46)">
      <g id="Grupo_1073109" data-name="Grupo 1073109" clip-path="url(#clip-path)">
        <path id="Trazado_615183" data-name="Trazado 615183" d="M11.3,10.777a61.079,61.079,0,0,0,9.21-.325C25.753,9.6,29.935,6.866,33.49,3.039,34.172,2.306,34.888,1.6,35.6.9A2.739,2.739,0,0,1,38.658.2a2.69,2.69,0,0,1,1.77,2.588c.061,1.357.026,2.718.027,4.078,0,2.361.013,4.723-.006,7.084a1.94,1.94,0,0,0,.725,1.667,6.328,6.328,0,0,1,.046,9.1,2.081,2.081,0,0,0-.774,1.753c.024,3.506,0,7.013.015,10.519.006,1.43-.371,2.646-1.8,3.237-1.452.6-2.545-.1-3.537-1.095-2.293-2.3-4.418-4.8-7.306-6.427a21.083,21.083,0,0,0-10.4-2.972c-.887,0-1.194.264-1.181,1.158.041,2.862.016,5.725.015,8.587,0,2.784-.806,3.6-3.545,3.6q-2.039,0-4.079,0c-2.293,0-3.34-1-3.365-3.328-.033-3.005-.038-6.012.023-9.016.016-.777-.207-1.047-.948-1.2A5.3,5.3,0,0,1,.02,24.247C0,21.563-.01,18.879.021,16.2A5.383,5.383,0,0,1,5.5,10.778c1.932-.013,3.864,0,5.8,0M34.873,20.2h-.047q0-4.778-.005-9.556c0-.271.131-.633-.16-.791-.314-.171-.5.177-.715.343A26.891,26.891,0,0,1,17.209,16.24c-.674,0-.976.216-.966.927q.041,3.006,0,6.013c-.008.69.271.938.952.966a29.75,29.75,0,0,1,3.63.3,27.982,27.982,0,0,1,13.033,5.709c.233.185.456.573.809.383.327-.177.2-.582.2-.889q.013-4.724.005-9.449" transform="translate(0 0)" fill="#670303"/>
      </g>
    </g>
  </g>
</svg>
