<svg xmlns="http://www.w3.org/2000/svg" xmlns:xlink="http://www.w3.org/1999/xlink" width="125" height="125" viewBox="0 0 125 125">
  <defs>
    <clipPath id="clip-path">
      <rect id="Rectángulo_379154" data-name="Rectángulo 379154" width="70.183" height="78.188" fill="#12263f"/>
    </clipPath>
  </defs>
  <g id="Grupo_1073483" data-name="Grupo 1073483" transform="translate(-743.668 -5996)">
    <g id="Grupo_1072868" data-name="Grupo 1072868" transform="translate(358 1)">
      <rect id="Rectángulo_377974" data-name="Rectángulo 377974" width="125" height="125" transform="translate(385.668 5995)" fill="none"/>
      <path id="Trazado_610930" data-name="Trazado 610930" d="M-10.279,8.447,92.441.268l13.473,113.306L-7.668,125Z" transform="translate(398.947 5995)" fill="#fff"/>
      <path id="Trazado_610931" data-name="Trazado 610931" d="M-22852-5608.555l-26.621,26.192-.854-1.708-2.277.712-1.709-.712-4.7-1.565,31.316-31.174v1.993h1.85v2.42Z" transform="translate(23362.668 11700)" fill="#ffa346"/>
      <path id="Trazado_610932" data-name="Trazado 610932" d="M-22852-5608.555l-26.621,26.192-.854-1.708-2.277.712-1.709-.712-4.7-1.565,31.316-31.174v1.993h1.85v2.42Z" transform="translate(23273.826 11611.811)" fill="#ffa346"/>
    </g>
    <path id="Intersección_4" data-name="Intersección 4" d="M23221.221,11791.125l1.383,11.624-12.1,11.9-14.367,1.445Z" transform="translate(-22360.613 -5703.732)" fill="#ffe3c7"/>
    <path id="Intersección_3" data-name="Intersección 3" d="M23116.354,11732.74l-2.279.711-1.707-.711-.773-.258-.115-5.1,20.711-20.613,9.867-.786,1.77,2.278-26.621,26.19Z" transform="translate(-22364 -5704)" fill="#ffe3c7"/>
    <rect id="Rectángulo_377980" data-name="Rectángulo 377980" width="73" height="73" transform="translate(769.668 6023)" fill="#fff"/>
    <g id="Grupo_1073781" data-name="Grupo 1073781" transform="translate(769.668 6019.406)">
      <g id="Grupo_1073780" data-name="Grupo 1073780" clip-path="url(#clip-path)">
        <path id="Trazado_615916" data-name="Trazado 615916" d="M34.922,115.459a65.179,65.179,0,0,1-14.649-1.629c-3.492-.757-5.079-3.337-4.4-7.029a38.087,38.087,0,0,1,2.5-8.716c.323-.724.42-1.038-.61-1.224A45.973,45.973,0,0,1,5.8,93.065C.357,90.427-.783,85.813.452,80.689c1.293-5.37,4.407-9.74,7.7-14.012a28.656,28.656,0,0,1,5.381-5.623,11.377,11.377,0,0,1,5.524-2.43,2.032,2.032,0,0,0,1.466-.933,18.2,18.2,0,0,1,29.118-.027,2.021,2.021,0,0,0,1.448.959,11.023,11.023,0,0,1,6.43,3.157,46.786,46.786,0,0,1,11.825,17.36,13.592,13.592,0,0,1,.593,7.3,8.309,8.309,0,0,1-4.184,5.815,38.271,38.271,0,0,1-12.158,4.376c-2.128.432-2.129.389-1.387,2.374a32.637,32.637,0,0,1,2.165,8.8c.267,3.321-1.325,5.353-4.563,6.05a67.056,67.056,0,0,1-14.885,1.6m-.34-2.609A62.249,62.249,0,0,0,48.7,111.384c2.916-.654,3.5-1.661,2.932-4.618A38.986,38.986,0,0,0,48.377,96.8c-.6-1.214-.125-2.011,1.246-2.186a48.993,48.993,0,0,0,5.872-1.086,31.052,31.052,0,0,0,9.012-3.586,5.978,5.978,0,0,0,2.957-4.9,12.149,12.149,0,0,0-.74-5.49A45.861,45.861,0,0,0,55.9,63.821a9.74,9.74,0,0,0-5.775-2.741,4.411,4.411,0,0,0-4.293,2.12c-.643,1.263-.324,2.521,1.04,3.98.444.474.919.922,1.4,1.354q4.811,4.285,9.636,8.554a11.014,11.014,0,0,1,2.272,2.659,4.13,4.13,0,0,1,.524,3.48c-.648,2.038-2.422,3.145-5,3.1a52.458,52.458,0,0,1-11.077-1.36,2.725,2.725,0,0,0-1.873.147,17.978,17.978,0,0,1-15.349.008,2.288,2.288,0,0,0-1.486-.231c-1.866.378-3.738.742-5.621,1.013a29.755,29.755,0,0,1-6.875.357C9.9,85.943,8.35,83.006,9.96,79.869a8.275,8.275,0,0,1,1.909-2.449c1.5-1.319,3.009-2.623,4.494-3.955,2.325-2.085,4.678-4.143,6.933-6.3,1.438-1.378,1.693-2.71,1.045-3.967a4.4,4.4,0,0,0-4.3-2.113,10.209,10.209,0,0,0-4.981,2.068,22.039,22.039,0,0,0-3.832,3.878c-3.067,3.882-6.249,7.746-7.76,12.535C1.446,85.991,2.78,89.04,8.531,91.475a45.925,45.925,0,0,0,11.634,3.094c1.951.273,2.265.874,1.405,2.7A32.714,32.714,0,0,0,18.4,108.189a2.553,2.553,0,0,0,2.306,3.057,63.56,63.56,0,0,0,13.873,1.6m-.188-28.7c7.12-.008,12.727-3.742,15.1-9.543a1.376,1.376,0,0,0-.4-1.874,36.946,36.946,0,0,1-4.566-4.249c-2.718-3.257-1.922-7.323,1.85-9.249.737-.376.75-.576.239-1.165-5.857-6.747-17.283-6.737-23.09.026-.423.493-.56.718.166,1.1,4,2.116,4.714,6.1,1.748,9.506a33.053,33.053,0,0,1-4.2,3.874,1.611,1.611,0,0,0-.453,2.307,15.108,15.108,0,0,0,13.6,9.265M23.513,82.707a19.527,19.527,0,0,1-5.133-6.826c-.127-.288-.326-.421-.588-.172-1.843,1.752-4.045,3.15-5.5,5.282C11.4,82.3,12,83.515,13.64,83.628a36,36,0,0,0,9.873-.922m23.153-.012a40.925,40.925,0,0,0,9.528.991,1.946,1.946,0,0,0,1.956-1.03,1.988,1.988,0,0,0-.57-2.138,63.49,63.49,0,0,0-5.025-4.679c-.4-.378-.606-.308-.833.2a19.237,19.237,0,0,1-5.056,6.659" transform="translate(0 -37.276)" fill="#12263f"/>
        <path id="Trazado_615917" data-name="Trazado 615917" d="M199.376,23.144c2.32,1.546,2.981,3.167,2.331,5.707a3.764,3.764,0,0,1-3.172,3.168c-2.075.214-3.778-1.182-5.215-4.329a4.781,4.781,0,0,0-.987,2.756c-.081.9-.432,1.547-1.419,1.467-1.077-.087-1.313-.9-1.194-1.794.381-2.87,1.64-5.185,4.379-6.442a4.284,4.284,0,0,0,1.429-1.053,7.336,7.336,0,0,1,5.283-2.4c.938-.043,1.831.145,1.875,1.29.041,1.085-.771,1.321-1.687,1.32a3.093,3.093,0,0,0-1.626.315m-.038,4.308c.014-1.229-.67-1.8-1.93-1.862-1.143-.058-1.255.695-1.281,1.5-.033,1.066,1.157,2.444,2.039,2.293,1.127-.193.946-1.265,1.171-1.931" transform="translate(-140.296 -14.95)" fill="#12263f"/>
        <path id="Trazado_615918" data-name="Trazado 615918" d="M99.4,7.592a3,3,0,0,0,4.373,1.021c.251-.166.467-.387.72-.55a1.2,1.2,0,0,1,1.652.176A1.244,1.244,0,0,1,106.157,10c-1.212,1.573-4.052,2.228-6.216,1.427a5.005,5.005,0,0,1-3.413-5,3.117,3.117,0,0,0-.6-2.272,6.055,6.055,0,0,1-1.062-2.488A1.294,1.294,0,0,1,95.813.054a1.214,1.214,0,0,1,1.524.872,3.052,3.052,0,0,1,.246.6c.166.886.469.872,1.171.366a5.394,5.394,0,0,1,5.776-.44c2.407,1.142,2.643,3.411.543,5.022a5.939,5.939,0,0,1-4.632,1.233c-.293-.043-.59-.065-1.044-.115m1.96-2.469a3.5,3.5,0,0,0,2.188-.787c.105-.173.133-.341-.052-.428a3.026,3.026,0,0,0-2.244-.321c-.6.179-1.4.376-1.32,1,.067.547.943.416,1.428.533" transform="translate(-70.142 0)" fill="#12263f"/>
        <path id="Trazado_615919" data-name="Trazado 615919" d="M37.824,15.7c-.326-.542-.913-.625-1.419-.833-.776-.319-1.457-.73-1.135-1.721.342-1.052,1.2-1.025,2.035-.755A7.2,7.2,0,0,1,41.6,16.3a6.863,6.863,0,0,0,1.263,1.767A7.573,7.573,0,0,1,44.69,25.65a1.321,1.321,0,1,1-2.542-.667,4.311,4.311,0,0,0-.046-3.028c-2.154,2.407-4.357,3.264-6.239,2.474A4.052,4.052,0,0,1,33.8,20.275c.163-2.39,1.44-3.85,4.019-4.577M36.414,20.6c-.043,1.021.253,1.449,1.015,1.466a2.479,2.479,0,0,0,2.4-2.261c.069-1.145-.779-1.233-1.528-1.318-1.124-.127-1.829.713-1.889,2.113" transform="translate(-24.992 -9.046)" fill="#12263f"/>
      </g>
    </g>
  </g>
</svg>
