<svg xmlns="http://www.w3.org/2000/svg" xmlns:xlink="http://www.w3.org/1999/xlink" width="70" height="70" viewBox="0 0 70 70">
  <defs>
    <clipPath id="clip-path">
      <rect id="Rectángulo_378922" data-name="Rectángulo 378922" width="54.768" height="39.742" fill="#670303"/>
    </clipPath>
  </defs>
  <g id="Grupo_1073224" data-name="Grupo 1073224" transform="translate(-269 -958)">
    <circle id="Elipse_5614" data-name="Elipse 5614" cx="35" cy="35" r="35" transform="translate(269 958)" fill="#fff"/>
    <g id="Grupo_1073408" data-name="Grupo 1073408" transform="translate(276.616 973.129)">
      <g id="Grupo_1073407" data-name="Grupo 1073407" clip-path="url(#clip-path)">
        <path id="Trazado_615492" data-name="Trazado 615492" d="M65.063,53.666c0,2.183.007,4.366,0,6.549a4.15,4.15,0,0,1-3.376,4.312q-8.9,2.213-17.8,4.432a6.835,6.835,0,0,1-3.4.025q-8.9-2.235-17.807-4.462a4.2,4.2,0,0,1-3.434-4.285c-.027-4.519.008-9.038-.022-13.557-.006-.93.258-1.1,1.148-.839,3.3.971,6.62,1.872,9.935,2.789a5.8,5.8,0,0,0,7.127-2.893c1.378-2.3,2.783-4.578,4.139-6.888.438-.745.691-.877,1.186-.023,1.342,2.317,2.755,4.593,4.143,6.884A5.881,5.881,0,0,0,54.24,48.6c3.2-.906,6.413-1.765,9.6-2.724.971-.292,1.277-.169,1.247.9-.065,2.3-.02,4.6-.02,6.893" transform="translate(-14.805 -29.445)" fill="#670303"/>
        <path id="Trazado_615493" data-name="Trazado 615493" d="M5.612.018C8.758.409,11.9.792,15.048,1.192c3.676.467,7.347.977,11.028,1.4,1.007.117,1.03.4.556,1.187-2.2,3.629-4.345,7.289-6.532,10.925a3.012,3.012,0,0,1-3.895,1.5Q9.366,14.3,2.533,12.357C.162,11.681-.6,9.973.48,7.787,1.579,5.558,2.7,3.342,3.8,1.111A1.648,1.648,0,0,1,5.612.018" transform="translate(0 0)" fill="#670303"/>
        <path id="Trazado_615494" data-name="Trazado 615494" d="M142.281.009a1.462,1.462,0,0,1,1.461.936c1.2,2.4,2.446,4.769,3.585,7.194a2.8,2.8,0,0,1-1.917,4.131Q138.3,14.323,131.175,16.3a2.876,2.876,0,0,1-3.466-1.347c-2.3-3.795-4.563-7.618-6.848-11.424-.3-.5-.386-.782.372-.877q10.3-1.285,20.6-2.615c.114-.015.229-.012.449-.024" transform="translate(-92.906 -0.002)" fill="#670303"/>
      </g>
    </g>
  </g>
</svg>
