<svg xmlns="http://www.w3.org/2000/svg" xmlns:xlink="http://www.w3.org/1999/xlink" width="70" height="70" viewBox="0 0 70 70">
  <defs>
    <clipPath id="clip-path">
      <rect id="Rectángulo_378644" data-name="Rectángulo 378644" width="41" height="40.933" fill="#670303"/>
    </clipPath>
  </defs>
  <g id="Grupo_1073087" data-name="Grupo 1073087" transform="translate(-269 -958)">
    <circle id="Elipse_5614" data-name="Elipse 5614" cx="35" cy="35" r="35" transform="translate(269 958)" fill="#fff"/>
    <g id="Grupo_1073108" data-name="Grupo 1073108" transform="translate(283.5 972.534)">
      <g id="Grupo_1073107" data-name="Grupo 1073107" clip-path="url(#clip-path)">
        <path id="Trazado_615182" data-name="Trazado 615182" d="M33.245,17.229A15.551,15.551,0,0,1,30.6,25.622a1.022,1.022,0,0,0,.161,1.607c3.153,3.046,6.25,6.149,9.343,9.256a2.583,2.583,0,0,1,.617,3.1,2.509,2.509,0,0,1-2.573,1.324A3.158,3.158,0,0,1,36.3,39.889c-3.011-3.043-6.046-6.063-9.016-9.145a1.042,1.042,0,0,0-1.607-.192A16.611,16.611,0,1,1,13.3.337c10.249-2.062,19.854,5.578,19.94,16.893M14.616,15.944c0,2.02-.011,4.041,0,6.061a2.079,2.079,0,0,0,1.224,2.175c1.536.623,2.8-.384,2.806-2.288.02-3.938.009-7.876,0-11.814a4.3,4.3,0,0,0-.121-1.015,1.831,1.831,0,0,0-1.949-1.473,1.976,1.976,0,0,0-1.955,2.189c-.036,2.054-.009,4.109-.011,6.164M25.09,18.6V15.1c0-.068,0-.137,0-.205a2.032,2.032,0,0,0-2.079-2.185,1.961,1.961,0,0,0-1.921,2.2q-.035,3.6,0,7.192a2,2,0,0,0,1.994,2.251,2.05,2.05,0,0,0,2-2.27c.027-1.164.005-2.329.006-3.493M12.177,19.886h.007c0-.856.025-1.713-.006-2.568a1.893,1.893,0,0,0-1.966-2.037,1.853,1.853,0,0,0-1.945,1.948q-.073,2.617,0,5.237a1.868,1.868,0,0,0,1.9,1.892,1.9,1.9,0,0,0,2-1.906c.043-.854.008-1.711.008-2.567" transform="translate(0 0)" fill="#670303"/>
      </g>
    </g>
  </g>
</svg>
