<svg xmlns="http://www.w3.org/2000/svg" xmlns:xlink="http://www.w3.org/1999/xlink" width="120" height="120" viewBox="0 0 120 120">
  <defs>
    <clipPath id="clip-path">
      <rect id="Rectángulo_378918" data-name="Rectángulo 378918" width="80.141" height="80.221" fill="#12263f"/>
    </clipPath>
  </defs>
  <g id="Grupo_1073196" data-name="Grupo 1073196" transform="translate(-292.865 -9557)">
    <g id="Grupo_1072889" data-name="Grupo 1072889" transform="translate(292.865 9557)">
      <g id="Grupo_1072868" data-name="Grupo 1072868">
        <rect id="Rectángulo_377974" data-name="Rectángulo 377974" width="119.714" height="119.714" fill="none"/>
        <path id="Trazado_610930" data-name="Trazado 610930" d="M-10.279,8.116,86.589.268,99.294,108.987-7.817,119.951Z" transform="translate(13.831 0.049)" fill="#ffed33"/>
        <path id="Trazado_610931" data-name="Trazado 610931" d="M-22845.346-5607.035l-31.521,31.011-1.01-2.023-2.7.843-2.023-.843-5.561-1.854,37.076-36.91v2.359h2.191v2.865Z" transform="translate(22965.346 5693.227)" fill="#ffa346"/>
        <path id="Trazado_610932" data-name="Trazado 610932" d="M-22845.346-5607.035l-31.521,31.011-1.01-2.023-2.7.843-2.023-.843-5.561-1.854,37.076-36.91v2.359h2.191v2.865Z" transform="translate(22888.156 5616.811)" fill="#ffa346"/>
      </g>
      <path id="Intersección_4" data-name="Intersección 4" d="M29.7,0l1.639,13.763L17.01,27.855,0,29.566Z" transform="translate(80.761 80.21)" fill="#fbdb0a"/>
      <path id="Intersección_3" data-name="Intersección 3" d="M5.772,31.685l-2.7.842-2.022-.842-.915-.305L0,25.336,24.523.931,36.2,0l2.1,2.7L6.782,33.708Z" transform="translate(4.512 7.08)" fill="#fbdb0a"/>
      <rect id="Rectángulo_377980" data-name="Rectángulo 377980" width="58.551" height="86.551" transform="translate(31.158 17.589)" fill="#ffed33"/>
      <g id="Grupo_1073400" data-name="Grupo 1073400" transform="translate(19.929 19.889)">
        <g id="Grupo_1073399" data-name="Grupo 1073399" clip-path="url(#clip-path)">
          <path id="Trazado_615469" data-name="Trazado 615469" d="M68.469,163.079c-2.08,1.015-4.132,2.028-6.2,3.013-.459.219-.5.481-.469.97a4.121,4.121,0,0,1-4.225,4.531c-.546.012-.843.041-1.063.693a3.969,3.969,0,0,1-4.134,2.792,1.054,1.054,0,0,0-1.244.828,3.994,3.994,0,0,1-4.163,2.754,1.016,1.016,0,0,0-1.17.754c-1.269,2.817-4.1,3.536-6.623,1.729l-.1-.074c-1.522-1.1-1.522-1.1-2.863.13a3.655,3.655,0,0,1-6.187-1.356,1.286,1.286,0,0,0-1.108-.975,3.145,3.145,0,0,1-2.608-2.25,1.5,1.5,0,0,0-1.344-1.141,3.216,3.216,0,0,1-2.46-2.272,1.37,1.37,0,0,0-1.158-1.068,3.537,3.537,0,0,1-2.6-4.816c.272-.716.144-1-.5-1.34q-2.814-1.5-5.558-3.133c-.659-.393-.967-.244-1.183.412-.065.2-.135.394-.213.587-.663,1.654-1.01,1.81-2.6,1.127-2.527-1.085-5.041-2.2-7.58-3.261a1.449,1.449,0,0,1-.936-2.162q4.248-11.019,8.448-22.057a1.418,1.418,0,0,1,2.131-.956c2.729,1.026,5.487,1.974,8.229,2.964,1.347.486,1.6.954,1.022,2.255-.436.977-.319,1.411.644,2.121,2.565,1.89,5.02,2.544,8.138,1.209,2.356-1.009,4.77-.213,6.8,1.39.531.42.94.539,1.491.03,2.5-2.309,5.408-2.674,8.629-1.921,2.6.606,5.24,1,7.854,1.53a2.112,2.112,0,0,0,1.441-.151c1.611-.785,3.229-1.556,4.861-2.3.594-.27.892-.555.49-1.214a4.594,4.594,0,0,1-.418-1.042,1.278,1.278,0,0,1,.833-1.8q4.475-1.588,8.953-3.17c1.132-.4,1.491.38,1.8,1.19q3.181,8.285,6.346,16.575c.655,1.711,1.318,3.419,1.974,5.13.546,1.424.386,1.828-.991,2.426q-3.67,1.593-7.349,3.166c-1.7.731-1.977.616-2.7-1.1-.1-.228-.205-.45-.339-.742M24.64,162.4a3.554,3.554,0,0,1,3.515,2.494,1.176,1.176,0,0,0,1.148.989,3.267,3.267,0,0,1,2.636,2.4,1.047,1.047,0,0,0,.964.9,3.4,3.4,0,0,1,2.828,2.521,1.069,1.069,0,0,0,1.009.871c2,.394,3.466,2.314,2.822,4.13-.564,1.593.3,2.1,1.288,2.71a1.731,1.731,0,0,0,2.455-.4,1.685,1.685,0,0,0-.129-2.466c-.2-.212-.429-.4-.64-.6a1.105,1.105,0,0,1-.13-1.747,1.093,1.093,0,0,1,1.666-.014c.665.57,1.292,1.191,1.989,1.718a1.836,1.836,0,1,0,2.008-3.053c-.725-.479-1.275-1.095-.635-1.954.656-.88,1.386-.421,2.065.071.642.466,1.273.948,1.941,1.374A1.8,1.8,0,0,0,54,172.04a1.781,1.781,0,0,0-.337-2.56c-.543-.516-1.156-.957-1.725-1.447a1.13,1.13,0,0,1-.188-1.753,1.078,1.078,0,0,1,1.663-.061q1.354,1.112,2.7,2.235a2.423,2.423,0,0,0,1.535.76,1.654,1.654,0,0,0,1.663-1.1,1.758,1.758,0,0,0-.734-2.189c-2.436-1.758-4.887-3.5-7.3-5.287a1.779,1.779,0,0,0-1.807-.318c-4.458,1.4-8.245-.207-10.018-3.429-.3-.543-.581-.438-.988-.175-1.051.681-2.124,1.327-3.175,2.008a7.982,7.982,0,0,1-3.534,1.49,4.93,4.93,0,0,1-4.865-2.618c-.754-1.846-.206-3.367,1.75-4.828,1.639-1.224,3.257-2.477,4.935-3.645.813-.566.627-.866-.094-1.257a5.02,5.02,0,0,0-3.968-.593c-1.4.416-2.8.8-4.19,1.248a1.959,1.959,0,0,1-1.775-.217c-1.344-.839-2.734-1.606-4.066-2.463-.671-.432-.961-.32-1.248.419q-2.552,6.583-5.185,13.136c-.252.629-.153.91.452,1.235q3.25,1.747,6.429,3.626a1.053,1.053,0,0,0,1.592-.232A4.045,4.045,0,0,1,24.64,162.4m18.64-15.821a4.587,4.587,0,0,0-3.087.617q-5.374,3.889-10.676,7.876a1.324,1.324,0,0,0,.2,2.3,2.993,2.993,0,0,0,3.413-.086q2.653-1.658,5.306-3.314c1.533-.953,1.871-.843,2.608.833a5.469,5.469,0,0,0,6.066,3.575,7.891,7.891,0,0,0,2.545-.584,1.988,1.988,0,0,1,2.186.339c2.627,1.921,5.283,3.8,7.912,5.719a1.124,1.124,0,0,0,1.344.22c1.93-.984,3.879-1.932,5.837-2.86.521-.247.652-.526.439-1.063q-2.771-6.966-5.509-13.945c-.239-.609-.522-.7-1.1-.4-1.144.6-2.393,1.019-3.477,1.706a6.981,6.981,0,0,1-5.727.625c-2.875-.678-5.809-1.1-8.273-1.557M8.962,162.511c.6-.046.578-.636.725-1,2.517-6.3,4.994-12.619,7.515-18.92.331-.828.27-1.208-.675-1.5-1.786-.546-1.765-.613-2.415,1.178-.057.156-.1.318-.155.475q-1.434,4.063-2.869,8.125c-.267.76-.723,1.269-1.58.959s-.933-.974-.625-1.744c.092-.231.157-.473.24-.709,1.037-2.944,2.048-5.9,3.131-8.826.288-.777-.011-1.009-.657-1.22-.6-.2-1.04-.355-1.347.461q-3.628,9.643-7.34,19.254c-.268.691-.033.855.515,1.075,1.2.481,2.373,1.016,3.557,1.53l1.98.862m62.412-12.034c.044.78-.253,1.257-.917,1.39a1.159,1.159,0,0,1-1.4-.924c-1.114-3.182-2.262-6.352-3.35-9.543-.235-.687-.507-.97-1.212-.619a3.553,3.553,0,0,1-.939.337c-.892.159-.993.581-.67,1.388q3.825,9.565,7.579,19.158c.276.7.526,1,1.34.595,1.565-.774,3.176-1.464,4.8-2.1.712-.28.822-.544.542-1.266q-3.676-9.489-7.259-19.014c-.265-.7-.581-.9-1.281-.585-.59.264-1.109.368-.749,1.282.853,2.167,1.579,4.384,2.354,6.582.4,1.137.8,2.277,1.164,3.324M26.009,173.344a1.808,1.808,0,0,0,.516-.2,18.24,18.24,0,0,0,3.076-3.065,1.1,1.1,0,0,0-.257-1.563,1.163,1.163,0,0,0-1.687-.082c-.951.864-1.861,1.778-2.735,2.72a1.166,1.166,0,0,0-.158,1.393,1.485,1.485,0,0,0,1.246.8m7.569-.564a1.259,1.259,0,0,0-.71-1.22,1.072,1.072,0,0,0-1.381.158c-.918.851-1.823,1.722-2.663,2.648a1.25,1.25,0,0,0,.038,1.812,1.17,1.17,0,0,0,1.785.06c.915-.853,1.778-1.763,2.659-2.652a1.078,1.078,0,0,0,.272-.808M32.249,178.7a1.15,1.15,0,0,0,.649,1.108,1.241,1.241,0,0,0,1.51-.187c.817-.774,1.609-1.574,2.4-2.374a1.262,1.262,0,0,0,.1-1.975,1.282,1.282,0,0,0-1.986.089c-.748.725-1.475,1.472-2.219,2.2a1.433,1.433,0,0,0-.457,1.139m-7.7-13.918a.9.9,0,0,0-.4.1,14.19,14.19,0,0,0-3.112,3.172,1.138,1.138,0,0,0,.374,1.551,1.187,1.187,0,0,0,1.605-.023c.944-.869,1.842-1.79,2.723-2.724a1.1,1.1,0,0,0,.118-1.385,1.332,1.332,0,0,0-1.31-.7" transform="translate(0 -102.159)" fill="#12263f"/>
          <path id="Trazado_615470" data-name="Trazado 615470" d="M123.214,18.374A18.394,18.394,0,1,1,104.693,0a18.441,18.441,0,0,1,18.521,18.375m-18.4,16.066a16.057,16.057,0,1,0-16.044-16.1,16.035,16.035,0,0,0,16.044,16.1" transform="translate(-64.764 0.001)" fill="#12263f"/>
          <path id="Trazado_615471" data-name="Trazado 615471" d="M34.648,68.932c1.043,0,2.087.016,3.129-.006.818-.016,1.324.388,1.312,1.165a1.111,1.111,0,0,1-1.254,1.114c-2.128,0-4.256.005-6.384-.005a1.138,1.138,0,1,1,.067-2.271c1.043.014,2.086,0,3.129,0" transform="translate(-22.689 -51.651)" fill="#12263f"/>
          <path id="Trazado_615472" data-name="Trazado 615472" d="M258.564,68.929c1.043,0,2.087.017,3.129-.007.812-.018,1.322.344,1.318,1.148a1.08,1.08,0,0,1-1.222,1.131c-2.128,0-4.256.005-6.384,0a1.139,1.139,0,1,1,.029-2.271c1.043.013,2.086,0,3.129,0" transform="translate(-190.487 -51.647)" fill="#12263f"/>
          <path id="Trazado_615473" data-name="Trazado 615473" d="M53.613,96.421c-.011.3-.339.614-.747.855-1.507.891-3.022,1.768-4.528,2.659a1.123,1.123,0,0,1-1.729-.323,1.151,1.151,0,0,1,.508-1.7c1.542-.914,3.075-1.845,4.648-2.7a1.2,1.2,0,0,1,1.848,1.213" transform="translate(-34.778 -71.2)" fill="#12263f"/>
          <path id="Trazado_615474" data-name="Trazado 615474" d="M251.558,98.757a1.1,1.1,0,0,1-1.6,1.1c-1.722-.931-3.4-1.949-5.068-2.973a1.041,1.041,0,0,1-.348-1.532,1.06,1.06,0,0,1,1.518-.436c1.674.935,3.317,1.925,4.969,2.9a1.131,1.131,0,0,1,.533.943" transform="translate(-183.101 -71.005)" fill="#12263f"/>
          <path id="Trazado_615475" data-name="Trazado 615475" d="M47.675,30.983a6.792,6.792,0,0,1,.7.308q2.259,1.314,4.508,2.645c.689.406,1.1.977.65,1.747-.443.754-1.116.728-1.829.3-1.495-.9-3-1.767-4.5-2.652a1.2,1.2,0,0,1-.628-1.468c.156-.563.615-.733,1.1-.881" transform="translate(-34.855 -23.217)" fill="#12263f"/>
          <path id="Trazado_615476" data-name="Trazado 615476" d="M245.519,36.313a1.124,1.124,0,0,1-1.009-.76.97.97,0,0,1,.3-1.244c1.774-1.092,3.564-2.161,5.384-3.173.51-.284.984.1,1.253.545a1,1,0,0,1-.159,1.376,44.384,44.384,0,0,1-5.483,3.233.9.9,0,0,1-.288.024" transform="translate(-183.153 -23.258)" fill="#12263f"/>
          <path id="Trazado_615477" data-name="Trazado 615477" d="M118.907,18.95a13.67,13.67,0,1,1-13.814,13.657A13.644,13.644,0,0,1,118.907,18.95M107.477,32.4a11.331,11.331,0,1,0,11.477-11.171A11.407,11.407,0,0,0,107.477,32.4" transform="translate(-78.752 -14.2)" fill="#12263f"/>
          <path id="Trazado_615478" data-name="Trazado 615478" d="M144.968,52.845a1.772,1.772,0,0,1-.613,1.191c-2.477,2.651-4.943,5.312-7.43,7.954-.86.914-1.442.911-2.306.006-1.325-1.388-2.622-2.8-3.934-4.2-.573-.612-.907-1.312-.171-1.951.708-.615,1.378-.263,1.949.371.866.96,1.792,1.867,2.63,2.849.512.6.828.579,1.357-.005,2.044-2.256,4.146-4.458,6.212-6.694a1.406,1.406,0,0,1,1.66-.509,1.092,1.092,0,0,1,.646.989" transform="translate(-97.485 -38.781)" fill="#12263f"/>
        </g>
      </g>
    </g>
  </g>
</svg>
