<svg xmlns="http://www.w3.org/2000/svg" xmlns:xlink="http://www.w3.org/1999/xlink" width="125" height="125" viewBox="0 0 125 125">
  <defs>
    <clipPath id="clip-path">
      <rect id="Rectángulo_379155" data-name="Rectángulo 379155" width="61.445" height="71.802" fill="#12263f" stroke="#12263f" stroke-width="0.5"/>
    </clipPath>
  </defs>
  <g id="Grupo_1073484" data-name="Grupo 1073484" transform="translate(-1104.668 -5996)">
    <g id="Grupo_1072869" data-name="Grupo 1072869" transform="translate(719 1)">
      <rect id="Rectángulo_377974" data-name="Rectángulo 377974" width="125" height="125" transform="translate(385.668 5995)" fill="none"/>
      <path id="Trazado_610930" data-name="Trazado 610930" d="M-10.279,8.447,92.441.268l13.473,113.306L-7.668,125Z" transform="translate(398.947 5995)" fill="#fff"/>
      <path id="Trazado_610931" data-name="Trazado 610931" d="M-22852-5608.555l-26.621,26.192-.854-1.708-2.277.712-1.709-.712-4.7-1.565,31.316-31.174v1.993h1.85v2.42Z" transform="translate(23362.668 11700)" fill="#ffa346"/>
      <path id="Trazado_610932" data-name="Trazado 610932" d="M-22852-5608.555l-26.621,26.192-.854-1.708-2.277.712-1.709-.712-4.7-1.565,31.316-31.174v1.993h1.85v2.42Z" transform="translate(23273.826 11611.811)" fill="#ffa346"/>
    </g>
    <path id="Intersección_6" data-name="Intersección 6" d="M23221.221,11791.125l1.383,11.624-12.1,11.9-14.367,1.445Z" transform="translate(-21999.613 -5703.732)" fill="#ffe3c7"/>
    <path id="Intersección_5" data-name="Intersección 5" d="M23116.354,11732.74l-2.279.711-1.707-.711-.773-.258-.115-5.1,20.711-20.613,9.867-.786,1.77,2.278-26.621,26.19Z" transform="translate(-22003 -5704)" fill="#ffe3c7"/>
    <rect id="Rectángulo_377981" data-name="Rectángulo 377981" width="73" height="73" transform="translate(1130.668 6023)" fill="#fff"/>
    <g id="Grupo_1073783" data-name="Grupo 1073783" transform="translate(1136.445 6019.599)">
      <g id="Grupo_1073782" data-name="Grupo 1073782" clip-path="url(#clip-path)">
        <path id="Trazado_615920" data-name="Trazado 615920" d="M26.261,115.343c-3.44,0-6.881-.026-10.321.015-1.074.013-1.463-.4-1.432-1.457.053-1.8-.013-3.6.026-5.395.018-.822-.313-1.116-1.108-1.1-1.524.031-3.05.025-4.574,0a3.648,3.648,0,0,1-3.716-3.7c-.028-2.463-.033-4.926.006-7.389.012-.764-.23-1.092-1-1.015a6.133,6.133,0,0,1-.938,0A3.159,3.159,0,0,1,.535,90.343a27.585,27.585,0,0,1,1.854-2.981,14.733,14.733,0,0,0,2.757-8.034C6.115,68.205,15.478,59.455,23.891,57.48a20.21,20.21,0,0,1,5.464-.554c.612.025,1.14.178,1.112.893-.025.661-.554.781-1.107.748C19.272,57.965,8.468,67.645,7,78.1c-.179,1.276-.4,2.542-.463,3.832a7.7,7.7,0,0,1-1.219,3.859c-1.08,1.673-2.107,3.381-3.149,5.078-.368.6-.776,1.177-.329,1.944a1.911,1.911,0,0,0,1.92.844c.391,0,.784-.008,1.171.029a1.858,1.858,0,0,1,1.834,1.9,28.064,28.064,0,0,1,0,2.814c-.034.679.224.9.876.862.78-.041,1.563-.015,2.345,0,.606.008,1.278.037,1.255.861s-.708.814-1.3.826c-.821.016-1.642,0-2.463.011-.3,0-.686-.046-.681.419a10.162,10.162,0,0,0,.11,2.912,1.956,1.956,0,0,0,2.017,1.474c1.407.005,2.815,0,4.222.006,2.341,0,3.027.677,3.029,2.973,0,1.368.033,2.738-.013,4.1-.023.685.232.851.877.849q9.324-.03,18.649,0c.631,0,.864-.2.982-.821a21.136,21.136,0,0,1,7.756-12.664c6.389-5.334,9.767-12.287,8.741-20.788-.905-7.5-4.991-13.076-11.348-17.038a25.256,25.256,0,0,0-4.753-2.247c-.542-.2-1.059-.471-.8-1.176s.853-.6,1.38-.393c9.222,3.6,15.371,9.942,17.048,19.893,1.5,8.879-2,16.11-8.211,22.242a11.8,11.8,0,0,1-1.33,1.148,17.355,17.355,0,0,0-6.9,11.683c-.3,1.8-.276,1.8-2.139,1.8H26.261" transform="translate(0 -43.556)" fill="#12263f" stroke="#12263f" stroke-width="0.5"/>
        <path id="Trazado_615921" data-name="Trazado 615921" d="M54.167,89.2c.854.344,1.367-.208,1.976-1a5.917,5.917,0,0,1,8.881-.536,1.236,1.236,0,0,0,1.658.367,6.289,6.289,0,0,1,8.1,2.93,1.488,1.488,0,0,0,1.277.934,6.424,6.424,0,0,1,3.906,10.874.919.919,0,0,0-.194,1.13,6.306,6.306,0,0,1-3.421,8.377c-.651.318-.577.549-.262,1.02a15.063,15.063,0,0,1,.944,1.616,3.415,3.415,0,0,1-5.788,3.582c-.819-1.139-1.528-2.36-2.247-3.567a2.239,2.239,0,0,0-1.446-.958,6.468,6.468,0,0,0-4.9.367c-2.468,1.041-4.757.148-6.574-1.772-.44-.464-.687-.5-1.221-.155a6.266,6.266,0,0,1-7.805-.449,6.36,6.36,0,0,1-1.59-7.572,1.406,1.406,0,0,0,.019-1.3,5.859,5.859,0,0,1,1.652-7.373,1.792,1.792,0,0,0,.585-1.191A6.1,6.1,0,0,1,54.167,89.2m-4.622,5.174a7.379,7.379,0,0,1,5.257-.03c.543.242,1.019.55.738,1.226-.256.618-.811.534-1.307.338-2.2-.874-4.154-.183-5.961,1.04a4.21,4.21,0,0,0-1.656,4.447c.185.658.349.939,1.062.424a5.363,5.363,0,0,1,5.138-.61c.51.177,1.114.459.869,1.161-.252.723-.82.638-1.455.42a3.958,3.958,0,0,0-3.784.5,4.752,4.752,0,1,0,6.212,7.154c1.1-1.067,1.277-1.05,2.057.224a4.857,4.857,0,0,0,3.842,2.367c1.523.16,3.427-.82,3.834-1.949a5.047,5.047,0,0,0-.3-4.511c-.333-.559-.524-1.126.2-1.486.68-.337,1,.225,1.267.7a6.205,6.205,0,0,1,.6,5.086c-.264.847.025,1.146.754,1.3a4.157,4.157,0,0,0,1.031.194,2.352,2.352,0,0,1,2.261,1.369c.68,1.139,1.388,2.264,2.11,3.377s1.647,1.391,2.566.832a1.806,1.806,0,0,0,.481-2.651c-.249-.442-.52-.871-.779-1.307-1.029-1.735-.8-2.413,1.072-3.208a4.8,4.8,0,0,0,2.813-5.571c-.164-.632-.363-.825-1.04-.563a7.586,7.586,0,0,1-5.156-.177c-.507-.16-.83-.5-.676-1.053s.585-.686,1.114-.551c.227.058.456.109.678.182a4.619,4.619,0,0,0,5.053-1.092A5.025,5.025,0,0,0,79.9,96.746a4.514,4.514,0,0,0-4.44-3.189c-1.21.064-1.612-.412-1.993-1.409a4.627,4.627,0,0,0-5.305-2.874c-1.409.271-1.539.5-1.338,1.883a3.861,3.861,0,0,1-.5,3.253.911.911,0,0,1-1.234.333c-.5-.3-.462-.785-.17-1.223a1.9,1.9,0,0,0,.352-.969,4.64,4.64,0,0,0-3.217-4.77,4.245,4.245,0,0,0-5.219,2.457c-.4.893-.82,1.14-1.79.822a4.219,4.219,0,0,0-5.5,3.318" transform="translate(-34.313 -65.751)" fill="#12263f" stroke="#12263f" stroke-width="0.5"/>
        <path id="Trazado_615922" data-name="Trazado 615922" d="M215.329,21.863c.458.192.774.316,1.083.457.512.233,1.211.251,1.322.986.115.759-.555.973-1.016,1.284-2.913,1.965-5.841,3.91-8.764,5.861-.455.3-.909.608-1.367.906-.384.25-.777.385-1.171.019-.441-.408-.3-.823-.03-1.26,1.262-2.021,2.49-4.063,3.784-6.063.454-.7.4-.94-.457-1.13-.751-.166-1.858.067-2.126-.9-.283-1.022.827-1.4,1.393-1.971,1.427-1.446,2.94-2.806,4.393-4.226a1.227,1.227,0,0,1,1.566-.337c1.258.624,2.53,1.218,3.793,1.832.858.417.92.987.288,1.666-.851.914-1.705,1.825-2.692,2.88m-6.306,5.582.171.175,5.917-3.975c-.531-.218-.847-.344-1.161-.477-1.1-.464-1.208-.919-.411-1.826.464-.528.95-1.036,1.432-1.548,1.273-1.352,1.282-1.367-.459-2.156-.415-.188-.864-.762-1.354-.237-1.244,1.335-2.438,2.715-3.617,4.039a5.3,5.3,0,0,0,.971.178c1.448.269,1.654.729.9,1.968-.79,1.29-1.59,2.573-2.385,3.859" transform="translate(-156.997 -11.734)" fill="#12263f" stroke="#12263f" stroke-width="0.5"/>
        <path id="Trazado_615923" data-name="Trazado 615923" d="M128.087,4.039c.7,0,1.406-.019,2.108,0,.914.031,1.276.508,1.009,1.393-.3,1.007-.608,2.014-.964,3-.22.609-.036.72.558.723,2.549.013,2.647.2,1.361,2.374q-2.858,4.831-5.72,9.66c-.305.517-.593,1.093-1.335.817-.695-.259-.506-.876-.448-1.409.242-2.209.479-4.419.742-6.625.1-.819.028-1.261-1.01-.926-.694.224-1.549.739-2.2.056-.708-.74.1-1.456.335-2.137.619-1.8,1.4-3.552,1.987-5.365.386-1.2,1.017-1.769,2.292-1.584a9.05,9.05,0,0,0,1.287.01Zm2.452,6.942c-.521,0-.752,0-.982,0-1.5.034-1.767-.311-1.32-1.725q.44-1.393.9-2.779c.16-.482.056-.755-.509-.739-.469.013-.939-.011-1.407,0-.448.012-.92-.114-1.148.52-.589,1.64-1.238,3.259-1.856,4.869a1.082,1.082,0,0,0,1,.042c1.975-.487,2.26-.208,1.969,1.746-.2,1.357-.29,2.731-.428,4.1l.2.046,3.583-6.08" transform="translate(-93.297 -3.054)" fill="#12263f" stroke="#12263f" stroke-width="0.5"/>
        <path id="Trazado_615924" data-name="Trazado 615924" d="M23.281,10.964q0,3.106,0,6.211c0,.577-.072,1.158-.764,1.266-.645.1-.843-.446-1.038-.919-.891-2.164-1.787-4.327-2.657-6.5-.272-.679-.554-.882-1.108-.243a7.812,7.812,0,0,1-1.041.944c-.843.675-1.436.45-1.6-.647-.386-2.547-.732-5.1-1.1-7.649A1.048,1.048,0,0,1,14.6,2.285C15.862,1.585,17.12.875,18.4.2c.761-.4,1.273-.192,1.451.693.208,1.032.472,2.055.633,3.095.1.619.194.857.846.455.592-.365,1.133-1.209,1.947-.7.781.485.322,1.364.337,2.066.038,1.72.012,3.44.012,5.161h-.34M18.4,2.1c-.808.44-1.451.805-2.109,1.143a.74.74,0,0,0-.5.821c.242,1.757.476,3.515.739,5.464.47-.388.772-.619,1.052-.873,1.242-1.124,1.592-1.051,2.228.468q.838,2,1.685,4a37.938,37.938,0,0,0,.412-7.055c-.339.2-.564.333-.786.468-1.362.829-1.673.693-2.006-.894-.239-1.139-.463-2.282-.719-3.546" transform="translate(-10.681 -0.001)" fill="#12263f" stroke="#12263f" stroke-width="0.5"/>
        <path id="Trazado_615925" data-name="Trazado 615925" d="M83.676,120.647c1.792.018,2.948-.989,3.359-2.939.073-.344.095-.7.172-1.04a.769.769,0,0,1,.927-.68c.45.07.629.417.68.84a.22.22,0,0,1-.007.116c-.957,1.929-.023,3.16,1.385,4.439a3.076,3.076,0,0,1,.485,3.413c-.157.446-.458.79-.945.7a.808.808,0,0,1-.644-1.067,2.48,2.48,0,0,0-.523-2.512c-.662-.615-1.282-1.236-2.255-.282a3.377,3.377,0,0,1-2.653.688c-.664-.04-1.511-.011-1.5-.908.012-.957.858-.8,1.52-.767" transform="translate(-62.878 -88.76)" fill="#12263f" stroke="#12263f" stroke-width="0.5"/>
        <path id="Trazado_615926" data-name="Trazado 615926" d="M141.851,174.83a3.64,3.64,0,0,1,3.782,3.039c.09.521.137,1.07-.538,1.226-.625.144-.893-.265-1.084-.8-.6-1.673-1-1.945-2.658-1.718-.61.083-1.149.1-1.271-.617s.461-.91,1.011-1.039a5.218,5.218,0,0,1,.759-.088" transform="translate(-107.198 -133.805)" fill="#12263f" stroke="#12263f" stroke-width="0.5"/>
        <path id="Trazado_615927" data-name="Trazado 615927" d="M89.045,165.227a4.027,4.027,0,0,1-3.969-3.7c-.022-.481.126-.863.629-.976a.723.723,0,0,1,.966.591c.329,1.628,1.174,2.572,2.97,2.44a.7.7,0,0,1,.757.843c-.111.76-.757.775-1.354.8" transform="translate(-65.111 -122.855)" fill="#12263f" stroke="#12263f" stroke-width="0.5"/>
        <path id="Trazado_615928" data-name="Trazado 615928" d="M149.7,121.622a3.42,3.42,0,0,1-2.572,3.656c-.579.13-1.05.061-1.219-.544-.152-.541.148-.884.691-1.025a1.83,1.83,0,0,0,1.441-2.1c-.024-.657-.309-1.6.819-1.554,1.061.041.692,1.023.841,1.571" transform="translate(-111.639 -91.88)" fill="#12263f" stroke="#12263f" stroke-width="0.5"/>
      </g>
    </g>
  </g>
</svg>
