<svg xmlns="http://www.w3.org/2000/svg" xmlns:xlink="http://www.w3.org/1999/xlink" width="120.828" height="120.829" viewBox="0 0 120.828 120.829">
  <defs>
    <clipPath id="clip-path">
      <rect id="Rectángulo_378693" data-name="Rectángulo 378693" width="72.668" height="69.565" fill="#12263f"/>
    </clipPath>
  </defs>
  <g id="Grupo_1073147" data-name="Grupo 1073147" transform="translate(-292.865 -9557)">
    <g id="Grupo_1072889" data-name="Grupo 1072889" transform="translate(292.865 9557)">
      <g id="Grupo_1072868" data-name="Grupo 1072868">
        <rect id="Rectángulo_377974" data-name="Rectángulo 377974" width="120.595" height="120.595" fill="none"/>
        <path id="Trazado_610930" data-name="Trazado 610930" d="M-10.279,8.174,89.014.268l13.023,109.525L-7.755,120.838Z" transform="translate(13.179 -0.009)" fill="#ffed33"/>
        <path id="Trazado_610931" data-name="Trazado 610931" d="M-22853.207-5608.83l-25.732,25.318-.826-1.652-2.2.688-1.652-.688-4.539-1.514,30.268-30.133v1.926h1.791v2.339Z" transform="translate(22974.035 5702.058)" fill="#ffa346"/>
        <path id="Trazado_610932" data-name="Trazado 610932" d="M-22853.207-5608.83l-25.732,25.318-.826-1.652-2.2.688-1.652-.688-4.539-1.514,30.268-30.133v1.926h1.791v2.339Z" transform="translate(22888.156 5616.811)" fill="#ffa346"/>
      </g>
      <path id="Intersección_4" data-name="Intersección 4" d="M24.244,0l1.338,11.236L13.887,22.741,0,24.138Z" transform="translate(88.794 88.344)" fill="#fbdb0a"/>
      <path id="Intersección_3" data-name="Intersección 3" d="M4.713,25.868l-2.2.687L.859,25.868l-.747-.249L0,20.685,20.021.76,29.558,0l1.711,2.2L5.537,27.519Z" transform="translate(3.683 5.78)" fill="#fbdb0a"/>
      <rect id="Rectángulo_377980" data-name="Rectángulo 377980" width="70.661" height="70.661" transform="translate(25.438 26.38)" fill="#ffed33"/>
      <g id="Grupo_1073155" data-name="Grupo 1073155" transform="translate(19.318 23.064)">
        <g id="Grupo_1073154" data-name="Grupo 1073154" clip-path="url(#clip-path)">
          <path id="Trazado_615240" data-name="Trazado 615240" d="M73.376,50.7q7.051,0,14.1,0c3.039,0,4.624-1.587,4.627-4.615,0-4.436-.008-8.871.012-13.307,0-.657-.011-1.2-.815-1.355a1.853,1.853,0,0,1-.678-.4,5.545,5.545,0,0,1-1.509-2.462c-.351-.8-1.724-.655-2.09-1.656-.013-.035-.055-.064-.057-.1-.083-1.759-.911-3.278-1.479-4.891a7.35,7.35,0,0,0-1.383-2.921C80.339,15.1,80.713,9.53,82.715,6.028A11.949,11.949,0,0,1,95.151.156a11.739,11.739,0,0,1,9.641,9.235,10.172,10.172,0,0,1-2.343,9.225,5.474,5.474,0,0,0-1.677,3.623,1.129,1.129,0,0,1-.376.922c-.864.58-.849,1.411-.831,2.3a2.4,2.4,0,0,1-1.8,2.578,1.015,1.015,0,0,0-.794.921,3.252,3.252,0,0,1-2.022,2.435c-.75.286-.8.724-.8,1.377.02,4.36.013,8.719.01,13.079,0,4.33-2.529,6.879-6.827,6.88q-13.932.005-27.864,0c-4.268,0-6.781-2.506-6.795-6.77-.009-2.805-.021-5.611.011-8.416.008-.713-.169-1-.945-.985a14.168,14.168,0,0,1-4.153-.548c-3.975-1.107-6.056-4.333-5.625-8.818.375-3.9,2.816-6.342,6.07-8.074a7.584,7.584,0,0,0,2.465-2.056,14.391,14.391,0,0,1,9.592-5.1c4.665-.687,9.165-.137,13.19,2.531,3.08,2.042,5.095,4.744,4.754,8.687a1.29,1.29,0,0,0,.436.988A7.5,7.5,0,0,1,79.6,32.65a7.287,7.287,0,0,1-7.321,4.394c-.983-.035-1.188.293-1.08,1.126.024.186,0,.379,0,.568a2.012,2.012,0,0,1-1.221,2,2.038,2.038,0,0,1-2.329-.306c-.825-.667-1.648-1.339-2.429-2.056a5.437,5.437,0,0,0-3.132-1.449,51.2,51.2,0,0,0-6.806-.336c-.507.008-.649.219-.646.686.016,3.146-.078,6.3.051,9.438.1,2.492,1.827,3.964,4.358,3.972,4.777.015,9.553,0,14.33,0M48.846,20.935c-2.6,1.44-4.616,3.29-4.881,6.245-.342,3.816,1.05,6.509,5.219,7.15a24.751,24.751,0,0,0,3.162.254c2.726.068,5.454-.017,8.181.158,2.537.162,4.84.769,6.654,2.688a15.043,15.043,0,0,0,1.471,1.249c.174.142.362.291.537-.031a2.484,2.484,0,0,0-.8-2.629,8.6,8.6,0,0,1-2.848-2.562c-.374-.53-.451-1.094.131-1.5a.992.992,0,0,1,1.479.326,6.94,6.94,0,0,0,1.783,1.732,6.248,6.248,0,0,0,7.753-.6,5.852,5.852,0,0,0,.786-7.306,1.15,1.15,0,0,0-1.555-.615,8.434,8.434,0,0,1-4.924,0c-.72-.179-1.242-.5-1.057-1.3.174-.745.757-.8,1.444-.654a8.4,8.4,0,0,0,3.7.147c.887-.2,1.086-.641,1.045-1.421A7.319,7.319,0,0,0,72.8,16.6C69,13.837,64.7,13.221,60.158,13.967a13.225,13.225,0,0,0-7.845,3.98,4.85,4.85,0,0,0-1.363,3.611,8.98,8.98,0,0,0,1.747,5.07.968.968,0,0,1-.123,1.5c-.578.445-1.082.2-1.464-.309a12.238,12.238,0,0,1-.851-1.338,12.68,12.68,0,0,1-1.413-5.543M93.185,2a9.738,9.738,0,0,0-9.027,5.609c-1.605,3.638-1.292,7.072,1.483,10.115a4.7,4.7,0,0,1,1.527,2.731c.087,1.568.919,1.811,2.2,1.615a2.592,2.592,0,0,1,.681,0c.631.073.776-.232.712-.8q-.375-3.327-.705-6.658a1.578,1.578,0,0,0-.645-1.016A4.75,4.75,0,0,1,87.76,10.1c-.01-.626.087-1.183.82-1.26.772-.081,1.065.413,1.122,1.113a3.133,3.133,0,0,0,1.151,2.261,3.477,3.477,0,0,0,5.668-2.138c.115-.7.28-1.329,1.14-1.236.884.095.868.8.829,1.471a4.693,4.693,0,0,1-1.63,3.262,1.729,1.729,0,0,0-.664,1.238c-.114,1.623-.293,3.241-.461,4.859-.265,2.56-.088,2.723,2.515,2.4.424-.053.607-.2.626-.617a6.37,6.37,0,0,1,1.8-3.824,9.1,9.1,0,0,0,1.976-3.277A9.735,9.735,0,0,0,93.185,2m-.047,22.074c-1.172,0-2.346.042-3.515-.015-.745-.037-.945.207-.956.947-.014.891.261,1.261,1.169,1.177.6-.055,1.209-.01,1.814-.01,1.7,0,3.4-.011,5.1,0,.969.007.773-.685.826-1.271.057-.631-.156-.866-.812-.841-1.208.046-2.419.013-3.629.013m-.013-9.106c-.872-.208-1.13.142-1.007,1.012.255,1.8.435,3.6.653,5.407.033.273-.07.683.418.631.383-.041.274-.393.3-.632.219-1.84.4-3.687.657-5.521.131-.915-.287-1.044-1.023-.9M93.1,28.171c-.379,0-.759-.016-1.137.006-.242.014-.562-.127-.7.188-.118.278.081.509.239.719a2.128,2.128,0,0,0,3.2.04c.187-.232.44-.5.263-.809-.148-.258-.48-.126-.73-.139-.378-.018-.758,0-1.137,0" transform="translate(-32.371 0)" fill="#12263f"/>
          <path id="Trazado_615241" data-name="Trazado 615241" d="M48.86,91.6c-.653-1.825-1.335-3.621-1.937-5.442A27,27,0,0,1,45.6,80.077c-.058-.653-.009-1.27.817-1.353.783-.079,1.031.427,1.122,1.117a42.212,42.212,0,0,0,3.708,11.982c.609,1.333.23,1.88-1.277,1.881q-13.02.008-26.04.013c-.891,0-1.373-.264-1.571-1.216a18.23,18.23,0,0,0-2.134-5.95c-.46-.751-.821-.944-1.681-.531A19.124,19.124,0,0,1,9.5,88.3,4.241,4.241,0,0,1,5.221,83.03a6.464,6.464,0,0,1,.16-.778,1.158,1.158,0,0,0-.7-1.655c-1.208-.576-1.521-1.693-1.071-3.229a.954.954,0,0,0-.2-1.09c-1.307-1.459-1.4-2.4-.39-4.089.294-.493.335-.739-.209-1.052a6.422,6.422,0,0,1-1.728-1.462,4.257,4.257,0,0,1-.757-4.46,17.683,17.683,0,0,1,3.37-5.226A6.128,6.128,0,0,0,5.22,54.5a16.873,16.873,0,0,1,7.468-17.589c9.356-6.451,19.445-7.515,29.76-2.455,5.906,2.9,9.111,8,10.035,14.521.921,6.506-.623,12.624-2.858,18.641-.487,1.311-.987,2.616-1.463,3.931-.237.654-.627,1.088-1.354.836s-.764-.781-.542-1.473c.888-2.773,2.146-5.411,2.926-8.224,1.351-4.866,2.113-9.769,1.055-14.8a16.337,16.337,0,0,0-11.2-12.792c-9.513-3.272-18.5-2.024-26.392,4.4-5.345,4.352-6.766,10.191-5.116,16.8a2.508,2.508,0,0,1-.392,2.329c-1.322,1.754-2.664,3.5-3.9,5.314-2.017,2.974-1.658,4.3,1.5,6.068,1.642.919,1.675,1.117.432,2.593-1.145,1.36-1.15,1.735.2,2.746a1.321,1.321,0,0,1,.451,1.935c-.718,1.418-.614,1.581.919,2.019,1.16.331,1.328.636.989,1.8A10.182,10.182,0,0,0,7.2,83.642c-.052,1.775.544,2.511,2.333,2.675a13,13,0,0,0,5.013-.811,18.25,18.25,0,0,0,4.361-1.892,1.248,1.248,0,0,1,1.863.333,15.443,15.443,0,0,1,3.245,6.914c.123.564.3.849.947.847q11.769-.029,23.539-.02a1.686,1.686,0,0,0,.359-.089" transform="translate(0 -24.151)" fill="#12263f"/>
          <path id="Trazado_615242" data-name="Trazado 615242" d="M92.626,80.607A5.16,5.16,0,0,1,99.911,75.7a1.639,1.639,0,0,0,1.556,0,5.041,5.041,0,0,1,6.271,1.6,4.934,4.934,0,0,1-.332,6.453c-1.882,2.018-3.884,3.924-5.83,5.883a1.092,1.092,0,0,1-1.767,0c-1.946-1.958-3.909-3.9-5.84-5.873a4.987,4.987,0,0,1-1.345-3.17m2.045-.13a2.514,2.514,0,0,0,.736,1.907c1.609,1.655,3.255,3.274,4.871,4.921.3.308.5.33.817.01,1.616-1.648,3.291-3.24,4.868-4.923a3.039,3.039,0,0,0-.023-4.136,2.93,2.93,0,0,0-4.087-.457,1.6,1.6,0,0,1-2.3.013,2.778,2.778,0,0,0-3.3-.2,3.014,3.014,0,0,0-1.587,2.869" transform="translate(-71.556 -58.105)" fill="#12263f"/>
        </g>
      </g>
    </g>
  </g>
</svg>
