<svg xmlns="http://www.w3.org/2000/svg" xmlns:xlink="http://www.w3.org/1999/xlink" width="120" height="120" viewBox="0 0 120 120">
  <defs>
    <clipPath id="clip-path">
      <rect id="Rectángulo_378694" data-name="Rectángulo 378694" width="66.869" height="66.914" fill="#12263f"/>
    </clipPath>
  </defs>
  <g id="Grupo_1073144" data-name="Grupo 1073144" transform="translate(-292.865 -9557)">
    <g id="Grupo_1072889" data-name="Grupo 1072889" transform="translate(292.865 9557)">
      <g id="Grupo_1072868" data-name="Grupo 1072868">
        <rect id="Rectángulo_377974" data-name="Rectángulo 377974" width="119.714" height="119.714" fill="none"/>
        <path id="Trazado_610930" data-name="Trazado 610930" d="M-10.279,8.116,86.589.268,99.294,108.987-7.817,119.951Z" transform="translate(13.831 0.049)" fill="#ffed33"/>
        <path id="Trazado_610931" data-name="Trazado 610931" d="M-22845.346-5607.035l-31.521,31.011-1.01-2.023-2.7.843-2.023-.843-5.561-1.854,37.076-36.91v2.359h2.191v2.865Z" transform="translate(22965.346 5693.227)" fill="#ffa346"/>
        <path id="Trazado_610932" data-name="Trazado 610932" d="M-22845.346-5607.035l-31.521,31.011-1.01-2.023-2.7.843-2.023-.843-5.561-1.854,37.076-36.91v2.359h2.191v2.865Z" transform="translate(22888.156 5616.811)" fill="#ffa346"/>
      </g>
      <path id="Intersección_4" data-name="Intersección 4" d="M29.7,0l1.639,13.763L17.01,27.855,0,29.566Z" transform="translate(80.761 80.21)" fill="#fbdb0a"/>
      <path id="Intersección_3" data-name="Intersección 3" d="M5.772,31.685l-2.7.842-2.022-.842-.915-.305L0,25.336,24.523.931,36.2,0l2.1,2.7L6.782,33.708Z" transform="translate(4.512 7.08)" fill="#fbdb0a"/>
      <rect id="Rectángulo_377980" data-name="Rectángulo 377980" width="58.551" height="86.551" transform="translate(31.158 17.589)" fill="#ffed33"/>
      <g id="Grupo_1073157" data-name="Grupo 1073157" transform="translate(26.565 23.934)">
        <g id="Grupo_1073156" data-name="Grupo 1073156" clip-path="url(#clip-path)">
          <path id="Trazado_615243" data-name="Trazado 615243" d="M31.918,0A20.7,20.7,0,0,1,49.54,10.745c.463.786.773,1.094,1.356.18.67-1.05,1.589-.905,2.565-.554s2.086.609,2.01,2c-.058,1.051.449,1.319,1.331.981a1.488,1.488,0,0,1,1.959.682c.255.373.5.754.788,1.1a1.523,1.523,0,0,1-.01,2.09c-.595.774-.518,1.308.488,1.591a1.5,1.5,0,0,1,1.192,1.8,7.077,7.077,0,0,0,0,1.357,1.449,1.449,0,0,1-1.05,1.592c-1.239.523-1.266.575-.581,1.68a1.719,1.719,0,0,1-.061,2.107c-.808,1.2-1.543,2.381-3.311,1.613-.505-.219-.622.2-.693.626a3.051,3.051,0,0,1-3.23,2.748,1.848,1.848,0,0,1-1.51-.987c-.494-.674-.737-.545-1.111.13A20.565,20.565,0,0,1,36.556,41.718a19.919,19.919,0,0,1-8.076.472,1.119,1.119,0,0,0-1.216.49c-.916,1.185-1.873,2.337-2.8,3.517a1.267,1.267,0,0,1-1.978.287c-.669-.466-1.321-1.442-2.024-1.24-.666.191-1.114,1.169-1.639,1.816q-5.4,6.648-10.8,13.3c-1,1.226-1.4,1.263-2.666.256Q3.114,58.827.874,57.028C-.212,56.158-.267,55.683.6,54.609c3.863-4.759,7.706-9.534,11.615-14.255.642-.776.462-1.065-.251-1.56-2.485-1.726-2.551-1.822-.542-4.071,1.325-1.483,1.629-2.59.683-4.626A20.781,20.781,0,0,1,19.538,3.532,21.425,21.425,0,0,1,31.918,0M12.279,21.211A18.928,18.928,0,1,0,31.212,2.289,18.954,18.954,0,0,0,12.279,21.211m6.244,22.642c.036-.261-.114-.352-.256-.455-1.042-.756-2.094-1.5-3.116-2.279-.471-.359-.665-.047-.914.26q-5.528,6.806-11.071,13.6c-.425.518-.345.793.15,1.158.867.64,1.732,1.293,2.531,2.014.528.477.8.373,1.214-.139q5.5-6.826,11.046-13.619c.153-.188.3-.384.418-.54M55.855,26.59c.146.031.382.093.622.128.3.043.609.183.863-.141s.052-.58-.087-.857a2.627,2.627,0,0,1,1.235-3.871c.256-.134.487-.222.505-.573.021-.392-.214-.537-.5-.7a2.62,2.62,0,0,1-1.237-3.863c.143-.279.324-.52.09-.86-.25-.365-.57-.243-.837-.141a2.157,2.157,0,0,1-2.123-.449,2.429,2.429,0,0,1-1.115-2.1c-.024-.613-.359-.825-.894-.5a1.922,1.922,0,0,0-.918,2.522,19.673,19.673,0,0,1,0,12.017c-.27.857-.33,1.529.454,2.1.315.229.454.759,1,.569.505-.175.332-.635.387-.983a2.894,2.894,0,0,1,2.551-2.292M14.739,34.329,14.4,34.3a2.509,2.509,0,0,1-.221.485,9.551,9.551,0,0,1-.91,1.142c-.5.5-.408.8.157,1.2,2.581,1.833,5.13,3.709,7.69,5.572,2.177,1.584,2.177,1.585,3.742-.577a.787.787,0,0,1,.064-.082c.34-.359.282-.534-.214-.694a20.9,20.9,0,0,1-9.657-6.48,3.546,3.546,0,0,1-.316-.535" transform="translate(0)" fill="#12263f"/>
          <path id="Trazado_615244" data-name="Trazado 615244" d="M222.788,223.826c-.177-.021-.281-.032-.384-.046-1.778-.251-1.786-.251-1.958,1.476a1.355,1.355,0,0,1-.9,1.277c-.488.182-.972.377-1.456.569a1.953,1.953,0,0,1-2.545-.724c-.769-1.007-.889-.955-1.734-.031-.413.452-.754,1.126-1.492.975a5.729,5.729,0,0,1-3.132-1.267c-.4-.4-.235-1-.266-1.508-.049-.811-.416-1.119-1.229-.931-.632.146-1.349.492-1.9-.015a6.281,6.281,0,0,1-1.86-2.724c-.181-.588.28-1.056.567-1.518.462-.743.452-1.271-.473-1.613-.607-.224-1.393-.4-1.482-1.159a6.449,6.449,0,0,1,.133-3.291c.249-.6.934-.691,1.463-.917.734-.313.808-.735.447-1.394-.323-.59-.948-1.155-.6-1.9a7.158,7.158,0,0,1,1.9-2.583c.507-.414,1.074-.09,1.6.023,1.1.233,1.339.081,1.425-.986.052-.649-.09-1.4.643-1.753a5.862,5.862,0,0,1,3.164-.877c.585.063.871.664,1.207,1.1.514.659.945.7,1.484.013.416-.526.769-1.283,1.609-1.145a6.047,6.047,0,0,1,3.077,1.162c.463.4.359,1.03.362,1.581.006.9.432,1.168,1.276.953.623-.159,1.31-.54,1.873.039a6.405,6.405,0,0,1,1.819,2.751c.154.588-.306,1.05-.593,1.515-.442.712-.382,1.2.455,1.548.593.243,1.379.363,1.5,1.143a7.338,7.338,0,0,1-.081,3.3c-.15.483-.668.577-1.07.764-1.354.63-1.372.671-.624,1.981.656,1.15-.481,3.819-1.784,4.176a2.251,2.251,0,0,1-.445.044m-15.26-15.021a.788.788,0,0,0-.98.313c-.307.414-.031.717.147,1.043a2.734,2.734,0,0,1-1.315,4.1c-.373.174-.639.326-.642.815s.239.652.615.835a2.733,2.733,0,0,1,1.352,4.084c-.2.359-.451.674-.124,1.137.345.489.7.259,1.1.178a2.739,2.739,0,0,1,3.371,2.569c.028.423.011.807.56.975.513.157.687-.18.932-.455a2.628,2.628,0,0,1,4.267,0c.249.275.434.611.939.455.535-.165.549-.551.585-.976a2.7,2.7,0,0,1,3.358-2.559c.4.083.757.306,1.093-.191.316-.468.061-.777-.137-1.138a2.746,2.746,0,0,1,1.283-4.041c.386-.18.738-.314.718-.873-.017-.493-.3-.635-.661-.806a2.732,2.732,0,0,1-1.317-4.1c.206-.373.436-.7.081-1.133-.313-.381-.652-.291-1.035-.2a2.644,2.644,0,0,1-3.383-2.47c-.034-.41-.011-.808-.533-1.017-.574-.231-.744.192-1.008.482a2.714,2.714,0,0,1-4.235-.008c-.264-.291-.437-.7-1.011-.472-.54.216-.5.625-.489,1.026a2.123,2.123,0,0,1-.948,1.85c-.862.678-1.714,1.061-2.586.587" transform="translate(-160.07 -160.429)" fill="#12263f"/>
          <path id="Trazado_615245" data-name="Trazado 615245" d="M85.952,21.424a16.707,16.707,0,1,1-16.735,16.75,16.717,16.717,0,0,1,16.735-16.75m4.009,2.944c-5.286-2.084-12.361.447-15.944,5.575a14.611,14.611,0,0,0,1.13,17.875C79.305,52.463,86.07,53.569,89.9,51.9c-1.119-.482-1.219-1.278-.848-2.261.144-.382.5-.768.041-1.235s-.854-.14-1.236.008a1.633,1.633,0,0,1-2.286-.76c-.516-.866-1.032-1.729-1.493-2.626a1.288,1.288,0,0,1,.322-1.766c.239-.2.47-.415.7-.625.59-.536.269-.912-.251-1.186a2.734,2.734,0,0,0-.9-.231,1.292,1.292,0,0,1-1.24-1.5c.02-.94.058-1.885-.01-2.821a1.543,1.543,0,0,1,1.471-1.873c.432-.074,1.013.017,1.185-.637s-.4-.856-.738-1.119A1.516,1.516,0,0,1,84.224,31c.419-.679.774-1.4,1.211-2.066.951-1.453.963-1.436,2.61-.952.335.1.659.359,1.041-.041.361-.379.2-.711.06-1.047-.424-1.006-.483-1.9.816-2.522m10.515,13.8a15.671,15.671,0,0,0-1.858-7c-.267-.483-.518-.7-1.136-.564a7.769,7.769,0,0,0-.1,15.1.941.941,0,0,0,1.239-.553,15.873,15.873,0,0,0,1.852-6.984m-3.937-9.675a12.4,12.4,0,0,0-3.457-2.938c-.676-.361-1.025.2-1.492.407s-.212.637-.088.907a1.769,1.769,0,0,1-.637,2.454,1.97,1.97,0,0,0-.439.445,1.623,1.623,0,0,1-2.274.593c-.812-.432-1.045.111-1.414.652a.853.853,0,0,0,.267,1.38,1.578,1.578,0,0,1,.63,2.166,2.778,2.778,0,0,0-.262.9,1.535,1.535,0,0,1-1.643,1.538c-.777.034-.781.5-.765,1.06.017.587-.122,1.235.784,1.278a1.529,1.529,0,0,1,1.628,1.548,2.434,2.434,0,0,0,.229.8,1.61,1.61,0,0,1-.618,2.26c-.668.439-.526.865-.193,1.475.354.648.727.876,1.385.535a1.585,1.585,0,0,1,2.192.547,5.308,5.308,0,0,0,.817.806,1.49,1.49,0,0,1,.446,1.782c-.125.407-.631.864-.03,1.286.577.4,1.128.716,1.862.169.838-.624,1.678-1.236,2.469-1.923.715-.62.582-.848-.271-1.164a9.947,9.947,0,0,1-6.1-11.586,10.108,10.108,0,0,1,6.968-7.377" transform="translate(-54.742 -16.944)" fill="#12263f"/>
          <path id="Trazado_615246" data-name="Trazado 615246" d="M234.586,240.34a5.552,5.552,0,1,1,5.533,5.607,5.541,5.541,0,0,1-5.533-5.607m2.263-.086a3.25,3.25,0,0,0,3.131,3.447,3.313,3.313,0,1,0,.272-6.621,3.247,3.247,0,0,0-3.4,3.174" transform="translate(-185.53 -185.728)" fill="#12263f"/>
        </g>
      </g>
    </g>
  </g>
</svg>
