<svg xmlns="http://www.w3.org/2000/svg" xmlns:xlink="http://www.w3.org/1999/xlink" width="125" height="125" viewBox="0 0 125 125">
  <defs>
    <clipPath id="clip-path">
      <rect id="Rectángulo_379169" data-name="Rectángulo 379169" width="50.977" height="78.547" fill="#12263f"/>
    </clipPath>
  </defs>
  <g id="Grupo_1073791" data-name="Grupo 1073791" transform="translate(-1104.668 -5996)">
    <g id="Grupo_1072869" data-name="Grupo 1072869" transform="translate(719 1)">
      <rect id="Rectángulo_377974" data-name="Rectángulo 377974" width="125" height="125" transform="translate(385.668 5995)" fill="none"/>
      <path id="Trazado_610930" data-name="Trazado 610930" d="M-10.279,8.447,92.441.268l13.473,113.306L-7.668,125Z" transform="translate(398.947 5995)" fill="#fff"/>
      <path id="Trazado_610931" data-name="Trazado 610931" d="M-22852-5608.555l-26.621,26.192-.854-1.708-2.277.712-1.709-.712-4.7-1.565,31.316-31.174v1.993h1.85v2.42Z" transform="translate(23362.668 11700)" fill="#ffa346"/>
      <path id="Trazado_610932" data-name="Trazado 610932" d="M-22852-5608.555l-26.621,26.192-.854-1.708-2.277.712-1.709-.712-4.7-1.565,31.316-31.174v1.993h1.85v2.42Z" transform="translate(23273.826 11611.811)" fill="#ffa346"/>
    </g>
    <path id="Intersección_6" data-name="Intersección 6" d="M23221.221,11791.125l1.383,11.624-12.1,11.9-14.367,1.445Z" transform="translate(-21999.613 -5703.732)" fill="#ffe3c7"/>
    <path id="Intersección_5" data-name="Intersección 5" d="M23116.354,11732.74l-2.279.711-1.707-.711-.773-.258-.115-5.1,20.711-20.613,9.867-.786,1.77,2.278-26.621,26.19Z" transform="translate(-22003 -5704)" fill="#ffe3c7"/>
    <rect id="Rectángulo_377981" data-name="Rectángulo 377981" width="73" height="73" transform="translate(1130.668 6023)" fill="#fff"/>
    <g id="Grupo_1073801" data-name="Grupo 1073801" transform="translate(1140.826 6019.227)">
      <g id="Grupo_1073800" data-name="Grupo 1073800" clip-path="url(#clip-path)">
        <path id="Trazado_615948" data-name="Trazado 615948" d="M9.329,28.012C11.786,25.956,14,24.1,16.214,22.241a1.384,1.384,0,0,0,.271-1.387c-.395-2.606.664-4.692,2.244-6.623.459-.561.941-.98,1.655-.535a1.142,1.142,0,0,1,.281,1.8c-.427.649-.834,1.316-1.32,1.92a2.815,2.815,0,0,0-.412,2.556c2.253-1.882,4.407-3.684,6.563-5.483.848-.708,1.671-1.451,2.558-2.105a5.75,5.75,0,0,1,7.616.493,1.151,1.151,0,0,0,1.569.316,6.692,6.692,0,0,1,3.323-.721,4.918,4.918,0,0,1,4.663,5.288c-.3,4-.661,7.99-1.021,11.982a6.219,6.219,0,0,0,.584,3.548,31.117,31.117,0,0,1,3.577,9.722,22.765,22.765,0,0,1-1.549,12c-.416,1.02-.924,2-1.356,3.017-.324.761-.858,1.151-1.639.82-.831-.352-.77-1.066-.459-1.77a33.143,33.143,0,0,0,2.508-6.759,20.1,20.1,0,0,0-1.515-12.677,2.692,2.692,0,0,0-.222-.436c-2.615-3.7-2.409-7.8-1.832-12.009.338-2.468.418-4.971.608-7.459a2.563,2.563,0,0,0-1.6-2.761,4.852,4.852,0,0,0-3.744.613.515.515,0,0,0-.158.531,5.949,5.949,0,0,1-2.735,6.012,3.824,3.824,0,0,0-1.522,2.648q-.969,5.115-2,10.218a1.352,1.352,0,0,0,.556,1.479c1.023.817,2.013,1.674,3,2.533,3.476,3.024,3.362,7.091-.4,9.99.436.385.886.728,1.272,1.133a5.858,5.858,0,0,1-7.7,8.767c-1.592-1.215-3.105-2.538-4.6-3.873-.545-.487-.91-.59-1.363.04a1.789,1.789,0,0,1-.558.474,1.1,1.1,0,0,1-1.168-.007c-.357-.224-.694-.6-.558-1.013a5.429,5.429,0,0,1,2.419-2.663c.77-.509,1.356.264,1.9.724,1.662,1.394,3.288,2.831,4.962,4.209a3.562,3.562,0,1,0,4.658-5.387q-4.539-3.946-9.158-7.8a2.814,2.814,0,0,0-3.9.033c-1.844,1.558-3.658,3.151-5.471,4.746-.678.6-1.422,1.245-2.2.344-.8-.934.062-1.542.713-2.11,1.757-1.534,3.509-3.075,5.277-4.6,2.382-2.048,4.862-2.048,7.3,0,1.848,1.553,3.709,3.093,5.5,4.708a1.187,1.187,0,0,0,1.707.082,3.513,3.513,0,0,0,.486-5.447c-3.176-2.83-6.444-5.559-9.723-8.272a2.761,2.761,0,0,0-3.7.332c-1.742,1.489-3.455,3.011-5.183,4.517a7.672,7.672,0,0,1-.853.7,1.076,1.076,0,0,1-1.54-.188,1.011,1.011,0,0,1,.093-1.535c2.738-2.18,4.959-5,8.206-6.556a8.544,8.544,0,0,0,1.65-1.258c3.644-3.042,7.275-6.1,10.925-9.134a3.61,3.61,0,0,0,1.318-3.836,3.4,3.4,0,0,0-2.7-2.573A3.71,3.71,0,0,0,28.949,14.6Q21.143,21.148,13.33,27.686c-2.353,1.969-4.626,4.048-7.089,5.868C2.928,36,1.9,39.193,2.444,43.132c.315,2.307.443,4.641.641,6.964.067.784-.189,1.412-1.068,1.491S.784,51.071.721,50.292C.461,47.071.083,43.853,0,40.627A9.565,9.565,0,0,1,3.373,33.02c.948-.843,1.915-1.667,2.919-2.441a1.859,1.859,0,0,0,.768-1.669c-.035-3.766.006-7.532-.025-11.3a9.226,9.226,0,0,1,1.7-5.519c2.151-3.087,4.217-6.232,6.381-9.31A5.565,5.565,0,0,1,20.878.347a5.582,5.582,0,0,1,4.665,4.006A7.294,7.294,0,0,1,23.4,11.4a1.043,1.043,0,0,1-1.451.046A1.119,1.119,0,0,1,21.72,9.9c.347-.6.783-1.148,1.149-1.739a3.51,3.51,0,0,0-.9-4.981,3.557,3.557,0,0,0-5.054,1.049c-2.188,3.161-4.337,6.348-6.506,9.522a5.62,5.62,0,0,0-1.059,3.094c-.047,3.6-.018,7.2-.018,11.164M29,34.09l1.682-8.578c-2.052,1.719-3.856,3.232-5.664,4.741-.278.232-.33.4,0,.66,1.28,1,2.538,2.023,3.978,3.176" transform="translate(0 -0.195)" fill="#12263f"/>
        <path id="Trazado_615949" data-name="Trazado 615949" d="M15.618,239.777c0,1.023-.009,2.046,0,3.068.01.832-.068,1.673-1.129,1.677-1.022,0-1.192-.766-1.179-1.639.027-1.84-.02-3.682.022-5.523a2.575,2.575,0,0,0-.624-1.782c-1.591-1.973-3.187-3.945-4.709-5.97a18.219,18.219,0,0,1-3.218-7.864,1.2,1.2,0,0,1,.946-1.583,1.039,1.039,0,0,1,1.31.974c.528,4.81,3.464,8.329,6.491,11.7a7.952,7.952,0,0,1,2.087,6.945" transform="translate(-3.581 -166.062)" fill="#12263f"/>
        <path id="Trazado_615950" data-name="Trazado 615950" d="M154.988,259.9c-.56-2.668.431-5.605,1.953-8.435.386-.718.691-1.48,1.026-2.225a1.1,1.1,0,0,1,1.6-.64,1.067,1.067,0,0,1,.483,1.563c-.741,1.681-1.488,3.361-2.264,5.026a5.449,5.449,0,0,0-.542,2.474c.043,2.25,0,4.5.021,6.753.008.832-.187,1.542-1.135,1.561-.979.019-1.151-.727-1.146-1.539.008-1.31,0-2.619,0-4.538" transform="translate(-116.799 -187.431)" fill="#12263f"/>
        <path id="Trazado_615951" data-name="Trazado 615951" d="M144.34,3.522c0,.813.039,1.629-.012,2.439a1.089,1.089,0,0,1-1.165,1.147,1.051,1.051,0,0,1-1.1-1.083C142,4.4,142,2.773,142.051,1.148A1.074,1.074,0,0,1,143.218,0a1.115,1.115,0,0,1,1.121,1.2c.029.772.007,1.545.007,2.318h-.005" transform="translate(-107.132 0)" fill="#12263f"/>
        <path id="Trazado_615952" data-name="Trazado 615952" d="M187.736,31.261a1.617,1.617,0,0,1-.81,1.116c-1.221.734-2.426,1.495-3.636,2.247-.674.419-1.364.489-1.807-.249-.434-.723-.1-1.3.6-1.725,1.255-.755,2.476-1.567,3.744-2.3a1.2,1.2,0,0,1,1.908.912" transform="translate(-136.759 -22.737)" fill="#12263f"/>
        <path id="Trazado_615953" data-name="Trazado 615953" d="M164.563,12.942a1.846,1.846,0,0,1,.393-1.005c.641-1.176,1.3-2.341,1.951-3.513.364-.66.908-1,1.608-.646.779.391.769,1.1.4,1.779-.712,1.322-1.459,2.625-2.2,3.934a1.148,1.148,0,0,1-1.446.589,1,1,0,0,1-.713-1.137" transform="translate(-124.138 -5.76)" fill="#12263f"/>
      </g>
    </g>
  </g>
</svg>
