<svg xmlns="http://www.w3.org/2000/svg" xmlns:xlink="http://www.w3.org/1999/xlink" width="125" height="125" viewBox="0 0 125 125">
  <defs>
    <clipPath id="clip-path">
      <rect id="Rectángulo_378071" data-name="Rectángulo 378071" width="76.555" height="73.16" fill="#12263f"/>
    </clipPath>
  </defs>
  <g id="Grupo_1073719" data-name="Grupo 1073719" transform="translate(-738.496 -952.5)">
    <g id="Grupo_1072980" data-name="Grupo 1072980" transform="translate(-5.172 -5043.5)">
      <g id="Grupo_1072868" data-name="Grupo 1072868" transform="translate(358 1)">
        <rect id="Rectángulo_377974" data-name="Rectángulo 377974" width="125" height="125" transform="translate(385.668 5995)" fill="none"/>
        <path id="Trazado_610930" data-name="Trazado 610930" d="M-10.279,8.447,92.441.268l13.473,113.306L-7.668,125Z" transform="translate(398.947 5995)" fill="#fff"/>
        <path id="Trazado_610931" data-name="Trazado 610931" d="M-22852-5608.555l-26.621,26.192-.854-1.708-2.277.712-1.709-.712-4.7-1.565,31.316-31.174v1.993h1.85v2.42Z" transform="translate(23362.668 11700)" fill="#ffa346"/>
        <path id="Trazado_610932" data-name="Trazado 610932" d="M-22852-5608.555l-26.621,26.192-.854-1.708-2.277.712-1.709-.712-4.7-1.565,31.316-31.174v1.993h1.85v2.42Z" transform="translate(23273.826 11611.811)" fill="#ffa346"/>
      </g>
      <path id="Intersección_4" data-name="Intersección 4" d="M23221.221,11791.125l1.383,11.624-12.1,11.9-14.367,1.445Z" transform="translate(-22360.613 -5703.732)" fill="#ffe3c7"/>
      <path id="Intersección_3" data-name="Intersección 3" d="M23116.354,11732.74l-2.279.711-1.707-.711-.773-.258-.115-5.1,20.711-20.613,9.867-.786,1.77,2.278-26.621,26.19Z" transform="translate(-22364 -5704)" fill="#ffe3c7"/>
      <rect id="Rectángulo_377980" data-name="Rectángulo 377980" width="73" height="73" transform="translate(769.668 6023)" fill="#fff"/>
    </g>
    <g id="Grupo_1073046" data-name="Grupo 1073046" transform="translate(762.719 979.34)">
      <g id="Grupo_1073045" data-name="Grupo 1073045" clip-path="url(#clip-path)">
        <path id="Trazado_613363" data-name="Trazado 613363" d="M115.722,0a14.483,14.483,0,0,1,11.565,6.524,14.362,14.362,0,0,1,2.3,5.51,12.69,12.69,0,0,1,.062,5.062.536.536,0,0,0,.318.662c2,1.146,3.99,2.3,5.988,3.45.191.11.373.379.557.311.148-.054.2-.357.3-.548a2.852,2.852,0,0,1,2.163-1.656,2.547,2.547,0,0,1,1.632.331q1.342.728,2.658,1.505a2.623,2.623,0,0,1,.984,3.753q-3.875,6.846-7.742,13.7a2.854,2.854,0,0,1-2.3,1.644,2.537,2.537,0,0,1-1.483-.334c-.916-.511-1.83-1.026-2.737-1.552a2.623,2.623,0,0,1-.948-3.638,10.114,10.114,0,0,1,.573-.95c.086-.107.08-.174-.061-.226a.95.95,0,0,1-.3-.163,1.727,1.727,0,0,0-1.782-.23c-2,.564-4.006,1.076-6.009,1.616-1.269.342-2.53.718-3.8,1.039a14.954,14.954,0,0,1-3.313.684,7.779,7.779,0,0,1-2.32-.258,9.716,9.716,0,0,1-2.423-1.13c-5.648-3.481-11.287-6.976-16.956-10.423a4.367,4.367,0,0,1-2.024-4.429,4.149,4.149,0,0,1,4.909-3.337,13.374,13.374,0,0,1,4.929,2.018c.119.071.25.237.377.149s.013-.274-.027-.4a12.122,12.122,0,0,1-.547-4.2A14.877,14.877,0,0,1,111.411.471,17.079,17.079,0,0,1,115.722,0M93.046,21.024A1.519,1.519,0,0,0,93.9,22.6q1.079.66,2.156,1.324,7.487,4.61,14.972,9.224a5.6,5.6,0,0,0,3.615.862,19.216,19.216,0,0,0,2.7-.622c1.784-.439,3.549-.957,5.323-1.438,1.516-.412,3.028-.843,4.553-1.221,1.666-.412,1.321-.572,2.941.372a3.006,3.006,0,0,1,.417.263c.191.159.293.129.417-.09q2.07-3.683,4.162-7.354c.121-.213.119-.318-.109-.448-1.428-.816-2.846-1.65-4.271-2.472a38.031,38.031,0,0,0-3.858-2.131,4.712,4.712,0,0,0-3.587-.307c-1.847.657-3.688,1.337-5.559,1.925a33.029,33.029,0,0,1-4.021,1.045,1.846,1.846,0,0,0-1.127.64,1.456,1.456,0,0,0-.182,1.544,1.162,1.162,0,0,0,1.15.772,11.376,11.376,0,0,0,3.234-.582c1.222-.318,2.428-.7,3.648-1.025a1.164,1.164,0,0,1,1.507,1.224,1.2,1.2,0,0,1-1.015,1.158c-2.32.624-4.616,1.327-6.979,1.793a7.906,7.906,0,0,1-5.693-.8c-1.64-.943-3.271-1.9-4.908-2.851-1.823-1.057-3.623-2.155-5.477-3.159a7.76,7.76,0,0,0-2.756-.936,1.766,1.766,0,0,0-2.013.952,1.816,1.816,0,0,0-.085.754m31.136-6.254a7.168,7.168,0,0,0-.366-2.585,8.9,8.9,0,0,0-5.589-5.961,8.73,8.73,0,0,0-6.851.194,8.848,8.848,0,0,0-5.276,6.6,8.9,8.9,0,0,0,.664,5.623,9.067,9.067,0,0,0,2.955,3.578c.206.152.226.04.278-.116a4.269,4.269,0,0,1,1.55-2.209c.14-.1.1-.162,0-.26a3.5,3.5,0,0,1-.964-1.793,1.183,1.183,0,0,1,.516-1.283,1.066,1.066,0,0,1,1.386.094,1.352,1.352,0,0,1,.386.584,1.942,1.942,0,0,0,.818,1.078,3.072,3.072,0,0,0,3.088-.123.815.815,0,0,0,.327-1c-.215-.671-.777-.878-1.38-1.041a16.474,16.474,0,0,1-2.7-.745,3.488,3.488,0,0,1-2.179-2.955,3.7,3.7,0,0,1,2.588-3.656c.268-.074.38-.158.378-.462a1.229,1.229,0,1,1,2.453,0c0,.244.061.351.31.427a4.17,4.17,0,0,1,2.632,2.392,1.117,1.117,0,0,1-.25,1.332,1.184,1.184,0,0,1-2-.408,1.476,1.476,0,0,0-.282-.472,2.182,2.182,0,0,0-2.945-.262,1,1,0,0,0,.03,1.727,1.751,1.751,0,0,0,.527.249,17.315,17.315,0,0,0,1.738.415,4.054,4.054,0,0,1,3.526,3.408c.031.153.085.174.23.126a31.218,31.218,0,0,1,4.168-1.318.251.251,0,0,0,.229-.3c-.012-.257,0-.515,0-.864m9.839,23.066c.121,0,.16-.082.2-.152.155-.254.314-.507.461-.766q2.415-4.265,4.827-8.532,1.3-2.308,2.6-4.618c.209-.373.2-.382-.178-.6-.813-.462-1.634-.91-2.44-1.384-.224-.132-.311-.068-.421.126-.834,1.476-1.678,2.947-2.513,4.423q-2.693,4.762-5.385,9.526c-.123.216-.116.343.11.467.845.468,1.684.946,2.527,1.419a1.982,1.982,0,0,0,.206.09M106.072,22.16a.55.55,0,0,0-.156-.309,11.891,11.891,0,0,1-2.468-6.763,10.906,10.906,0,0,1,.994-4.884,11.55,11.55,0,0,1,12.97-6.746,11.246,11.246,0,0,1,7.019,4.58,11.345,11.345,0,0,1,2.154,7.823c-.022.255.023.4.305.4a1.642,1.642,0,0,1,.242.044c.124.02.181-.018.193-.161a12.136,12.136,0,0,0-.613-5.445,12.02,12.02,0,0,0-9.963-8.118,12.412,12.412,0,0,0-4.03.07,11.641,11.641,0,0,0-4.787,2.03,12.126,12.126,0,0,0-5.013,7.793,12.749,12.749,0,0,0-.13,3.6,12.188,12.188,0,0,0,1.566,4.891,1.246,1.246,0,0,0,.4.463,11.048,11.048,0,0,0,1.317.732" transform="translate(-68.115)" fill="#12263f"/>
        <path id="Trazado_613364" data-name="Trazado 613364" d="M34.6,152.891c.389-.208.717-.372,1.034-.556,3.273-1.9,6.539-3.811,9.819-5.7a9.5,9.5,0,0,1,4.038-1.336,4.114,4.114,0,0,1,4.431,2.877,4.4,4.4,0,0,1-1.748,4.806c-4.894,2.978-9.759,6-14.641,9-1.209.742-2.375,1.559-3.651,2.184a7.48,7.48,0,0,1-5.466.429c-1.534-.426-3.072-.835-4.612-1.239-1.35-.354-2.691-.745-4.05-1.07a25.8,25.8,0,0,1-2.788-.779c-.778-.282-1.291.18-1.882.469-.135.066-.038.157,0,.231.188.331.385.656.567.99a2.566,2.566,0,0,1-.914,3.528c-.955.585-1.922,1.161-2.925,1.655a2.584,2.584,0,0,1-3.438-1.02c-.495-.818-.948-1.661-1.419-2.493L.416,153.33a2.649,2.649,0,0,1,1.018-3.794c.828-.478,1.67-.932,2.5-1.416a2.73,2.73,0,0,1,4,1.406c.211.437.213.427.622.191,2.369-1.367,4.736-2.739,7.113-4.091a9.642,9.642,0,0,1,2.917-1.14c.235-.046.3-.155.3-.4q-.016-4.74-.007-9.481a1.47,1.47,0,0,1,.8-1.358q5.27-3.026,10.53-6.07a1.237,1.237,0,0,1,1.34-.007Q36.772,130.187,42,133.2a1.684,1.684,0,0,1,.9,1.594c-.008,3.84-.016,7.68,0,11.52a1.868,1.868,0,0,1-1.058,1.817c-2.307,1.287-4.585,2.627-6.881,3.935-.333.189-.261.493-.366.827m-3.98,9.531a4.943,4.943,0,0,0,3.132-.923q7.379-4.553,14.763-9.1c.814-.5,1.641-.985,2.438-1.512a1.678,1.678,0,0,0,.681-1.851,1.461,1.461,0,0,0-1.192-1.257,2.777,2.777,0,0,0-1.01-.034,8.6,8.6,0,0,0-3.155,1.183c-3.328,1.927-6.644,3.875-9.98,5.788a7.022,7.022,0,0,1-4.544.919,29.72,29.72,0,0,1-3.2-.628c-1.673-.422-3.321-.934-4.991-1.37a1.215,1.215,0,0,1-.842-1.455,1.165,1.165,0,0,1,1.377-.894c.717.177,1.427.385,2.138.584,1.306.365,2.606.753,3.94,1a2.368,2.368,0,0,0,1.516-.1,1.545,1.545,0,0,0,.643-1.622,1.679,1.679,0,0,0-1.137-1.151,35.644,35.644,0,0,1-5.115-1.368c-1.441-.481-2.868-1.008-4.3-1.517a4.551,4.551,0,0,0-2.566-.307,8.49,8.49,0,0,0-2.325.886c-1.434.807-2.855,1.635-4.28,2.457-.989.57-1.974,1.146-2.963,1.716-.2.116-.268.225-.134.461q2.109,3.7,4.193,7.409c.1.172.173.172.33.079.512-.306,1.032-.6,1.551-.89a.853.853,0,0,1,.678-.108c1.694.464,3.39.918,5.086,1.374,2.123.571,4.243,1.15,6.37,1.7a8.254,8.254,0,0,0,2.9.518m9.867-21.076h0q0-2.253,0-4.506c0-.1.065-.224-.033-.283s-.19.049-.275.1q-1.994,1.139-3.985,2.284-1.923,1.109-3.841,2.225c-.135.078-.255.144-.254.342q.01,3.024,0,6.049a.28.28,0,0,0,.2.3,3.964,3.964,0,0,1,1.847,1.531c.146.225.262.256.508.112q2.82-1.65,5.66-3.266a.336.336,0,0,0,.179-.349c-.005-1.512,0-3.024,0-4.536m-26.921,23.14a3.239,3.239,0,0,0-.347-.716q-2.793-4.937-5.591-9.871c-.669-1.18-1.345-2.355-2.006-3.54-.14-.251-.254-.3-.518-.139-.746.455-1.515.87-2.27,1.309-.488.283-.49.293-.206.8q1.614,2.859,3.235,5.714,2.226,3.93,4.454,7.858c.218.383.266.406.65.2.832-.449,1.65-.922,2.475-1.384a.215.215,0,0,0,.124-.228m16.059-20.237c0-.906,0-1.812,0-2.718a.336.336,0,0,0-.189-.346c-.307-.167-.611-.343-.9-.537-.246-.165-.283-.076-.28.169.011.824.025,1.647.007,2.471a1.151,1.151,0,0,1-1.766,1.061c-1.016-.54-2-1.146-3.007-1.7a1.462,1.462,0,0,1-.79-1.422c.007-1.153-.017-2.307.013-3.459a.652.652,0,0,0-.432-.73,8.135,8.135,0,0,1-.73-.4c-.069-.037-.136-.124-.22-.067s-.037.151-.035.23c.048,2.45.039,4.9,0,7.35a.345.345,0,0,0,.312.4,18.977,18.977,0,0,1,2.192.726c1.835.666,3.679,1.3,5.557,1.837.255.072.268-.008.267-.216-.008-.885,0-1.771,0-2.656m9.49-9.856c-.014-.076-.086-.086-.132-.122-.227-.18-.513-.274-.733-.451-.3-.244-.524-.193-.848,0-1.893,1.121-3.806,2.208-5.712,3.306-.65.375-1.3.755-1.951,1.124-.219.124-.217.206.006.323.3.157.594.328.882.508a.425.425,0,0,0,.5.005c1.607-.939,3.221-1.865,4.834-2.794q1.457-.839,2.914-1.677c.1-.055.207-.1.236-.222m-15.185.825c.07-.037.143-.072.213-.113q2.973-1.723,5.946-3.446c.64-.371,1.285-.734,1.925-1.1.084-.049.222-.078.215-.19-.006-.1-.144-.092-.221-.137a6.91,6.91,0,0,1-.659-.4.731.731,0,0,0-.918-.013c-1.725,1.018-3.466,2.01-5.2,3.013-.8.463-1.6.927-2.394,1.4-.266.159-.256.2.018.36l.9.533c.053.031.107.059.172.094M34.66,131.84a1.082,1.082,0,0,0-.376.176q-3.872,2.233-7.747,4.461c-.2.114-.147.151,0,.257a.827.827,0,0,0,1.015.011c2.019-1.19,4.053-2.355,6.08-3.53q.761-.441,1.515-.891c.078-.047.233-.109.106-.22a1.016,1.016,0,0,0-.6-.264m-8.843,9.311c0-.578-.009-1.112,0-1.644.009-.419-.043-.516-.422-.676-.144-.061-.226-.068-.223.133.008.566,0,1.132,0,1.7a.254.254,0,0,0,.163.267c.141.059.277.128.479.222" transform="translate(0 -95.506)" fill="#12263f"/>
        <path id="Trazado_613365" data-name="Trazado 613365" d="M195.882,168.992c-.167-.142-.321-.271-.473-.4a1.22,1.22,0,0,1-.207-1.661,1.193,1.193,0,0,1,1.68-.244c1.14.864,2.273,1.739,3.38,2.644a1.139,1.139,0,0,1,.006,1.94c-1.109.9-2.247,1.771-3.382,2.642a1.085,1.085,0,0,1-1.3.094,1.2,1.2,0,0,1-.614-1.221,1.41,1.41,0,0,1,.768-1.02c.064-.044.19-.058.171-.152-.022-.114-.15-.087-.235-.088-.432,0-.865,0-1.3,0q-5.56,0-11.121,0a1.353,1.353,0,0,1-1.144-.421,1.233,1.233,0,0,1-.211-1.33,1.185,1.185,0,0,1,1.046-.709,5.184,5.184,0,0,1,.556-.012q5.978,0,11.955-.006a.717.717,0,0,0,.421-.056" transform="translate(-136.74 -125.189)" fill="#12263f"/>
        <path id="Trazado_613366" data-name="Trazado 613366" d="M49.02,46.573H50.56q5.5,0,11,0a3.969,3.969,0,0,1,.584.044,1.213,1.213,0,0,1-.037,2.41,7.765,7.765,0,0,1-.863.016q-5.93,0-11.859,0c-.1,0-.206-.04-.3.066a3.731,3.731,0,0,1,.625.5,1.229,1.229,0,0,1,.085,1.628,1.144,1.144,0,0,1-1.627.187q-1.653-1.268-3.29-2.558a1.207,1.207,0,0,1-.562-1.412,1.475,1.475,0,0,1,.494-.659c1.109-.87,2.216-1.742,3.337-2.6a1.122,1.122,0,0,1,1.667.158,1.254,1.254,0,0,1-.152,1.7c-.185.173-.391.324-.632.521" transform="translate(-33.275 -33.016)" fill="#12263f"/>
        <path id="Trazado_613367" data-name="Trazado 613367" d="M287.055,95.1a1.055,1.055,0,0,1-1.022.951,1.072,1.072,0,0,1-.95-1,1.088,1.088,0,0,1,.981-.942,1.058,1.058,0,0,1,.99.989" transform="translate(-214.428 -70.783)" fill="#12263f"/>
        <path id="Trazado_613368" data-name="Trazado 613368" d="M16.81,228.9a1.039,1.039,0,0,1-.988-.954,1.015,1.015,0,0,1,.983-.956,1.132,1.132,0,0,1,.992.943,1.081,1.081,0,0,1-.986.967" transform="translate(-11.9 -170.735)" fill="#12263f"/>
      </g>
    </g>
  </g>
</svg>
