<svg xmlns="http://www.w3.org/2000/svg" xmlns:xlink="http://www.w3.org/1999/xlink" width="148" height="148" viewBox="0 0 148 148">
  <defs>
    <clipPath id="clip-path">
      <rect id="Rectángulo_378929" data-name="Rectángulo 378929" width="86.536" height="86.552" fill="#12263f"/>
    </clipPath>
  </defs>
  <g id="Grupo_1073496" data-name="Grupo 1073496" transform="translate(-305.998 -7570.86)">
    <g id="Grupo_1073385" data-name="Grupo 1073385" transform="translate(13.133 -1986.14)">
      <g id="Grupo_1072889" data-name="Grupo 1072889" transform="translate(292.865 9557)">
        <g id="Grupo_1072868" data-name="Grupo 1072868">
          <rect id="Rectángulo_377974" data-name="Rectángulo 377974" width="147.714" height="147.714" fill="none"/>
          <path id="Trazado_610930" data-name="Trazado 610930" d="M-10.279,9.952,111.342.268l15.952,134.154L-7.187,147.951Z" transform="translate(13.831 0.049)" fill="#ffed33"/>
          <path id="Trazado_610931" data-name="Trazado 610931" d="M-22845.346-5607.035l-31.521,31.011-1.01-2.023-2.7.843-2.023-.843-5.561-1.854,37.076-36.91v2.359h2.191v2.865Z" transform="translate(22993.346 5721.227)" fill="#ffa346"/>
          <path id="Trazado_610932" data-name="Trazado 610932" d="M-22845.346-5607.035l-31.521,31.011-1.01-2.023-2.7.843-2.023-.843-5.561-1.854,37.076-36.91v2.359h2.191v2.865Z" transform="translate(22888.156 5616.811)" fill="#ffa346"/>
        </g>
        <path id="Intersección_4" data-name="Intersección 4" d="M29.7,0l1.639,13.763L17.01,27.855,0,29.566Z" transform="translate(108.761 108.21)" fill="#fbdb0a"/>
        <path id="Intersección_3" data-name="Intersección 3" d="M5.772,31.685l-2.7.842-2.022-.842-.915-.305L0,25.336,24.523.931,36.2,0l2.1,2.7L6.782,33.708Z" transform="translate(4.512 7.08)" fill="#fbdb0a"/>
        <rect id="Rectángulo_377980" data-name="Rectángulo 377980" width="86.551" height="86.551" transform="translate(31.158 32.312)" fill="#ffed33"/>
        <g id="Grupo_1073422" data-name="Grupo 1073422" transform="translate(30.731 30.724)">
          <g id="Grupo_1073421" data-name="Grupo 1073421" clip-path="url(#clip-path)">
            <path id="Trazado_615521" data-name="Trazado 615521" d="M43.236,179.487H2.3c-2.022,0-2.271-.242-2.271-2.222,0-13.151.015-26.3-.024-39.454a2.093,2.093,0,0,1,1.759-2.389c8.7-2.555,17.385-5.187,26.069-7.809a3.71,3.71,0,0,1,2.24.044c5.933,1.79,11.88,3.537,17.8,5.356.911.279,1.088.072,1.043-.789-.055-1.033-.025-2.071-.009-3.107.021-1.436.345-1.743,1.917-1.746q8.04-.015,16.079,0c3.783,0,7.566-.007,11.35,0,1.557,0,1.942.361,1.949,1.9.02,4.234.012,8.467,0,12.7,0,.9-.131,1.832-1.315,1.8-1.162-.037-1.246-.946-1.244-1.862.008-3.6-.02-7.207.019-10.809.009-.856-.211-1.182-1.121-1.16q-3.579.086-7.16,0c-.909-.022-1.172.3-1.143,1.163.052,1.575-.008,3.152.019,4.728.019,1.112-.464,1.7-1.593,1.7-1.441,0-2.883.011-4.324,0-1.052-.011-1.543-.558-1.528-1.619.023-1.621-.031-3.244.02-4.864.025-.8-.192-1.119-1.047-1.1-2.476.048-4.954.031-7.431.008-.658-.006-.935.158-.97.9-.149,3.133-.171,3.113,2.856,4.076,3.829,1.218,3.535.343,3.536,4.838,0,3.738.025,7.477-.017,11.215-.01.909.214,1.246,1.191,1.238q8.782-.064,17.565,0c.868,0,1.2-.223,1.147-1.126-.07-1.122-.021-2.251-.011-3.377.007-.816.309-1.425,1.226-1.462.935-.038,1.277.581,1.307,1.38.046,1.214.047,2.432.015,3.647-.019.7.234.957.939.932,1.215-.043,2.433.022,3.648-.02,1.186-.041,1.751.455,1.75,1.663-.011,7.972,0,15.944-.012,23.916,0,1.417-.408,1.734-2.078,1.734q-20.606,0-41.211,0M28.823,142.541q9.12,0,18.241,0c2.65,0,3.5.84,3.5,3.452q0,13.917,0,27.835c0,3.168,0,3.114,3.142,3.184,1.159.026,1.523-.243,1.518-1.472q-.075-18.173,0-36.347a1.522,1.522,0,0,0-1.316-1.76c-7.968-2.347-15.921-4.747-23.876-7.139a3.479,3.479,0,0,0-2.1-.044Q15.864,133.9,3.786,137.467A1.521,1.521,0,0,0,2.5,139.249c.039,11.485.025,22.97.025,34.455,0,3.3,0,3.237,3.309,3.314,1.225.029,1.49-.35,1.479-1.516-.058-6.125-.024-12.251-.03-18.376,0-.9.177-1.706,1.261-1.687,1.069.019,1.24.82,1.228,1.722-.022,1.711-.006,3.423-.006,5.134,0,4.459.037,8.918-.026,13.376-.016,1.094.329,1.479,1.368,1.316a1.727,1.727,0,0,1,.27,0c1.775,0,1.776,0,1.778-1.713,0-2.837-.015-5.675.008-8.512.012-1.476.392-1.84,1.849-1.86,1.4-.019,2.8-.066,4.187.016.987.058,1.2-.322,1.18-1.231-.051-2.927-.029-5.855-.014-8.782.008-1.579.341-1.91,1.9-1.913q6.621-.011,13.242,0c1.613,0,1.849.248,1.854,1.911.009,2.883.043,5.766-.019,8.647-.022,1.017.191,1.459,1.315,1.372,1.343-.1,2.7-.036,4.052-.021,1.494.016,1.92.439,1.926,1.931.011,2.657,0,5.315,0,7.972,0,2.306,0,2.269,2.352,2.2.79-.022.991-.314.99-1.042q-.022-14.931,0-29.861c0-.757-.236-1.005-1-1q-18.106.029-36.212,0c-.895,0-1.031.362-1.013,1.122.042,1.711,0,3.423.018,5.134.009.914-.206,1.678-1.285,1.661-1-.016-1.206-.756-1.2-1.609.009-1.8,0-3.6,0-5.4,0-2.724.72-3.452,3.432-3.454q9.053-.007,18.106,0m42.068,34.444c4.007,0,8.014-.014,12.021.012.759,0,1.138-.139,1.134-1.026q-.046-10.13,0-20.26c0-.867-.335-1.057-1.116-1.045-2.431.036-4.863.047-7.293,0-.871-.018-1.062.331-1.038,1.112.046,1.529.022,3.061.01,4.592-.012,1.612-.268,1.86-1.915,1.874-1.26.011-2.521.015-3.782,0-1.457-.019-1.784-.356-1.8-1.873-.018-1.486-.049-2.973.012-4.457.037-.9-.186-1.28-1.179-1.251-2.339.068-4.683.057-7.022,0-.889-.02-1.162.269-1.158,1.152q.044,10,0,19.99c-.005.965.329,1.211,1.246,1.2,3.962-.042,7.924-.018,11.886-.018m-34.728,0c1.576,0,3.155-.064,4.726.022,1.052.058,1.311-.337,1.264-1.317-.074-1.527-.019-3.06-.019-4.591,0-3.674,0-3.674-3.693-3.563-.135,0-.271.011-.4,0-.538-.028-.7.26-.679.751a7.573,7.573,0,0,1-.029,1.213,1.114,1.114,0,0,1-1.164,1.08A1.168,1.168,0,0,1,34.9,169.46c-.1-.606.311-1.452-.238-1.769a4.57,4.57,0,0,0-1.975-.149c-.495-.015-.994.037-1.485-.011-.818-.08-1.1.231-1.088,1.064.045,2.43.051,4.862,0,7.292-.02.926.346,1.144,1.194,1.116,1.619-.054,3.241-.016,4.861-.016M28.925,164.9c1.662,0,3.326-.034,4.987.015.766.022,1.009-.229.991-.994-.046-1.931-.015-3.864-.015-5.8,0-2.677,0-2.677-2.654-2.676-1.876,0-1.89,0-2.121,1.892-.087.719-.4,1.222-1.146,1.254-.793.034-1.207-.436-1.344-1.216-.111-.631.377-1.5-.322-1.844a5.071,5.071,0,0,0-2-.085c-.449,0-.9.032-1.347-.008-.721-.065-1.054.148-1.041.953q.06,3.773,0,7.548c-.013.79.284.99,1.021.97,1.661-.044,3.325-.014,4.987-.014m-7.272,12.09c1.621,0,3.244-.048,4.862.019.914.038,1.149-.3,1.122-1.163-.058-1.844-.018-3.692-.018-5.538,0-2.766,0-2.72-2.71-2.785-1.306-.031-2.3-.008-2.031,1.772a1.124,1.124,0,0,1-1.232,1.3,1.125,1.125,0,0,1-1.235-1.294c.272-1.782-.717-1.884-2.024-1.762a7.79,7.79,0,0,1-1.619,0c-.931-.11-1.121.321-1.1,1.16.046,2.385.051,4.773,0,7.159-.019.873.224,1.194,1.129,1.158,1.619-.065,3.241-.018,4.862-.018M65.7,132.54c0-.4-.016-.809,0-1.211.039-.8.084-1.427-1.123-1.429-1.192,0-1.322.511-1.264,1.453a24.217,24.217,0,0,1,0,2.691c-.036.721.28.884.947.933,1.05.077,1.648-.155,1.443-1.361a6.543,6.543,0,0,1-.009-1.075m6.321,24.7c0-.4-.03-.813.006-1.214.081-.891-.074-1.381-1.2-1.391-1.21-.011-1.155.641-1.134,1.445s.047,1.623-.007,2.429c-.058.851.092,1.275,1.128,1.294,1.1.021,1.313-.426,1.211-1.348a11.154,11.154,0,0,1-.007-1.214" transform="translate(0 -92.935)" fill="#12263f"/>
            <path id="Trazado_615522" data-name="Trazado 615522" d="M25,42.262c0-1.576-.019-3.152,0-4.728a2.953,2.953,0,0,1,3.125-3.151c3.242.025,6.483.14,9.723.236a1.86,1.86,0,0,1,1.808,1.174,1.963,1.963,0,0,1-.508,2.218c-1.538,1.72-1.532,1.724.1,3.353,2.006,2,4.02,4,6.012,6.021,1.321,1.339,1.323,2.514.015,3.86-1.16,1.194-2.332,2.379-3.531,3.534a2.31,2.31,0,0,1-3.666-.009c-2.375-2.337-4.736-4.688-7.058-7.077-.6-.62-.979-.689-1.582-.011-.792.891-1.593,2.007-3.051,1.394s-1.134-1.988-1.164-3.17c-.03-1.214-.007-2.43-.007-3.645H25M36.434,37c-2.949,0-5.5.006-8.057,0-.528,0-.869.138-.867.744.006,2.581,0,5.162,0,8,2.9-2.067,3.083-2.048,5.376.246,2.1,2.1,4.213,4.177,6.281,6.3.555.57.91.7,1.481.02a19.784,19.784,0,0,1,2.191-2.189c.661-.572.673-.949.021-1.58-2.454-2.375-4.859-4.8-7.254-7.235-1.154-1.173-1.141-2.055-.064-3.282.2-.229.4-.46.89-1.024" transform="translate(-18.236 -25.089)" fill="#12263f"/>
            <path id="Trazado_615523" data-name="Trazado 615523" d="M237.569,42.3c0,1.62-.017,3.241.007,4.861a1.878,1.878,0,0,1-1.21,1.92,1.922,1.922,0,0,1-2.106-.487c-1.779-1.574-1.792-1.562-3.451.1-1.975,1.973-3.94,3.956-5.925,5.918-1.413,1.4-2.552,1.4-3.959.013-1.156-1.136-2.305-2.278-3.431-3.443-1.25-1.294-1.256-2.484,0-3.759,2.341-2.37,4.688-4.735,7.076-7.058.583-.567.649-.9.019-1.479-.9-.829-2.106-1.625-1.413-3.159.648-1.432,2.006-1.11,3.186-1.149,2.655-.088,5.311-.179,7.967-.217,2.313-.033,3.478,1.172,3.474,3.487q0,2.229,0,4.458ZM235.3,45.4c0-2.485-.014-5.029.009-7.573.007-.784-.435-.86-1.047-.847-1.531.034-3.064.015-4.594.069a10.551,10.551,0,0,0-3.024.185c1.934,2.377,1.912,2.718-.246,4.877-1.465,1.465-2.949,2.912-4.388,4.4-.9.93-2.57,1.769-2.48,2.816.087,1.01,1.669,1.858,2.515,2.846.609.711,1,.734,1.68.032,2.28-2.369,4.626-4.674,6.962-6.989,1.366-1.353,2.3-1.359,3.707-.089.156.141.269.368.906.272" transform="translate(-158.018 -25.071)" fill="#12263f"/>
            <path id="Trazado_615524" data-name="Trazado 615524" d="M128.41,8.616c.55.348,1.015.184,1.449.253a1.9,1.9,0,0,1,1.814,1.849c.076,1.346.054,2.7.02,4.048a1.15,1.15,0,0,1-1.279,1.252c-.816-.025-1.189-.531-1.224-1.317-.006-.135,0-.27-.005-.4-.029-.894.241-1.978-.172-2.63-.428-.676-1.587-.138-2.415-.268a1.907,1.907,0,0,1-1.249-3.233q3.411-3.737,6.994-7.317a2.784,2.784,0,0,1,4.02.02c2.348,2.359,4.616,4.8,6.916,7.205a1.866,1.866,0,0,1,.436,2.115,2.012,2.012,0,0,1-1.929,1.224c-2.287.135-2.286.145-2.286,2.508,0,2.835.011,5.671-.005,8.506a2.333,2.333,0,0,1-2.531,2.65q-2.631.073-5.265,0a2.325,2.325,0,0,1-2.51-2.537c-.02-.9-.008-1.8,0-2.7a1.233,1.233,0,0,1,1.3-1.393c.794.007,1.142.566,1.224,1.341.093.876-.438,2.095.276,2.544.687.432,1.829.159,2.771.164,2.2.011,2.2,0,2.2-2.2q0-4.185,0-8.371c0-2.468.392-2.892,2.814-3.093a3.365,3.365,0,0,0,.538-.169c-1.885-1.98-3.693-3.887-5.511-5.785-.451-.471-.8-.151-1.126.2-1.732,1.825-3.466,3.647-5.271,5.546" transform="translate(-91.066 -0.001)" fill="#12263f"/>
          </g>
        </g>
      </g>
    </g>
  </g>
</svg>
