<svg xmlns="http://www.w3.org/2000/svg" xmlns:xlink="http://www.w3.org/1999/xlink" width="148" height="148" viewBox="0 0 148 148">
  <defs>
    <clipPath id="clip-path">
      <rect id="Rectángulo_378931" data-name="Rectángulo 378931" width="90.274" height="90.277" fill="#12263f"/>
    </clipPath>
  </defs>
  <g id="Grupo_1073494" data-name="Grupo 1073494" transform="translate(-1145.998 -7570.86)">
    <g id="Grupo_1073387" data-name="Grupo 1073387" transform="translate(853.133 -1986.14)">
      <g id="Grupo_1072889" data-name="Grupo 1072889" transform="translate(292.865 9557)">
        <g id="Grupo_1072868" data-name="Grupo 1072868">
          <rect id="Rectángulo_377974" data-name="Rectángulo 377974" width="147.714" height="147.714" fill="none"/>
          <path id="Trazado_610930" data-name="Trazado 610930" d="M-10.279,9.952,111.342.268l15.952,134.154L-7.187,147.951Z" transform="translate(13.831 0.049)" fill="#ffed33"/>
          <path id="Trazado_610931" data-name="Trazado 610931" d="M-22845.346-5607.035l-31.521,31.011-1.01-2.023-2.7.843-2.023-.843-5.561-1.854,37.076-36.91v2.359h2.191v2.865Z" transform="translate(22993.346 5721.227)" fill="#ffa346"/>
          <path id="Trazado_610932" data-name="Trazado 610932" d="M-22845.346-5607.035l-31.521,31.011-1.01-2.023-2.7.843-2.023-.843-5.561-1.854,37.076-36.91v2.359h2.191v2.865Z" transform="translate(22888.156 5616.811)" fill="#ffa346"/>
        </g>
        <path id="Intersección_4" data-name="Intersección 4" d="M29.7,0l1.639,13.763L17.01,27.855,0,29.566Z" transform="translate(108.761 108.21)" fill="#fbdb0a"/>
        <path id="Intersección_3" data-name="Intersección 3" d="M5.772,31.685l-2.7.842-2.022-.842-.915-.305L0,25.336,24.523.931,36.2,0l2.1,2.7L6.782,33.708Z" transform="translate(4.512 7.08)" fill="#fbdb0a"/>
        <rect id="Rectángulo_377980" data-name="Rectángulo 377980" width="86.551" height="86.551" transform="translate(31.158 32.312)" fill="#ffed33"/>
      </g>
    </g>
    <g id="Grupo_1073426" data-name="Grupo 1073426" transform="translate(1169.787 7599.208)">
      <g id="Grupo_1073425" data-name="Grupo 1073425" clip-path="url(#clip-path)">
        <path id="Trazado_615534" data-name="Trazado 615534" d="M164.269,24.357c3.219-2.018,6.117-3.838,9.02-5.653.676-.422,1.348-.929,2.205-.435s.785,1.315.785,2.118c0,1.213,0,2.425,0,3.822a28.137,28.137,0,0,0,3.845-2.254c1.406-.848,2.772-1.763,4.2-2.58a1.787,1.787,0,0,0,.989-1.8c-.044-5.03-.025-10.06-.019-15.09,0-2.092.389-2.477,2.461-2.481,2.492-.005,4.983-.012,7.474,0,1.627.01,2.117.483,2.118,2.093q.012,18.192,0,36.384c0,1.682-.49,2.151-2.2,2.151q-21.859.006-43.718,0c-1.727,0-2.249-.524-2.256-2.28-.014-3.525.02-7.051-.019-10.577a2.422,2.422,0,0,1,1.276-2.308c3.72-2.289,7.406-4.632,11.121-6.928,1.58-.976,2.664-.388,2.717,1.453.039,1.349.008,2.7.008,4.359m30.02-11.486c0-2.91-.017-5.821.012-8.73.007-.734-.126-1.132-.99-1.093-1.358.062-2.723.054-4.082,0-.776-.03-.934.3-.931,1q.031,8.8,0,17.6c0,.767.272.958.981.934,1.313-.045,2.631-.069,3.941.007.9.052,1.1-.294,1.09-1.127-.043-2.863-.017-5.726-.017-8.589m-33.042,9.417c-3,1.878-5.739,3.6-8.487,5.294a1.076,1.076,0,0,0-.547,1.043c.013,2.679.02,5.358,0,8.037-.006.634.148.935.854.926,2.444-.031,4.888-.02,7.332-.006.558,0,.863-.125.86-.775-.018-4.742-.01-9.483-.01-14.519m12.03,7.705c0-2.11-.021-4.221.01-6.33.014-.919-.06-1.393-1.112-.708-2.356,1.535-4.752,3.007-7.151,4.475a1.405,1.405,0,0,0-.765,1.36c.029,2.579.034,5.158,0,7.737-.01.767.2,1.082,1.022,1.066q3.445-.069,6.893,0c.864.018,1.139-.276,1.12-1.13-.048-2.156-.016-4.314-.016-6.471m12-7.682c-3.019,1.885-5.751,3.6-8.495,5.294a1.088,1.088,0,0,0-.507,1.068c.006,2.677.018,5.354-.006,8.03-.006.692.293.886.931.88,2.395-.02,4.79-.014,7.185,0,.528,0,.9-.073.9-.744-.014-4.737-.007-9.475-.007-14.524m9.007,9.352c0-1.686-.025-3.373.012-5.058.015-.7-.183-1.017-.943-.99-1.357.048-2.717.04-4.074,0-.7-.02-1,.17-.988.936q.052,5.057,0,10.116c-.008.786.328.936,1.006.918,1.31-.034,2.625-.062,3.933.008.916.049,1.1-.348,1.071-1.154-.048-1.591-.014-3.184-.015-4.777" transform="translate(-107.08 0)" fill="#12263f"/>
        <path id="Trazado_615535" data-name="Trazado 615535" d="M0,128.557q0-7.121,0-14.242c0-1.821.426-2.248,2.239-2.249q12.832-.008,25.664,0c1.706,0,2.189.466,2.215,2.161.029,1.88.063,3.763-.014,5.639-.042,1.022.324,1.274,1.287,1.238,1.878-.069,3.76,0,5.639-.03a2.547,2.547,0,0,1,2.007.8q3.36,3.416,6.783,6.77a2.632,2.632,0,0,1,.818,2.012c-.016,4.136.006,8.272-.014,12.409-.008,1.658-.425,2.023-2.135,2.047a5.059,5.059,0,0,1-.845-.006,1.947,1.947,0,0,0-2.334,1.371,5.418,5.418,0,0,1-5.4,3.137,5.487,5.487,0,0,1-5.133-3.347,1.734,1.734,0,0,0-1.906-1.175c-3.336.054-6.674.04-10.011.006a1.22,1.22,0,0,0-1.342.874,5.653,5.653,0,0,1-5.381,3.643,5.652,5.652,0,0,1-5.563-3.578,1.3,1.3,0,0,0-1.462-.939c-1.077.061-2.162.034-3.242.008-1.406-.032-1.867-.516-1.871-2.028C-.006,138.24,0,133.4,0,128.557m15.048,2.989c3.616,0,7.233-.028,10.849.019.924.012,1.2-.265,1.187-1.187q-.063-7.045,0-14.09c.007-.882-.2-1.229-1.161-1.224q-10.849.055-21.7,0c-.929,0-1.189.289-1.182,1.2.039,4.7.049,9.393-.006,14.089-.012,1.048.38,1.224,1.306,1.211,3.569-.046,7.139-.019,10.708-.019m1.088,3.091q-5.993,0-11.987,0c-.588,0-1.119-.054-1.1.826.041,1.974.011,3.948.015,5.923,0,.278-.013.572.273.75a3.085,3.085,0,0,0,3.213-.94,5.834,5.834,0,0,1,5.624-3.521,5.682,5.682,0,0,1,5.372,3.657,1.22,1.22,0,0,0,1.341.876c3.431-.035,6.863-.028,10.294-.005a1.253,1.253,0,0,0,1.389-.837,5.744,5.744,0,0,1,5.641-3.693,5.674,5.674,0,0,1,5.444,3.761c.324.779.809.8,1.435.741.734-.075.527-.67.531-1.092.02-2.115-.173-4.25.054-6.341.311-2.862-.837-4.762-2.729-6.878-2.7-3.016-5.6-4.339-9.556-3.805-1.076.145-1.31.425-1.283,1.413.062,2.3.036,4.606.014,6.909-.017,1.759-.527,2.254-2.281,2.258-3.9.008-7.8,0-11.7,0m-1.152,9.06a2.934,2.934,0,0,0-2.859-3.044,2.986,2.986,0,1,0-.109,5.97,2.91,2.91,0,0,0,2.968-2.926m21.119,2.922a3.071,3.071,0,0,0,3.032-3.039,3.105,3.105,0,0,0-3.018-2.932,3.033,3.033,0,0,0-3,2.918,2.992,2.992,0,0,0,2.985,3.052" transform="translate(0 -80.454)" fill="#12263f"/>
        <path id="Trazado_615536" data-name="Trazado 615536" d="M157.138,255.764c-2.02,0-4.04-.022-6.06.007a1.674,1.674,0,0,1-1.922-1.88c-.019-1.362-.054-2.727.011-4.086a5.881,5.881,0,0,1,3.212-5.267c.715-.374.654-.681.4-1.3a5.926,5.926,0,0,1,1.86-7.3,6.048,6.048,0,0,1,7.208.035,5.949,5.949,0,0,1,1.8,7.318c-.281.663-.293.929.416,1.253A4.98,4.98,0,0,1,166.492,247c.283.6.507.714,1.147.416.7-.327.392-.638.213-1.062a6,6,0,1,1,10.889-.14c-.178.447-.59.828.192,1.223.735.371.9-.046,1.14-.516a4.951,4.951,0,0,1,2.348-2.344c.793-.358.72-.71.434-1.38a5.983,5.983,0,1,1,11.209-4.092,5.473,5.473,0,0,1-.359,4.238c-.315.6-.23.828.382,1.154a5.925,5.925,0,0,1,3.25,5.656c-.006,1.221.019,2.443-.006,3.664-.03,1.453-.5,1.931-1.96,1.937-3.852.017-7.7.025-11.557-.007-.95-.008-1.6.008-1.534,1.3.062,1.148-.653,1.773-1.881,1.768-4.745-.018-9.489-.011-14.234,0-1.261,0-2-.565-1.9-1.865.083-1.089-.457-1.218-1.348-1.2-1.925.047-3.852.015-5.778.014m1.033-2.926h3.239c3.16,0,3.16,0,2.808-3.188a2.933,2.933,0,0,0-2.935-2.846c-2.062-.082-4.133-.087-6.194,0a2.9,2.9,0,0,0-2.863,2.907c-.051.748.018,1.5-.027,2.252-.041.686.245.893.9.881,1.69-.032,3.38-.01,5.07-.009m30.126,0h3.243c2.805,0,2.805,0,2.736-2.855a2.927,2.927,0,0,0-3-3.191c-1.971-.076-3.949-.072-5.92,0a2.911,2.911,0,0,0-3.013,3.039c-.034.656.026,1.319-.025,1.973-.062.8.241,1.075,1.045,1.05,1.643-.051,3.289-.015,4.934-.015m-15.109,2.914h3.376c2.815,0,2.815,0,2.7-2.872a2.993,2.993,0,0,0-2.983-3.089c-2.014-.064-4.033-.058-6.047,0a2.857,2.857,0,0,0-2.888,2.554c-.132.777-.056,1.588-.128,2.379-.074.81.265,1.062,1.05,1.041,1.64-.045,3.281-.014,4.922-.013m-17.92-14.992a2.962,2.962,0,0,0,2.893,2.988,2.987,2.987,0,1,0,.127-5.972,2.929,2.929,0,0,0-3.02,2.984m20.961,3.066a3,3,0,0,0-2.972-3.068,3.034,3.034,0,0,0-2.977,2.934,2.972,2.972,0,0,0,2.983,3.042,2.931,2.931,0,0,0,2.966-2.907m12.029-.078a2.986,2.986,0,1,0,.1-5.97,3,3,0,0,0-3.041,2.854,3.029,3.029,0,0,0,2.94,3.116" transform="translate(-107.067 -168.539)" fill="#12263f"/>
        <path id="Trazado_615537" data-name="Trazado 615537" d="M101.177,35.189A2.654,2.654,0,0,1,98.9,36.476c-.956-.051-1.414-1.411-1.374-2.133.058-1.044,1.49-1.38,2.248-1.37.99.013.805,1.45,1.4,2.216" transform="translate(-70.018 -23.673)" fill="#12263f"/>
        <path id="Trazado_615538" data-name="Trazado 615538" d="M118.6,29.306c-.36-.014-1.442-1.92-1.2-2.408a2.261,2.261,0,0,1,2.383-.936c1.123.116.769,1.429,1.049,2.219.131.37-1.461,1.155-2.233,1.125" transform="translate(-84.263 -18.623)" fill="#12263f"/>
        <path id="Trazado_615539" data-name="Trazado 615539" d="M221.561,37.923c.555.017,2.54,1.423,2.41,1.621-.49.749-.714,1.751-1.623,2.123-.4.165-2.269-1.25-2.136-1.508.41-.794.621-1.736,1.349-2.236" transform="translate(-158.096 -27.227)" fill="#12263f"/>
        <path id="Trazado_615540" data-name="Trazado 615540" d="M270.585,214.26c.69.486,1.7.584,2.247,1.4a6.071,6.071,0,0,1-1.491,2.413,6.663,6.663,0,0,1-2.271-1.529,5,5,0,0,1,1.515-2.283" transform="translate(-193.176 -153.827)" fill="#12263f"/>
        <path id="Trazado_615541" data-name="Trazado 615541" d="M49.227,71.653c.629.611,1.564.97,1.972,1.857.14.305-1.451,2.188-1.681,2.048a5.533,5.533,0,0,1-2.166-1.688,8.428,8.428,0,0,1,1.875-2.217" transform="translate(-33.994 -51.443)" fill="#12263f"/>
        <path id="Trazado_615542" data-name="Trazado 615542" d="M183.467,27.265c-.629-.71-2.232.212-2.04-1.275.083-.651-.489-2.143,1-2.048.756.048,2.219-.454,2.167,1.1-.025.745.027,1.844-1.123,2.223" transform="translate(-130.225 -17.16)" fill="#12263f"/>
        <path id="Trazado_615543" data-name="Trazado 615543" d="M82.032,45.179c-.611.408-1.322.915-2.069,1.363-.189.113-1.858-1.916-1.831-2.2a10.593,10.593,0,0,1,2.379-1.679,6.8,6.8,0,0,1,1.521,2.513" transform="translate(-56.095 -30.632)" fill="#12263f"/>
        <path id="Trazado_615544" data-name="Trazado 615544" d="M131.611,289.263c-.709-.488-2.181.258-2.05-1.193.064-.707-.361-2.272,1.309-2.036.758.107,2.146-.27,1.825,1.309-.138.68.318,1.881-1.084,1.92" transform="translate(-93.012 -205.34)" fill="#12263f"/>
        <path id="Trazado_615545" data-name="Trazado 615545" d="M73.746,261.931c-.594.632-.789,1.652-1.687,2.078a6.636,6.636,0,0,1-2.2-1.818,7.658,7.658,0,0,1,1.823-2.054,5.48,5.48,0,0,1,2.062,1.794" transform="translate(-50.157 -186.765)" fill="#12263f"/>
        <path id="Trazado_615546" data-name="Trazado 615546" d="M92.236,273.4c-.6.754-.486,2.188-1.5,2.143-.751-.033-2.182-.4-2.168-1.457.01-.7.489-2.047,1.462-2.063a2.6,2.6,0,0,1,2.208,1.378" transform="translate(-63.586 -195.298)" fill="#12263f"/>
        <path id="Trazado_615547" data-name="Trazado 615547" d="M142.169,23.67c.377,1.763-.946,1.354-1.823,1.475-1.666.228-1.129-1.152-1.245-1.885-.267-1.689,1.2-.98,1.911-1.155,1.489-.364.946.928,1.157,1.565" transform="translate(-99.844 -15.825)" fill="#12263f"/>
        <path id="Trazado_615548" data-name="Trazado 615548" d="M205.165,30.717c-.638.707-.38,2.135-1.437,2.181-.724.032-2.148-.184-2.153-1.189,0-.7-.06-2.241,1.25-2.216a2.629,2.629,0,0,1,2.34,1.223" transform="translate(-144.719 -21.175)" fill="#12263f"/>
        <path id="Trazado_615549" data-name="Trazado 615549" d="M286.783,178.832c-.384-.687-2.148.429-1.884-1.388.285-1.959.276-1.979,2.136-1.707.507.074,1.263-.154,1.091.937-.329,2.084-.371,2.282-1.343,2.158" transform="translate(-204.523 -126.081)" fill="#12263f"/>
        <path id="Trazado_615550" data-name="Trazado 615550" d="M279.679,195.112c.841.49,1.971.255,2.422,1.209.218.461-.932,2.536-1.223,2.423-.826-.322-2.12-.306-2.257-1.253a2.973,2.973,0,0,1,1.058-2.379" transform="translate(-200.024 -140.08)" fill="#12263f"/>
        <path id="Trazado_615551" data-name="Trazado 615551" d="M36.077,92.433c.055-.731,1.393-2.544,1.638-2.364.706.518,2.05.554,1.987,1.625-.042.719-.45,1.971-1.395,1.951a2.808,2.808,0,0,1-2.23-1.211" transform="translate(-25.901 -64.656)" fill="#12263f"/>
        <path id="Trazado_615552" data-name="Trazado 615552" d="M63.66,59.992a8.126,8.126,0,0,1-2-1.881c-.031-.254,1.762-2.115,2.012-2.01.9.379,1.333,1.249,1.889,1.977.124.163-1.618,1.9-1.9,1.914" transform="translate(-44.267 -40.274)" fill="#12263f"/>
        <path id="Trazado_615553" data-name="Trazado 615553" d="M111.876,281.759c-.6.556.125,2.115-1.171,2.087-.766-.017-2.225.005-2.252-1.214-.016-.7.112-1.979,1.222-2.17.87-.15,2.234.765,2.2,1.3" transform="translate(-77.863 -201.346)" fill="#12263f"/>
        <path id="Trazado_615554" data-name="Trazado 615554" d="M289.459,154.547c.514.1,1.614-.408,1.311.844-.181.748.629,2.151-.879,2.136-.716-.007-2.256.693-2.181-1.207.046-1.174-.012-2.265,1.749-1.772" transform="translate(-206.558 -110.869)" fill="#12263f"/>
        <path id="Trazado_615555" data-name="Trazado 615555" d="M161.823,21.443c2.1-.423,1.553.948,1.531,2.023-.035,1.667-1.262.9-1.954.9-1.767-.009-.8-1.416-.921-2.191-.194-1.293.847-.685,1.344-.728" transform="translate(-115.101 -15.319)" fill="#12263f"/>
        <path id="Trazado_615556" data-name="Trazado 615556" d="M58.821,249.037A5.928,5.928,0,0,1,56.9,251.1a4.061,4.061,0,0,1-1.562-1.528c-.127-.2,1.866-2.028,2.085-1.9a4.38,4.38,0,0,1,1.4,1.364" transform="translate(-39.724 -177.811)" fill="#12263f"/>
        <path id="Trazado_615557" data-name="Trazado 615557" d="M173.583,108.709a5.929,5.929,0,0,1-.007.9c-.1.511.335,1.289-.38,1.475a6.536,6.536,0,0,1-2.233,0c-.311-.031-.3-.431-.3-.712a15.216,15.216,0,0,0-.021-1.969c-.2-1.4.277-1.819,1.733-1.8,2.115.027.766,1.573,1.209,2.1" transform="translate(-122.48 -76.535)" fill="#12263f"/>
        <path id="Trazado_615558" data-name="Trazado 615558" d="M216.124,108.864v.421c0,1.7-1.031,2.406-2.617,1.8-.245-.094-.421-.226-.423-.483a13.233,13.233,0,0,1,.069-3.49c.278-1.017,1.442-.345,2.2-.49.493-.095.8.127.773.7-.025.514-.005,1.029-.005,1.544Z" transform="translate(-152.921 -76.488)" fill="#12263f"/>
        <path id="Trazado_615559" data-name="Trazado 615559" d="M259.05,108.736v.421a1.771,1.771,0,0,1-2.68,1.754.53.53,0,0,1-.367-.522c-.009-1.123,0-2.246-.008-3.369,0-.417.235-.517.614-.585,2.116-.377,2.441-.082,2.441,2.3" transform="translate(-183.791 -76.317)" fill="#12263f"/>
      </g>
    </g>
  </g>
</svg>
