<svg xmlns="http://www.w3.org/2000/svg" xmlns:xlink="http://www.w3.org/1999/xlink" width="120.828" height="120.83" viewBox="0 0 120.828 120.83">
  <defs>
    <clipPath id="clip-path">
      <rect id="Rectángulo_378692" data-name="Rectángulo 378692" width="60.17" height="75.225" fill="#12263f"/>
    </clipPath>
  </defs>
  <g id="Grupo_1073145" data-name="Grupo 1073145" transform="translate(-292.865 -9557)">
    <g id="Grupo_1072889" data-name="Grupo 1072889" transform="translate(292.865 9557)">
      <g id="Grupo_1072868" data-name="Grupo 1072868">
        <rect id="Rectángulo_377974" data-name="Rectángulo 377974" width="120.595" height="120.595" fill="none"/>
        <path id="Trazado_610930" data-name="Trazado 610930" d="M-10.279,8.174,89.014.268l13.023,109.525L-7.755,120.838Z" transform="translate(13.179 -0.009)" fill="#ffed33"/>
        <path id="Trazado_610931" data-name="Trazado 610931" d="M-22853.207-5608.83l-25.732,25.318-.826-1.652-2.2.688-1.652-.688-4.539-1.514,30.268-30.133v1.926h1.791v2.339Z" transform="translate(22974.035 5702.058)" fill="#ffa346"/>
        <path id="Trazado_610932" data-name="Trazado 610932" d="M-22853.207-5608.83l-25.732,25.318-.826-1.652-2.2.688-1.652-.688-4.539-1.514,30.268-30.133v1.926h1.791v2.339Z" transform="translate(22888.156 5616.811)" fill="#ffa346"/>
      </g>
      <path id="Intersección_4" data-name="Intersección 4" d="M24.244,0l1.338,11.236L13.887,22.741,0,24.138Z" transform="translate(88.794 88.344)" fill="#fbdb0a"/>
      <path id="Intersección_3" data-name="Intersección 3" d="M4.713,25.868l-2.2.687L.859,25.868l-.747-.249L0,20.685,20.021.76,29.558,0l1.711,2.2L5.537,27.519Z" transform="translate(3.683 5.78)" fill="#fbdb0a"/>
      <rect id="Rectángulo_377980" data-name="Rectángulo 377980" width="70.661" height="70.661" transform="translate(25.438 26.38)" fill="#ffed33"/>
      <g id="Grupo_1073153" data-name="Grupo 1073153" transform="translate(24.83 21.816)">
        <g id="Grupo_1073152" data-name="Grupo 1073152" clip-path="url(#clip-path)">
          <path id="Trazado_615236" data-name="Trazado 615236" d="M29.954,75.22q-11.526,0-23.052,0c-4.36,0-6.9-2.556-6.9-6.939Q0,48.861,0,29.443C0,25.244,2.423,22.7,6.6,22.6c.828-.021.944-.313.938-1.024-.03-3.257-.019-6.515-.011-9.772.007-2.776,1.5-4.444,4.237-4.225,4.487.358,8.517-1.305,12.662-2.476C29.872,3.565,35.294,1.93,40.728.339c3.957-1.159,7.293.715,8.391,4.705a4.544,4.544,0,0,1,.249.834c.095,1.347.753,1.738,2.115,1.709,2.173-.047,3.645,1.634,3.662,3.915q.038,5.074,0,10.148a1.152,1.152,0,0,0,.885,1.342,6.043,6.043,0,0,1,4.131,5.96q.024,19.919,0,39.839a6.213,6.213,0,0,1-6.524,6.424c-7.893.019-15.785.006-23.678.006M2.517,33.894v1.213q0,16.662,0,33.324C2.52,71.256,4,72.7,6.88,72.7q23.176,0,46.353,0c3.005,0,4.416-1.431,4.417-4.47,0-10.565-.015-21.13.025-31.7,0-1.1-.219-1.455-1.405-1.452-16.286.044-32.572.022-48.858.041a8.183,8.183,0,0,1-4.9-1.234m34.674-1.3c3.336,0,6.613-.005,9.891.005.579,0,.542-.375.542-.757,0-3.714-.009-7.428.01-11.142,0-.542-.163-.763-.706-.947a6.094,6.094,0,0,1-4-4.008.833.833,0,0,0-.957-.692q-10.642.019-21.284,0a.836.836,0,0,0-.949.7,6.085,6.085,0,0,1-4.006,4,.833.833,0,0,0-.694.956c.017,3.672.006,7.345.013,11.017,0,.388-.137.872.55.87,3.275-.01,6.55,0,9.891,0-2.408-4.778-2.04-8.261,1.061-10.817a7.558,7.558,0,0,1,9.481-.074c3.156,2.521,3.547,5.993,1.154,10.89M31.33,10.052q-9.58,0-19.16,0c-1.842,0-2.132.28-2.133,2.063,0,6.428.023,12.857-.026,19.285-.008,1.007.286,1.262,1.249,1.231.868-.028,1.323-.079,1.3-1.18-.074-4.257-.009-8.515-.048-12.773-.008-.834.15-1.141,1.073-1.144a3.647,3.647,0,0,0,3.932-3.9c.007-.874.234-1.109,1.111-1.105q12.711.05,25.422,0c.895,0,1.092.264,1.1,1.12a3.621,3.621,0,0,0,3.82,3.877c1.07-.009,1.193.393,1.185,1.29-.038,4.174.023,8.349-.044,12.523-.017,1.064.29,1.31,1.315,1.3.984-.008,1.24-.273,1.233-1.254-.045-6.428-.022-12.857-.024-19.285,0-1.737-.307-2.049-2.022-2.05q-9.643,0-19.285,0M31.3,22.587a5.006,5.006,0,1,0,5.038,4.975A5.026,5.026,0,0,0,31.3,22.587M25.947,7.3q.015.118.029.236H45.349c1.868,0,1.868,0,1.323-1.807-.83-2.757-2.541-3.712-5.321-2.94-1.4.389-2.79.822-4.187,1.231Q31.557,5.663,25.947,7.3M7.521,28.89c0-1-.021-2,.008-2.994.017-.55-.105-.794-.741-.823a3.8,3.8,0,1,0,.036,7.544c.546-.035.721-.2.7-.732-.03-1-.009-2-.008-2.994m47.633-3.575c0,2.339.024,4.468-.011,6.6-.016.955.661.724,1.116.663.5-.066,1.379.505,1.387-.636s.058-2.26-.031-3.382a3.727,3.727,0,0,0-2.461-3.242" transform="translate(0 0)" fill="#12263f"/>
          <path id="Trazado_615237" data-name="Trazado 615237" d="M63.9,182.849c1.462-1.438,2.808-2.809,4.21-4.118.571-.533.538-.863-.01-1.394q-2.879-2.789-5.67-5.668c-.506-.52-.827-.466-1.3.023-1.6,1.647-3.257,3.239-4.85,4.892-.53.551-.845.679-1.467.049Q47.149,168.885,39.4,161.22c-.6-.594-.561-.912.018-1.469q2.754-2.648,5.4-5.4c.556-.58.849-.515,1.377.022,2.779,2.83,5.624,5.6,8.389,8.44.7.72,1.106.852,1.846.041,1.434-1.571,3.023-3,4.478-4.555.656-.7,1.045-.737,1.75-.02,3.978,4.052,8.034,8.028,12.006,12.086.752.768,1.166.744,1.844-.028,1.2-1.368,2.5-2.654,3.773-4a1.282,1.282,0,0,1,.3,1.138q.015,7.268.007,14.535c0,.53.138,1.066-.758,1.06-5.179-.036-10.358-.021-15.537-.029-.068,0-.136-.064-.4-.192m14.171-10.193-.35-.223c-.449.528-.928,1.033-1.338,1.589-.584.792-1.012.63-1.648-.015-4.016-4.076-8.089-8.094-12.1-12.17-.641-.651-1.007-.726-1.667-.02-1.539,1.646-3.2,3.18-4.754,4.812-.542.569-.839.547-1.378-.006q-3.408-3.5-6.907-6.913c-.8-.778-1.463-2.174-2.452-2.141-.97.032-1.6,1.445-2.457,2.167-.585.494-.681.862-.055,1.479q5.979,5.891,11.874,11.868c.553.559.874.525,1.395-.019,1.5-1.568,3.095-3.05,4.574-4.638.705-.757,1.118-.906,1.933-.057,2.861,2.983,5.8,5.889,8.761,8.779.67.655.849,1.1.031,1.744a18.471,18.471,0,0,0-1.612,1.645c2.713,0,5.124,0,7.536,0,.392,0,.627-.094.625-.552-.011-2.444-.005-4.889-.005-7.333" transform="translate(-29.2 -115.354)" fill="#12263f"/>
          <path id="Trazado_615238" data-name="Trazado 615238" d="M71.914,107.451a6.253,6.253,0,0,1-.725,0c-.395-.052-1.028.217-1.134-.213a6.232,6.232,0,0,1-.01-2.1c.028-.258.421-.186.662-.19a13.426,13.426,0,0,0,1.624-.016c1.131-.158,1.426.256,1.452,1.4.041,1.835-1.263.861-1.869,1.123" transform="translate(-52.424 -78.601)" fill="#12263f"/>
          <path id="Trazado_615239" data-name="Trazado 615239" d="M166.626,105.073c.167,0,.333,0,.5,0a1.484,1.484,0,0,1,1.417,2.234.463.463,0,0,1-.492.274,20.325,20.325,0,0,1-2.748-.024c-1.007-.134-.359-1-.478-1.521-.084-.37-.24-.988.549-.962.417.014.834,0,1.25,0" transform="translate(-123.44 -78.735)" fill="#12263f"/>
        </g>
      </g>
    </g>
  </g>
</svg>
