<svg xmlns="http://www.w3.org/2000/svg" xmlns:xlink="http://www.w3.org/1999/xlink" width="125" height="125" viewBox="0 0 125 125">
  <defs>
    <clipPath id="clip-path">
      <rect id="Rectángulo_379171" data-name="Rectángulo 379171" width="65.429" height="65.084" fill="#12263f"/>
    </clipPath>
  </defs>
  <g id="Grupo_1073795" data-name="Grupo 1073795" transform="translate(-738.496 -952.5)">
    <g id="Grupo_1072980" data-name="Grupo 1072980" transform="translate(-5.172 -5043.5)">
      <g id="Grupo_1072868" data-name="Grupo 1072868" transform="translate(358 1)">
        <rect id="Rectángulo_377974" data-name="Rectángulo 377974" width="125" height="125" transform="translate(385.668 5995)" fill="none"/>
        <path id="Trazado_610930" data-name="Trazado 610930" d="M-10.279,8.447,92.441.268l13.473,113.306L-7.668,125Z" transform="translate(398.947 5995)" fill="#fff"/>
        <path id="Trazado_610931" data-name="Trazado 610931" d="M-22852-5608.555l-26.621,26.192-.854-1.708-2.277.712-1.709-.712-4.7-1.565,31.316-31.174v1.993h1.85v2.42Z" transform="translate(23362.668 11700)" fill="#ffa346"/>
        <path id="Trazado_610932" data-name="Trazado 610932" d="M-22852-5608.555l-26.621,26.192-.854-1.708-2.277.712-1.709-.712-4.7-1.565,31.316-31.174v1.993h1.85v2.42Z" transform="translate(23273.826 11611.811)" fill="#ffa346"/>
      </g>
      <path id="Intersección_4" data-name="Intersección 4" d="M23221.221,11791.125l1.383,11.624-12.1,11.9-14.367,1.445Z" transform="translate(-22360.613 -5703.732)" fill="#ffe3c7"/>
      <path id="Intersección_3" data-name="Intersección 3" d="M23116.354,11732.74l-2.279.711-1.707-.711-.773-.258-.115-5.1,20.711-20.613,9.867-.786,1.77,2.278-26.621,26.19Z" transform="translate(-22364 -5704)" fill="#ffe3c7"/>
      <rect id="Rectángulo_377980" data-name="Rectángulo 377980" width="73" height="73" transform="translate(769.668 6023)" fill="#fff"/>
    </g>
    <g id="Grupo_1073805" data-name="Grupo 1073805" transform="translate(765.512 982.458)">
      <g id="Grupo_1073804" data-name="Grupo 1073804" clip-path="url(#clip-path)">
        <path id="Trazado_615959" data-name="Trazado 615959" d="M32.781,92.442H1.251A1.312,1.312,0,0,1,.178,90.47c.213-.363.588-.2.888-.2,2.283-.014,4.567-.043,6.849.011.788.019.957-.24.946-.98-.042-2.79-.023-5.581-.013-8.371,0-1.212.332-1.536,1.554-1.54q3.914-.014,7.828,0c1.143.005,1.488.35,1.493,1.492.012,2.827.025,5.654-.011,8.48-.009.7.171.935.9.916,1.883-.05,3.77-.056,5.653,0,.822.025,1.1-.166,1.093-1.055-.046-5.182-.023-10.365-.022-15.547,0-1.678.218-1.9,1.848-1.9q3.7,0,7.393,0c1.341,0,1.638.307,1.639,1.677,0,5.255.023,10.51-.02,15.765-.007.872.245,1.092,1.084,1.064,1.846-.062,3.7-.063,5.544,0,.818.028,1.022-.206,1.019-1.019-.032-7.719-.02-15.439-.019-23.158,0-1.742.2-1.942,1.918-1.943q3.533,0,7.067,0c1.667,0,1.9.224,1.9,1.856,0,7.683.023,15.366-.027,23.049-.007,1.038.317,1.245,1.266,1.216,2.172-.066,4.351.046,6.521-.05,1.068-.047.908.529.958,1.195.059.793-.16,1.039-1,1.036q-15.819-.047-31.638-.021M48,78.182q0,5.593,0,11.186c0,.473-.093.926.671.906,1.736-.047,3.475-.034,5.212,0,.565.01.643-.244.642-.719q-.015-11.241,0-22.481c0-.565-.16-.753-.735-.741-1.556.035-3.116.065-4.669-.009-.882-.042-1.165.176-1.149,1.11C48.037,71.014,48,74.6,48,78.182M29.514,82.052c0,2.461.025,4.922-.016,7.381-.012.683.2.86.858.842,1.627-.044,3.257-.038,4.884,0,.6.013.807-.151.8-.782q-.036-7.382,0-14.763c0-.626-.194-.8-.8-.785-1.591.037-3.185.051-4.775,0-.748-.026-.99.171-.973.95.052,2.387.019,4.776.019,7.164m-11.97,3.824c0-1.193-.01-2.386.005-3.579.006-.447-.024-.751-.618-.74-1.771.032-3.543.025-5.314,0-.5-.006-.6.212-.6.651.013,2.458.018,4.916,0,7.375,0,.512.153.693.676.685,1.7-.026,3.4-.038,5.1.005.654.017.783-.239.765-.82-.037-1.192-.011-2.386-.011-3.579" transform="translate(0 -50.204)" fill="#12263f"/>
        <path id="Trazado_615960" data-name="Trazado 615960" d="M60.1,205.423a2.881,2.881,0,0,1-1.578,2.793,1.046,1.046,0,0,0-.552,1.588c.45.986.845,2,1.245,3.005a.96.96,0,0,0,1.367.646,2.9,2.9,0,0,1,3.232.918c.653.677,1.322,1.34,2,2a2.875,2.875,0,0,1,.961,3.121,1.059,1.059,0,0,0,.742,1.519c1.021.361,2.012.808,3.009,1.233a.912.912,0,0,0,1.346-.455,3.123,3.123,0,0,1,3.245-1.7c.83.045,1.665.021,2.5,0a3.014,3.014,0,0,1,2.975,1.61,1,1,0,0,0,1.493.554q1.485-.66,3.012-1.225a1,1,0,0,0,.721-1.427,2.879,2.879,0,0,1,.949-3.218c.653-.626,1.3-1.26,1.916-1.923a2.932,2.932,0,0,1,3.308-.986.958.958,0,0,0,1.359-.663q.583-1.517,1.254-3a1,1,0,0,0-.52-1.5,3.13,3.13,0,0,1-1.622-3.285c.051-.776.239-1.109,1.121-1.1s1.28.181,1.066,1.132a1.3,1.3,0,0,0,.752,1.51,2.905,2.905,0,0,1,1.283,3.916c-.44,1.108-.9,2.208-1.377,3.3a2.99,2.99,0,0,1-3.7,1.858c-1.21-.293-4.046,2.477-3.768,3.68a2.915,2.915,0,0,1-1.7,3.568c-1.185.537-2.391,1.03-3.606,1.494a2.773,2.773,0,0,1-3.636-1.271,1.406,1.406,0,0,0-1.588-.817,2.852,2.852,0,0,1-.866.047,2.885,2.885,0,0,0-3.285,1.34c-.7,1.1-2.033,1.141-3.254.666q-1.768-.688-3.506-1.453a2.9,2.9,0,0,1-1.747-3.644,1.192,1.192,0,0,0-.44-1.412,6.891,6.891,0,0,1-.868-.82c-.819-1.011-1.62-1.732-3.159-1.335a2.452,2.452,0,0,1-2.765-1.657c-.583-1.242-1.094-2.521-1.568-3.81a2.812,2.812,0,0,1,1.316-3.629,1.271,1.271,0,0,0,.726-1.4c-.062-.5-.45-1.3.683-1.284.876.01,1.727-.082,1.5,1.224a1.673,1.673,0,0,0,.019.3" transform="translate(-43.532 -159.548)" fill="#12263f"/>
        <path id="Trazado_615961" data-name="Trazado 615961" d="M75.059,5.119C72.637,6.088,70.5,6.94,68.366,7.8Q46.925,16.409,25.493,25.042c-.821.331-1.1.144-1.422-.611-.341-.8-.233-1.13.617-1.469Q48.766,13.353,72.819,3.68c.385-.154.758-.336,1.348-.6C73.1,2.748,72.26,2.437,71.4,2.239c-.622-.143-.812-.321-.6-1,.432-1.409.381-1.424,1.853-.972C74.3.774,75.967,1.269,77.619,1.8c1.056.338,1.311.944.782,1.909-.957,1.745-1.983,3.453-2.921,5.209-.5.929-.945.237-1.383.026s-1.066-.375-.531-1.151c.51-.74.888-1.572,1.494-2.672" transform="translate(-18.694 0)" fill="#12263f"/>
        <path id="Trazado_615962" data-name="Trazado 615962" d="M107.385,215.816a11.952,11.952,0,0,1-11.9-10.854c-.04-.384-.46-1.168.485-1.088.627.053,1.553-.568,1.7.864a9.757,9.757,0,0,0,19.138,1.69,7.677,7.677,0,0,0,.324-1.807c.064-1.416,1.1-.633,1.689-.746.756-.145.521.512.5.883a11.984,11.984,0,0,1-11.936,11.058" transform="translate(-74.619 -159.44)" fill="#12263f"/>
      </g>
    </g>
  </g>
</svg>
