<svg xmlns="http://www.w3.org/2000/svg" xmlns:xlink="http://www.w3.org/1999/xlink" width="125" height="125" viewBox="0 0 125 125">
  <defs>
    <clipPath id="clip-path">
      <rect id="Rectángulo_378072" data-name="Rectángulo 378072" width="68.666" height="68.853" fill="#12263f"/>
    </clipPath>
  </defs>
  <g id="Grupo_1073720" data-name="Grupo 1073720" transform="translate(-386.496 -952.5)">
    <g id="Grupo_1072978" data-name="Grupo 1072978" transform="translate(0.828 -5042.5)">
      <rect id="Rectángulo_377974" data-name="Rectángulo 377974" width="125" height="125" transform="translate(385.668 5995)" fill="none"/>
      <path id="Trazado_610930" data-name="Trazado 610930" d="M-10.279,8.447,92.441.268l13.473,113.306L-7.668,125Z" transform="translate(398.947 5995)" fill="#fff"/>
      <path id="Trazado_610931" data-name="Trazado 610931" d="M-22852-5608.555l-26.621,26.192-.854-1.708-2.277.712-1.709-.712-4.7-1.565,31.316-31.174v1.993h1.85v2.42Z" transform="translate(23362.668 11700)" fill="#ffa346"/>
      <path id="Trazado_610932" data-name="Trazado 610932" d="M-22852-5608.555l-26.621,26.192-.854-1.708-2.277.712-1.709-.712-4.7-1.565,31.316-31.174v1.993h1.85v2.42Z" transform="translate(23273.826 11611.811)" fill="#ffa346"/>
    </g>
    <path id="Intersección_7" data-name="Intersección 7" d="M23221.221,11791.125l1.383,11.624-12.1,11.9-14.367,1.445Z" transform="translate(-22717.785 -10747.232)" fill="#ffe3c7"/>
    <path id="Intersección_8" data-name="Intersección 8" d="M23116.354,11732.74l-2.279.711-1.707-.711-.773-.258-.115-5.1,20.711-20.613,9.867-.786,1.77,2.278-26.621,26.19Z" transform="translate(-22721.172 -10747.5)" fill="#ffe3c7"/>
    <rect id="Rectángulo_378032" data-name="Rectángulo 378032" width="73" height="73" transform="translate(412.496 979.5)" fill="#fff"/>
    <g id="Grupo_1073048" data-name="Grupo 1073048" transform="translate(414.663 980.573)">
      <g id="Grupo_1073047" data-name="Grupo 1073047" clip-path="url(#clip-path)">
        <path id="Trazado_613369" data-name="Trazado 613369" d="M63.231,48.469A9.791,9.791,0,0,1,67.27,54.22a9.592,9.592,0,0,1,.3,2.29c-.009,3.5,0,6.99-.005,10.486,0,1.424-.422,1.853-1.825,1.854q-12.748.006-25.5,0c-1.343,0-1.778-.439-1.781-1.785-.008-3.054.085-6.11-.025-9.16-.138-3.827,1.01-7.01,4.3-9.391-.425-.216-.756-.389-1.091-.554a8.882,8.882,0,0,1-4.036-3.936A1.305,1.305,0,0,1,38.7,41.955a3.326,3.326,0,0,0,3.081-4.1.99.99,0,0,0-.451-.688c-2.345-1.942-2.369-4.69-.032-6.554a1.089,1.089,0,0,0,.479-1.008,10.94,10.94,0,0,1,.6-4.228c.2-.546.026-.7-.533-.7-4.231.016-8.462.022-12.693,0-.669,0-.7.264-.6.793a7.288,7.288,0,0,1,.161,1.638,3.276,3.276,0,0,0,1.171,3.133,3.269,3.269,0,0,1,.767,3.958,3.6,3.6,0,0,1-3.393,2.4,1.145,1.145,0,0,0-1.288.973,8.634,8.634,0,0,1-3.243,4.61c-.794.566-.644,1.257-.6,1.949.044.723.753.565,1.191.661a16.2,16.2,0,0,1,5.243,1.565,8.821,8.821,0,0,1,4.547,7.6c.111,4.412.026,8.829.041,13.244,0,1.027-.482,1.451-1.489,1.45q-15.066-.015-30.132-.01c-1.155,0-1.5-.358-1.507-1.523-.009-4.3-.037-8.61.008-12.914a9.153,9.153,0,0,1,7.627-8.969C8.373,45.113,9.1,45,9.808,44.8c.443-.122,1.157.049,1.216-.637s.224-1.394-.57-1.96a8.846,8.846,0,0,1-3.3-4.7c-.192-.618-.417-.877-1.117-.893a3.746,3.746,0,0,1-3.627-2.695,3.7,3.7,0,0,1,1.469-4.273,1.267,1.267,0,0,0,.563-1.178,34.456,34.456,0,0,1,.132-5.286,7.659,7.659,0,0,1,7.466-6.413c1.1-.026,2.211-.06,3.31.01.821.053,1.055-.193,1.048-1.03-.042-4.562-.021-9.124-.019-13.686C16.377.347,16.723,0,18.439,0q9.216,0,18.432,0c1.62,0,1.981.374,1.987,2.025.008,2.39.008,2.39,2.421,2.39,2.649,0,5.3-.006,7.947,0,1.337,0,1.771.442,1.774,1.792.008,3.569.015,7.138-.007,10.706,0,.683.081.91.9.819a11.219,11.219,0,0,1,12.346,11.03,2.508,2.508,0,0,0,.926,2.254,3.732,3.732,0,0,1-.021,5.726,2.5,2.5,0,0,0-.78,2.91,2.93,2.93,0,0,0,2.456,2.261c2.035.386,2.323,1.035,1.179,2.808a9.515,9.515,0,0,1-4.769,3.742M16.581,66.44c2.171,0,4.344-.066,6.51.028,1.067.047,1.25-.334,1.231-1.289-.058-2.905.016-5.813-.043-8.718-.018-.885.251-1.083,1.1-1.095.9-.013,1.183.2,1.162,1.144-.065,3.015-.009,6.033-.036,9.05-.006.629.1.946.83.9a24.9,24.9,0,0,1,2.868,0c.6.028.737-.207.734-.764-.023-3.9.041-7.8-.039-11.7a6.939,6.939,0,0,0-5.041-6.41.964.964,0,0,0-1.335.525c-.782,1.456-1.606,2.891-2.448,4.313a1.147,1.147,0,0,1-1.912.418c-.233-.169-.353-.677-.767-.4s-.354.692-.224,1.172c.6,2.231,1.122,4.484,1.713,6.719a1.486,1.486,0,0,1-.424,1.594Q19,63.355,17.571,64.812a1.224,1.224,0,0,1-2-.009c-.926-.946-1.855-1.891-2.812-2.805a1.613,1.613,0,0,1-.462-1.784c.607-2.23,1.123-4.484,1.727-6.714a.881.881,0,0,0-.275-1.068c-.358-.263-.486.176-.69.332-.847.647-1.437.57-1.987-.355-.826-1.39-1.651-2.783-2.394-4.217-.37-.715-.784-.8-1.5-.573A6.915,6.915,0,0,0,2.254,54c-.074,3.9-.013,7.8-.037,11.7,0,.57.154.784.744.755a20.639,20.639,0,0,1,2.647,0c.806.064,1.068-.162,1.052-1.015-.057-3.016.014-6.034-.045-9.049-.017-.867.267-1.061,1.06-1.01.687.043,1.236-.089,1.206.98-.084,3.014,0,6.033-.048,9.049-.012.8.158,1.078,1.017,1.053,2.242-.066,4.487-.022,6.732-.022m36.318-.2c1.876,0,3.754-.032,5.629.016.736.019,1-.229.908-.94a5.227,5.227,0,0,1,.571-2.647,6.912,6.912,0,0,0,.048-5.482c-.516-1.159-.056-1.454.84-1.91.857-.436,1.167-.268,1.49.587a10.89,10.89,0,0,1-.149,8.27c-.666,1.632-.329,2.108,1.363,2.106a4.455,4.455,0,0,1,.551,0c.628.079.819-.189.813-.81-.029-3.164.03-6.33-.042-9.492a6.488,6.488,0,0,0-2.037-4.4.637.637,0,0,0-1.019-.074,14.488,14.488,0,0,1-17.717,0,.639.639,0,0,0-1.019.08,6.277,6.277,0,0,0-2.015,4.179c-.1,3.271-.043,6.548-.044,9.823,0,.24-.079.611.253.64.834.072,1.844.364,2.458-.113.492-.381.288-1.355-.032-2.05-.077-.166-.134-.342-.2-.515a10.259,10.259,0,0,1-.049-7.226c.548-1.515.533-1.49,2.007-.79.666.316.915.574.557,1.379a7.246,7.246,0,0,0-.054,5.794,5.445,5.445,0,0,1,.569,2.758c-.095.739.294.835.908.825,1.8-.029,3.606-.01,5.409-.01M12.077,30.014c-.845,0-1.692.024-2.536-.009-.519-.021-.712.149-.7.684.034,1.4-.04,2.8.036,4.19a7.7,7.7,0,0,0,15.273.862,44.415,44.415,0,0,0,.155-5.722c.022-.5-.35-.594-.665-.754-1.21-.615-2.437-1.2-3.63-1.842-.537-.29-.822-.176-1.16.307a5.452,5.452,0,0,1-2.94,2.033,13.449,13.449,0,0,1-3.835.251m34.456-6.353c.128-.706.357-1.432,1.169-1.52.7-.076.7-.435.7-.951-.011-4.413-.02-8.827.008-13.24,0-.708-.184-.952-.92-.94-2.537.041-5.076.051-7.612,0-.842-.019-1.045.243-1.035,1.055.043,3.493.025,6.987.015,10.481,0,1.275-.453,1.722-1.723,1.729-2.059.011-4.119.028-6.178-.01-.7-.013-.956.169-.954.914s.237.929.946.921c3.126-.033,6.254.046,9.377-.035,2.2-.057,4.334-.06,6.074,1.574.022.021.071.015.136.026M22.167,20.039c.673-.495,1.326-.9,1.883-1.4a3.89,3.89,0,0,1,2.912-1c2.754.07,5.512-.01,8.267.042.835.016,1.045-.234,1.038-1.05q-.06-6.5,0-13.008c.008-.837-.238-1.042-1.051-1.036Q27.61,2.645,20,2.59c-.835-.006-1.044.235-1.037,1.051.04,4.3.046,8.6,0,12.9-.011.925.254,1.177,1.163,1.149,1.924-.06,2.286.386,2.04,2.352m37.266,14.81c0-1.024-.032-1.871.011-2.715.029-.573-.131-.87-.739-.96a8.837,8.837,0,0,1-5.264-2.759c-.335-.356-.523-.362-.861,0a8.827,8.827,0,0,1-5.263,2.761c-.606.089-.756.384-.743.958.036,1.544,0,3.089.018,4.633A6.42,6.42,0,0,0,59.166,38.5a14.447,14.447,0,0,0,.267-3.652M6.63,28.34a2.409,2.409,0,0,1,1.687-.549c1.91.021,3.821.017,5.732,0a3.617,3.617,0,0,0,3.515-2.2,1.62,1.62,0,0,1,1.491-1.165c-.9-1.027-.273-2-.012-2.9.3-1.036.141-1.417-.964-1.268-.531.072-1.17,0-1.356-.509-.333-.909-1-.786-1.683-.785-1.029,0-2.059-.03-3.086.014A5.412,5.412,0,0,0,6.776,23.43a34.747,34.747,0,0,0-.146,4.91m54.9.545c.555-3.947-3.33-8.321-7.587-8.592-2.873-.183-2.885-.18-2.929,2.681-.009.622-.063,1.3-.69,1.487-.878.267-.723.786-.587,1.4.1.448.147.906.225,1.414A5.8,5.8,0,0,0,51.7,25.3c.838-1.379,1.8-1.376,2.634.028a6.827,6.827,0,0,0,4.385,3.243c.932.237,1.9-.034,2.809.313M46.395,49.76c3.629,2.9,10.021,2.728,13.187-.021-1.152-.262-2.24-.515-3.331-.755a1.384,1.384,0,0,1-1.23-1.449c-.006-.4-.028-.809,0-1.21.048-.632-.058-.969-.835-.763a5.8,5.8,0,0,1-1.64.092c-1.529-.049-1.562-.061-1.534,1.486A1.6,1.6,0,0,1,49.5,49.033c-1.006.157-1.989.459-3.11.727M19.848,24.876l6.615,3.334c.142-1.551.123-3.032-1.235-4.109-.3-.234-.253-.43-.107-.748.685-1.488.772-1.521,2.035-.549.038.03.13-.009.26-.024,0-.505,0-1.015,0-1.525-.011-1.01-.548-1.31-1.448-.795-.253.145-.47.352-.71.521-1.795,1.264-3.441,2.737-5.409,3.9m41.776,14.51a8.89,8.89,0,0,1-3.342,4.5c-.925.59-.726,1.41-.6,2.133.124.683.859.28,1.313.331a9.619,9.619,0,0,0,1.758,0,6.533,6.533,0,0,0,3.957-1.71c.247-.22.569-.458.045-.73a6.138,6.138,0,0,1-3.136-4.526m-17.205.34a6.038,6.038,0,0,1-2.805,3.965c-.895.486-.588.738-.042,1.191a7.677,7.677,0,0,0,5.709,1.479c.365-.024.971.23,1.041-.271.088-.635.424-1.441-.289-1.937a10.657,10.657,0,0,1-3.614-4.427M16.528,55.455c-.7-.476-.745.034-.87.561-.3,1.281-.66,2.549-.99,3.823-.157.605,1.256,2.62,1.869,2.668a.521.521,0,0,0,.2-.049,3.149,3.149,0,0,0,1.6-3.063c-.282-1.1-.6-2.19-.828-3.3-.121-.58-.2-1.042-.985-.641M19.883,44.4c.006-.713-.4-.478-.741-.383a10.144,10.144,0,0,1-5,.059c-.287-.064-.644-.406-.834.034-.181.418.054.7.478.944,2.611,1.5,2.6,1.512,5.254.165.2-.1.383-.215.58-.312a.474.474,0,0,0,.263-.507m1.171,2.292c-.453.031-1.105.628-1.876.919-.654.247-.614.487-.152.962,1.711,1.758,1.694,1.774,2.925-.393.054-.1.111-.19.164-.285.578-1.032.546-1.092-1.061-1.2m-6.131,1.323c-1.5-.465-2.362-1.57-3.775-1.236-.509.121-.619.256-.343.711.454.749.878,1.517,1.307,2.282.177.316.351.43.669.135.638-.59,1.3-1.153,2.141-1.892M48.454,28.13l-3.506-2.281a7.455,7.455,0,0,0-.552,2.538c.005.22-.1.556.368.446,1.2-.281,2.514.044,3.689-.7M26.516,32.746a2.964,2.964,0,0,0,.006.546c.07.367-.24.906.21,1.074a1.414,1.414,0,0,0,1.492-.447A1.619,1.619,0,0,0,28.1,31.5a1.418,1.418,0,0,0-1.325-.345c-.507.169-.174.688-.253,1.044a2.6,2.6,0,0,0-.007.546M6.637,32.685c-.26-.433.508-1.346-.451-1.526A1.46,1.46,0,0,0,4.5,32.39a1.525,1.525,0,0,0,.49,1.586,1.4,1.4,0,0,0,1.408.4c.479-.168.16-.7.234-1.057a3.61,3.61,0,0,0,.006-.634m37.408,1.2c-.375-.432.478-1.4-.609-1.418-.774-.015-1.224.58-1.253,1.384-.028.759.654,1.546,1.32,1.448.989-.146.212-.968.543-1.414m17.885.031c.507.34-.495,1.349.651,1.362A1.265,1.265,0,0,0,63.836,33.9c.029-.76-.649-1.547-1.316-1.451-.993.142-.215.966-.591,1.472M17.9,50.6c-.46-.418-.78-1.2-1.367-1.133-.507.06-1.246.685-1.145,1.242.108.592.619,1.511,1.235,1.459.548-.045.9-.941,1.276-1.568" transform="translate(0 0)" fill="#12263f"/>
        <path id="Trazado_613370" data-name="Trazado 613370" d="M100.147,32.19c-1.322,0-2.644.01-3.966,0-1.218-.011-1.534-.345-1.554-1.586,0-.037,0-.074,0-.11-.035-1.423.344-2.933-1.155-3.975-.6-.42-.465-.9.215-1.329q2.749-1.725,5.409-3.591a1.6,1.6,0,0,1,2.094.015c1.656,1.152,3.353,2.245,5.034,3.36,1.111.737,1.1,1.917-.131,2.455-.441.192-.411.36-.414.647-.011.881-.021,1.763,0,2.644.024,1.009-.433,1.493-1.455,1.479-1.358-.019-2.717,0-4.076,0m-.009-2.215c.882,0,1.766-.026,2.647.01.538.022.659-.19.686-.7.186-3.457.17-3.493-2.741-5.32a.93.93,0,0,0-1.163-.029c-2.727,1.69-2.736,1.675-2.727,4.884a3.088,3.088,0,0,1,0,.441c-.087.609.216.747.763.724.844-.036,1.691-.009,2.537-.01" transform="translate(-72.533 -16.529)" fill="#12263f"/>
      </g>
    </g>
  </g>
</svg>
