<svg xmlns="http://www.w3.org/2000/svg" xmlns:xlink="http://www.w3.org/1999/xlink" width="1240" height="259" viewBox="0 0 1240 259">
  <defs>
    <clipPath id="clip-path">
      <rect id="Rectángulo_378824" data-name="Rectángulo 378824" width="73.398" height="67.659" fill="#12263f"/>
    </clipPath>
    <clipPath id="clip-path-2">
      <rect id="Rectángulo_378825" data-name="Rectángulo 378825" width="67.548" height="67.516" fill="#12263f"/>
    </clipPath>
    <clipPath id="clip-path-3">
      <rect id="Rectángulo_378826" data-name="Rectángulo 378826" width="57.302" height="67.516" fill="#12263f"/>
    </clipPath>
    <clipPath id="clip-path-4">
      <rect id="Rectángulo_378827" data-name="Rectángulo 378827" width="67.923" height="67.866" fill="#12263f"/>
    </clipPath>
    <clipPath id="clip-path-5">
      <rect id="Rectángulo_378828" data-name="Rectángulo 378828" width="62.679" height="74.016" fill="#12263f"/>
    </clipPath>
    <clipPath id="clip-path-6">
      <rect id="Rectángulo_378829" data-name="Rectángulo 378829" width="77.95" height="74.872" fill="#12263f"/>
    </clipPath>
  </defs>
  <g id="Grupo_1073810" data-name="Grupo 1073810" transform="translate(-180 -1761)">
    <rect id="Rectángulo_378818" data-name="Rectángulo 378818" width="173" height="155" rx="30" transform="translate(180 1865)" fill="#fffac1"/>
    <path id="Trazado_615989" data-name="Trazado 615989" d="M7.594,10.836H5.727V15H3.383V3.625H7.609a4.778,4.778,0,0,1,3.109.9,3.1,3.1,0,0,1,1.094,2.539A3.5,3.5,0,0,1,11.309,9a3.437,3.437,0,0,1-1.527,1.238l2.461,4.648V15H9.727Zm-1.867-1.9H7.617a1.936,1.936,0,0,0,1.367-.449A1.606,1.606,0,0,0,9.469,7.25a1.719,1.719,0,0,0-.457-1.266,1.9,1.9,0,0,0-1.4-.461H5.727Zm11.609,6.219a4.15,4.15,0,0,1-3.027-1.141,4.054,4.054,0,0,1-1.168-3.039v-.219a5.106,5.106,0,0,1,.492-2.277,3.612,3.612,0,0,1,1.395-1.547,3.914,3.914,0,0,1,2.059-.543,3.508,3.508,0,0,1,2.73,1.094,4.444,4.444,0,0,1,1,3.1v.922H15.43a2.1,2.1,0,0,0,.66,1.328,2,2,0,0,0,1.395.5,2.437,2.437,0,0,0,2.039-.945l1.109,1.242a3.389,3.389,0,0,1-1.375,1.121A4.511,4.511,0,0,1,17.336,15.156Zm-.258-6.945a1.411,1.411,0,0,0-1.09.455,2.357,2.357,0,0,0-.535,1.3h3.141V9.788a1.681,1.681,0,0,0-.406-1.165A1.456,1.456,0,0,0,17.078,8.211Zm8.531,5.125a1.481,1.481,0,0,0,1.016-.344,1.2,1.2,0,0,0,.406-.914h2.117a2.9,2.9,0,0,1-.469,1.574,3.093,3.093,0,0,1-1.262,1.109,3.949,3.949,0,0,1-1.77.395A3.67,3.67,0,0,1,22.789,14a4.56,4.56,0,0,1-1.047-3.184v-.148a4.508,4.508,0,0,1,1.039-3.117,3.627,3.627,0,0,1,2.852-1.164,3.555,3.555,0,0,1,2.543.9,3.2,3.2,0,0,1,.973,2.4H27.031a1.551,1.551,0,0,0-.406-1.072,1.51,1.51,0,0,0-2.223.163,3.333,3.333,0,0,0-.4,1.866v.235a3.375,3.375,0,0,0,.4,1.878A1.377,1.377,0,0,0,25.609,13.336ZM30.086,10.7a5.013,5.013,0,0,1,.484-2.242A3.546,3.546,0,0,1,31.965,6.93a4.069,4.069,0,0,1,2.113-.539,3.849,3.849,0,0,1,2.793,1.047,4.2,4.2,0,0,1,1.207,2.844l.016.578a4.418,4.418,0,0,1-1.086,3.121,3.775,3.775,0,0,1-2.914,1.176,3.793,3.793,0,0,1-2.918-1.172,4.5,4.5,0,0,1-1.09-3.187Zm2.258.16A3.16,3.16,0,0,0,32.8,12.7a1.628,1.628,0,0,0,2.578.008,3.457,3.457,0,0,0,.461-2.015,3.128,3.128,0,0,0-.461-1.831,1.5,1.5,0,0,0-1.3-.649,1.474,1.474,0,0,0-1.281.646A3.516,3.516,0,0,0,32.344,10.856Zm9.219-4.309.07.977a2.951,2.951,0,0,1,2.43-1.133,2.453,2.453,0,0,1,2,.789,3.682,3.682,0,0,1,.672,2.359V15H44.477V9.594a1.465,1.465,0,0,0-.312-1.043,1.4,1.4,0,0,0-1.039-.324,1.553,1.553,0,0,0-1.43.813V15H39.438V6.547ZM48.094,10.7a5.013,5.013,0,0,1,.484-2.242A3.546,3.546,0,0,1,49.973,6.93a4.069,4.069,0,0,1,2.113-.539,3.849,3.849,0,0,1,2.793,1.047,4.2,4.2,0,0,1,1.207,2.844l.016.578a4.418,4.418,0,0,1-1.086,3.121,4.209,4.209,0,0,1-5.832,0,4.5,4.5,0,0,1-1.09-3.187Zm2.258.16A3.16,3.16,0,0,0,50.8,12.7a1.628,1.628,0,0,0,2.578.008,3.457,3.457,0,0,0,.461-2.015,3.128,3.128,0,0,0-.461-1.831,1.5,1.5,0,0,0-1.3-.649,1.474,1.474,0,0,0-1.281.646A3.516,3.516,0,0,0,50.352,10.856Zm10.656,2.48a1.481,1.481,0,0,0,1.016-.344,1.2,1.2,0,0,0,.406-.914h2.117a2.9,2.9,0,0,1-.469,1.574,3.093,3.093,0,0,1-1.262,1.109,3.949,3.949,0,0,1-1.77.395A3.67,3.67,0,0,1,58.188,14a4.56,4.56,0,0,1-1.047-3.184v-.148A4.508,4.508,0,0,1,58.18,7.555a3.627,3.627,0,0,1,2.852-1.164,3.555,3.555,0,0,1,2.543.9,3.2,3.2,0,0,1,.973,2.4H62.43a1.551,1.551,0,0,0-.406-1.072,1.51,1.51,0,0,0-2.223.163,3.333,3.333,0,0,0-.4,1.866v.235a3.375,3.375,0,0,0,.4,1.878A1.377,1.377,0,0,0,61.008,13.336ZM68.219,15H65.953V6.547h2.266ZM65.82,4.359a1.112,1.112,0,0,1,.34-.836,1.465,1.465,0,0,1,1.848,0,1.105,1.105,0,0,1,.344.836A1.108,1.108,0,0,1,68,5.2a1.448,1.448,0,0,1-1.836,0A1.108,1.108,0,0,1,65.82,4.359ZM72.2,6.547l.07.945a2.971,2.971,0,0,1,2.43-1.1A2.255,2.255,0,0,1,76.938,7.68a2.9,2.9,0,0,1,2.539-1.289,2.521,2.521,0,0,1,2.047.8A3.681,3.681,0,0,1,82.2,9.6V15H79.93V9.609a1.61,1.61,0,0,0-.281-1.051,1.246,1.246,0,0,0-.992-.332A1.409,1.409,0,0,0,77.25,9.2l.008,5.8H75V9.617a1.59,1.59,0,0,0-.289-1.062,1.259,1.259,0,0,0-.984-.328,1.463,1.463,0,0,0-1.391.8V15H70.078V6.547ZM86.313,15H84.047V6.547h2.266Zm-2.4-10.641a1.112,1.112,0,0,1,.34-.836,1.465,1.465,0,0,1,1.848,0,1.105,1.105,0,0,1,.344.836A1.108,1.108,0,0,1,86.1,5.2a1.448,1.448,0,0,1-1.836,0A1.108,1.108,0,0,1,83.914,4.359Zm8.148,10.8a4.15,4.15,0,0,1-3.027-1.141,4.054,4.054,0,0,1-1.168-3.039v-.219a5.106,5.106,0,0,1,.492-2.277,3.612,3.612,0,0,1,1.395-1.547,3.914,3.914,0,0,1,2.059-.543,3.508,3.508,0,0,1,2.73,1.094,4.444,4.444,0,0,1,1,3.1v.922H90.156a2.1,2.1,0,0,0,.66,1.328,2,2,0,0,0,1.395.5,2.437,2.437,0,0,0,2.039-.945l1.109,1.242a3.389,3.389,0,0,1-1.375,1.121A4.511,4.511,0,0,1,92.063,15.156ZM91.8,8.211a1.411,1.411,0,0,0-1.09.455,2.357,2.357,0,0,0-.535,1.3H93.32V9.788a1.681,1.681,0,0,0-.406-1.165A1.456,1.456,0,0,0,91.8,8.211ZM98.9,6.547l.07.977a2.951,2.951,0,0,1,2.43-1.133,2.453,2.453,0,0,1,2,.789,3.682,3.682,0,0,1,.672,2.359V15h-2.258V9.594a1.465,1.465,0,0,0-.312-1.043,1.4,1.4,0,0,0-1.039-.324,1.553,1.553,0,0,0-1.43.813V15H96.773V6.547Zm9.586-2.078V6.547h1.445V8.2h-1.445v4.219a1.007,1.007,0,0,0,.18.672.9.9,0,0,0,.688.2,3.6,3.6,0,0,0,.664-.055v1.711a4.648,4.648,0,0,1-1.367.2,2.156,2.156,0,0,1-2.422-2.4V8.2h-1.234V6.547h1.234V4.469ZM110.6,10.7a5.013,5.013,0,0,1,.484-2.242A3.546,3.546,0,0,1,112.48,6.93a4.069,4.069,0,0,1,2.113-.539,3.849,3.849,0,0,1,2.793,1.047,4.2,4.2,0,0,1,1.207,2.844l.016.578a4.418,4.418,0,0,1-1.086,3.121,4.209,4.209,0,0,1-5.832,0A4.5,4.5,0,0,1,110.6,10.8Zm2.258.16a3.16,3.16,0,0,0,.453,1.843,1.628,1.628,0,0,0,2.578.008,3.457,3.457,0,0,0,.461-2.015,3.128,3.128,0,0,0-.461-1.831,1.5,1.5,0,0,0-1.3-.649,1.474,1.474,0,0,0-1.281.646A3.516,3.516,0,0,0,112.859,10.856ZM14.352,34.711a5.094,5.094,0,0,1,.887-3.148,2.877,2.877,0,0,1,2.426-1.172,2.589,2.589,0,0,1,2.039.922V27h2.266V39H19.93l-.109-.9a2.657,2.657,0,0,1-2.172,1.055,2.869,2.869,0,0,1-2.395-1.176A5.258,5.258,0,0,1,14.352,34.711Zm2.258.168a3.337,3.337,0,0,0,.414,1.823,1.349,1.349,0,0,0,1.2.634,1.511,1.511,0,0,0,1.477-.884V33.111a1.489,1.489,0,0,0-1.461-.884Q16.609,32.227,16.609,34.879Zm11,4.277a4.15,4.15,0,0,1-3.027-1.141,4.054,4.054,0,0,1-1.168-3.039v-.219a5.106,5.106,0,0,1,.492-2.277A3.612,3.612,0,0,1,25.3,30.934a3.914,3.914,0,0,1,2.059-.543,3.508,3.508,0,0,1,2.73,1.094,4.444,4.444,0,0,1,1,3.1v.922H25.7a2.1,2.1,0,0,0,.66,1.328,2,2,0,0,0,1.395.5,2.437,2.437,0,0,0,2.039-.945l1.109,1.242a3.389,3.389,0,0,1-1.375,1.121A4.511,4.511,0,0,1,27.609,39.156Zm-.258-6.945a1.411,1.411,0,0,0-1.09.455,2.357,2.357,0,0,0-.535,1.3h3.141v-.181a1.681,1.681,0,0,0-.406-1.165A1.456,1.456,0,0,0,27.352,32.211ZM34.75,39H32.484V27H34.75ZM48.2,34.852a5.07,5.07,0,0,1-.887,3.129,2.843,2.843,0,0,1-2.395,1.176,2.633,2.633,0,0,1-2.07-.891V42.25H40.594v-11.7h2.094l.078.828a2.654,2.654,0,0,1,2.141-.984,2.862,2.862,0,0,1,2.43,1.156,5.207,5.207,0,0,1,.867,3.188Zm-2.258-.164a3.327,3.327,0,0,0-.418-1.82,1.361,1.361,0,0,0-1.215-.641,1.478,1.478,0,0,0-1.461.813V36.5a1.5,1.5,0,0,0,1.477.836Q45.945,37.336,45.945,34.688Zm8.406-2.023a6.134,6.134,0,0,0-.812-.062,1.654,1.654,0,0,0-1.68.867V39H49.6V30.547h2.133l.063,1.008a2.092,2.092,0,0,1,1.883-1.164,2.366,2.366,0,0,1,.7.1ZM54.8,34.7a5.013,5.013,0,0,1,.484-2.242,3.546,3.546,0,0,1,1.395-1.523,4.069,4.069,0,0,1,2.113-.539,3.849,3.849,0,0,1,2.793,1.047A4.2,4.2,0,0,1,62.8,34.281l.016.578a4.418,4.418,0,0,1-1.086,3.121,4.209,4.209,0,0,1-5.832,0A4.5,4.5,0,0,1,54.8,34.8Zm2.258.16a3.16,3.16,0,0,0,.453,1.843,1.628,1.628,0,0,0,2.578.008,3.457,3.457,0,0,0,.461-2.015,3.128,3.128,0,0,0-.461-1.831,1.5,1.5,0,0,0-1.3-.649,1.474,1.474,0,0,0-1.281.646A3.516,3.516,0,0,0,57.063,34.856Zm14.758,0a5.119,5.119,0,0,1-.867,3.168,2.872,2.872,0,0,1-2.422,1.137,2.639,2.639,0,0,1-2.2-1.055l-.1.9H64.2V27h2.258v4.3a2.571,2.571,0,0,1,2.055-.914,2.9,2.9,0,0,1,2.426,1.137,5.126,5.126,0,0,1,.879,3.2Zm-2.258-.164a3.363,3.363,0,0,0-.406-1.871,1.374,1.374,0,0,0-1.211-.59,1.489,1.489,0,0,0-1.484.883v3.336a1.509,1.509,0,0,0,1.5.891A1.394,1.394,0,0,0,69.4,36.258,5.562,5.562,0,0,0,69.563,34.688ZM75.594,39H73.328V27h2.266Zm5.75.156a4.15,4.15,0,0,1-3.027-1.141,4.054,4.054,0,0,1-1.168-3.039v-.219a5.106,5.106,0,0,1,.492-2.277,3.612,3.612,0,0,1,1.395-1.547,3.914,3.914,0,0,1,2.059-.543,3.508,3.508,0,0,1,2.73,1.094,4.444,4.444,0,0,1,1,3.1v.922H79.438a2.1,2.1,0,0,0,.66,1.328,2,2,0,0,0,1.395.5,2.437,2.437,0,0,0,2.039-.945l1.109,1.242a3.389,3.389,0,0,1-1.375,1.121A4.511,4.511,0,0,1,81.344,39.156Zm-.258-6.945a1.411,1.411,0,0,0-1.09.455,2.357,2.357,0,0,0-.535,1.3H82.6v-.181a1.681,1.681,0,0,0-.406-1.165A1.456,1.456,0,0,0,81.086,32.211Zm7.133-1.664.07.945a2.971,2.971,0,0,1,2.43-1.1,2.255,2.255,0,0,1,2.242,1.289A2.9,2.9,0,0,1,95.5,30.391a2.521,2.521,0,0,1,2.047.8,3.681,3.681,0,0,1,.672,2.41V39H95.953V33.609a1.61,1.61,0,0,0-.281-1.051,1.246,1.246,0,0,0-.992-.332,1.409,1.409,0,0,0-1.406.969l.008,5.8H91.023V33.617a1.59,1.59,0,0,0-.289-1.062,1.259,1.259,0,0,0-.984-.328,1.463,1.463,0,0,0-1.391.8V39H86.1V30.547ZM104.852,39a2.507,2.507,0,0,1-.227-.758,2.732,2.732,0,0,1-2.133.914,3,3,0,0,1-2.059-.719,2.312,2.312,0,0,1-.816-1.812,2.389,2.389,0,0,1,1-2.062,4.915,4.915,0,0,1,2.879-.727h1.039v-.484a1.393,1.393,0,0,0-.3-.937,1.183,1.183,0,0,0-.949-.352,1.345,1.345,0,0,0-.895.273.929.929,0,0,0-.324.75H99.8a2.268,2.268,0,0,1,.453-1.359,3,3,0,0,1,1.281-.98,4.669,4.669,0,0,1,1.859-.355,3.689,3.689,0,0,1,2.48.785,2.747,2.747,0,0,1,.918,2.207v3.664a4.041,4.041,0,0,0,.336,1.82V39Zm-1.867-1.57a1.945,1.945,0,0,0,.922-.223,1.462,1.462,0,0,0,.625-.6V35.156h-.844q-1.7,0-1.8,1.172l-.008.133a.9.9,0,0,0,.3.7A1.153,1.153,0,0,0,102.984,37.43Z" transform="translate(205.75 1917)" fill="#12263f"/>
    <rect id="Rectángulo_378819" data-name="Rectángulo 378819" width="173" height="155" rx="30" transform="translate(393 1865)" fill="#fffac1"/>
    <path id="Trazado_615990" data-name="Trazado 615990" d="M14.129,15V3.625h3.984a5.232,5.232,0,0,1,3.141.793,2.712,2.712,0,0,1,1.07,2.324,2.57,2.57,0,0,1-.43,1.473,2.482,2.482,0,0,1-1.2.934,2.4,2.4,0,0,1,1.379.883,2.61,2.61,0,0,1,.5,1.625,3,3,0,0,1-1.047,2.484A4.713,4.713,0,0,1,18.551,15Zm2.344-4.953v3.07H18.48a1.938,1.938,0,0,0,1.293-.395,1.353,1.353,0,0,0,.465-1.09,1.428,1.428,0,0,0-1.617-1.586Zm0-1.656h1.734q1.773-.031,1.773-1.414a1.307,1.307,0,0,0-.449-1.113,2.363,2.363,0,0,0-1.418-.34H16.473Zm12.781,5.75a2.831,2.831,0,0,1-2.312,1.016,2.67,2.67,0,0,1-2.074-.781,3.335,3.335,0,0,1-.73-2.289V6.547h2.258v5.467q0,1.322,1.2,1.322a1.63,1.63,0,0,0,1.578-.8V6.547h2.266V15H29.316ZM28.246,3h2.461L28.543,5.422H26.707Zm9.477,9.664a.727.727,0,0,0-.41-.652A4.659,4.659,0,0,0,36,11.586q-3.016-.633-3.016-2.562a2.323,2.323,0,0,1,.934-1.879,3.766,3.766,0,0,1,2.441-.754,4.053,4.053,0,0,1,2.574.758,2.388,2.388,0,0,1,.965,1.969H37.637a1.092,1.092,0,0,0-.312-.8A1.322,1.322,0,0,0,36.348,8a1.351,1.351,0,0,0-.883.258.814.814,0,0,0-.312.656.7.7,0,0,0,.355.605,3.657,3.657,0,0,0,1.2.4,9.8,9.8,0,0,1,1.422.379,2.336,2.336,0,0,1,1.789,2.273,2.2,2.2,0,0,1-.992,1.871,4.28,4.28,0,0,1-2.562.715,4.47,4.47,0,0,1-1.887-.379,3.166,3.166,0,0,1-1.293-1.039,2.414,2.414,0,0,1-.469-1.426h2.141a1.179,1.179,0,0,0,.445.922,1.766,1.766,0,0,0,1.109.32,1.635,1.635,0,0,0,.98-.246A.766.766,0,0,0,37.723,12.664Zm3.3-1.969a5.053,5.053,0,0,1,.887-3.148A2.9,2.9,0,0,1,44.34,6.391,2.6,2.6,0,0,1,46.5,7.43l.148-.883h1.984v11.7H46.371V14.273a2.6,2.6,0,0,1-2.047.883,2.878,2.878,0,0,1-2.406-1.172A5.3,5.3,0,0,1,41.02,10.7Zm2.258.16A3.314,3.314,0,0,0,43.7,12.7a1.363,1.363,0,0,0,1.2.634,1.518,1.518,0,0,0,1.469-.829v-3.5a1.506,1.506,0,0,0-1.453-.8,1.38,1.38,0,0,0-1.211.634A3.661,3.661,0,0,0,43.277,10.856Zm12.2,3.285a2.831,2.831,0,0,1-2.312,1.016,2.67,2.67,0,0,1-2.074-.781,3.335,3.335,0,0,1-.73-2.289V6.547h2.258v5.467q0,1.322,1.2,1.322a1.63,1.63,0,0,0,1.578-.8V6.547H57.66V15H55.535Zm7.781,1.016a4.15,4.15,0,0,1-3.027-1.141,4.054,4.054,0,0,1-1.168-3.039v-.219a5.106,5.106,0,0,1,.492-2.277,3.612,3.612,0,0,1,1.395-1.547A3.914,3.914,0,0,1,63,6.391a3.508,3.508,0,0,1,2.73,1.094,4.444,4.444,0,0,1,1,3.1v.922H61.348a2.1,2.1,0,0,0,.66,1.328,2,2,0,0,0,1.395.5,2.437,2.437,0,0,0,2.039-.945l1.109,1.242a3.389,3.389,0,0,1-1.375,1.121A4.511,4.511,0,0,1,63.254,15.156ZM63,8.211a1.411,1.411,0,0,0-1.09.455,2.357,2.357,0,0,0-.535,1.3h3.141V9.788a1.681,1.681,0,0,0-.406-1.165A1.456,1.456,0,0,0,63,8.211Zm4.664,2.5a5.094,5.094,0,0,1,.887-3.148,2.877,2.877,0,0,1,2.426-1.172,2.589,2.589,0,0,1,2.039.922V3h2.266V15H73.238l-.109-.9a2.657,2.657,0,0,1-2.172,1.055,2.869,2.869,0,0,1-2.395-1.176A5.258,5.258,0,0,1,67.66,10.711Zm2.258.168a3.337,3.337,0,0,0,.414,1.823,1.349,1.349,0,0,0,1.2.634,1.511,1.511,0,0,0,1.477-.884V9.111a1.489,1.489,0,0,0-1.461-.884Q69.918,8.227,69.918,10.879ZM81.926,15a2.507,2.507,0,0,1-.227-.758,2.732,2.732,0,0,1-2.133.914,3,3,0,0,1-2.059-.719,2.312,2.312,0,0,1-.816-1.812,2.389,2.389,0,0,1,1-2.062,4.915,4.915,0,0,1,2.879-.727h1.039V9.352a1.393,1.393,0,0,0-.3-.937,1.183,1.183,0,0,0-.949-.352,1.345,1.345,0,0,0-.895.273.929.929,0,0,0-.324.75H76.879a2.268,2.268,0,0,1,.453-1.359,3,3,0,0,1,1.281-.98,4.669,4.669,0,0,1,1.859-.355,3.689,3.689,0,0,1,2.48.785,2.747,2.747,0,0,1,.918,2.207v3.664a4.041,4.041,0,0,0,.336,1.82V15Zm-1.867-1.57a1.945,1.945,0,0,0,.922-.223,1.462,1.462,0,0,0,.625-.6V11.156h-.844q-1.7,0-1.8,1.172l-.008.133a.9.9,0,0,0,.3.7A1.153,1.153,0,0,0,80.059,13.43Zm9.18-2.719a5.094,5.094,0,0,1,.887-3.148,2.877,2.877,0,0,1,2.426-1.172,2.589,2.589,0,0,1,2.039.922V3h2.266V15H94.816l-.109-.9a2.657,2.657,0,0,1-2.172,1.055,2.869,2.869,0,0,1-2.395-1.176A5.258,5.258,0,0,1,89.238,10.711Zm2.258.168A3.337,3.337,0,0,0,91.91,12.7a1.349,1.349,0,0,0,1.2.634,1.511,1.511,0,0,0,1.477-.884V9.111a1.489,1.489,0,0,0-1.461-.884Q91.5,8.227,91.5,10.879Zm11,4.277a4.15,4.15,0,0,1-3.027-1.141A4.054,4.054,0,0,1,98.3,10.977v-.219a5.106,5.106,0,0,1,.492-2.277,3.612,3.612,0,0,1,1.395-1.547,3.914,3.914,0,0,1,2.059-.543,3.508,3.508,0,0,1,2.73,1.094,4.444,4.444,0,0,1,1,3.1v.922H100.59a2.1,2.1,0,0,0,.66,1.328,2,2,0,0,0,1.395.5,2.437,2.437,0,0,0,2.039-.945l1.109,1.242a3.389,3.389,0,0,1-1.375,1.121A4.511,4.511,0,0,1,102.5,15.156Zm-.258-6.945a1.411,1.411,0,0,0-1.09.455,2.357,2.357,0,0,0-.535,1.3h3.141V9.788a1.681,1.681,0,0,0-.406-1.165A1.456,1.456,0,0,0,102.238,8.211ZM19.578,39H17.313V30.547h2.266Zm-2.4-10.641a1.112,1.112,0,0,1,.34-.836,1.465,1.465,0,0,1,1.848,0,1.193,1.193,0,0,1,0,1.68,1.448,1.448,0,0,1-1.836,0A1.108,1.108,0,0,1,17.18,28.359Zm6.336,2.188.07.977a2.951,2.951,0,0,1,2.43-1.133,2.453,2.453,0,0,1,2,.789,3.682,3.682,0,0,1,.672,2.359V39H26.43V33.594a1.465,1.465,0,0,0-.312-1.043,1.4,1.4,0,0,0-1.039-.324,1.553,1.553,0,0,0-1.43.813V39H21.391V30.547ZM31.016,39V32.2H29.758V30.547h1.258v-.719a2.918,2.918,0,0,1,.816-2.207,3.162,3.162,0,0,1,2.285-.785,5.278,5.278,0,0,1,1.148.156l-.023,1.75a2.878,2.878,0,0,0-.687-.07q-1.273,0-1.273,1.2v.68h1.68V32.2h-1.68V39Zm4.766-4.3a5.013,5.013,0,0,1,.484-2.242A3.546,3.546,0,0,1,37.66,30.93a4.069,4.069,0,0,1,2.113-.539,3.849,3.849,0,0,1,2.793,1.047,4.2,4.2,0,0,1,1.207,2.844l.016.578A4.418,4.418,0,0,1,42.7,37.98a4.209,4.209,0,0,1-5.832,0,4.5,4.5,0,0,1-1.09-3.187Zm2.258.16a3.16,3.16,0,0,0,.453,1.843,1.628,1.628,0,0,0,2.578.008,3.457,3.457,0,0,0,.461-2.015,3.128,3.128,0,0,0-.461-1.831,1.5,1.5,0,0,0-1.3-.649,1.474,1.474,0,0,0-1.281.646A3.516,3.516,0,0,0,38.039,34.856ZM49.93,32.664a6.134,6.134,0,0,0-.812-.062,1.654,1.654,0,0,0-1.68.867V39H45.18V30.547h2.133l.063,1.008a2.092,2.092,0,0,1,1.883-1.164,2.366,2.366,0,0,1,.7.1Zm3.2-2.117.07.945a2.971,2.971,0,0,1,2.43-1.1,2.255,2.255,0,0,1,2.242,1.289,2.9,2.9,0,0,1,2.539-1.289,2.521,2.521,0,0,1,2.047.8,3.681,3.681,0,0,1,.672,2.41V39H60.867V33.609a1.61,1.61,0,0,0-.281-1.051,1.246,1.246,0,0,0-.992-.332,1.409,1.409,0,0,0-1.406.969L58.2,39H55.938V33.617a1.59,1.59,0,0,0-.289-1.062,1.259,1.259,0,0,0-.984-.328,1.463,1.463,0,0,0-1.391.8V39H51.016V30.547ZM69.766,39a2.507,2.507,0,0,1-.227-.758,2.732,2.732,0,0,1-2.133.914,3,3,0,0,1-2.059-.719,2.312,2.312,0,0,1-.816-1.812,2.389,2.389,0,0,1,1-2.062,4.915,4.915,0,0,1,2.879-.727h1.039v-.484a1.393,1.393,0,0,0-.3-.937,1.183,1.183,0,0,0-.949-.352,1.345,1.345,0,0,0-.895.273.929.929,0,0,0-.324.75H64.719a2.268,2.268,0,0,1,.453-1.359,3,3,0,0,1,1.281-.98,4.669,4.669,0,0,1,1.859-.355,3.689,3.689,0,0,1,2.48.785,2.747,2.747,0,0,1,.918,2.207v3.664a4.041,4.041,0,0,0,.336,1.82V39ZM67.9,37.43a1.945,1.945,0,0,0,.922-.223,1.462,1.462,0,0,0,.625-.6V35.156H68.6q-1.7,0-1.8,1.172l-.008.133a.9.9,0,0,0,.3.7A1.153,1.153,0,0,0,67.9,37.43Zm9.063-.094a1.481,1.481,0,0,0,1.016-.344,1.2,1.2,0,0,0,.406-.914H80.5a2.9,2.9,0,0,1-.469,1.574,3.093,3.093,0,0,1-1.262,1.109,3.949,3.949,0,0,1-1.77.395A3.67,3.67,0,0,1,74.141,38a4.56,4.56,0,0,1-1.047-3.184v-.148a4.508,4.508,0,0,1,1.039-3.117,3.627,3.627,0,0,1,2.852-1.164,3.555,3.555,0,0,1,2.543.9,3.2,3.2,0,0,1,.973,2.4H78.383a1.551,1.551,0,0,0-.406-1.072,1.51,1.51,0,0,0-2.223.163,3.333,3.333,0,0,0-.4,1.866v.235a3.375,3.375,0,0,0,.4,1.878A1.377,1.377,0,0,0,76.961,37.336ZM84.172,39H81.906V30.547h2.266Zm-2.4-10.641a1.112,1.112,0,0,1,.34-.836,1.465,1.465,0,0,1,1.848,0,1.193,1.193,0,0,1,0,1.68,1.448,1.448,0,0,1-1.836,0A1.108,1.108,0,0,1,81.773,28.359ZM85.68,34.7a5.013,5.013,0,0,1,.484-2.242,3.546,3.546,0,0,1,1.395-1.523,4.069,4.069,0,0,1,2.113-.539,3.849,3.849,0,0,1,2.793,1.047,4.2,4.2,0,0,1,1.207,2.844l.016.578A4.418,4.418,0,0,1,92.6,37.98a4.209,4.209,0,0,1-5.832,0A4.5,4.5,0,0,1,85.68,34.8Zm2.258.16a3.16,3.16,0,0,0,.453,1.843,1.628,1.628,0,0,0,2.578.008,3.457,3.457,0,0,0,.461-2.015,3.128,3.128,0,0,0-.461-1.831,1.5,1.5,0,0,0-1.3-.649,1.474,1.474,0,0,0-1.281.646A3.516,3.516,0,0,0,87.938,34.856ZM90.117,27h2.461l-2.164,2.422H88.578Zm7.039,3.547.07.977a2.951,2.951,0,0,1,2.43-1.133,2.453,2.453,0,0,1,2,.789,3.682,3.682,0,0,1,.672,2.359V39H100.07V33.594a1.465,1.465,0,0,0-.312-1.043,1.4,1.4,0,0,0-1.039-.324,1.553,1.553,0,0,0-1.43.813V39H95.031V30.547ZM31.676,63H29.41V54.547h2.266Zm-2.4-10.641a1.112,1.112,0,0,1,.34-.836,1.465,1.465,0,0,1,1.848,0,1.193,1.193,0,0,1,0,1.68,1.448,1.448,0,0,1-1.836,0A1.108,1.108,0,0,1,29.277,52.359Zm6.336,2.188.07.977a2.951,2.951,0,0,1,2.43-1.133,2.453,2.453,0,0,1,2,.789,3.682,3.682,0,0,1,.672,2.359V63H38.527V57.594a1.465,1.465,0,0,0-.312-1.043,1.4,1.4,0,0,0-1.039-.324,1.553,1.553,0,0,0-1.43.813V63H33.488V54.547ZM45.2,52.469v2.078h1.445V56.2H45.2v4.219a1.007,1.007,0,0,0,.18.672.9.9,0,0,0,.688.2,3.6,3.6,0,0,0,.664-.055v1.711a4.648,4.648,0,0,1-1.367.2,2.156,2.156,0,0,1-2.422-2.4V56.2H41.707V54.547h1.234V52.469Zm6.594,10.688a4.15,4.15,0,0,1-3.027-1.141A4.054,4.054,0,0,1,47.6,58.977v-.219a5.106,5.106,0,0,1,.492-2.277,3.612,3.612,0,0,1,1.395-1.547,3.914,3.914,0,0,1,2.059-.543,3.508,3.508,0,0,1,2.73,1.094,4.444,4.444,0,0,1,1,3.1v.922H49.887a2.1,2.1,0,0,0,.66,1.328,2,2,0,0,0,1.395.5,2.437,2.437,0,0,0,2.039-.945l1.109,1.242a3.389,3.389,0,0,1-1.375,1.121A4.511,4.511,0,0,1,51.793,63.156Zm-.258-6.945a1.411,1.411,0,0,0-1.09.455,2.357,2.357,0,0,0-.535,1.3h3.141v-.181a1.681,1.681,0,0,0-.406-1.165A1.456,1.456,0,0,0,51.535,56.211Zm9.766.453a6.134,6.134,0,0,0-.812-.062,1.654,1.654,0,0,0-1.68.867V63H56.551V54.547h2.133l.063,1.008a2.092,2.092,0,0,1,1.883-1.164,2.366,2.366,0,0,1,.7.1Zm3.164-2.117.07.977a2.951,2.951,0,0,1,2.43-1.133,2.453,2.453,0,0,1,2,.789,3.682,3.682,0,0,1,.672,2.359V63H67.379V57.594a1.465,1.465,0,0,0-.312-1.043,1.4,1.4,0,0,0-1.039-.324,1.553,1.553,0,0,0-1.43.813V63H62.34V54.547ZM76.246,63a2.507,2.507,0,0,1-.227-.758,2.732,2.732,0,0,1-2.133.914,3,3,0,0,1-2.059-.719,2.312,2.312,0,0,1-.816-1.812,2.389,2.389,0,0,1,1-2.062,4.915,4.915,0,0,1,2.879-.727h1.039v-.484a1.393,1.393,0,0,0-.3-.937,1.183,1.183,0,0,0-.949-.352,1.345,1.345,0,0,0-.895.273.929.929,0,0,0-.324.75H71.2a2.268,2.268,0,0,1,.453-1.359,3,3,0,0,1,1.281-.98,4.669,4.669,0,0,1,1.859-.355,3.689,3.689,0,0,1,2.48.785,2.747,2.747,0,0,1,.918,2.207v3.664a4.041,4.041,0,0,0,.336,1.82V63Zm-1.867-1.57a1.945,1.945,0,0,0,.922-.223,1.462,1.462,0,0,0,.625-.6V59.156h-.844q-1.7,0-1.8,1.172l-.008.133a.9.9,0,0,0,.3.7A1.153,1.153,0,0,0,74.379,61.43ZM87.066,59.8l1.563-5.258h2.422l-3.4,9.766-.187.445a2.577,2.577,0,0,1-2.5,1.656,3.552,3.552,0,0,1-1-.148V64.555l.344.008a1.857,1.857,0,0,0,.957-.2,1.283,1.283,0,0,0,.5-.648l.266-.7-2.961-8.477H85.5ZM6.328,87.156A4.15,4.15,0,0,1,3.3,86.016a4.054,4.054,0,0,1-1.168-3.039v-.219a5.106,5.106,0,0,1,.492-2.277A3.612,3.612,0,0,1,4.02,78.934a3.914,3.914,0,0,1,2.059-.543,3.508,3.508,0,0,1,2.73,1.094,4.444,4.444,0,0,1,1,3.1v.922H4.422a2.1,2.1,0,0,0,.66,1.328,2,2,0,0,0,1.395.5,2.437,2.437,0,0,0,2.039-.945l1.109,1.242A3.389,3.389,0,0,1,8.25,86.754,4.511,4.511,0,0,1,6.328,87.156ZM6.07,80.211a1.411,1.411,0,0,0-1.09.455,2.357,2.357,0,0,0-.535,1.3H7.586v-.181a1.681,1.681,0,0,0-.406-1.165A1.456,1.456,0,0,0,6.07,80.211Zm8.234.859,1.422-2.523h2.414l-2.406,4.141L18.242,87H15.82l-1.508-2.656L12.813,87h-2.43l2.508-4.312-2.4-4.141h2.422Zm7.625-4.6v2.078h1.445V80.2H21.93v4.219a1.007,1.007,0,0,0,.18.672.9.9,0,0,0,.688.2,3.6,3.6,0,0,0,.664-.055v1.711a4.648,4.648,0,0,1-1.367.2,2.156,2.156,0,0,1-2.422-2.4V80.2H18.438V78.547h1.234V76.469Zm6.594,10.688A4.15,4.15,0,0,1,25.5,86.016a4.054,4.054,0,0,1-1.168-3.039v-.219a5.106,5.106,0,0,1,.492-2.277,3.612,3.612,0,0,1,1.395-1.547,3.914,3.914,0,0,1,2.059-.543A3.508,3.508,0,0,1,31,79.484a4.444,4.444,0,0,1,1,3.1v.922H26.617a2.1,2.1,0,0,0,.66,1.328,2,2,0,0,0,1.395.5,2.437,2.437,0,0,0,2.039-.945l1.109,1.242a3.389,3.389,0,0,1-1.375,1.121A4.511,4.511,0,0,1,28.523,87.156Zm-.258-6.945a1.411,1.411,0,0,0-1.09.455,2.357,2.357,0,0,0-.535,1.3h3.141v-.181a1.681,1.681,0,0,0-.406-1.165A1.456,1.456,0,0,0,28.266,80.211Zm9.766.453a6.134,6.134,0,0,0-.812-.062,1.654,1.654,0,0,0-1.68.867V87H33.281V78.547h2.133l.063,1.008a2.092,2.092,0,0,1,1.883-1.164,2.366,2.366,0,0,1,.7.1ZM41.2,78.547l.07.977a2.951,2.951,0,0,1,2.43-1.133,2.453,2.453,0,0,1,2,.789,3.682,3.682,0,0,1,.672,2.359V87H44.109V81.594a1.465,1.465,0,0,0-.312-1.043,1.4,1.4,0,0,0-1.039-.324,1.553,1.553,0,0,0-1.43.813V87H39.07V78.547ZM52.977,87a2.507,2.507,0,0,1-.227-.758,2.732,2.732,0,0,1-2.133.914,3,3,0,0,1-2.059-.719,2.312,2.312,0,0,1-.816-1.812,2.389,2.389,0,0,1,1-2.062,4.915,4.915,0,0,1,2.879-.727h1.039v-.484a1.393,1.393,0,0,0-.3-.937,1.183,1.183,0,0,0-.949-.352,1.345,1.345,0,0,0-.895.273.929.929,0,0,0-.324.75H47.93a2.268,2.268,0,0,1,.453-1.359,3,3,0,0,1,1.281-.98,4.669,4.669,0,0,1,1.859-.355,3.689,3.689,0,0,1,2.48.785,2.747,2.747,0,0,1,.918,2.207v3.664a4.041,4.041,0,0,0,.336,1.82V87Zm-1.867-1.57a1.945,1.945,0,0,0,.922-.223,1.462,1.462,0,0,0,.625-.6V83.156h-.844q-1.7,0-1.8,1.172L50,84.461a.9.9,0,0,0,.3.7A1.153,1.153,0,0,0,51.109,85.43ZM63.023,87H60.758V75h2.266Zm4.242,0H65V78.547h2.266Zm-2.4-10.641a1.112,1.112,0,0,1,.34-.836,1.465,1.465,0,0,1,1.848,0,1.193,1.193,0,0,1,0,1.68,1.448,1.448,0,0,1-1.836,0A1.108,1.108,0,0,1,64.867,76.359Zm6.375,2.188.07.945a2.971,2.971,0,0,1,2.43-1.1,2.255,2.255,0,0,1,2.242,1.289,2.9,2.9,0,0,1,2.539-1.289,2.521,2.521,0,0,1,2.047.8,3.681,3.681,0,0,1,.672,2.41V87H78.977V81.609a1.61,1.61,0,0,0-.281-1.051,1.246,1.246,0,0,0-.992-.332A1.409,1.409,0,0,0,76.3,81.2L76.3,87H74.047V81.617a1.59,1.59,0,0,0-.289-1.062,1.259,1.259,0,0,0-.984-.328,1.463,1.463,0,0,0-1.391.8V87H69.125V78.547ZM85.359,87H83.094V78.547h2.266Zm-2.4-10.641a1.112,1.112,0,0,1,.34-.836,1.465,1.465,0,0,1,1.848,0,1.193,1.193,0,0,1,0,1.68,1.448,1.448,0,0,1-1.836,0A1.108,1.108,0,0,1,82.961,76.359Zm6.961.109v2.078h1.445V80.2H89.922v4.219a1.007,1.007,0,0,0,.18.672.9.9,0,0,0,.688.2,3.6,3.6,0,0,0,.664-.055v1.711a4.648,4.648,0,0,1-1.367.2,2.156,2.156,0,0,1-2.422-2.4V80.2H86.43V78.547h1.234V76.469ZM97.523,87a2.507,2.507,0,0,1-.227-.758,2.732,2.732,0,0,1-2.133.914,3,3,0,0,1-2.059-.719,2.312,2.312,0,0,1-.816-1.812,2.389,2.389,0,0,1,1-2.062,4.915,4.915,0,0,1,2.879-.727H97.2v-.484a1.393,1.393,0,0,0-.3-.937,1.183,1.183,0,0,0-.949-.352,1.345,1.345,0,0,0-.895.273.929.929,0,0,0-.324.75H92.477a2.268,2.268,0,0,1,.453-1.359,3,3,0,0,1,1.281-.98,4.669,4.669,0,0,1,1.859-.355,3.689,3.689,0,0,1,2.48.785,2.747,2.747,0,0,1,.918,2.207v3.664a4.041,4.041,0,0,0,.336,1.82V87Zm-1.867-1.57a1.945,1.945,0,0,0,.922-.223,1.462,1.462,0,0,0,.625-.6V83.156h-.844q-1.7,0-1.8,1.172l-.008.133a.9.9,0,0,0,.3.7A1.153,1.153,0,0,0,95.656,85.43Zm5.2-2.719a5.094,5.094,0,0,1,.887-3.148,2.877,2.877,0,0,1,2.426-1.172,2.589,2.589,0,0,1,2.039.922V75h2.266V87H106.43l-.109-.9a2.657,2.657,0,0,1-2.172,1.055,2.869,2.869,0,0,1-2.395-1.176A5.258,5.258,0,0,1,100.852,82.711Zm2.258.168a3.337,3.337,0,0,0,.414,1.823,1.349,1.349,0,0,0,1.2.634,1.511,1.511,0,0,0,1.477-.884V81.111a1.489,1.489,0,0,0-1.461-.884Q103.109,80.227,103.109,82.879ZM115.117,87a2.507,2.507,0,0,1-.227-.758,2.732,2.732,0,0,1-2.133.914,3,3,0,0,1-2.059-.719,2.312,2.312,0,0,1-.816-1.812,2.389,2.389,0,0,1,1-2.062,4.915,4.915,0,0,1,2.879-.727H114.8v-.484a1.393,1.393,0,0,0-.3-.937,1.183,1.183,0,0,0-.949-.352,1.345,1.345,0,0,0-.895.273.929.929,0,0,0-.324.75H110.07a2.268,2.268,0,0,1,.453-1.359,3,3,0,0,1,1.281-.98,4.669,4.669,0,0,1,1.859-.355,3.689,3.689,0,0,1,2.48.785,2.747,2.747,0,0,1,.918,2.207v3.664a4.041,4.041,0,0,0,.336,1.82V87Zm-1.867-1.57a1.945,1.945,0,0,0,.922-.223,1.462,1.462,0,0,0,.625-.6V83.156h-.844q-1.7,0-1.8,1.172l-.008.133a.9.9,0,0,0,.3.7A1.153,1.153,0,0,0,113.25,85.43Z" transform="translate(420 1896)" fill="#12263f"/>
    <rect id="Rectángulo_378820" data-name="Rectángulo 378820" width="173" height="155" rx="30" transform="translate(607 1865)" fill="#fffac1"/>
    <path id="Trazado_615991" data-name="Trazado 615991" d="M28.754,10.07h-4.5v3.047h5.281V15H21.91V3.625H29.52v1.9H24.254V8.234h4.5Zm4.969,2.172,1.57-5.7h2.359L34.8,15H32.645L29.793,6.547h2.359ZM43.426,15a2.507,2.507,0,0,1-.227-.758,2.732,2.732,0,0,1-2.133.914,3,3,0,0,1-2.059-.719,2.312,2.312,0,0,1-.816-1.812,2.389,2.389,0,0,1,1-2.062,4.915,4.915,0,0,1,2.879-.727h1.039V9.352a1.393,1.393,0,0,0-.3-.937,1.183,1.183,0,0,0-.949-.352,1.345,1.345,0,0,0-.895.273.929.929,0,0,0-.324.75H38.379a2.268,2.268,0,0,1,.453-1.359,3,3,0,0,1,1.281-.98,4.669,4.669,0,0,1,1.859-.355,3.689,3.689,0,0,1,2.48.785,2.747,2.747,0,0,1,.918,2.207v3.664a4.041,4.041,0,0,0,.336,1.82V15Zm-1.867-1.57a1.945,1.945,0,0,0,.922-.223,1.462,1.462,0,0,0,.625-.6V11.156h-.844q-1.7,0-1.8,1.172l-.008.133a.9.9,0,0,0,.3.7A1.153,1.153,0,0,0,41.559,13.43ZM49.488,15H47.223V3h2.266Zm6.922-.859A2.831,2.831,0,0,1,54.1,15.156a2.67,2.67,0,0,1-2.074-.781,3.335,3.335,0,0,1-.73-2.289V6.547h2.258v5.467q0,1.322,1.2,1.322a1.63,1.63,0,0,0,1.578-.8V6.547H58.6V15H56.473ZM65.2,15a2.507,2.507,0,0,1-.227-.758,2.732,2.732,0,0,1-2.133.914,3,3,0,0,1-2.059-.719,2.312,2.312,0,0,1-.816-1.812,2.389,2.389,0,0,1,1-2.062,4.915,4.915,0,0,1,2.879-.727h1.039V9.352a1.393,1.393,0,0,0-.3-.937,1.183,1.183,0,0,0-.949-.352,1.345,1.345,0,0,0-.895.273.929.929,0,0,0-.324.75H60.152a2.268,2.268,0,0,1,.453-1.359,3,3,0,0,1,1.281-.98,4.669,4.669,0,0,1,1.859-.355,3.689,3.689,0,0,1,2.48.785,2.747,2.747,0,0,1,.918,2.207v3.664a4.041,4.041,0,0,0,.336,1.82V15Zm-1.867-1.57a1.945,1.945,0,0,0,.922-.223,1.462,1.462,0,0,0,.625-.6V11.156h-.844q-1.7,0-1.8,1.172l-.008.133a.9.9,0,0,0,.3.7A1.153,1.153,0,0,0,63.332,13.43Zm9.063-.094a1.481,1.481,0,0,0,1.016-.344,1.2,1.2,0,0,0,.406-.914h2.117a2.9,2.9,0,0,1-.469,1.574A3.093,3.093,0,0,1,74.2,14.762a3.949,3.949,0,0,1-1.77.395A3.67,3.67,0,0,1,69.574,14a4.56,4.56,0,0,1-1.047-3.184v-.148a4.508,4.508,0,0,1,1.039-3.117,3.627,3.627,0,0,1,2.852-1.164,3.555,3.555,0,0,1,2.543.9,3.2,3.2,0,0,1,.973,2.4H73.816a1.551,1.551,0,0,0-.406-1.072,1.51,1.51,0,0,0-2.223.163,3.333,3.333,0,0,0-.4,1.866v.235a3.375,3.375,0,0,0,.4,1.878A1.377,1.377,0,0,0,72.395,13.336ZM79.605,15H77.34V6.547h2.266Zm-2.4-10.641a1.112,1.112,0,0,1,.34-.836,1.465,1.465,0,0,1,1.848,0,1.105,1.105,0,0,1,.344.836,1.108,1.108,0,0,1-.348.844,1.448,1.448,0,0,1-1.836,0A1.108,1.108,0,0,1,77.207,4.359ZM81.113,10.7A5.013,5.013,0,0,1,81.6,8.453,3.546,3.546,0,0,1,82.992,6.93a4.069,4.069,0,0,1,2.113-.539A3.849,3.849,0,0,1,87.9,7.438a4.2,4.2,0,0,1,1.207,2.844l.016.578a4.418,4.418,0,0,1-1.086,3.121,4.209,4.209,0,0,1-5.832,0,4.5,4.5,0,0,1-1.09-3.187Zm2.258.16a3.16,3.16,0,0,0,.453,1.843,1.628,1.628,0,0,0,2.578.008,3.457,3.457,0,0,0,.461-2.015A3.128,3.128,0,0,0,86.4,8.86a1.5,1.5,0,0,0-1.3-.649,1.474,1.474,0,0,0-1.281.646A3.516,3.516,0,0,0,83.371,10.856ZM85.551,3h2.461L85.848,5.422H84.012ZM92.59,6.547l.07.977a2.951,2.951,0,0,1,2.43-1.133,2.453,2.453,0,0,1,2,.789,3.682,3.682,0,0,1,.672,2.359V15H95.5V9.594a1.465,1.465,0,0,0-.312-1.043,1.4,1.4,0,0,0-1.039-.324,1.553,1.553,0,0,0-1.43.813V15H90.465V6.547Z" transform="translate(634 1931)" fill="#12263f"/>
    <rect id="Rectángulo_378821" data-name="Rectángulo 378821" width="173" height="155" rx="30" transform="translate(820 1865)" fill="#fffac1"/>
    <path id="Trazado_615992" data-name="Trazado 615992" d="M18.531,10.352h-4.5V15H11.688V3.625h7.406v1.9H14.031V8.461h4.5Zm1.258.344a5.013,5.013,0,0,1,.484-2.242A3.546,3.546,0,0,1,21.668,6.93a4.069,4.069,0,0,1,2.113-.539,3.849,3.849,0,0,1,2.793,1.047,4.2,4.2,0,0,1,1.207,2.844l.016.578a4.418,4.418,0,0,1-1.086,3.121A3.775,3.775,0,0,1,23.8,15.156a3.793,3.793,0,0,1-2.918-1.172,4.5,4.5,0,0,1-1.09-3.187Zm2.258.16A3.16,3.16,0,0,0,22.5,12.7a1.628,1.628,0,0,0,2.578.008,3.457,3.457,0,0,0,.461-2.015,3.128,3.128,0,0,0-.461-1.831,1.5,1.5,0,0,0-1.3-.649,1.474,1.474,0,0,0-1.281.646A3.516,3.516,0,0,0,22.047,10.856ZM33.938,8.664a6.134,6.134,0,0,0-.812-.062,1.654,1.654,0,0,0-1.68.867V15H29.188V6.547H31.32l.063,1.008a2.092,2.092,0,0,1,1.883-1.164,2.366,2.366,0,0,1,.7.1Zm3.2-2.117.07.945a2.971,2.971,0,0,1,2.43-1.1A2.255,2.255,0,0,1,41.883,7.68a2.9,2.9,0,0,1,2.539-1.289,2.521,2.521,0,0,1,2.047.8,3.681,3.681,0,0,1,.672,2.41V15H44.875V9.609a1.61,1.61,0,0,0-.281-1.051,1.246,1.246,0,0,0-.992-.332A1.409,1.409,0,0,0,42.2,9.2L42.2,15H39.945V9.617a1.59,1.59,0,0,0-.289-1.062,1.259,1.259,0,0,0-.984-.328,1.463,1.463,0,0,0-1.391.8V15H35.023V6.547ZM53.773,15a2.507,2.507,0,0,1-.227-.758,2.732,2.732,0,0,1-2.133.914,3,3,0,0,1-2.059-.719,2.312,2.312,0,0,1-.816-1.812,2.389,2.389,0,0,1,1-2.062,4.915,4.915,0,0,1,2.879-.727h1.039V9.352a1.393,1.393,0,0,0-.3-.937,1.183,1.183,0,0,0-.949-.352,1.345,1.345,0,0,0-.895.273.929.929,0,0,0-.324.75H48.727a2.268,2.268,0,0,1,.453-1.359,3,3,0,0,1,1.281-.98,4.669,4.669,0,0,1,1.859-.355,3.689,3.689,0,0,1,2.48.785,2.747,2.747,0,0,1,.918,2.207v3.664a4.041,4.041,0,0,0,.336,1.82V15Zm-1.867-1.57a1.945,1.945,0,0,0,.922-.223,1.462,1.462,0,0,0,.625-.6V11.156h-.844q-1.7,0-1.8,1.172l-.008.133a.9.9,0,0,0,.3.7A1.153,1.153,0,0,0,51.906,13.43Zm9.063-.094a1.481,1.481,0,0,0,1.016-.344,1.2,1.2,0,0,0,.406-.914h2.117a2.9,2.9,0,0,1-.469,1.574,3.093,3.093,0,0,1-1.262,1.109,3.949,3.949,0,0,1-1.77.395A3.67,3.67,0,0,1,58.148,14,4.56,4.56,0,0,1,57.1,10.82v-.148a4.508,4.508,0,0,1,1.039-3.117,3.627,3.627,0,0,1,2.852-1.164,3.555,3.555,0,0,1,2.543.9,3.2,3.2,0,0,1,.973,2.4H62.391a1.551,1.551,0,0,0-.406-1.072,1.51,1.51,0,0,0-2.223.163,3.333,3.333,0,0,0-.4,1.866v.235a3.375,3.375,0,0,0,.4,1.878A1.377,1.377,0,0,0,60.969,13.336ZM68.18,15H65.914V6.547H68.18Zm-2.4-10.641a1.112,1.112,0,0,1,.34-.836,1.465,1.465,0,0,1,1.848,0,1.105,1.105,0,0,1,.344.836,1.108,1.108,0,0,1-.348.844,1.448,1.448,0,0,1-1.836,0A1.108,1.108,0,0,1,65.781,4.359ZM69.688,10.7a5.013,5.013,0,0,1,.484-2.242A3.546,3.546,0,0,1,71.566,6.93a4.069,4.069,0,0,1,2.113-.539,3.849,3.849,0,0,1,2.793,1.047,4.2,4.2,0,0,1,1.207,2.844l.016.578a4.418,4.418,0,0,1-1.086,3.121,4.209,4.209,0,0,1-5.832,0,4.5,4.5,0,0,1-1.09-3.187Zm2.258.16A3.16,3.16,0,0,0,72.4,12.7a1.628,1.628,0,0,0,2.578.008,3.457,3.457,0,0,0,.461-2.015,3.128,3.128,0,0,0-.461-1.831,1.5,1.5,0,0,0-1.3-.649,1.474,1.474,0,0,0-1.281.646A3.516,3.516,0,0,0,71.945,10.856ZM74.125,3h2.461L74.422,5.422H72.586Zm7.039,3.547.07.977a2.951,2.951,0,0,1,2.43-1.133,2.453,2.453,0,0,1,2,.789,3.682,3.682,0,0,1,.672,2.359V15H84.078V9.594a1.465,1.465,0,0,0-.312-1.043,1.4,1.4,0,0,0-1.039-.324,1.553,1.553,0,0,0-1.43.813V15H79.039V6.547ZM91.68,10.711a5.094,5.094,0,0,1,.887-3.148,2.877,2.877,0,0,1,2.426-1.172,2.589,2.589,0,0,1,2.039.922V3H99.3V15H97.258l-.109-.9a2.657,2.657,0,0,1-2.172,1.055,2.869,2.869,0,0,1-2.395-1.176A5.258,5.258,0,0,1,91.68,10.711Zm2.258.168a3.337,3.337,0,0,0,.414,1.823,1.349,1.349,0,0,0,1.2.634,1.511,1.511,0,0,0,1.477-.884V9.111a1.489,1.489,0,0,0-1.461-.884Q93.938,8.227,93.938,10.879Zm11,4.277a4.15,4.15,0,0,1-3.027-1.141,4.054,4.054,0,0,1-1.168-3.039v-.219a5.106,5.106,0,0,1,.492-2.277,3.612,3.612,0,0,1,1.395-1.547,3.914,3.914,0,0,1,2.059-.543,3.508,3.508,0,0,1,2.73,1.094,4.444,4.444,0,0,1,1,3.1v.922h-5.383a2.1,2.1,0,0,0,.66,1.328,2,2,0,0,0,1.395.5,2.437,2.437,0,0,0,2.039-.945l1.109,1.242a3.389,3.389,0,0,1-1.375,1.121A4.511,4.511,0,0,1,104.938,15.156Zm-.258-6.945a1.411,1.411,0,0,0-1.09.455,2.357,2.357,0,0,0-.535,1.3H106.2V9.788a1.681,1.681,0,0,0-.406-1.165A1.456,1.456,0,0,0,104.68,8.211ZM32.105,39a2.507,2.507,0,0,1-.227-.758,2.732,2.732,0,0,1-2.133.914,3,3,0,0,1-2.059-.719,2.312,2.312,0,0,1-.816-1.812,2.389,2.389,0,0,1,1-2.062,4.915,4.915,0,0,1,2.879-.727h1.039v-.484a1.393,1.393,0,0,0-.3-.937,1.183,1.183,0,0,0-.949-.352,1.345,1.345,0,0,0-.895.273.929.929,0,0,0-.324.75H27.059a2.268,2.268,0,0,1,.453-1.359,3,3,0,0,1,1.281-.98,4.669,4.669,0,0,1,1.859-.355,3.689,3.689,0,0,1,2.48.785,2.747,2.747,0,0,1,.918,2.207v3.664a4.041,4.041,0,0,0,.336,1.82V39Zm-1.867-1.57a1.945,1.945,0,0,0,.922-.223,1.462,1.462,0,0,0,.625-.6V35.156h-.844q-1.7,0-1.8,1.172l-.008.133a.9.9,0,0,0,.3.7A1.153,1.153,0,0,0,30.238,37.43Zm9.063-.094a1.481,1.481,0,0,0,1.016-.344,1.2,1.2,0,0,0,.406-.914H42.84a2.9,2.9,0,0,1-.469,1.574,3.093,3.093,0,0,1-1.262,1.109,3.949,3.949,0,0,1-1.77.395A3.67,3.67,0,0,1,36.48,38a4.56,4.56,0,0,1-1.047-3.184v-.148a4.508,4.508,0,0,1,1.039-3.117,3.627,3.627,0,0,1,2.852-1.164,3.555,3.555,0,0,1,2.543.9,3.2,3.2,0,0,1,.973,2.4H40.723a1.551,1.551,0,0,0-.406-1.072,1.51,1.51,0,0,0-2.223.163,3.333,3.333,0,0,0-.4,1.866v.235a3.375,3.375,0,0,0,.4,1.878A1.377,1.377,0,0,0,39.3,37.336Zm7.531-8.867v2.078h1.445V32.2H46.832v4.219a1.007,1.007,0,0,0,.18.672.9.9,0,0,0,.688.2,3.6,3.6,0,0,0,.664-.055v1.711a4.648,4.648,0,0,1-1.367.2,2.156,2.156,0,0,1-2.422-2.4V32.2H43.34V30.547h1.234V28.469ZM51.918,39H49.652V30.547h2.266Zm-2.4-10.641a1.112,1.112,0,0,1,.34-.836,1.465,1.465,0,0,1,1.848,0,1.193,1.193,0,0,1,0,1.68,1.448,1.448,0,0,1-1.836,0A1.108,1.108,0,0,1,49.52,28.359Zm6.961.109v2.078h1.445V32.2H56.48v4.219a1.007,1.007,0,0,0,.18.672.9.9,0,0,0,.688.2,3.6,3.6,0,0,0,.664-.055v1.711a4.648,4.648,0,0,1-1.367.2,2.156,2.156,0,0,1-2.422-2.4V32.2H52.988V30.547h1.234V28.469Zm7.766,9.672a2.831,2.831,0,0,1-2.312,1.016,2.67,2.67,0,0,1-2.074-.781,3.335,3.335,0,0,1-.73-2.289V30.547h2.258v5.467q0,1.322,1.2,1.322a1.63,1.63,0,0,0,1.578-.8V30.547h2.266V39H64.309Zm3.539-3.43a5.094,5.094,0,0,1,.887-3.148A2.877,2.877,0,0,1,71.1,30.391a2.589,2.589,0,0,1,2.039.922V27H75.4V39H73.363l-.109-.9a2.657,2.657,0,0,1-2.172,1.055,2.869,2.869,0,0,1-2.395-1.176A5.258,5.258,0,0,1,67.785,34.711Zm2.258.168a3.337,3.337,0,0,0,.414,1.823,1.349,1.349,0,0,0,1.2.634,1.511,1.511,0,0,0,1.477-.884V33.111a1.489,1.489,0,0,0-1.461-.884Q70.043,32.227,70.043,34.879Zm11,4.277a4.15,4.15,0,0,1-3.027-1.141,4.054,4.054,0,0,1-1.168-3.039v-.219a5.106,5.106,0,0,1,.492-2.277,3.612,3.612,0,0,1,1.395-1.547,3.914,3.914,0,0,1,2.059-.543,3.508,3.508,0,0,1,2.73,1.094,4.444,4.444,0,0,1,1,3.1v.922H79.137a2.1,2.1,0,0,0,.66,1.328,2,2,0,0,0,1.395.5,2.437,2.437,0,0,0,2.039-.945l1.109,1.242a3.389,3.389,0,0,1-1.375,1.121A4.511,4.511,0,0,1,81.043,39.156Zm-.258-6.945a1.411,1.411,0,0,0-1.09.455,2.357,2.357,0,0,0-.535,1.3H82.3v-.181a1.681,1.681,0,0,0-.406-1.165A1.456,1.456,0,0,0,80.785,32.211Zm9.594,4.453a.727.727,0,0,0-.41-.652,4.659,4.659,0,0,0-1.316-.426q-3.016-.633-3.016-2.562a2.323,2.323,0,0,1,.934-1.879,3.766,3.766,0,0,1,2.441-.754,4.053,4.053,0,0,1,2.574.758,2.388,2.388,0,0,1,.965,1.969H90.293a1.092,1.092,0,0,0-.312-.8A1.322,1.322,0,0,0,89,32a1.351,1.351,0,0,0-.883.258.814.814,0,0,0-.312.656.7.7,0,0,0,.355.605,3.657,3.657,0,0,0,1.2.4,9.8,9.8,0,0,1,1.422.379,2.336,2.336,0,0,1,1.789,2.273,2.2,2.2,0,0,1-.992,1.871,4.28,4.28,0,0,1-2.562.715,4.47,4.47,0,0,1-1.887-.379,3.166,3.166,0,0,1-1.293-1.039,2.414,2.414,0,0,1-.469-1.426h2.141a1.179,1.179,0,0,0,.445.922,1.766,1.766,0,0,0,1.109.32,1.635,1.635,0,0,0,.98-.246A.766.766,0,0,0,90.379,36.664Z" transform="translate(847 1921)" fill="#12263f"/>
    <rect id="Rectángulo_378822" data-name="Rectángulo 378822" width="173" height="155" rx="30" transform="translate(1034 1865)" fill="#fffac1"/>
    <path id="Trazado_615993" data-name="Trazado 615993" d="M41.418,11.211A4.025,4.025,0,0,1,40.063,14.1a4.76,4.76,0,0,1-3.223,1.055A4.281,4.281,0,0,1,33.4,13.684a6.038,6.038,0,0,1-1.254-4.043v-.7a6.819,6.819,0,0,1,.578-2.891,4.332,4.332,0,0,1,1.652-1.918,5.164,5.164,0,0,1,5.668.387,4.326,4.326,0,0,1,1.391,2.961H39.09a2.376,2.376,0,0,0-.613-1.6,2.271,2.271,0,0,0-1.605-.5,1.991,1.991,0,0,0-1.754.84,4.707,4.707,0,0,0-.6,2.605V9.7a5.038,5.038,0,0,0,.559,2.7,1.954,1.954,0,0,0,1.762.852,2.314,2.314,0,0,0,1.621-.5,2.241,2.241,0,0,0,.613-1.535Zm1.039-.516a5.013,5.013,0,0,1,.484-2.242A3.546,3.546,0,0,1,44.336,6.93a4.069,4.069,0,0,1,2.113-.539,3.849,3.849,0,0,1,2.793,1.047,4.2,4.2,0,0,1,1.207,2.844l.016.578a4.418,4.418,0,0,1-1.086,3.121,4.209,4.209,0,0,1-5.832,0,4.5,4.5,0,0,1-1.09-3.187Zm2.258.16a3.16,3.16,0,0,0,.453,1.843,1.628,1.628,0,0,0,2.578.008,3.457,3.457,0,0,0,.461-2.015,3.128,3.128,0,0,0-.461-1.831,1.5,1.5,0,0,0-1.3-.649,1.474,1.474,0,0,0-1.281.646A3.516,3.516,0,0,0,44.715,10.856Zm9.258-4.309.07.945a2.971,2.971,0,0,1,2.43-1.1A2.255,2.255,0,0,1,58.715,7.68a2.9,2.9,0,0,1,2.539-1.289,2.521,2.521,0,0,1,2.047.8,3.681,3.681,0,0,1,.672,2.41V15H61.707V9.609a1.61,1.61,0,0,0-.281-1.051,1.246,1.246,0,0,0-.992-.332,1.409,1.409,0,0,0-1.406.969l.008,5.8H56.777V9.617a1.59,1.59,0,0,0-.289-1.062,1.259,1.259,0,0,0-.984-.328,1.463,1.463,0,0,0-1.391.8V15H51.855V6.547Zm19.344,4.3a5.07,5.07,0,0,1-.887,3.129,2.843,2.843,0,0,1-2.395,1.176,2.633,2.633,0,0,1-2.07-.891V18.25H65.707V6.547H67.8l.078.828a2.654,2.654,0,0,1,2.141-.984,2.862,2.862,0,0,1,2.43,1.156,5.207,5.207,0,0,1,.867,3.188Zm-2.258-.164a3.327,3.327,0,0,0-.418-1.82,1.361,1.361,0,0,0-1.215-.641,1.478,1.478,0,0,0-1.461.813V12.5a1.5,1.5,0,0,0,1.477.836Q71.059,13.336,71.059,10.688Zm8.406-2.023a6.134,6.134,0,0,0-.812-.062,1.654,1.654,0,0,0-1.68.867V15H74.715V6.547h2.133l.063,1.008a2.092,2.092,0,0,1,1.883-1.164,2.366,2.366,0,0,1,.7.1ZM85.215,15a2.507,2.507,0,0,1-.227-.758,2.732,2.732,0,0,1-2.133.914,3,3,0,0,1-2.059-.719,2.312,2.312,0,0,1-.816-1.812,2.389,2.389,0,0,1,1-2.062,4.915,4.915,0,0,1,2.879-.727h1.039V9.352a1.393,1.393,0,0,0-.3-.937,1.183,1.183,0,0,0-.949-.352,1.345,1.345,0,0,0-.895.273.929.929,0,0,0-.324.75H80.168a2.268,2.268,0,0,1,.453-1.359,3,3,0,0,1,1.281-.98,4.669,4.669,0,0,1,1.859-.355,3.689,3.689,0,0,1,2.48.785,2.747,2.747,0,0,1,.918,2.207v3.664a4.041,4.041,0,0,0,.336,1.82V15Zm-1.867-1.57a1.945,1.945,0,0,0,.922-.223,1.462,1.462,0,0,0,.625-.6V11.156h-.844q-1.7,0-1.8,1.172l-.008.133a.9.9,0,0,0,.3.7A1.153,1.153,0,0,0,83.348,13.43Z" transform="translate(1061 1932)" fill="#12263f"/>
    <rect id="Rectángulo_378823" data-name="Rectángulo 378823" width="173" height="155" rx="30" transform="translate(1247 1865)" fill="#fffac1"/>
    <path id="Trazado_615994" data-name="Trazado 615994" d="M28.754,10.07h-4.5v3.047h5.281V15H21.91V3.625H29.52v1.9H24.254V8.234h4.5Zm4.969,2.172,1.57-5.7h2.359L34.8,15H32.645L29.793,6.547h2.359ZM43.426,15a2.507,2.507,0,0,1-.227-.758,2.732,2.732,0,0,1-2.133.914,3,3,0,0,1-2.059-.719,2.312,2.312,0,0,1-.816-1.812,2.389,2.389,0,0,1,1-2.062,4.915,4.915,0,0,1,2.879-.727h1.039V9.352a1.393,1.393,0,0,0-.3-.937,1.183,1.183,0,0,0-.949-.352,1.345,1.345,0,0,0-.895.273.929.929,0,0,0-.324.75H38.379a2.268,2.268,0,0,1,.453-1.359,3,3,0,0,1,1.281-.98,4.669,4.669,0,0,1,1.859-.355,3.689,3.689,0,0,1,2.48.785,2.747,2.747,0,0,1,.918,2.207v3.664a4.041,4.041,0,0,0,.336,1.82V15Zm-1.867-1.57a1.945,1.945,0,0,0,.922-.223,1.462,1.462,0,0,0,.625-.6V11.156h-.844q-1.7,0-1.8,1.172l-.008.133a.9.9,0,0,0,.3.7A1.153,1.153,0,0,0,41.559,13.43ZM49.488,15H47.223V3h2.266Zm6.922-.859A2.831,2.831,0,0,1,54.1,15.156a2.67,2.67,0,0,1-2.074-.781,3.335,3.335,0,0,1-.73-2.289V6.547h2.258v5.467q0,1.322,1.2,1.322a1.63,1.63,0,0,0,1.578-.8V6.547H58.6V15H56.473ZM65.2,15a2.507,2.507,0,0,1-.227-.758,2.732,2.732,0,0,1-2.133.914,3,3,0,0,1-2.059-.719,2.312,2.312,0,0,1-.816-1.812,2.389,2.389,0,0,1,1-2.062,4.915,4.915,0,0,1,2.879-.727h1.039V9.352a1.393,1.393,0,0,0-.3-.937,1.183,1.183,0,0,0-.949-.352,1.345,1.345,0,0,0-.895.273.929.929,0,0,0-.324.75H60.152a2.268,2.268,0,0,1,.453-1.359,3,3,0,0,1,1.281-.98,4.669,4.669,0,0,1,1.859-.355,3.689,3.689,0,0,1,2.48.785,2.747,2.747,0,0,1,.918,2.207v3.664a4.041,4.041,0,0,0,.336,1.82V15Zm-1.867-1.57a1.945,1.945,0,0,0,.922-.223,1.462,1.462,0,0,0,.625-.6V11.156h-.844q-1.7,0-1.8,1.172l-.008.133a.9.9,0,0,0,.3.7A1.153,1.153,0,0,0,63.332,13.43Zm9.063-.094a1.481,1.481,0,0,0,1.016-.344,1.2,1.2,0,0,0,.406-.914h2.117a2.9,2.9,0,0,1-.469,1.574A3.093,3.093,0,0,1,74.2,14.762a3.949,3.949,0,0,1-1.77.395A3.67,3.67,0,0,1,69.574,14a4.56,4.56,0,0,1-1.047-3.184v-.148a4.508,4.508,0,0,1,1.039-3.117,3.627,3.627,0,0,1,2.852-1.164,3.555,3.555,0,0,1,2.543.9,3.2,3.2,0,0,1,.973,2.4H73.816a1.551,1.551,0,0,0-.406-1.072,1.51,1.51,0,0,0-2.223.163,3.333,3.333,0,0,0-.4,1.866v.235a3.375,3.375,0,0,0,.4,1.878A1.377,1.377,0,0,0,72.395,13.336ZM79.605,15H77.34V6.547h2.266Zm-2.4-10.641a1.112,1.112,0,0,1,.34-.836,1.465,1.465,0,0,1,1.848,0,1.105,1.105,0,0,1,.344.836,1.108,1.108,0,0,1-.348.844,1.448,1.448,0,0,1-1.836,0A1.108,1.108,0,0,1,77.207,4.359ZM81.113,10.7A5.013,5.013,0,0,1,81.6,8.453,3.546,3.546,0,0,1,82.992,6.93a4.069,4.069,0,0,1,2.113-.539A3.849,3.849,0,0,1,87.9,7.438a4.2,4.2,0,0,1,1.207,2.844l.016.578a4.418,4.418,0,0,1-1.086,3.121,4.209,4.209,0,0,1-5.832,0,4.5,4.5,0,0,1-1.09-3.187Zm2.258.16a3.16,3.16,0,0,0,.453,1.843,1.628,1.628,0,0,0,2.578.008,3.457,3.457,0,0,0,.461-2.015A3.128,3.128,0,0,0,86.4,8.86a1.5,1.5,0,0,0-1.3-.649,1.474,1.474,0,0,0-1.281.646A3.516,3.516,0,0,0,83.371,10.856ZM85.551,3h2.461L85.848,5.422H84.012ZM92.59,6.547l.07.977a2.951,2.951,0,0,1,2.43-1.133,2.453,2.453,0,0,1,2,.789,3.682,3.682,0,0,1,.672,2.359V15H95.5V9.594a1.465,1.465,0,0,0-.312-1.043,1.4,1.4,0,0,0-1.039-.324,1.553,1.553,0,0,0-1.43.813V15H90.465V6.547Zm-67.422,28.3a5.07,5.07,0,0,1-.887,3.129,2.843,2.843,0,0,1-2.395,1.176,2.633,2.633,0,0,1-2.07-.891V42.25H17.559v-11.7h2.094l.078.828a2.654,2.654,0,0,1,2.141-.984,2.862,2.862,0,0,1,2.43,1.156,5.207,5.207,0,0,1,.867,3.188Zm-2.258-.164a3.327,3.327,0,0,0-.418-1.82,1.361,1.361,0,0,0-1.215-.641,1.478,1.478,0,0,0-1.461.813V36.5a1.5,1.5,0,0,0,1.477.836Q22.91,37.336,22.91,34.688Zm3.3.008a5.013,5.013,0,0,1,.484-2.242,3.546,3.546,0,0,1,1.395-1.523,4.069,4.069,0,0,1,2.113-.539A3.849,3.849,0,0,1,33,31.438a4.2,4.2,0,0,1,1.207,2.844l.016.578a4.418,4.418,0,0,1-1.086,3.121,3.775,3.775,0,0,1-2.914,1.176A3.793,3.793,0,0,1,27.3,37.984a4.5,4.5,0,0,1-1.09-3.187Zm2.258.16a3.16,3.16,0,0,0,.453,1.843,1.628,1.628,0,0,0,2.578.008,3.457,3.457,0,0,0,.461-2.015A3.128,3.128,0,0,0,31.5,32.86a1.5,1.5,0,0,0-1.3-.649,1.474,1.474,0,0,0-1.281.646A3.516,3.516,0,0,0,28.473,34.856Zm11.719,1.808a.727.727,0,0,0-.41-.652,4.659,4.659,0,0,0-1.316-.426q-3.016-.633-3.016-2.562a2.323,2.323,0,0,1,.934-1.879,3.766,3.766,0,0,1,2.441-.754,4.053,4.053,0,0,1,2.574.758,2.388,2.388,0,0,1,.965,1.969H40.105a1.092,1.092,0,0,0-.312-.8A1.322,1.322,0,0,0,38.816,32a1.351,1.351,0,0,0-.883.258.814.814,0,0,0-.312.656.7.7,0,0,0,.355.605,3.657,3.657,0,0,0,1.2.4A9.8,9.8,0,0,1,40.6,34.3a2.336,2.336,0,0,1,1.789,2.273,2.205,2.205,0,0,1-.992,1.871,4.28,4.28,0,0,1-2.562.715,4.47,4.47,0,0,1-1.887-.379,3.166,3.166,0,0,1-1.293-1.039,2.414,2.414,0,0,1-.469-1.426h2.141a1.179,1.179,0,0,0,.445.922,1.766,1.766,0,0,0,1.109.32,1.635,1.635,0,0,0,.98-.246A.766.766,0,0,0,40.191,36.664Zm6.352-8.2v2.078h1.445V32.2H46.543v4.219a1.007,1.007,0,0,0,.18.672.9.9,0,0,0,.688.2,3.6,3.6,0,0,0,.664-.055v1.711a4.648,4.648,0,0,1-1.367.2,2.156,2.156,0,0,1-2.422-2.4V32.2H43.051V30.547h1.234V28.469Zm6.219,8.867a1.481,1.481,0,0,0,1.016-.344,1.2,1.2,0,0,0,.406-.914H56.3a2.9,2.9,0,0,1-.469,1.574,3.093,3.093,0,0,1-1.262,1.109,3.949,3.949,0,0,1-1.77.395A3.67,3.67,0,0,1,49.941,38a4.56,4.56,0,0,1-1.047-3.184v-.148a4.508,4.508,0,0,1,1.039-3.117,3.627,3.627,0,0,1,2.852-1.164,3.555,3.555,0,0,1,2.543.9,3.2,3.2,0,0,1,.973,2.4H54.184a1.551,1.551,0,0,0-.406-1.072,1.51,1.51,0,0,0-2.223.163,3.333,3.333,0,0,0-.4,1.866v.235a3.375,3.375,0,0,0,.4,1.878A1.377,1.377,0,0,0,52.762,37.336ZM57.238,34.7a5.013,5.013,0,0,1,.484-2.242,3.546,3.546,0,0,1,1.395-1.523,4.069,4.069,0,0,1,2.113-.539,3.849,3.849,0,0,1,2.793,1.047,4.2,4.2,0,0,1,1.207,2.844l.016.578A4.418,4.418,0,0,1,64.16,37.98a4.209,4.209,0,0,1-5.832,0,4.5,4.5,0,0,1-1.09-3.187Zm2.258.16a3.16,3.16,0,0,0,.453,1.843,1.628,1.628,0,0,0,2.578.008,3.457,3.457,0,0,0,.461-2.015,3.128,3.128,0,0,0-.461-1.831,1.5,1.5,0,0,0-1.3-.649,1.474,1.474,0,0,0-1.281.646A3.516,3.516,0,0,0,59.5,34.856Zm9.258-4.309.07.945a2.971,2.971,0,0,1,2.43-1.1A2.255,2.255,0,0,1,73.5,31.68a2.9,2.9,0,0,1,2.539-1.289,2.521,2.521,0,0,1,2.047.8,3.681,3.681,0,0,1,.672,2.41V39H76.488V33.609a1.61,1.61,0,0,0-.281-1.051,1.246,1.246,0,0,0-.992-.332,1.409,1.409,0,0,0-1.406.969l.008,5.8H71.559V33.617a1.59,1.59,0,0,0-.289-1.062,1.259,1.259,0,0,0-.984-.328,1.463,1.463,0,0,0-1.391.8V39H66.637V30.547Zm19.344,4.3a5.07,5.07,0,0,1-.887,3.129,2.843,2.843,0,0,1-2.395,1.176,2.633,2.633,0,0,1-2.07-.891V42.25H80.488v-11.7h2.094l.078.828a2.654,2.654,0,0,1,2.141-.984,2.862,2.862,0,0,1,2.43,1.156,5.207,5.207,0,0,1,.867,3.188Zm-2.258-.164a3.327,3.327,0,0,0-.418-1.82,1.361,1.361,0,0,0-1.215-.641,1.478,1.478,0,0,0-1.461.813V36.5a1.5,1.5,0,0,0,1.477.836Q85.84,37.336,85.84,34.688Zm8.406-2.023a6.134,6.134,0,0,0-.812-.062,1.654,1.654,0,0,0-1.68.867V39H89.5V30.547h2.133l.063,1.008a2.092,2.092,0,0,1,1.883-1.164,2.366,2.366,0,0,1,.7.1ZM100,39a2.507,2.507,0,0,1-.227-.758,2.732,2.732,0,0,1-2.133.914,3,3,0,0,1-2.059-.719,2.312,2.312,0,0,1-.816-1.812,2.389,2.389,0,0,1,1-2.062,4.915,4.915,0,0,1,2.879-.727h1.039v-.484a1.393,1.393,0,0,0-.3-.937,1.183,1.183,0,0,0-.949-.352,1.345,1.345,0,0,0-.895.273.929.929,0,0,0-.324.75H94.949a2.268,2.268,0,0,1,.453-1.359,3,3,0,0,1,1.281-.98,4.669,4.669,0,0,1,1.859-.355,3.689,3.689,0,0,1,2.48.785,2.747,2.747,0,0,1,.918,2.207v3.664a4.041,4.041,0,0,0,.336,1.82V39Zm-1.867-1.57a1.945,1.945,0,0,0,.922-.223,1.462,1.462,0,0,0,.625-.6V35.156h-.844q-1.7,0-1.8,1.172l-.008.133a.9.9,0,0,0,.3.7A1.153,1.153,0,0,0,98.129,37.43ZM31.2,61.336a1.481,1.481,0,0,0,1.016-.344,1.2,1.2,0,0,0,.406-.914h2.117a2.9,2.9,0,0,1-.469,1.574A3.093,3.093,0,0,1,33,62.762a3.949,3.949,0,0,1-1.77.395A3.67,3.67,0,0,1,28.375,62a4.56,4.56,0,0,1-1.047-3.184v-.148a4.508,4.508,0,0,1,1.039-3.117,3.627,3.627,0,0,1,2.852-1.164,3.555,3.555,0,0,1,2.543.9,3.2,3.2,0,0,1,.973,2.4H32.617a1.551,1.551,0,0,0-.406-1.072,1.51,1.51,0,0,0-2.223.163,3.333,3.333,0,0,0-.4,1.866v.235a3.375,3.375,0,0,0,.4,1.878A1.377,1.377,0,0,0,31.2,61.336ZM35.672,58.7a5.013,5.013,0,0,1,.484-2.242,3.546,3.546,0,0,1,1.395-1.523,4.069,4.069,0,0,1,2.113-.539,3.849,3.849,0,0,1,2.793,1.047,4.2,4.2,0,0,1,1.207,2.844l.016.578a4.418,4.418,0,0,1-1.086,3.121,4.209,4.209,0,0,1-5.832,0,4.5,4.5,0,0,1-1.09-3.187Zm2.258.16a3.16,3.16,0,0,0,.453,1.843,1.628,1.628,0,0,0,2.578.008,3.457,3.457,0,0,0,.461-2.015,3.128,3.128,0,0,0-.461-1.831,1.5,1.5,0,0,0-1.3-.649,1.474,1.474,0,0,0-1.281.646A3.516,3.516,0,0,0,37.93,58.856Zm9.258-4.309.07.945a2.971,2.971,0,0,1,2.43-1.1A2.255,2.255,0,0,1,51.93,55.68a2.9,2.9,0,0,1,2.539-1.289,2.521,2.521,0,0,1,2.047.8,3.681,3.681,0,0,1,.672,2.41V63H54.922V57.609a1.61,1.61,0,0,0-.281-1.051,1.246,1.246,0,0,0-.992-.332,1.409,1.409,0,0,0-1.406.969L52.25,63H49.992V57.617a1.59,1.59,0,0,0-.289-1.062,1.259,1.259,0,0,0-.984-.328,1.463,1.463,0,0,0-1.391.8V63H45.07V54.547Zm19.344,4.3a5.07,5.07,0,0,1-.887,3.129,2.843,2.843,0,0,1-2.395,1.176,2.633,2.633,0,0,1-2.07-.891V66.25H58.922v-11.7h2.094l.078.828a2.654,2.654,0,0,1,2.141-.984,2.862,2.862,0,0,1,2.43,1.156,5.207,5.207,0,0,1,.867,3.188Zm-2.258-.164a3.327,3.327,0,0,0-.418-1.82,1.361,1.361,0,0,0-1.215-.641,1.478,1.478,0,0,0-1.461.813V60.5a1.5,1.5,0,0,0,1.477.836Q64.273,61.336,64.273,58.688ZM70.313,63H68.047V51h2.266Zm5.75.156a4.15,4.15,0,0,1-3.027-1.141,4.054,4.054,0,0,1-1.168-3.039v-.219a5.106,5.106,0,0,1,.492-2.277,3.612,3.612,0,0,1,1.395-1.547,3.914,3.914,0,0,1,2.059-.543,3.508,3.508,0,0,1,2.73,1.094,4.444,4.444,0,0,1,1,3.1v.922H74.156a2.1,2.1,0,0,0,.66,1.328,2,2,0,0,0,1.395.5,2.437,2.437,0,0,0,2.039-.945l1.109,1.242a3.389,3.389,0,0,1-1.375,1.121A4.511,4.511,0,0,1,76.063,63.156ZM75.8,56.211a1.411,1.411,0,0,0-1.09.455,2.357,2.357,0,0,0-.535,1.3H77.32v-.181a1.681,1.681,0,0,0-.406-1.165A1.456,1.456,0,0,0,75.8,56.211Zm7.406-1.664v8.914a3.024,3.024,0,0,1-.742,2.176,2.821,2.821,0,0,1-2.141.777,4.591,4.591,0,0,1-1.117-.133V64.492a4.238,4.238,0,0,0,.711.07q1.023,0,1.023-1.086v-8.93Zm-2.445-2.187a1.112,1.112,0,0,1,.34-.836,1.47,1.47,0,0,1,1.852,0,1.2,1.2,0,0,1-.008,1.68,1.448,1.448,0,0,1-1.836,0A1.108,1.108,0,0,1,80.766,52.359ZM89.875,63a2.507,2.507,0,0,1-.227-.758,2.732,2.732,0,0,1-2.133.914,3,3,0,0,1-2.059-.719,2.312,2.312,0,0,1-.816-1.812,2.389,2.389,0,0,1,1-2.062,4.915,4.915,0,0,1,2.879-.727h1.039v-.484a1.393,1.393,0,0,0-.3-.937,1.183,1.183,0,0,0-.949-.352,1.345,1.345,0,0,0-.895.273.929.929,0,0,0-.324.75H84.828a2.268,2.268,0,0,1,.453-1.359,3,3,0,0,1,1.281-.98,4.669,4.669,0,0,1,1.859-.355,3.689,3.689,0,0,1,2.48.785,2.747,2.747,0,0,1,.918,2.207v3.664a4.041,4.041,0,0,0,.336,1.82V63Zm-1.867-1.57a1.945,1.945,0,0,0,.922-.223,1.462,1.462,0,0,0,.625-.6V59.156h-.844q-1.7,0-1.8,1.172l-.008.133a.9.9,0,0,0,.3.7A1.153,1.153,0,0,0,88.008,61.43Z" transform="translate(1274 1906)" fill="#12263f"/>
    <circle id="Elipse_6022" data-name="Elipse 6022" cx="61" cy="61" r="61" transform="translate(206 1761)" fill="#ffa346"/>
    <circle id="Elipse_6023" data-name="Elipse 6023" cx="61" cy="61" r="61" transform="translate(419 1761)" fill="#ffa346"/>
    <circle id="Elipse_6024" data-name="Elipse 6024" cx="61" cy="61" r="61" transform="translate(633 1761)" fill="#ffa346"/>
    <circle id="Elipse_6025" data-name="Elipse 6025" cx="61" cy="61" r="61" transform="translate(846 1761)" fill="#ffa346"/>
    <circle id="Elipse_6026" data-name="Elipse 6026" cx="61" cy="61" r="61" transform="translate(1060 1761)" fill="#ffa346"/>
    <circle id="Elipse_6027" data-name="Elipse 6027" cx="61" cy="61" r="61" transform="translate(1273 1761)" fill="#ffa346"/>
    <g id="Grupo_1073200" data-name="Grupo 1073200" transform="translate(-200 -1096)">
      <rect id="Rectángulo_378751" data-name="Rectángulo 378751" width="35" height="11" transform="translate(548 2913)" fill="#ffa346"/>
      <path id="Polígono_23" data-name="Polígono 23" d="M16,0,32,28H0Z" transform="translate(600 2902) rotate(90)" fill="#ffa346"/>
    </g>
    <g id="Grupo_1073256" data-name="Grupo 1073256" transform="translate(13 -1096)">
      <rect id="Rectángulo_378751-2" data-name="Rectángulo 378751" width="35" height="11" transform="translate(548 2913)" fill="#ffa346"/>
      <path id="Polígono_23-2" data-name="Polígono 23" d="M16,0,32,28H0Z" transform="translate(600 2902) rotate(90)" fill="#ffa346"/>
    </g>
    <g id="Grupo_1073257" data-name="Grupo 1073257" transform="translate(226 -1096)">
      <rect id="Rectángulo_378751-3" data-name="Rectángulo 378751" width="35" height="11" transform="translate(548 2913)" fill="#ffa346"/>
      <path id="Polígono_23-3" data-name="Polígono 23" d="M16,0,32,28H0Z" transform="translate(600 2902) rotate(90)" fill="#ffa346"/>
    </g>
    <g id="Grupo_1073258" data-name="Grupo 1073258" transform="translate(440 -1096)">
      <rect id="Rectángulo_378751-4" data-name="Rectángulo 378751" width="35" height="11" transform="translate(548 2913)" fill="#ffa346"/>
      <path id="Polígono_23-4" data-name="Polígono 23" d="M16,0,32,28H0Z" transform="translate(600 2902) rotate(90)" fill="#ffa346"/>
    </g>
    <g id="Grupo_1073259" data-name="Grupo 1073259" transform="translate(654 -1096)">
      <rect id="Rectángulo_378751-5" data-name="Rectángulo 378751" width="35" height="11" transform="translate(548 2913)" fill="#ffa346"/>
      <path id="Polígono_23-5" data-name="Polígono 23" d="M16,0,32,28H0Z" transform="translate(600 2902) rotate(90)" fill="#ffa346"/>
    </g>
    <g id="Grupo_1073261" data-name="Grupo 1073261" transform="translate(229.801 1788.171)">
      <g id="Grupo_1073260" data-name="Grupo 1073260" clip-path="url(#clip-path)">
        <path id="Trazado_615266" data-name="Trazado 615266" d="M36.669,0Q51.807,0,66.946,0C71.129,0,73.395,2.246,73.4,6.4q.006,20.343,0,40.685c0,4.208-2.186,6.41-6.39,6.454-1.222.013-1.224.013-.6,1.113.838,1.471,1.7,2.928,2.514,4.411,1.526,2.778.607,5.582-2.357,7.274a4.9,4.9,0,0,1-6.889-1.98c-1.928-3.3-3.843-6.6-5.715-9.927a1.535,1.535,0,0,0-1.586-.909c-1.693.054-3.393.081-5.084-.007-1.014-.053-1.055.326-.9,1.152.746,3.849,1.75,7.581,4.328,10.685a1.711,1.711,0,0,1,.5,1.171c-.057.909-.652,1.143-1.471,1.139-3.154-.016-6.308-.006-9.462-.006q-8.22,0-16.439,0c-.594,0-1.22.061-1.552-.587a1.488,1.488,0,0,1,.313-1.641c.092-.128.159-.275.26-.394,2.575-3.033,3.359-6.763,4.15-10.506.2-.953-.175-1.006-.94-1-6.5.023-13.01.015-19.515.012q-6.56,0-6.569-6.51Q0,26.742,0,6.459C0,2.222,2.241,0,6.509,0Q21.589,0,36.669,0M60.28,42.091c1.4,0,2.613-.063,3.818.02.96.066,1.262-.194,1.258-1.21q-.06-15.845-.007-31.689c0-.877-.158-1.208-1.141-1.207q-27.491.048-54.983,0c-.921,0-1.183.229-1.18,1.169q.051,15.844,0,31.689c0,.965.221,1.252,1.22,1.248,9.026-.04,18.052-.023,27.077-.026.333,0,.666-.029,1.168-.052a13.362,13.362,0,0,1-1.719-9.34A12.936,12.936,0,0,1,40.7,24.6a13.252,13.252,0,0,1,15.665-.515,13.053,13.053,0,0,1,5,6.411,13.532,13.532,0,0,1-1.092,11.6m-1.263,2.3c.446.644.359,1.6,1.192,1.511a1.6,1.6,0,0,1,1.76,1.036A23.13,23.13,0,0,1,63.4,49.518c.6,1.516,1.628,1.888,3.194,1.827,3.285-.128,4.517-1.251,4.517-4.512q0-20.047,0-40.095c0-3.283-1.129-4.42-4.385-4.42H6.647c-3.2,0-4.362,1.152-4.363,4.322q0,20.107,0,40.213c0,3.2,1.247,4.453,4.42,4.453q18.451,0,36.9-.009c2.6,0,5.2.016,7.806.005,1.1,0,1.531-.881,1.1-1.891A1.793,1.793,0,0,0,50.3,48.269a12.544,12.544,0,0,1-10.066-3.105A3.111,3.111,0,0,0,38,44.381q-15.139.031-30.278.012c-1.748,0-2-.256-2-1.958q0-17.387,0-34.773c0-1.682.3-1.98,2-1.98H65.674c1.7,0,2,.295,2,1.974q0,17.387,0,34.773c0,1.707-.254,1.959-2,1.964-2.161.006-4.322,0-6.663,0M48.861,24.124A10.944,10.944,0,0,0,37.886,35.068a10.995,10.995,0,1,0,21.989-.062A10.9,10.9,0,0,0,48.861,24.124m-12.231,36c2.6,0,5.2-.021,7.8.014.732.01.876-.25.716-.9-.4-1.64-.786-3.285-1.143-4.936-.116-.537-.4-.682-.911-.681q-6.381.017-12.761,0a.819.819,0,0,0-.95.778c-.314,1.539-.653,3.075-1.061,4.591-.229.85-.13,1.187.868,1.161,2.48-.065,4.962-.021,7.443-.022M67.3,61.607a2.775,2.775,0,0,0-.388-1.461c-2.087-3.6-4.185-7.2-6.232-10.827-.359-.635-.65-.585-1.17-.267-1.207.737-2.42,1.468-3.671,2.126-.693.365-.732.707-.353,1.354,2.087,3.558,4.128,7.145,6.2,10.711a2.528,2.528,0,0,0,2.941,1.4A3.331,3.331,0,0,0,67.3,61.607m-19.35,3.7a13.476,13.476,0,0,1-.964-1.545,2.213,2.213,0,0,0-2.433-1.319c-5.158.066-10.317.029-15.476.029-1.925,0-2.908.82-3.37,2.836Zm9.857-18.25a2.694,2.694,0,0,0-.452-.776c-1.274-1.088-1.683.8-2.679.82-.486.01-.64.368-.37.918.388.792.786,1.032,1.551.452a16.611,16.611,0,0,1,1.508-.9c.189-.114.45-.173.442-.516" transform="translate(0 0)" fill="#12263f"/>
        <path id="Trazado_615267" data-name="Trazado 615267" d="M68.333,65.929a16.139,16.139,0,0,1-11.513-4.374c-.864-.805-1.679-1.663-2.515-2.5a1.149,1.149,0,0,1-.166-1.691c3.173-3.594,6.793-6.443,11.792-6.974A15.7,15.7,0,0,1,77.938,53.9c1.217.991,2.283,2.167,3.41,3.266a1.1,1.1,0,0,1,.179,1.671c-2.911,3.246-6.14,6.015-10.627,6.788-1.006.173-2.031.238-2.568.3m-.5-2.257a14.592,14.592,0,0,0,10.785-5.116c.387-.426.224-.613-.071-.945-5.947-6.7-15.693-6.7-21.469,0-.324.376-.362.582-.014.965A14.515,14.515,0,0,0,67.83,63.672" transform="translate(-41.101 -38.391)" fill="#12263f"/>
        <path id="Trazado_615268" data-name="Trazado 615268" d="M216.392,49.972c1.3,0,2.6.014,3.9-.005.93-.014,1.388.391,1.38,1.342q-.022,2.956,0,5.913a1.134,1.134,0,0,1-1.295,1.3c-2.72,0-5.44,0-8.16,0-.877,0-1.279-.458-1.273-1.334.013-1.971.009-3.942,0-5.913a1.144,1.144,0,0,1,1.3-1.3h4.139m-.04,6.319c3.23,0,3.23,0,3.085-3.139a.78.78,0,0,1,0-.118c.056-.554-.188-.771-.746-.764-1.569.021-3.139.015-4.708,0-.467,0-.681.134-.743.654-.385,3.23-.284,3.364,2.877,3.364h.235" transform="translate(-161.041 -38.146)" fill="#12263f"/>
        <path id="Trazado_615269" data-name="Trazado 615269" d="M63.5,130.808c2.6,0,5.2.018,7.794-.01.852-.009,1.6.211,1.63,1.12.028,1.007-.779,1.213-1.661,1.211q-7.794-.018-15.588-.006c-.795,0-1.573-.084-1.594-1.123-.023-1.113.771-1.2,1.625-1.2,2.6.01,5.2,0,7.794,0" transform="translate(-41.287 -99.854)" fill="#12263f"/>
        <path id="Trazado_615270" data-name="Trazado 615270" d="M63.535,151.84c2.6,0,5.2.016,7.807-.009.856-.009,1.581.2,1.565,1.157-.015.879-.727,1.1-1.524,1.1q-7.926-.011-15.85-.005c-.766,0-1.471-.14-1.477-1.115-.007-1.06.743-1.136,1.555-1.133,2.642.009,5.283,0,7.925,0" transform="translate(-41.267 -115.911)" fill="#12263f"/>
        <path id="Trazado_615271" data-name="Trazado 615271" d="M169.2,122.952a8.854,8.854,0,0,1,3.973-7.2c.654-.441,1.328-.65,1.859.1s.134,1.3-.512,1.785c-2.961,2.2-3.713,5.053-2.247,8.506.31.731.4,1.435-.434,1.809-.814.365-1.333-.124-1.674-.844a9.91,9.91,0,0,1-.966-4.15" transform="translate(-129.174 -88.061)" fill="#12263f"/>
        <path id="Trazado_615272" data-name="Trazado 615272" d="M91.088,67.033a5.071,5.071,0,0,1,10.142.022,5.162,5.162,0,0,1-5.159,5.09,5.085,5.085,0,0,1-4.983-5.112m5.055-2.653a2.59,2.59,0,0,0-2.712,2.732,2.706,2.706,0,0,0,2.661,2.72A2.778,2.778,0,0,0,98.9,67.1a2.659,2.659,0,0,0-2.757-2.725" transform="translate(-69.538 -47.357)" fill="#12263f"/>
      </g>
    </g>
    <g id="Grupo_1073263" data-name="Grupo 1073263" transform="translate(445.727 1785.242)">
      <g id="Grupo_1073262" data-name="Grupo 1073262" clip-path="url(#clip-path-2)">
        <path id="Trazado_615273" data-name="Trazado 615273" d="M31.616,231.457c-3.973,0-7.947-.014-11.92.007a11.375,11.375,0,0,1-6.034-1.566.86.86,0,0,0-1.189.029,2.471,2.471,0,0,1-1.709.392c-2.672.007-5.345.018-8.017,0C.8,230.3.006,229.491,0,227.545Q0,220.161,0,212.777c0-1.905.773-2.673,2.7-2.683,2.707-.014,5.415-.007,8.122,0,.454,0,1.015-.12,1.33.189.837.821,1.437.33,2.219-.121a16.2,16.2,0,0,1,11.03-2.123,7.983,7.983,0,0,1,3.785,1.752,8.208,8.208,0,0,0,5.652,1.893,25.535,25.535,0,0,1,5.156.149,5.538,5.538,0,0,1,4.551,5.416c-.009,1.277.085,1.345,1.359.9,5.459-1.916,10.922-3.822,16.372-5.763a3.667,3.667,0,0,1,4.1.723,3.723,3.723,0,0,1,.984,3.882,3.91,3.91,0,0,1-1.775,2.267q-8.561,5.486-17.125,10.967a8.1,8.1,0,0,1-4.5,1.237c-4.114-.011-8.228,0-12.342,0m.073-2.312v.02c4.185,0,8.369-.012,12.554.009a5.211,5.211,0,0,0,2.9-.8q8.615-5.5,17.214-11.028a1.646,1.646,0,0,0,.758-2.168c-.326-.813-1.062-1.009-2.159-.625-3.376,1.181-6.757,2.349-10.121,3.564-7.112,2.569-7.109,2.616-14.749,2.557-2.277-.018-4.4.229-6.264,1.678a1.049,1.049,0,0,1-1.65-.273,1.07,1.07,0,0,1,.372-1.562,10.119,10.119,0,0,1,4.591-1.97,52.2,52.2,0,0,1,5.793-.156c1.183-.026,1.513-.4,1.346-1.614a3.415,3.415,0,0,0-3.457-2.8c-1.581-.041-3.165,0-4.747-.016a8.36,8.36,0,0,1-5.405-1.776,8.856,8.856,0,0,0-7.067-2.02,12.8,12.8,0,0,0-7.248,2.791,2.293,2.293,0,0,0-.848,1.914c.049,3.692.059,7.385-.005,11.076a1.992,1.992,0,0,0,1.039,1.889,8.132,8.132,0,0,0,4.387,1.3c4.255.043,8.51.015,12.765.015m-29.4-9.027c0,2.353.018,4.705-.012,7.058-.008.642.112.936.853.922,2.422-.046,4.845-.036,7.268,0,.63.008.853-.162.849-.821q-.036-7.058,0-14.115c0-.717-.248-.886-.913-.877q-3.581.048-7.163,0c-.679-.01-.913.181-.9.887.041,2.317.015,4.635.015,6.952" transform="translate(0.001 -163.948)" fill="#12263f"/>
        <path id="Trazado_615274" data-name="Trazado 615274" d="M135.922,39.209c.556-1.884-.537-3.364-2.158-4.991C123.113,23.534,128.14,4.839,142.66.8A20.133,20.133,0,0,1,168.3,17.012a20.155,20.155,0,0,1-17.488,23.3,20.489,20.489,0,0,1-7.311-.433,1.588,1.588,0,0,0-1.528.376c-1.3,1.079-2.634,2.107-3.954,3.157a1.276,1.276,0,0,1-1.449.313,1.311,1.311,0,0,1-.649-1.339c-.009-.914,0-1.828,0-3.181m2.26,1.183c1.154-.91,2.138-1.633,3.058-2.43a2.026,2.026,0,0,1,2.128-.456,17.228,17.228,0,0,0,7.923.457A17.99,17.99,0,1,0,130.37,19.657a17.6,17.6,0,0,0,6.864,14.7,2.285,2.285,0,0,1,.964,2.072c-.065,1.226-.016,2.457-.016,3.963" transform="translate(-101.034 0)" fill="#12263f"/>
        <path id="Trazado_615275" data-name="Trazado 615275" d="M23.653,278.307c-.1.714-.439,1.162-1.138,1.178a1.091,1.091,0,0,1-.07-2.18,1.132,1.132,0,0,1,1.208,1" transform="translate(-16.875 -218.768)" fill="#12263f"/>
        <path id="Trazado_615276" data-name="Trazado 615276" d="M206.252,80.435c0,1.512.019,3.025-.01,4.537-.01.535.138.72.7.736,1.231.035,1.564.4,1.582,1.59.018,1.231.026,2.463,0,3.693-.026,1.068-.422,1.459-1.5,1.466q-4.167.026-8.335,0c-1.062-.007-1.438-.4-1.459-1.492-.023-1.23-.02-2.462,0-3.693.017-1.165.343-1.54,1.486-1.563.6-.012.793-.2.77-.788-.039-.983-.033-1.97,0-2.953.016-.521-.122-.72-.692-.759-1.314-.091-1.554-.4-1.565-1.72-.01-1.161-.017-2.321,0-3.482.02-1.176.359-1.539,1.506-1.552q3.007-.034,6.014,0c1.142.013,1.484.381,1.5,1.548.015,1.477,0,2.954,0,4.431m-2.29,1.641c0-1.545-.014-3.089.008-4.634.007-.52-.133-.772-.707-.755-1.052.032-2.106.019-3.159.007-.94-.011-.6.7-.595,1.134s-.354,1.086.6,1.129c1.413.063,1.672.39,1.678,1.81.008,1.825.011,3.651,0,5.476-.009,1.261-.36,1.71-1.578,1.732-1.178.022-.606.845-.71,1.342-.12.575.054.893.763.872,1.719-.05,3.44-.04,5.159,0,.628.013.965-.158.817-.817-.117-.523.5-1.4-.764-1.4-1.119,0-1.491-.464-1.5-1.579-.018-1.439,0-2.878-.006-4.318" transform="translate(-155.588 -58.725)" fill="#12263f"/>
        <path id="Trazado_615277" data-name="Trazado 615277" d="M211.333,31.907a3.357,3.357,0,0,1,3.387,3.323,3.378,3.378,0,1,1-6.756.024,3.378,3.378,0,0,1,3.369-3.347m.092,4.429a1.074,1.074,0,1,0-.173-2.141.968.968,0,0,0-.959,1.142c.03.691.446.984,1.132,1" transform="translate(-164.066 -25.172)" fill="#12263f"/>
      </g>
    </g>
    <g id="Grupo_1073265" data-name="Grupo 1073265" transform="translate(665.349 1788.242)">
      <g id="Grupo_1073264" data-name="Grupo 1073264" clip-path="url(#clip-path-3)">
        <path id="Trazado_615278" data-name="Trazado 615278" d="M36.754,120.95c-1.7,0-3.171-.011-4.646,0-.755.008-1.394-.184-1.373-1.058.021-.833.678-.949,1.369-.944,1.477.01,2.959-.08,4.428.03a1.8,1.8,0,0,0,2.1-1.257,9.282,9.282,0,0,1,.517-.969c-.465-.021-.827-.052-1.188-.052q-5.748-.005-11.5-.006a3.744,3.744,0,0,1-1.04-.093.917.917,0,0,1-.725-.926.934.934,0,0,1,.825-.949,6.149,6.149,0,0,1,1.05-.053q6.328,0,12.657,0a2.449,2.449,0,0,0,2.23-1.891c.067-.516-.346-.34-.561-.343-1.512-.019-3.024-.01-4.535-.012a7.681,7.681,0,0,1-.843-.018c-.621-.069-1.124-.337-1.074-1.043.048-.675.525-.943,1.175-.942,1.828,0,3.662-.088,5.483.029a2.4,2.4,0,0,0,2.614-1.492c1.534-2.88,3.221-5.678,4.875-8.494a3.546,3.546,0,0,0,.51-1.889c-.019-4.957-.011-9.914-.009-14.871a8.017,8.017,0,0,1,.043-1.052.842.842,0,0,1,.958-.774.875.875,0,0,1,.93.823,6.516,6.516,0,0,1,.022.843c0,3.867.006,7.735-.005,11.6,0,.581-.087,1.116.817.948.252-.047.576.216.848.371,1.252.709,2.5,1.42,3.743,2.151,1,.589,1.095.952.514,1.963-1.783,3.105-3.562,6.213-5.38,9.3a3.876,3.876,0,0,0-.548,2.081c.022,5.52.014,11.039.011,16.559,0,2.417-1.2,3.6-3.638,3.6q-21.833,0-43.665,0c-2.482,0-3.706-1.213-3.712-3.666,0-1.793.008-3.586-.005-5.379-.005-.742.155-1.42,1.018-1.427s1.043.676,1.041,1.413c0,1.863-.009,3.727,0,5.59.008,1.146.357,1.511,1.519,1.512q14.766.013,29.532.015c.626,0,.93-.132.775-.824a7.066,7.066,0,0,1,1.163-5.511c.559-.88,1.046-1.807,1.671-2.9M49.1,114.7l-.222-.068c-.555.95-1.1,1.906-1.67,2.849-.323.538-.77.847-1.4.491s-.556-.908-.316-1.465a6.217,6.217,0,0,1,.358-.644q1.714-2.963,3.428-5.925c1.188-2.059,1.171-2.036-.913-3.252-.628-.366-.909-.31-1.282.343q-5.252,9.189-10.582,18.333a5.934,5.934,0,0,0-.623,3.759c.047.5.268.467.625.327a5.031,5.031,0,0,0,2.7-2.075q.583-1,1.161-2.006c.879-1.519,1.748-3.044,2.641-4.555.307-.519.725-.905,1.38-.541a.959.959,0,0,1,.341,1.513c-.18.3-.338.616-.522.915-1.517,2.457-2.7,5.116-4.65,7.474,2.686,0,5.21,0,7.735,0,1.441,0,1.8-.363,1.807-1.813q.01-6.275,0-12.55V114.7m4.229-12.33c.105-.009.211.01.233-.024a11.31,11.31,0,0,0,1.229-2.039c.2-.551-.528-.63-.878-.837-1.993-1.178-2.122-1.127-3,.956-.061.146-.262.332-.07.453.825.52,1.671,1.007,2.484,1.491m-.794,1.938a4.585,4.585,0,0,0-.488-.393,16.54,16.54,0,0,1-1.535-.9c-.659-.5-.935-.259-1.337.362-.546.845-.626,1.4.451,1.778.292.1.54.325.827.452.35.154.718.685,1.059.348a8.133,8.133,0,0,0,1.023-1.644" transform="translate(-0.025 -64.609)" fill="#12263f"/>
        <path id="Trazado_615279" data-name="Trazado 615279" d="M.011,28.032q0-12.077,0-24.155C.012,1.167,1.16,0,3.829,0Q25.557,0,47.286,0c2.59,0,3.74,1.14,3.742,3.707,0,3.164,0,6.329,0,9.493,0,.6-.057,1.149-.737,1.345-.7.2-1.211-.309-1.216-1.276-.015-3.094-.005-6.188-.008-9.282a6.044,6.044,0,0,0-.038-.947,1.182,1.182,0,0,0-1.127-1.069,8.816,8.816,0,0,0-.948-.02H4.134c-1.89,0-2.068.175-2.068,2.026q0,24.207,0,48.415c0,.819.2,1.924-1.028,1.928C-.211,54.325.017,53.21.016,52.4Q0,40.215.011,28.032" transform="translate(0 0.001)" fill="#12263f"/>
        <path id="Trazado_615280" data-name="Trazado 615280" d="M24.867,47.98c0-1.547-.013-3.094,0-4.64A2.747,2.747,0,0,1,27.654,40.4q4.849-.1,9.7,0A2.647,2.647,0,0,1,40.1,43.145q.077,4.85,0,9.7a2.735,2.735,0,0,1-2.915,2.808q-4.692.042-9.386,0A2.836,2.836,0,0,1,24.87,52.62c-.014-1.546,0-3.093,0-4.64m7.645-5.618c-1.476,0-2.952.023-4.428-.008-.909-.019-1.276.418-1.275,1.275q0,4.375,0,8.75c0,.86.377,1.323,1.258,1.323q4.428,0,8.856,0c.859,0,1.269-.408,1.262-1.3q-.033-4.375,0-8.75c.008-.962-.426-1.316-1.348-1.3-1.44.032-2.882.008-4.322.009" transform="translate(-19.617 -31.838)" fill="#12263f"/>
        <path id="Trazado_615281" data-name="Trazado 615281" d="M24.868,214.687c0-1.547-.013-3.094,0-4.64a2.828,2.828,0,0,1,2.982-2.98q4.64-.038,9.28,0a2.756,2.756,0,0,1,2.971,2.863q.07,4.8,0,9.6a2.68,2.68,0,0,1-2.8,2.8q-4.8.089-9.6,0a2.769,2.769,0,0,1-2.835-3c-.014-1.547,0-3.093,0-4.64m13.307.061c0-1.441-.032-2.883.011-4.322.03-.993-.4-1.415-1.372-1.412q-4.323.016-8.645,0c-.91,0-1.366.393-1.362,1.328.011,2.917.005,5.834,0,8.751,0,.857.37,1.282,1.277,1.275,2.952-.023,5.9-.019,8.856,0,.907.005,1.255-.421,1.239-1.3-.026-1.44-.007-2.882-.007-4.322" transform="translate(-19.618 -163.369)" fill="#12263f"/>
        <path id="Trazado_615282" data-name="Trazado 615282" d="M32.445,139.138c-1.547,0-3.093.011-4.64,0a2.759,2.759,0,0,1-2.948-2.872q-.033-4.745,0-9.49a2.738,2.738,0,0,1,2.861-2.849q4.745-.027,9.49,0a2.667,2.667,0,0,1,2.869,2.711q.081,4.9,0,9.805a2.674,2.674,0,0,1-2.885,2.695c-1.582.015-3.163,0-4.745,0m5.712-7.621c0-1.474-.013-2.948.005-4.421.01-.826-.363-1.255-1.187-1.256-2.983-.005-5.965,0-8.948,0a1.09,1.09,0,0,0-1.231,1.231q-.009,4.474,0,8.947a1.091,1.091,0,0,0,1.251,1.211q4.421-.011,8.842,0c.866,0,1.284-.395,1.271-1.284-.022-1.473-.006-2.947-.006-4.421" transform="translate(-19.6 -97.771)" fill="#12263f"/>
        <path id="Trazado_615283" data-name="Trazado 615283" d="M125.773,72.753c-2.424,0-4.847-.008-7.271.005-.732,0-1.436-.117-1.446-.984s.689-.984,1.425-.982q7.323.02,14.647,0c.7,0,1.421.013,1.427.961,0,.931-.688,1-1.406,1-2.458-.006-4.917,0-7.376,0" transform="translate(-92.362 -55.857)" fill="#12263f"/>
        <path id="Trazado_615284" data-name="Trazado 615284" d="M125.776,154.031c2.458,0,4.916,0,7.375,0,.716,0,1.409.058,1.408.992s-.731.981-1.425.981q-7.322,0-14.644,0c-.718,0-1.445-.106-1.429-1,.015-.862.71-.99,1.447-.985,2.423.016,4.846.006,7.269.006" transform="translate(-92.365 -121.531)" fill="#12263f"/>
        <path id="Trazado_615285" data-name="Trazado 615285" d="M168.839,133.949c1.477,0,2.953.01,4.43,0,.708-.007,1.3.125,1.292.992-.009.8-.569.943-1.236.941q-4.43-.011-8.859,0c-.677,0-1.247-.171-1.255-.939-.008-.825.581-1.008,1.3-1,1.441.021,2.883.006,4.324.006" transform="translate(-128.778 -105.685)" fill="#12263f"/>
        <path id="Trazado_615286" data-name="Trazado 615286" d="M168.855,52.567c-1.436,0-2.871-.006-4.307,0-.706,0-1.317-.185-1.331-.992-.015-.834.617-.986,1.313-.985q4.359.007,8.719,0c.675,0,1.315.084,1.314.969,0,.857-.6,1-1.3,1h-4.412" transform="translate(-128.784 -39.92)" fill="#12263f"/>
        <path id="Trazado_615287" data-name="Trazado 615287" d="M149.1,174.149c.808,0,1.616-.006,2.423,0,.654.007,1.1.316,1.12.993a.976.976,0,0,1-1.089,1.03c-1.65.03-3.3.033-4.952,0a.972.972,0,0,1-1.07-1.049c.03-.68.5-.966,1.145-.972.808-.008,1.616,0,2.423,0" transform="translate(-114.827 -137.408)" fill="#12263f"/>
        <path id="Trazado_615288" data-name="Trazado 615288" d="M120.506,217.15c.808,0,1.617-.015,2.425.006.647.017,1.079.307,1.069,1.024-.009.681-.464.928-1.042.938q-2.425.038-4.85,0c-.63-.009-1.132-.325-1.092-1.017.038-.664.524-.951,1.171-.954.773,0,1.547,0,2.32,0" transform="translate(-92.328 -171.335)" fill="#12263f"/>
        <path id="Trazado_615289" data-name="Trazado 615289" d="M149.094,92.9c-.841,0-1.682.01-2.522,0a.927.927,0,0,1-1.033-.954.951.951,0,0,1,1.087-1.006q2.47,0,4.94,0a.949.949,0,0,1,1.082,1.01.919.919,0,0,1-1.031.952c-.841.011-1.682,0-2.522,0" transform="translate(-114.835 -71.75)" fill="#12263f"/>
        <path id="Trazado_615290" data-name="Trazado 615290" d="M120.594,50.611c.773,0,1.547-.008,2.32,0,.646.009,1.1.261,1.089.99a.919.919,0,0,1-1.025.961c-1.652.023-3.3.027-4.955-.007a.971.971,0,1,1,.042-1.939c.843-.01,1.687,0,2.531,0Z" transform="translate(-92.33 -39.931)" fill="#12263f"/>
        <path id="Trazado_615291" data-name="Trazado 615291" d="M120.52,135.9H118.1c-.622,0-1.05-.309-1.064-.92-.015-.663.41-1,1.089-1q2.423.006,4.847,0c.622,0,1.025.273,1.044.92.021.706-.4,1-1.069,1H120.52" transform="translate(-92.343 -105.713)" fill="#12263f"/>
        <path id="Trazado_615292" data-name="Trazado 615292" d="M118.78,176.178a2.832,2.832,0,0,1-1.225-.143c-.451-.232-.762-.589-.6-1.094.312-.994,1.182-.788,1.939-.818.683-.027,1.2.213,1.331.91a.9.9,0,0,1-.7,1.031,3.851,3.851,0,0,1-.738.113" transform="translate(-92.245 -137.388)" fill="#12263f"/>
        <path id="Trazado_615293" data-name="Trazado 615293" d="M118.329,92.627a4.216,4.216,0,0,1-.75-.119.793.793,0,0,1-.531-.61.95.95,0,0,1,.828-1.224c1.3-.293,2.446.129,2.438.913s-.552,1.062-1.281,1.04c-.14,0-.28,0-.7,0" transform="translate(-92.328 -71.472)" fill="#12263f"/>
        <path id="Trazado_615294" data-name="Trazado 615294" d="M118.563,259.6a3.173,3.173,0,0,1-.833-.063c-.54-.189-.948-.57-.756-1.187.3-.953,1.145-.725,1.858-.759.645-.03,1.237.089,1.389.817a.952.952,0,0,1-.82,1.147,3.315,3.315,0,0,1-.837.012Z" transform="translate(-92.258 -203.246)" fill="#12263f"/>
        <path id="Trazado_615295" data-name="Trazado 615295" d="M47.789,69.257a1.024,1.024,0,0,1-.9-.283c-.544-.546-1.1-1.079-1.628-1.642a.9.9,0,0,1,.021-1.4.847.847,0,0,1,1.314-.009c.887,1.241,1.507.63,2.206-.167a16.566,16.566,0,0,1,1.572-1.547.888.888,0,0,1,1.319.057.848.848,0,0,1,.09,1.235c-1.153,1.223-2.356,2.4-3.556,3.577a1,1,0,0,1-.437.177" transform="translate(-35.46 -50.456)" fill="#12263f"/>
        <path id="Trazado_615296" data-name="Trazado 615296" d="M47.762,236.014a1.32,1.32,0,0,1-1.1-.534c-.447-.444-.894-.888-1.332-1.34a.926.926,0,0,1-.123-1.4.916.916,0,0,1,1.473-.01c.783,1.014,1.339.678,2-.109a18.617,18.617,0,0,1,1.632-1.63.929.929,0,0,1,1.327-.048.853.853,0,0,1,.128,1.3c-1.152,1.219-2.353,2.393-3.551,3.568a1.146,1.146,0,0,1-.451.195" transform="translate(-35.46 -182.023)" fill="#12263f"/>
        <path id="Trazado_615297" data-name="Trazado 615297" d="M45.965,149.009a1.619,1.619,0,0,1,1.195.773c.365.439.635.391,1-.005.643-.694,1.334-1.344,2-2.017.484-.489,1.028-.673,1.555-.134a.969.969,0,0,1-.109,1.486c-1.037,1.045-2.083,2.081-3.123,3.124a1.033,1.033,0,0,1-1.649.008c-.547-.544-1.1-1.085-1.621-1.65a.85.85,0,0,1-.112-1.069,1.013,1.013,0,0,1,.861-.516" transform="translate(-35.48 -116.225)" fill="#12263f"/>
      </g>
    </g>
    <g id="Grupo_1073267" data-name="Grupo 1073267" transform="translate(873 1788)">
      <g id="Grupo_1073266" data-name="Grupo 1073266" clip-path="url(#clip-path-4)">
        <path id="Trazado_615298" data-name="Trazado 615298" d="M7.943,24.427A9.239,9.239,0,0,1,5.7,19.651a7.969,7.969,0,0,1,5.584-8.457c.768-.253,1.009-.547.952-1.294-.055-.72-.012-1.447-.012-2.171,0-3.576,1.454-5.048,4.984-5.048,6.7,0,13.394-.014,20.09.016.946,0,1.543-.084,1.432-1.268A1.232,1.232,0,0,1,40.028,0,1.263,1.263,0,0,1,41.4,1.488C41.306,2.6,41.834,2.7,42.752,2.7c6.833-.032,13.665-.02,20.5-.016,3.068,0,4.651,1.6,4.654,4.7q.006,7.059,0,14.118c0,.271.014.544-.01.814-.074.831-.489,1.381-1.367,1.371a1.271,1.271,0,0,1-1.333-1.4c-.034-1.4-.014-2.805-.014-4.208,0-3.575.007-7.149,0-10.724,0-1.524-.414-1.943-1.922-1.944q-23.213-.009-46.425,0c-1.43,0-1.841.436-1.874,1.857a6.006,6.006,0,0,1-.005.678c-.262,1.877.124,3,2.229,3.888,4.025,1.7,5.392,6.494,3.485,10.465-.127.265-.414.488-.281.985,3.238-1.517,6.435-3.051,9.662-4.517a4.08,4.08,0,0,1,5.864,4.291A4.03,4.03,0,0,1,33.2,26.33c-3.485,1.606-6.952,3.254-10.452,4.826a1.465,1.465,0,0,0-1.027,1.618c.069,1.943.092,3.894,0,5.835-.056,1.138.291,1.435,1.423,1.43,10-.044,20-.026,30-.025,3.3,0,6.606.007,9.909,0,1.809-.006,2.124-.334,2.131-2.15.006-1.448,0-2.9,0-4.344,0-.945.387-1.624,1.417-1.593.954.029,1.3.7,1.3,1.575,0,1.765.054,3.531-.012,5.294-.089,2.386-1.849,3.941-4.44,3.947-7.24.016-14.48,0-21.719.012-2.489.005-2.094-.283-2.114,2.049-.025,2.85.034,5.7-.027,8.552a2.776,2.776,0,0,0,1.068,2.435c3.453,2.92,6.841,5.918,10.252,8.888.273.238.549.472.81.722a1.3,1.3,0,0,1,.223,1.927,1.277,1.277,0,0,1-2.021.09q-2.927-2.528-5.843-5.067L39.767,58.6a14.087,14.087,0,0,0-.15,3.285c-.024,1.013-.287,1.887-1.466,1.862-1.133-.024-1.3-.9-1.275-1.847.029-1.031.007-2.063.007-3.083-.544-.171-.727.222-.973.435q-4.26,3.683-8.5,7.385c-.273.238-.545.477-.82.712-.724.62-1.5.758-2.129-.047a1.352,1.352,0,0,1,.352-2.018q3.124-2.715,6.239-5.44c1.671-1.456,3.328-2.929,5.026-4.352a2.012,2.012,0,0,0,.822-1.724c-.04-3.257-.059-6.516.007-9.773.022-1.065-.378-1.28-1.341-1.271q-6.311.063-12.624,0c-.938-.01-1.3.251-1.216,1.214a23.8,23.8,0,0,1,.008,2.713c-.026.893-.454,1.493-1.405,1.468a1.274,1.274,0,0,1-1.3-1.435c-.014-5.294,0-10.588-.011-15.882,0-.908.651-1.213,1.317-1.523q5.464-2.545,10.928-5.091c.368-.172.725-.371,1.1-.528a1.194,1.194,0,0,0,.691-1.768,1.209,1.209,0,0,0-1.789-.661q-1.848.841-3.688,1.7c-2.741,1.28-5.486,2.553-8.215,3.858a3.474,3.474,0,0,1-2.094.3,25.22,25.22,0,0,0-11.4.74,4.017,4.017,0,0,0-3.13,4.205c-.018,4.389,0,8.778-.012,13.167,0,.949.119,1.765,1.312,1.789,1.272.026,1.414-.818,1.409-1.829-.02-3.665-.007-7.33-.008-11,0-1.012-.1-2.181,1.335-2.206s1.392,1.119,1.392,2.15q0,14.185-.006,28.371c0,1.044.066,2.029,1.285,2.393a1.975,1.975,0,0,0,2.777-2.1c.018-5.339.006-10.679.009-16.018a5.826,5.826,0,0,1,.052-1.216,1.23,1.23,0,0,1,1.36-1.057,1.21,1.21,0,0,1,1.248,1.028,5.56,5.56,0,0,1,.06,1.215c0,5.34-.006,10.679.008,16.018,0,1.562.677,2.254,2.075,2.23A1.77,1.77,0,0,0,19,63.055c.047-1.628.024-3.258.011-4.886-.007-.958.218-1.789,1.348-1.8s1.389.8,1.383,1.766c-.011,1.584.011,3.168-.006,4.751a4.724,4.724,0,0,1-7.278,4.16,1.48,1.48,0,0,0-1.772.029,4.73,4.73,0,0,1-7.243-4.238q-.031-5.9.008-11.81c.007-.922,0-1.426-1.263-1.333-2.528.186-4.162-1.506-4.174-4.08q-.032-6.855,0-13.71A6.763,6.763,0,0,1,5.1,25.19c.9-.262,1.808-.487,2.841-.763m5.52-.527a5.112,5.112,0,0,0,5.313-4.979,5.187,5.187,0,1,0-10.371-.257A5.109,5.109,0,0,0,13.463,23.9" transform="translate(0 0)" fill="#12263f"/>
        <path id="Trazado_615299" data-name="Trazado 615299" d="M109.367,39.853q5.963,0,11.926,0a7.943,7.943,0,0,1,1.083.025,1.273,1.273,0,0,1,1.236,1.355,1.243,1.243,0,0,1-1.273,1.315c-1.217.057-2.438.029-3.658.029q-10.571,0-21.141,0a10.744,10.744,0,0,1-1.083-.018,1.279,1.279,0,0,1-1.3-1.3,1.264,1.264,0,0,1,1.338-1.389c1.218-.049,2.439-.02,3.658-.02h9.215" transform="translate(-69.316 -29.026)" fill="#12263f"/>
        <path id="Trazado_615300" data-name="Trazado 615300" d="M144.623,99.86c3.3,0,6.592.01,9.888-.006,1,0,1.91.191,1.892,1.389s-.95,1.348-1.938,1.346q-9.888-.016-19.776,0c-.974,0-1.931-.1-1.955-1.322-.026-1.314.976-1.414,2-1.411,3.3.012,6.592,0,9.888,0" transform="translate(-96.692 -72.739)" fill="#12263f"/>
        <path id="Trazado_615301" data-name="Trazado 615301" d="M148.355,62.584c-3.075,0-6.151,0-9.227,0-1.007,0-2.021-.043-2.01-1.393.011-1.256.962-1.337,1.929-1.336q9.295.008,18.589,0c.983,0,1.939.123,1.958,1.327.021,1.3-.984,1.413-2.013,1.408-3.075-.015-6.151-.005-9.227-.005" transform="translate(-99.885 -43.602)" fill="#12263f"/>
        <path id="Trazado_615302" data-name="Trazado 615302" d="M153.076,82.583c-2.8,0-5.6-.01-8.4.005-1.025.006-2.031-.1-2.018-1.4.012-1.208.961-1.338,1.944-1.336q8.538.017,17.077,0c.984,0,1.936.128,1.952,1.331.018,1.3-.986,1.41-2.014,1.4-2.846-.016-5.692-.005-8.539-.005" transform="translate(-103.919 -58.17)" fill="#12263f"/>
        <path id="Trazado_615303" data-name="Trazado 615303" d="M242.85,98.878c-.111.824-.532,1.351-1.408,1.327a1.311,1.311,0,1,1,.1-2.62c.821.015,1.189.532,1.308,1.293" transform="translate(-174.95 -71.086)" fill="#12263f"/>
        <path id="Trazado_615304" data-name="Trazado 615304" d="M71.53,187.544a1.316,1.316,0,1,1-.091,2.631,1.211,1.211,0,0,1-1.276-1.3,1.243,1.243,0,0,1,1.367-1.334" transform="translate(-51.111 -136.618)" fill="#12263f"/>
      </g>
    </g>
    <g id="Grupo_1073269" data-name="Grupo 1073269" transform="translate(1089.66 1784.926)">
      <g id="Grupo_1073268" data-name="Grupo 1073268" clip-path="url(#clip-path-5)">
        <path id="Trazado_615305" data-name="Trazado 615305" d="M31.345,74.015H2.1c-1.893,0-2.183-.362-2.077-2.254.279-5,.511-10,.774-15q.673-12.81,1.356-25.619c.118-2.27.21-4.541.29-6.813A2.784,2.784,0,0,1,2.823,22.9q1.686-2.758,3.331-5.541a1.622,1.622,0,0,1,1.533-1.022c.684.043.7-.314.631-.876C8,12.984,7.723,10.5,7.431,8.013,7.3,6.941,7.7,6.413,8.769,6.287q6.247-.738,12.5-1.453a2.752,2.752,0,0,0,1.943-1.005A10.169,10.169,0,0,1,33.582.278a10.265,10.265,0,0,1,7.929,7.294A1.429,1.429,0,0,0,42.74,8.69c3.265.721,6.516,1.5,9.77,2.268,1.278.3,1.572.777,1.294,2.071-.177.827-.345,1.658-.586,2.467-.179.6-.072.946.592.83,1.71-.3,2.654.563,3.293,2.016a7.537,7.537,0,0,0,.952,1.58,12.312,12.312,0,0,1,2.388,7.5c.3,8.469.774,16.932,1.2,25.4q.48,9.522,1.018,19.041c.1,1.745-.23,2.154-1.953,2.155q-14.682,0-29.365,0m.028-2.526c9.17,0,18.34-.015,27.51.022.984,0,1.223-.277,1.169-1.229-.354-6.306-.648-12.616-.974-18.924-.43-8.308-.9-16.614-1.278-24.924-.051-1.108-.44-1.277-1.416-1.275q-21.9.041-43.808.019c-2.235,0-4.47.021-6.7-.012-.666-.01-.974.134-.962.881.016.96-.114,1.921-.162,2.883q-.511,10.1-1.014,20.194C3.375,56.163,3.026,63.2,2.621,70.239c-.059,1.031.218,1.28,1.242,1.275,9.17-.042,18.34-.025,27.51-.025M14.609,22.481c0,.027,0,.054,0,.081.693,0,1.388-.032,2.079.008.8.047,1.155-.14.846-1.037a23.108,23.108,0,0,1-.6-2.46c-.342-1.525-.089-1.917,1.42-2.277,3.361-.8,6.718-1.625,10.084-2.409.658-.153.983-.341.859-1.135-.242-1.556-.363-3.131-.51-4.7-.185-1.987-.18-2.037-2.127-1.819-5.31.6-10.613,1.245-15.922,1.848-.562.064-.719.276-.652.807.437,3.47.841,6.945,1.3,10.412.119.9-.245,2.14.516,2.6.677.405,1.788.085,2.707.085m30.583.08c1.14,0,2.065-.019,2.989.007a.857.857,0,0,0,1.016-.806c.554-2.552,1.137-5.1,1.795-7.627.21-.807-.107-1-.761-1.152-4.045-.921-8.085-1.866-12.13-2.788-1.612-.367-1.534-.326-1.971,1.264-.334,1.215.121,1.058.968.826,1.743-.477,2.151-.174,2.553,1.609.4,1.761.776,3.528,1.258,5.266.3,1.1.131,2.592,1,3.206.9.639,2.314.114,3.285.194m-15.554,0c2.846,0,5.692-.021,8.538.014.747.009.94-.206.754-.928q-.772-3.009-1.461-6.039c-.142-.622-.383-.746-1.019-.589-4.878,1.2-9.77,2.347-14.652,3.534-2.341.569-2.3.585-1.745,2.92.209.878.625,1.13,1.508,1.11,2.691-.061,5.384-.022,8.076-.022M38.769,7.618c-1.775-5.056-8.659-6.558-11.917-3.5.813-.081,1.578-.142,2.34-.237,1.051-.131,1.574.305,1.694,1.369.279,2.484.6,4.963.921,7.443.035.274-.1.708.369.711.4,0,.877.012,1.024-.538.059-.222.149-.437.2-.661.287-1.235.561-2.474.852-3.708.307-1.3.719-1.563,2.054-1.331a10.976,10.976,0,0,0,2.462.448M56.664,22.557a32.47,32.47,0,0,1-1.685-2.9c-.437-.971-1.193-.892-2-.874-.921.021-.617.825-.8,1.283a14.742,14.742,0,0,0-.453,1.777c-.129.495.039.718.557.715,1.377-.009,2.755,0,4.381,0m-49.13,0c.267,0,.536-.018.8,0,.68.055.867-.236.738-.889-.147-.746-.205-1.509-.319-2.263-.031-.208.024-.5-.262-.568s-.38.193-.5.384c-.533.88-1.055,1.767-1.6,2.64-.269.433-.288.7.333.69.267-.006.534,0,.8,0" transform="translate(0 0)" fill="#12263f"/>
        <path id="Trazado_615306" data-name="Trazado 615306" d="M80.984,129.928c0-.462-.029-.927.006-1.387a2.461,2.461,0,0,0-1.148-2.57,3.575,3.575,0,0,1-.283-5.476,3.734,3.734,0,0,1,5.53.219,3.66,3.66,0,0,1-.719,5.465,1.734,1.734,0,0,0-.892,1.775c.057,1.192-.008,2.39.031,3.583a8.123,8.123,0,0,0,16.242-.089c.02-.732-.009-1.465.012-2.2.039-1.369.068-2.525-1.35-3.553-1.753-1.271-1.5-3.907.138-5.376a3.734,3.734,0,0,1,5.431.5,3.641,3.641,0,0,1-.81,5.367,1.869,1.869,0,0,0-.921,1.865,26.31,26.31,0,0,1-.193,5.415,10.654,10.654,0,0,1-20.969-.541,19.092,19.092,0,0,1-.022-3h-.082m.1-6.332a1.673,1.673,0,0,1,1.788-.26c.678.37.631-.064.526-.477a1.115,1.115,0,0,0-1.37-.919c-.789.152-1.158.683-.945,1.656m21.065.013c.238-.9-.073-1.412-.8-1.638a1.1,1.1,0,0,0-1.417.659.885.885,0,0,0-.081.654c.15.314.383.022.579-.031a1.887,1.887,0,0,1,1.714.356" transform="translate(-60.288 -91.771)" fill="#12263f"/>
      </g>
    </g>
    <g id="Grupo_1073271" data-name="Grupo 1073271" transform="translate(1301.217 1784.564)">
      <g id="Grupo_1073270" data-name="Grupo 1073270" clip-path="url(#clip-path-6)">
        <path id="Trazado_615307" data-name="Trazado 615307" d="M57.8,58.252c0,4.4,0,8.483,0,12.562,0,3.846-.14,3.985-4.009,3.985H8.061c-2.688,0-3.127-.453-3.147-3.124-.016-2.086.292-1.779-1.822-1.8C.445,69.858.02,69.454.02,66.829q0-27.277-.02-54.555A3.164,3.164,0,0,1,1.145,9.656C4.351,6.786,7.5,3.855,10.64.91A3.137,3.137,0,0,1,12.983,0Q31.5.045,50.011.021c2.339,0,2.884.541,2.889,2.85,0,2.09,0,2.09,2.066,2.1,2.383.011,2.826.454,2.83,2.879.006,4.3.029,8.61-.019,12.914a2.062,2.062,0,0,0,1.066,2.014,18.939,18.939,0,0,1,5.364,26.506,1.462,1.462,0,0,0,.1,2.129c.969,1.139,2.235,2.228,1.616,4.045-.046.135.17.387.306.551.869,1.048,1.557,2.406,2.661,3.067,3.368,2.017,4.945,5.531,7.367,8.322,2.508,2.89,2.245,4.088-.839,6.428-1.777,1.348-2.921,1.392-4.349.145a5.78,5.78,0,0,1-.714-.772,85.035,85.035,0,0,1-6.029-7.809,52.587,52.587,0,0,0-2.688-4.651c-.493-.644-.881-1.219-1.851-1.191-.7.02-1.2-.628-1.987-1.294M1.825,40.1q0,13.108,0,26.215c0,1.936-.206,1.714,1.657,1.715q22.988.009,45.976,0c.264,0,.529-.023.79,0,.641.064.826-.232.821-.842q-.032-4.479,0-8.958c0-.58-.19-.786-.78-.664a13.632,13.632,0,0,1-4.19-.05c-11.276-1.156-19.229-13.035-15.974-23.9a18.923,18.923,0,0,1,19.749-13.9c.707.038,1.225.138,1.215-.922-.054-5.313-.035-10.627-.013-15.94,0-.694-.125-1.011-.926-1.01q-18.179.034-36.359,0c-.754,0-.973.233-.962.973.038,2.5-.025,5.007.031,7.508.026,1.153-.427,1.557-1.551,1.544-2.678-.029-5.358.077-8.035.016-1.137-.026-1.484.272-1.477,1.46.054,8.914.029,17.828.029,26.742M65.6,38.7A17.163,17.163,0,1,0,48.361,55.884,17.2,17.2,0,0,0,65.6,38.7M31.31,72.971c7.769,0,15.537-.021,23.305.024,1.107.007,1.406-.325,1.393-1.409q-.081-7.044,0-14.088c.016-1.2-.317-1.1-1.311-.907-1.626.314-1.893,1.179-1.831,2.635.111,2.629.034,5.266.031,7.9,0,2.22-.513,2.743-2.686,2.746q-3.687.006-7.373,0-17.38,0-34.761.008c-.42,0-1.083-.219-1.216.2a4.33,4.33,0,0,0-.009,2.588c.188.583.928.292,1.414.293q11.521.026,23.042.012M69.3,61.845c-.857.671-1.726,1.411-2.657,2.059-.672.468-.677.836-.17,1.457,1.632,2,3.2,4.051,4.8,6.08,1.585,2.012,1.666,2.019,3.7.407a1.981,1.981,0,0,1,.205-.163c1.035-.615,1.072-1.392.371-2.286q-2.795-3.565-5.594-7.127c-.156-.2-.283-.453-.66-.427M55.986,13.968c0-2.02-.067-4.043.023-6.058.065-1.445-.9-1.077-1.659-1.109-.786-.032-1.524-.193-1.484,1.126.1,3.334.033,6.673.033,10.01,0,2.215.011,2.184,2.116,2.917.774.269,1,.124.982-.7-.04-2.063-.013-4.127-.013-6.191M3.451,10.039c2.524,0,4.674-.005,6.825,0,.461,0,.75-.1.746-.65-.014-2-.006-4-.006-6.325l-7.565,6.97M62.3,51.793c-.256.224-.449.4-.648.566-.665.563-1.305,1.159-2,1.678-1.735,1.295-1.71,1.252-.37,2.949.549.695.947.85,1.643.213a18.892,18.892,0,0,1,2.465-1.939c.884-.572.928-1.1.232-1.834-.472-.5-.87-1.069-1.321-1.633m1.977,5.042a10.234,10.234,0,0,0-1.759,1.5c-.394.517.316.9.583,1.3.555.837,1.175,1.633,1.77,2.444.214.29.377.5.843.259,1.983-1.028,2.127-1.589.724-3.264-.506-.6-1-1.216-1.523-1.806-.159-.18-.275-.452-.638-.44" transform="translate(0 -0.001)" fill="#12263f"/>
        <path id="Trazado_615308" data-name="Trazado 615308" d="M33.3,178.619q-5.47,0-10.939,0c-.351,0-.7,0-1.053-.028a.8.8,0,0,1-.792-.741c-.069-.511.174-.955.669-.956,1.108,0,.97-.726.969-1.429q-.006-9.226,0-18.452c0-1.828.086-1.909,1.963-1.912.966,0,1.933,0,2.9,0,1.6.009,1.748.15,1.749,1.728q.006,9.16,0,18.32c0,.308.016.616,0,.923-.025.493.175.716.688.724.555.007.645-.3.642-.751-.007-1.45,0-2.9,0-4.349,0-3.163.033-6.327-.016-9.489-.018-1.207.445-1.668,1.64-1.6a31.9,31.9,0,0,0,3.557,0c1.092-.058,1.473.382,1.463,1.461-.038,4.085-.015,8.171-.014,12.257a9.755,9.755,0,0,0,.01,1.185c.061.492-.317,1.279.66,1.258.9-.019.542-.76.55-1.2.036-2.2.016-4.393.017-6.589,0-.967.017-1.934,0-2.9-.017-.838.4-1.208,1.2-1.209,1.318,0,2.637.026,3.954-.012,1.065-.03,1.491.414,1.476,1.494-.042,3.031-.01,6.062-.017,9.094,0,.706-.127,1.413.959,1.458.5.021.7.5.6,1a.868.868,0,0,1-.972.7q-2.636,0-5.272.008-3.295,0-6.59,0m-9.326-11.9c0,2.986.069,5.974-.032,8.957-.045,1.326.725,1.13,1.5,1.121.753-.008,1.542.242,1.527-1.091q-.1-8.825,0-17.652c.017-1.34-.743-1.105-1.5-1.1-.742.006-1.568-.278-1.525,1.07.091,2.9.028,5.8.028,8.694m10.97,2.87c0-1.708.027-3.415-.007-5.121-.043-2.214.525-1.995-2.135-2.034-.681-.01-.906.213-.9.9.026,4.159.051,8.318-.01,12.475-.019,1.294.811.981,1.484.978.713,0,1.639.346,1.588-1.027-.076-2.054-.02-4.114-.018-6.171m4.839,2.108c0,1.358.067,2.72-.019,4.073-.088,1.394.878.986,1.576,1.021.724.037,1.479.209,1.432-1.037-.09-2.362,0-4.731-.032-7.1-.027-2.164.432-1.879-1.942-1.954-.826-.026-1.06.264-1.028,1.052.053,1.312.014,2.628.014,3.942" transform="translate(-15.1 -114.214)" fill="#12263f"/>
        <path id="Trazado_615309" data-name="Trazado 615309" d="M33.974,83.031q-5.27,0-10.539,0c-.682,0-1.457.022-1.444-.9.013-.881.758-.923,1.456-.923q10.539.007,21.078,0c.7,0,1.432.037,1.437.939.005.955-.783.881-1.449.881H33.974" transform="translate(-16.194 -59.803)" fill="#12263f"/>
        <path id="Trazado_615310" data-name="Trazado 615310" d="M35.334,66.464q-5.731,0-11.462,0c-.395,0-.791,0-1.184-.039a.777.777,0,0,1-.755-.772.823.823,0,0,1,.744-.924,3.466,3.466,0,0,1,.656-.042q12.054,0,24.109,0c.684,0,1.424,0,1.388.956-.033.884-.762.82-1.376.821q-6.06.008-12.12,0" transform="translate(-16.15 -47.634)" fill="#12263f"/>
        <path id="Trazado_615311" data-name="Trazado 615311" d="M32.414,99.817q-4.476,0-8.953,0c-.684,0-1.453,0-1.474-.894s.722-.938,1.423-.937q8.953.009,17.905,0c.667,0,1.444-.073,1.453.879.009,1.043-.834.944-1.533.945q-4.41.009-8.821,0" transform="translate(-16.191 -72.158)" fill="#12263f"/>
        <path id="Trazado_615312" data-name="Trazado 615312" d="M141.856,119.84a14.922,14.922,0,1,1,15.052-14.859,14.923,14.923,0,0,1-15.052,14.859m.047-1.808a13.1,13.1,0,1,0-13.117-13.171A13.07,13.07,0,0,0,141.9,118.033" transform="translate(-93.506 -66.274)" fill="#12263f"/>
        <path id="Trazado_615313" data-name="Trazado 615313" d="M157.588,123.412c-2.368,0-4.737.016-7.105,0-1.981-.017-2.77-1.342-1.79-3.062q3.544-6.221,7.155-12.4c.995-1.705,2.578-1.71,3.57-.011q3.61,6.184,7.161,12.4c.99,1.737.222,3.055-1.755,3.074-2.412.023-4.824.006-7.237.006m.051-14.955-7.509,13.016h15.02l-7.512-13.016" transform="translate(-109.188 -78.543)" fill="#12263f"/>
        <path id="Trazado_615314" data-name="Trazado 615314" d="M180.443,128.508c0-.784-.016-1.568,0-2.352a.874.874,0,1,1,1.744.024q.018,2.352-.01,4.7a.781.781,0,0,1-.806.846.817.817,0,0,1-.923-.87c-.024-.783-.006-1.568-.008-2.352" transform="translate(-132.873 -92.219)" fill="#12263f"/>
        <path id="Trazado_615315" data-name="Trazado 615315" d="M181.381,155.064a.894.894,0,0,1-.912-.863c-.038-.581.149-1.048.8-1.11.573-.055.875.289.931.839a.923.923,0,0,1-.817,1.135" transform="translate(-132.894 -112.732)" fill="#12263f"/>
      </g>
    </g>
  </g>
</svg>
