<svg xmlns="http://www.w3.org/2000/svg" xmlns:xlink="http://www.w3.org/1999/xlink" width="125" height="125" viewBox="0 0 125 125">
  <defs>
    <clipPath id="clip-path">
      <rect id="Rectángulo_379167" data-name="Rectángulo 379167" width="78.15" height="70.727" fill="#12263f"/>
    </clipPath>
  </defs>
  <g id="Grupo_1073787" data-name="Grupo 1073787" transform="translate(-386.496 -952.5)">
    <g id="Grupo_1072978" data-name="Grupo 1072978" transform="translate(0.828 -5042.5)">
      <rect id="Rectángulo_377974" data-name="Rectángulo 377974" width="125" height="125" transform="translate(385.668 5995)" fill="none"/>
      <path id="Trazado_610930" data-name="Trazado 610930" d="M-10.279,8.447,92.441.268l13.473,113.306L-7.668,125Z" transform="translate(398.947 5995)" fill="#fff"/>
      <path id="Trazado_610931" data-name="Trazado 610931" d="M-22852-5608.555l-26.621,26.192-.854-1.708-2.277.712-1.709-.712-4.7-1.565,31.316-31.174v1.993h1.85v2.42Z" transform="translate(23362.668 11700)" fill="#ffa346"/>
      <path id="Trazado_610932" data-name="Trazado 610932" d="M-22852-5608.555l-26.621,26.192-.854-1.708-2.277.712-1.709-.712-4.7-1.565,31.316-31.174v1.993h1.85v2.42Z" transform="translate(23273.826 11611.811)" fill="#ffa346"/>
    </g>
    <path id="Intersección_7" data-name="Intersección 7" d="M23221.221,11791.125l1.383,11.624-12.1,11.9-14.367,1.445Z" transform="translate(-22717.785 -10747.232)" fill="#ffe3c7"/>
    <path id="Intersección_8" data-name="Intersección 8" d="M23116.354,11732.74l-2.279.711-1.707-.711-.773-.258-.115-5.1,20.711-20.613,9.867-.786,1.77,2.278-26.621,26.19Z" transform="translate(-22721.172 -10747.5)" fill="#ffe3c7"/>
    <rect id="Rectángulo_378032" data-name="Rectángulo 378032" width="73" height="73" transform="translate(412.496 979.5)" fill="#fff"/>
    <g id="Grupo_1073797" data-name="Grupo 1073797" transform="translate(405.213 973.165)">
      <g id="Grupo_1073796" data-name="Grupo 1073796" clip-path="url(#clip-path)">
        <path id="Trazado_615943" data-name="Trazado 615943" d="M39.072,157.008q-18.457,0-36.914-.006c-.9,0-2.143.236-2.158-1.124-.017-1.465,1.278-1.162,2.213-1.189a29.734,29.734,0,0,1,3.054.011c.9.067,1.074-.295,1.065-1.117-.041-3.626-.021-7.252-.016-10.878,0-2.4,1.015-3.424,3.405-3.431,2.322-.007,4.645-.011,6.967,0,2.19.011,3.23,1.025,3.242,3.209.021,3.708.032,7.416-.012,11.123-.01.86.246,1.1,1.1,1.1,2.647-.011,2.647.026,2.647-2.571,0-1.1.017-2.2-.006-3.3-.017-.838.079-1.68,1.1-1.709,1.148-.032,1.159.894,1.154,1.749-.01,1.63.022,3.26-.014,4.889-.015.67.179.943.891.933q3.605-.05,7.211,0c.705.01.894-.246.891-.923q-.031-9.778,0-19.557c0-.764-.294-.988-1.009-.98-2.241.025-4.482.043-6.722-.008-.944-.022-1.289.27-1.271,1.253.055,2.932.021,5.867.016,8.8,0,.53.015,1.067-.575,1.367a1.088,1.088,0,0,1-1.64-.983c-.04-3.463-.057-6.927.017-10.388a2.529,2.529,0,0,1,2.663-2.356c2.688-.043,5.378-.048,8.067,0,1.732.031,2.737,1.183,2.741,3.056.012,6.438.033,12.875-.021,19.312-.009,1.122.288,1.459,1.416,1.421,2.364-.08,2.366-.019,2.366-2.4q0-13.14,0-26.28c0-2.565.874-3.432,3.437-3.434,2.363,0,4.726-.008,7.089,0,1.994.009,2.987,1,2.989,3.018.008,9.249.023,18.5-.022,27.746-.005,1.074.254,1.383,1.339,1.347,2.413-.079,2.415-.018,2.415-2.457q0-17.112,0-34.225c0-3.043.774-3.806,3.854-3.807,2.241,0,4.482-.018,6.723.007a2.764,2.764,0,0,1,3.038,3.033c.024,3.626.008,7.252.006,10.878,0,.8-.184,1.526-1.148,1.555-1.048.033-1.24-.718-1.24-1.576,0-3.463-.032-6.927.021-10.389.015-.965-.267-1.269-1.24-1.238-2.157.069-4.32.074-6.477,0-1.017-.035-1.212.357-1.21,1.273q.037,17.907,0,35.813c0,.818.172,1.148,1.066,1.124,2.239-.061,4.483-.068,6.721,0,.947.03,1.142-.3,1.137-1.18-.035-6.437-.019-12.875-.018-19.312a5.739,5.739,0,0,1,.037-1.1,1.12,1.12,0,0,1,1.166-1.029,1.108,1.108,0,0,1,1.115.947,4.954,4.954,0,0,1,.066,1.214c0,6.4.027,12.794-.023,19.19-.008,1.037.289,1.336,1.295,1.265,1.216-.086,2.443-.026,3.665-.015.779.007,1.415.29,1.408,1.168S77.491,157,76.719,157q-4.278.011-8.556.005H39.072m13.142-17.172c0-4.563-.025-9.125.019-13.687.01-1.027-.336-1.351-1.343-1.323-2.157.06-4.319.053-6.476,0-.91-.022-1.19.291-1.187,1.2q.04,13.81,0,27.62c0,.912.342,1.068,1.138,1.053,2.24-.043,4.482-.06,6.721.007.938.028,1.16-.283,1.151-1.18-.043-4.562-.02-9.125-.02-13.688m-34.621,8.321c0-1.829-.031-3.658.014-5.486.019-.783-.221-1.077-1.032-1.061q-3.413.065-6.827,0c-.774-.013-1.069.2-1.061,1.026q.056,5.547,0,11.095c-.007.752.222.979.968.966,2.316-.042,4.633-.049,6.949,0,.834.019,1.021-.3,1-1.057-.044-1.828-.014-3.657-.015-5.486" transform="translate(0 -86.29)" fill="#12263f"/>
        <path id="Trazado_615944" data-name="Trazado 615944" d="M92.984,14.685c-.417-4.183-.808-8.1-1.207-12.11l-11.569,3a5.836,5.836,0,0,0,2.042,1.634,1.464,1.464,0,0,1,.533,2.269,40.78,40.78,0,0,1-5.978,7.395c-.568.572-1.24.725-1.814.093a1.164,1.164,0,0,1,.191-1.733A43.385,43.385,0,0,0,80,9.557c.375-.534.413-.855-.207-1.239-1-.619-1.941-1.341-2.917-2a1.3,1.3,0,0,1-.733-1.295c.085-.615.485-.872,1.055-1.02C82.189,2.7,87.175,1.377,92.174.1c1.2-.306,1.678.069,1.806,1.288q.782,7.468,1.526,14.94c.064.64.166,1.316-.562,1.728s-1.234-.045-1.768-.412c-.8-.554-1.64-1.071-2.4-1.682-.641-.515-1.042-.5-1.573.184A55.676,55.676,0,0,1,73.2,30.119a67.685,67.685,0,0,1-23.92,8.358,55.151,55.151,0,0,1-6.789.764c-1.737.058-2.732-.648-2.981-2.052-.258-1.454.455-2.537,2.131-3.065a103.219,103.219,0,0,0,16.042-6.468,73.472,73.472,0,0,0,13.581-8.848,1.656,1.656,0,0,1,1.287-.592,1.069,1.069,0,0,1,.964.809,1.265,1.265,0,0,1-.552,1.379,72.452,72.452,0,0,1-6.884,5.066,95.974,95.974,0,0,1-22.5,10.468c-.6.2-1.733.17-1.622.832.1.571,1.138.073,1.742.022A65.282,65.282,0,0,0,75.021,26.239,54.083,54.083,0,0,0,88.094,13.864c1.181-1.556,1.375-1.59,2.942-.514l1.948,1.335" transform="translate(-29.807 0)" fill="#12263f"/>
      </g>
    </g>
  </g>
</svg>
