<svg xmlns="http://www.w3.org/2000/svg" xmlns:xlink="http://www.w3.org/1999/xlink" width="400" height="638" viewBox="0 0 400 638">
  <defs>
    <clipPath id="clip-path">
      <rect id="Rectángulo_378843" data-name="Rectángulo 378843" width="58.117" height="76.536" fill="#12263f"/>
    </clipPath>
    <clipPath id="clip-path-2">
      <rect id="Rectángulo_378844" data-name="Rectángulo 378844" width="51.985" height="69.322" fill="#12263f"/>
    </clipPath>
    <clipPath id="clip-path-3">
      <rect id="Rectángulo_378845" data-name="Rectángulo 378845" width="62.72" height="62.73" fill="#12263f"/>
    </clipPath>
    <clipPath id="clip-path-4">
      <rect id="Rectángulo_378846" data-name="Rectángulo 378846" width="64.856" height="64.889" fill="#12263f"/>
    </clipPath>
  </defs>
  <g id="Grupo_1073818" data-name="Grupo 1073818" transform="translate(-9519.398 8093)">
    <rect id="Rectángulo_378851" data-name="Rectángulo 378851" width="400" height="638" transform="translate(9519.398 -8093)" fill="#fff"/>
    <rect id="Rectángulo_378847" data-name="Rectángulo 378847" width="173" height="155" rx="30" transform="translate(9526.398 -7971)" fill="#ffe3c7"/>
    <path id="Trazado_615995" data-name="Trazado 615995" d="M6.594,10.836H4.727V15H2.383V3.625H6.609a4.778,4.778,0,0,1,3.109.9,3.1,3.1,0,0,1,1.094,2.539A3.5,3.5,0,0,1,10.309,9a3.437,3.437,0,0,1-1.527,1.238l2.461,4.648V15H8.727Zm-1.867-1.9H6.617a1.936,1.936,0,0,0,1.367-.449A1.606,1.606,0,0,0,8.469,7.25a1.719,1.719,0,0,0-.457-1.266,1.9,1.9,0,0,0-1.4-.461H4.727Zm11.609,6.219a4.15,4.15,0,0,1-3.027-1.141,4.054,4.054,0,0,1-1.168-3.039v-.219a5.106,5.106,0,0,1,.492-2.277,3.612,3.612,0,0,1,1.395-1.547,3.914,3.914,0,0,1,2.059-.543,3.508,3.508,0,0,1,2.73,1.094,4.444,4.444,0,0,1,1,3.1v.922H14.43a2.1,2.1,0,0,0,.66,1.328,2,2,0,0,0,1.395.5,2.437,2.437,0,0,0,2.039-.945l1.109,1.242a3.389,3.389,0,0,1-1.375,1.121A4.511,4.511,0,0,1,16.336,15.156Zm-.258-6.945a1.411,1.411,0,0,0-1.09.455,2.357,2.357,0,0,0-.535,1.3h3.141V9.788a1.681,1.681,0,0,0-.406-1.165A1.456,1.456,0,0,0,16.078,8.211Zm8.531,5.125a1.481,1.481,0,0,0,1.016-.344,1.2,1.2,0,0,0,.406-.914h2.117a2.9,2.9,0,0,1-.469,1.574,3.093,3.093,0,0,1-1.262,1.109,3.949,3.949,0,0,1-1.77.395A3.67,3.67,0,0,1,21.789,14a4.56,4.56,0,0,1-1.047-3.184v-.148a4.508,4.508,0,0,1,1.039-3.117,3.627,3.627,0,0,1,2.852-1.164,3.555,3.555,0,0,1,2.543.9,3.2,3.2,0,0,1,.973,2.4H26.031a1.551,1.551,0,0,0-.406-1.072,1.51,1.51,0,0,0-2.223.163,3.333,3.333,0,0,0-.4,1.866v.235a3.375,3.375,0,0,0,.4,1.878A1.377,1.377,0,0,0,24.609,13.336ZM29.086,10.7a5.013,5.013,0,0,1,.484-2.242A3.546,3.546,0,0,1,30.965,6.93a4.069,4.069,0,0,1,2.113-.539,3.849,3.849,0,0,1,2.793,1.047,4.2,4.2,0,0,1,1.207,2.844l.016.578a4.418,4.418,0,0,1-1.086,3.121,3.775,3.775,0,0,1-2.914,1.176,3.793,3.793,0,0,1-2.918-1.172,4.5,4.5,0,0,1-1.09-3.187Zm2.258.16A3.16,3.16,0,0,0,31.8,12.7a1.628,1.628,0,0,0,2.578.008,3.457,3.457,0,0,0,.461-2.015,3.128,3.128,0,0,0-.461-1.831,1.5,1.5,0,0,0-1.3-.649,1.474,1.474,0,0,0-1.281.646A3.516,3.516,0,0,0,31.344,10.856Zm9.219-4.309.07.977a2.951,2.951,0,0,1,2.43-1.133,2.453,2.453,0,0,1,2,.789,3.682,3.682,0,0,1,.672,2.359V15H43.477V9.594a1.465,1.465,0,0,0-.312-1.043,1.4,1.4,0,0,0-1.039-.324,1.553,1.553,0,0,0-1.43.813V15H38.438V6.547ZM47.094,10.7a5.013,5.013,0,0,1,.484-2.242A3.546,3.546,0,0,1,48.973,6.93a4.069,4.069,0,0,1,2.113-.539,3.849,3.849,0,0,1,2.793,1.047,4.2,4.2,0,0,1,1.207,2.844l.016.578a4.418,4.418,0,0,1-1.086,3.121,4.209,4.209,0,0,1-5.832,0,4.5,4.5,0,0,1-1.09-3.187Zm2.258.16A3.16,3.16,0,0,0,49.8,12.7a1.628,1.628,0,0,0,2.578.008,3.457,3.457,0,0,0,.461-2.015,3.128,3.128,0,0,0-.461-1.831,1.5,1.5,0,0,0-1.3-.649,1.474,1.474,0,0,0-1.281.646A3.516,3.516,0,0,0,49.352,10.856Zm10.656,2.48a1.481,1.481,0,0,0,1.016-.344,1.2,1.2,0,0,0,.406-.914h2.117a2.9,2.9,0,0,1-.469,1.574,3.093,3.093,0,0,1-1.262,1.109,3.949,3.949,0,0,1-1.77.395A3.67,3.67,0,0,1,57.188,14a4.56,4.56,0,0,1-1.047-3.184v-.148A4.508,4.508,0,0,1,57.18,7.555a3.627,3.627,0,0,1,2.852-1.164,3.555,3.555,0,0,1,2.543.9,3.2,3.2,0,0,1,.973,2.4H61.43a1.551,1.551,0,0,0-.406-1.072,1.51,1.51,0,0,0-2.223.163,3.333,3.333,0,0,0-.4,1.866v.235a3.375,3.375,0,0,0,.4,1.878A1.377,1.377,0,0,0,60.008,13.336ZM67.219,15H64.953V6.547h2.266ZM64.82,4.359a1.112,1.112,0,0,1,.34-.836,1.465,1.465,0,0,1,1.848,0,1.105,1.105,0,0,1,.344.836A1.108,1.108,0,0,1,67,5.2a1.448,1.448,0,0,1-1.836,0A1.108,1.108,0,0,1,64.82,4.359ZM71.2,6.547l.07.945a2.971,2.971,0,0,1,2.43-1.1A2.255,2.255,0,0,1,75.938,7.68a2.9,2.9,0,0,1,2.539-1.289,2.521,2.521,0,0,1,2.047.8A3.681,3.681,0,0,1,81.2,9.6V15H78.93V9.609a1.61,1.61,0,0,0-.281-1.051,1.246,1.246,0,0,0-.992-.332A1.409,1.409,0,0,0,76.25,9.2l.008,5.8H74V9.617a1.59,1.59,0,0,0-.289-1.062,1.259,1.259,0,0,0-.984-.328,1.463,1.463,0,0,0-1.391.8V15H69.078V6.547ZM85.313,15H83.047V6.547h2.266Zm-2.4-10.641a1.112,1.112,0,0,1,.34-.836,1.465,1.465,0,0,1,1.848,0,1.105,1.105,0,0,1,.344.836A1.108,1.108,0,0,1,85.1,5.2a1.448,1.448,0,0,1-1.836,0A1.108,1.108,0,0,1,82.914,4.359Zm8.148,10.8a4.15,4.15,0,0,1-3.027-1.141,4.054,4.054,0,0,1-1.168-3.039v-.219a5.106,5.106,0,0,1,.492-2.277,3.612,3.612,0,0,1,1.395-1.547,3.914,3.914,0,0,1,2.059-.543,3.508,3.508,0,0,1,2.73,1.094,4.444,4.444,0,0,1,1,3.1v.922H89.156a2.1,2.1,0,0,0,.66,1.328,2,2,0,0,0,1.395.5,2.437,2.437,0,0,0,2.039-.945l1.109,1.242a3.389,3.389,0,0,1-1.375,1.121A4.511,4.511,0,0,1,91.063,15.156ZM90.8,8.211a1.411,1.411,0,0,0-1.09.455,2.357,2.357,0,0,0-.535,1.3H92.32V9.788a1.681,1.681,0,0,0-.406-1.165A1.456,1.456,0,0,0,90.8,8.211ZM97.9,6.547l.07.977a2.951,2.951,0,0,1,2.43-1.133,2.453,2.453,0,0,1,2,.789,3.682,3.682,0,0,1,.672,2.359V15h-2.258V9.594a1.465,1.465,0,0,0-.312-1.043,1.4,1.4,0,0,0-1.039-.324,1.553,1.553,0,0,0-1.43.813V15H95.773V6.547Zm9.586-2.078V6.547h1.445V8.2h-1.445v4.219a1.007,1.007,0,0,0,.18.672.9.9,0,0,0,.688.2,3.6,3.6,0,0,0,.664-.055v1.711a4.648,4.648,0,0,1-1.367.2,2.156,2.156,0,0,1-2.422-2.4V8.2h-1.234V6.547h1.234V4.469ZM109.6,10.7a5.013,5.013,0,0,1,.484-2.242A3.546,3.546,0,0,1,111.48,6.93a4.069,4.069,0,0,1,2.113-.539,3.849,3.849,0,0,1,2.793,1.047,4.2,4.2,0,0,1,1.207,2.844l.016.578a4.418,4.418,0,0,1-1.086,3.121,4.209,4.209,0,0,1-5.832,0A4.5,4.5,0,0,1,109.6,10.8Zm2.258.16a3.16,3.16,0,0,0,.453,1.843,1.628,1.628,0,0,0,2.578.008,3.457,3.457,0,0,0,.461-2.015,3.128,3.128,0,0,0-.461-1.831,1.5,1.5,0,0,0-1.3-.649,1.474,1.474,0,0,0-1.281.646A3.516,3.516,0,0,0,111.859,10.856ZM13.352,34.711a5.094,5.094,0,0,1,.887-3.148,2.877,2.877,0,0,1,2.426-1.172,2.589,2.589,0,0,1,2.039.922V27h2.266V39H18.93l-.109-.9a2.657,2.657,0,0,1-2.172,1.055,2.869,2.869,0,0,1-2.395-1.176A5.258,5.258,0,0,1,13.352,34.711Zm2.258.168a3.337,3.337,0,0,0,.414,1.823,1.349,1.349,0,0,0,1.2.634,1.511,1.511,0,0,0,1.477-.884V33.111a1.489,1.489,0,0,0-1.461-.884Q15.609,32.227,15.609,34.879Zm11,4.277a4.15,4.15,0,0,1-3.027-1.141,4.054,4.054,0,0,1-1.168-3.039v-.219a5.106,5.106,0,0,1,.492-2.277A3.612,3.612,0,0,1,24.3,30.934a3.914,3.914,0,0,1,2.059-.543,3.508,3.508,0,0,1,2.73,1.094,4.444,4.444,0,0,1,1,3.1v.922H24.7a2.1,2.1,0,0,0,.66,1.328,2,2,0,0,0,1.395.5,2.437,2.437,0,0,0,2.039-.945l1.109,1.242a3.389,3.389,0,0,1-1.375,1.121A4.511,4.511,0,0,1,26.609,39.156Zm-.258-6.945a1.411,1.411,0,0,0-1.09.455,2.357,2.357,0,0,0-.535,1.3h3.141v-.181a1.681,1.681,0,0,0-.406-1.165A1.456,1.456,0,0,0,26.352,32.211ZM33.75,39H31.484V27H33.75ZM47.2,34.852a5.07,5.07,0,0,1-.887,3.129,2.843,2.843,0,0,1-2.395,1.176,2.633,2.633,0,0,1-2.07-.891V42.25H39.594v-11.7h2.094l.078.828a2.654,2.654,0,0,1,2.141-.984,2.862,2.862,0,0,1,2.43,1.156,5.207,5.207,0,0,1,.867,3.188Zm-2.258-.164a3.327,3.327,0,0,0-.418-1.82,1.361,1.361,0,0,0-1.215-.641,1.478,1.478,0,0,0-1.461.813V36.5a1.5,1.5,0,0,0,1.477.836Q44.945,37.336,44.945,34.688Zm8.406-2.023a6.134,6.134,0,0,0-.812-.062,1.654,1.654,0,0,0-1.68.867V39H48.6V30.547h2.133l.063,1.008a2.092,2.092,0,0,1,1.883-1.164,2.366,2.366,0,0,1,.7.1ZM53.8,34.7a5.013,5.013,0,0,1,.484-2.242,3.546,3.546,0,0,1,1.395-1.523,4.069,4.069,0,0,1,2.113-.539,3.849,3.849,0,0,1,2.793,1.047A4.2,4.2,0,0,1,61.8,34.281l.016.578a4.418,4.418,0,0,1-1.086,3.121,4.209,4.209,0,0,1-5.832,0A4.5,4.5,0,0,1,53.8,34.8Zm2.258.16a3.16,3.16,0,0,0,.453,1.843,1.628,1.628,0,0,0,2.578.008,3.457,3.457,0,0,0,.461-2.015,3.128,3.128,0,0,0-.461-1.831,1.5,1.5,0,0,0-1.3-.649,1.474,1.474,0,0,0-1.281.646A3.516,3.516,0,0,0,56.063,34.856Zm14.758,0a5.119,5.119,0,0,1-.867,3.168,2.872,2.872,0,0,1-2.422,1.137,2.639,2.639,0,0,1-2.2-1.055l-.1.9H63.2V27h2.258v4.3a2.571,2.571,0,0,1,2.055-.914,2.9,2.9,0,0,1,2.426,1.137,5.126,5.126,0,0,1,.879,3.2Zm-2.258-.164a3.363,3.363,0,0,0-.406-1.871,1.374,1.374,0,0,0-1.211-.59,1.489,1.489,0,0,0-1.484.883v3.336a1.509,1.509,0,0,0,1.5.891A1.394,1.394,0,0,0,68.4,36.258,5.562,5.562,0,0,0,68.563,34.688ZM74.594,39H72.328V27h2.266Zm5.75.156a4.15,4.15,0,0,1-3.027-1.141,4.054,4.054,0,0,1-1.168-3.039v-.219a5.106,5.106,0,0,1,.492-2.277,3.612,3.612,0,0,1,1.395-1.547,3.914,3.914,0,0,1,2.059-.543,3.508,3.508,0,0,1,2.73,1.094,4.444,4.444,0,0,1,1,3.1v.922H78.438a2.1,2.1,0,0,0,.66,1.328,2,2,0,0,0,1.395.5,2.437,2.437,0,0,0,2.039-.945l1.109,1.242a3.389,3.389,0,0,1-1.375,1.121A4.511,4.511,0,0,1,80.344,39.156Zm-.258-6.945a1.411,1.411,0,0,0-1.09.455,2.357,2.357,0,0,0-.535,1.3H81.6v-.181a1.681,1.681,0,0,0-.406-1.165A1.456,1.456,0,0,0,80.086,32.211Zm7.133-1.664.07.945a2.971,2.971,0,0,1,2.43-1.1,2.255,2.255,0,0,1,2.242,1.289A2.9,2.9,0,0,1,94.5,30.391a2.521,2.521,0,0,1,2.047.8,3.681,3.681,0,0,1,.672,2.41V39H94.953V33.609a1.61,1.61,0,0,0-.281-1.051,1.246,1.246,0,0,0-.992-.332,1.409,1.409,0,0,0-1.406.969l.008,5.8H90.023V33.617a1.59,1.59,0,0,0-.289-1.062,1.259,1.259,0,0,0-.984-.328,1.463,1.463,0,0,0-1.391.8V39H85.1V30.547ZM103.852,39a2.507,2.507,0,0,1-.227-.758,2.732,2.732,0,0,1-2.133.914,3,3,0,0,1-2.059-.719,2.312,2.312,0,0,1-.816-1.812,2.389,2.389,0,0,1,1-2.062,4.915,4.915,0,0,1,2.879-.727h1.039v-.484a1.393,1.393,0,0,0-.3-.937,1.183,1.183,0,0,0-.949-.352,1.345,1.345,0,0,0-.895.273.929.929,0,0,0-.324.75H98.8a2.268,2.268,0,0,1,.453-1.359,3,3,0,0,1,1.281-.98,4.669,4.669,0,0,1,1.859-.355,3.689,3.689,0,0,1,2.48.785,2.747,2.747,0,0,1,.918,2.207v3.664a4.041,4.041,0,0,0,.336,1.82V39Zm-1.867-1.57a1.945,1.945,0,0,0,.922-.223,1.462,1.462,0,0,0,.625-.6V35.156h-.844q-1.7,0-1.8,1.172l-.008.133a.9.9,0,0,0,.3.7A1.153,1.153,0,0,0,101.984,37.43Z" transform="translate(9553.398 -7917)" fill="#12263f"/>
    <rect id="Rectángulo_378848" data-name="Rectángulo 378848" width="173" height="155" rx="30" transform="translate(9740.398 -7971)" fill="#ffe3c7"/>
    <path id="Trazado_615996" data-name="Trazado 615996" d="M14.129,15V3.625h3.984a5.232,5.232,0,0,1,3.141.793,2.712,2.712,0,0,1,1.07,2.324,2.57,2.57,0,0,1-.43,1.473,2.482,2.482,0,0,1-1.2.934,2.4,2.4,0,0,1,1.379.883,2.61,2.61,0,0,1,.5,1.625,3,3,0,0,1-1.047,2.484A4.713,4.713,0,0,1,18.551,15Zm2.344-4.953v3.07H18.48a1.938,1.938,0,0,0,1.293-.395,1.353,1.353,0,0,0,.465-1.09,1.428,1.428,0,0,0-1.617-1.586Zm0-1.656h1.734q1.773-.031,1.773-1.414a1.307,1.307,0,0,0-.449-1.113,2.363,2.363,0,0,0-1.418-.34H16.473Zm12.781,5.75a2.831,2.831,0,0,1-2.312,1.016,2.67,2.67,0,0,1-2.074-.781,3.335,3.335,0,0,1-.73-2.289V6.547h2.258v5.467q0,1.322,1.2,1.322a1.63,1.63,0,0,0,1.578-.8V6.547h2.266V15H29.316ZM28.246,3h2.461L28.543,5.422H26.707Zm9.477,9.664a.727.727,0,0,0-.41-.652A4.659,4.659,0,0,0,36,11.586q-3.016-.633-3.016-2.562a2.323,2.323,0,0,1,.934-1.879,3.766,3.766,0,0,1,2.441-.754,4.053,4.053,0,0,1,2.574.758,2.388,2.388,0,0,1,.965,1.969H37.637a1.092,1.092,0,0,0-.312-.8A1.322,1.322,0,0,0,36.348,8a1.351,1.351,0,0,0-.883.258.814.814,0,0,0-.312.656.7.7,0,0,0,.355.605,3.657,3.657,0,0,0,1.2.4,9.8,9.8,0,0,1,1.422.379,2.336,2.336,0,0,1,1.789,2.273,2.2,2.2,0,0,1-.992,1.871,4.28,4.28,0,0,1-2.562.715,4.47,4.47,0,0,1-1.887-.379,3.166,3.166,0,0,1-1.293-1.039,2.414,2.414,0,0,1-.469-1.426h2.141a1.179,1.179,0,0,0,.445.922,1.766,1.766,0,0,0,1.109.32,1.635,1.635,0,0,0,.98-.246A.766.766,0,0,0,37.723,12.664Zm3.3-1.969a5.053,5.053,0,0,1,.887-3.148A2.9,2.9,0,0,1,44.34,6.391,2.6,2.6,0,0,1,46.5,7.43l.148-.883h1.984v11.7H46.371V14.273a2.6,2.6,0,0,1-2.047.883,2.878,2.878,0,0,1-2.406-1.172A5.3,5.3,0,0,1,41.02,10.7Zm2.258.16A3.314,3.314,0,0,0,43.7,12.7a1.363,1.363,0,0,0,1.2.634,1.518,1.518,0,0,0,1.469-.829v-3.5a1.506,1.506,0,0,0-1.453-.8,1.38,1.38,0,0,0-1.211.634A3.661,3.661,0,0,0,43.277,10.856Zm12.2,3.285a2.831,2.831,0,0,1-2.312,1.016,2.67,2.67,0,0,1-2.074-.781,3.335,3.335,0,0,1-.73-2.289V6.547h2.258v5.467q0,1.322,1.2,1.322a1.63,1.63,0,0,0,1.578-.8V6.547H57.66V15H55.535Zm7.781,1.016a4.15,4.15,0,0,1-3.027-1.141,4.054,4.054,0,0,1-1.168-3.039v-.219a5.106,5.106,0,0,1,.492-2.277,3.612,3.612,0,0,1,1.395-1.547A3.914,3.914,0,0,1,63,6.391a3.508,3.508,0,0,1,2.73,1.094,4.444,4.444,0,0,1,1,3.1v.922H61.348a2.1,2.1,0,0,0,.66,1.328,2,2,0,0,0,1.395.5,2.437,2.437,0,0,0,2.039-.945l1.109,1.242a3.389,3.389,0,0,1-1.375,1.121A4.511,4.511,0,0,1,63.254,15.156ZM63,8.211a1.411,1.411,0,0,0-1.09.455,2.357,2.357,0,0,0-.535,1.3h3.141V9.788a1.681,1.681,0,0,0-.406-1.165A1.456,1.456,0,0,0,63,8.211Zm4.664,2.5a5.094,5.094,0,0,1,.887-3.148,2.877,2.877,0,0,1,2.426-1.172,2.589,2.589,0,0,1,2.039.922V3h2.266V15H73.238l-.109-.9a2.657,2.657,0,0,1-2.172,1.055,2.869,2.869,0,0,1-2.395-1.176A5.258,5.258,0,0,1,67.66,10.711Zm2.258.168a3.337,3.337,0,0,0,.414,1.823,1.349,1.349,0,0,0,1.2.634,1.511,1.511,0,0,0,1.477-.884V9.111a1.489,1.489,0,0,0-1.461-.884Q69.918,8.227,69.918,10.879ZM81.926,15a2.507,2.507,0,0,1-.227-.758,2.732,2.732,0,0,1-2.133.914,3,3,0,0,1-2.059-.719,2.312,2.312,0,0,1-.816-1.812,2.389,2.389,0,0,1,1-2.062,4.915,4.915,0,0,1,2.879-.727h1.039V9.352a1.393,1.393,0,0,0-.3-.937,1.183,1.183,0,0,0-.949-.352,1.345,1.345,0,0,0-.895.273.929.929,0,0,0-.324.75H76.879a2.268,2.268,0,0,1,.453-1.359,3,3,0,0,1,1.281-.98,4.669,4.669,0,0,1,1.859-.355,3.689,3.689,0,0,1,2.48.785,2.747,2.747,0,0,1,.918,2.207v3.664a4.041,4.041,0,0,0,.336,1.82V15Zm-1.867-1.57a1.945,1.945,0,0,0,.922-.223,1.462,1.462,0,0,0,.625-.6V11.156h-.844q-1.7,0-1.8,1.172l-.008.133a.9.9,0,0,0,.3.7A1.153,1.153,0,0,0,80.059,13.43Zm9.18-2.719a5.094,5.094,0,0,1,.887-3.148,2.877,2.877,0,0,1,2.426-1.172,2.589,2.589,0,0,1,2.039.922V3h2.266V15H94.816l-.109-.9a2.657,2.657,0,0,1-2.172,1.055,2.869,2.869,0,0,1-2.395-1.176A5.258,5.258,0,0,1,89.238,10.711Zm2.258.168A3.337,3.337,0,0,0,91.91,12.7a1.349,1.349,0,0,0,1.2.634,1.511,1.511,0,0,0,1.477-.884V9.111a1.489,1.489,0,0,0-1.461-.884Q91.5,8.227,91.5,10.879Zm11,4.277a4.15,4.15,0,0,1-3.027-1.141A4.054,4.054,0,0,1,98.3,10.977v-.219a5.106,5.106,0,0,1,.492-2.277,3.612,3.612,0,0,1,1.395-1.547,3.914,3.914,0,0,1,2.059-.543,3.508,3.508,0,0,1,2.73,1.094,4.444,4.444,0,0,1,1,3.1v.922H100.59a2.1,2.1,0,0,0,.66,1.328,2,2,0,0,0,1.395.5,2.437,2.437,0,0,0,2.039-.945l1.109,1.242a3.389,3.389,0,0,1-1.375,1.121A4.511,4.511,0,0,1,102.5,15.156Zm-.258-6.945a1.411,1.411,0,0,0-1.09.455,2.357,2.357,0,0,0-.535,1.3h3.141V9.788a1.681,1.681,0,0,0-.406-1.165A1.456,1.456,0,0,0,102.238,8.211ZM19.578,39H17.313V30.547h2.266Zm-2.4-10.641a1.112,1.112,0,0,1,.34-.836,1.465,1.465,0,0,1,1.848,0,1.193,1.193,0,0,1,0,1.68,1.448,1.448,0,0,1-1.836,0A1.108,1.108,0,0,1,17.18,28.359Zm6.336,2.188.07.977a2.951,2.951,0,0,1,2.43-1.133,2.453,2.453,0,0,1,2,.789,3.682,3.682,0,0,1,.672,2.359V39H26.43V33.594a1.465,1.465,0,0,0-.312-1.043,1.4,1.4,0,0,0-1.039-.324,1.553,1.553,0,0,0-1.43.813V39H21.391V30.547ZM31.016,39V32.2H29.758V30.547h1.258v-.719a2.918,2.918,0,0,1,.816-2.207,3.162,3.162,0,0,1,2.285-.785,5.278,5.278,0,0,1,1.148.156l-.023,1.75a2.878,2.878,0,0,0-.687-.07q-1.273,0-1.273,1.2v.68h1.68V32.2h-1.68V39Zm4.766-4.3a5.013,5.013,0,0,1,.484-2.242A3.546,3.546,0,0,1,37.66,30.93a4.069,4.069,0,0,1,2.113-.539,3.849,3.849,0,0,1,2.793,1.047,4.2,4.2,0,0,1,1.207,2.844l.016.578A4.418,4.418,0,0,1,42.7,37.98a4.209,4.209,0,0,1-5.832,0,4.5,4.5,0,0,1-1.09-3.187Zm2.258.16a3.16,3.16,0,0,0,.453,1.843,1.628,1.628,0,0,0,2.578.008,3.457,3.457,0,0,0,.461-2.015,3.128,3.128,0,0,0-.461-1.831,1.5,1.5,0,0,0-1.3-.649,1.474,1.474,0,0,0-1.281.646A3.516,3.516,0,0,0,38.039,34.856ZM49.93,32.664a6.134,6.134,0,0,0-.812-.062,1.654,1.654,0,0,0-1.68.867V39H45.18V30.547h2.133l.063,1.008a2.092,2.092,0,0,1,1.883-1.164,2.366,2.366,0,0,1,.7.1Zm3.2-2.117.07.945a2.971,2.971,0,0,1,2.43-1.1,2.255,2.255,0,0,1,2.242,1.289,2.9,2.9,0,0,1,2.539-1.289,2.521,2.521,0,0,1,2.047.8,3.681,3.681,0,0,1,.672,2.41V39H60.867V33.609a1.61,1.61,0,0,0-.281-1.051,1.246,1.246,0,0,0-.992-.332,1.409,1.409,0,0,0-1.406.969L58.2,39H55.938V33.617a1.59,1.59,0,0,0-.289-1.062,1.259,1.259,0,0,0-.984-.328,1.463,1.463,0,0,0-1.391.8V39H51.016V30.547ZM69.766,39a2.507,2.507,0,0,1-.227-.758,2.732,2.732,0,0,1-2.133.914,3,3,0,0,1-2.059-.719,2.312,2.312,0,0,1-.816-1.812,2.389,2.389,0,0,1,1-2.062,4.915,4.915,0,0,1,2.879-.727h1.039v-.484a1.393,1.393,0,0,0-.3-.937,1.183,1.183,0,0,0-.949-.352,1.345,1.345,0,0,0-.895.273.929.929,0,0,0-.324.75H64.719a2.268,2.268,0,0,1,.453-1.359,3,3,0,0,1,1.281-.98,4.669,4.669,0,0,1,1.859-.355,3.689,3.689,0,0,1,2.48.785,2.747,2.747,0,0,1,.918,2.207v3.664a4.041,4.041,0,0,0,.336,1.82V39ZM67.9,37.43a1.945,1.945,0,0,0,.922-.223,1.462,1.462,0,0,0,.625-.6V35.156H68.6q-1.7,0-1.8,1.172l-.008.133a.9.9,0,0,0,.3.7A1.153,1.153,0,0,0,67.9,37.43Zm9.063-.094a1.481,1.481,0,0,0,1.016-.344,1.2,1.2,0,0,0,.406-.914H80.5a2.9,2.9,0,0,1-.469,1.574,3.093,3.093,0,0,1-1.262,1.109,3.949,3.949,0,0,1-1.77.395A3.67,3.67,0,0,1,74.141,38a4.56,4.56,0,0,1-1.047-3.184v-.148a4.508,4.508,0,0,1,1.039-3.117,3.627,3.627,0,0,1,2.852-1.164,3.555,3.555,0,0,1,2.543.9,3.2,3.2,0,0,1,.973,2.4H78.383a1.551,1.551,0,0,0-.406-1.072,1.51,1.51,0,0,0-2.223.163,3.333,3.333,0,0,0-.4,1.866v.235a3.375,3.375,0,0,0,.4,1.878A1.377,1.377,0,0,0,76.961,37.336ZM84.172,39H81.906V30.547h2.266Zm-2.4-10.641a1.112,1.112,0,0,1,.34-.836,1.465,1.465,0,0,1,1.848,0,1.193,1.193,0,0,1,0,1.68,1.448,1.448,0,0,1-1.836,0A1.108,1.108,0,0,1,81.773,28.359ZM85.68,34.7a5.013,5.013,0,0,1,.484-2.242,3.546,3.546,0,0,1,1.395-1.523,4.069,4.069,0,0,1,2.113-.539,3.849,3.849,0,0,1,2.793,1.047,4.2,4.2,0,0,1,1.207,2.844l.016.578A4.418,4.418,0,0,1,92.6,37.98a4.209,4.209,0,0,1-5.832,0A4.5,4.5,0,0,1,85.68,34.8Zm2.258.16a3.16,3.16,0,0,0,.453,1.843,1.628,1.628,0,0,0,2.578.008,3.457,3.457,0,0,0,.461-2.015,3.128,3.128,0,0,0-.461-1.831,1.5,1.5,0,0,0-1.3-.649,1.474,1.474,0,0,0-1.281.646A3.516,3.516,0,0,0,87.938,34.856ZM90.117,27h2.461l-2.164,2.422H88.578Zm7.039,3.547.07.977a2.951,2.951,0,0,1,2.43-1.133,2.453,2.453,0,0,1,2,.789,3.682,3.682,0,0,1,.672,2.359V39H100.07V33.594a1.465,1.465,0,0,0-.312-1.043,1.4,1.4,0,0,0-1.039-.324,1.553,1.553,0,0,0-1.43.813V39H95.031V30.547ZM37.684,63H35.418V54.547h2.266Zm-2.4-10.641a1.112,1.112,0,0,1,.34-.836,1.465,1.465,0,0,1,1.848,0,1.193,1.193,0,0,1,0,1.68,1.448,1.448,0,0,1-1.836,0A1.108,1.108,0,0,1,35.285,52.359Zm6.336,2.188.07.977a2.951,2.951,0,0,1,2.43-1.133,2.453,2.453,0,0,1,2,.789,3.682,3.682,0,0,1,.672,2.359V63H44.535V57.594a1.465,1.465,0,0,0-.312-1.043,1.4,1.4,0,0,0-1.039-.324,1.553,1.553,0,0,0-1.43.813V63H39.5V54.547Zm9.586-2.078v2.078h1.445V56.2H51.207v4.219a1.007,1.007,0,0,0,.18.672.9.9,0,0,0,.688.2,3.6,3.6,0,0,0,.664-.055v1.711a4.648,4.648,0,0,1-1.367.2,2.156,2.156,0,0,1-2.422-2.4V56.2H47.715V54.547h1.234V52.469ZM57.8,63.156a4.15,4.15,0,0,1-3.027-1.141,4.054,4.054,0,0,1-1.168-3.039v-.219A5.106,5.106,0,0,1,54.1,56.48a3.612,3.612,0,0,1,1.395-1.547,3.914,3.914,0,0,1,2.059-.543,3.508,3.508,0,0,1,2.73,1.094,4.444,4.444,0,0,1,1,3.1v.922H55.895a2.1,2.1,0,0,0,.66,1.328,2,2,0,0,0,1.395.5,2.437,2.437,0,0,0,2.039-.945L61.1,61.633a3.389,3.389,0,0,1-1.375,1.121A4.511,4.511,0,0,1,57.8,63.156Zm-.258-6.945a1.411,1.411,0,0,0-1.09.455,2.357,2.357,0,0,0-.535,1.3h3.141v-.181a1.681,1.681,0,0,0-.406-1.165A1.456,1.456,0,0,0,57.543,56.211Zm9.766.453A6.134,6.134,0,0,0,66.5,56.6a1.654,1.654,0,0,0-1.68.867V63H62.559V54.547h2.133l.063,1.008a2.092,2.092,0,0,1,1.883-1.164,2.366,2.366,0,0,1,.7.1Zm3.164-2.117.07.977a2.951,2.951,0,0,1,2.43-1.133,2.453,2.453,0,0,1,2,.789,3.682,3.682,0,0,1,.672,2.359V63H73.387V57.594a1.465,1.465,0,0,0-.312-1.043,1.4,1.4,0,0,0-1.039-.324,1.553,1.553,0,0,0-1.43.813V63H68.348V54.547ZM82.254,63a2.507,2.507,0,0,1-.227-.758,2.732,2.732,0,0,1-2.133.914,3,3,0,0,1-2.059-.719,2.312,2.312,0,0,1-.816-1.812,2.389,2.389,0,0,1,1-2.062,4.915,4.915,0,0,1,2.879-.727h1.039v-.484a1.393,1.393,0,0,0-.3-.937,1.183,1.183,0,0,0-.949-.352,1.345,1.345,0,0,0-.895.273.929.929,0,0,0-.324.75H77.207a2.268,2.268,0,0,1,.453-1.359,3,3,0,0,1,1.281-.98,4.669,4.669,0,0,1,1.859-.355,3.689,3.689,0,0,1,2.48.785,2.747,2.747,0,0,1,.918,2.207v3.664a4.041,4.041,0,0,0,.336,1.82V63Zm-1.867-1.57a1.945,1.945,0,0,0,.922-.223,1.462,1.462,0,0,0,.625-.6V59.156H81.09q-1.7,0-1.8,1.172l-.008.133a.9.9,0,0,0,.3.7A1.153,1.153,0,0,0,80.387,61.43Z" transform="translate(9767.398 -7927)" fill="#12263f"/>
    <rect id="Rectángulo_378849" data-name="Rectángulo 378849" width="173" height="155" rx="30" transform="translate(9740.398 -7627)" fill="#ffe3c7"/>
    <path id="Trazado_615997" data-name="Trazado 615997" d="M41.418,11.211A4.025,4.025,0,0,1,40.063,14.1a4.76,4.76,0,0,1-3.223,1.055A4.281,4.281,0,0,1,33.4,13.684a6.038,6.038,0,0,1-1.254-4.043v-.7a6.819,6.819,0,0,1,.578-2.891,4.332,4.332,0,0,1,1.652-1.918,5.164,5.164,0,0,1,5.668.387,4.326,4.326,0,0,1,1.391,2.961H39.09a2.376,2.376,0,0,0-.613-1.6,2.271,2.271,0,0,0-1.605-.5,1.991,1.991,0,0,0-1.754.84,4.707,4.707,0,0,0-.6,2.605V9.7a5.038,5.038,0,0,0,.559,2.7,1.954,1.954,0,0,0,1.762.852,2.314,2.314,0,0,0,1.621-.5,2.241,2.241,0,0,0,.613-1.535Zm1.039-.516a5.013,5.013,0,0,1,.484-2.242A3.546,3.546,0,0,1,44.336,6.93a4.069,4.069,0,0,1,2.113-.539,3.849,3.849,0,0,1,2.793,1.047,4.2,4.2,0,0,1,1.207,2.844l.016.578a4.418,4.418,0,0,1-1.086,3.121,4.209,4.209,0,0,1-5.832,0,4.5,4.5,0,0,1-1.09-3.187Zm2.258.16a3.16,3.16,0,0,0,.453,1.843,1.628,1.628,0,0,0,2.578.008,3.457,3.457,0,0,0,.461-2.015,3.128,3.128,0,0,0-.461-1.831,1.5,1.5,0,0,0-1.3-.649,1.474,1.474,0,0,0-1.281.646A3.516,3.516,0,0,0,44.715,10.856Zm9.258-4.309.07.945a2.971,2.971,0,0,1,2.43-1.1A2.255,2.255,0,0,1,58.715,7.68a2.9,2.9,0,0,1,2.539-1.289,2.521,2.521,0,0,1,2.047.8,3.681,3.681,0,0,1,.672,2.41V15H61.707V9.609a1.61,1.61,0,0,0-.281-1.051,1.246,1.246,0,0,0-.992-.332,1.409,1.409,0,0,0-1.406.969l.008,5.8H56.777V9.617a1.59,1.59,0,0,0-.289-1.062,1.259,1.259,0,0,0-.984-.328,1.463,1.463,0,0,0-1.391.8V15H51.855V6.547Zm19.344,4.3a5.07,5.07,0,0,1-.887,3.129,2.843,2.843,0,0,1-2.395,1.176,2.633,2.633,0,0,1-2.07-.891V18.25H65.707V6.547H67.8l.078.828a2.654,2.654,0,0,1,2.141-.984,2.862,2.862,0,0,1,2.43,1.156,5.207,5.207,0,0,1,.867,3.188Zm-2.258-.164a3.327,3.327,0,0,0-.418-1.82,1.361,1.361,0,0,0-1.215-.641,1.478,1.478,0,0,0-1.461.813V12.5a1.5,1.5,0,0,0,1.477.836Q71.059,13.336,71.059,10.688Zm8.406-2.023a6.134,6.134,0,0,0-.812-.062,1.654,1.654,0,0,0-1.68.867V15H74.715V6.547h2.133l.063,1.008a2.092,2.092,0,0,1,1.883-1.164,2.366,2.366,0,0,1,.7.1ZM85.215,15a2.507,2.507,0,0,1-.227-.758,2.732,2.732,0,0,1-2.133.914,3,3,0,0,1-2.059-.719,2.312,2.312,0,0,1-.816-1.812,2.389,2.389,0,0,1,1-2.062,4.915,4.915,0,0,1,2.879-.727h1.039V9.352a1.393,1.393,0,0,0-.3-.937,1.183,1.183,0,0,0-.949-.352,1.345,1.345,0,0,0-.895.273.929.929,0,0,0-.324.75H80.168a2.268,2.268,0,0,1,.453-1.359,3,3,0,0,1,1.281-.98,4.669,4.669,0,0,1,1.859-.355,3.689,3.689,0,0,1,2.48.785,2.747,2.747,0,0,1,.918,2.207v3.664a4.041,4.041,0,0,0,.336,1.82V15Zm-1.867-1.57a1.945,1.945,0,0,0,.922-.223,1.462,1.462,0,0,0,.625-.6V11.156h-.844q-1.7,0-1.8,1.172l-.008.133a.9.9,0,0,0,.3.7A1.153,1.153,0,0,0,83.348,13.43Z" transform="translate(9767.398 -7560)" fill="#12263f"/>
    <rect id="Rectángulo_378850" data-name="Rectángulo 378850" width="173" height="155" rx="30" transform="translate(9526.398 -7627)" fill="#ffe3c7"/>
    <path id="Trazado_615998" data-name="Trazado 615998" d="M17.93,10.07h-4.5v3.047h5.281V15H11.086V3.625H18.7v1.9H13.43V8.234h4.5ZM22.9,12.242l1.57-5.7h2.359L23.977,15H21.82L18.969,6.547h2.359ZM32.6,15a2.507,2.507,0,0,1-.227-.758,2.732,2.732,0,0,1-2.133.914,3,3,0,0,1-2.059-.719,2.312,2.312,0,0,1-.816-1.812,2.389,2.389,0,0,1,1-2.062,4.915,4.915,0,0,1,2.879-.727h1.039V9.352a1.393,1.393,0,0,0-.3-.937,1.183,1.183,0,0,0-.949-.352,1.345,1.345,0,0,0-.895.273.929.929,0,0,0-.324.75H27.555a2.268,2.268,0,0,1,.453-1.359,3,3,0,0,1,1.281-.98,4.669,4.669,0,0,1,1.859-.355,3.689,3.689,0,0,1,2.48.785,2.747,2.747,0,0,1,.918,2.207v3.664a4.041,4.041,0,0,0,.336,1.82V15Zm-1.867-1.57a1.945,1.945,0,0,0,.922-.223,1.462,1.462,0,0,0,.625-.6V11.156h-.844q-1.7,0-1.8,1.172l-.008.133a.9.9,0,0,0,.3.7A1.153,1.153,0,0,0,30.734,13.43ZM38.664,15H36.4V3h2.266Zm6.922-.859a2.831,2.831,0,0,1-2.312,1.016,2.67,2.67,0,0,1-2.074-.781,3.335,3.335,0,0,1-.73-2.289V6.547h2.258v5.467q0,1.322,1.2,1.322a1.63,1.63,0,0,0,1.578-.8V6.547h2.266V15H45.648ZM54.375,15a2.507,2.507,0,0,1-.227-.758,2.732,2.732,0,0,1-2.133.914,3,3,0,0,1-2.059-.719,2.312,2.312,0,0,1-.816-1.812,2.389,2.389,0,0,1,1-2.062,4.915,4.915,0,0,1,2.879-.727h1.039V9.352a1.393,1.393,0,0,0-.3-.937,1.183,1.183,0,0,0-.949-.352,1.345,1.345,0,0,0-.895.273.929.929,0,0,0-.324.75H49.328a2.268,2.268,0,0,1,.453-1.359,3,3,0,0,1,1.281-.98,4.669,4.669,0,0,1,1.859-.355,3.689,3.689,0,0,1,2.48.785,2.747,2.747,0,0,1,.918,2.207v3.664a4.041,4.041,0,0,0,.336,1.82V15Zm-1.867-1.57a1.945,1.945,0,0,0,.922-.223,1.462,1.462,0,0,0,.625-.6V11.156h-.844q-1.7,0-1.8,1.172l-.008.133a.9.9,0,0,0,.3.7A1.153,1.153,0,0,0,52.508,13.43Zm9.063-.094a1.481,1.481,0,0,0,1.016-.344,1.2,1.2,0,0,0,.406-.914h2.117a2.9,2.9,0,0,1-.469,1.574,3.093,3.093,0,0,1-1.262,1.109,3.949,3.949,0,0,1-1.77.395A3.67,3.67,0,0,1,58.75,14,4.56,4.56,0,0,1,57.7,10.82v-.148a4.508,4.508,0,0,1,1.039-3.117,3.627,3.627,0,0,1,2.852-1.164,3.555,3.555,0,0,1,2.543.9,3.2,3.2,0,0,1,.973,2.4H62.992a1.551,1.551,0,0,0-.406-1.072,1.51,1.51,0,0,0-2.223.163,3.333,3.333,0,0,0-.4,1.866v.235a3.375,3.375,0,0,0,.4,1.878A1.377,1.377,0,0,0,61.57,13.336ZM68.781,15H66.516V6.547h2.266Zm-2.4-10.641a1.112,1.112,0,0,1,.34-.836,1.465,1.465,0,0,1,1.848,0,1.105,1.105,0,0,1,.344.836,1.108,1.108,0,0,1-.348.844,1.448,1.448,0,0,1-1.836,0A1.108,1.108,0,0,1,66.383,4.359ZM70.289,10.7a5.013,5.013,0,0,1,.484-2.242A3.546,3.546,0,0,1,72.168,6.93a4.069,4.069,0,0,1,2.113-.539,3.849,3.849,0,0,1,2.793,1.047,4.2,4.2,0,0,1,1.207,2.844l.016.578a4.418,4.418,0,0,1-1.086,3.121,4.209,4.209,0,0,1-5.832,0,4.5,4.5,0,0,1-1.09-3.187Zm2.258.16A3.16,3.16,0,0,0,73,12.7a1.628,1.628,0,0,0,2.578.008,3.457,3.457,0,0,0,.461-2.015,3.128,3.128,0,0,0-.461-1.831,1.5,1.5,0,0,0-1.3-.649A1.474,1.474,0,0,0,73,8.856,3.516,3.516,0,0,0,72.547,10.856ZM74.727,3h2.461L75.023,5.422H73.188Zm7.039,3.547.07.977a2.951,2.951,0,0,1,2.43-1.133,2.453,2.453,0,0,1,2,.789,3.682,3.682,0,0,1,.672,2.359V15H84.68V9.594a1.465,1.465,0,0,0-.312-1.043,1.4,1.4,0,0,0-1.039-.324,1.553,1.553,0,0,0-1.43.813V15H79.641V6.547Zm10.516,4.164a5.094,5.094,0,0,1,.887-3.148,2.877,2.877,0,0,1,2.426-1.172,2.589,2.589,0,0,1,2.039.922V3H99.9V15H97.859l-.109-.9a2.657,2.657,0,0,1-2.172,1.055,2.869,2.869,0,0,1-2.395-1.176A5.258,5.258,0,0,1,92.281,10.711Zm2.258.168a3.337,3.337,0,0,0,.414,1.823,1.349,1.349,0,0,0,1.2.634,1.511,1.511,0,0,0,1.477-.884V9.111a1.489,1.489,0,0,0-1.461-.884Q94.539,8.227,94.539,10.879Zm11,4.277a4.15,4.15,0,0,1-3.027-1.141,4.054,4.054,0,0,1-1.168-3.039v-.219a5.106,5.106,0,0,1,.492-2.277,3.612,3.612,0,0,1,1.395-1.547,3.914,3.914,0,0,1,2.059-.543,3.508,3.508,0,0,1,2.73,1.094,4.444,4.444,0,0,1,1,3.1v.922h-5.383a2.1,2.1,0,0,0,.66,1.328,2,2,0,0,0,1.395.5,2.437,2.437,0,0,0,2.039-.945l1.109,1.242a3.389,3.389,0,0,1-1.375,1.121A4.511,4.511,0,0,1,105.539,15.156Zm-.258-6.945a1.411,1.411,0,0,0-1.09.455,2.357,2.357,0,0,0-.535,1.3H106.8V9.788a1.681,1.681,0,0,0-.406-1.165A1.456,1.456,0,0,0,105.281,8.211ZM36.918,37.336a1.481,1.481,0,0,0,1.016-.344,1.2,1.2,0,0,0,.406-.914h2.117a2.9,2.9,0,0,1-.469,1.574,3.093,3.093,0,0,1-1.262,1.109,3.949,3.949,0,0,1-1.77.395A3.67,3.67,0,0,1,34.1,38a4.56,4.56,0,0,1-1.047-3.184v-.148a4.508,4.508,0,0,1,1.039-3.117,3.627,3.627,0,0,1,2.852-1.164,3.555,3.555,0,0,1,2.543.9,3.2,3.2,0,0,1,.973,2.4H38.34a1.551,1.551,0,0,0-.406-1.072,1.51,1.51,0,0,0-2.223.163,3.333,3.333,0,0,0-.4,1.866v.235a3.375,3.375,0,0,0,.4,1.878A1.377,1.377,0,0,0,36.918,37.336ZM41.395,34.7a5.013,5.013,0,0,1,.484-2.242,3.546,3.546,0,0,1,1.395-1.523,4.069,4.069,0,0,1,2.113-.539,3.849,3.849,0,0,1,2.793,1.047,4.2,4.2,0,0,1,1.207,2.844l.016.578a4.418,4.418,0,0,1-1.086,3.121,4.209,4.209,0,0,1-5.832,0,4.5,4.5,0,0,1-1.09-3.187Zm2.258.16a3.16,3.16,0,0,0,.453,1.843,1.628,1.628,0,0,0,2.578.008,3.457,3.457,0,0,0,.461-2.015,3.128,3.128,0,0,0-.461-1.831,1.5,1.5,0,0,0-1.3-.649,1.474,1.474,0,0,0-1.281.646A3.516,3.516,0,0,0,43.652,34.856Zm9.258-4.309.07.945a2.971,2.971,0,0,1,2.43-1.1,2.255,2.255,0,0,1,2.242,1.289,2.9,2.9,0,0,1,2.539-1.289,2.521,2.521,0,0,1,2.047.8,3.681,3.681,0,0,1,.672,2.41V39H60.645V33.609a1.61,1.61,0,0,0-.281-1.051,1.246,1.246,0,0,0-.992-.332,1.409,1.409,0,0,0-1.406.969l.008,5.8H55.715V33.617a1.59,1.59,0,0,0-.289-1.062,1.259,1.259,0,0,0-.984-.328,1.463,1.463,0,0,0-1.391.8V39H50.793V30.547Zm19.344,4.3a5.07,5.07,0,0,1-.887,3.129,2.843,2.843,0,0,1-2.395,1.176,2.633,2.633,0,0,1-2.07-.891V42.25H64.645v-11.7h2.094l.078.828a2.654,2.654,0,0,1,2.141-.984,2.862,2.862,0,0,1,2.43,1.156,5.207,5.207,0,0,1,.867,3.188ZM70,34.688a3.327,3.327,0,0,0-.418-1.82,1.361,1.361,0,0,0-1.215-.641,1.478,1.478,0,0,0-1.461.813V36.5a1.5,1.5,0,0,0,1.477.836Q70,37.336,70,34.688ZM78.4,32.664a6.134,6.134,0,0,0-.812-.062,1.654,1.654,0,0,0-1.68.867V39H73.652V30.547h2.133l.063,1.008a2.092,2.092,0,0,1,1.883-1.164,2.366,2.366,0,0,1,.7.1ZM84.152,39a2.507,2.507,0,0,1-.227-.758,2.732,2.732,0,0,1-2.133.914,3,3,0,0,1-2.059-.719,2.312,2.312,0,0,1-.816-1.812,2.389,2.389,0,0,1,1-2.062,4.915,4.915,0,0,1,2.879-.727h1.039v-.484a1.393,1.393,0,0,0-.3-.937,1.183,1.183,0,0,0-.949-.352,1.345,1.345,0,0,0-.895.273.929.929,0,0,0-.324.75H79.105a2.268,2.268,0,0,1,.453-1.359,3,3,0,0,1,1.281-.98,4.669,4.669,0,0,1,1.859-.355,3.689,3.689,0,0,1,2.48.785,2.747,2.747,0,0,1,.918,2.207v3.664a4.041,4.041,0,0,0,.336,1.82V39Zm-1.867-1.57a1.945,1.945,0,0,0,.922-.223,1.462,1.462,0,0,0,.625-.6V35.156h-.844q-1.7,0-1.8,1.172l-.008.133a.9.9,0,0,0,.3.7A1.153,1.153,0,0,0,82.285,37.43ZM31.2,61.336a1.481,1.481,0,0,0,1.016-.344,1.2,1.2,0,0,0,.406-.914h2.117a2.9,2.9,0,0,1-.469,1.574A3.093,3.093,0,0,1,33,62.762a3.949,3.949,0,0,1-1.77.395A3.67,3.67,0,0,1,28.375,62a4.56,4.56,0,0,1-1.047-3.184v-.148a4.508,4.508,0,0,1,1.039-3.117,3.627,3.627,0,0,1,2.852-1.164,3.555,3.555,0,0,1,2.543.9,3.2,3.2,0,0,1,.973,2.4H32.617a1.551,1.551,0,0,0-.406-1.072,1.51,1.51,0,0,0-2.223.163,3.333,3.333,0,0,0-.4,1.866v.235a3.375,3.375,0,0,0,.4,1.878A1.377,1.377,0,0,0,31.2,61.336ZM35.672,58.7a5.013,5.013,0,0,1,.484-2.242,3.546,3.546,0,0,1,1.395-1.523,4.069,4.069,0,0,1,2.113-.539,3.849,3.849,0,0,1,2.793,1.047,4.2,4.2,0,0,1,1.207,2.844l.016.578a4.418,4.418,0,0,1-1.086,3.121,4.209,4.209,0,0,1-5.832,0,4.5,4.5,0,0,1-1.09-3.187Zm2.258.16a3.16,3.16,0,0,0,.453,1.843,1.628,1.628,0,0,0,2.578.008,3.457,3.457,0,0,0,.461-2.015,3.128,3.128,0,0,0-.461-1.831,1.5,1.5,0,0,0-1.3-.649,1.474,1.474,0,0,0-1.281.646A3.516,3.516,0,0,0,37.93,58.856Zm9.258-4.309.07.945a2.971,2.971,0,0,1,2.43-1.1A2.255,2.255,0,0,1,51.93,55.68a2.9,2.9,0,0,1,2.539-1.289,2.521,2.521,0,0,1,2.047.8,3.681,3.681,0,0,1,.672,2.41V63H54.922V57.609a1.61,1.61,0,0,0-.281-1.051,1.246,1.246,0,0,0-.992-.332,1.409,1.409,0,0,0-1.406.969L52.25,63H49.992V57.617a1.59,1.59,0,0,0-.289-1.062,1.259,1.259,0,0,0-.984-.328,1.463,1.463,0,0,0-1.391.8V63H45.07V54.547Zm19.344,4.3a5.07,5.07,0,0,1-.887,3.129,2.843,2.843,0,0,1-2.395,1.176,2.633,2.633,0,0,1-2.07-.891V66.25H58.922v-11.7h2.094l.078.828a2.654,2.654,0,0,1,2.141-.984,2.862,2.862,0,0,1,2.43,1.156,5.207,5.207,0,0,1,.867,3.188Zm-2.258-.164a3.327,3.327,0,0,0-.418-1.82,1.361,1.361,0,0,0-1.215-.641,1.478,1.478,0,0,0-1.461.813V60.5a1.5,1.5,0,0,0,1.477.836Q64.273,61.336,64.273,58.688ZM70.313,63H68.047V51h2.266Zm5.75.156a4.15,4.15,0,0,1-3.027-1.141,4.054,4.054,0,0,1-1.168-3.039v-.219a5.106,5.106,0,0,1,.492-2.277,3.612,3.612,0,0,1,1.395-1.547,3.914,3.914,0,0,1,2.059-.543,3.508,3.508,0,0,1,2.73,1.094,4.444,4.444,0,0,1,1,3.1v.922H74.156a2.1,2.1,0,0,0,.66,1.328,2,2,0,0,0,1.395.5,2.437,2.437,0,0,0,2.039-.945l1.109,1.242a3.389,3.389,0,0,1-1.375,1.121A4.511,4.511,0,0,1,76.063,63.156ZM75.8,56.211a1.411,1.411,0,0,0-1.09.455,2.357,2.357,0,0,0-.535,1.3H77.32v-.181a1.681,1.681,0,0,0-.406-1.165A1.456,1.456,0,0,0,75.8,56.211Zm7.406-1.664v8.914a3.024,3.024,0,0,1-.742,2.176,2.821,2.821,0,0,1-2.141.777,4.591,4.591,0,0,1-1.117-.133V64.492a4.238,4.238,0,0,0,.711.07q1.023,0,1.023-1.086v-8.93Zm-2.445-2.187a1.112,1.112,0,0,1,.34-.836,1.47,1.47,0,0,1,1.852,0,1.2,1.2,0,0,1-.008,1.68,1.448,1.448,0,0,1-1.836,0A1.108,1.108,0,0,1,80.766,52.359ZM89.875,63a2.507,2.507,0,0,1-.227-.758,2.732,2.732,0,0,1-2.133.914,3,3,0,0,1-2.059-.719,2.312,2.312,0,0,1-.816-1.812,2.389,2.389,0,0,1,1-2.062,4.915,4.915,0,0,1,2.879-.727h1.039v-.484a1.393,1.393,0,0,0-.3-.937,1.183,1.183,0,0,0-.949-.352,1.345,1.345,0,0,0-.895.273.929.929,0,0,0-.324.75H84.828a2.268,2.268,0,0,1,.453-1.359,3,3,0,0,1,1.281-.98,4.669,4.669,0,0,1,1.859-.355,3.689,3.689,0,0,1,2.48.785,2.747,2.747,0,0,1,.918,2.207v3.664a4.041,4.041,0,0,0,.336,1.82V63Zm-1.867-1.57a1.945,1.945,0,0,0,.922-.223,1.462,1.462,0,0,0,.625-.6V59.156h-.844q-1.7,0-1.8,1.172l-.008.133a.9.9,0,0,0,.3.7A1.153,1.153,0,0,0,88.008,61.43Z" transform="translate(9553.148 -7572.375)" fill="#12263f"/>
    <circle id="Elipse_6038" data-name="Elipse 6038" cx="61" cy="61" r="61" transform="translate(9552.398 -8075)" fill="#ffa346"/>
    <circle id="Elipse_6039" data-name="Elipse 6039" cx="61" cy="61" r="61" transform="translate(9766.398 -8075)" fill="#ffa346"/>
    <circle id="Elipse_6040" data-name="Elipse 6040" cx="61" cy="61" r="61" transform="translate(9766.398 -7731)" fill="#ffa346"/>
    <circle id="Elipse_6041" data-name="Elipse 6041" cx="61" cy="61" r="61" transform="translate(9552.398 -7731)" fill="#ffa346"/>
    <g id="Grupo_1073333" data-name="Grupo 1073333" transform="translate(9146.398 -10932)">
      <rect id="Rectángulo_378751" data-name="Rectángulo 378751" width="35" height="11" transform="translate(548 2913)" fill="#ffa346"/>
      <path id="Polígono_23" data-name="Polígono 23" d="M16,0,32,28H0Z" transform="translate(600 2902) rotate(90)" fill="#ffa346"/>
    </g>
    <g id="Grupo_1073338" data-name="Grupo 1073338" transform="translate(10294.398 -4757) rotate(180)">
      <rect id="Rectángulo_378751-2" data-name="Rectángulo 378751" width="35" height="11" transform="translate(548 2913)" fill="#ffa346"/>
      <path id="Polígono_23-2" data-name="Polígono 23" d="M16,0,32,28H0Z" transform="translate(600 2902) rotate(90)" fill="#ffa346"/>
    </g>
    <g id="Grupo_1073337" data-name="Grupo 1073337" transform="translate(12746.398 -8348) rotate(90)">
      <rect id="Rectángulo_378751-3" data-name="Rectángulo 378751" width="35" height="11" transform="translate(548 2913)" fill="#ffa346"/>
      <path id="Polígono_23-3" data-name="Polígono 23" d="M16,0,32,28H0Z" transform="translate(600 2902) rotate(90)" fill="#ffa346"/>
    </g>
    <g id="Grupo_1073332" data-name="Grupo 1073332" transform="translate(9584.398 -8052)">
      <g id="Grupo_1073324" data-name="Grupo 1073324" clip-path="url(#clip-path)">
        <path id="Trazado_615355" data-name="Trazado 615355" d="M29.15.022c9.166,0,18.332.016,27.5-.022,1.062,0,1.474.163,1.468,1.376q-.078,17.493,0,34.986c0,1.181-.351,1.438-1.453,1.4-2.364-.082-4.733-.035-7.1-.014-.352,0-.953-.239-.826.563.828,5.21-.885,10.036-2.312,14.891a22.31,22.31,0,0,0-1.038,6.824c.1,4.775.021,9.553.037,14.329,0,.713-.007,1.222-.986,1.222-.954,0-1.009-.46-1.006-1.2.018-5.68-.051-11.362.04-17.041.036-2.287,1.078-4.4,1.644-6.6.811-3.154,1.975-6.228,1.913-9.564a17.067,17.067,0,0,0-.611-4.328c-.3-1.046.144-1.05.9-1.044,2.5.018,4.993-.035,7.487.026,1,.025,1.311-.254,1.306-1.288q-.062-12.909,0-25.82c.006-1.1-.405-1.236-1.339-1.234q-15.3.04-30.6.016c-.672,0-1.389.187-1.368-.955.016-.88.334-1.069,1.146-1.064,4.905.032,9.811.016,14.717.016,5.422,0,10.844-.019,16.266.019.885.006,1.18-.214,1.17-1.139C56.08,1.9,56.125,1.9,53.7,1.9q-25.11,0-50.22-.027c-1.2,0-1.606.243-1.6,1.533q.083,15.491.005,30.984c0,1.14.3,1.555,1.444,1.437.851-.088,1.721.018,2.58-.027.752-.04,1.058.178,1.066,1,.009.894-.427.952-1.114.94-1.635-.029-3.271-.041-4.905,0-.735.021-.952-.228-.95-.956Q.035,18.848,0,.9C0-.194.656.025,1.264.024Q15.207.019,29.15.022" transform="translate(0 0)" fill="#12263f"/>
        <path id="Trazado_615356" data-name="Trazado 615356" d="M37.234,167.165c2.582,0,5.164-.038,7.744.021a2.214,2.214,0,0,0,1.963-.923c1.215-1.505,2.525-2.934,3.742-4.438.454-.561.758-.652,1.319-.139.517.472.784.768.186,1.428-1.587,1.753-3.108,3.567-4.618,5.388a1.666,1.666,0,0,1-1.441.651c-2.108-.025-4.218.028-6.325-.027-.875-.022-1.207.208-1.176,1.139q.1,3.03,0,6.066c-.03.917.27,1.158,1.164,1.148,4.173-.043,8.347-.026,12.521-.012.617,0,1.374-.3,1.39.9.016,1.135-.633.977-1.314.976-4.862,0-9.725-.028-14.586.021-.967.01-1.245-.249-1.219-1.22.068-2.623-.015-5.249.043-7.873.021-.922-.287-1.17-1.171-1.145-2.021.057-4.044.039-6.066.012-3.205-.044-4.908-1.787-4.915-4.994,0-2.065-.048-4.132.019-6.2.033-1.007-.128-1.594-1.306-1.708a3.488,3.488,0,0,1-2.3-1.035,2.983,2.983,0,0,1-.335-3.687c1.145-1.918,2.3-3.833,3.531-5.7a4.8,4.8,0,0,0,.866-3.01c-.052-1.112.066-2.232.117-3.348.04-.868.653-.817,1.282-.834.842-.023.744.524.691,1.038a35,35,0,0,0-.226,4.893,2.234,2.234,0,0,1-.5,1.293q-1.953,3.109-3.87,6.241c-.775,1.268-.526,1.821.936,2.173,3.088.744,3.088.744,3.088,3.924,0,2.022-.011,4.045,0,6.067.016,2.086.827,2.9,2.89,2.9,2.624.007,5.249,0,7.874,0" transform="translate(-14.884 -102.828)" fill="#12263f"/>
        <path id="Trazado_615357" data-name="Trazado 615357" d="M24.493,33.625c-2.108,0-4.217-.026-6.325.014-.751.014-1.063-.165-1.056-.993q.055-6.389,0-12.779c-.006-.778.224-1.048,1.02-1.042q6.454.046,12.907,0c.832-.006,1,.332.993,1.074q-.039,6.325,0,12.649c.007.835-.23,1.12-1.091,1.1-2.15-.058-4.3-.019-6.453-.019m.035-1.907c1.331,0,2.664.033,3.993-.017.5-.019,1.341.348,1.435-.375.106-.815.479-1.808-.392-2.519-1.463-1.194-2.941-2.369-4.386-3.584a.793.793,0,0,0-1.214.007q-2.117,1.782-4.293,3.494c-.948.747-.568,1.77-.453,2.622.094.7.941.337,1.446.356,1.286.049,2.576.016,3.864.016m-5.389-5.068c1.669-1.354,3.1-2.453,4.456-3.641.69-.605,1.154-.731,1.914-.043,1.379,1.249,2.886,2.357,4.522,3.67,0-1.925-.017-3.557.009-5.189.009-.575-.225-.734-.765-.732q-4.713.025-9.425,0c-.46,0-.722.11-.717.64.018,1.665.007,3.331.007,5.292" transform="translate(-12.693 -13.963)" fill="#12263f"/>
        <path id="Trazado_615358" data-name="Trazado 615358" d="M80.3,140.546c-2.886-.917-5.28.661-7.208,3.424-.61.874-1.457,1.579-2.141,2.406-.458.553-.743.487-1.194-.026-1.5-1.712-3.068-3.369-4.576-5.076a1.963,1.963,0,0,0-1.654-.745c-2.278.046-4.559-.008-6.837.031-.732.013-.971-.224-.963-.954.007-.693.173-1.005.936-1,2.666.035,5.333.028,8,0a1.622,1.622,0,0,1,1.314.656c1.143,1.284,2.36,2.507,3.445,3.838.673.825,1.1.952,1.833.056,1.084-1.331,2.31-2.546,3.449-3.834a1.88,1.88,0,0,1,1.551-.719q4.321.051,8.643,0c.792-.011,1.043.25,1.037,1.034-.006.767-.319.938-1.01.916-1.332-.042-2.666-.012-4.625-.012" transform="translate(-41.333 -102.811)" fill="#12263f"/>
        <path id="Trazado_615359" data-name="Trazado 615359" d="M109.77,105.306c-.35.408-.539.64-.741.862-2.636,2.892-5.288,5.77-7.9,8.682-.535.6-.867.792-1.467.052-.946-1.167-1.974-2.273-3.029-3.344-.6-.6-.261-.9.187-1.323s.773-.622,1.245-.031c.508.637,1.137,1.179,1.63,1.827s.811.623,1.36,0c2.2-2.477,4.448-4.905,6.695-7.337.225-.244.427-.753.918-.35.378.311.74.641,1.1.959" transform="translate(-71.438 -77.287)" fill="#12263f"/>
        <path id="Trazado_615360" data-name="Trazado 615360" d="M111.008,43.188c1.63,0,3.26.032,4.889-.014.738-.021.842.326.83.934s.005,1.073-.848,1.064q-4.953-.054-9.907,0c-.789.008-.9-.353-.906-1.016-.01-.694.16-1,.925-.982,1.671.048,3.345.015,5.017.015" transform="translate(-77.93 -32.022)" fill="#12263f"/>
        <path id="Trazado_615361" data-name="Trazado 615361" d="M165.54,59.28c-1.633,0-3.266-.037-4.9.015-.791.026-.925-.331-.913-1,.011-.633.063-1.049.885-1.04q4.9.054,9.794,0c.848-.011.984.353.989,1.079s-.223.984-.961.964c-1.631-.044-3.264-.014-4.9-.014" transform="translate(-118.478 -42.465)" fill="#12263f"/>
        <path id="Trazado_615362" data-name="Trazado 615362" d="M165.615,43.193c1.634,0,3.269.027,4.9-.013.693-.017.9.254.878.907-.021.6,0,1.093-.851,1.085q-4.968-.043-9.935,0c-.836.009-.863-.439-.871-1.06s.112-.955.844-.936c1.676.044,3.354.014,5.032.014" transform="translate(-118.484 -32.028)" fill="#12263f"/>
        <path id="Trazado_615363" data-name="Trazado 615363" d="M165.52,72.98c-1.585,0-3.17-.024-4.754.011-.721.016-1.091-.13-1.084-.978.007-.78.225-1.027,1.021-1.017q4.818.063,9.637,0c.786-.009,1.026.226,1.03,1.019,0,.856-.381.988-1.095.973-1.584-.033-3.169-.01-4.754-.01" transform="translate(-118.442 -52.66)" fill="#12263f"/>
        <path id="Trazado_615364" data-name="Trazado 615364" d="M110.737,58.8c-1.585,0-3.171-.036-4.754.015-.772.025-.926-.3-.919-.984.007-.642.168-.917.865-.911,3.3.027,6.6.033,9.894,0,.777-.009.894.312.913.988.021.776-.3.924-.987.909-1.67-.037-3.341-.012-5.011-.012" transform="translate(-77.929 -42.213)" fill="#12263f"/>
        <path id="Trazado_615365" data-name="Trazado 615365" d="M131.924,86.839c.6-.569.213-1.563,1.061-1.5.69.053,1.632.2,1.827,1,.087.357-.149,1.34-.894,1.288a7.376,7.376,0,0,1-2-.787" transform="translate(-97.853 -63.299)" fill="#12263f"/>
        <path id="Trazado_615366" data-name="Trazado 615366" d="M163.467,108.147c-.517-.516-1.245-.986-1.314-1.663-.048-.466.676-1.22,1.182-1.116a2.179,2.179,0,0,1,1.465,1.645c.1.443-.771.795-1.333,1.134" transform="translate(-120.274 -78.148)" fill="#12263f"/>
        <path id="Trazado_615367" data-name="Trazado 615367" d="M99.017,81.161c1.146-.2.919.515.963,1.03.107,1.259-.9.862-1.514.985-1.08.216-.988-.767-.959-1.249.064-1.078,1.1-.574,1.511-.767" transform="translate(-72.313 -60.175)" fill="#12263f"/>
        <path id="Trazado_615368" data-name="Trazado 615368" d="M116.952,83.09c-.793.029-1.395-.055-1.264-1.1.078-.623.142-1.193.915-.9.55.21,1.62-.343,1.557.932-.04.814-.286,1.348-1.209,1.062" transform="translate(-85.797 -60.092)" fill="#12263f"/>
        <path id="Trazado_615369" data-name="Trazado 615369" d="M151.647,94.772c-.5.464-.739,1.353-1.3,1.211-.6-.152-1.494-.534-1.549-1.288-.031-.432.336-1.355,1-1.248a3.662,3.662,0,0,1,1.851,1.325" transform="translate(-110.368 -69.307)" fill="#12263f"/>
        <path id="Trazado_615370" data-name="Trazado 615370" d="M65.111,96.359c-.482-.446-1.238-.877-1.077-1.382a2.079,2.079,0,0,1,1.727-1.331c.489-.027,1.061.872.94,1.318-.179.66-1.012.942-1.59,1.394" transform="translate(-47.48 -69.461)" fill="#12263f"/>
        <path id="Trazado_615371" data-name="Trazado 615371" d="M52.781,108.994c-.465-.392-1.374-.582-1.294-1.1a2.174,2.174,0,0,1,1.355-1.707c.44-.113,1.35.584,1.239,1.151a2.938,2.938,0,0,1-1.3,1.656" transform="translate(-38.187 -78.753)" fill="#12263f"/>
        <path id="Trazado_615372" data-name="Trazado 615372" d="M173.784,119.955a2.432,2.432,0,0,1,1.185,1.854c.108.733-.837.925-1.273.893-.821-.061-.983-1.027-1.13-1.622-.171-.692.819-.657,1.218-1.125" transform="translate(-127.984 -88.975)" fill="#12263f"/>
        <path id="Trazado_615373" data-name="Trazado 615373" d="M44.426,124.637c-.385-.419-1.383-.08-1.255-.963.1-.66.237-1.588.951-1.77.371-.095,1.44.187,1.34.961a1.909,1.909,0,0,1-1.035,1.772" transform="translate(-32.013 -90.408)" fill="#12263f"/>
        <path id="Trazado_615374" data-name="Trazado 615374" d="M80.792,87.547a1.241,1.241,0,0,1-1.014-1.322c.134-.836,1.083-.944,1.763-1.052.9-.144.815.872.821,1.255.016.966-1.127.6-1.57,1.119" transform="translate(-59.168 -63.165)" fill="#12263f"/>
      </g>
    </g>
    <g id="Grupo_1073334" data-name="Grupo 1073334" transform="translate(9801.398 -8048.662)">
      <g id="Grupo_1073326" data-name="Grupo 1073326" clip-path="url(#clip-path-2)">
        <path id="Trazado_615375" data-name="Trazado 615375" d="M51.985,39.587q0,13.43,0,26.861c0,2.234-.654,2.875-2.922,2.875H8.446c-2.417,0-3.072-.6-3-3,.034-1.051-.186-1.421-1.33-1.374-2.458.1-3.035-.554-3.035-3.057q0-12.185.005-24.37A1.691,1.691,0,0,0,.541,36,1.928,1.928,0,0,1,0,34.408Q0,20.545.008,6.681A2.071,2.071,0,0,1,2.359,4.353c1.322.07,2.114-.131,2.731-1.569A4.713,4.713,0,0,1,10.059.016,5.035,5.035,0,0,1,14.669,3.4a1.232,1.232,0,0,0,1.376.946c4.585-.039,9.17-.013,13.755-.026a2.428,2.428,0,0,1,2.141.79c.309.4.707.294,1.083.295q5.9.012,11.806.006c2.115,0,2.809.687,2.815,2.772a6.7,6.7,0,0,1,0,.758c-.064.58.113.805.759.825,3.348.1,3.584.372,3.584,3.721v26.1m-2.019-.022q0-13.378.008-26.757c0-.659-.05-1.172-.9-1.044-.613.092-1.557-.391-1.438.916.062.682-.221,1.23-1.027,1.226-.833,0-.981-.587-.982-1.263,0-1.372-.058-2.747.017-4.115.052-.938-.3-1.139-1.175-1.129-3.61.044-7.222.053-10.832,0-.956-.015-1.206.244-1.2,1.2.039,8.269.023,16.538.022,24.807,0,2.865-.5,3.371-3.319,3.371q-12.458,0-24.915-.007c-.668,0-1.137-.019-1.133.929q.055,12.187.008,24.373c0,.721.245.917.941.916q15.437-.027,30.873,0c.708,0,.945-.214.932-.924C35.8,60.04,35.824,58.018,35.83,56c.006-2.13.659-2.794,2.755-2.8,1.914-.005,3.83-.062,5.74.023,1.049.047,1.321-.273,1.318-1.317-.038-11.194-.024-22.387-.023-33.581,0-.361,0-.722.023-1.082a.915.915,0,0,1,.973-.946.968.968,0,0,1,1.006.937,6.218,6.218,0,0,1,.023.865q0,17.278.015,34.556a4.41,4.41,0,0,1-1.4,3.371q-3.831,3.75-7.582,7.582A4.386,4.386,0,0,1,35.314,65c-6.716-.036-13.433-.016-20.149-.016-2.275,0-4.55-.006-6.824.008-.292,0-.656-.159-.851.256a1.361,1.361,0,0,0,1.237,2.069c13.324,0,26.648-.013,39.972.026,1.088,0,1.293-.341,1.289-1.347-.038-8.81-.022-17.621-.022-26.432M16.187,34.713c4.367,0,8.734-.016,13.1.015.79.005,1.13-.131,1.126-1.044q-.054-13.155,0-26.311c0-.915-.339-1.059-1.134-1.051-3.356.035-6.713.015-10.069.015-3.032,0-6.064-.007-9.1,0-.716,0-1.384-.116-1.392-.97-.008-.908.681-1.07,1.442-1.049.541.015,1.083.021,1.624,0,.308-.014.741.174.9-.129.184-.357-.2-.653-.413-.921a3.255,3.255,0,0,0-3.6-1.074,3.342,3.342,0,0,0-2.3,3.322c-.037,2.526-.021,5.053-.009,7.579a29.194,29.194,0,0,0,.109,3.672A3.187,3.187,0,0,0,9.948,19.5,3.23,3.23,0,0,0,13,16.409c.062-1.477.019-2.959.019-4.439a1.087,1.087,0,0,0-1.084-1.233c-.785-.029-1.163.491-1.2,1.244-.03.648-.008,1.3-.03,1.948-.02.615-.272,1.053-.96,1.067-.739.014-1.027-.449-1.053-1.1A19.6,19.6,0,0,1,8.7,11.729a3.2,3.2,0,0,1,3.181-3.061,3.118,3.118,0,0,1,3.153,3.055c.071,1.692,0,3.39-.033,5.085a4.5,4.5,0,0,1-1.059,2.668,5.353,5.353,0,0,1-9.586-3.286c-.042-2.923-.053-5.848.011-8.77.021-.952-.318-1.121-1.173-1.114S1.995,6.472,2,7.429q.054,13.1,0,26.2c0,.839.216,1.109,1.083,1.1,4.367-.042,8.734-.02,13.1-.019M43.822,55.228c-1.807,0-3.629,0-5.451,0-.294,0-.484.1-.484.425,0,1.848,0,3.7,0,5.507l5.934-5.931" transform="translate(0 -0.001)" fill="#12263f"/>
        <path id="Trazado_615376" data-name="Trazado 615376" d="M83.172,212.386q-5.577,0-11.153,0a4.218,4.218,0,0,1-.966-.067.928.928,0,0,1-.767-1.032.892.892,0,0,1,.8-.886,8.278,8.278,0,0,1,1.078-.06q11.045,0,22.09,0c.806,0,1.894-.185,1.87,1.035-.023,1.194-1.1,1.005-1.91,1.007q-5.522.011-11.045,0" transform="translate(-55.055 -164.762)" fill="#12263f"/>
        <path id="Trazado_615377" data-name="Trazado 615377" d="M83.107,187.334q-5.522,0-11.045,0a4.582,4.582,0,0,1-1.07-.094.97.97,0,0,1,.06-1.883,6.474,6.474,0,0,1,1.075-.073q11.1-.006,22.2,0c.785,0,1.789-.134,1.807,1s-.96,1.053-1.764,1.053H83.107" transform="translate(-55.057 -145.134)" fill="#12263f"/>
        <path id="Trazado_615378" data-name="Trazado 615378" d="M78.8,237.481c-2.416,0-4.831.014-7.247-.007-.973-.008-1.483-.569-1.257-1.3.22-.713.812-.729,1.4-.729q6.111,0,12.223,0c.757,0,1.514,0,2.271,0,.7,0,1.258.251,1.238,1.026-.02.757-.574,1.01-1.275,1.009q-3.678-.005-7.355,0" transform="translate(-55.025 -184.433)" fill="#12263f"/>
        <path id="Trazado_615379" data-name="Trazado 615379" d="M172.609,117.226c-.4-.025-.795-.023-1.185-.079a.89.89,0,0,1-.827-.965.877.877,0,0,1,.817-.976,16.034,16.034,0,0,1,2.48,0,.9.9,0,0,1,.843.968.913.913,0,0,1-.834.971c-.426.061-.861.059-1.293.083" transform="translate(-133.636 -90.208)" fill="#12263f"/>
        <path id="Trazado_615380" data-name="Trazado 615380" d="M172.585,142.141c-.393-.031-.828-.033-1.25-.108a.977.977,0,0,1-.041-1.885,7.735,7.735,0,0,1,2.684-.012.886.886,0,0,1,.757.927.918.918,0,0,1-.819.986c-.424.07-.86.062-1.33.092" transform="translate(-133.635 -109.687)" fill="#12263f"/>
        <path id="Trazado_615381" data-name="Trazado 615381" d="M37.3,187.322a10.206,10.206,0,0,1-1.08-.007.984.984,0,0,1-1-1.054.945.945,0,0,1,.987-.95c.683-.037,1.37-.038,2.054-.013.655.024,1.119.313,1.093,1.053-.024.678-.478.926-1.076.974-.322.026-.648,0-.973,0Z" transform="translate(-27.585 -145.139)" fill="#12263f"/>
        <path id="Trazado_615382" data-name="Trazado 615382" d="M36.988,212.37c-.517-.031-1.661.231-1.635-1.056.024-1.2,1.13-.942,1.926-.977a9.792,9.792,0,0,1,1.189.019.927.927,0,0,1,.989.931.959.959,0,0,1-.965,1.075c-.391.047-.792.009-1.5.009" transform="translate(-27.693 -164.759)" fill="#12263f"/>
        <path id="Trazado_615383" data-name="Trazado 615383" d="M172.661,90.056a9.565,9.565,0,0,1,1.081.008.977.977,0,0,1,.984,1.071.931.931,0,0,1-1,.924c-.721.018-1.443.021-2.164,0a.9.9,0,0,1-.968-.942.968.968,0,0,1,.99-1.056,9.676,9.676,0,0,1,1.082-.007v0" transform="translate(-133.63 -70.532)" fill="#12263f"/>
        <path id="Trazado_615384" data-name="Trazado 615384" d="M37.323,237.469a8.3,8.3,0,0,1-1.293-.014.985.985,0,0,1,.137-1.955c.72-.03,1.442-.031,2.162-.01a.918.918,0,0,1,1.015,1.008c-.012.667-.437.952-1.048,1-.323.025-.649,0-.973,0v-.032" transform="translate(-27.581 -184.458)" fill="#12263f"/>
        <path id="Trazado_615385" data-name="Trazado 615385" d="M172.569,66.987c-.361,0-.722.015-1.082,0a.867.867,0,0,1-.9-.887.906.906,0,0,1,.84-1.067A15.935,15.935,0,0,1,173.7,65a.963.963,0,0,1,1.024,1.03.948.948,0,0,1-1.07.968c-.361,0-.722,0-1.083,0v-.013" transform="translate(-133.626 -50.898)" fill="#12263f"/>
        <path id="Trazado_615386" data-name="Trazado 615386" d="M39.947,115.122h8.331c.688,0,1.258.222,1.286,1s-.531,1.052-1.221,1.053q-8.439.009-16.879,0c-.689,0-1.259-.27-1.239-1.043s.59-1,1.282-1h8.439" transform="translate(-23.677 -90.179)" fill="#12263f"/>
        <path id="Trazado_615387" data-name="Trazado 615387" d="M89.039,92.071c-.862,0-1.723.005-2.585,0-.678-.006-1.128-.337-1.112-1.031a.977.977,0,0,1,1.07-.984q2.638-.031,5.277,0a.966.966,0,0,1,1.054.995c.009.706-.446,1.014-1.119,1.019-.862.006-1.723,0-2.585,0" transform="translate(-66.852 -70.531)" fill="#12263f"/>
        <path id="Trazado_615388" data-name="Trazado 615388" d="M89.027,67.022H86.442c-.633,0-1.063-.3-1.088-.938a.977.977,0,0,1,1.087-1.068c1.759-.02,3.518-.022,5.277,0a.956.956,0,0,1,1.033,1.012.921.921,0,0,1-1.032.986c-.9.008-1.795,0-2.692,0v0" transform="translate(-66.861 -50.917)" fill="#12263f"/>
      </g>
    </g>
    <g id="Grupo_1073335" data-name="Grupo 1073335" transform="translate(9795.539 -7701.364)">
      <g id="Grupo_1073328" data-name="Grupo 1073328" clip-path="url(#clip-path-3)">
        <path id="Trazado_615389" data-name="Trazado 615389" d="M33.739,71.113q-10.828,0-21.655,0a3.926,3.926,0,1,1-.247-7.838c.717-.035,1.437-.008,2.155-.008,1.347,0,1.361,0,1.108-1.277-.781-3.926-1.577-7.849-2.359-11.775q-1.7-8.525-3.38-17.052c-.535-2.73-1.87-3.856-4.652-3.847-1.078,0-2.156.021-3.233,0C.55,29.291-.056,28.741,0,27.968a1.269,1.269,0,0,1,1.454-1.247c1.208,0,2.417-.025,3.625-.012a6.611,6.611,0,0,1,6.842,5.848c.225,1.283.54,2.551.736,3.837.1.633.371.775.964.769,2.776-.028,5.553-.007,8.329-.016a1.363,1.363,0,0,1,1.5.991,1.206,1.206,0,0,1-.587,1.428,2.035,2.035,0,0,1-1.145.181q-3.576.005-7.153,0c-1.218,0-1.226,0-.994,1.158.693,3.446,1.4,6.889,2.089,10.336q1.1,5.506,2.169,11.018c.132.684.347,1.027,1.174,1.024Q34,63.233,48.994,63.279c.7,0,.995-.192,1.083-.882.108-.839.3-1.668.475-2.5.2-.916.815-1.405,1.567-1.24a1.24,1.24,0,0,1,1,1.626q-.4,2.261-.869,4.511a1.352,1.352,0,0,1-1.315,1.116c-.324.032-.653.017-.979.017H12.723c-.359,0-.719,0-1.077.022a1.172,1.172,0,0,0-1.173,1.21,1.209,1.209,0,0,0,1.072,1.313,5.833,5.833,0,0,0,1.074.037l42.723,0a6.13,6.13,0,0,1,.978.024,1.2,1.2,0,0,1,1.126,1.351,1.159,1.159,0,0,1-1.171,1.2c-.324.03-.652.022-.979.022H33.739" transform="translate(0 -21.471)" fill="#12263f"/>
        <path id="Trazado_615390" data-name="Trazado 615390" d="M163.705,33.956a16.978,16.978,0,1,1,16.988-16.894,16.916,16.916,0,0,1-16.988,16.894m.025-2.594A14.38,14.38,0,1,0,149.332,17a14.435,14.435,0,0,0,14.4,14.364" transform="translate(-117.974 0)" fill="#12263f"/>
        <path id="Trazado_615391" data-name="Trazado 615391" d="M90.372,271.981a5.191,5.191,0,0,1-5.171,5.256,5.214,5.214,0,1,1-.06-10.429,5.131,5.131,0,0,1,5.23,5.173M85.139,269.4a2.614,2.614,0,1,0,2.641,2.572,2.626,2.626,0,0,0-2.641-2.572" transform="translate(-64.274 -214.507)" fill="#12263f"/>
        <path id="Trazado_615392" data-name="Trazado 615392" d="M205.216,266.818a5.125,5.125,0,0,1,5.161,5.241,5.213,5.213,0,1,1-5.161-5.241m2.569,5.2a2.614,2.614,0,0,0-5.227,0,2.614,2.614,0,1,0,5.227,0" transform="translate(-160.756 -214.515)" fill="#12263f"/>
        <path id="Trazado_615393" data-name="Trazado 615393" d="M203.68,54.824a1.435,1.435,0,0,1-.464.942q-4.389,5.011-8.781,10.019c-.8.907-1.454.909-2.32.053q-2.4-2.376-4.782-4.777a1.39,1.39,0,0,1-.2-2.068c.583-.567,1.312-.495,2.059.241,1.141,1.122,2.29,2.238,3.386,3.4.479.509.747.478,1.195-.042,2.451-2.845,4.939-5.658,7.41-8.486.458-.524.95-.9,1.7-.608a1.245,1.245,0,0,1,.8,1.323" transform="translate(-150.15 -42.931)" fill="#12263f"/>
      </g>
    </g>
    <g id="Grupo_1073336" data-name="Grupo 1073336" transform="translate(9581.398 -7702)">
      <g id="Grupo_1073330" data-name="Grupo 1073330" clip-path="url(#clip-path-4)">
        <path id="Trazado_615394" data-name="Trazado 615394" d="M35.466,35.019c.415-.507.689-.857.98-1.193A15.846,15.846,0,0,1,44.2,28.75c1.2-.338.652-1.17.783-1.827.125-.626-.208-.807-.774-.947a4.477,4.477,0,0,1-3.393-4.143,9.782,9.782,0,0,1-.006-1.358.94.94,0,0,0-.746-1.135,3.325,3.325,0,0,1-2.235-4.231c.347-1.417.73-2.828,1.179-4.215.174-.537.039-.7-.418-.938A5.086,5.086,0,0,1,35.75,3.969,5.159,5.159,0,0,1,41.008.05a84.713,84.713,0,0,1,9.4.164,13.35,13.35,0,0,1,11.227,14.6A13.161,13.161,0,0,1,54.1,25.39a2.9,2.9,0,0,0-.667,2.926c.179.221.452.133.679.193,5.5,1.445,9.023,4.876,10.4,10.423a10.4,10.4,0,0,1,.308,2.375c.036,3.345.056,6.691.01,10.035a5.1,5.1,0,0,1-5.119,5.124c-1.009.006-1.184.337-1.158,1.234.06,2.089-.015,4.182.037,6.271.019.756-.23.914-.941.91q-8.468-.042-16.935,0c-.772,0-.991-.179-.987-.973.034-6.551.019-13.1.019-19.654v-1.3a8.8,8.8,0,0,1-3.337,1.836,6.912,6.912,0,0,1-8.344-4.958c-.846-2.974-1.726-5.939-2.513-8.929a9.375,9.375,0,0,0-1.781-3.024,9.2,9.2,0,0,1-1.464-2.271c-.188-.552-.593-.489-1-.465-.59.035-.359.506-.363.793-.023,1.568-.033,3.137,0,4.7.012.573-.134.782-.748.78q-9.722-.031-19.444,0c-.615,0-.749-.208-.747-.78q.027-8.625,0-17.249c0-.635.159-.826.812-.824q9.67.036,19.34,0c.685,0,.8.243.79.846-.036,1.533.025,3.068-.028,4.6-.024.707.222.861.885.858,4.53-.026,9.06-.012,13.59-.014A3.078,3.078,0,0,1,38.421,20.7a2.963,2.963,0,0,1-.47,3.321,3.159,3.159,0,0,1-2.384,1.117c-.541.029-1.319-.277-1.572.169a3.271,3.271,0,0,0-.34,2.415c.6,2.357,1.174,4.719,1.812,7.293m8.711,4.912c-.3-2.724-.611-5.244-.835-7.773-.069-.775-.313-.775-.88-.474a14.759,14.759,0,0,0-5.866,5.5,1.451,1.451,0,0,0-.213,1.451c.463,1.085-.48.975-1.068,1.209-.775.309-.855-.162-.992-.721-.8-3.273-1.649-6.536-2.433-9.813-.15-.629-.388-.7-.931-.5-.978.358-1.966.7-2.967.982-.536.152-.5.4-.362.827.3.961.552,1.939.828,2.908.572,2,1.119,4.016,1.728,6.009a4.782,4.782,0,0,0,5.077,3.33c2.305-.291,4.448-2.383,4.467-4.485.008-.883.527-.729,1.018-.7s1.131-.3,1.12.705c-.043,3.658,0,7.317-.032,10.976-.006.683.185.877.87.872q6.428-.045,12.857,0c.719.006.944-.167.936-.915-.04-3.554.014-7.109-.041-10.662-.014-.873.291-1.02,1.063-1.009.739.01,1.1.085,1.082.992-.066,2.891-.007,5.784-.038,8.676-.007.63.148.869.81.826a23.108,23.108,0,0,1,2.612,0c.574.027.793-.132.78-.747-.04-1.985.069-3.977-.044-5.957a11.284,11.284,0,0,0-6.43-9.915c-1.117-.583-1.166-.524-1.294.7-.263,2.511-.553,5.019-.851,7.694l-2.055-1.929c.43,2.353.807,4.472,1.21,6.585a1.258,1.258,0,0,1-.368,1.307c-1.089,1.028-2.164,2.076-3.175,3.179-.5.551-.789.417-1.225-.045C47.58,48,46.6,47,45.58,46.058a1.558,1.558,0,0,1-.528-1.646c.421-2.054.761-4.126,1.176-6.433l-2.051,1.953M10.521,29.312c2.508,0,5.016-.023,7.524.015.654.01.847-.187.811-.825-.051-.9-.035-1.811,0-2.716A.778.778,0,0,0,18.375,25c-1.328-.828-2.61-1.729-3.929-2.573-.513-.328-.516-.553,0-.867.624-.378,1.223-.8,1.829-1.207.852-.575,2.039-.979,2.456-1.782.428-.824.068-2.043.122-3.084.033-.64-.162-.826-.813-.823q-7.576.04-15.152,0c-.7,0-.783.264-.78.854.02,4.319.028,8.639-.006,12.957-.006.716.24.858.893.849,2.507-.033,5.016-.013,7.524-.013m42.9-6.033a1.336,1.336,0,0,0,.326-.066,6.97,6.97,0,0,0,.726-.41A11.2,11.2,0,0,0,50.191,2.318a67.023,67.023,0,0,0-9.705-.135,3,3,0,0,0-2.812,2.983,2.951,2.951,0,0,0,2.51,3.127c1.969.177,3.964.1,5.947.077a.918.918,0,0,0,.915-.965.962.962,0,0,0-.931-1.06c-.516-.058-1.044-.012-1.566-.032-.221-.008-.469.078-.6-.252A1.223,1.223,0,0,1,45.165,4.22c.209,0,.418,0,.627,0a3.117,3.117,0,0,1,3.32,3.616c-.031.394-.009.5.412.6,2.743.6,3.827,1.941,3.811,4.736A1.708,1.708,0,0,0,54,14.573a4.28,4.28,0,0,1,.141,6.316,2.3,2.3,0,0,0-.721,2.391M45.572,10.5c-1.114,0-2.231.052-3.341-.018-.758-.048-1.049.3-1.219.949-.289,1.109-.6,2.211-.932,3.309-.587,1.961-.432,2.339,1.574,2.912.941.269,1.407.662,1.26,1.7a12.489,12.489,0,0,0-.014,2.086,2.512,2.512,0,0,0,2.616,2.64c.974.027,1.95,0,2.924.014.247,0,.552-.129.711.242a1.217,1.217,0,0,1-1.2,1.833c-.658-.022-.8.175-.91.845-.319,1.883.849,3.047,1.828,4.329.129.169.322.386.485.116.694-1.15,2-1.919,1.924-3.551-.1-2.189,0-4.386-.037-6.579a1.374,1.374,0,0,1,.814-1.469,2.186,2.186,0,0,0,.327-3.839,2.181,2.181,0,0,1-1.131-2.459c.014-.278.01-.557,0-.835a2.087,2.087,0,0,0-2.232-2.219c-1.148-.025-2.3-.005-3.446-.006m3.564,41.821c-2.158,0-4.315.009-6.473-.007-.507,0-.836.012-.828.695.035,3.027.022,6.055.008,9.082,0,.46.083.7.621.688q2.5-.043,5.011,0c.5.008.665-.168.649-.66A26.27,26.27,0,0,1,48.13,59.3c.112-1.479.016-2.836-1.384-3.749-.167-.109-.388-.261-.22-.6.53-1.058,1.345-1.232,2.163-.42a6.441,6.441,0,0,0,.67.656,2.209,2.209,0,0,1,.874,2.082c-.067,1.6,0,3.2-.03,4.8-.011.551.166.718.712.707q2.4-.046,4.8,0c.575.012.783-.137.777-.749q-.044-4.489,0-8.978c.006-.617-.212-.752-.781-.744-2.192.028-4.384.012-6.577.011m1.936-8.177c-.5-2.808-1.014-5.681-1.537-8.551-.035-.192-.113-.457-.368-.431-.354.035-.364.37-.413.635q-.735,4-1.457,8a3.82,3.82,0,0,0,1.767,2.691.483.483,0,0,0,.2,0,5.125,5.125,0,0,0,1.806-2.341M24.592,20.955c-1.528,0-3.059.052-4.584-.021a3.119,3.119,0,0,0-1.973.775c-.256.173-.332.365-.027.551a3.205,3.205,0,0,0,1.754.795c3.265-.035,6.531-.049,9.795.007.915.016.8-.494.785-1.045-.017-.513.218-1.121-.748-1.08-1.664.071-3.334.02-5,.019M60.817,50.229c-2.238,0-2.238,0-2.238,2.29,0,.452.007.9,0,1.357,0,.312.058.483.443.539A3.268,3.268,0,0,0,62.6,52.169c.5-1.655.3-1.94-1.363-1.94h-.418M24.36,25.138c.748,1.005,1.345,1.8,1.938,2.607.129.174.262.345.5.264,1.505-.506,3.017-.994,4.505-1.547.458-.17.32-.731.4-1.112.06-.286-.288-.205-.463-.206-2.209-.008-4.419-.005-6.884-.005m9.94-4.167v-.013c-.453,0-.907.017-1.359,0-.653-.029-.554.467-.478.788.1.433-.44,1.177.4,1.269a16.953,16.953,0,0,0,2.818,0,.932.932,0,0,0,.912-.969.965.965,0,0,0-.935-1.057,11.74,11.74,0,0,0-1.357-.01M45.914,35.387c.6-.651,1.047-1.167,1.527-1.65a.461.461,0,0,0,.065-.71c-.567-.74-1.122-1.489-1.68-2.236-.111-.148-.242-.266-.429-.168a.294.294,0,0,0-.119.248,42.819,42.819,0,0,0,.635,4.516M53.07,30.6l-.262-.125a8.493,8.493,0,0,0-2.045,2.885c-.164.562.958,1.143,1.506,1.708.037.039.128.025.3.053l.5-4.522" transform="translate(-0.008 0)" fill="#12263f"/>
        <path id="Trazado_615395" data-name="Trazado 615395" d="M14.66,167.452c0,2.16-.029,4.32.017,6.479.015.706-.223.862-.886.857q-6.479-.04-12.958,0c-.621,0-.837-.137-.832-.8q.045-6.531,0-13.062c0-.666.21-.807.832-.8q6.479.037,12.958,0c.662,0,.9.151.886.857-.046,2.159-.017,4.319-.017,6.479m-2.1,0c0-1.461-.021-2.922.01-4.382.013-.583-.072-.868-.775-.858-2.991.04-5.982.028-8.974.007-.529,0-.726.131-.722.7q.038,4.539,0,9.078c0,.566.2.7.723.694,2.991-.02,5.983-.033,8.974.008.7.01.785-.279.773-.859-.031-1.46-.01-2.922-.01-4.382" transform="translate(0 -126.636)" fill="#12263f"/>
        <path id="Trazado_615396" data-name="Trazado 615396" d="M.033,247.338c0-2.125.016-4.25-.01-6.374-.007-.579.067-.867.773-.862,4.389.033,8.778.024,13.167.008.526,0,.728.125.725.693q-.032,6.636,0,13.271c0,.563-.19.7-.721.7-4.389-.017-8.778-.026-13.167.007-.7.005-.784-.273-.777-.858.027-2.194.011-4.389.011-6.583m12.546.068c0-1.461-.031-2.923.014-4.382.019-.637-.16-.83-.812-.823-2.956.035-5.913.026-8.87.005-.55,0-.8.093-.795.729q.048,4.487,0,8.974c-.005.586.159.773.758.767q4.487-.042,8.974,0c.623.006.752-.222.74-.785-.033-1.495-.011-2.991-.011-4.487" transform="translate(-0.018 -189.896)" fill="#12263f"/>
        <path id="Trazado_615397" data-name="Trazado 615397" d="M88.261,242.2c-2.473,0-4.947-.038-7.418.021-.836.02-.905-.359-.848-.994.049-.541-.226-1.157.8-1.147q7.574.072,15.15,0c1.03-.01.744.612.8,1.15.061.64-.02,1.009-.851.99-2.541-.058-5.085-.021-7.627-.021" transform="translate(-63.256 -189.877)" fill="#12263f"/>
        <path id="Trazado_615398" data-name="Trazado 615398" d="M88.262,262.2c-2.473,0-4.947-.038-7.418.021-.835.02-.906-.357-.848-.993.049-.54-.228-1.157.8-1.147q7.575.072,15.15,0c1.03-.01.745.611.8,1.149.06.64-.019,1.01-.85.991-2.541-.058-5.085-.021-7.627-.021" transform="translate(-63.256 -205.695)" fill="#12263f"/>
        <path id="Trazado_615399" data-name="Trazado 615399" d="M88.262,302.2c-2.473,0-4.947-.038-7.418.021-.835.02-.906-.357-.849-.993.049-.54-.228-1.157.8-1.148q7.574.072,15.15,0c1.029-.01.745.611.8,1.149.06.639-.018,1.01-.85.991-2.541-.058-5.085-.021-7.627-.021" transform="translate(-63.256 -237.331)" fill="#12263f"/>
        <path id="Trazado_615400" data-name="Trazado 615400" d="M106.321,282.2c-1.846,0-3.693-.05-5.536.021-.957.037-.76-.549-.76-1.073s-.185-1.081.767-1.067c3.69.055,7.382.048,11.073.005,1-.012.674.643.7,1.122s.184,1.041-.709,1.011c-1.843-.062-3.691-.019-5.536-.019" transform="translate(-79.096 -221.511)" fill="#12263f"/>
        <path id="Trazado_615401" data-name="Trazado 615401" d="M84.165,162.219c-1.184,0-2.369-.034-3.55.011-.941.036-.624-.632-.635-1.072s-.266-1.069.659-1.051c2.331.045,4.665.049,7,0,1.011-.022.659.657.691,1.129.033.495.182,1.061-.716,1-1.144-.075-2.3-.018-3.445-.018" transform="translate(-63.222 -126.627)" fill="#12263f"/>
        <path id="Trazado_615402" data-name="Trazado 615402" d="M84.164,182.253c-1.184,0-2.369-.044-3.55.015-.812.041-.734-.47-.667-.937.064-.445-.406-1.193.626-1.182,2.367.024,4.734.02,7.1,0,1.035-.008.544.752.612,1.193.073.47.133.973-.678.926-1.145-.066-2.3-.017-3.445-.017" transform="translate(-63.189 -142.479)" fill="#12263f"/>
        <path id="Trazado_615403" data-name="Trazado 615403" d="M84.264,200.092c1.114,0,2.232.06,3.34-.019.881-.063.782.476.733.986-.045.463.344,1.163-.674,1.144q-3.5-.066-7,0c-1.016.02-.639-.674-.679-1.14-.044-.505-.16-1.05.727-.991,1.179.078,2.366.019,3.55.019" transform="translate(-63.233 -158.233)" fill="#12263f"/>
        <path id="Trazado_615404" data-name="Trazado 615404" d="M84.163,222.251c-1.184,0-2.369-.043-3.55.015-.814.04-.729-.476-.664-.94.062-.446-.4-1.191.629-1.18,2.367.026,4.734.021,7.1,0,1.043-.008.535.758.609,1.2.079.471.129.97-.68.923-1.145-.067-2.3-.017-3.445-.017" transform="translate(-63.191 -174.113)" fill="#12263f"/>
        <path id="Trazado_615405" data-name="Trazado 615405" d="M80.993,280.049c.921-.246,1.076.19,1.1,1.028.026.905-.279,1.079-1.116,1.073-.807-.006-1.07-.205-1.042-1.037.026-.78.068-1.338,1.058-1.064" transform="translate(-63.219 -221.434)" fill="#12263f"/>
        <path id="Trazado_615406" data-name="Trazado 615406" d="M16.418,87.249a12.528,12.528,0,0,1,1.352-1.161c.41-.266.621.223.8.454.54.706.928.5,1.458-.043,2.756-2.8,5.572-5.537,8.3-8.36.686-.709.973-.314,1.455.14.5.475.7.77.077,1.381C26.508,82.942,23.2,86.27,19.9,89.606c-.461.466-.752.575-1.221.023-.538-.634-1.171-1.186-1.758-1.78-.144-.146-.265-.314-.5-.6" transform="translate(-12.985 -61.493)" fill="#12263f"/>
      </g>
    </g>
  </g>
</svg>
