<svg xmlns="http://www.w3.org/2000/svg" xmlns:xlink="http://www.w3.org/1999/xlink" width="148" height="148" viewBox="0 0 148 148">
  <defs>
    <clipPath id="clip-path">
      <rect id="Rectángulo_378930" data-name="Rectángulo 378930" width="91.318" height="91.375" fill="#12263f"/>
    </clipPath>
  </defs>
  <g id="Grupo_1073495" data-name="Grupo 1073495" transform="translate(-725.998 -7570.86)">
    <g id="Grupo_1073386" data-name="Grupo 1073386" transform="translate(433.133 -1986.14)">
      <g id="Grupo_1072889" data-name="Grupo 1072889" transform="translate(292.865 9557)">
        <g id="Grupo_1072868" data-name="Grupo 1072868">
          <rect id="Rectángulo_377974" data-name="Rectángulo 377974" width="147.714" height="147.714" fill="none"/>
          <path id="Trazado_610930" data-name="Trazado 610930" d="M-10.279,9.952,111.342.268l15.952,134.154L-7.187,147.951Z" transform="translate(13.831 0.049)" fill="#ffed33"/>
          <path id="Trazado_610931" data-name="Trazado 610931" d="M-22845.346-5607.035l-31.521,31.011-1.01-2.023-2.7.843-2.023-.843-5.561-1.854,37.076-36.91v2.359h2.191v2.865Z" transform="translate(22993.346 5721.227)" fill="#ffa346"/>
          <path id="Trazado_610932" data-name="Trazado 610932" d="M-22845.346-5607.035l-31.521,31.011-1.01-2.023-2.7.843-2.023-.843-5.561-1.854,37.076-36.91v2.359h2.191v2.865Z" transform="translate(22888.156 5616.811)" fill="#ffa346"/>
        </g>
        <path id="Intersección_4" data-name="Intersección 4" d="M29.7,0l1.639,13.763L17.01,27.855,0,29.566Z" transform="translate(108.761 108.21)" fill="#fbdb0a"/>
        <path id="Intersección_3" data-name="Intersección 3" d="M5.772,31.685l-2.7.842-2.022-.842-.915-.305L0,25.336,24.523.931,36.2,0l2.1,2.7L6.782,33.708Z" transform="translate(4.512 7.08)" fill="#fbdb0a"/>
        <rect id="Rectángulo_377980" data-name="Rectángulo 377980" width="86.551" height="86.551" transform="translate(31.158 32.312)" fill="#ffed33"/>
        <g id="Grupo_1073424" data-name="Grupo 1073424" transform="translate(28.34 28.313)">
          <g id="Grupo_1073423" data-name="Grupo 1073423" clip-path="url(#clip-path)">
            <path id="Trazado_615525" data-name="Trazado 615525" d="M75.478,67.281a36.587,36.587,0,0,1-5.309,5.826c-.569.484-.462.96-.272,1.521a20.816,20.816,0,0,1,.826,7.456c-.075,2.234-1.129,3.428-3.356,3.276a5.362,5.362,0,0,0-5.174,2.325A10.008,10.008,0,0,1,45.9,86.59a2.3,2.3,0,0,0-2.269-1.213c-4.657.055-9.316.04-13.974.009a1.743,1.743,0,0,0-1.709.927,10.2,10.2,0,0,1-17.606-.024,1.6,1.6,0,0,0-1.577-.9c-1.9.045-3.8.037-5.7.005A2.856,2.856,0,0,1,.025,82.363c-.032-.949-.037-1.9.005-2.851a2.6,2.6,0,0,1,1.944-2.679c1.121-.259.972-.965.972-1.708q0-13.333,0-26.665c0-3.431.8-4.31,4.162-4.213,1.284.037,1.8-.229,1.909-1.611A35.353,35.353,0,0,1,14.1,26.8c.469-.771-.04-1.12-.367-1.6A10.271,10.271,0,0,1,18.379,9.592a9.713,9.713,0,0,1,10.595,1.961,1.751,1.751,0,0,0,2.227.3,36.11,36.11,0,0,1,14.109-2.97,2.049,2.049,0,0,0,1.947-1.037A17.65,17.65,0,0,1,65.377.341a17.9,17.9,0,0,1,13.8,13.791,17.711,17.711,0,0,1-1.433,11.507,2.086,2.086,0,0,0,.087,2.209,35.827,35.827,0,0,1,4.638,18.124c-.009.862.114,1.25,1.106,1.528a10.259,10.259,0,0,1,5.587,16.257c-2.472,3.37-5.039,6.67-7.513,10.039-.537.731-.789.7-1.3,0-1.559-2.151-3.179-4.258-4.875-6.514M16.456,28.853c-2.119,2.8-4.151,9.072-4.443,13.615-.113,1.763-.48,1.746,1.667,1.746q14.973,0,29.946,0c2.394,0,3.472,1.029,3.5,3.308.019,1.426.065,2.855-.016,4.277-.058,1.018.305,1.284,1.29,1.273,4.182-.048,8.366-.033,12.549-.013a4.352,4.352,0,0,1,4.394,3.356c.521,1.97.976,3.957,1.473,5.934.651,2.6,1.314,5.187,2.01,7.93a35,35,0,0,0,4.054-4.466c.638-.775.556-1.279-.015-2.071C68.436,57.6,71.054,49.8,78.317,47.562a1.52,1.52,0,0,0,1.273-1.79A35.829,35.829,0,0,0,75.963,30.53c-.5-1-.793-.928-1.4-.133-2.083,2.713-4.206,5.4-6.318,8.086s-4.217,5.356-6.379,8.1c-4.243-5.4-8.275-10.75-12.552-15.9-4.438-5.342-6.256-11.19-4.364-17.994.211-.759-.013-.908-.723-.861a35.6,35.6,0,0,0-11.608,2.6c-.818.345-1.033.633-.724,1.565a9.02,9.02,0,0,1-.793,8.1c-2.8,4.16-5.889,8.125-8.946,12.294l-5.7-7.539m1.257,29.49c0-3.491-.033-6.756.021-10.02.015-.936-.262-1.217-1.2-1.2-3.041.054-6.086.082-9.125-.011-1.234-.037-1.48.379-1.474,1.528.046,8.746.058,17.493-.009,26.239-.011,1.384.345,1.768,1.723,1.729a3.456,3.456,0,0,0,3.232-1.595,10.174,10.174,0,0,1,16.965.494c.4.615.718,1.091,1.614,1.08,4.515-.057,9.032-.049,13.547-.008.926.009,1.219-.258,1.216-1.2q-.048-13.547,0-27.095c0-1-.38-1.168-1.254-1.157-3.089.042-6.18.057-9.269-.006-1.032-.021-1.278.349-1.26,1.31.051,2.9-.017,5.8.035,8.7.02,1.112-.287,1.195-1.191.7-1.412-.777-2.93-1.37-4.307-2.2a3.274,3.274,0,0,0-3.792-.039c-1.684,1.017-3.516,1.786-5.476,2.757M76.541,18.355C76.772,8.606,68.095,1.1,58.664,3.387,47.688,6.053,43.57,18.413,50.512,27.341c3.5,4.5,7.049,8.947,10.532,13.454.607.785.9.972,1.6.066,3.564-4.623,7.207-9.184,10.791-13.791a13.934,13.934,0,0,0,3.106-8.714m-29.4,55.316c.555-.412.856-.633,1.156-.857A10.032,10.032,0,0,1,62.749,75c1.015,1.494,2.075,1.6,3.518,1.581.863-.009,1.04-.243.815-1.07-.611-2.24-1.184-4.493-1.685-6.76a1.061,1.061,0,0,0-1.246-1c-1.948.033-3.9-.054-5.845.023-4.35.173-5.495-.508-5.278-5.267.116-2.54,1.083-3.593,3.677-3.616,1.711-.015,3.422.008,5.132-.015.332,0,.79.184.931-.372a2.233,2.233,0,0,0-1.916-2.532c-4.277-.034-8.554-.01-12.832-.02-.55,0-.894.1-.892.769.015,5.55.008,11.1.008,16.949m-17.719-54.5A7.323,7.323,0,1,0,16.1,23.388c1.759,2.47,3.651,4.845,5.43,7.3.538.743.781.5,1.2-.071,1.738-2.37,3.515-4.71,5.269-7.068a6.828,6.828,0,0,0,1.415-4.375M80.9,69.571a1.668,1.668,0,0,0,.4-.265c1.913-2.537,3.874-5.039,5.71-7.63A7.29,7.29,0,0,0,85.921,52a7.384,7.384,0,0,0-9.75-.063,7.218,7.218,0,0,0-1.215,9.648C76.847,64.3,78.9,66.9,80.9,69.571M26.51,80.976a7.42,7.42,0,0,0-7.351-7.337,7.364,7.364,0,1,0,.076,14.727,7.356,7.356,0,0,0,7.274-7.391m28-7.337a7.364,7.364,0,1,0,7.382,7.342,7.453,7.453,0,0,0-7.382-7.342M29.425,50.349c0-.758-.025-1.517.008-2.274.027-.633-.14-.953-.862-.943-2.369.034-4.739.025-7.108.006-.613,0-.845.24-.833.842.023,1.137,0,2.275,0,3.412,0,2.2,0,2.193,1.992,1.21,1.273-.628,2.367-1.462,4.018-.491,2.7,1.589,2.783,1.446,2.782-1.761m7.4,29.257c-2.091,0-4.185.047-6.274-.021-.961-.031-1.3.293-1.127,1.211.131.7-.53,1.752,1.053,1.722q6.344-.12,12.692,0c1.592.031.913-1.022,1.048-1.72.175-.912-.149-1.245-1.117-1.214-2.089.069-4.183.021-6.274.021M60.165,64.815c1.09,0,2.181.011,3.271-.007.268,0,.65-.008.781-.171.438-.543-.722-2.7-1.439-2.7-1.944-.015-3.891.063-5.83-.03-1.2-.058-1.039.684-.987,1.37.049.644-.436,1.635.933,1.556,1.087-.062,2.18-.013,3.27-.012M5.817,82.489c.755,0,1.51.009,2.265,0,1.424-.019.605-1.1.74-1.685.126-.549.249-1.261-.792-1.209a28.769,28.769,0,0,1-3.678-.009c-1.129-.089-1.428.307-1.43,1.416,0,1.141.262,1.682,1.482,1.5a10.025,10.025,0,0,1,1.414-.013M64.854,81c-.341,1.207.139,1.554,1.347,1.528,1.08-.023,1.615-.149,1.585-1.441-.027-1.151-.276-1.581-1.5-1.519-1.041.053-1.85.049-1.435,1.432" transform="translate(0 0)" fill="#12263f"/>
            <path id="Trazado_615526" data-name="Trazado 615526" d="M147.314,135.6c.329,1.293-.351,1.47-1.452,1.489-1.131.019-1.542-.259-1.563-1.479-.022-1.3.423-1.56,1.623-1.551s1.684.344,1.391,1.541" transform="translate(-103.132 -95.814)" fill="#12263f"/>
            <path id="Trazado_615527" data-name="Trazado 615527" d="M165.093,135.595c-.351-1.361.366-1.486,1.446-1.512,1.135-.027,1.539.246,1.556,1.468.018,1.3-.435,1.571-1.631,1.559s-1.693-.358-1.371-1.515" transform="translate(-117.925 -95.828)" fill="#12263f"/>
            <path id="Trazado_615528" data-name="Trazado 615528" d="M126.8,135.625c.34,1.316-.388,1.417-1.463,1.468-1.27.06-1.416-.474-1.448-1.564-.037-1.235.411-1.455,1.537-1.47,1.237-.017,1.639.407,1.374,1.565" transform="translate(-88.545 -95.813)" fill="#12263f"/>
            <path id="Trazado_615529" data-name="Trazado 615529" d="M187.375,20.893a11.739,11.739,0,1,1-11.714,11.776,11.669,11.669,0,0,1,11.714-11.776M178.61,32.676a8.815,8.815,0,1,0,8.826-8.873,8.8,8.8,0,0,0-8.826,8.873" transform="translate(-125.546 -14.932)" fill="#12263f"/>
            <path id="Trazado_615530" data-name="Trazado 615530" d="M62.1,56.22a4.4,4.4,0,0,1,8.8-.062,4.4,4.4,0,1,1-8.8.062m5.829.073c-.051-.894-.482-1.456-1.384-1.487a1.421,1.421,0,1,0-.113,2.84,1.376,1.376,0,0,0,1.5-1.352" transform="translate(-44.385 -37.05)" fill="#12263f"/>
            <path id="Trazado_615531" data-name="Trazado 615531" d="M277.234,190.468a4.422,4.422,0,0,1-4.354,4.364,4.511,4.511,0,0,1-4.447-4.464,4.419,4.419,0,0,1,4.477-4.383,4.313,4.313,0,0,1,4.324,4.482m-4.449,1.311a1.335,1.335,0,0,0,1.518-1.345,1.367,1.367,0,0,0-1.37-1.5,1.3,1.3,0,0,0-1.465,1.373,1.274,1.274,0,0,0,1.317,1.476" transform="translate(-191.85 -132.925)" fill="#12263f"/>
            <path id="Trazado_615532" data-name="Trazado 615532" d="M56.188,277.269a4.293,4.293,0,0,1-4.369-4.424,4.385,4.385,0,0,1,4.328-4.374,4.451,4.451,0,0,1,4.47,4.4,4.374,4.374,0,0,1-4.43,4.4m.023-5.783a1.423,1.423,0,0,0-.019,2.847,1.328,1.328,0,0,0,1.428-1.422c.019-.908-.512-1.367-1.409-1.424" transform="translate(-37.035 -191.877)" fill="#12263f"/>
            <path id="Trazado_615533" data-name="Trazado 615533" d="M179.973,277.27a4.289,4.289,0,0,1-4.271-4.513,4.372,4.372,0,1,1,8.742.205,4.266,4.266,0,0,1-4.471,4.308m-.125-5.781a1.291,1.291,0,0,0-1.192,1.464,1.418,1.418,0,1,0,2.834-.1c-.023-.918-.568-1.346-1.642-1.362" transform="translate(-125.574 -191.877)" fill="#12263f"/>
          </g>
        </g>
      </g>
    </g>
  </g>
</svg>
