<svg xmlns="http://www.w3.org/2000/svg" xmlns:xlink="http://www.w3.org/1999/xlink" width="125" height="125" viewBox="0 0 125 125">
  <defs>
    <clipPath id="clip-path">
      <rect id="Rectángulo_379168" data-name="Rectángulo 379168" width="68.388" height="66.249" fill="#12263f"/>
    </clipPath>
  </defs>
  <g id="Grupo_1073789" data-name="Grupo 1073789" transform="translate(-738.496 -952.5)">
    <g id="Grupo_1072980" data-name="Grupo 1072980" transform="translate(-5.172 -5043.5)">
      <g id="Grupo_1072868" data-name="Grupo 1072868" transform="translate(358 1)">
        <rect id="Rectángulo_377974" data-name="Rectángulo 377974" width="125" height="125" transform="translate(385.668 5995)" fill="none"/>
        <path id="Trazado_610930" data-name="Trazado 610930" d="M-10.279,8.447,92.441.268l13.473,113.306L-7.668,125Z" transform="translate(398.947 5995)" fill="#fff"/>
        <path id="Trazado_610931" data-name="Trazado 610931" d="M-22852-5608.555l-26.621,26.192-.854-1.708-2.277.712-1.709-.712-4.7-1.565,31.316-31.174v1.993h1.85v2.42Z" transform="translate(23362.668 11700)" fill="#ffa346"/>
        <path id="Trazado_610932" data-name="Trazado 610932" d="M-22852-5608.555l-26.621,26.192-.854-1.708-2.277.712-1.709-.712-4.7-1.565,31.316-31.174v1.993h1.85v2.42Z" transform="translate(23273.826 11611.811)" fill="#ffa346"/>
      </g>
      <path id="Intersección_4" data-name="Intersección 4" d="M23221.221,11791.125l1.383,11.624-12.1,11.9-14.367,1.445Z" transform="translate(-22360.613 -5703.732)" fill="#ffe3c7"/>
      <path id="Intersección_3" data-name="Intersección 3" d="M23116.354,11732.74l-2.279.711-1.707-.711-.773-.258-.115-5.1,20.711-20.613,9.867-.786,1.77,2.278-26.621,26.19Z" transform="translate(-22364 -5704)" fill="#ffe3c7"/>
      <rect id="Rectángulo_377980" data-name="Rectángulo 377980" width="73" height="73" transform="translate(769.668 6023)" fill="#fff"/>
    </g>
    <g id="Grupo_1073799" data-name="Grupo 1073799" transform="translate(764 980.494)">
      <g id="Grupo_1073798" data-name="Grupo 1073798" clip-path="url(#clip-path)">
        <path id="Trazado_615945" data-name="Trazado 615945" d="M0,33.385c0-2.6-.011-5.192,0-7.788.011-2.074.938-3,2.987-3,1.558-.006,3.116.018,4.673-.007a2.429,2.429,0,0,1,2.4,1.26c.338.652.622.541,1.077.185a10.531,10.531,0,0,0,3.227-4.806c.561-1.491,1.06-3.005,1.622-4.5.951-2.522,1.812-3.065,4.537-2.943a.817.817,0,0,0,.457-.071c2.354-1.552,5.128-2.535,6.236-5.6a4.657,4.657,0,0,1,5.223-3.152,9.543,9.543,0,0,0,6.741-1.843,5.292,5.292,0,0,1,6.5,0,9.767,9.767,0,0,0,6.86,1.846,4.733,4.733,0,0,1,5.076,3.037,8.792,8.792,0,0,0,4.751,4.766A5.041,5.041,0,0,1,65.5,16.289a8.671,8.671,0,0,0,1.646,6.186,5.559,5.559,0,0,1,0,7,8.663,8.663,0,0,0-1.64,6.188,5.264,5.264,0,0,1-3.23,5.614,12.422,12.422,0,0,0-2.683,1.559,1.481,1.481,0,0,0-.48,1.967c2.006,4.775,3.926,9.586,5.876,14.384.1.258.218.514.314.775a1.116,1.116,0,0,1-.192,1.327,1.1,1.1,0,0,1-1.427.035q-3.014-1.718-6.031-3.431c-1.335-.76-1.337-.762-1.777.753q-.932,3.213-1.857,6.428c-.158.549-.322,1.092-1.022,1.165-.773.081-1.036-.471-1.267-1.039-1.786-4.391-3.577-8.781-5.338-13.182-.334-.834-.552-1.35-1.633-.712a4.506,4.506,0,0,1-4.692-.017c-1-.58-1.237-.137-1.559.668-1.746,4.365-3.524,8.717-5.295,13.072-.24.59-.429,1.259-1.269,1.211s-.95-.708-1.128-1.333c-.655-2.3-1.364-4.581-1.969-6.892-.22-.84-.507-.757-1.114-.4-2.065,1.208-4.156,2.373-6.239,3.548-.557.314-1.13.7-1.738.118-.544-.524-.275-1.1-.047-1.658,1.942-4.758,3.871-9.522,5.844-14.267.393-.946.345-1.265-.822-1.24-3.473.076-6.949.016-10.424.033a7.785,7.785,0,0,1-3.6-.7c-.337-.169-.633-.3-.953.068a2.772,2.772,0,0,1-2.306.756c-1.478-.007-2.956.01-4.433,0-2.139-.02-2.989-.858-3-2.973-.014-2.636,0-5.272,0-7.908m22.022-9.84c1.29,0,2.491-.093,3.67.026,1.206.122,1.575-.363,1.859-1.486a15.37,15.37,0,0,1,30.163,5.472,14.68,14.68,0,0,1-9.253,12.549c-5.511,2.354-10.759,1.535-15.587-2.018-.295-.217-.741-.936-.991-.424-.366.748-1.672.864-1.327,2.018A3.212,3.212,0,0,1,29.082,43.6c-.458.3-.456.5-.261.943.72,1.613,1.832,2.641,3.7,2.412a10.392,10.392,0,0,1,7.657,2.049,3.516,3.516,0,0,0,4.447.039,10.6,10.6,0,0,1,7.768-2.091,3.068,3.068,0,0,0,3.436-2.03,9.831,9.831,0,0,1,5.592-5.583,3.1,3.1,0,0,0,2.016-3.451,10.392,10.392,0,0,1,2.042-7.657,3.51,3.51,0,0,0-.01-4.539,10.252,10.252,0,0,1-2.03-7.54A3.231,3.231,0,0,0,61.3,12.537,9.5,9.5,0,0,1,55.88,7.106a3.2,3.2,0,0,0-3.629-2.115,10.268,10.268,0,0,1-7.54-2.046,3.6,3.6,0,0,0-4.556,0,10.25,10.25,0,0,1-7.539,2.045A3.259,3.259,0,0,0,28.975,7.1c-.21.473-.48.919-.707,1.385a7.064,7.064,0,0,1-3.321,3.324c-.572.282-1.122.609-1.7.888-.668.326-.947.648-.521,1.468a6.575,6.575,0,0,1,.513,4.662c-.371,1.541-.791,3.069-1.219,4.72m33.8,2.473c-.04-.6-.034-1.2-.131-1.788a18.179,18.179,0,0,0-.521-2.326,13.35,13.35,0,0,0-25.65.673c-.168.676-.093.951.622,1.176A3.163,3.163,0,0,1,32.286,28.1a1.166,1.166,0,0,0,.224,1.356,2.979,2.979,0,0,1,.081,3.955c-.692.784-.4,1.159.152,1.741a13.371,13.371,0,0,0,23.085-9.134M19.818,42.033a3.141,3.141,0,0,1-.077-2.085c.3-.64.067-.946-.422-1.373a2.951,2.951,0,0,1-.936-3.451,1.075,1.075,0,0,0-.309-1.321,3.177,3.177,0,0,1-.221-4.344,1.141,1.141,0,0,0,.237-1.341,3.193,3.193,0,0,1,1.136-3.928c.251-.2.519-.34.612-.691.458-1.73,1-3.441,1.379-5.188a4.869,4.869,0,0,0-.24-3.058c-.311-.686-.609-1.5-1.51-1.519-.948-.023-1.191.838-1.456,1.526-.687,1.781-1.278,3.6-1.98,5.376a9.978,9.978,0,0,1-5.113,5.889c-.626.28-.457.77-.458,1.212-.011,3.791-.007,7.582-.006,11.372,0,2.012.761,2.849,2.835,2.911,2.111.063,4.225.014,6.529.014M8.353,33.445c0-2.6-.019-5.192.012-7.788.009-.721-.236-1.008-.963-.992-1.477.031-2.955.022-4.433,0-.668-.008-.9.28-.9.941q.026,7.848,0,15.7c0,.674.244.934.907.924,1.437-.022,2.877-.046,4.313.009.863.033,1.089-.316,1.076-1.126-.039-2.555-.014-5.112-.015-7.668M27.4,46.231l-4.847,11.94c2.067-1.179,3.827-2.189,5.593-3.188,1.316-.745,1.812-.532,2.233.931.565,1.964,1.135,3.927,1.778,6.151C33.84,57.946,35.412,54.08,37,50.222c.215-.524-.039-.7-.455-.891a7.608,7.608,0,0,0-3.659-.32c-2.282.123-4.2-.426-5.486-2.779M62.317,58.155l-4.849-11.9c-1.431,2.61-3.617,2.883-6,2.75a7.518,7.518,0,0,0-2.844.211c-.789.26-.958.563-.62,1.358,1.324,3.115,2.576,6.26,3.862,9.391a6.043,6.043,0,0,0,.913,1.872c.6-2.077,1.16-4.026,1.74-5.967.428-1.434.869-1.616,2.15-.9,1.8,1.007,3.6,2.03,5.647,3.19M25.192,30.247c-1.477,0-2.953-.006-4.429,0-.852.005-1.543.31-1.55,1.27-.007.912.682,1.221,1.467,1.227,2.992.023,5.985.03,8.977,0,.82-.008,1.546-.307,1.481-1.322-.058-.911-.73-1.166-1.516-1.174-1.477-.015-2.953,0-4.43-.006m-.012,4.627c-1.156,0-2.313-.031-3.467.011-.792.029-1.413.359-1.4,1.286.014.866.623,1.2,1.353,1.209q3.526.056,7.052,0a1.2,1.2,0,0,0,1.349-1.222c0-.9-.622-1.251-1.422-1.276-1.155-.035-2.311-.009-3.467-.008m-.086-6.732c1.278,0,2.556.013,3.833,0,.785-.011,1.439-.248,1.484-1.188s-.572-1.272-1.373-1.28c-2.555-.026-5.109-.022-7.664-.008-.806,0-1.466.332-1.444,1.238.024.953.71,1.248,1.571,1.245,1.2,0,2.4,0,3.593,0m.123,13.889c.674,0,1.351.031,2.023-.008a1.315,1.315,0,0,0,1.411-1.182,1.192,1.192,0,0,0-1.244-1.318,39.955,39.955,0,0,0-4.4-.012,1.193,1.193,0,0,0-1.284,1.279c.048.9.691,1.191,1.466,1.237.672.04,1.349.008,2.023.005" transform="translate(0 0)" fill="#12263f"/>
        <path id="Trazado_615946" data-name="Trazado 615946" d="M152.939,96a4.895,4.895,0,0,1-.757-.45c-1.221-1.027-2.427-2.073-3.636-3.115-.54-.466-.856-1.031-.306-1.645s1.137-.383,1.68.087c.785.679,1.611,1.313,2.354,2.035.521.506.8.376,1.215-.126,1.982-2.4,4-4.772,6-7.153.154-.183.3-.375.462-.55.417-.448.9-.721,1.463-.281a1.008,1.008,0,0,1,.127,1.578q-3.829,4.6-7.7,9.164a1.394,1.394,0,0,1-.907.457" transform="translate(-112.489 -64.306)" fill="#12263f"/>
        <path id="Trazado_615947" data-name="Trazado 615947" d="M18.171,161.047a.933.933,0,0,1,.908,1.026A1.031,1.031,0,0,1,17.96,163.2.952.952,0,0,1,17,162.174a1.1,1.1,0,0,1,1.174-1.127" transform="translate(-12.921 -122.445)" fill="#12263f"/>
      </g>
    </g>
  </g>
</svg>
